<svg id="Eyes" xmlns="http://www.w3.org/2000/svg" xmlns:xlink="http://www.w3.org/1999/xlink" viewBox="0 0 500 500"><defs><style>.cls-1{fill:url(#radial-gradient);}.cls-2{fill:url(#radial-gradient-2);}.cls-3{fill:url(#New_Gradient_Swatch_32);}.cls-4{fill:#fcfbfa;}.cls-5{fill:#131b29;}.cls-6{fill:url(#New_Gradient_Swatch_32-2);}.cls-7{fill:#8cdbf4;}.cls-10,.cls-7,.cls-8{opacity:0.51;}.cls-9{fill:#71cef3;}.cls-10{fill:#a9e8f7;}</style><radialGradient id="radial-gradient" cx="266.25" cy="208.36" r="24.93" gradientUnits="userSpaceOnUse"><stop offset="0" stop-color="#fff"/><stop offset="0.55" stop-color="#fdfdfd"/><stop offset="0.79" stop-color="#f6f6f6"/><stop offset="0.97" stop-color="#e9e9e9"/><stop offset="1" stop-color="#e6e6e6"/></radialGradient><radialGradient id="radial-gradient-2" cx="155.41" cy="188.56" r="26.35" gradientUnits="userSpaceOnUse"><stop offset="0" stop-color="#fff"/><stop offset="0.44" stop-color="#fcfcfc"/><stop offset="0.76" stop-color="#f2f2f2"/><stop offset="1" stop-color="#e6e6e6"/></radialGradient><linearGradient id="New_Gradient_Swatch_32" x1="251.32" y1="212.12" x2="285.06" y2="212.12" gradientUnits="userSpaceOnUse"><stop offset="0" stop-color="#ce9c60"/><stop offset="0.2" stop-color="#c7965c"/><stop offset="0.47" stop-color="#b58551"/><stop offset="0.8" stop-color="#96693e"/><stop offset="1" stop-color="#805431"/></linearGradient><linearGradient id="New_Gradient_Swatch_32-2" x1="141.09" y1="192.97" x2="174.84" y2="192.97" xlink:href="#New_Gradient_Swatch_32"/></defs><g id="_30_Eyes_green_and_blue_2" data-name="30_Eyes_green_and_blue_2"><path d="M264.67,236.32a37.84,37.84,0,0,0,6.1-.43c9.69-1.52,19.66-6.74,22.88-16.44,1.43-4.32,2.42-9.22,1.72-13.78-.9-5.95-2-11.57-6.81-15.71a25.92,25.92,0,0,0-7.6-5.07c-1.48-.57-2.6-1.95-4.25-2.36-7-1.75-12.58-3-19.69-.5-6,2.09-10.89,6.55-14.54,11.64-7.65,10.65-7.82,25.15.93,35.1C248.12,234.13,256.93,236.29,264.67,236.32Zm-23.84-20.4a36.67,36.67,0,0,1-.1-7.72,27.13,27.13,0,0,1,4.51-12.81c7.86-11.62,24.18-14.51,36-7.19a31.67,31.67,0,0,1,5.8,5.23c7.91,8.45,5.11,21.37-.79,30.21A18.11,18.11,0,0,1,275.9,231a36.7,36.7,0,0,1-14.66,1.33c-4.79-.55-9.54-1.77-13.55-4.85-2.46-1.9-3.75-4.64-5.44-7.1A10.52,10.52,0,0,1,240.83,215.92Z"/><path class="cls-1" d="M287.06,193.43a31.67,31.67,0,0,0-5.8-5.23c-11.84-7.32-28.16-4.43-36,7.19a27.13,27.13,0,0,0-4.51,12.81,36.67,36.67,0,0,0,.1,7.72,10.52,10.52,0,0,0,1.42,4.42c1.69,2.46,3,5.2,5.44,7.1,4,3.08,8.76,4.3,13.55,4.85A36.7,36.7,0,0,0,275.9,231a18.11,18.11,0,0,0,10.37-7.32C292.17,214.8,295,201.88,287.06,193.43Z"/><path d="M171.09,213.27a34.92,34.92,0,0,0,8.81-5.78,7.58,7.58,0,0,0,1.87-2.09c1.91-3.4,3.82-6.14,4.36-10.06a36,36,0,0,0-.34-12.12c-1.79-8.81-11.56-16.09-18.85-20.17a21.11,21.11,0,0,0-10-2.46,33.84,33.84,0,0,0-13.9,2.88c-3.84,1.69-9.23,4.73-11.69,8.19a43.37,43.37,0,0,0-4.64,8,26.58,26.58,0,0,0-1.67,16.55c1.48,6.09,5.27,9.65,9.89,13.58C144.74,218.09,159.83,218,171.09,213.27ZM128.28,197c-1-2.19-.4-3.52-.66-5.78-.53-4.74,1.53-8.81,3.57-12.93a25.85,25.85,0,0,1,17.75-13.66,27.6,27.6,0,0,1,10.29-.53c7.57,1.35,16.11,6.74,20.13,13.36a25.18,25.18,0,0,1,3.92,13.15c-.09,11.07-9.73,20.67-20.3,22.35a30.36,30.36,0,0,1-4.89.34,42.85,42.85,0,0,1-12.72-2.24C139,209,131.06,203.25,128.28,197Z"/><path class="cls-2" d="M179.36,177.46c-4-6.62-12.56-12-20.13-13.36a27.6,27.6,0,0,0-10.29.53,25.85,25.85,0,0,0-17.75,13.66c-2,4.12-4.1,8.19-3.57,12.93.26,2.26-.32,3.59.66,5.78,2.78,6.25,10.73,12,17.09,14.06a42.85,42.85,0,0,0,12.72,2.24A30.36,30.36,0,0,0,163,213c10.57-1.68,20.21-11.28,20.3-22.35A25.18,25.18,0,0,0,179.36,177.46Z"/><path d="M277.68,227.08a21.31,21.31,0,0,0,5.34-3.5,4.83,4.83,0,0,0,1.13-1.26c1.15-2.06,2.31-3.72,2.64-6.09a22.06,22.06,0,0,0-.21-7.34c-1.09-5.33-7-9.74-11.41-12.21a12.87,12.87,0,0,0-6.05-1.49,20.7,20.7,0,0,0-8.42,1.74c-2.32,1-5.58,2.87-7.07,5a26,26,0,0,0-2.81,4.82,16.15,16.15,0,0,0-1,10c.9,3.68,3.19,5.84,6,8.22C261.73,230,270.86,230,277.68,227.08Zm-25.92-9.85c-.59-1.32-.24-2.13-.39-3.5-.33-2.87.92-5.33,2.16-7.83a15.65,15.65,0,0,1,10.74-8.27,16.53,16.53,0,0,1,6.23-.31,19.28,19.28,0,0,1,12.19,8.08,15.33,15.33,0,0,1,2.37,8c-.05,6.69-5.89,12.51-12.29,13.52a18.1,18.1,0,0,1-3,.21,25.73,25.73,0,0,1-7.7-1.36C258.26,224.47,253.45,221,251.76,217.23Z"/><path class="cls-3" d="M282.69,205.4a19.28,19.28,0,0,0-12.19-8.08,16.53,16.53,0,0,0-6.23.31,15.65,15.65,0,0,0-10.74,8.27c-1.24,2.5-2.49,5-2.16,7.83.15,1.37-.2,2.18.39,3.5,1.69,3.78,6.5,7.24,10.35,8.51a25.73,25.73,0,0,0,7.7,1.36,18.1,18.1,0,0,0,3-.21c6.4-1,12.24-6.83,12.29-13.52A15.33,15.33,0,0,0,282.69,205.4Z"/><path class="cls-4" d="M281.38,204.53a23.31,23.31,0,0,0-7.32-4.18,29,29,0,0,0-3.79-1.26c-1.53-.39-3.33-.82-4.78-.07a4,4,0,0,0-.9.68,2.13,2.13,0,0,0-.42.1c-2.4,1-4.54,3.1-3.86,6.41.6,2.88,3.19,5.17,5.23,6.8,3.93,3.15,9.12,5.36,13.87,5,2.84-.22,5-2.46,5.25-5.7A9.79,9.79,0,0,0,281.38,204.53Z"/><path class="cls-5" d="M280.87,202.34a18.12,18.12,0,0,0-15.56-4.28c-2.17.47-4.49,1.25-5.76,3.42-2.5,4.25.12,9.67,3.51,12.37a26.09,26.09,0,0,0,6.7,3.66,19.85,19.85,0,0,0,7.69,1.72,8,8,0,0,0,7.94-9.38A12.75,12.75,0,0,0,280.87,202.34Zm-3.09,14.59a12.82,12.82,0,0,1-3.46-.09,22.47,22.47,0,0,1-8.14-3.59c-1.94-1.23-4.3-3.06-4.95-5.61-1-3.78,1.1-6.28,4-7.39,3.39-1.29,7.31,0,10.58,1.49,2.4,1.12,5.08,2.31,6.48,5,1.2,2.3,1.63,5.45.19,7.6A6.29,6.29,0,0,1,277.78,216.93Z"/><path class="cls-4" d="M261.6,210.33a5.64,5.64,0,0,0-.58-1.15,3.22,3.22,0,0,0-.88-.92,2.87,2.87,0,0,0-1.3-.54,3.16,3.16,0,0,0-.92,0,4.43,4.43,0,0,0-2,.77,2.83,2.83,0,0,0-1.71,1.42,5,5,0,0,0-.33,3.24,5.32,5.32,0,0,0,1.06,2.48,3.47,3.47,0,0,0,2.44,1.32,4.26,4.26,0,0,0,2.23-.51,5,5,0,0,0,1.74-1.63,4.58,4.58,0,0,0,.6-3.1A7.28,7.28,0,0,0,261.6,210.33Z"/><path class="cls-5" d="M259.69,207.18A3,3,0,0,0,259,207a5.44,5.44,0,0,0-5.87,2.61,5.61,5.61,0,0,0,.5,5.76,4.89,4.89,0,0,0,8.85-2.1C262.71,211,261.64,208.12,259.69,207.18Zm1.13,4.58a2.48,2.48,0,0,1-.45,1.93,4.09,4.09,0,0,1-1.49,1.32,2.78,2.78,0,0,1-2.14.11,3,3,0,0,1-1.46-1.16,3.58,3.58,0,0,1-.62-2.23c.2-2.41,2.74-3.09,4.52-2.17A3.14,3.14,0,0,1,260.82,211.76Z"/><path d="M167.46,207.93a21.08,21.08,0,0,0,5.33-3.5,4.87,4.87,0,0,0,1.14-1.26c1.15-2.06,2.31-3.72,2.63-6.09a21.8,21.8,0,0,0-.2-7.34c-1.09-5.33-7-9.74-11.41-12.21a12.87,12.87,0,0,0-6-1.49,20.7,20.7,0,0,0-8.42,1.74c-2.32,1-5.58,2.87-7.07,5a26,26,0,0,0-2.81,4.82,16.15,16.15,0,0,0-1,10c.9,3.68,3.19,5.84,6,8.22C151.51,210.85,160.64,210.81,167.46,207.93Zm-25.92-9.85c-.59-1.32-.24-2.13-.39-3.5-.33-2.87.92-5.33,2.15-7.83a15.67,15.67,0,0,1,10.75-8.27,16.52,16.52,0,0,1,6.23-.31,19.23,19.23,0,0,1,12.18,8.08,15.25,15.25,0,0,1,2.38,8c-.06,6.7-5.89,12.52-12.29,13.53a18.18,18.18,0,0,1-3,.21,25.73,25.73,0,0,1-7.7-1.36C148,205.32,143.22,201.86,141.54,198.08Z"/><path class="cls-6" d="M172.46,186.25a19.23,19.23,0,0,0-12.18-8.08,16.52,16.52,0,0,0-6.23.31,15.67,15.67,0,0,0-10.75,8.27c-1.23,2.5-2.48,5-2.15,7.83.15,1.37-.2,2.18.39,3.5,1.68,3.78,6.5,7.24,10.35,8.51a25.73,25.73,0,0,0,7.7,1.36,18.18,18.18,0,0,0,3-.21c6.4-1,12.23-6.83,12.29-13.53A15.25,15.25,0,0,0,172.46,186.25Z"/><path class="cls-4" d="M171.16,185.38a23.24,23.24,0,0,0-7.33-4.18,28.89,28.89,0,0,0-3.78-1.26c-1.53-.39-3.33-.82-4.78-.07a3.74,3.74,0,0,0-.9.68,2.13,2.13,0,0,0-.42.1c-2.4,1-4.54,3.1-3.86,6.41.6,2.88,3.19,5.17,5.22,6.8,3.94,3.15,9.13,5.36,13.88,5,2.83-.22,4.95-2.46,5.25-5.7A9.79,9.79,0,0,0,171.16,185.38Z"/><path class="cls-5" d="M170.65,183.19a18.12,18.12,0,0,0-15.56-4.28c-2.17.47-4.49,1.25-5.76,3.42-2.5,4.25.11,9.67,3.51,12.37a25.93,25.93,0,0,0,6.7,3.66,19.85,19.85,0,0,0,7.69,1.72,8,8,0,0,0,7.93-9.38A12.62,12.62,0,0,0,170.65,183.19Zm-3.09,14.59a12.82,12.82,0,0,1-3.46-.09A22.59,22.59,0,0,1,156,194.1c-1.94-1.23-4.29-3.07-4.94-5.61-1-3.78,1.1-6.28,4-7.39,3.39-1.29,7.31,0,10.58,1.49,2.4,1.12,5.08,2.31,6.48,5,1.2,2.31,1.63,5.46.19,7.61A6.3,6.3,0,0,1,167.56,197.78Z"/><path class="cls-4" d="M151.38,191.18a5.64,5.64,0,0,0-.58-1.15,3.22,3.22,0,0,0-.88-.92,2.91,2.91,0,0,0-1.3-.54,3.15,3.15,0,0,0-.92,0,4.54,4.54,0,0,0-2,.76,2.88,2.88,0,0,0-1.71,1.43,5.1,5.1,0,0,0-.34,3.24,5.44,5.44,0,0,0,1.07,2.48,3.45,3.45,0,0,0,2.43,1.32,4.21,4.21,0,0,0,2.23-.51,5,5,0,0,0,1.75-1.63,4.63,4.63,0,0,0,.6-3.1A7.28,7.28,0,0,0,151.38,191.18Z"/><path class="cls-5" d="M149.47,188a3,3,0,0,0-.68-.23,5.44,5.44,0,0,0-5.87,2.61,5.61,5.61,0,0,0,.5,5.76,4.82,4.82,0,0,0,4.88,2,4.77,4.77,0,0,0,4-4.12C152.49,191.8,151.41,189,149.47,188Zm1.13,4.58a2.48,2.48,0,0,1-.45,1.93,4.09,4.09,0,0,1-1.49,1.32,2.78,2.78,0,0,1-2.14.11,3,3,0,0,1-1.46-1.16,3.58,3.58,0,0,1-.62-2.23c.2-2.41,2.74-3.09,4.52-2.17A3.14,3.14,0,0,1,150.6,192.61Z"/><path class="cls-7" d="M269.31,231.61A20.23,20.23,0,0,0,266,231c-1.25-.06-2.49.11-3.74.05a26.59,26.59,0,0,1-3-.37c-1-.16-1.91-.31-2.85-.55a16.05,16.05,0,0,1-5.78-2.82,17.06,17.06,0,0,0-2.51-1.82c-1.19-.61-3.4-1.31-4.68-.59a2.36,2.36,0,0,0-1,1.28,5.55,5.55,0,0,0,0,3.49,12.43,12.43,0,0,0,.73,1.77,10.81,10.81,0,0,1,.82,1.48,12.74,12.74,0,0,0,.17,1.33c.16.41.72.71.84,1.05.43,1.18,1.7,1.39,2.81,1.87a12.44,12.44,0,0,1,2.5,1.47c.11.35.23.68.37,1,.07.16.15.31.22.47s.06.15.07.18a6,6,0,0,1,.27.7c0,.12.07.23.1.35a1.42,1.42,0,0,1,0,.2l0,.1v0a1.49,1.49,0,0,1,0,.21c0,.12,0,.24,0,.36s0,.24,0,.36a.37.37,0,0,0,0,.08l0,.08a.75.75,0,0,0-.29.48,3.11,3.11,0,0,1-.16.67l-.1.24-.12.24c-.14.26-.29.5-.44.75l-.06,0a4.14,4.14,0,0,0-1.63,3.36,3,3,0,0,0,2.42,2.7c1.36.22,3.11-.11,3.79-1.37a4.65,4.65,0,0,0,.14-3.81c-.22-.59-.51-1.15-.74-1.74,0-.15-.09-.31-.13-.46a2.07,2.07,0,0,1,1.11-.74c.8-.2,1.43.42,2.23.59a4.93,4.93,0,0,0,2.61-.14c.38-.13.83-.31,1.18-.1a1.27,1.27,0,0,1,.46,1l.58,4.51a13.91,13.91,0,0,1,.16,2.73,11,11,0,0,1-.81,3.12,8.55,8.55,0,0,0-.58,1.84,2.42,2.42,0,0,0,.39,1.84,3.51,3.51,0,0,0,2.48,1,2.83,2.83,0,0,0,1.53-.12,1.87,1.87,0,0,0,.94-1.18,4.2,4.2,0,0,0,.11-1.54,11.64,11.64,0,0,0-.59-2.93,20.77,20.77,0,0,1-1-3,7.32,7.32,0,0,1-.07-2.38,8.36,8.36,0,0,0-.36-2.2,5.67,5.67,0,0,1,0-1.09,3.67,3.67,0,0,1,.28-1.39,3.07,3.07,0,0,1,1.53-1.22l.27-.13A.8.8,0,0,0,267,242c.34,0,.68,0,1,0,1.44.11,2.53.72,3.92.18a8.92,8.92,0,0,0,3.59-2.35,19.24,19.24,0,0,0,2.17-3.76,6.39,6.39,0,0,1,3-3.12c.58-.23,1.22-.33,1.8-.57a3.75,3.75,0,0,0,2.19-2.37,1.27,1.27,0,0,0-.09-1.14,1.5,1.5,0,0,0-.89-.48,6.42,6.42,0,0,0-3.89.68c-1,.39-1.8,1.15-2.77,1.62a11.59,11.59,0,0,1-6.83,1.06Z"/><g class="cls-8"><path class="cls-9" d="M254.88,245.73a2.66,2.66,0,0,1,0,.28,3.48,3.48,0,0,1-.53,2.13,3.29,3.29,0,0,1-3.49,1.25,3.15,3.15,0,0,1-2.11-1.89,2.9,2.9,0,0,0-.1,1.06,3,3,0,0,0,2.42,2.7c1.36.22,3.11-.11,3.79-1.37a4.65,4.65,0,0,0,.14-3.81A3.68,3.68,0,0,0,254.88,245.73Z"/><path class="cls-9" d="M262.84,243a1,1,0,0,0,.33-1,.72.72,0,0,0-.25-.51,1,1,0,0,0-.6-.16c-1.63-.08-3.4.29-4.81-.49-.55-.31-1.05-.79-1.69-.76-1.29,0-1.76,2.59-1.58,3.53a2.39,2.39,0,0,1,2-.33,9.39,9.39,0,0,1,.86.59,4.55,4.55,0,0,0,2.49.42,2.5,2.5,0,0,0,1.69-.44C261.78,243.44,262.44,243.35,262.84,243Z"/><path class="cls-9" d="M283.85,229.27a2.76,2.76,0,0,0-2.24-.66,5.8,5.8,0,0,0-2.24.84c-1.48.88-2.81,2-4.52,2.41a10.47,10.47,0,0,1-4.82-.07,16.39,16.39,0,0,0-1.69-.36c-1.7-.19-3.43,0-5.15-.13-1.38-.13-2.76-.27-4.13-.44a11.31,11.31,0,0,1-2.09-.38,11.8,11.8,0,0,1-1.94-.83,23.53,23.53,0,0,1-3.18-1.78c-.7-.49-1.34-1.06-2.06-1.53a6.23,6.23,0,0,0-2.23-.84c-.75-.17-1.47-.47-2.23-.62a3.45,3.45,0,0,0-2.27.24,2.69,2.69,0,0,0-1.25,2.37,6.44,6.44,0,0,0,.78,2.65,15.57,15.57,0,0,1,1.54,2.89,5.34,5.34,0,0,0,.16,1.31c.16.36.71.67.81,1,.43,1.18,1.7,1.39,2.81,1.87a12.44,12.44,0,0,1,2.5,1.47c.11.35.23.68.37,1,.07.16.15.31.22.47s.06.15.07.18.11.29.17.43c.13.35,1.56-.54,1.7-.68a2.85,2.85,0,0,0,.71-2c-.11-1.38-1.53-2.35-2.93-2.75s-2.92-.42-4.29-.94a2.49,2.49,0,0,1-1.57-2.28c0-1.06-1-2.23-1.47-3.19a1.44,1.44,0,0,1-.26-.91,1.23,1.23,0,0,1,.47-.68,2.45,2.45,0,0,1,1.51-.68,2.92,2.92,0,0,1,1.81.68,3.18,3.18,0,0,1,1.6,2.25,2,2,0,0,0,1.2,1.43c.43.17,1,.11,1.36.31s.57.69.8,1a3.86,3.86,0,0,0,1.76,1.16,5.47,5.47,0,0,0,2.45.6c.54,0,1.07-.24,1.61-.25s1.28.3,1.81.09a3.85,3.85,0,0,0,1-.65c.06-.08.08-.18.14-.26a.74.74,0,0,1,.7-.3c.92.07,1.26.95,1.87,1.48a4.55,4.55,0,0,0,2.58,1.11c.73.06,1.47-.08,2.2,0a15.08,15.08,0,0,1,2.27.57,7.25,7.25,0,0,0,2.86.09,3.51,3.51,0,0,0,1.26-.44,7.32,7.32,0,0,0,1.94-2.62c.61-1,2-1.67,2.92-2.38a4.53,4.53,0,0,1,2.32-1.06,1.94,1.94,0,0,1,1.64.53.74.74,0,0,1-.43,1.3,2.9,2.9,0,0,1-.51,0,5.89,5.89,0,0,0-1.45.34,8.64,8.64,0,0,0-1.33.44,11.27,11.27,0,0,0-3.31,2.88,10.19,10.19,0,0,1-6.76,3.06,14.3,14.3,0,0,1-7.32-1.64,1.55,1.55,0,0,0-1.3-.24,1,1,0,0,0-.39,1.17,2.3,2.3,0,0,0,.86,1,8.45,8.45,0,0,0,1.39.82c.65.3,1.6.72,1.67,1.56s-.77,1.6-1,2.3a1.93,1.93,0,0,0-.11.86.79.79,0,0,0,1.39.43,16.84,16.84,0,0,0,1.29-1.4l.16-.15.11-.09,0,0s.2-.13.25-.15l.27-.13A.8.8,0,0,0,267,242c.34,0,.68,0,1,0,1,.07,2.05.51,3,.5a3.61,3.61,0,0,0,2.13-1,16.27,16.27,0,0,0,3.35-4c1.38-2.1,2.95-4.35,5.43-5.16a4,4,0,0,0,2.08-1A1.6,1.6,0,0,0,283.85,229.27Z"/><path class="cls-9" d="M265.56,252.77c-.18-.86-.19-1.75-.34-2.61s-.35-1.44-.46-2.18a3.72,3.72,0,0,1,0-1.25l-.21,0c0,.46,0,.93.07,1.4a16.82,16.82,0,0,1,.22,2.65c0,.7-.29,1.42-.38,2.13a3.49,3.49,0,0,0,.18,2.28,2.06,2.06,0,0,1-.21,2.78,1.72,1.72,0,0,1-2.54-.77c-.35-1,.46-2.25,1-3a3.53,3.53,0,0,0,.58-2.41,20.78,20.78,0,0,0-.57-2,14.27,14.27,0,0,1-.08-2.62,8.18,8.18,0,0,0-.42-2.4c0-.15-.14-.32-.3-.34s-.31.3-.31.54a20,20,0,0,0,.28,3.94,9.19,9.19,0,0,1,.19,3.5c-.21,1.09-.75,2.08-1.06,3.14a3.39,3.39,0,0,0,.38,3.15,3.1,3.1,0,0,0,1.19.82,3,3,0,0,0,2.28.22,2.53,2.53,0,0,0,1.46-2,5.46,5.46,0,0,0-.27-2.53C266.06,254.4,265.73,253.61,265.56,252.77Z"/></g><path class="cls-10" d="M265,241.47l.47,0a4.54,4.54,0,0,0,.75-.16,1.83,1.83,0,0,0,.59-.3.74.74,0,0,0,.31-.57.83.83,0,0,0-.56-.75,2.52,2.52,0,0,0-1-.12H265c-.63,0-1-.46-1.45-.81a11,11,0,0,0-1.81-1c-.51-.24-1.09-.55-1.18-1.08a.21.21,0,0,1,.05-.2.32.32,0,0,1,.17,0,5.35,5.35,0,0,1,2.44.74c.42.25.8.57,1.24.79.78.38,1.62,0,2.45.3s1.37,1.11,2.31,1.41a3.34,3.34,0,0,0,2.76.15c.72-.41.89-1.4,1.39-2s1.26-.92,1.82-1.46c1-1,1.28-2.56,2.39-3.46a6.34,6.34,0,0,1,1.92-1c.68-.24,1.33-.55,2-.74.47-.13,1-.26,1.24-.67a.43.43,0,0,0,.06-.29.46.46,0,0,0-.31-.34,1.16,1.16,0,0,0-.49-.06,4.93,4.93,0,0,0-2.84,1.43c-.7.64-1.68.85-2.35,1.56-.37.39-.63.87-1,1.28a4.44,4.44,0,0,1-2.93,1.49,2.84,2.84,0,0,1-1.68-.23,14.42,14.42,0,0,1-1.73-1,2.62,2.62,0,0,0-.87-.47,2.09,2.09,0,0,0-1.31.24,7.16,7.16,0,0,1-1.24.54,1.65,1.65,0,0,1-1.47-.48,11.87,11.87,0,0,0-1.37-.89c-1-.6-1.9-1.24-2.84-1.83a6.11,6.11,0,0,0-2.25-.75,3.43,3.43,0,0,1-1-.16,3.58,3.58,0,0,1-.59-.36,5.81,5.81,0,0,0-2.55-.72,8.38,8.38,0,0,1-1.94-.14c-.49-.15-1.67-.58-1.68.36a1,1,0,0,0,.16.49,2.25,2.25,0,0,0,2.09,1.08c1.07-.1,2-.8,3.1-.89s1.39,1,2.34,1.35c.21.09.44.13.65.23a.71.71,0,0,1,.44.47.31.31,0,0,1-.07.26.41.41,0,0,1-.11.07,1.21,1.21,0,0,1-.82,0c-.27-.07-.52-.19-.79-.26a4.81,4.81,0,0,0-.76-.12c-.81-.1-1.44.32-2.24.27a7.17,7.17,0,0,1-2.35-.66,5.15,5.15,0,0,1-1.4-.82,5.43,5.43,0,0,0-2-1.55c-1-.37-1.57-1.14-2.48-1.67a1.35,1.35,0,0,0-.93-.24c-.17,0-.27.2-.42.24s-.46-.09-.72.07a.71.71,0,0,0-.34.59,1,1,0,0,0,.44.76c.23.19.51.34.75.53.87.69.72,1.83,1.17,2.75a2.24,2.24,0,0,0,1.28,1.09l.44.2a1.76,1.76,0,0,1,.2.09c.21.07.42.15.64.21s.68.1,1,.16a2.8,2.8,0,0,1,1.37.55,1.7,1.7,0,0,1,.3.3c.13,0,.26,0,.38.06a2.77,2.77,0,0,1,.74.34l.11.07.07,0h.12l.27,0a14.84,14.84,0,0,1,2.38.22,4.49,4.49,0,0,0,2.9-.31,1.13,1.13,0,0,1,.39-.17.29.29,0,0,1,.34.19c0,.13-.08.25-.2.33a3.93,3.93,0,0,1-1.67.51,3,3,0,0,0-2,.94c-.27.43-.28.75-.75,1.05s-.73.34-1.05.57l-.07.05-.22.19c-.13.12-.25.25-.37.38l-.06.07,0,0a7.83,7.83,0,0,1-.66,3,.78.78,0,0,1,0,.3,6.6,6.6,0,0,1-.63,2l-.42.84-.19.38c0,.09-.09.18-.13.28l0,0a7,7,0,0,0-.29.76c0,.12-.07.25-.1.38v.08a.44.44,0,0,0,0,.09c0,.13,0,.25,0,.38a.74.74,0,0,1,0,.14s0,0,0,.08l0,.08.1.16h0l.06,0,0,0,0,0h0l.52.13h.44l.27-.06.16-.06.14-.06.42-.25.15-.13.15-.16a2.83,2.83,0,0,1,.2-.28l.08-.16,0,0,.13-.36c.08-.24.14-.5.2-.75a9,9,0,0,1-.16-1,2.93,2.93,0,0,1,.47-2.09.62.62,0,0,1,.14-.14,3.06,3.06,0,0,1,0-.8,3.62,3.62,0,0,1,.5-1.6,2.21,2.21,0,0,1,1.56-1,2.29,2.29,0,0,1,.47-.69,3.6,3.6,0,0,1,2.5-.84,4.53,4.53,0,0,1,2.37.76,2.74,2.74,0,0,1,1.46,2.12,1.54,1.54,0,0,1-.06.43,2,2,0,0,1,.37,1,3.72,3.72,0,0,1-.22,1.31,5.91,5.91,0,0,0,0,2.71,32.58,32.58,0,0,0,.13,3.28c.11.52.32,1,.39,1.56A4.21,4.21,0,0,1,263,254a4.21,4.21,0,0,0-.75,2.2,1.74,1.74,0,0,0,1.12,1.42c.75.24,1.74-.2,1.7-1-.07-1.78-.72-3.51-.73-5.29,0-.6.07-1.19,0-1.79,0-1.07-.39-2.11-.44-3.18,0-.68.21-1.36.13-2-.1-.83-.59-1.9.24-2.54A1.36,1.36,0,0,1,265,241.47Z"/><g class="cls-8"><path class="cls-4" d="M263.63,243.71a.54.54,0,0,0-.16-.24c-.74-.63-.44,1.22-.37,1.53a7.93,7.93,0,0,1,.18,2.17,13.34,13.34,0,0,0-.09,1.41,7.13,7.13,0,0,0,.21,1.21,11.41,11.41,0,0,1,.34,2.66,4.25,4.25,0,0,1-.83,2.52c-.22.28-.5.53-.69.83a1.45,1.45,0,0,0-.2,1.12.94.94,0,0,0,.84.7,1.06,1.06,0,0,0,.83-.5,3.33,3.33,0,0,0,.36-.94,18.14,18.14,0,0,0,.47-2.42,5.43,5.43,0,0,0,0-2.27,8.58,8.58,0,0,1-.64-1.49,9.48,9.48,0,0,1-.43-1.34,2.43,2.43,0,0,1,0-.47,13.46,13.46,0,0,0,.22-1.79,15.43,15.43,0,0,1-.1-1.67A2.33,2.33,0,0,0,263.63,243.71Z"/><path class="cls-4" d="M252.33,243.15a.21.21,0,0,0-.11-.1c-.17-.06-.42.29-.46.41a12.48,12.48,0,0,1-.61,1.46c-.23.45-.58.84-.78,1.29a.84.84,0,0,0,0,.74c.45.87,1.37-.36,1.41-.89a2.67,2.67,0,0,0,0-.4,4.55,4.55,0,0,1,.45-1.87C252.27,243.66,252.41,243.32,252.33,243.15Z"/><path class="cls-4" d="M253.78,248.67a3.83,3.83,0,0,0,.08-.68,1.37,1.37,0,0,0-.43-1.17c-.09-.06-.25-.09-.3,0a.32.32,0,0,0,0,.09l-.1.9a1.33,1.33,0,0,1-.09.44,1,1,0,0,1-.84.59,1.05,1.05,0,0,1-.9-.51,2.82,2.82,0,0,0-.23-.42.37.37,0,0,0-.62.1.77.77,0,0,0-.09.66,1.92,1.92,0,0,0,.49.74,2.33,2.33,0,0,0,1.51.58c.61,0,1.14-.12,1.37-.73A3,3,0,0,0,253.78,248.67Z"/><path class="cls-4" d="M255.82,234.25l-.38,0A11.74,11.74,0,0,1,252,233c-.49-.24-.59-.72-1.08-.91a6.8,6.8,0,0,0-3.13-.47c-.59.05-2.17.25-1.26,1.14a1.56,1.56,0,0,0,.84.36c.62.12,1.26.11,1.89.19a2.87,2.87,0,0,1,1.7.71c.26.25.43.57.69.81a2.76,2.76,0,0,0,1.94.48,9.28,9.28,0,0,1,1.9,0,3.68,3.68,0,0,0,2.73-.32.61.61,0,0,0,.18-.83c-.32-.4-.87-.15-1.26-.05A4.38,4.38,0,0,1,255.82,234.25Z"/><path class="cls-4" d="M270.78,236.39c-.6-.06-1.21.19-1.83-.11a3.85,3.85,0,0,0-1.21-.49c-.67-.08-1.33.37-2,.22-.41-.09-.73-.4-1.14-.47a2.14,2.14,0,0,1-.57-.12,1.26,1.26,0,0,1-.36-.54,1.75,1.75,0,0,0-2.17-.8c-.66.29-1,1.09-.33,1.58a2.81,2.81,0,0,0,1.26.37c.46.06.93.14,1.39.23a2.39,2.39,0,0,1,1.55.78,1.19,1.19,0,0,0,1.08.66,9.89,9.89,0,0,0,1.09-.17,2.77,2.77,0,0,1,2,.41c.58.58-.18,1-.75,1h-.6a1.24,1.24,0,0,0-.83.17.46.46,0,0,0,0,.73.76.76,0,0,0,.26.06l1.31.12a1.34,1.34,0,0,0,.69-.06,4,4,0,0,0,.43-.29c.64-.35,1.46.26,2.06-.11.29-.18.39-.59.7-.79a6.21,6.21,0,0,1,.93-.37,1.19,1.19,0,0,0,.52-.42.63.63,0,0,0,0-.65.23.23,0,0,0-.11-.08c-.06,0-.11,0-.17.05a2.18,2.18,0,0,1-1,.35,1,1,0,0,1-.62-.11c-.45-.27-.59-.81-1.12-1A1.17,1.17,0,0,0,270.78,236.39Z"/><path class="cls-4" d="M257.39,237.33a.58.58,0,0,0-.68-.36.52.52,0,0,0-.38.64v0s0,0,0,.05,0,.08,0,.07a.79.79,0,0,1-.17.2,5.05,5.05,0,0,1-.77.39h-.09a4.16,4.16,0,0,0-2,1.35,2.44,2.44,0,0,0-.54,1.09.93.93,0,0,0,.3.81h0a.53.53,0,0,0,.65.22l.08,0a1,1,0,0,0,.95-.6,1,1,0,0,0,.1-.53,4.43,4.43,0,0,1,.21-.67,1.82,1.82,0,0,1,.52-.62,2.1,2.1,0,0,1,.31-.19l.43-.2C257,238.73,257.63,238.1,257.39,237.33Z"/><path class="cls-4" d="M264.18,240.67a2,2,0,0,0-.19-.45,1.71,1.71,0,0,0-.45-.44.61.61,0,0,0-.42-.05.54.54,0,0,0-.33.24.51.51,0,0,0-.06.4l.06.12a.58.58,0,0,0,.19.19h0l-.09-.07a.43.43,0,0,1,.12.11l.07.11,0,.13a.28.28,0,0,1,0,.13l0,.13h0a.51.51,0,0,0,.2.71.58.58,0,0,0,.75-.19A1.46,1.46,0,0,0,264.18,240.67Z"/><path class="cls-4" d="M282.33,230a2.15,2.15,0,0,0-.87-.17,2.21,2.21,0,0,0-.79.21,1.18,1.18,0,0,0-.28.2.38.38,0,0,0-.08.32.41.41,0,0,0,.22.23,1,1,0,0,0,.34.07,4.83,4.83,0,0,0,1.14,0,.73.73,0,0,0,.52-.22C282.76,230.36,282.6,230.16,282.33,230Z"/><path class="cls-4" d="M277.79,232.55a.3.3,0,0,0-.22-.05,2.05,2.05,0,0,0-1,.48,3.83,3.83,0,0,0-.69.87c-.29.47-.59,1-1.21,1a4.26,4.26,0,0,0-.51,0,.54.54,0,0,0-.29.76,1,1,0,0,0,.8.44c1.2.07,1.62-1.12,2-2,.15-.35.19-.79.57-1l.31-.13a.61.61,0,0,0,.28-.19A.21.21,0,0,0,277.79,232.55Z"/><path class="cls-4" d="M246,228.9a1.31,1.31,0,0,0-.78-.59.62.62,0,0,1-.36-.64,2,2,0,0,1,.27-.72.7.7,0,0,0,.11-.6c-.25-.53-1.41-.35-1.73,0a1.77,1.77,0,0,0,.09,1.91,2.34,2.34,0,0,0,.81.72l.2.12s.15.11.19.12l0,0,.08.08.07.11c.26.48,1,.21,1-.26A.54.54,0,0,0,246,228.9Z"/><path class="cls-4" d="M244.61,227.83l0,0h0Z"/></g><path d="M276.25,240.29a4.22,4.22,0,0,0,1.19-2.17,15.42,15.42,0,0,1,.79-2.85,5,5,0,0,1,3.26-2.6,11.65,11.65,0,0,1,2-.16c1.7-.2,2.57-2.72,1.16-3.78a3.36,3.36,0,0,0-2.24-.52,8.86,8.86,0,0,0-2.66.27c-2.23.68-4,2.5-6.32,3a10.4,10.4,0,0,1-5-.32,22.54,22.54,0,0,0-5-.66c-1,0-2.08.13-3.13,0a29.53,29.53,0,0,1-3.23-.58,9.76,9.76,0,0,1-5-2.39,13.77,13.77,0,0,0-7.09-3.73c-2.5-.42-3.52,1.26-3.91,3.27a4.48,4.48,0,0,0,.44,2.8c.32.66.77,1.27,1.06,1.95s.44,1.58.76,2.34a4.86,4.86,0,0,0,1.34,1.67,24.71,24.71,0,0,0,4.27,2.72,3.81,3.81,0,0,1,1.7,3.28,7.21,7.21,0,0,1-1.47,3.33,6.57,6.57,0,0,0-.51.67,5.12,5.12,0,0,0-.48,4,4.13,4.13,0,0,0,2.41,2,4.39,4.39,0,0,0,4-.69,3.4,3.4,0,0,0,1.3-3.56,31.63,31.63,0,0,1-.92-3.47.46.46,0,0,1,.1-.4.42.42,0,0,1,.31-.09,7,7,0,0,1,1.92.66,7,7,0,0,0,2,.08c.41,0,1.45-.13,1.75.07a.45.45,0,0,1,.17.27,17.36,17.36,0,0,1,.71,6.22,10,10,0,0,1-.23,2.25c-.26,1-1.2,2.05-1.15,3.08a3.53,3.53,0,0,0,2,3.45c1.53.63,3.75.09,4.37-1.56a5.66,5.66,0,0,0-.28-4.06c-.27-.71-.7-1.34-.91-2.08a13.9,13.9,0,0,1-.3-2.66,13.7,13.7,0,0,0-.12-1.93,9,9,0,0,1-.43-2.06,2.75,2.75,0,0,1,3-2.72,14.35,14.35,0,0,1,1.43.38c2.13.49,3.43-1.3,5.25-2a8.83,8.83,0,0,0,1.41-.52A2.26,2.26,0,0,0,276.25,240.29ZM271,241.93a30.13,30.13,0,0,1-3.15-.21,4.51,4.51,0,0,0-2.87.71,3.79,3.79,0,0,0-1.17,3.2,20.4,20.4,0,0,0,.75,3.43,13.15,13.15,0,0,1,.17,3.26,2.09,2.09,0,0,0,.07.7,2.06,2.06,0,0,0,.28.5,5.43,5.43,0,0,1,1.18,3.08,2.31,2.31,0,0,1-2,2.22c-1.06,0-2.6-.21-2.88-1.45-.49-2.15,1.7-4.24,1.43-6.45,0-.38-.16-.74-.22-1.11-.18-1,0-2-.12-3s-.33-1.61-.37-2.49c-.13-3-2.94-.41-4.77-1.11-1-.37-2.51-1.67-3.21-.31a4.68,4.68,0,0,0,.17,3.72c.75,1.38.91,3.09-.8,3.92a2.94,2.94,0,0,1-2.57,0c-.67-.33-1.43-.37-1.74-1.12-.79-1.9.92-3.72,1.82-5.28a5.23,5.23,0,0,0,.81-2.94,5.82,5.82,0,0,0-2.61-3.77,23.71,23.71,0,0,0-2.79-1.44,4,4,0,0,1-1.76-1.64c-.58-1-.59-2.24-1.07-3.3-.41-.88-1.24-1.41-1.48-2.39s.29-3,1.49-3.3a6.6,6.6,0,0,1,4.3.8,37,37,0,0,1,3.37,2.35,14.55,14.55,0,0,0,3.82,2.2l2.37.74a12.4,12.4,0,0,0,5.11.69,10.55,10.55,0,0,1,5.38.09,16.18,16.18,0,0,0,3.86.67,6.49,6.49,0,0,0,2.2,0,5.71,5.71,0,0,0,1.41-.62c2.16-1.23,5.19-4.31,7.85-2.77a1.31,1.31,0,0,1,.59.64c.48,1.38-1.35,1.58-2.25,1.8a6.88,6.88,0,0,0-3.51,2.08,9.09,9.09,0,0,0-1.2,2.34,11.09,11.09,0,0,1-3.41,4.64A4.47,4.47,0,0,1,271,241.93Z"/><path class="cls-7" d="M172.27,211.2c-1.51-1.39-3.69.12-5.38.13-.78,0-1.56-.17-2.34-.12-1.71.12-3.18,1.31-4.86,1.63-1.93.37-3.81-.4-5.69-.71s-3.84.25-5.73.45a7,7,0,0,1-2.77-.17c-1.86-.56-3.14-2.16-4.39-3.6s-2.85-2.88-4.78-2.92a1.37,1.37,0,0,0-.88.23,1.17,1.17,0,0,0-.32,1,3.42,3.42,0,0,0,1.42,2.53c.46.33,1,.55,1.46.87a5.77,5.77,0,0,1,2,3.35c.35,1.37.49,4.06,2.07,4.63a4.25,4.25,0,0,0,1.34.17l2.09.06a9.21,9.21,0,0,1,1.82.18,3.71,3.71,0,0,1,1,.36,1.77,1.77,0,0,0,.17.12c.25.15.49.31.73.47a2.41,2.41,0,0,1,.59.51,1.88,1.88,0,0,1,.28.93,4.55,4.55,0,0,1-.45,2.29c-.34.7-.87,1.36-.56,2.16a1.6,1.6,0,0,0,1.74,1.12c1.37-.23,1.5-2,2.29-2.81a2.16,2.16,0,0,1,2.12-.73c.25.08.48.22.72.32a8.07,8.07,0,0,0,2.41.33.48.48,0,0,1,.27.08.37.37,0,0,1,.11.19,3.26,3.26,0,0,1-.2,2.65,2.51,2.51,0,0,0,.15,2.55,2,2,0,0,0,.47.5,2.11,2.11,0,0,0,.52.26,2.38,2.38,0,0,0,2.14-.25,2,2,0,0,0,.45-2.51c-.37-1.05-.69-2.95,0-3.94a7.28,7.28,0,0,1,3.29-2.3c1-.46,2.47-.12,3.19-1.22.17-.27.73-.42.95-.75s.23-.77.43-1.12a9.74,9.74,0,0,1,1-1.12,11.27,11.27,0,0,0,1-1.4,5,5,0,0,0,.75-3.06A2.13,2.13,0,0,0,172.27,211.2Z"/><g class="cls-8"><path class="cls-9" d="M158.36,225.94a2.37,2.37,0,0,0,0-1.49,2.5,2.5,0,0,1-.27-.78.71.71,0,0,1,.37-.61.7.7,0,0,1,.71.05,1.42,1.42,0,0,1,.38,1.16,19.45,19.45,0,0,0-.26,2.93,1.33,1.33,0,0,0,.19.59,1.22,1.22,0,0,0,.4.35,1.36,1.36,0,0,0,.63.24,1.13,1.13,0,0,0,1.05-.8,3.1,3.1,0,0,0,.08-1.39,3.87,3.87,0,0,1,0-1.4,15.19,15.19,0,0,0,.8,2.2,4,4,0,0,1,.27.64,2,2,0,0,1-.23,1.88,2.41,2.41,0,0,1-1.86.75,3.34,3.34,0,0,1-2.37-1.11,2,2,0,0,1-.45-1.25A11.76,11.76,0,0,1,158.36,225.94Z"/><path class="cls-9" d="M148.79,219.58a2.49,2.49,0,0,1,.8,1.52,3.82,3.82,0,0,1-.05,1.26c.12-.45.63-.7.71-1.15s-.23-.66-.14-1,.61-.46.8-.79a.84.84,0,0,0,.1-.52,1.14,1.14,0,0,0-.39-.88,1,1,0,0,0-1,0,6.71,6.71,0,0,0-.86.51,4.48,4.48,0,0,1-1.39.42,3.46,3.46,0,0,1,.93.34A2.58,2.58,0,0,1,148.79,219.58Z"/><path class="cls-9" d="M151.43,226.66a1.66,1.66,0,0,0,.74-1.13c.05-.26,0-.53.08-.78a2.19,2.19,0,0,1,.59-1,1.58,1.58,0,0,1,1.36-.6c.35.07.64.34,1,.41a1.79,1.79,0,0,0,.91-.1.89.89,0,0,0,.36-.15.78.78,0,0,0,.09-.93,2.23,2.23,0,0,0-2.3-.88,2.73,2.73,0,0,0-1.62.71,3.15,3.15,0,0,0-.6,1c-.35.77-.43,2.53-1.5,2.65-.89.1-.74-1.17-.55-1.69s.38-.79.56-1.19a.94.94,0,0,0,.1-.76.68.68,0,0,0-.57.27,1.88,1.88,0,0,0-.3.58,9.7,9.7,0,0,0-.47,1.51,1.81,1.81,0,0,0,.47,1.9,1.47,1.47,0,0,0,2.12-.83,2.1,2.1,0,0,0-.08-1.75c-.14,0-.16.21-.15.35a1.87,1.87,0,0,1-.25.94"/><path class="cls-9" d="M172.63,211.48a3.15,3.15,0,0,0-1.93-.68,26.71,26.71,0,0,0-3.24.25,26.19,26.19,0,0,0-3.43.08c-1.27.26-2.38,1.08-3.66,1.32a8.43,8.43,0,0,1-2.07.05c-2.43-.15-5-.56-7.39-.2s-5.21.38-7.32-1c-1.46-.94-2.42-2.42-3.66-3.62a5.09,5.09,0,0,0-1.78-1.2,2.52,2.52,0,0,0-2.1.1,1.45,1.45,0,0,0-.64,1.79c.29.62,1,.92,1.62,1.29,2,1.22,2.91,3.52,3.68,5.65a18.43,18.43,0,0,0,1.53,3.43.72.72,0,0,1,.41,0,1.89,1.89,0,0,0,.4.08l.14,0h.12c.33,0,.66,0,1,0h.27a3.06,3.06,0,0,1-2.22-1.66,5,5,0,0,1-.3-.92c-.12-.48-.32-.88-.47-1.35s-.24-.9-.34-1.35a9.85,9.85,0,0,0-.46-1.67,4.67,4.67,0,0,0-1.5-1.92,6.15,6.15,0,0,0-1.07-.66,4.85,4.85,0,0,0-1.2-.61,2.28,2.28,0,0,1-.45-.11.66.66,0,0,1-.1-1.22,1.79,1.79,0,0,1,1.55-.13,4.1,4.1,0,0,1,1.8,1.42c.62.77,1.25,1.51,1.89,2.26s.49,1.84,1.56,2.41c1.33.72,1.93-.26,3.08-.51a3.83,3.83,0,0,1,2.66.83l.69.39a1.53,1.53,0,0,0,1.78,0,6.27,6.27,0,0,1,.48-.42,2.27,2.27,0,0,1,1.19-.22,7.77,7.77,0,0,0,2.38-.45,4.42,4.42,0,0,1,2.1-.44,5.31,5.31,0,0,1,.71.21,3.9,3.9,0,0,0,2.34-.12,9.85,9.85,0,0,0,2.12-1.08c-.2.12,2.37,1.35,1,2a3,3,0,0,1-2.22-.05,4.86,4.86,0,0,0-.85-.5,2.12,2.12,0,0,0-1.54.15c-.48.2-.91.5-1.4.68s-1.39-.09-1.66.32c-.37.56.42,1.06.9,1.18a3.19,3.19,0,0,0,1.15.07c.24,0,.48-.08.73-.09a8.61,8.61,0,0,1,1.5.28c1.29.22,2.56-.37,3.87-.34a7,7,0,0,0,1.29,0,1.77,1.77,0,0,0,1.34-1,2.85,2.85,0,0,1,1.88-1.64,2.63,2.63,0,0,1,1.72-.22,2.19,2.19,0,0,1,1.18.91,1.18,1.18,0,0,1,.27.7,1.27,1.27,0,0,1-.42.74c-.65.74-1.7,1.57-1.95,2.49a2.23,2.23,0,0,1-1.85,1.66c-1.31.18-2.64-.12-3.95-.06s-2.76.61-3.15,1.79a2.58,2.58,0,0,0,.21,1.94c.08.14,1.16,1.22,1.34,1s.15-.24.24-.35l.1-.13c.09-.13.19-.25.29-.38a7.39,7.39,0,0,0,.53-.8,11.53,11.53,0,0,1,2.5-.77c1.07-.18,2.23-.1,2.85-1.05.15-.24.7-.39.91-.68a5.37,5.37,0,0,0,.42-1.11A13.72,13.72,0,0,1,172,216a5.72,5.72,0,0,0,1.24-2.16A2.4,2.4,0,0,0,172.63,211.48Z"/></g><path class="cls-10" d="M171.13,213.77c-.2-.19-.4-.11-.61-.21s-.18-.23-.32-.29a1.16,1.16,0,0,0-.86,0,12.39,12.39,0,0,1-2.53.94,5.06,5.06,0,0,0-2.1.94,4.4,4.4,0,0,1-1.39.42,6.26,6.26,0,0,1-2.2.09c-.71-.12-1.18-.62-1.91-.7a4,4,0,0,0-.69-.05c-.25,0-.49.05-.74.06a1.11,1.11,0,0,1-.72-.18l-.08-.09a.23.23,0,0,1,0-.24.67.67,0,0,1,.48-.32c.2,0,.41,0,.62-.06.66-.1,1-.77,1.73-.79a2.48,2.48,0,0,1,.88.19c.56.2,1,.43,1.6.59s3,.37,2.87-.53c-.09-.47-1-.32-1.33-.3a1.7,1.7,0,0,1-1.43-.32c-.28-.26-.64-.57-.66-1-.9-.15-1.75.45-2.63.52a2.9,2.9,0,0,0-2.13.68,3.29,3.29,0,0,1-1.92.57,10.47,10.47,0,0,0-1.83.64,12.17,12.17,0,0,0-1.39.5,1.46,1.46,0,0,1-1.39.11,6.84,6.84,0,0,1-1-.73,1.83,1.83,0,0,0-1.1-.48,2.39,2.39,0,0,0-.86.23,14.51,14.51,0,0,1-1.73.55,2.57,2.57,0,0,1-1.52-.15,4,4,0,0,1-2.25-1.92c-.21-.43-.34-.9-.58-1.32-.44-.76-1.25-1.15-1.74-1.86a4.41,4.41,0,0,0-2.18-1.84,1,1,0,0,0-.44-.05.44.44,0,0,0-.35.23.42.42,0,0,0,0,.27c.11.4.55.63.94.84.57.31,1.08.72,1.63,1.07a6,6,0,0,1,1.47,1.26c.79,1,.67,2.45,1.37,3.53a20,20,0,0,1,1.29,1.66c.31.62.26,1.52.8,2a1.9,1.9,0,0,0,1.14.48c.32,0,.64,0,1,0l.35,0c.89-.07,1.51-.65,2.32-.75s1.45.41,2.2.24c.44-.1.84-.29,1.26-.43a4.76,4.76,0,0,1,2.28-.14.25.25,0,0,1,.15.06.18.18,0,0,1,0,.19c-.19.45-.76.59-1.26.69a7.2,7.2,0,0,0-2.85,1.09,1.54,1.54,0,0,0-.51.57.78.78,0,0,0-.07.46c.08.42.5.77.6,1.22.19.92-.55,1.59-.65,2.46,0,.36.24,1.24.76,1.07s.87-1.22,1-1.61a4.49,4.49,0,0,1,.74-1.54,1.27,1.27,0,0,1,1.54-.37c.14.09.25.22.38.32a2,2,0,0,0,1.51.26c.52-.08,1-.28,1.53-.38a2.12,2.12,0,0,1,1.53.18c.85.53.38,1.4.29,2.16a2.84,2.84,0,0,1-.16.7.75.75,0,0,1,.09.15,2.63,2.63,0,0,1,0,1.93,9.11,9.11,0,0,1-.35.86c0,.23,0,.47,0,.7s0,.23,0,.34v0a.94.94,0,0,0,0,.16,2.49,2.49,0,0,1,.11.29l.1.17a1.71,1.71,0,0,0,.11.14c.12.12.21.22.31.31l.11.08.13.09.22.11.08,0,.23,0,.07,0h.59l.08,0,.12-.12,0-.06,0-.06s0-.08.07-.12.06-.22.08-.32a.78.78,0,0,0,0-.09v-.07c0-.12,0-.24,0-.36a5.93,5.93,0,0,0-.1-.72v0c0-.09,0-.18,0-.27l-.09-.38c-.06-.27-.13-.54-.19-.82a5.89,5.89,0,0,1-.14-1.87.64.64,0,0,1,.1-.26,7.12,7.12,0,0,1,.05-2.76l0,0,0-.08c-.08-.14-.15-.28-.24-.41a1.56,1.56,0,0,0-.16-.2l-.05-.07c-.23-.27-.56-.45-.8-.71s-.29-.65-.44-1.08c-.21-.6-1-1-1.55-1.24a3.69,3.69,0,0,1-1.36-.79.34.34,0,0,1-.11-.34.27.27,0,0,1,.34-.09.83.83,0,0,1,.3.23,4,4,0,0,0,2.49.87,13.54,13.54,0,0,1,2.12.31l.23.08.1,0h.08l.1,0a2,2,0,0,1,.72-.14,1.88,1.88,0,0,1,.34,0,2.3,2.3,0,0,1,.33-.21,2.68,2.68,0,0,1,1.32-.19c.31,0,.62.08.93.07a4,4,0,0,0,.6,0,1.25,1.25,0,0,1,.19,0l.43-.08a2.05,2.05,0,0,0,1.35-.7c.59-.71.69-1.73,1.6-2.16.25-.12.52-.19.77-.31a1,1,0,0,0,.54-.57A.64.64,0,0,0,171.13,213.77Z"/><g class="cls-8"><path class="cls-4" d="M150.43,223.27a1.34,1.34,0,0,1,.07-.18.67.67,0,0,1,.16-.27.23.23,0,0,1,.28,0,3.85,3.85,0,0,0,.12,1.35c.08.3.28.61.09.91s-.58.49-.81.42-.35-.42-.34-.7A4.11,4.11,0,0,1,150.43,223.27Z"/><path class="cls-4" d="M160.68,223.41a2.25,2.25,0,0,1,.45-.73.17.17,0,0,1,.11-.06c.1,0,.12.14.11.24a6.48,6.48,0,0,0-.11,2.19c0,.22.26,1.62-.2,1.6-.19,0-.31-.22-.37-.41A4.29,4.29,0,0,1,160.68,223.41Z"/><path class="cls-4" d="M158.75,228.21a.85.85,0,0,0,.09.22,2.44,2.44,0,0,0,.22.31,2.58,2.58,0,0,0,.5.43,1.1,1.1,0,0,0,.83.18,2.3,2.3,0,0,0,.9-.27,1.93,1.93,0,0,0,.66-.61.78.78,0,0,0,.06-.68.93.93,0,0,0-.44-.52,1,1,0,0,0-.72-.08.62.62,0,0,0-.3.16.57.57,0,0,0-.15.16h0l.05-.07-.1.09,0,0-.11,0h-.08l-.07,0-.12-.06.07,0h0a1,1,0,0,0-.32-.17.78.78,0,0,0-.6.08.86.86,0,0,0-.29.7S158.74,228.2,158.75,228.21Z"/><path class="cls-4" d="M159.55,216.82l.34,0a10.71,10.71,0,0,0,3.24-.34c.48-.11.67-.5,1.13-.57a6.21,6.21,0,0,1,2.84.24c.51.17,1.85.67.87,1.26a1.47,1.47,0,0,1-.81.15c-.57,0-1.13-.17-1.69-.23a2.61,2.61,0,0,0-1.64.26c-.28.17-.49.41-.78.56a2.4,2.4,0,0,1-1.79,0,8.2,8.2,0,0,0-1.67-.37,3.32,3.32,0,0,1-2.33-.86.54.54,0,0,1,0-.76c.36-.28.79.05,1.11.22A4.15,4.15,0,0,0,159.55,216.82Z"/><path class="cls-4" d="M146,215.57c.54.07,1,.42,1.63.29a3.57,3.57,0,0,1,1.16-.19c.61.08,1.09.61,1.7.62.38,0,.73-.2,1.1-.18a1.51,1.51,0,0,0,.52,0c.19-.06.3-.24.43-.39a1.56,1.56,0,0,1,2.06-.25c.52.4.66,1.17,0,1.45a2.46,2.46,0,0,1-1.18.06c-.42,0-.85-.07-1.27-.08a2.12,2.12,0,0,0-1.52.36,1.08,1.08,0,0,1-1.09.35,8,8,0,0,1-.91-.38,2.73,2.73,0,0,0-1.89,0c-.78.28-2,1-2.17-.36a1.23,1.23,0,0,1,1.08-1.29A1.21,1.21,0,0,1,146,215.57Z"/><path class="cls-4" d="M161.54,219.62a3.73,3.73,0,0,0-2-.87.12.12,0,0,0-.08,0,4.83,4.83,0,0,1-.74-.22.68.68,0,0,1-.18-.15l0-.06a.23.23,0,0,0,0,0v0a.46.46,0,0,0-.44-.5.51.51,0,0,0-.54.43,1.62,1.62,0,0,0,.42,1.16c.15.09.34.15.4.31s-.14.41-.35.4a.68.68,0,0,1-.5-.34c-.07-.1-.13-.22-.24-.24s-.33.19-.27.37a.7.7,0,0,0,.41.36,1.15,1.15,0,0,1,.47.3.61.61,0,0,1-.21.82,1,1,0,0,1-.91,0,3.4,3.4,0,0,1-.74-.57l-.58-.54a1.63,1.63,0,0,0-.57-.41.75.75,0,0,0-.91.33.57.57,0,0,0,.43.79c.11,0,.22,0,.34,0a1.12,1.12,0,0,1,.86.45,4.46,4.46,0,0,0,.71.73,2.54,2.54,0,0,0,1.52.24.82.82,0,0,0,.49-.13c.21-.17.2-.48.25-.74a1.33,1.33,0,0,1,1.1-1,1.11,1.11,0,0,1,1.32,1,.28.28,0,0,1,0,.09.77.77,0,0,0,.45,0l.06,0a.51.51,0,0,0,.55-.32.84.84,0,0,0,.13-.77A2.15,2.15,0,0,0,161.54,219.62Z"/><path class="cls-4" d="M150.89,220.7a1.33,1.33,0,0,1,.75-.65.55.55,0,0,1,.38,0,.6.6,0,0,1,.24.28.45.45,0,0,1,0,.36l-.07.1a.45.45,0,0,1-.21.12h0l.1,0-.14.08-.07.07a.3.3,0,0,0-.06.11l0,.11v.13h0a.53.53,0,0,1,0,.37.46.46,0,0,1-.28.21.51.51,0,0,1-.62-.32A1.26,1.26,0,0,1,150.89,220.7Z"/><path class="cls-4" d="M137.21,207.59a1.7,1.7,0,0,1,.8,0,1.78,1.78,0,0,1,.65.35.63.63,0,0,1,.2.23.3.3,0,0,1,0,.29.34.34,0,0,1-.24.16.81.81,0,0,1-.31,0,4.79,4.79,0,0,1-1-.25.68.68,0,0,1-.42-.31C136.77,207.79,137,207.65,137.21,207.59Z"/><path class="cls-4" d="M140.67,210.75a.23.23,0,0,1,.2,0,1.7,1.7,0,0,1,.79.63,3.45,3.45,0,0,1,.43.91,1.6,1.6,0,0,0,.84,1.16,2.23,2.23,0,0,1,.44.13.49.49,0,0,1,.1.72.91.91,0,0,1-.79.22c-1.07-.19-1.18-1.32-1.33-2.14-.06-.34,0-.73-.3-1-.08-.07-.17-.12-.25-.18a.6.6,0,0,1-.2-.22A.18.18,0,0,1,140.67,210.75Z"/><path class="cls-4" d="M169.17,214.42c0,.43.54.82.87.45l.08-.08.09,0h0l.19-.07.2-.06a2.17,2.17,0,0,0,.86-.46,1.6,1.6,0,0,0,.48-1.65c-.21-.4-1.18-.79-1.51-.39a.62.62,0,0,0,0,.55,1.64,1.64,0,0,1,.08.69.56.56,0,0,1-.45.49,1.14,1.14,0,0,0-.8.35A.5.5,0,0,0,169.17,214.42Z"/><path class="cls-4" d="M170.71,213.53h0Z"/><path class="cls-4" d="M160.63,212.6a3.34,3.34,0,0,0,1-.14,4.11,4.11,0,0,1,1.7-.62,4.52,4.52,0,0,1,2,.5c.38.21,1.4.55,1.58.91a.51.51,0,0,1-.17.58.93.93,0,0,1-.63.2,2,2,0,0,1-1.37-.5,1.86,1.86,0,0,0-1.89-.59c-.67.18-1,.87-1.66.88a2,2,0,0,1-1-.3c-.15-.09-.31-.21-.32-.38a.36.36,0,0,1,.12-.28A1.05,1.05,0,0,1,160.63,212.6Z"/></g><path d="M141.37,218.55a3.14,3.14,0,0,0,.86.57,5.28,5.28,0,0,0,2.34.27l1.71-.08a3.33,3.33,0,0,1,1,0,2.64,2.64,0,0,1,1.22.84,2.84,2.84,0,0,1,.92,2.15,4.78,4.78,0,0,1-.64,1.51,2.51,2.51,0,0,0,.77,3.24,2.17,2.17,0,0,0,2.82-.6c.58-.8.13-1.82,1-2.49a1.75,1.75,0,0,1,1.76-.21,4.59,4.59,0,0,0,.5.24c.61.22,1.31-.16,1.93,0a.77.77,0,0,1,.45.32,1,1,0,0,1,.1.39c.15,1.68-1.16,3.39-.06,5s4.46,1.38,5-.48c.36-1.18-.53-2.36-.71-3.49-.35-2.15,1.35-3.27,3.21-3.73a15.26,15.26,0,0,0,2.27-.5,8,8,0,0,0,2.26-1.72,16.63,16.63,0,0,0,1.59-2.4c.39-.54.92-1,1.34-1.49a4.05,4.05,0,0,0,1-2.36c.08-1.83-.46-3.52-2.74-3.68-1.48-.09-2.54.76-4,1s-2.71-.71-4.25-.3c-.9.25-1.69.78-2.57,1.1A5.56,5.56,0,0,1,158,212a23.68,23.68,0,0,0-3.93-.55c-1.23.07-2.44.56-3.7.68-1.46.14-3.94.78-5.22-.22-.28-.22-.43-.59-.69-.84s-.77-.56-1.11-.92c-.79-.84-1.34-1.88-2.11-2.7a8,8,0,0,0-3.82-1.95,3.72,3.72,0,0,0-1-.12,2.11,2.11,0,0,0-1.92,2.57,2.91,2.91,0,0,0,1.16,1.6c.55.42,1.16.76,1.67,1.21a6.68,6.68,0,0,1,1.9,3.29,13.82,13.82,0,0,0,1.46,3.61A4.56,4.56,0,0,0,141.37,218.55Zm1.53-.22c-1.66-.61-2-2.57-2.25-4.11a8.6,8.6,0,0,0-.56-2.3,6.3,6.3,0,0,0-2.65-2.56c-.74-.37-2.3-.93-1.59-2a1.09,1.09,0,0,1,.65-.43c1.85-.56,3.6,1,4.49,2.36a10.41,10.41,0,0,0,4.45,3.8,8.86,8.86,0,0,0,4.63.1,16.62,16.62,0,0,1,5-.51c1.52.22,3.06,1.06,4.62.6,1.07-.32,1.89-1.23,3-1.5a6.86,6.86,0,0,1,2.39,0c1.88.17,3.57-1,5.51-.76a2.68,2.68,0,0,1,2.07,1.12,3.22,3.22,0,0,1,.08,2.63c-.41.8-1.25,1.09-1.79,1.78s-.9,1.88-1.63,2.66a3.59,3.59,0,0,1-1.88,1.07,19.59,19.59,0,0,0-2.74.68,5.23,5.23,0,0,0-3.08,2.76,3.5,3.5,0,0,0,.24,2.85c.47.76,1,1.4.32,2.32a2.41,2.41,0,0,1-.88.73,1.68,1.68,0,0,1-.69.21,1.89,1.89,0,0,1-1.08-.38,2.1,2.1,0,0,1-1-1.09c-.32-1,.33-2.18.72-3.05a1.68,1.68,0,0,0,.07-1.4,1.91,1.91,0,0,0-1.92-.69,3.21,3.21,0,0,1-2.11-.22,3.75,3.75,0,0,0-.5-.36,1.68,1.68,0,0,0-2,.38,4.41,4.41,0,0,0-.8,1.89c-.21.68-.87,1.61-1.71,1.39s-.72-1.37-.51-2a6,6,0,0,0,.49-3.18,4.07,4.07,0,0,0-.74-1.27,4,4,0,0,0-1.9-1.63,4.34,4.34,0,0,0-2,.12A5,5,0,0,1,142.9,218.33Z"/></g></svg>