<svg id="Eyes" xmlns="http://www.w3.org/2000/svg" xmlns:xlink="http://www.w3.org/1999/xlink" viewBox="0 0 500 500"><defs><style>.cls-1{fill:url(#radial-gradient);}.cls-2{fill:url(#New_Gradient_Swatch_2);}.cls-3{fill:url(#radial-gradient-2);}.cls-4{fill:url(#New_Gradient_Swatch_29);}.cls-5{fill:#fff;}</style><radialGradient id="radial-gradient" cx="258.76" cy="208.62" r="24.93" gradientUnits="userSpaceOnUse"><stop offset="0" stop-color="#fff"/><stop offset="0.55" stop-color="#fdfdfd"/><stop offset="0.79" stop-color="#f6f6f6"/><stop offset="0.97" stop-color="#e9e9e9"/><stop offset="1" stop-color="#e6e6e6"/></radialGradient><linearGradient id="New_Gradient_Swatch_2" x1="244.89" y1="209.16" x2="267.44" y2="209.16" gradientUnits="userSpaceOnUse"><stop offset="0" stop-color="#dbdfe6"/><stop offset="0.22" stop-color="#b3c7d4"/><stop offset="0.43" stop-color="#91b3c5"/><stop offset="0.64" stop-color="#79a5bb"/><stop offset="0.84" stop-color="#6b9cb4"/><stop offset="1" stop-color="#6699b2"/></linearGradient><radialGradient id="radial-gradient-2" cx="145.68" cy="188.28" r="26.35" gradientUnits="userSpaceOnUse"><stop offset="0" stop-color="#fff"/><stop offset="0.44" stop-color="#fcfcfc"/><stop offset="0.76" stop-color="#f2f2f2"/><stop offset="1" stop-color="#e6e6e6"/></radialGradient><linearGradient id="New_Gradient_Swatch_29" x1="135.15" y1="189.55" x2="157.7" y2="189.55" gradientUnits="userSpaceOnUse"><stop offset="0" stop-color="#bec7b3"/><stop offset="0.21" stop-color="#aabaa5"/><stop offset="0.65" stop-color="#779a81"/><stop offset="1" stop-color="#497d61"/></linearGradient></defs><g id="_6_Eyes_green_and_blue" data-name="6_Eyes_green_and_blue"><path d="M264.67,236.32a37.84,37.84,0,0,0,6.1-.43c9.69-1.52,19.66-6.74,22.88-16.44,1.43-4.32,2.42-9.22,1.72-13.78-.9-5.95-2-11.57-6.81-15.71a25.92,25.92,0,0,0-7.6-5.07c-1.48-.57-2.6-1.95-4.25-2.36-7-1.75-12.58-3-19.69-.5-6,2.09-10.89,6.55-14.54,11.64-7.65,10.65-7.82,25.15.93,35.1C248.12,234.13,256.93,236.29,264.67,236.32Zm-23.84-20.4a36.67,36.67,0,0,1-.1-7.72,27.13,27.13,0,0,1,4.51-12.81c7.86-11.62,24.18-14.51,36-7.19a31.67,31.67,0,0,1,5.8,5.23c7.91,8.45,5.11,21.37-.79,30.21A18.11,18.11,0,0,1,275.9,231a36.7,36.7,0,0,1-14.66,1.33c-4.79-.55-9.54-1.77-13.55-4.85-2.46-1.9-3.75-4.64-5.44-7.1A10.52,10.52,0,0,1,240.83,215.92Z"/><path class="cls-1" d="M247.69,227.44c4,3.08,8.76,4.3,13.55,4.85A36.7,36.7,0,0,0,275.9,231a18.11,18.11,0,0,0,10.37-7.32c5.9-8.84,8.7-21.76.79-30.21a31.67,31.67,0,0,0-5.8-5.23c-11.84-7.32-28.16-4.43-36,7.19a27.13,27.13,0,0,0-4.51,12.81,36.67,36.67,0,0,0,.1,7.72,10.52,10.52,0,0,0,1.42,4.42C243.94,222.8,245.23,225.54,247.69,227.44Zm2.76-21.55c1.4-3.4,4.53-4.51,7.78-2.67a1.37,1.37,0,0,0,.44.16c2.79.66,3.14,2.79,3.14,5.33-.05,2.74-.93,4.29-3.16,5.07-2.74.95-5.39,1-7.71-1.14-1.12-1-1.08-2.46-1.1-3.76A7.8,7.8,0,0,1,250.45,205.89Z"/><path d="M262.51,219.15a14,14,0,0,0,3.57-2.34,3,3,0,0,0,.75-.84,11.35,11.35,0,0,0,1.77-4.07,14.66,14.66,0,0,0-.14-4.9c-.73-3.57-4.68-6.51-7.63-8.16a8.6,8.6,0,0,0-4-1,13.66,13.66,0,0,0-5.62,1.17,12.29,12.29,0,0,0-4.73,3.31,17.13,17.13,0,0,0-1.88,3.22,10.83,10.83,0,0,0-.68,6.7c.61,2.46,2.14,3.9,4,5.49C251.85,221.1,258,221.08,262.51,219.15Zm-17.32-6.58a6.37,6.37,0,0,1-.26-2.34c-.22-1.91.61-3.56,1.44-5.23a10.47,10.47,0,0,1,7.18-5.53,11.19,11.19,0,0,1,4.16-.21,12.94,12.94,0,0,1,8.15,5.4,10.3,10.3,0,0,1,1.58,5.33c0,4.47-3.94,8.36-8.21,9a11.84,11.84,0,0,1-2,.13,17,17,0,0,1-5.14-.9C249.53,217.41,246.32,215.1,245.19,212.57Z"/><path class="cls-2" d="M265.86,204.66a12.94,12.94,0,0,0-8.15-5.4,11.19,11.19,0,0,0-4.16.21,10.47,10.47,0,0,0-7.18,5.53c-.83,1.67-1.66,3.32-1.44,5.23a6.37,6.37,0,0,0,.26,2.34c1.13,2.53,4.34,4.84,6.92,5.69a17,17,0,0,0,5.14.9,11.84,11.84,0,0,0,2-.13c4.27-.68,8.18-4.57,8.21-9A10.3,10.3,0,0,0,265.86,204.66Z"/><path d="M171.09,213.27a34.92,34.92,0,0,0,8.81-5.78,7.58,7.58,0,0,0,1.87-2.09c1.91-3.4,3.82-6.14,4.36-10.06a36,36,0,0,0-.34-12.12c-1.79-8.81-11.56-16.09-18.85-20.17a21.11,21.11,0,0,0-10-2.46,33.84,33.84,0,0,0-13.9,2.88c-3.84,1.69-9.23,4.73-11.69,8.19a43.37,43.37,0,0,0-4.64,8,26.58,26.58,0,0,0-1.67,16.55c1.48,6.09,5.27,9.65,9.89,13.58C144.74,218.09,159.83,218,171.09,213.27ZM128.28,197c-1-2.19-.4-3.52-.66-5.78-.53-4.74,1.53-8.81,3.57-12.93a25.85,25.85,0,0,1,17.75-13.66,27.6,27.6,0,0,1,10.29-.53c7.57,1.35,16.11,6.74,20.13,13.36a25.18,25.18,0,0,1,3.92,13.15c-.09,11.07-9.73,20.67-20.3,22.35a30.36,30.36,0,0,1-4.89.34,42.85,42.85,0,0,1-12.72-2.24C139,209,131.06,203.25,128.28,197Z"/><path class="cls-3" d="M163,213c10.57-1.68,20.21-11.28,20.3-22.35a25.18,25.18,0,0,0-3.92-13.15c-4-6.62-12.56-12-20.13-13.36a27.6,27.6,0,0,0-10.29.53,25.85,25.85,0,0,0-17.75,13.66c-2,4.12-4.1,8.19-3.57,12.93.26,2.26-.32,3.59.66,5.78,2.78,6.25,10.73,12,17.09,14.06a42.85,42.85,0,0,0,12.72,2.24A30.36,30.36,0,0,0,163,213Zm-13.65-17.72c-1.26,2.09-3.38,2-5.78,2.27a7.32,7.32,0,0,1-4.68-4.15,6.59,6.59,0,0,1,.93-7,9.31,9.31,0,0,1,3.81-2.81,2.55,2.55,0,0,1,1.84-.18,7.66,7.66,0,0,1,5.24,5C151.7,191.56,150.79,192.79,149.33,195.24Z"/><path d="M152.77,199.55a14.57,14.57,0,0,0,3.57-2.34,3,3,0,0,0,.75-.85,11,11,0,0,0,1.77-4.07,14.66,14.66,0,0,0-.14-4.9c-.73-3.56-4.68-6.51-7.63-8.16a8.48,8.48,0,0,0-4-1,13.65,13.65,0,0,0-5.62,1.16,12.55,12.55,0,0,0-4.73,3.31,17.2,17.2,0,0,0-1.88,3.23,10.79,10.79,0,0,0-.67,6.69c.6,2.46,2.13,3.9,4,5.49C142.11,201.5,148.22,201.47,152.77,199.55ZM135.45,193a6.42,6.42,0,0,1-.26-2.34c-.22-1.92.62-3.57,1.44-5.23a10.47,10.47,0,0,1,7.18-5.53,11,11,0,0,1,4.16-.21,12.84,12.84,0,0,1,8.15,5.4,10.15,10.15,0,0,1,1.58,5.32c0,4.48-3.93,8.36-8.21,9a11.76,11.76,0,0,1-2,.14,17.28,17.28,0,0,1-5.14-.9C139.8,197.8,136.58,195.49,135.45,193Z"/><path class="cls-4" d="M156.12,185.06a12.84,12.84,0,0,0-8.15-5.4,11,11,0,0,0-4.16.21,10.47,10.47,0,0,0-7.18,5.53c-.82,1.66-1.66,3.31-1.44,5.23a6.42,6.42,0,0,0,.26,2.34c1.13,2.52,4.35,4.83,6.92,5.69a17.28,17.28,0,0,0,5.14.9,11.76,11.76,0,0,0,2-.14c4.28-.68,8.18-4.56,8.21-9A10.15,10.15,0,0,0,156.12,185.06Z"/><path d="M145.45,183.39a2.55,2.55,0,0,0-1.84.18,9.31,9.31,0,0,0-3.81,2.81,6.59,6.59,0,0,0-.93,7,7.32,7.32,0,0,0,4.68,4.15c2.4-.26,4.52-.18,5.78-2.27,1.46-2.45,2.37-3.68,1.36-6.85A7.66,7.66,0,0,0,145.45,183.39Zm-.69,10.46c-1.36-.06-3.08-2.15-3-3.71s1.73-3.43,3.1-3.34c1.58.12,3.62,2.51,3.57,4.17C148.35,192,146,193.9,144.76,193.85Z"/><path class="cls-5" d="M144.82,186.8c-1.37-.09-3.06,1.72-3.1,3.34s1.68,3.65,3,3.71,3.59-1.84,3.63-2.88C148.44,189.31,146.4,186.92,144.82,186.8Z"/><path d="M254.42,202.28a2.51,2.51,0,0,0-1.84.19,9.11,9.11,0,0,0-3.8,2.8,6.59,6.59,0,0,0-.94,7,7.35,7.35,0,0,0,4.69,4.14c2.39-.26,4.52-.18,5.77-2.27,1.47-2.45,2.37-3.68,1.36-6.85A7.64,7.64,0,0,0,254.42,202.28Zm-.69,10.46c-1.36-.06-3.08-2.15-3-3.71s1.73-3.43,3.11-3.33c1.57.11,3.62,2.5,3.56,4.16C257.33,210.9,254.94,212.79,253.73,212.74Z"/><path class="cls-5" d="M253.8,205.7c-1.38-.1-3.07,1.72-3.11,3.33s1.68,3.65,3,3.71,3.6-1.84,3.63-2.88C257.42,208.2,255.37,205.81,253.8,205.7Z"/></g></svg>