<svg id="Eyes" xmlns="http://www.w3.org/2000/svg" xmlns:xlink="http://www.w3.org/1999/xlink" viewBox="0 0 500 500"><defs><style>.cls-1{fill:url(#radial-gradient);}.cls-2{fill:url(#New_Gradient_Swatch_2);}.cls-3{fill:url(#radial-gradient-2);}.cls-4{fill:url(#New_Gradient_Swatch_29);}.cls-5{fill:#fff;}</style><radialGradient id="radial-gradient" cx="266.25" cy="208.36" r="24.93" gradientUnits="userSpaceOnUse"><stop offset="0" stop-color="#fff"/><stop offset="0.55" stop-color="#fdfdfd"/><stop offset="0.79" stop-color="#f6f6f6"/><stop offset="0.97" stop-color="#e9e9e9"/><stop offset="1" stop-color="#e6e6e6"/></radialGradient><linearGradient id="New_Gradient_Swatch_2" x1="251.05" y1="201.67" x2="279.37" y2="201.67" gradientUnits="userSpaceOnUse"><stop offset="0" stop-color="#dbdfe6"/><stop offset="0.22" stop-color="#b3c7d4"/><stop offset="0.43" stop-color="#91b3c5"/><stop offset="0.64" stop-color="#79a5bb"/><stop offset="0.84" stop-color="#6b9cb4"/><stop offset="1" stop-color="#6699b2"/></linearGradient><radialGradient id="radial-gradient-2" cx="155.41" cy="188.56" r="26.35" gradientUnits="userSpaceOnUse"><stop offset="0" stop-color="#fff"/><stop offset="0.44" stop-color="#fcfcfc"/><stop offset="0.76" stop-color="#f2f2f2"/><stop offset="1" stop-color="#e6e6e6"/></radialGradient><linearGradient id="New_Gradient_Swatch_29" x1="139.21" y1="181.13" x2="167.36" y2="181.13" gradientUnits="userSpaceOnUse"><stop offset="0" stop-color="#bec7b3"/><stop offset="0.21" stop-color="#aabaa5"/><stop offset="0.65" stop-color="#779a81"/><stop offset="1" stop-color="#497d61"/></linearGradient></defs><g id="_30_Eyes_green_and_blue_2" data-name="30_Eyes_green_and_blue_2"><path d="M264.67,236.32a37.84,37.84,0,0,0,6.1-.43c9.69-1.52,19.66-6.74,22.88-16.44,1.43-4.32,2.42-9.22,1.72-13.78-.9-5.95-2-11.57-6.81-15.71a25.92,25.92,0,0,0-7.6-5.07c-1.48-.57-2.6-1.95-4.25-2.36-7-1.75-12.58-3-19.69-.5-6,2.09-10.89,6.55-14.54,11.64-7.65,10.65-7.82,25.15.93,35.1C248.12,234.13,256.93,236.29,264.67,236.32Zm-23.84-20.4a36.67,36.67,0,0,1-.1-7.72,27.13,27.13,0,0,1,4.51-12.81c7.86-11.62,24.18-14.51,36-7.19a31.67,31.67,0,0,1,5.8,5.23c7.91,8.45,5.11,21.37-.79,30.21A18.11,18.11,0,0,1,275.9,231a36.7,36.7,0,0,1-14.66,1.33c-4.79-.55-9.54-1.77-13.55-4.85-2.46-1.9-3.75-4.64-5.44-7.1A10.52,10.52,0,0,1,240.83,215.92Z"/><path class="cls-1" d="M287.06,193.43a31.67,31.67,0,0,0-5.8-5.23c-11.84-7.32-28.16-4.43-36,7.19a27.13,27.13,0,0,0-4.51,12.81,36.67,36.67,0,0,0,.1,7.72,10.52,10.52,0,0,0,1.42,4.42c1.69,2.46,3,5.2,5.44,7.1,4,3.08,8.76,4.3,13.55,4.85A36.7,36.7,0,0,0,275.9,231a18.11,18.11,0,0,0,10.37-7.32C292.17,214.8,295,201.88,287.06,193.43Z"/><path d="M273.18,214.22a18.11,18.11,0,0,0,4.48-2.93,4,4,0,0,0,.95-1.07c1-1.73,1.94-3.12,2.21-5.11a18.47,18.47,0,0,0-.17-6.16c-.91-4.47-5.88-8.17-9.58-10.24a10.64,10.64,0,0,0-5.08-1.25,17.13,17.13,0,0,0-7.06,1.46c-1.95.86-4.69,2.4-5.94,4.16a22.28,22.28,0,0,0-2.36,4,13.53,13.53,0,0,0-.85,8.41c.76,3.09,2.68,4.9,5,6.89C259.79,216.67,267.45,216.64,273.18,214.22ZM251.42,206c-.49-1.12-.2-1.79-.33-2.94-.27-2.41.78-4.48,1.81-6.57a13.14,13.14,0,0,1,9-6.94,14,14,0,0,1,5.23-.27A16.15,16.15,0,0,1,277.38,196a12.78,12.78,0,0,1,2,6.68c0,5.62-4.94,10.5-10.31,11.35a15.78,15.78,0,0,1-2.49.18,21.75,21.75,0,0,1-6.46-1.14C256.88,212,252.84,209.13,251.42,206Z"/><path class="cls-2" d="M277.38,196a16.15,16.15,0,0,0-10.23-6.79,14,14,0,0,0-5.23.27,13.14,13.14,0,0,0-9,6.94c-1,2.09-2.08,4.16-1.81,6.57.13,1.15-.16,1.82.33,2.94,1.42,3.17,5.46,6.07,8.69,7.14a21.75,21.75,0,0,0,6.46,1.14,15.78,15.78,0,0,0,2.49-.18c5.37-.85,10.27-5.73,10.31-11.35A12.78,12.78,0,0,0,277.38,196Z"/><path d="M171.09,213.27a34.92,34.92,0,0,0,8.81-5.78,7.58,7.58,0,0,0,1.87-2.09c1.91-3.4,3.82-6.14,4.36-10.06a36,36,0,0,0-.34-12.12c-1.79-8.81-11.56-16.09-18.85-20.17a21.11,21.11,0,0,0-10-2.46,33.84,33.84,0,0,0-13.9,2.88c-3.84,1.69-9.23,4.73-11.69,8.19a43.37,43.37,0,0,0-4.64,8,26.58,26.58,0,0,0-1.67,16.55c1.48,6.09,5.27,9.65,9.89,13.58C144.74,218.09,159.83,218,171.09,213.27ZM128.28,197c-1-2.19-.4-3.52-.66-5.78-.53-4.74,1.53-8.81,3.57-12.93a25.85,25.85,0,0,1,17.75-13.66,27.6,27.6,0,0,1,10.29-.53c7.57,1.35,16.11,6.74,20.13,13.36a25.18,25.18,0,0,1,3.92,13.15c-.09,11.07-9.73,20.67-20.3,22.35a30.36,30.36,0,0,1-4.89.34,42.85,42.85,0,0,1-12.72-2.24C139,209,131.06,203.25,128.28,197Z"/><path class="cls-3" d="M179.36,177.46c-4-6.62-12.56-12-20.13-13.36a27.6,27.6,0,0,0-10.29.53,25.85,25.85,0,0,0-17.75,13.66c-2,4.12-4.1,8.19-3.57,12.93.26,2.26-.32,3.59.66,5.78,2.78,6.25,10.73,12,17.09,14.06a42.85,42.85,0,0,0,12.72,2.24A30.36,30.36,0,0,0,163,213c10.57-1.68,20.21-11.28,20.3-22.35A25.18,25.18,0,0,0,179.36,177.46Z"/><path d="M161.2,193.61a17.83,17.83,0,0,0,4.45-2.92,3.83,3.83,0,0,0,.95-1.06c1-1.72,1.93-3.1,2.2-5.08a18.24,18.24,0,0,0-.17-6.12c-.91-4.45-5.84-8.12-9.52-10.18a10.67,10.67,0,0,0-5.05-1.25,17.1,17.1,0,0,0-7,1.46c-1.94.85-4.66,2.39-5.9,4.13a21.75,21.75,0,0,0-2.35,4A13.52,13.52,0,0,0,138,185c.75,3.08,2.66,4.87,5,6.86C147.9,196,155.51,196,161.2,193.61Zm-21.62-8.22c-.49-1.1-.2-1.77-.33-2.92-.27-2.39.77-4.45,1.8-6.53a13.08,13.08,0,0,1,9-6.9,13.93,13.93,0,0,1,5.19-.26,16.05,16.05,0,0,1,10.17,6.74,12.67,12.67,0,0,1,2,6.65c-.05,5.58-4.92,10.44-10.25,11.28a14.51,14.51,0,0,1-2.47.17,21.23,21.23,0,0,1-6.43-1.13C145,191.43,141,188.55,139.58,185.39Z"/><path class="cls-4" d="M165.38,175.52a16.05,16.05,0,0,0-10.17-6.74A13.93,13.93,0,0,0,150,169a13.08,13.08,0,0,0-9,6.9c-1,2.08-2.07,4.14-1.8,6.53.13,1.15-.16,1.82.33,2.92,1.4,3.16,5.42,6,8.63,7.1a21.23,21.23,0,0,0,6.43,1.13,14.51,14.51,0,0,0,2.47-.17c5.33-.84,10.2-5.7,10.25-11.28A12.67,12.67,0,0,0,165.38,175.52Z"/><path d="M152.15,169.81a3.21,3.21,0,0,0-2.31.24,11.47,11.47,0,0,0-4.78,3.53,8.24,8.24,0,0,0-1.17,8.76,9.14,9.14,0,0,0,5.88,5.21c3-.33,5.68-.22,7.25-2.85,1.84-3.08,3-4.62,1.71-8.6A9.63,9.63,0,0,0,152.15,169.81ZM151.28,183c-1.71-.07-3.86-2.7-3.82-4.65s2.18-4.32,3.9-4.19c2,.13,4.55,3.14,4.48,5.23C155.8,180.64,152.8,183,151.28,183Z"/><path class="cls-5" d="M151.36,174.11c-1.72-.13-3.84,2.16-3.9,4.19s2.11,4.58,3.82,4.65c1.52.07,4.52-2.31,4.56-3.61C155.91,177.25,153.34,174.24,151.36,174.11Z"/><path d="M263,189.54a3.21,3.21,0,0,0-2.31.24,11.44,11.44,0,0,0-4.78,3.52,8.26,8.26,0,0,0-1.17,8.77,9.15,9.15,0,0,0,5.88,5.2c3-.32,5.68-.22,7.25-2.84,1.84-3.08,3-4.63,1.71-8.61A9.62,9.62,0,0,0,263,189.54Zm-.87,13.14c-1.71-.07-3.86-2.7-3.81-4.66s2.17-4.31,3.89-4.19c2,.14,4.55,3.14,4.48,5.24C266.67,200.37,263.67,202.75,262.15,202.68Z"/><path class="cls-5" d="M262.23,193.83c-1.72-.12-3.84,2.16-3.89,4.19s2.1,4.59,3.81,4.66c1.52.07,4.52-2.31,4.56-3.61C266.78,197,264.21,194,262.23,193.83Z"/><path d="M155.41,179.07a1.93,1.93,0,0,0-1.4.14,7,7,0,0,0-2.9,2.14,5,5,0,0,0-.71,5.32,5.54,5.54,0,0,0,3.57,3.15c1.82-.19,3.44-.13,4.4-1.72,1.11-1.87,1.8-2.8,1-5.22A5.82,5.82,0,0,0,155.41,179.07Zm-.52,8a3.16,3.16,0,0,1-2.32-2.82c0-1.24,1.32-2.62,2.36-2.55a3.73,3.73,0,0,1,2.72,3.18C157.62,185.64,155.81,187.08,154.89,187Z"/><path class="cls-5" d="M154.93,181.67c-1-.07-2.33,1.31-2.36,2.55a3.16,3.16,0,0,0,2.32,2.82c.92,0,2.73-1.4,2.76-2.19A3.73,3.73,0,0,0,154.93,181.67Z"/><path d="M267.64,199.25a1.93,1.93,0,0,0-1.4.14,6.87,6.87,0,0,0-2.89,2.14,5,5,0,0,0-.72,5.32A5.59,5.59,0,0,0,266.2,210c1.82-.2,3.45-.13,4.4-1.73,1.12-1.86,1.81-2.8,1-5.21A5.86,5.86,0,0,0,267.64,199.25Zm-.52,8c-1-.05-2.34-1.65-2.31-2.83s1.31-2.61,2.36-2.54a3.69,3.69,0,0,1,2.71,3.17C269.86,205.81,268,207.26,267.12,207.22Z"/><path class="cls-5" d="M267.17,201.85c-1.05-.07-2.33,1.31-2.36,2.54s1.27,2.78,2.31,2.83,2.74-1.41,2.76-2.2A3.69,3.69,0,0,0,267.17,201.85Z"/></g></svg>