<svg id="Ears" xmlns="http://www.w3.org/2000/svg" viewBox="0 0 500 500"><defs><style>.cls-1{fill:#dddcdb;}.cls-2{fill:#a8a8a8;}</style></defs><g id="_1_grey" data-name="1_grey"><path class="cls-1" d="M162.56,123.34a5.27,5.27,0,0,0,.91.23c4.09.87,8.16.34,12.16-.46,5.14-1,10.24-.9,15.28-2.24l.19-.05c4.77-1.29,14.42-2.14,17.12-7.07,1.38-2.5-.42-7-1.32-9.56-1.4-3.93-4.52-8.48-8.67-9.38-4.32-.93-8.63,1.89-12.12,4-4.49,2.72-8.7,5.85-12.9,9a51.77,51.77,0,0,0-5.48,5.21,47.6,47.6,0,0,0-6,7.59C160.7,122.15,160.82,122.64,162.56,123.34Z"/><path class="cls-2" d="M177.65,114c3.82-8.24,12.06-12.11,17.23-19.12l.1-.11c-3.19.51-6.26,2.48-8.87,4.06-4.49,2.72-8.7,5.85-12.9,9a51.77,51.77,0,0,0-5.48,5.21,47.6,47.6,0,0,0-6,7.59c-1,1.56-.87,2,.87,2.75a5.27,5.27,0,0,0,.91.23c4.09.87,8.16.34,12.16-.46,1.51-.31,3-.51,4.52-.68C177.14,121.22,175.54,118.54,177.65,114Z"/><path class="cls-1" d="M360,143.24A51.23,51.23,0,0,0,356,132c-3.27-6-5-13.09-9.18-18.61a9.06,9.06,0,0,0-6.3-3.82c-2.17-.17-4.25.72-6.24,1.58-5.33,2.32-11.63,6.07-15.19,10.77-2.95,1.19-3.18,6.12-1.57,8.42,1.35,2,3.28,3.61,4.75,5.5,1.85,2.38,4.69,4.08,7.31,5.48,8.13,4.35,19,13,28.95,9.92C360.86,150.55,360.88,147.08,360,143.24Z"/><path class="cls-2" d="M360,143.24A51.23,51.23,0,0,0,356,132c-3.27-6-5-13.09-9.18-18.61a12,12,0,0,0-1.36-1.49c1.29,2.06,1.71,5.12,2.08,7.31,1.28,7.56,2.64,16.16,1.11,23.77-.52,2.58-1.68,4.8-4.36,5.56a5.51,5.51,0,0,1-1.59.2c5.18,2.51,10.63,4.1,15.83,2.5C360.86,150.55,360.88,147.08,360,143.24Z"/><path d="M364.17,146.67c-.2-8.3-5.86-15.3-8.83-22.74-1.51-3.76-2.54-7.77-4.82-11.13-2.88-4.26-10.09-7.63-15-4.93a5.93,5.93,0,0,1-1.88.94c-4.45.71-8.08,3.09-11.47,5.86-3.68,3-7.24,6.61-8.52,11.35-.07.26-.13.52-.19.78a8.49,8.49,0,0,0-.07,3.44c.41,2,2.52,4.3,4.08,5.55,3.12,2.52,6.42,4.82,9.7,7.13,2,1.4,4.14,2.59,6.21,3.86a43,43,0,0,0,5.58,3.3c5.24,2.22,10.9,4.85,16.8,5.26C361.92,155.78,364.32,152.76,364.17,146.67Zm-34.62-5.31c-2.62-1.4-5.46-3.1-7.31-5.48-1.47-1.89-3.4-3.55-4.75-5.5-1.61-2.3-1.38-7.23,1.57-8.42,3.56-4.7,9.86-8.45,15.19-10.77,2-.86,4.07-1.75,6.24-1.58a9.06,9.06,0,0,1,6.3,3.82C351,119,352.7,126.05,356,132a51.23,51.23,0,0,1,4.07,11.2c.84,3.84.82,7.31-1.54,8C348.56,154.34,337.68,145.71,329.55,141.36Z"/><path d="M161.9,126.64a12.74,12.74,0,0,0,4.79.64,37.67,37.67,0,0,0,9.53-1,48.71,48.71,0,0,1,7.15-1.36,85.79,85.79,0,0,0,15.72-3.12c3.56-1,11.3-1.59,13.39-5.15,1.89-3.21-1.3-7.76-2.06-10.83-1.08-4.42-3.62-8.06-6.35-11.51s-8.72-4.27-12.56-2.21c-3.57,1.9-7.28,3.46-10.57,6-3.86,3-7.68,6-11.55,8.9a49.87,49.87,0,0,0-8.68,9.31c-1.1,1.41-1.81,3.08-3.19,4.36-1.09,1-.8,1.79.18,3.11A7.72,7.72,0,0,0,161.9,126.64Zm-.21-6a47.6,47.6,0,0,1,6-7.59,51.77,51.77,0,0,1,5.48-5.21c4.2-3.13,8.41-6.26,12.9-9,3.49-2.11,7.8-4.93,12.12-4,4.15.9,7.27,5.45,8.67,9.38.9,2.51,2.7,7.06,1.32,9.56-2.7,4.93-12.35,5.78-17.12,7.07l-.19.05c-5,1.34-10.14,1.2-15.28,2.24-4,.8-8.07,1.33-12.16.46a5.27,5.27,0,0,1-.91-.23C160.82,122.64,160.7,122.15,161.69,120.59Z"/></g></svg>