<svg id="Layer_15" data-name="Layer 15" xmlns="http://www.w3.org/2000/svg" viewBox="0 0 500 500"><path d="M315.5,492.36a2.17,2.17,0,0,0,1.5-1.79h0l-.12,0,.12-.08h0a1.67,1.67,0,0,0-.09-1.28,3.1,3.1,0,0,0-1.85-1.48,12.58,12.58,0,0,0-5.39-.32,2.23,2.23,0,0,0-1.06.43c-.11.09-.3.16-.18.33s.24,0,.34-.05a5.17,5.17,0,0,1,2.52-.51,9.13,9.13,0,0,1,3.77.49,2.7,2.7,0,0,1,1.46,1.2,2.27,2.27,0,0,1-1.06,2.76,5.4,5.4,0,0,1-4.51.35.63.63,0,0,1-.52-.58c-.14-.92-.29-1.84-.43-2.76,0-.15,0-.35-.21-.33s-.14.22-.12.39c.19,2,.57,4,.95,6,0,.15,0,.44.26.39s.19-.26.15-.46c-.11-.55-.17-1.12-.3-1.66s.22-.54.55-.45a5.64,5.64,0,0,0,4.23-.51Z"/><path d="M305.33,492.26c-1-1.79-2.6-3.1-3.76-4.76-.14-.2-.32-.21-.45-.06s0,.31.14.41a4.56,4.56,0,0,1,1,1,31.57,31.57,0,0,1,3,3.85,8.43,8.43,0,0,1,1,2.14c.1.38,0,.49-.42.43a4.69,4.69,0,0,1-1.37-.55,13.67,13.67,0,0,1-2.57-1.54,7.11,7.11,0,0,1-1.9-2c-.09-.17-.37-.37-.42-.09s-.32.65-.37,1l-1.35,2.67c-.09.18-.12.39.08.49s.28-.11.35-.25c.19-.44.37-.88.57-1.31s.44-1,.7-1.42c.12-.21.31-.47.59-.13a10.17,10.17,0,0,0,3.41,2.58,19.44,19.44,0,0,0,2.14,1c.29.1.7.35,1,0s.08-.71,0-1.05A11.7,11.7,0,0,0,305.33,492.26Z"/><path d="M318.73,494.33c-.27.14-.49.25-.6-.19-.06-.21-.31-.37-.41-.05s-.52.63-.84.88c-.28,0-.7.48-.78-.09s-.46-.76-.69-1.13a.79.79,0,0,0-1-.33,1.87,1.87,0,0,0-.92.66.86.86,0,0,0-.05,1.07c.3.39.67.3,1,.16A4.46,4.46,0,0,0,315,495a.36.36,0,0,1,.56.12.84.84,0,0,0,1.14.32c.28-.11.42-.34.64-.49s.42-.39.57.1c.06.2.26.51.57.18s.15-.64.53-.63.33.42.51.63a.41.41,0,0,0,.45.1.27.27,0,0,0,.19-.31A1,1,0,0,0,318.73,494.33Zm-4.35.62c-.35,0-.57,0-.6-.32s.62-.8,1-.8.35.29.41.5S314.56,494.94,314.38,495Z"/><path d="M324,494l0,0c-.27.59-.87.6-1.37.77a.36.36,0,0,1-.41-.09c-.13-.14,0-.27.08-.39s.18-.16.09-.28-.25-.05-.34,0c-.39.31-.49.12-.51-.27a1.54,1.54,0,0,0-.09-.37v0a5.54,5.54,0,0,0-.26-1.56c0-.16,0-.43-.29-.36s-.18.3-.1.48a5.22,5.22,0,0,1,.31,1.61,4.39,4.39,0,0,0,.35,1.48c.09.18.24.46.43.32.45-.33,1-.21,1.48-.52.23-.16.57-.28.77.15.05.1.28.21.37,0,.18-.36,0-.7-.11-1.05C324.38,493.89,324.17,493.85,324,494Z"/><path d="M331.88,495a1.47,1.47,0,0,1-1.63-1.14c-.07-.23-.19-.47-.46-.48-.53,0-.82.37-1.08.74-.16.21,0,.45.1.65s.13.12.18.11a3.49,3.49,0,0,1,2.18.56.41.41,0,0,0,.27,0l1.56-.3,0-.15A3.38,3.38,0,0,0,331.88,495Zm-2.41-.44c-.17,0-.28-.08-.26-.27s.26-.35.47-.4.2.15.22.29C329.92,494.46,329.7,494.51,329.47,494.53Z"/><path d="M327.93,494.53a1.18,1.18,0,0,0-1.54-.85,2.31,2.31,0,0,1-.87.2c-.12,0,.06.45.11.7s.08.27.23.27.26-.21.34-.37a.59.59,0,0,1,1.1-.11c.11.15.19.31.3.45s0,.3.21.28.1-.24.15-.39S327.94,494.6,327.93,494.53Z"/><path d="M308.15,494.71c-.16,0-.3.1-.28.26s.11.36.33.35.25-.13.24-.32S308.37,494.7,308.15,494.71Z"/><path d="M323.9,492.62a.29.29,0,0,0,.18-.32c0-.14,0-.28-.19-.28s-.15.2-.19.32S323.7,492.59,323.9,492.62Z"/></svg>