<svg id="T-shirt_single_image" xmlns="http://www.w3.org/2000/svg" viewBox="0 0 500 500"><defs><style>.cls-1{fill:#f5940c;}.cls-2{fill:#fff1d5;}.cls-3{fill:#f58d34;}.cls-4{fill:#dac1a4;}.cls-5{fill:#f9d6a2;}.cls-6{fill:#f24441;}.cls-7{fill:#e27056;}.cls-8{fill:#d22e28;}</style></defs><g id="_1_t-shirt_single_im" data-name="1_t-shirt_single_im"><path class="cls-1" d="M175.7,472.06c.6,1.56,1.17,1.82,2.81,1.24A3.78,3.78,0,0,1,180,473a.74.74,0,0,0,.7-.37,11.29,11.29,0,0,1,8.31-4.78c1-.09,1.88-.35,2.19-1.44h0l-.06,0a3.9,3.9,0,0,1-2.6-.8c-1.72-1.29-3.89-1.85-5.69-3.34a14.31,14.31,0,0,0-2.23,4c-.09.28-.11.58-.22.85a.74.74,0,0,1-.9.48c-.5-.15-.3-.53-.15-.88a30.81,30.81,0,0,1,7.95-11.91,1,1,0,0,0,.21-.34l0,0,0,0,0,0,0-.06c-.76-.2-1.2-.53-.5-1.3a.56.56,0,0,1,.76-.16c.3.2.23.48.09.75s-.23.48-.35.71h0l0,0c1.82-.74,3.56-1.65,5.41-2.35a22.16,22.16,0,0,1,9.34-1.11c.75,0,1.63,0,2.16.77h.05l0,0c1.6-.26,3.13.48,4.72.35.31,0,.6.08.63.44s-.31.41-.59.44a8.16,8.16,0,0,1-4.76-1.23l-.08,0h0l0,0c-1.69.1-3.37.28-5.06.28a20.75,20.75,0,0,0-7.59,1.55c-3.7,1.43-6.2,4.19-8.21,7.48,1.31.78,2.69.11,4.11.08,0,0,0,0,0,0a24.7,24.7,0,0,1,4.38.23,2.65,2.65,0,0,1,2.07.92,5.59,5.59,0,0,1,.55.28c2.84,1.61,5.9,2.76,8.68,4.47a4.67,4.67,0,0,1,2,2.56c.42,1.15-.07,1.61-1,2.08-3.81,1.94-8,2.66-12.06,3.69-.35.09-.8.12-.94-.29s.3-.56.6-.76a7.16,7.16,0,0,1,3.21-.77,18.76,18.76,0,0,0,7.36-2.31c2-1.17,2-2.17.07-3.34-1.65-1-3.38-1.84-5.06-2.77-1.22-.68-2.43-1.37-3.73-2.11a.54.54,0,0,1-.55-.22,1.15,1.15,0,0,0-.14-.17l-.5-.28h0a9.68,9.68,0,0,0-2.54-.27,26.57,26.57,0,0,0-3,0,.65.65,0,0,1-.2,0,5.73,5.73,0,0,0-1.73.3l6,4h.1s0,0,0,0c.84.24,1.69.46,2.53.72.54.17,1.4.18,1.27.93s-.91.6-1.51.53c-.21,0-.41-.2-.63-.22-4.23-.44-7.92.6-10.72,4-.37.44-.88.88-.36,1.53a1,1,0,0,0,1.36.33,2.8,2.8,0,0,1,2.93.56,2.39,2.39,0,0,0,2.56.56,1.86,1.86,0,0,1,2,.68c.67.82,1.21.74,2.07.21,1.67-1,3.12-.58,4.11,1.11a9,9,0,0,1,.47,1.14,2.82,2.82,0,0,1,2.53-.61c.8.3,1.25-.09,1.82-.76,1.62-1.93,3.48-1.48,4.31.91.52,1.52,1.36,1.89,2.55,1a3,3,0,0,1,3.29-.63c-.37-2-1.21-3.71-1-5.5A14.74,14.74,0,0,1,217,462.2a18.44,18.44,0,0,1,14.22-3.09,9.19,9.19,0,0,0,4.42,0,8.09,8.09,0,0,0-.56-1c-2.54-3.15-6-4.82-9.76-5.9-3.13-.9-6.4-1.24-9.55-2.14-1.16-.33-2.63-.81-3.72.53-.18.22-.66,0-.64-.31.09-1.16-.86-1-1.48-1.25-6.95-2.27-13.77-1.6-20.5.93a2.21,2.21,0,0,0-.5.38c.38,0,.67.16.67.58a.59.59,0,0,1-.54.58c-.42,0-.58-.29-.65-.65a9.43,9.43,0,0,0-5.5,3.1c-4.47,4.5-6.62,10.17-7.48,16.38A3.48,3.48,0,0,0,175.7,472.06Zm13.83-13.64a.59.59,0,0,1-.47-.33.56.56,0,0,1,.5-.61c.21,0,.42.1.49.4A.56.56,0,0,1,189.53,458.42Zm5.17,1.23a.5.5,0,0,1-.3-.23.34.34,0,0,1,.27-.44c.26-.06.36.12.41.34S195,459.7,194.7,459.65Zm.46-4.34c-.13-.25-.21-.32-.19-.36.2-.5.15-1.19.89-1.31.09,0,.28.13.31.24C196.48,454.75,195.85,455,195.16,455.31Zm5.23.27a.4.4,0,0,1-.25-.51.47.47,0,0,1,.34-.2.32.32,0,0,1,.36.39C200.78,455.49,200.64,455.66,200.39,455.58Zm3.23.62c-.27,0-.4-.12-.39-.38a.44.44,0,0,1,.37-.44c.26,0,.42.1.4.38A.45.45,0,0,1,203.62,456.2Zm-4.14,12.29c.19-.06.39,0,.53.43,0,.09-.14.2-.36.21a.42.42,0,0,1-.34-.15A.33.33,0,0,1,199.48,468.49ZM197.69,466c.31,0,.57.1.54.47,0,.21-.1.43-.26.41-.45,0-.68-.12-.67-.48A.38.38,0,0,1,197.69,466Zm-6.78-2.16a.4.4,0,0,1-.45.34c-.29,0-.58-.1-.52-.48a1.45,1.45,0,0,1,.2-.43C190.66,463.36,191,463.43,190.91,463.8Zm3.1,1.27a.54.54,0,0,1-.57-.5c0-.33.24-.45.54-.46a.54.54,0,0,1,.45.61A.37.37,0,0,1,194,465.07Zm14-10.69a.47.47,0,0,1-.66.32c-.21-.06-.43-.17-.33-.44a.52.52,0,0,1,.67-.33C207.88,454,208.06,454.1,208,454.38Zm9.95,1a.45.45,0,0,1,.64.33.46.46,0,0,1-.45.56c-.29,0-.57-.14-.56-.47A.64.64,0,0,1,217.94,455.36Zm-5.9-.46c.42,0,.75.09.72.58,0,.23-.2.39-.58.39a.6.6,0,0,1-.49-.52A.38.38,0,0,1,212,454.9Zm-4.71-5.36a.52.52,0,0,1,.38-.2c.4,0,.46.26.39.56s-.19.39-.46.31S207.29,450,207.33,449.54Zm-4.29-.41a.66.66,0,0,1,.81-.55.43.43,0,0,1,.38.49.69.69,0,0,1-.82.51A.38.38,0,0,1,203,449.13Zm-3.53-.49c.27-.1.57-.05.59.34a.52.52,0,0,1-.39.6c-.29.09-.42-.07-.5-.27A.49.49,0,0,1,199.51,448.64Zm-3.56,1.2a.5.5,0,0,1,.46-.39.54.54,0,0,1,.51.6.41.41,0,0,1-.47.35C196.15,450.37,195.87,450.22,196,449.84Zm-3.14.35a.5.5,0,0,1,.57.51.58.58,0,0,1-.5.63c-.3.07-.65,0-.68-.34A.78.78,0,0,1,192.81,450.19Zm-8.36,3.67a.58.58,0,0,1,.54-.56c.32,0,.51.2.54.53s-.24.69-.68.66S184.43,454.16,184.45,453.86Z"/><path class="cls-2" d="M213.14,484.12c-3-.1-5.9-.67-8.88-.66-1.48,0-3-.11-4.45-.24-4.74-.39-9.48-.79-14.22-1.24a58.72,58.72,0,0,1-8.15-1.12c-3.33-.8-6.62-1.75-9.25-4.22.74,2.79,3,4.27,5.32,5.22a45.88,45.88,0,0,0,9.93,2.42c5.3.85,10.67.79,16,1.29,5.85.54,11.73.58,17.6.63,1.93,0,3.87.31,5.79.15a108.15,108.15,0,0,0,12.8-1.74c1.52-.3,3.22-.65,4.25-2.83a9.56,9.56,0,0,1-3,1.23C229.05,485.05,221.09,484.39,213.14,484.12Z"/><path class="cls-3" d="M234.44,460.24a28,28,0,0,1-3.55-.19,17,17,0,0,0-6.63.11c-6.52,1.42-10.71,5.57-12,11.72a8.81,8.81,0,0,0,1.84,7.13c.35.48.82,1.18,1.35,1.05,1.32-.32,2,.47,2.81,1.29,1.27-2.21,2.14-2.61,4.36-1.8a1.24,1.24,0,0,0,1.52-.29,2.55,2.55,0,0,1,3.06-.42,3.14,3.14,0,0,0,2.76.08.68.68,0,0,1,.45-.45,1.86,1.86,0,0,1,1.86-.9c1.16.16,1.92-.52,2.81-1.09,2.33-1.49,4.14-3.58,6.27-5.31a44.46,44.46,0,0,1,7.3-5c.49-.25,1.19-.67,1-1.34s-1.05-.68-1.73-.57l-.66.1c-1.67.27-1.67.27-2.19-1.23-.62-1.8-.3-2.57,1.42-3.34.31-.14.76-.1.75-.91-1.64.68-3.45.32-5,1-1.66.76-3.59-.32-5.09,1-.08.07-.44-.07-.58-.19C235.94,460.08,235.17,460.28,234.44,460.24Zm-15.78,8c-.06.34-.35.43-.65.45a.42.42,0,0,1-.47-.54c.06-.35.36-.42.65-.47S218.72,467.86,218.66,468.21Zm3-4.48c-.16,0-.33-.19-.47-.27,0-.41.2-.62.49-.64a.56.56,0,0,1,.45.33A.49.49,0,0,1,221.68,463.73Zm1.83,4.16c-.08-.15-.25-.32-.24-.48a.45.45,0,0,1,.55-.46.39.39,0,0,1,.33.45A.57.57,0,0,1,223.51,467.89Zm3.9-4.65a.32.32,0,0,1-.44-.31c0-.11.08-.33.16-.35.24-.05.4.09.48.33C227.54,463,227.5,463.21,227.41,463.24Zm3.27,5.05c-.21,0-.27-.3-.23-.52a.44.44,0,0,1,.47-.35c.23.05.38.19.35.43A.46.46,0,0,1,230.68,468.29Zm1.08-4c-.25,0-.46-.09-.41-.34a.7.7,0,0,1,.4-.41c.24-.09.39.08.4.33A.45.45,0,0,1,231.76,464.29Zm9.52,2.5c-.31,0-.49-.23-.49-.57a.56.56,0,0,1,.6-.43.4.4,0,0,1,.37.43C241.75,466.52,241.59,466.79,241.28,466.79Zm-.11-5.7c.32,0,.6.09.63.45a.5.5,0,0,1-.51.58.58.58,0,0,1-.52-.6C240.75,461.24,240.94,461.14,241.17,461.09Zm-3.5,2.8a.43.43,0,0,1,.34.46.44.44,0,0,1-.41.42.36.36,0,0,1-.44-.35C237.15,464.09,237.3,463.84,237.67,463.89Z"/><path class="cls-4" d="M183.73,486.61c.22-1-.28-1.34-1.15-1.34-.39,0-.85-.24-1.29.33,1.12.48,1.55,1.71,2.65,2.22A3.36,3.36,0,0,1,183.73,486.61Z"/><path class="cls-4" d="M184.64,485.7a4.62,4.62,0,0,0,1.26,3.15c.44.48,1.13.62,1.07-.48,0-.32.08-.59.62-.47.22,1.91,1.51,2.57,3.41,2.7v-2.05c1.16,3.15,1.32,3.28,4,3.26.34-.8-.55-1.62,0-2.62,1.17,1,.13,3.79,2.78,3.27.35-.85-.54-1.79.09-2.68.56.32.41.74.49,1.07.45,1.88.81,2.2,2.69,2.3.3,0,.6,0,.89,0,2.58.07,2.58.07,3.13-2.28,0-.06.25-.06.39-.08.45.51.15,1.13.21,1.7a1.09,1.09,0,0,0,1.11,1.11,41.24,41.24,0,0,0,12.4-.21c.76-.13,1.62,0,2.27-.59h0l0,0,0,0,0,0c-.59-.12-.55-.58-.45-1,.19-.82.44-1.64.7-2.57.53,1,.53,1-.25,3.56h0l0,0c2,.14,2.91-1.16,3.46-2.82.11-.35.07-.74.15-1.1s.35-.54.66-.38c1.6.81,2-.59,3.09-1.49C213.82,488,199.27,486.47,184.64,485.7Zm17,6.58a2.42,2.42,0,0,1-.06-2.54C202.07,490.56,202.07,490.56,201.66,492.28Zm6.24.67a4.6,4.6,0,0,1,.2-2.89C209,491.33,208.15,492.11,207.9,493Zm3.71,0c-.24-.14-.33-.17-.34-.2-.09-1-.38-2,.46-2.78.05-.05.34,0,.36.12C212.4,491.17,211.83,492,211.61,493Zm3.19.28c.21-1.41.35-2.37.5-3.32l.57.06A3.63,3.63,0,0,1,214.8,493.27Zm3.74-2.89a.35.35,0,0,1,.48-.27.46.46,0,0,1,.28.28,2,2,0,0,1-1.16,2.22C218.27,491.86,218.39,491.12,218.54,490.38Z"/><path class="cls-4" d="M225.75,490.41c0,.15.08.22.24.16l.22-.31c-.06,0-.14-.1-.18-.08S225.78,490.31,225.75,490.41Z"/><path class="cls-4" d="M184,487.9a.51.51,0,0,0,.39.38A.49.49,0,0,0,184,487.9Z"/><path class="cls-5" d="M171.05,477.31c3.71,2.16,7.78,2.78,11.88,3.35,2.5.35,5,.51,7.54.73l11.66,1c.13-.31,0-.64-.15-.65-1.12-.08-2-.2-1.37-1.74.21-.54-.45-1-1.17-1a1,1,0,0,0-1.11.86c-.24,1.25-.31,1.28-1.76,1.22-.36,0-.73.25-1.08.23-1.36-.1-2.88.39-4-.95-.29-.37-.61-.19-1,0a2.92,2.92,0,0,1-1.47.45c-2.28-.35-4.57-.75-6.8-1.28-.91-.21-1.72-.72-2.68-.38a2.26,2.26,0,0,1-2.62-.66,1.49,1.49,0,0,0-1.72-.46c-2.44.53-3.85-1-3.21-3.46a2.6,2.6,0,0,0-.22-2c-.67-1.41-.47-2.19.57-2.92a2.8,2.8,0,0,1,1-.46c.57-.12.81-.48.6-.95s-.79-.36-1.17-.15c-.77.45-1.48,1-2.23,1.46C167.65,471.26,168,475.54,171.05,477.31Z"/><path class="cls-5" d="M238.15,476.48a1,1,0,0,0-1.25,0c-.18.57.35.94.41,1.45.18,1.58-.56,2.45-2.23,2.3-.59,0-.56.26-.75.52-1,1.29-2.13,2.12-3.81,1.59-.89-.27-1.35.16-2,.88,1.55-.13,2.89-.15,4.2-.37,2.17-.38,4.47-.5,6.22-2.1.57-.53,1.42-1.05.93-2A6.51,6.51,0,0,0,238.15,476.48Z"/><path class="cls-5" d="M207,481.4a2.64,2.64,0,0,0-3.23-1.64.86.86,0,0,0-.53.66,2.1,2.1,0,0,0,1.62,2.07c6.14.3,12.27,1.13,18.44.89l2.25-.12c-.84-.87-1.56-.55-2.27-.42a15.32,15.32,0,0,1-6-.18c-1.08-.22-2-1.18-3.26-.79l-.09-.62v-.08l0,.12c-2,1.59-4.34,1.18-6.62.79C207,482,207.06,481.68,207,481.4Z"/><path class="cls-6" d="M178.74,477.72c.63-1.13,1.38-.69,2.21-.56.55.09.76-.32.73-.84a2.46,2.46,0,0,0-1.65-2.15,1.24,1.24,0,0,0-1.59.41c-.46.73,0,1.77-.83,2.29C177.92,477.48,178.51,478.14,178.74,477.72Z"/><path class="cls-6" d="M173.28,475.46c0,.77.35,1.27,1.16,1.29,1,0,1.17-.8,1.26-1.5.11-.89-.69-.95-1.28-1.12C173.52,474.17,173.28,474.73,173.28,475.46Z"/><path class="cls-6" d="M173.54,470.25a.78.78,0,0,0-.65.76c0,.95.64,1.35,1.64,1.77-.21-.87-.34-1.43-.47-2C174,470.51,173.87,470.18,173.54,470.25Z"/><path class="cls-6" d="M235.07,479.31c.67,0,1.15-.16,1.14-.95,0-.38-.14-.77-.63-.68a1.47,1.47,0,0,0-1.27,1.06C234.24,479.11,234.64,479.3,235.07,479.31Z"/><path class="cls-6" d="M230,479a14,14,0,0,0,.37,1.45c.26.74.67,1.35,1.62,1.13.45-.1,1.48-1.42,1.34-1.81a1.76,1.76,0,0,0-1.61-1.32,9.06,9.06,0,0,0-1.27.1A.51.51,0,0,1,230,479Z"/><path class="cls-6" d="M195.82,478.78a1.63,1.63,0,0,0-1.61-1.71c-.92,0-2.07.9-2,1.63s1.09,1.52,2.13,1.5S195.82,479.7,195.82,478.78Z"/><path class="cls-6" d="M210.44,481.48c.6-.52,2.09.52,2-1,0-.89-1.24-.86-2-1.06s-1.78.55-1.63,1.08A1.31,1.31,0,0,0,210.44,481.48Z"/><path class="cls-6" d="M190.25,478.09a1.4,1.4,0,0,0-1.56-1.42,1.92,1.92,0,0,0-1.86,1.54c0,.67.79,1.22,1.78,1.22S190.25,478.94,190.25,478.09Z"/><path class="cls-6" d="M204,477.34c-.92-.4-1.47.07-1.88,1.57.64.24,1-.4,1.6-.45a.66.66,0,0,0,.41-.12.83.83,0,0,0,.26-.53A.76.76,0,0,0,204,477.34Z"/><path class="cls-6" d="M222.29,481.38a.43.43,0,0,0,0-.41,1.46,1.46,0,0,0-1.58-.52,1.25,1.25,0,0,0-.86.78,1.07,1.07,0,0,0,1.05.51C221.36,481.75,221.92,481.88,222.29,481.38Z"/><path class="cls-6" d="M184.84,478.52c.92,0,1.06-.62,1.16-1.26,0-1.24-.63-1.91-1.73-1.92a1.76,1.76,0,0,0-1.92,1.71C182.4,477.71,183.78,478.5,184.84,478.52Z"/><path class="cls-6" d="M226,481.9a2.36,2.36,0,0,1,1.67.36,1.38,1.38,0,0,0,1.67-.71,1,1,0,0,0-.27-1.37,15.62,15.62,0,0,0-2.14-.85,10.8,10.8,0,0,0-1.52.52,1,1,0,0,0-.5,1.32C225.06,481.67,225.24,482.12,226,481.9Z"/><path class="cls-6" d="M199.74,478.45a1.65,1.65,0,0,0-1.7.46.74.74,0,0,0-.62.25,1.38,1.38,0,0,0,.34,1.9,2.34,2.34,0,0,0,2.17.33,1.77,1.77,0,0,0,1.32-1.53C201.23,479.11,200.37,478.63,199.74,478.45Z"/><path class="cls-6" d="M206.41,479.92c-.57-.57-1.51-1-2.16-.58l-.3.06a1.48,1.48,0,0,0-.59,2.27,2.39,2.39,0,0,0,1.7.82c.83.37,1.92.28,2.22-.72A1.56,1.56,0,0,0,206.41,479.92Z"/><path class="cls-3" d="M242.59,450.16a3.22,3.22,0,0,0-.52-.19c-.43,0-1,.11-1.17-.39s.46-.8.93-1c2.7-1.18,5-3.29,8-3.7a1.13,1.13,0,0,0,.4-.19c.6-.36.7-.92.07-1.17A1.86,1.86,0,0,1,249,441a4,4,0,0,0-3,2.08,13.06,13.06,0,0,1-5.2,4.38c-.54.27-1.25,1.13-1.73.44-.65-.94.65-1,1.06-1.49.07-.09,0-.27.07-.6-7.08.46-14,1.26-20.61,4.19,6,.16,11.07,2.42,15.76,6.11C237,453.17,240.43,452.48,242.59,450.16Zm-6.42-2.8a.4.4,0,0,1,.39.44c0,.25-.19.37-.41.45s-.44-.1-.46-.34A.45.45,0,0,1,236.17,447.36Zm-8.5,2.29a.41.41,0,0,1-.38-.45c0-.3.16-.58.54-.53a.45.45,0,0,1,.39.45C228.16,449.42,228,449.69,227.67,449.65Zm4.16,1.89a.37.37,0,0,1-.34-.47.78.78,0,0,1,.43-.44c.23-.07.39.13.44.37S232.19,451.58,231.83,451.54Zm.09-3.21a.41.41,0,0,1-.35-.47c.06-.29.24-.54.6-.49s.34.23.35.47S232.26,448.37,231.92,448.33Z"/><path class="cls-3" d="M204.14,469.24h0a.55.55,0,0,0-.33-.51,81.07,81.07,0,0,1-9.42-5.51c-2.45-1.82-5.21-.93-8-1.42-.84-.15-1.33,1-.42,1.16l.2,0a.67.67,0,0,0,.62.86,29.41,29.41,0,0,1,12.59,4.51,38.41,38.41,0,0,0-5.59-.38,17.92,17.92,0,0,0-4.44.4,15.61,15.61,0,0,0-7.17,3.12.48.48,0,0,0-.16.66.52.52,0,0,0-.18.18,1.19,1.19,0,0,0,.77,1.9,4.91,4.91,0,0,1,1.57,0c2-2,4-3.78,6.89-4.17a41.41,41.41,0,0,1,8.18,0,.59.59,0,0,0,.68-.47l1.71.29c.33.26.65.52,1,.79a.81.81,0,0,0,1.24-.33C204.58,470.53,205,469.45,204.14,469.24ZM190,463.15h.13a5.81,5.81,0,0,1,2.9.82C192,463.65,191,463.37,190,463.15Zm-6.67,10.09h0a.25.25,0,0,0,0-.07.45.45,0,0,0,0-.41,5.84,5.84,0,0,1,2.39-1.65A22.18,22.18,0,0,0,183.29,473.24Z"/><path class="cls-7" d="M219.36,454.12c-4.46-1.44-8.54-3.71-13.22-4.42a32.63,32.63,0,0,0-13.84.52,20.8,20.8,0,0,0-9.32,6.07,20.43,20.43,0,0,0-5.82,11.29c-.1.63.79.78,1.22.41a.7.7,0,0,0,.82-.39,29,29,0,0,1,5-8.79c2.76-3.19,6.34-4.74,10.38-5.67s8.08-1.56,12.29-.61c3,.68,5.81,1.66,8.79,2.16.24.17.48.34.72.53a.85.85,0,0,0,1.23-.29.66.66,0,0,0,.25,0l1.13.39A.62.62,0,1,0,219.36,454.12Zm-27-1.7a18.61,18.61,0,0,0-8.09,4.56.12.12,0,0,1,0-.05l.27-.31a18.72,18.72,0,0,1,8.05-4.36c.54-.14,1.09-.25,1.65-.35C193.61,452.07,193,452.24,192.33,452.42Z"/><path class="cls-8" d="M175.79,476.21a.75.75,0,0,0-.86-.46.37.37,0,0,1-.37-.08.58.58,0,0,1-.26-.38.7.7,0,0,0-.69-.63c-.3,0-.78.22-.74.59a2,2,0,0,0,2.4,1.7A.63.63,0,0,0,175.79,476.21Z"/><path class="cls-8" d="M180.84,475.44c-.18.78-1.06,1.28-1.64.51-.37-.49-1.3-.26-1.36.21a.69.69,0,0,0-.28.28c-.41.86.54,1.4,1.25,1.5a3.65,3.65,0,0,0,2.49-.59.46.46,0,0,0,.22-.38,2.12,2.12,0,0,0,.68-1.15C182.4,475,181,474.69,180.84,475.44Z"/><path class="cls-8" d="M186,477.9a.79.79,0,0,0-1-.26c-.82.32-1.44-.56-1.23-1.31s-1.15-1.12-1.36-.37a2.37,2.37,0,0,0,3.27,2.76A.57.57,0,0,0,186,477.9Z"/><path class="cls-8" d="M189.82,477.55a.69.69,0,0,0-.81.24.82.82,0,0,1-1.09.33.83.83,0,0,0-1,0,.56.56,0,0,0,0,.86,2,2,0,0,0,.37.22.64.64,0,0,0,.44.36,3,3,0,0,0,3.09-1.12C191.21,477.82,190.37,477.31,189.82,477.55Z"/><path class="cls-8" d="M195.54,478.17a1.79,1.79,0,0,1-2.55.48.8.8,0,0,0-1,0,.56.56,0,0,0,0,.87,3.36,3.36,0,0,0,4.78-.65C197.26,478.13,196,477.54,195.54,478.17Z"/><path class="cls-8" d="M200.14,479.87c-.26.23-1.07.84-1.32.25a.76.76,0,0,0-.86-.46c-.3.06-.67.39-.53.73.67,1.6,2.58,1.35,3.68.38C201.79,480.17,200.73,479.35,200.14,479.87Z"/><path class="cls-8" d="M206.18,481c-.43.86-1.58.27-2.13-.09-.7-.44-1.54.54-.76,1,1.38.86,3.41,1.13,4.25-.58C207.91,480.58,206.53,480.25,206.18,481Z"/><path class="cls-8" d="M212.12,480.23a2.1,2.1,0,0,1-2.36-.1c-.61-.48-1.75.28-1,.83a3.69,3.69,0,0,0,4.07.35C213.6,480.85,212.83,479.82,212.12,480.23Z"/><path class="cls-8" d="M204.45,478.1a.74.74,0,0,0-.86-.46l-.39.08a.39.39,0,0,0-.08-.1.8.8,0,0,0-1,0c-.47.4-.59,1.09,0,1.4a1.46,1.46,0,0,0,1,0l.77-.16A.62.62,0,0,0,204.45,478.1Z"/><path class="cls-8" d="M222.41,481.44a.76.76,0,0,0-.86-.46.59.59,0,0,1-.34,0,1.05,1.05,0,0,1-.31-.22c-.56-.56-1.67.19-1,.83a2.31,2.31,0,0,0,2,.62A.62.62,0,0,0,222.41,481.44Z"/><path class="cls-8" d="M228.14,481c-.25.51-.87.5-1.35.37-.09,0-1.14-.49-.81-.67.8-.46,0-1.49-.68-1.08-1.3.73-.67,2.21.48,2.71,1.33.59,3,.46,3.72-1C229.87,480.58,228.49,480.25,228.14,481Z"/><path class="cls-8" d="M232.88,479.13a3,3,0,0,1-.95,1.2c-.22.13-.57.17-.67-.13-.23-.74-1.63-.52-1.38.28a1.82,1.82,0,0,0,2,1.16,3.14,3.14,0,0,0,2.21-1.85C234.52,479,233.27,478.46,232.88,479.13Z"/><path class="cls-8" d="M236.47,478a.79.79,0,0,0-1,0l-.2.17c-.07,0-.08,0,0,0l-.09,0-.08,0h0l-.13,0h0c-.34,0-.72.2-.73.58a.68.68,0,0,0,.69.64,2.29,2.29,0,0,0,1.57-.62A.57.57,0,0,0,236.47,478Z"/><path class="cls-5" d="M246.11,462a1,1,0,0,0,.91.82,8.3,8.3,0,0,0,1.11,0c2.6-.12,5.05-1,7.62-1.35a2.07,2.07,0,0,0,.78-.37c.68-.48.91-1.21.09-1.56-1.59-.67-.67-1.5-.08-2.47-1.88.1-3.07,1.24-4.5,1.71-1.82.61-3.53,1.5-5.3,2.24A.88.88,0,0,0,246.11,462Z"/><path class="cls-5" d="M250.86,443.41a.69.69,0,0,0-.51-.52,5.05,5.05,0,0,1-.86-1.07c-.27-.53-.22-1-1-1.06-.64-.06-1,.4-1.37.85a19.77,19.77,0,0,1-3.23,3.67c-1,.83-2.31,1.27-3.36,2a.87.87,0,0,0-.61-.12l-.12,0a.65.65,0,0,0-.54.57c-.16,1.05.83,1.74,1.72,2,.39.1,1.12-.2.9-.72l0-.08c.53-.37,1.1-.73,1.68-1.11,2.09-1.1,4.41-1.58,6.65-2.46C251.8,444.72,251.52,444.11,250.86,443.41Z"/><path d="M221.46,492.8h0l0,0Z"/><path d="M179.67,455.63a58,58,0,0,0-4.63,9.59,2.06,2.06,0,0,1-1.49,1.44,12.16,12.16,0,0,0-4.27,2.35,7.27,7.27,0,0,0-1.17,10.34,11.37,11.37,0,0,0,3.81,3c2,1,4.2,1.45,6.12,2.76,1,.69,2.28,1.11,3.1,2.05a9.83,9.83,0,0,0,3.8,2.66c2.2.88,4.43,1.72,6.68,2.47a47.57,47.57,0,0,0,11.37,2c5.42.45,10.8.91,16.23.24,3.24-.39,6.42-1,8.5-3.8,1.53-2,2.82-4.21,5.86-3.87,1.31-1.26,3.06-1.52,4.7-1.86,3.08-.64,4.58-5.76,2.16-8a8.92,8.92,0,0,1-1.26-1.54c-.26-.39-.28-.66,0-1,1.81-1.53,3.44-3.31,5.63-4.35s3.65-2.65,5.65-3.71a1.43,1.43,0,0,0,.86-1.84c-.25-.74.21-.85.74-1.05a15.41,15.41,0,0,1,3.68-.8c2.28-.29,3.24-1.82,2.43-3.91a3.81,3.81,0,0,1,0-1.71,1.37,1.37,0,0,0-1.52-1.53,4.39,4.39,0,0,0-2.13.57c-1.33.66-2.67,1.31-4,1.94-.46.22-1.1.64-1.46.32-1.53-1.38-3.09-.42-4.65-.23a42.3,42.3,0,0,0-5.5.89,1.77,1.77,0,0,1-2.2-1c-.54-.89-.19-1.33.32-2.07a10,10,0,0,1,4.1-3,6.64,6.64,0,0,0,3.56-3.8c.3-.88.91-1.21,1.58-1.7,1.38-1,3.06-1.13,4.52-1.84,1.87-.91,2.12-2,.6-3.34a2.15,2.15,0,0,1-.89-1.66c-.06-1.16-.85-1.24-1.76-1a6,6,0,0,0-3.68,2.7,9.07,9.07,0,0,1-2.27,2.43c-.42.3-.8.56-1.38.12a3.5,3.5,0,0,0-3.94-.23A3.76,3.76,0,0,1,236,445c-4.43.12-8.63,1.46-12.92,2.33a10.94,10.94,0,0,0-4.13,1.61,3.28,3.28,0,0,1-3.07.35c-4.85-1.09-9.54-3-12.71-2.74-8.93.08-15.22,2.25-20.87,6.31A9.27,9.27,0,0,0,179.67,455.63Zm-5.14,17.15c-1-.42-1.66-.82-1.64-1.77a.78.78,0,0,1,.65-.76c.33-.07.46.26.52.55C174.19,471.35,174.32,471.91,174.53,472.78Zm1.17,2.47c-.09.7-.25,1.52-1.26,1.5-.81,0-1.16-.52-1.16-1.29s.24-1.29,1.14-1.33C175,474.3,175.81,474.36,175.7,475.25Zm-5.09-5.82c.75-.47,1.46-1,2.23-1.46.38-.21.92-.37,1.17.15s0,.83-.6.95a2.8,2.8,0,0,0-1,.46c-1,.73-1.24,1.51-.57,2.92a2.6,2.6,0,0,1,.22,2c-.64,2.48.77,4,3.21,3.46a1.49,1.49,0,0,1,1.72.46,2.26,2.26,0,0,0,2.62.66c1-.34,1.77.17,2.68.38,2.23.53,4.52.93,6.8,1.28a2.92,2.92,0,0,0,1.47-.45c.36-.16.68-.34,1,0,1.07,1.34,2.59.85,4,.95.35,0,.72-.24,1.08-.23,1.45.06,1.52,0,1.76-1.22a1,1,0,0,1,1.11-.86c.72,0,1.38.48,1.17,1-.59,1.54.25,1.66,1.37,1.74.16,0,.28.34.15.65l-11.66-1c-2.52-.22-5-.38-7.54-.73-4.1-.57-8.17-1.19-11.88-3.35C168,475.54,167.65,471.26,170.61,469.43Zm7,7.44c.82-.52.37-1.56.83-2.29a1.24,1.24,0,0,1,1.59-.41,2.46,2.46,0,0,1,1.65,2.15c0,.52-.18.93-.73.84-.83-.13-1.58-.57-2.21.56C178.51,478.14,177.92,477.48,177.61,476.87Zm6.66-1.53c1.1,0,1.72.68,1.73,1.92-.1.64-.24,1.27-1.16,1.26s-2.44-.81-2.49-1.47A1.76,1.76,0,0,1,184.27,475.34Zm2.56,2.87a1.92,1.92,0,0,1,1.86-1.54,1.4,1.4,0,0,1,1.56,1.42c0,.85-.59,1.33-1.64,1.34S186.81,478.88,186.83,478.21Zm5.34.49c0-.73,1.12-1.66,2-1.63a1.63,1.63,0,0,1,1.61,1.71c0,.92-.53,1.41-1.52,1.42S192.2,479.47,192.17,478.7ZM214,481.29l0-.12v.08l.09.62c1.26-.39,2.18.57,3.26.79a15.32,15.32,0,0,0,6,.18c.71-.13,1.43-.45,2.27.42l-2.25.12c-6.17.24-12.3-.59-18.44-.89a2.1,2.1,0,0,1-1.62-2.07.86.86,0,0,1,.53-.66A2.64,2.64,0,0,1,207,481.4c.06.28,0,.62.33.68C209.61,482.47,211.9,482.88,214,481.29Zm-3.44-1.83c.72.2,1.92.17,2,1.06.06,1.48-1.43.44-2,1a1.31,1.31,0,0,1-1.56-.94C208.73,480,209.78,479.25,210.51,479.46Zm9.3,1.77a1.25,1.25,0,0,1,.86-.78,1.46,1.46,0,0,1,1.58.52.43.43,0,0,1,0,.41c-.37.5-.93.37-1.43.36A1.07,1.07,0,0,1,219.81,481.23Zm5.58-1.38a10.8,10.8,0,0,1,1.52-.52,15.62,15.62,0,0,1,2.14.85,1,1,0,0,1,.27,1.37,1.38,1.38,0,0,1-1.67.71,2.36,2.36,0,0,0-1.67-.36c-.74.22-.92-.23-1.09-.73A1,1,0,0,1,225.39,479.85Zm-21.27-1.51a.66.66,0,0,1-.41.12c-.56.05-1,.69-1.6.45.41-1.5,1-2,1.88-1.57a.76.76,0,0,1,.39.47A.83.83,0,0,1,204.12,478.34Zm-22.83,7.26c.44-.57.9-.32,1.29-.33.87,0,1.37.31,1.15,1.34a3.36,3.36,0,0,0,.21,1.21C182.84,487.31,182.41,486.08,181.29,485.6Zm2.71,2.3a.49.49,0,0,1,.39.38A.51.51,0,0,1,184,487.9Zm42,2.67c-.16.06-.28,0-.24-.16s.18-.17.28-.23.12.05.18.08Zm-.26-2.07c-.31-.16-.58,0-.66.38s0,.75-.15,1.1c-.55,1.66-1.43,3-3.46,2.82-.65.57-1.51.46-2.27.59a41.24,41.24,0,0,1-12.4.21,1.09,1.09,0,0,1-1.11-1.11c-.06-.57.24-1.19-.21-1.7-.14,0-.37,0-.39.08-.55,2.35-.55,2.35-3.13,2.28-.29,0-.59,0-.89,0-1.88-.1-2.24-.42-2.69-2.3-.08-.33.07-.75-.49-1.07-.63.89.26,1.83-.09,2.68-2.65.52-1.61-2.23-2.78-3.27-.55,1,.34,1.82,0,2.62-2.69,0-2.85-.11-4-3.26v2.05c-1.9-.13-3.19-.79-3.41-2.7-.54-.12-.64.15-.62.47.06,1.1-.63,1-1.07.48a4.62,4.62,0,0,1-1.26-3.15c14.63.77,29.18,2.33,44.18,1.31C227.73,487.91,227.33,489.31,225.73,488.5Zm9.89-3.89a108.15,108.15,0,0,1-12.8,1.74c-1.92.16-3.86-.13-5.79-.15-5.87-.05-11.75-.09-17.6-.63-5.32-.5-10.69-.44-16-1.29a45.88,45.88,0,0,1-9.93-2.42c-2.36-.95-4.58-2.43-5.32-5.22,2.63,2.47,5.92,3.42,9.25,4.22a58.72,58.72,0,0,0,8.15,1.12c4.74.45,9.48.85,14.22,1.24,1.48.13,3,.24,4.45.24,3,0,5.91.56,8.88.66,8,.27,15.91.93,23.75-1.11a9.56,9.56,0,0,0,3-1.23C238.84,484,237.14,484.31,235.62,484.61Zm4.28-5.85c.49,1-.36,1.51-.93,2-1.75,1.6-4.05,1.72-6.22,2.1-1.31.22-2.65.24-4.2.37.62-.72,1.08-1.15,2-.88,1.68.53,2.86-.3,3.81-1.59.19-.26.16-.57.75-.52,1.67.15,2.41-.72,2.23-2.3-.06-.51-.59-.88-.41-1.45a1,1,0,0,1,1.25,0A6.51,6.51,0,0,1,239.9,478.76Zm-5.59,0a1.47,1.47,0,0,1,1.27-1.06c.49-.09.59.3.63.68,0,.79-.47.95-1.14.95C234.64,479.3,234.24,479.11,234.31,478.74Zm17.73-20c1.43-.47,2.62-1.61,4.5-1.71-.59,1-1.51,1.8.08,2.47.82.35.59,1.08-.09,1.56a2.07,2.07,0,0,1-.78.37c-2.57.31-5,1.23-7.62,1.35a8.3,8.3,0,0,1-1.11,0,1,1,0,0,1-.91-.82.88.88,0,0,1,.63-1C248.51,460.27,250.22,459.38,252,458.77Zm-15.46,1.88c.14.12.5.26.58.19,1.5-1.31,3.43-.23,5.09-1,1.51-.68,3.32-.32,5-1,0,.81-.44.77-.75.91-1.72.77-2,1.54-1.42,3.34.52,1.5.52,1.5,2.19,1.23l.66-.1c.68-.11,1.47-.18,1.73.57s-.47,1.09-1,1.34a44.46,44.46,0,0,0-7.3,5c-2.13,1.73-3.94,3.82-6.27,5.31-.89.57-1.65,1.25-2.81,1.09a1.86,1.86,0,0,0-1.86.9h0a.08.08,0,0,0,0,0,9.06,9.06,0,0,1,1.27-.1,1.76,1.76,0,0,1,1.61,1.32c.14.39-.89,1.71-1.34,1.81-.95.22-1.36-.39-1.62-1.13A14,14,0,0,1,230,479h0a.05.05,0,0,1,0,0,3.14,3.14,0,0,1-2.76-.08,2.55,2.55,0,0,0-3.06.42,1.24,1.24,0,0,1-1.52.29c-2.22-.81-3.09-.41-4.36,1.8-.77-.82-1.49-1.61-2.81-1.29-.53.13-1-.57-1.35-1.05a8.81,8.81,0,0,1-1.84-7.13c1.28-6.15,5.47-10.3,12-11.72a17,17,0,0,1,6.63-.11,28,28,0,0,0,3.55.19C235.17,460.28,235.94,460.08,236.58,460.65Zm3.65-14.8c0,.33,0,.51-.07.6-.41.49-1.71.55-1.06,1.49.48.69,1.19-.17,1.73-.44a13.06,13.06,0,0,0,5.2-4.38,4,4,0,0,1,3-2.08,1.86,1.86,0,0,0,1.33,2.47c.63.25.53.81-.07,1.17a1.13,1.13,0,0,1-.4.19c-3,.41-5.32,2.52-8,3.7-.47.21-1.11.36-.93,1s.74.36,1.17.39a3.22,3.22,0,0,1,.52.19c-2.16,2.32-5.55,3-7.21,6-4.69-3.69-9.8-5.95-15.76-6.11C226.19,447.11,233.15,446.31,240.23,445.85Zm-57.31,8.09a9.43,9.43,0,0,1,5.5-3.1v0l.46-.46h.06a2.21,2.21,0,0,1,.5-.38c6.73-2.53,13.55-3.2,20.5-.93.62.2,1.57.09,1.48,1.25,0,.35.46.53.64.31,1.09-1.34,2.56-.86,3.72-.53,3.15.9,6.42,1.24,9.55,2.14,3.75,1.08,7.22,2.75,9.76,5.9a8.09,8.09,0,0,1,.56,1,9.19,9.19,0,0,1-4.42,0A18.44,18.44,0,0,0,217,462.2a14.74,14.74,0,0,0-6.18,10.66c-.23,1.79.61,3.48,1,5.5a3,3,0,0,0-3.29.63c-1.19.92-2,.55-2.55-1-.83-2.39-2.69-2.84-4.31-.91-.57.67-1,1.06-1.82.76a2.82,2.82,0,0,0-2.53.61,9,9,0,0,0-.47-1.14c-1-1.69-2.44-2.14-4.11-1.11-.86.53-1.4.61-2.07-.21a1.86,1.86,0,0,0-2-.68,2.39,2.39,0,0,1-2.56-.56,2.8,2.8,0,0,0-2.93-.56,1,1,0,0,1-1.36-.33c-.52-.65,0-1.09.36-1.53,2.8-3.4,6.49-4.44,10.72-4,.22,0,.42.19.63.22.6.07,1.4.15,1.51-.53s-.73-.76-1.27-.93c-.84-.26-1.69-.48-2.53-.72-.31,1.09-1.19,1.35-2.19,1.44a11.29,11.29,0,0,0-8.31,4.78.74.74,0,0,1-.7.37,3.78,3.78,0,0,0-1.51.31c-1.64.58-2.21.32-2.81-1.24a3.48,3.48,0,0,1-.26-1.74C176.3,464.11,178.45,458.44,182.92,453.94Z"/><path d="M191.19,466.39h0s0,0,0,0Z"/><path d="M209.27,453c.28,0,.63,0,.59-.44s-.32-.47-.63-.44c-1.59.13-3.12-.61-4.72-.35A8.16,8.16,0,0,0,209.27,453Z"/><polygon points="204.43 451.77 204.43 451.77 204.43 451.77 204.43 451.77"/><path d="M204.51,451.75l0,0h0l0,0Z"/><path d="M187.5,454.39l0,.06,0,0h0Z"/><polygon points="187.52 454.4 187.52 454.4 187.52 454.4 187.52 454.4"/><path d="M187.76,452.93a.56.56,0,0,0-.76.16c-.7.77-.26,1.1.5,1.3.12-.23.24-.47.35-.71S188.06,453.13,187.76,452.93Z"/><path d="M195.86,453.64c-.74.12-.69.81-.89,1.31,0,0,.06.11.19.36.69-.33,1.32-.56,1-1.43C196.14,453.77,196,453.62,195.86,453.64Z"/><path d="M184.85,454.49c.44,0,.62-.27.68-.66s-.22-.55-.54-.53a.58.58,0,0,0-.54.56C184.43,454.16,184.49,454.47,184.85,454.49Z"/><path d="M192.88,451.33a.58.58,0,0,0,.5-.63.5.5,0,0,0-.57-.51.78.78,0,0,0-.61.8C192.23,451.37,192.58,451.4,192.88,451.33Z"/><path d="M203.41,449.58a.69.69,0,0,0,.82-.51.43.43,0,0,0-.38-.49.66.66,0,0,0-.81.55A.38.38,0,0,0,203.41,449.58Z"/><path d="M218.13,456.25a.46.46,0,0,0,.45-.56.45.45,0,0,0-.64-.33.64.64,0,0,0-.37.42C217.56,456.11,217.84,456.26,218.13,456.25Z"/><path d="M212.18,455.87c.38,0,.57-.16.58-.39,0-.49-.3-.63-.72-.58a.38.38,0,0,0-.35.45A.6.6,0,0,0,212.18,455.87Z"/><path d="M189.07,451.49a.59.59,0,0,0,.54-.58c0-.42-.29-.56-.67-.58h-.06l-.46.46v0C188.49,451.2,188.65,451.52,189.07,451.49Z"/><path d="M194,464.11c-.3,0-.56.13-.54.46a.54.54,0,0,0,.57.5.37.37,0,0,0,.42-.35A.54.54,0,0,0,194,464.11Z"/><path d="M190.14,463.23a1.45,1.45,0,0,0-.2.43c-.06.38.23.47.52.48a.4.4,0,0,0,.45-.34C191,463.43,190.66,463.36,190.14,463.23Z"/><path d="M189.56,457.48a.56.56,0,0,0-.5.61.59.59,0,0,0,.47.33.56.56,0,0,0,.52-.54C190,457.58,189.77,457.44,189.56,457.48Z"/><path d="M207.67,453.93a.52.52,0,0,0-.67.33c-.1.27.12.38.33.44a.47.47,0,0,0,.66-.32C208.06,454.1,207.88,454,207.67,453.93Z"/><path d="M199.71,449.58a.52.52,0,0,0,.39-.6c0-.39-.32-.44-.59-.34a.49.49,0,0,0-.3.67C199.29,449.51,199.42,449.67,199.71,449.58Z"/><path d="M196.45,450.4a.41.41,0,0,0,.47-.35.54.54,0,0,0-.51-.6.5.5,0,0,0-.46.39C195.87,450.22,196.15,450.37,196.45,450.4Z"/><path d="M207.64,450.21c.27.08.41-.1.46-.31s0-.59-.39-.56a.52.52,0,0,0-.38.2C207.29,450,207.43,450.14,207.64,450.21Z"/><path d="M198,466.84c.16,0,.24-.2.26-.41,0-.37-.23-.47-.54-.47a.38.38,0,0,0-.39.4C197.29,466.72,197.52,466.84,198,466.84Z"/><path d="M203.6,455.38a.44.44,0,0,0-.37.44c0,.26.12.42.39.38a.45.45,0,0,0,.38-.44C204,455.48,203.86,455.38,203.6,455.38Z"/><path d="M200.48,454.87a.47.47,0,0,0-.34.2.4.4,0,0,0,.25.51c.25.08.39-.09.45-.32A.32.32,0,0,0,200.48,454.87Z"/><path d="M194.67,459a.34.34,0,0,0-.27.44.5.5,0,0,0,.3.23c.25.05.36-.1.38-.33S194.93,458.92,194.67,459Z"/><path d="M199.65,469.13c.22,0,.38-.12.36-.21-.14-.4-.34-.49-.53-.43a.33.33,0,0,0-.17.49A.42.42,0,0,0,199.65,469.13Z"/><path d="M186.88,462.08a.65.65,0,0,0,.2,0,26.57,26.57,0,0,1,3,0,9.68,9.68,0,0,1,2.54.27h0l.5.28a1.15,1.15,0,0,1,.14.17.54.54,0,0,0,.55.22c1.3.74,2.51,1.43,3.73,2.11,1.68.93,3.41,1.78,5.06,2.77,2,1.17,1.94,2.17-.07,3.34a18.76,18.76,0,0,1-7.36,2.31,7.16,7.16,0,0,0-3.21.77c-.3.2-.77.29-.6.76s.59.38.94.29c4.08-1,8.25-1.75,12.06-3.69.9-.47,1.39-.93,1-2.08a4.67,4.67,0,0,0-2-2.56c-2.78-1.71-5.84-2.86-8.68-4.47a5.59,5.59,0,0,0-.55-.28,2.65,2.65,0,0,0-2.07-.92,24.7,24.7,0,0,0-4.38-.23s0,0,0,0c-1.42,0-2.8.7-4.11-.08,2-3.29,4.51-6.05,8.21-7.48a20.75,20.75,0,0,1,7.59-1.55c1.69,0,3.37-.18,5.06-.28-.53-.79-1.41-.73-2.16-.77a22.16,22.16,0,0,0-9.34,1.11c-1.85.7-3.59,1.61-5.41,2.35a1,1,0,0,1-.21.34,30.81,30.81,0,0,0-7.95,11.91c-.15.35-.35.73.15.88a.74.74,0,0,0,.9-.48c.11-.27.13-.57.22-.85a14.31,14.31,0,0,1,2.23-4c1.8,1.49,4,2.05,5.69,3.34a3.9,3.9,0,0,0,2.6.8l-6-4A5.73,5.73,0,0,1,186.88,462.08Z"/><path d="M187.52,454.4h0l0,0,0,0,0,0Z"/><path d="M204.43,451.77h0l0,0h0l0,0Z"/><path d="M191.23,466.35h-.1l.06,0h0l0,0Z"/><path d="M241.29,462.12a.5.5,0,0,0,.51-.58c0-.36-.31-.46-.63-.45s-.42.15-.4.43A.58.58,0,0,0,241.29,462.12Z"/><path d="M218.19,467.65c-.29.05-.59.12-.65.47a.42.42,0,0,0,.47.54c.3,0,.59-.11.65-.45S218.54,467.67,218.19,467.65Z"/><path d="M221.7,462.82c-.29,0-.51.23-.49.64.14.08.31.28.47.27a.49.49,0,0,0,.47-.58A.56.56,0,0,0,221.7,462.82Z"/><path d="M241.39,465.79a.56.56,0,0,0-.6.43c0,.34.18.57.49.57s.47-.27.48-.57A.4.4,0,0,0,241.39,465.79Z"/><path d="M237.6,464.77a.44.44,0,0,0,.41-.42.43.43,0,0,0-.34-.46c-.37-.05-.52.2-.51.53A.36.36,0,0,0,237.6,464.77Z"/><path d="M223.82,467a.45.45,0,0,0-.55.46c0,.16.16.33.24.48a.57.57,0,0,0,.64-.49A.39.39,0,0,0,223.82,467Z"/><path d="M230.92,467.42a.44.44,0,0,0-.47.35c0,.22,0,.48.23.52a.46.46,0,0,0,.59-.44C231.3,467.61,231.15,467.47,230.92,467.42Z"/><path d="M231.75,463.54a.7.7,0,0,0-.4.41c0,.25.16.38.41.34a.45.45,0,0,0,.39-.42C232.14,463.62,232,463.45,231.75,463.54Z"/><path d="M227.13,462.58c-.08,0-.17.24-.16.35a.32.32,0,0,0,.44.31c.09,0,.13-.22.2-.33C227.53,462.67,227.37,462.53,227.13,462.58Z"/><path d="M230,478.92a.05.05,0,0,0,0,0h0a.51.51,0,0,0,.45-.45.08.08,0,0,1,0,0h0A.68.68,0,0,0,230,478.92Z"/><path d="M221.73,489.2c-.26.93-.51,1.75-.7,2.57-.1.41-.14.87.45,1C222.26,490.18,222.26,490.17,221.73,489.2Z"/><path d="M221.46,492.8l0,0h0Z"/><path d="M211.73,490c-.84.8-.55,1.81-.46,2.78,0,0,.1.06.34.2.22-1,.79-1.82.48-2.86C212.07,490.05,211.78,490,211.73,490Z"/><path d="M215.3,490c-.15.95-.29,1.91-.5,3.32a3.63,3.63,0,0,0,1.07-3.26Z"/><path d="M219.3,490.39a.46.46,0,0,0-.28-.28.35.35,0,0,0-.48.27c-.15.74-.27,1.48-.4,2.23A2,2,0,0,0,219.3,490.39Z"/><path d="M201.66,492.28c.41-1.72.41-1.72-.06-2.54A2.42,2.42,0,0,0,201.66,492.28Z"/><path d="M207.9,493c.25-.84,1.07-1.62.2-2.89A4.6,4.6,0,0,0,207.9,493Z"/><path d="M231.92,450.63a.78.78,0,0,0-.43.44.37.37,0,0,0,.34.47c.36,0,.49-.22.53-.54S232.15,450.56,231.92,450.63Z"/><path d="M236.15,448.25c.22-.08.41-.2.41-.45a.4.4,0,0,0-.39-.44.45.45,0,0,0-.48.55C235.71,448.15,235.91,448.26,236.15,448.25Z"/><path d="M232.17,447.37c-.36-.05-.54.2-.6.49a.41.41,0,0,0,.35.47c.34,0,.5-.21.6-.49S232.41,447.4,232.17,447.37Z"/><path d="M227.83,448.67c-.38-.05-.52.23-.54.53a.41.41,0,0,0,.38.45c.37,0,.49-.23.55-.53A.45.45,0,0,0,227.83,448.67Z"/><path class="cls-2" d="M206.71,432.55c-2.35,2.53-2.88,4.17-2,6.3C207.18,437.5,208.32,435.29,206.71,432.55Z"/><path class="cls-2" d="M198.49,433.51c-.18-1.12-.42-2.1-.48-3.08s1-1.88.08-2.92C196.22,430.22,196.29,431.61,198.49,433.51Z"/><path class="cls-2" d="M213.43,438.2c2.62-.3,3-2.25,3.39-4.69C215.21,435.05,213.44,436,213.43,438.2Z"/><path class="cls-2" d="M189.21,440c.39.28.66.2.9-.2a1.85,1.85,0,0,0,0-2.1c-.51-.8-1.13-1.52-1.76-2.34C187.46,437.29,187.84,439,189.21,440Z"/><path class="cls-2" d="M204.2,426.22c-.93,1.65-2.43,2.81-1.4,4.92A4.19,4.19,0,0,0,204.2,426.22Z"/><path d="M199.65,433.09a8.47,8.47,0,0,1-.19-4.13c.4-1.7-.56-3.13-1.73-4.35a.62.62,0,0,0-.81,0c-.09.06-.2.29-.16.35,1.08,1.47-.07,2.64-.61,3.81a4.5,4.5,0,0,0,.36,4.63,4.07,4.07,0,0,1,.8,2.85C199.49,435.67,200.1,434.83,199.65,433.09Zm-1.56-5.58c.88,1-.14,2-.08,2.92s.3,2,.48,3.08C196.29,431.61,196.22,430.22,198.09,427.51Z"/><path d="M207.63,437.69a3.67,3.67,0,0,0,.76-2.92c-.21-1.47-.37-2.94-.45-4.42,0-.39,0-1-.84-.82-1,1.66-2.07,3.33-2.93,5.11-1.15,2.39-1.5,4.82,1,7.31C205.36,440,206.64,438.92,207.63,437.69Zm-.92-5.14c1.61,2.74.47,4.95-2,6.3C203.83,436.72,204.36,435.08,206.71,432.55Z"/><path d="M190.51,442c1.47-3.25,1.44-3.62-.63-6.42a5.8,5.8,0,0,1-1-2,9.91,9.91,0,0,0-.5-1.23.53.53,0,0,0-.56-.26.39.39,0,0,0-.39.44c.2,1.32-.46,2.46-.66,3.69A5.32,5.32,0,0,0,190.51,442Zm-2.2-6.57c.63.82,1.25,1.54,1.76,2.34a1.85,1.85,0,0,1,0,2.1c-.24.4-.51.48-.9.2C187.84,439,187.46,437.29,188.31,435.38Z"/><path d="M217.5,431.55c-1.44,1.77-3.63,2.88-4.59,5-.56,1.26-1,2.65.44,3.94a8.83,8.83,0,0,1,2.18-1.89c2.41-1.61,2.25-4.3,2.72-6.72A.44.44,0,0,0,217.5,431.55Zm-4.07,6.65c0-2.22,1.78-3.15,3.39-4.69C216.43,436,216.05,437.9,213.43,438.2Z"/><path d="M201.5,429.45a3.38,3.38,0,0,0,.39,2.77c.42.67,1.65.91,1.83.31.5-1.67,2.17-2.92,1.78-4.66a9.86,9.86,0,0,0-1-4.51.61.61,0,0,0-.74-.33.51.51,0,0,0-.35.69c.54,1.46-.28,2.59-.94,3.73A7.78,7.78,0,0,0,201.5,429.45Zm2.7-3.23a4.19,4.19,0,0,1-1.4,4.92C201.77,429,203.27,427.87,204.2,426.22Z"/></g></svg>