<svg id="T-shirt_pattern" xmlns="http://www.w3.org/2000/svg" xmlns:xlink="http://www.w3.org/1999/xlink" viewBox="0 0 500 500"><defs><style>.cls-1{fill:none;}.cls-2{fill:#a0e9e7;}.cls-3{fill:#def8f8;}.cls-4{fill:url(#New_Pattern_12_copy);}</style><pattern id="New_Pattern_12_copy" data-name="New Pattern 12 copy" width="177.95" height="198.46" patternUnits="userSpaceOnUse" viewBox="0 0 177.95 198.46"><rect class="cls-1" width="177.95" height="198.46"/><path class="cls-2" d="M123.52,159.93a30.84,30.84,0,0,1-4.19-.15c-.65-.1-1,.21-1.15.88-.28,1.37-.64,2.72-.89,4.09a37.84,37.84,0,0,1-2.43,8.39c-.12.29-.39.58-.14.94a1.2,1.2,0,0,0,.67-.32,26.42,26.42,0,0,0,3.51-3.66,23.8,23.8,0,0,0,3.5-5.27,23.55,23.55,0,0,0,1.88-3.88C124.56,160,124.52,160,123.52,159.93Z"/><path class="cls-2" d="M111.66,166.88a47,47,0,0,1-1.57-6.15c-.11-.7-.37-.8-.94-.79h-5.51c.81,2.65,2.65,4.61,3.85,6.93a33.51,33.51,0,0,0,4.94,6.58c.18.2.32.54.73.45a4.57,4.57,0,0,0-.33-1.83A50,50,0,0,0,111.66,166.88Z"/><path class="cls-3" d="M117.12,163.48c.23-1,.41-2,.55-3,.1-.69,0-.86-.76-.76a47.13,47.13,0,0,1-5.44.22c-.73,0-.92.24-.82.93a25.63,25.63,0,0,0,.57,2.6,61.32,61.32,0,0,1,1.64,6.12,40,40,0,0,0,1,4,14.9,14.9,0,0,0,1.75-4.09C116.17,167.51,116.65,165.5,117.12,163.48Z"/><path class="cls-3" d="M111.68,159.22c.43.52,1.27.11,1.92.16a.73.73,0,0,0,.25,0,.34.34,0,0,0,.27-.47c-.43-1.18-.56-2.45-1.1-3.63a9.79,9.79,0,0,0-.92,2.25C111.92,158.07,111.25,158.71,111.68,159.22Z"/><path class="cls-3" d="M115.34,159.44c.68-.29,1.37-.12,2.09-.36-.39-1-.75-1.92-1.12-2.85A4.88,4.88,0,0,0,115.34,159.44Z"/><path class="cls-3" d="M121.28,159.14a13,13,0,0,0-1.71-3.77c-.13,0-.2.06-.21.09-.12.48-.26,1-.36,1.45C118.49,159.36,118.59,159.46,121.28,159.14Z"/><path class="cls-3" d="M122.35,159.18a6.79,6.79,0,0,0,2.29,0A15.43,15.43,0,0,0,123,155.3,13.91,13.91,0,0,0,122.35,159.18Z"/><path class="cls-3" d="M107.15,159.34a40.06,40.06,0,0,0-1.82-4.32c-.17.1-.27.12-.31.19-.66,1-.84,2.17-1.53,3.14-.32.45.06.78.54.89A10,10,0,0,0,107.15,159.34Z"/><path class="cls-3" d="M108.89,159.37l.76,0c.49.06.75-.15.63-.65a18.59,18.59,0,0,0-.64-3.39c-.83.82-1,1.87-1.53,2.71S107.73,159.27,108.89,159.37Z"/><path class="cls-2" d="M114.47,158.38a6.81,6.81,0,0,0,1.17-3.42c0-.29-.16-.47-.45-.49s-.6,0-.89,0c-.55,0-.74.28-.59.83C114,156.26,114.19,157.24,114.47,158.38Z"/><path class="cls-2" d="M122.09,156.56c.38-2.29.38-2.29-1.92-2.19a2,2,0,0,0-.36.15c.9,1.09,1.08,2.46,1.88,3.58A2.82,2.82,0,0,0,122.09,156.56Z"/><path class="cls-2" d="M118.05,158.41c.1-1.08.62-2,.68-3.1,0-.25.11-.51-.08-.73a2.92,2.92,0,0,0-1.61,0,.91.91,0,0,0-.31,1A7.71,7.71,0,0,0,118.05,158.41Z"/><path class="cls-2" d="M111.11,158.37a13.84,13.84,0,0,0,1.36-3.85,5,5,0,0,0-2.36-.07c.15.71.24,1.38.44,2S110.44,157.8,111.11,158.37Z"/><path class="cls-2" d="M109.2,154.43a11.89,11.89,0,0,0-3.37,0,22.26,22.26,0,0,0,1.55,3.63A11.27,11.27,0,0,0,109.2,154.43Z"/><path d="M125,158a3,3,0,0,1,.36,1.21,7.21,7.21,0,0,1-.88,2.76,51.61,51.61,0,0,1-3.72,6.61,31.68,31.68,0,0,1-5.06,5.66,6.79,6.79,0,0,1-1.15.77c-.86.44-1,.32-1.72-.36a56.27,56.27,0,0,1-4.38-5.24,20.11,20.11,0,0,1-1.67-2.69c-.8-1.39-1.58-2.79-2.49-4.11a12.1,12.1,0,0,1-1.35-2.86,2.51,2.51,0,0,1,.19-2.15c.51-.93.93-1.89,1.43-2.82a1.62,1.62,0,0,1,1.61-1c2.84,0,5.67.08,8.5.14,2.41,0,4.82,0,7.23-.14a1.52,1.52,0,0,1,1.77,1.16C124,156,124.55,157,125,158Zm-5.17-3.5c.9,1.09,1.08,2.46,1.88,3.58a2.82,2.82,0,0,0,.4-1.54c.38-2.29.38-2.29-1.92-2.19A2,2,0,0,0,119.81,154.52Zm-.81,2.39c-.51,2.45-.41,2.55,2.28,2.23a13,13,0,0,0-1.71-3.77c-.13,0-.2.06-.21.09C119.24,155.94,119.1,156.42,119,156.91Zm-2.27-1.35a7.71,7.71,0,0,0,1.32,2.85c.1-1.08.62-2,.68-3.1,0-.25.11-.51-.08-.73a2.92,2.92,0,0,0-1.61,0A.91.91,0,0,0,116.73,155.56Zm-.42.67a4.88,4.88,0,0,0-1,3.21c.68-.29,1.37-.12,2.09-.36C117,158.1,116.68,157.16,116.31,156.23Zm-2.6-.94c.26,1,.48,2,.76,3.09a6.81,6.81,0,0,0,1.17-3.42c0-.29-.16-.47-.45-.49s-.6,0-.89,0C113.75,154.48,113.56,154.74,113.71,155.29Zm-.69,0a9.79,9.79,0,0,0-.92,2.25c-.18.58-.85,1.22-.42,1.73s1.27.11,1.92.16a.73.73,0,0,0,.25,0,.34.34,0,0,0,.27-.47C113.69,157.69,113.56,156.42,113,155.24Zm-2.91-.79c.15.71.24,1.38.44,2s-.11,1.33.56,1.9a13.84,13.84,0,0,0,1.36-3.85A5,5,0,0,0,110.11,154.45Zm-.47.93c-.83.82-1,1.87-1.53,2.71s-.38,1.18.78,1.28l.76,0c.49.06.75-.15.63-.65A18.59,18.59,0,0,0,109.64,155.38Zm-3.81-.95a22.26,22.26,0,0,0,1.55,3.63,11.27,11.27,0,0,0,1.82-3.63A11.89,11.89,0,0,0,105.83,154.43Zm-1.8,4.81a10,10,0,0,0,3.12.1,40.06,40.06,0,0,0-1.82-4.32c-.17.1-.27.12-.31.19-.66,1-.84,2.17-1.53,3.14C103.17,158.8,103.55,159.13,104,159.24Zm8.8,12.83a50,50,0,0,0-1.17-5.19,47,47,0,0,1-1.57-6.15c-.11-.7-.37-.8-.94-.79h-5.51c.81,2.65,2.65,4.61,3.85,6.93a33.51,33.51,0,0,0,4.94,6.58c.18.2.32.54.73.45A4.57,4.57,0,0,0,112.83,172.07Zm2.8-2.56c.54-2,1-4,1.49-6,.23-1,.41-2,.55-3,.1-.69,0-.86-.76-.76a47.13,47.13,0,0,1-5.44.22c-.73,0-.92.24-.82.93a25.63,25.63,0,0,0,.57,2.6,61.32,61.32,0,0,1,1.64,6.12,40,40,0,0,0,1,4A14.9,14.9,0,0,0,115.63,169.51Zm7.89-9.58a30.84,30.84,0,0,1-4.19-.15c-.65-.1-1,.21-1.15.88-.28,1.37-.64,2.72-.89,4.09a37.84,37.84,0,0,1-2.43,8.39c-.12.29-.39.58-.14.94a1.2,1.2,0,0,0,.67-.32,26.42,26.42,0,0,0,3.51-3.66,23.8,23.8,0,0,0,3.5-5.27,23.55,23.55,0,0,0,1.88-3.88C124.56,160,124.52,160,123.52,159.93Zm1.12-.78A15.43,15.43,0,0,0,123,155.3a13.91,13.91,0,0,0-.68,3.88A6.79,6.79,0,0,0,124.64,159.15Z"/><path class="cls-3" d="M99.48,199.23c.27.32.78.06,1.19.09a.26.26,0,0,0,.15,0A.21.21,0,0,0,101,199c-.26-.73-.34-1.51-.68-2.24a6.08,6.08,0,0,0-.57,1.39C99.63,198.52,99.22,198.91,99.48,199.23Z"/><path class="cls-3" d="M101.74,199.36c.43-.18.85-.07,1.29-.22-.23-.61-.46-1.19-.68-1.76A3,3,0,0,0,101.74,199.36Z"/><path class="cls-3" d="M105.42,199.18a8.14,8.14,0,0,0-1.06-2.33l-.13.05c-.08.3-.16.6-.23.9C103.69,199.31,103.75,199.38,105.42,199.18Z"/><path class="cls-3" d="M106.08,199.2a4.19,4.19,0,0,0,1.41,0,9.88,9.88,0,0,0-1-2.38A8.43,8.43,0,0,0,106.08,199.2Z"/><path class="cls-3" d="M96.68,199.3a24.34,24.34,0,0,0-1.12-2.67c-.11.06-.17.08-.19.12-.41.6-.52,1.34-1,1.94-.19.27,0,.48.33.55A6.47,6.47,0,0,0,96.68,199.3Z"/><path class="cls-3" d="M97.76,199.32l.47,0c.3,0,.46-.09.39-.4a11.26,11.26,0,0,0-.4-2.09,7.37,7.37,0,0,0-.94,1.67C96.91,199.1,97,199.26,97.76,199.32Z"/><path class="cls-2" d="M101.21,198.71a4.24,4.24,0,0,0,.72-2.11c0-.18-.1-.29-.28-.31h-.55c-.34,0-.46.18-.37.52C100.9,197.4,101,198,101.21,198.71Z"/><path class="cls-2" d="M105.91,197.58c.24-1.41.24-1.41-1.18-1.35a1.21,1.21,0,0,0-.22.09c.55.67.66,1.52,1.16,2.21A1.68,1.68,0,0,0,105.91,197.58Z"/><path class="cls-2" d="M103.42,198.73c.06-.67.38-1.27.42-1.92,0-.15.06-.32,0-.45a1.75,1.75,0,0,0-1,0,.54.54,0,0,0-.19.63A4.54,4.54,0,0,0,103.42,198.73Z"/><path class="cls-2" d="M99.13,198.7a8.46,8.46,0,0,0,.84-2.38,3.15,3.15,0,0,0-1.46,0c.09.44.15.85.27,1.25S98.72,198.35,99.13,198.7Z"/><path class="cls-2" d="M98,196.27a7,7,0,0,0-2.09,0,14.3,14.3,0,0,0,1,2.24A7.25,7.25,0,0,0,98,196.27Z"/><path d="M107.7,198.49a1.72,1.72,0,0,1,.22.74,4.45,4.45,0,0,1-.54,1.71,31.41,31.41,0,0,1-2.3,4.08,19.65,19.65,0,0,1-3.13,3.5,3.8,3.8,0,0,1-.71.47c-.53.27-.61.21-1.06-.22a33.23,33.23,0,0,1-2.7-3.23,12,12,0,0,1-1-1.67c-.49-.85-1-1.72-1.54-2.54a7.28,7.28,0,0,1-.83-1.76,1.57,1.57,0,0,1,.12-1.33c.31-.57.57-1.17.88-1.74a1,1,0,0,1,1-.59c1.75,0,3.5.05,5.25.08,1.49,0,3,0,4.46-.08a.93.93,0,0,1,1.1.71C107.1,197.26,107.44,197.86,107.7,198.49Zm-3.19-2.17c.55.67.66,1.52,1.16,2.21a1.68,1.68,0,0,0,.24-.95c.24-1.41.24-1.41-1.18-1.35A1.21,1.21,0,0,0,104.51,196.32ZM104,197.8c-.31,1.51-.25,1.58,1.42,1.38a8.14,8.14,0,0,0-1.06-2.33l-.13.05C104.15,197.2,104.07,197.5,104,197.8Zm-1.39-.83a4.54,4.54,0,0,0,.81,1.76c.06-.67.38-1.27.42-1.92,0-.15.06-.32,0-.45a1.75,1.75,0,0,0-1,0A.54.54,0,0,0,102.61,197Zm-.26.41a3,3,0,0,0-.61,2c.43-.18.85-.07,1.29-.22C102.8,198.53,102.57,198,102.35,197.38Zm-1.62-.58c.17.6.3,1.21.48,1.91a4.24,4.24,0,0,0,.72-2.11c0-.18-.1-.29-.28-.31h-.55C100.76,196.29,100.64,196.46,100.73,196.8Zm-.42,0a6.08,6.08,0,0,0-.57,1.39c-.11.36-.52.75-.26,1.07s.78.06,1.19.09a.26.26,0,0,0,.15,0A.21.21,0,0,0,101,199C100.73,198.28,100.65,197.5,100.31,196.77Zm-1.8-.49c.09.44.15.85.27,1.25s-.06.82.35,1.17a8.46,8.46,0,0,0,.84-2.38A3.15,3.15,0,0,0,98.51,196.28Zm-.29.58a7.37,7.37,0,0,0-.94,1.67c-.37.57-.24.73.48.79l.47,0c.3,0,.46-.09.39-.4A11.26,11.26,0,0,0,98.22,196.86Zm-2.36-.59a14.3,14.3,0,0,0,1,2.24A7.25,7.25,0,0,0,98,196.27,7,7,0,0,0,95.86,196.27Zm-1.11,3a6.47,6.47,0,0,0,1.93.06,24.34,24.34,0,0,0-1.12-2.67c-.11.06-.17.08-.19.12-.41.6-.52,1.34-1,1.94C94.23,199,94.46,199.17,94.75,199.24Zm5.44,7.92a32.12,32.12,0,0,0-.72-3.2,29.82,29.82,0,0,1-1-3.8c-.07-.43-.23-.49-.58-.49-1.1,0-2.19,0-3.4,0,.5,1.64,1.63,2.85,2.37,4.28A20.85,20.85,0,0,0,100,208c.11.12.19.33.45.28A3.2,3.2,0,0,0,100.19,207.16Zm1.73-1.58c.34-1.23.63-2.47.92-3.72a16.71,16.71,0,0,0,.34-1.85c.07-.43,0-.53-.46-.47a29.22,29.22,0,0,1-3.37.14c-.45,0-.57.14-.5.57a14.4,14.4,0,0,0,.35,1.61,37.57,37.57,0,0,1,1,3.78c.12.79.39,1.55.63,2.47A9,9,0,0,0,101.92,205.58Zm4.88-5.92a17.26,17.26,0,0,1-2.59-.09.57.57,0,0,0-.71.54c-.17.85-.4,1.68-.55,2.53a23.53,23.53,0,0,1-1.5,5.19c-.08.18-.24.36-.09.58a.76.76,0,0,0,.41-.2,15.47,15.47,0,0,0,2.17-2.26,14.59,14.59,0,0,0,2.16-3.25,14.39,14.39,0,0,0,1.17-2.4C107.44,199.73,107.41,199.68,106.8,199.66Zm.69-.48a9.88,9.88,0,0,0-1-2.38,8.43,8.43,0,0,0-.42,2.4A4.19,4.19,0,0,0,107.49,199.18Z"/><path class="cls-2" d="M34.55,159.93a30.84,30.84,0,0,1-4.19-.15c-.66-.1-1,.21-1.16.88-.27,1.37-.63,2.72-.88,4.09a37.84,37.84,0,0,1-2.43,8.39c-.13.29-.39.58-.14.94a1.27,1.27,0,0,0,.67-.32,25.78,25.78,0,0,0,3.5-3.66,23.8,23.8,0,0,0,3.5-5.27A22.82,22.82,0,0,0,35.31,161C35.59,160,35.54,160,34.55,159.93Z"/><path class="cls-2" d="M22.69,166.88a47,47,0,0,1-1.58-6.15c-.11-.7-.36-.8-.93-.79H14.67c.81,2.65,2.65,4.61,3.85,6.93a33.12,33.12,0,0,0,4.94,6.58c.18.2.32.54.72.45a4.74,4.74,0,0,0-.32-1.83A52.73,52.73,0,0,0,22.69,166.88Z"/><path class="cls-3" d="M28.15,163.48c.23-1,.41-2,.55-3,.1-.69-.06-.86-.76-.76a47.21,47.21,0,0,1-5.45.22c-.73,0-.91.24-.81.93a23.18,23.18,0,0,0,.57,2.6c.52,2.05,1.32,4,1.64,6.12.19,1.28.63,2.51,1,4a15.26,15.26,0,0,0,1.76-4.09C27.2,167.51,27.68,165.5,28.15,163.48Z"/><path class="cls-3" d="M22.71,159.22c.43.52,1.26.11,1.92.16a.73.73,0,0,0,.25,0,.34.34,0,0,0,.27-.47c-.43-1.18-.56-2.45-1.1-3.63a9.83,9.83,0,0,0-.93,2.25C23,158.07,22.28,158.71,22.71,159.22Z"/><path class="cls-3" d="M26.37,159.44c.68-.29,1.36-.12,2.08-.36-.38-1-.74-1.92-1.11-2.85A4.82,4.82,0,0,0,26.37,159.44Z"/><path class="cls-3" d="M32.31,159.14a13,13,0,0,0-1.72-3.77c-.13,0-.19.06-.2.09-.13.48-.27,1-.37,1.45C29.52,159.36,29.62,159.46,32.31,159.14Z"/><path class="cls-3" d="M33.38,159.18a6.73,6.73,0,0,0,2.28,0,15.76,15.76,0,0,0-1.6-3.85A13.56,13.56,0,0,0,33.38,159.18Z"/><path class="cls-3" d="M18.17,159.34A38.14,38.14,0,0,0,16.35,155c-.17.1-.26.12-.3.19-.66,1-.84,2.17-1.53,3.14-.32.45.06.78.53.89A10,10,0,0,0,18.17,159.34Z"/><path class="cls-3" d="M19.91,159.37l.76,0c.5.06.76-.15.64-.65a18.59,18.59,0,0,0-.64-3.39c-.83.82-1,1.87-1.53,2.71S18.76,159.27,19.91,159.37Z"/><path class="cls-2" d="M25.5,158.38A6.81,6.81,0,0,0,26.67,155c0-.29-.16-.47-.46-.49s-.59,0-.88,0c-.55,0-.74.28-.6.83C25,156.26,25.22,157.24,25.5,158.38Z"/><path class="cls-2" d="M33.11,156.56c.39-2.29.38-2.29-1.91-2.19a2,2,0,0,0-.36.15c.9,1.09,1.07,2.46,1.87,3.58A2.74,2.74,0,0,0,33.11,156.56Z"/><path class="cls-2" d="M29.08,158.41c.1-1.08.62-2,.68-3.1,0-.25.1-.51-.08-.73a2.92,2.92,0,0,0-1.61,0,.89.89,0,0,0-.31,1A7.56,7.56,0,0,0,29.08,158.41Z"/><path class="cls-2" d="M22.14,158.37a14.51,14.51,0,0,0,1.36-3.85,5,5,0,0,0-2.37-.07c.15.71.25,1.38.44,2S21.47,157.8,22.14,158.37Z"/><path class="cls-2" d="M20.22,154.43a11.89,11.89,0,0,0-3.37,0,22.31,22.31,0,0,0,1.56,3.63A11.44,11.44,0,0,0,20.22,154.43Z"/><path d="M36,158a2.84,2.84,0,0,1,.36,1.21,7,7,0,0,1-.87,2.76,51.68,51.68,0,0,1-3.73,6.61,31.24,31.24,0,0,1-5.05,5.66,7.21,7.21,0,0,1-1.15.77c-.87.44-1,.32-1.72-.36a54.75,54.75,0,0,1-4.38-5.24,19.14,19.14,0,0,1-1.67-2.69c-.8-1.39-1.58-2.79-2.5-4.11A11.69,11.69,0,0,1,14,159.77a2.54,2.54,0,0,1,.18-2.15c.52-.93.94-1.89,1.44-2.82a1.62,1.62,0,0,1,1.61-1c2.83,0,5.66.08,8.5.14,2.4,0,4.82,0,7.22-.14A1.51,1.51,0,0,1,34.67,155C35,156,35.58,157,36,158Zm-5.16-3.5c.9,1.09,1.07,2.46,1.87,3.58a2.74,2.74,0,0,0,.4-1.54c.39-2.29.38-2.29-1.91-2.19A2,2,0,0,0,30.84,154.52ZM30,156.91c-.5,2.45-.4,2.55,2.29,2.23a13,13,0,0,0-1.72-3.77c-.13,0-.19.06-.2.09C30.26,155.94,30.12,156.42,30,156.91Zm-2.26-1.35a7.56,7.56,0,0,0,1.32,2.85c.1-1.08.62-2,.68-3.1,0-.25.1-.51-.08-.73a2.92,2.92,0,0,0-1.61,0A.89.89,0,0,0,27.76,155.56Zm-.42.67a4.82,4.82,0,0,0-1,3.21c.68-.29,1.36-.12,2.08-.36C28.07,158.1,27.71,157.16,27.34,156.23Zm-2.61-.94c.26,1,.49,2,.77,3.09A6.81,6.81,0,0,0,26.67,155c0-.29-.16-.47-.46-.49s-.59,0-.88,0C24.78,154.48,24.59,154.74,24.73,155.29Zm-.68,0a9.83,9.83,0,0,0-.93,2.25c-.17.58-.84,1.22-.41,1.73s1.26.11,1.92.16a.73.73,0,0,0,.25,0,.34.34,0,0,0,.27-.47C24.72,157.69,24.59,156.42,24.05,155.24Zm-2.92-.79c.15.71.25,1.38.44,2s-.1,1.33.57,1.9a14.51,14.51,0,0,0,1.36-3.85A5,5,0,0,0,21.13,154.45Zm-.46.93c-.83.82-1,1.87-1.53,2.71s-.38,1.18.77,1.28l.76,0c.5.06.76-.15.64-.65A18.59,18.59,0,0,0,20.67,155.38Zm-3.82-.95a22.31,22.31,0,0,0,1.56,3.63,11.44,11.44,0,0,0,1.81-3.63A11.89,11.89,0,0,0,16.85,154.43Zm-1.8,4.81a10,10,0,0,0,3.12.1A38.14,38.14,0,0,0,16.35,155c-.17.1-.26.12-.3.19-.66,1-.84,2.17-1.53,3.14C14.2,158.8,14.58,159.13,15.05,159.24Zm8.81,12.83a52.73,52.73,0,0,0-1.17-5.19,47,47,0,0,1-1.58-6.15c-.11-.7-.36-.8-.93-.79H14.67c.81,2.65,2.65,4.61,3.85,6.93a33.12,33.12,0,0,0,4.94,6.58c.18.2.32.54.72.45A4.74,4.74,0,0,0,23.86,172.07Zm2.8-2.56c.54-2,1-4,1.49-6,.23-1,.41-2,.55-3,.1-.69-.06-.86-.76-.76a47.21,47.21,0,0,1-5.45.22c-.73,0-.91.24-.81.93a23.18,23.18,0,0,0,.57,2.6c.52,2.05,1.32,4,1.64,6.12.19,1.28.63,2.51,1,4A15.26,15.26,0,0,0,26.66,169.51Zm7.89-9.58a30.84,30.84,0,0,1-4.19-.15c-.66-.1-1,.21-1.16.88-.27,1.37-.63,2.72-.88,4.09a37.84,37.84,0,0,1-2.43,8.39c-.13.29-.39.58-.14.94a1.27,1.27,0,0,0,.67-.32,25.78,25.78,0,0,0,3.5-3.66,23.8,23.8,0,0,0,3.5-5.27A22.82,22.82,0,0,0,35.31,161C35.59,160,35.54,160,34.55,159.93Zm1.11-.78a15.76,15.76,0,0,0-1.6-3.85,13.56,13.56,0,0,0-.68,3.88A6.73,6.73,0,0,0,35.66,159.15Z"/><path class="cls-3" d="M10.51,199.23c.26.32.78.06,1.19.09a.26.26,0,0,0,.15,0A.21.21,0,0,0,12,199c-.27-.73-.35-1.51-.68-2.24a5.67,5.67,0,0,0-.57,1.39C10.66,198.52,10.24,198.91,10.51,199.23Z"/><path class="cls-3" d="M12.77,199.36c.42-.18.84-.07,1.29-.22-.24-.61-.46-1.19-.69-1.76A3,3,0,0,0,12.77,199.36Z"/><path class="cls-3" d="M16.44,199.18a7.88,7.88,0,0,0-1.06-2.33c-.08,0-.12,0-.12.05-.08.3-.17.6-.23.9C14.72,199.31,14.78,199.38,16.44,199.18Z"/><path class="cls-3" d="M17.1,199.2a4.18,4.18,0,0,0,1.41,0,9.5,9.5,0,0,0-1-2.38A8.79,8.79,0,0,0,17.1,199.2Z"/><path class="cls-3" d="M7.71,199.3a24.34,24.34,0,0,0-1.13-2.67c-.1.06-.16.08-.19.12-.4.6-.51,1.34-.94,1.94-.2.27,0,.48.33.55A6.47,6.47,0,0,0,7.71,199.3Z"/><path class="cls-3" d="M8.78,199.32l.47,0c.31,0,.47-.09.39-.4a11.21,11.21,0,0,0-.39-2.09,7.83,7.83,0,0,0-.95,1.67C7.94,199.1,8.07,199.26,8.78,199.32Z"/><path class="cls-2" d="M12.23,198.71A4.16,4.16,0,0,0,13,196.6c0-.18-.1-.29-.29-.31h-.54c-.34,0-.46.18-.37.52C11.92,197.4,12.06,198,12.23,198.71Z"/><path class="cls-2" d="M16.94,197.58c.24-1.41.23-1.41-1.19-1.35l-.22.09c.56.67.67,1.52,1.16,2.21A1.7,1.7,0,0,0,16.94,197.58Z"/><path class="cls-2" d="M14.45,198.73c.06-.67.38-1.27.42-1.92,0-.15.06-.32,0-.45a1.78,1.78,0,0,0-1,0,.55.55,0,0,0-.19.63A4.71,4.71,0,0,0,14.45,198.73Z"/><path class="cls-2" d="M10.16,198.7a9.14,9.14,0,0,0,.84-2.38,3.15,3.15,0,0,0-1.46,0c.09.44.15.85.27,1.25S9.74,198.35,10.16,198.7Z"/><path class="cls-2" d="M9,196.27a6.91,6.91,0,0,0-2.08,0,14.25,14.25,0,0,0,1,2.24A6.83,6.83,0,0,0,9,196.27Z"/><path d="M18.72,198.49a1.73,1.73,0,0,1,.23.74,4.3,4.3,0,0,1-.55,1.71A30.28,30.28,0,0,1,16.1,205a19.21,19.21,0,0,1-3.12,3.5,4.16,4.16,0,0,1-.71.47c-.53.27-.62.21-1.06-.22a34.83,34.83,0,0,1-2.71-3.23,11.89,11.89,0,0,1-1-1.67c-.5-.85-1-1.72-1.54-2.54a7.28,7.28,0,0,1-.83-1.76,1.57,1.57,0,0,1,.11-1.33c.32-.57.58-1.17.89-1.74a1,1,0,0,1,1-.59c1.75,0,3.5.05,5.25.08,1.49,0,3,0,4.47-.08a.92.92,0,0,1,1.09.71C18.12,197.26,18.46,197.86,18.72,198.49Zm-3.19-2.17c.56.67.67,1.52,1.16,2.21a1.7,1.7,0,0,0,.25-.95c.24-1.41.23-1.41-1.19-1.35ZM15,197.8c-.31,1.51-.25,1.58,1.41,1.38a7.88,7.88,0,0,0-1.06-2.33c-.08,0-.12,0-.12.05C15.18,197.2,15.09,197.5,15,197.8Zm-1.4-.83a4.71,4.71,0,0,0,.82,1.76c.06-.67.38-1.27.42-1.92,0-.15.06-.32,0-.45a1.78,1.78,0,0,0-1,0A.55.55,0,0,0,13.63,197Zm-.26.41a3,3,0,0,0-.6,2c.42-.18.84-.07,1.29-.22C13.82,198.53,13.6,198,13.37,197.38Zm-1.61-.58c.16.6.3,1.21.47,1.91A4.16,4.16,0,0,0,13,196.6c0-.18-.1-.29-.29-.31h-.54C11.79,196.29,11.67,196.46,11.76,196.8Zm-.42,0a5.67,5.67,0,0,0-.57,1.39c-.11.36-.53.75-.26,1.07s.78.06,1.19.09a.26.26,0,0,0,.15,0A.21.21,0,0,0,12,199C11.75,198.28,11.67,197.5,11.34,196.77Zm-1.8-.49c.09.44.15.85.27,1.25s-.07.82.35,1.17a9.14,9.14,0,0,0,.84-2.38A3.15,3.15,0,0,0,9.54,196.28Zm-.29.58a7.83,7.83,0,0,0-.95,1.67c-.36.57-.23.73.48.79l.47,0c.31,0,.47-.09.39-.4A11.21,11.21,0,0,0,9.25,196.86Zm-2.36-.59a14.25,14.25,0,0,0,1,2.24A6.83,6.83,0,0,0,9,196.27,6.91,6.91,0,0,0,6.89,196.27Zm-1.11,3a6.47,6.47,0,0,0,1.93.06,24.34,24.34,0,0,0-1.13-2.67c-.1.06-.16.08-.19.12-.4.6-.51,1.34-.94,1.94C5.25,199,5.49,199.17,5.78,199.24Zm5.44,7.92a32.12,32.12,0,0,0-.72-3.2,28.27,28.27,0,0,1-1-3.8c-.06-.43-.22-.49-.57-.49-1.1,0-2.2,0-3.41,0,.5,1.64,1.64,2.85,2.38,4.28A20.42,20.42,0,0,0,11,208c.11.12.2.33.45.28A3,3,0,0,0,11.22,207.16ZM13,205.58c.33-1.23.63-2.47.92-3.72.14-.61.25-1.23.34-1.85.06-.43,0-.53-.47-.47a29,29,0,0,1-3.36.14c-.45,0-.57.14-.51.57a14.43,14.43,0,0,0,.36,1.61c.32,1.26.81,2.48,1,3.78.12.79.39,1.55.63,2.47A9,9,0,0,0,13,205.58Zm4.88-5.92a17.21,17.21,0,0,1-2.59-.09c-.41-.06-.63.13-.72.54-.17.85-.39,1.68-.54,2.53a24.09,24.09,0,0,1-1.5,5.19c-.08.18-.25.36-.09.58a.79.79,0,0,0,.41-.2A15.47,15.47,0,0,0,15,206a15.31,15.31,0,0,0,2.16-3.25,14.34,14.34,0,0,0,1.16-2.4C18.47,199.73,18.44,199.68,17.83,199.66Zm.68-.48a9.5,9.5,0,0,0-1-2.38,8.79,8.79,0,0,0-.42,2.4A4.18,4.18,0,0,0,18.51,199.18Z"/><path class="cls-2" d="M168,60.7a32.54,32.54,0,0,1-4.19-.15c-.66-.1-1,.21-1.16.88-.27,1.36-.63,2.72-.88,4.09a37.6,37.6,0,0,1-2.43,8.38c-.13.3-.39.59-.14.95a1.27,1.27,0,0,0,.67-.32,26.42,26.42,0,0,0,3.51-3.66,24.11,24.11,0,0,0,3.49-5.27,23.19,23.19,0,0,0,1.89-3.88C169.05,60.8,169,60.72,168,60.7Z"/><path class="cls-2" d="M156.15,67.65a49.11,49.11,0,0,1-1.58-6.15c-.11-.7-.36-.8-.93-.79h-5.51c.81,2.65,2.65,4.61,3.85,6.93a33.12,33.12,0,0,0,4.94,6.58c.18.2.32.53.72.45a4.82,4.82,0,0,0-.32-1.84A50.41,50.41,0,0,0,156.15,67.65Z"/><path class="cls-3" d="M161.61,64.25c.23-1,.41-2,.55-3,.1-.69-.06-.87-.76-.76a49.56,49.56,0,0,1-5.45.22c-.73,0-.91.23-.81.93a25.63,25.63,0,0,0,.57,2.6c.52,2,1.32,4,1.64,6.12a40.67,40.67,0,0,0,1,4,15.54,15.54,0,0,0,1.75-4.09C160.66,68.28,161.14,66.27,161.61,64.25Z"/><path class="cls-3" d="M156.17,60c.43.52,1.26.11,1.92.15a.72.72,0,0,0,.25,0,.34.34,0,0,0,.27-.47c-.43-1.18-.56-2.45-1.1-3.63a10.1,10.1,0,0,0-.93,2.25C156.41,58.84,155.74,59.47,156.17,60Z"/><path class="cls-3" d="M159.83,60.21c.68-.29,1.36-.12,2.08-.36-.38-1-.74-1.92-1.11-2.85A4.81,4.81,0,0,0,159.83,60.21Z"/><path class="cls-3" d="M165.77,59.91c-.55-1.36-.81-2.72-1.72-3.77-.12,0-.19.06-.2.09-.13.48-.27,1-.37,1.45C163,60.13,163.08,60.23,165.77,59.91Z"/><path class="cls-3" d="M166.84,60a7,7,0,0,0,2.28,0,15.76,15.76,0,0,0-1.6-3.85A13.56,13.56,0,0,0,166.84,60Z"/><path class="cls-3" d="M151.63,60.11a35.71,35.71,0,0,0-1.82-4.32c-.16.1-.26.12-.3.18-.66,1-.84,2.17-1.53,3.15-.32.44.06.78.54.89A10,10,0,0,0,151.63,60.11Z"/><path class="cls-3" d="M153.37,60.14l.76,0c.5.06.76-.15.64-.65a18.59,18.59,0,0,0-.64-3.39c-.83.81-1,1.87-1.53,2.71S152.22,60,153.37,60.14Z"/><path class="cls-2" d="M159,59.15a6.81,6.81,0,0,0,1.17-3.42c0-.29-.16-.47-.46-.49a8.61,8.61,0,0,0-.88,0c-.55,0-.74.28-.6.83C158.45,57,158.68,58,159,59.15Z"/><path class="cls-2" d="M166.57,57.33c.39-2.29.38-2.29-1.91-2.2l-.36.16c.9,1.09,1.08,2.46,1.87,3.57A2.69,2.69,0,0,0,166.57,57.33Z"/><path class="cls-2" d="M162.54,59.18c.1-1.08.62-2,.68-3.1,0-.25.1-.51-.08-.73a2.92,2.92,0,0,0-1.61,0,.89.89,0,0,0-.31,1A7.56,7.56,0,0,0,162.54,59.18Z"/><path class="cls-2" d="M155.6,59.14A14.45,14.45,0,0,0,157,55.28a5.15,5.15,0,0,0-2.37-.06c.15.71.25,1.38.44,2S154.93,58.57,155.6,59.14Z"/><path class="cls-2" d="M153.68,55.2a11.53,11.53,0,0,0-3.37,0,23.22,23.22,0,0,0,1.56,3.63A11.44,11.44,0,0,0,153.68,55.2Z"/><path d="M169.46,58.79a2.8,2.8,0,0,1,.36,1.21,7,7,0,0,1-.87,2.76,51.68,51.68,0,0,1-3.73,6.61A31.58,31.58,0,0,1,160.17,75a6.54,6.54,0,0,1-1.15.76c-.86.44-1,.33-1.72-.35a54.75,54.75,0,0,1-4.38-5.24,19.14,19.14,0,0,1-1.67-2.69c-.8-1.39-1.58-2.79-2.5-4.11a11.69,11.69,0,0,1-1.34-2.86,2.54,2.54,0,0,1,.18-2.15c.52-.93.94-1.89,1.44-2.82a1.62,1.62,0,0,1,1.61-1c2.83,0,5.67.08,8.5.14,2.4.05,4.82,0,7.22-.14a1.52,1.52,0,0,1,1.78,1.15C168.49,56.81,169,57.77,169.46,58.79Zm-5.16-3.5c.9,1.09,1.08,2.46,1.87,3.57a2.69,2.69,0,0,0,.4-1.53c.39-2.29.38-2.29-1.91-2.2Zm-.82,2.39c-.5,2.45-.4,2.55,2.29,2.23-.55-1.36-.81-2.72-1.72-3.77-.12,0-.19.06-.2.09C163.72,56.71,163.58,57.19,163.48,57.68Zm-2.26-1.35a7.56,7.56,0,0,0,1.32,2.85c.1-1.08.62-2,.68-3.1,0-.25.1-.51-.08-.73a2.92,2.92,0,0,0-1.61,0A.89.89,0,0,0,161.22,56.33Zm-.42.67a4.81,4.81,0,0,0-1,3.21c.68-.29,1.36-.12,2.08-.36C161.53,58.86,161.17,57.93,160.8,57Zm-2.61-.94c.26,1,.49,1.95.77,3.09a6.81,6.81,0,0,0,1.17-3.42c0-.29-.16-.47-.46-.49a8.61,8.61,0,0,0-.88,0C158.24,55.24,158.05,55.51,158.19,56.06Zm-.68-.05a10.1,10.1,0,0,0-.93,2.25c-.17.58-.84,1.21-.41,1.73s1.26.11,1.92.15a.72.72,0,0,0,.25,0,.34.34,0,0,0,.27-.47C158.18,58.46,158.05,57.19,157.51,56Zm-2.92-.79c.15.71.25,1.38.44,2s-.1,1.33.57,1.9A14.45,14.45,0,0,0,157,55.28,5.15,5.15,0,0,0,154.59,55.22Zm-.46.93c-.83.81-1,1.87-1.53,2.71s-.38,1.18.77,1.28l.76,0c.5.06.76-.15.64-.65A18.59,18.59,0,0,0,154.13,56.15Zm-3.82-.95a23.22,23.22,0,0,0,1.56,3.63,11.44,11.44,0,0,0,1.81-3.63A11.53,11.53,0,0,0,150.31,55.2ZM148.52,60a10,10,0,0,0,3.11.1,35.71,35.71,0,0,0-1.82-4.32c-.16.1-.26.12-.3.18-.66,1-.84,2.17-1.53,3.15C147.66,59.56,148,59.9,148.52,60Zm8.8,12.82a50.41,50.41,0,0,0-1.17-5.18,49.11,49.11,0,0,1-1.58-6.15c-.11-.7-.36-.8-.93-.79h-5.51c.81,2.65,2.65,4.61,3.85,6.93a33.12,33.12,0,0,0,4.94,6.58c.18.2.32.53.72.45A4.82,4.82,0,0,0,157.32,72.83Zm2.8-2.55c.54-2,1-4,1.49-6,.23-1,.41-2,.55-3,.1-.69-.06-.87-.76-.76a49.56,49.56,0,0,1-5.45.22c-.73,0-.91.23-.81.93a25.63,25.63,0,0,0,.57,2.6c.52,2,1.32,4,1.64,6.12a40.67,40.67,0,0,0,1,4A15.54,15.54,0,0,0,160.12,70.28ZM168,60.7a32.54,32.54,0,0,1-4.19-.15c-.66-.1-1,.21-1.16.88-.27,1.36-.63,2.72-.88,4.09a37.6,37.6,0,0,1-2.43,8.38c-.13.3-.39.59-.14.95a1.27,1.27,0,0,0,.67-.32,26.42,26.42,0,0,0,3.51-3.66,24.11,24.11,0,0,0,3.49-5.27,23.19,23.19,0,0,0,1.89-3.88C169.05,60.8,169,60.72,168,60.7Zm1.11-.78a15.76,15.76,0,0,0-1.6-3.85,13.56,13.56,0,0,0-.68,3.88A7,7,0,0,0,169.12,59.92Z"/><path class="cls-2" d="M151.29,100.43a18.64,18.64,0,0,1-2.59-.09c-.41-.06-.63.13-.72.54-.17.85-.39,1.68-.54,2.53a23.29,23.29,0,0,1-1.5,5.18c-.08.18-.24.37-.09.59a.79.79,0,0,0,.41-.2,16.54,16.54,0,0,0,2.17-2.26,14.77,14.77,0,0,0,2.16-3.26,13.88,13.88,0,0,0,1.16-2.39C151.93,100.49,151.9,100.44,151.29,100.43Z"/><path class="cls-2" d="M144,104.73a31.64,31.64,0,0,1-1-3.8c-.06-.43-.22-.49-.57-.49-1.1,0-2.2,0-3.41,0,.5,1.64,1.64,2.85,2.38,4.28a20.42,20.42,0,0,0,3.05,4.07c.11.12.2.33.45.27a2.93,2.93,0,0,0-.2-1.13A31.51,31.51,0,0,0,144,104.73Z"/><path class="cls-3" d="M147.33,102.63c.14-.61.25-1.23.34-1.85.06-.43,0-.53-.47-.47a31.46,31.46,0,0,1-3.36.14c-.45,0-.57.14-.51.57a14.43,14.43,0,0,0,.36,1.61c.32,1.26.81,2.48,1,3.78.12.79.39,1.55.63,2.47a9,9,0,0,0,1.08-2.53C146.75,105.12,147,103.87,147.33,102.63Z"/><path class="cls-3" d="M144,100c.26.32.78.06,1.19.09l.15,0a.21.21,0,0,0,.17-.29c-.27-.73-.35-1.51-.68-2.25a5.83,5.83,0,0,0-.57,1.39C144.12,99.29,143.7,99.68,144,100Z"/><path class="cls-3" d="M146.23,100.13c.42-.18.85-.07,1.29-.22-.24-.61-.46-1.19-.69-1.76A3,3,0,0,0,146.23,100.13Z"/><path class="cls-3" d="M149.9,99.94a7.94,7.94,0,0,0-1.06-2.32c-.08,0-.12,0-.12,0-.08.3-.17.6-.23.9C148.18,100.08,148.24,100.15,149.9,99.94Z"/><path class="cls-3" d="M150.56,100a4.24,4.24,0,0,0,1.42,0,9.77,9.77,0,0,0-1-2.38A8.73,8.73,0,0,0,150.56,100Z"/><path class="cls-3" d="M141.17,100.07A24.34,24.34,0,0,0,140,97.4a1.65,1.65,0,0,0-.19.11c-.4.6-.51,1.35-.94,1.95-.2.27,0,.48.33.55A6.47,6.47,0,0,0,141.17,100.07Z"/><path class="cls-3" d="M142.24,100.09c.16,0,.32,0,.47,0,.31,0,.47-.09.4-.4a11.52,11.52,0,0,0-.4-2.1,8.14,8.14,0,0,0-1,1.68C141.4,99.86,141.53,100,142.24,100.09Z"/><path class="cls-2" d="M145.69,99.47a4.13,4.13,0,0,0,.73-2.11c0-.18-.1-.29-.28-.3h-.55c-.34,0-.46.18-.37.51C145.38,98.17,145.52,98.77,145.69,99.47Z"/><path class="cls-2" d="M150.4,98.35c.24-1.41.23-1.41-1.18-1.35a1.45,1.45,0,0,0-.23.09c.56.67.67,1.52,1.16,2.21A1.7,1.7,0,0,0,150.4,98.35Z"/><path class="cls-2" d="M147.91,99.5c.06-.67.38-1.27.42-1.92,0-.16.06-.32-.05-.45a1.78,1.78,0,0,0-1,0,.57.57,0,0,0-.19.64A4.79,4.79,0,0,0,147.91,99.5Z"/><path class="cls-2" d="M143.62,99.47a9.27,9.27,0,0,0,.84-2.38,3,3,0,0,0-1.46,0c.09.44.15.85.27,1.24S143.2,99.12,143.62,99.47Z"/><path class="cls-2" d="M142.43,97a6.91,6.91,0,0,0-2.08,0,13.42,13.42,0,0,0,1,2.24A7.11,7.11,0,0,0,142.43,97Z"/><path d="M152.19,99.25a2,2,0,0,1,.22.75,4.35,4.35,0,0,1-.54,1.7,29.85,29.85,0,0,1-2.31,4.09,19.21,19.21,0,0,1-3.12,3.5,4.16,4.16,0,0,1-.71.47c-.53.27-.61.2-1.06-.22A33.69,33.69,0,0,1,142,106.3a12.15,12.15,0,0,1-1-1.66c-.49-.86-1-1.72-1.54-2.54a7.28,7.28,0,0,1-.83-1.76,1.57,1.57,0,0,1,.11-1.33c.32-.58.58-1.17.89-1.75a1,1,0,0,1,1-.58c1.76,0,3.5,0,5.26.08,1.48,0,3,0,4.46-.08a.92.92,0,0,1,1.09.71C151.58,98,151.92,98.63,152.19,99.25ZM149,97.09c.56.67.67,1.52,1.16,2.21a1.7,1.7,0,0,0,.25-1c.24-1.41.23-1.41-1.18-1.35A1.45,1.45,0,0,0,149,97.09Zm-.5,1.48c-.31,1.51-.25,1.58,1.41,1.37a7.94,7.94,0,0,0-1.06-2.32c-.08,0-.12,0-.12,0C148.64,98,148.55,98.27,148.49,98.57Zm-1.4-.83a4.79,4.79,0,0,0,.82,1.76c.06-.67.38-1.27.42-1.92,0-.16.06-.32-.05-.45a1.78,1.78,0,0,0-1,0A.57.57,0,0,0,147.09,97.74Zm-.26.41a3,3,0,0,0-.6,2c.42-.18.85-.07,1.29-.22C147.28,99.3,147.06,98.72,146.83,98.15Zm-1.61-.59c.16.61.3,1.21.47,1.91a4.13,4.13,0,0,0,.73-2.11c0-.18-.1-.29-.28-.3h-.55C145.25,97.06,145.13,97.23,145.22,97.56Zm-.42,0a5.83,5.83,0,0,0-.57,1.39c-.11.37-.53.76-.26,1.08s.78.06,1.19.09l.15,0a.21.21,0,0,0,.17-.29C145.21,99.05,145.13,98.27,144.8,97.53Zm-1.8-.48c.09.44.15.85.27,1.24s-.07.83.35,1.18a9.27,9.27,0,0,0,.84-2.38A3,3,0,0,0,143,97.05Zm-.29.57a8.14,8.14,0,0,0-1,1.68c-.36.56-.23.73.48.79.16,0,.32,0,.47,0,.31,0,.47-.09.4-.4A11.52,11.52,0,0,0,142.71,97.62ZM140.35,97a13.42,13.42,0,0,0,1,2.24A7.11,7.11,0,0,0,142.43,97,6.91,6.91,0,0,0,140.35,97Zm-1.11,3a6.47,6.47,0,0,0,1.93.06A24.34,24.34,0,0,0,140,97.4a1.65,1.65,0,0,0-.19.11c-.4.6-.51,1.35-.94,1.95C138.71,99.73,139,99.94,139.24,100Zm5.44,7.92a31.51,31.51,0,0,0-.72-3.2,31.64,31.64,0,0,1-1-3.8c-.06-.43-.22-.49-.57-.49-1.1,0-2.2,0-3.41,0,.5,1.64,1.64,2.85,2.38,4.28a20.42,20.42,0,0,0,3.05,4.07c.11.12.2.33.45.27A2.93,2.93,0,0,0,144.68,107.93Zm1.73-1.58c.34-1.23.63-2.48.92-3.72.14-.61.25-1.23.34-1.85.06-.43,0-.53-.47-.47a31.46,31.46,0,0,1-3.36.14c-.45,0-.57.14-.51.57a14.43,14.43,0,0,0,.36,1.61c.32,1.26.81,2.48,1,3.78.12.79.39,1.55.63,2.47A9,9,0,0,0,146.41,106.35Zm4.88-5.92a18.64,18.64,0,0,1-2.59-.09c-.41-.06-.63.13-.72.54-.17.85-.39,1.68-.54,2.53a23.29,23.29,0,0,1-1.5,5.18c-.08.18-.24.37-.09.59a.79.79,0,0,0,.41-.2,16.54,16.54,0,0,0,2.17-2.26,14.77,14.77,0,0,0,2.16-3.26,13.88,13.88,0,0,0,1.16-2.39C151.93,100.49,151.9,100.44,151.29,100.43ZM152,100a9.77,9.77,0,0,0-1-2.38,8.73,8.73,0,0,0-.42,2.4A4.24,4.24,0,0,0,152,100Z"/><path class="cls-2" d="M173.39,135.06A19,19,0,0,1,171,135c-.38-.06-.59.12-.66.5-.16.79-.37,1.56-.51,2.35a21.79,21.79,0,0,1-1.39,4.8c-.07.16-.22.33-.08.54a.72.72,0,0,0,.38-.19,15.28,15.28,0,0,0,2-2.09,13.77,13.77,0,0,0,2-3,13.4,13.4,0,0,0,1.08-2.22C174,135.11,174,135.07,173.39,135.06Z"/><path class="cls-2" d="M166.61,139a27,27,0,0,1-.91-3.51c-.06-.4-.21-.46-.53-.46H162c.46,1.52,1.51,2.64,2.2,4a18.78,18.78,0,0,0,2.83,3.77c.1.11.18.3.41.25a2.7,2.7,0,0,0-.18-1.05A30.33,30.33,0,0,0,166.61,139Z"/><path class="cls-3" d="M169.73,137.09c.13-.56.24-1.14.32-1.71,0-.4,0-.5-.44-.44a27,27,0,0,1-3.12.13c-.41,0-.52.13-.46.53a15.19,15.19,0,0,0,.32,1.49,35.42,35.42,0,0,1,.94,3.5c.11.73.36,1.44.58,2.29a8.63,8.63,0,0,0,1-2.34C169.19,139.4,169.46,138.24,169.73,137.09Z"/><path class="cls-3" d="M166.62,134.65c.24.3.72.06,1.1.09l.14,0a.19.19,0,0,0,.15-.27c-.24-.67-.32-1.4-.63-2.08a6.16,6.16,0,0,0-.53,1.29C166.76,134,166.37,134.36,166.62,134.65Z"/><path class="cls-3" d="M168.71,134.77c.39-.16.78-.06,1.2-.2l-.64-1.63A2.75,2.75,0,0,0,168.71,134.77Z"/><path class="cls-3" d="M172.11,134.6a7.16,7.16,0,0,0-1-2.15c-.07,0-.11,0-.11.05-.08.27-.16.55-.22.83C170.52,134.73,170.57,134.79,172.11,134.6Z"/><path class="cls-3" d="M172.73,134.63a4.07,4.07,0,0,0,1.3,0,8.85,8.85,0,0,0-.91-2.2A7.42,7.42,0,0,0,172.73,134.63Z"/><path class="cls-3" d="M164,134.72a21.73,21.73,0,0,0-1-2.48,1.27,1.27,0,0,0-.18.11c-.37.56-.48,1.24-.87,1.8-.18.26,0,.45.31.51A5.79,5.79,0,0,0,164,134.72Z"/><path class="cls-3" d="M165,134.73l.43,0c.29,0,.44-.09.37-.38a10.46,10.46,0,0,0-.37-1.94,7.37,7.37,0,0,0-.88,1.55C164.23,134.53,164.36,134.68,165,134.73Z"/><path class="cls-2" d="M168.21,134.17a3.84,3.84,0,0,0,.67-2c0-.16-.09-.27-.26-.28h-.5c-.32,0-.43.17-.34.48C167.93,133,168.05,133.52,168.21,134.17Z"/><path class="cls-2" d="M172.57,133.13c.22-1.31.22-1.31-1.09-1.26,0,0,0,0-.21.09.52.62.62,1.41,1.07,2A1.48,1.48,0,0,0,172.57,133.13Z"/><path class="cls-2" d="M170.26,134.19c.06-.62.36-1.17.39-1.78,0-.14.06-.29,0-.41a1.68,1.68,0,0,0-.92,0,.51.51,0,0,0-.18.59A4.47,4.47,0,0,0,170.26,134.19Z"/><path class="cls-2" d="M166.29,134.16a8.27,8.27,0,0,0,.78-2.2,2.82,2.82,0,0,0-1.35,0,11.56,11.56,0,0,0,.25,1.15C166.07,133.41,165.91,133.84,166.29,134.16Z"/><path class="cls-2" d="M165.19,131.91a6.57,6.57,0,0,0-1.93,0,13.61,13.61,0,0,0,.9,2.08A6.63,6.63,0,0,0,165.19,131.91Z"/><path d="M174.23,134a1.67,1.67,0,0,1,.2.69,3.76,3.76,0,0,1-.5,1.58A28.12,28.12,0,0,1,171.8,140a18.21,18.21,0,0,1-2.89,3.24,4.73,4.73,0,0,1-.66.44c-.5.25-.57.19-1-.2a32.42,32.42,0,0,1-2.51-3,10.79,10.79,0,0,1-1-1.55c-.46-.79-.9-1.59-1.43-2.35a7.17,7.17,0,0,1-.77-1.63,1.48,1.48,0,0,1,.11-1.24c.29-.53.54-1.08.82-1.61a.93.93,0,0,1,.92-.54c1.62,0,3.25,0,4.87.08,1.37,0,2.76,0,4.13-.08a.86.86,0,0,1,1,.66C173.67,132.83,174,133.38,174.23,134Zm-3-2c.52.62.62,1.41,1.07,2a1.48,1.48,0,0,0,.23-.88c.22-1.31.22-1.31-1.09-1.26C171.45,131.87,171.43,131.89,171.27,132Zm-.47,1.37c-.28,1.4-.23,1.46,1.31,1.27a7.16,7.16,0,0,0-1-2.15c-.07,0-.11,0-.11.05C170.94,132.77,170.86,133.05,170.8,133.33Zm-1.29-.77a4.47,4.47,0,0,0,.75,1.63c.06-.62.36-1.17.39-1.78,0-.14.06-.29,0-.41a1.68,1.68,0,0,0-.92,0A.51.51,0,0,0,169.51,132.56Zm-.24.38a2.75,2.75,0,0,0-.56,1.83c.39-.16.78-.06,1.2-.2Zm-1.49-.54c.15.56.27,1.12.43,1.77a3.84,3.84,0,0,0,.67-2c0-.16-.09-.27-.26-.28h-.5C167.8,131.93,167.69,132.09,167.78,132.4Zm-.4,0a6.16,6.16,0,0,0-.53,1.29c-.09.33-.48.7-.23,1s.72.06,1.1.09l.14,0a.19.19,0,0,0,.15-.27C167.77,133.78,167.69,133.05,167.38,132.37Zm-1.66-.45a11.56,11.56,0,0,0,.25,1.15c.1.34-.06.77.32,1.09a8.27,8.27,0,0,0,.78-2.2A2.82,2.82,0,0,0,165.72,131.92Zm-.27.53a7.37,7.37,0,0,0-.88,1.55c-.34.53-.21.68.45.73l.43,0c.29,0,.44-.09.37-.38A10.46,10.46,0,0,0,165.45,132.45Zm-2.19-.54a13.61,13.61,0,0,0,.9,2.08,6.63,6.63,0,0,0,1-2.08A6.57,6.57,0,0,0,163.26,131.91Zm-1,2.75a5.79,5.79,0,0,0,1.78.06,21.73,21.73,0,0,0-1-2.48,1.27,1.27,0,0,0-.18.11c-.37.56-.48,1.24-.87,1.8C161.75,134.41,162,134.6,162.24,134.66Zm5,7.34a30.33,30.33,0,0,0-.67-3,27,27,0,0,1-.91-3.51c-.06-.4-.21-.46-.53-.46H162c.46,1.52,1.51,2.64,2.2,4a18.78,18.78,0,0,0,2.83,3.77c.1.11.18.3.41.25A2.7,2.7,0,0,0,167.28,142Zm1.6-1.46c.31-1.14.58-2.3.85-3.45.13-.56.24-1.14.32-1.71,0-.4,0-.5-.44-.44a27,27,0,0,1-3.12.13c-.41,0-.52.13-.46.53a15.19,15.19,0,0,0,.32,1.49,35.42,35.42,0,0,1,.94,3.5c.11.73.36,1.44.58,2.29A8.63,8.63,0,0,0,168.88,140.54Zm4.51-5.48A19,19,0,0,1,171,135c-.38-.06-.59.12-.66.5-.16.79-.37,1.56-.51,2.35a21.79,21.79,0,0,1-1.39,4.8c-.07.16-.22.33-.08.54a.72.72,0,0,0,.38-.19,15.28,15.28,0,0,0,2-2.09,13.77,13.77,0,0,0,2-3,13.4,13.4,0,0,0,1.08-2.22C174,135.11,174,135.07,173.39,135.06Zm.64-.45a8.85,8.85,0,0,0-.91-2.2,7.42,7.42,0,0,0-.39,2.22A4.07,4.07,0,0,0,174,134.61Z"/><path class="cls-2" d="M79,60.7a32.67,32.67,0,0,1-4.19-.15c-.65-.1-1,.21-1.15.88-.28,1.36-.63,2.72-.88,4.09a37.6,37.6,0,0,1-2.43,8.38c-.13.3-.39.59-.15.95a1.2,1.2,0,0,0,.67-.32,25.85,25.85,0,0,0,3.51-3.66,23.8,23.8,0,0,0,3.5-5.27,23.14,23.14,0,0,0,1.88-3.88C80.08,60.8,80,60.72,79,60.7Z"/><path class="cls-2" d="M67.18,67.65A45.87,45.87,0,0,1,65.6,61.5c-.11-.7-.37-.8-.94-.79h-5.5c.8,2.65,2.64,4.61,3.84,6.93a33.56,33.56,0,0,0,5,6.58c.17.2.31.53.72.45a4.65,4.65,0,0,0-.33-1.84A50.38,50.38,0,0,0,67.18,67.65Z"/><path class="cls-3" d="M72.63,64.25c.23-1,.41-2,.55-3,.1-.69-.05-.87-.75-.76a49.76,49.76,0,0,1-5.45.22c-.73,0-.92.23-.82.93a25.63,25.63,0,0,0,.57,2.6,58.72,58.72,0,0,1,1.64,6.12c.2,1.27.63,2.51,1,4a14.9,14.9,0,0,0,1.75-4.09C71.69,68.28,72.16,66.27,72.63,64.25Z"/><path class="cls-3" d="M67.19,60c.43.52,1.27.11,1.92.15a.69.69,0,0,0,.25,0,.34.34,0,0,0,.27-.47c-.42-1.18-.55-2.45-1.09-3.63a9.24,9.24,0,0,0-.93,2.25C67.44,58.84,66.76,59.47,67.19,60Z"/><path class="cls-3" d="M70.85,60.21c.69-.29,1.37-.12,2.09-.36-.38-1-.75-1.92-1.11-2.85A4.81,4.81,0,0,0,70.85,60.21Z"/><path class="cls-3" d="M76.79,59.91a12.61,12.61,0,0,0-1.71-3.77c-.13,0-.2.06-.2.09-.13.48-.27,1-.37,1.45C74,60.13,74.11,60.23,76.79,59.91Z"/><path class="cls-3" d="M77.87,60a7,7,0,0,0,2.28,0,15.76,15.76,0,0,0-1.6-3.85A13.56,13.56,0,0,0,77.87,60Z"/><path class="cls-3" d="M62.66,60.11a37.39,37.39,0,0,0-1.82-4.32c-.17.1-.26.12-.31.18-.66,1-.83,2.17-1.53,3.15-.31.44.06.78.54.89A10,10,0,0,0,62.66,60.11Z"/><path class="cls-3" d="M64.4,60.14l.76,0c.5.06.76-.15.63-.65a17,17,0,0,0-.64-3.39c-.82.81-1,1.87-1.53,2.71S63.25,60,64.4,60.14Z"/><path class="cls-2" d="M70,59.15a6.72,6.72,0,0,0,1.17-3.42c0-.29-.15-.47-.45-.49a8.81,8.81,0,0,0-.89,0c-.55,0-.74.28-.59.83C69.48,57,69.71,58,70,59.15Z"/><path class="cls-2" d="M77.6,57.33C78,55,78,55,75.68,55.13l-.35.16c.89,1.09,1.07,2.46,1.87,3.57A2.77,2.77,0,0,0,77.6,57.33Z"/><path class="cls-2" d="M73.57,59.18c.09-1.08.62-2,.67-3.1,0-.25.11-.51-.08-.73a2.88,2.88,0,0,0-1.6,0,.88.88,0,0,0-.31,1A7.56,7.56,0,0,0,73.57,59.18Z"/><path class="cls-2" d="M66.63,59.14A14.08,14.08,0,0,0,68,55.28a5.11,5.11,0,0,0-2.36-.06c.15.71.24,1.38.44,2S66,58.57,66.63,59.14Z"/><path class="cls-2" d="M64.71,55.2a11.53,11.53,0,0,0-3.37,0,22.31,22.31,0,0,0,1.56,3.63A11.44,11.44,0,0,0,64.71,55.2Z"/><path d="M80.49,58.79A2.94,2.94,0,0,1,80.85,60,7,7,0,0,1,80,62.76a50.43,50.43,0,0,1-3.72,6.61A31.64,31.64,0,0,1,71.19,75a5.88,5.88,0,0,1-1.15.76c-.86.44-1,.33-1.71-.35A53.32,53.32,0,0,1,64,70.2a19.14,19.14,0,0,1-1.67-2.69c-.81-1.39-1.58-2.79-2.5-4.11a11.69,11.69,0,0,1-1.34-2.86,2.54,2.54,0,0,1,.18-2.15c.51-.93.94-1.89,1.44-2.82a1.62,1.62,0,0,1,1.61-1c2.83,0,5.66.08,8.49.14,2.41.05,4.82,0,7.23-.14a1.5,1.5,0,0,1,1.77,1.15C79.52,56.81,80.07,57.77,80.49,58.79Zm-5.16-3.5c.89,1.09,1.07,2.46,1.87,3.57a2.77,2.77,0,0,0,.4-1.53C78,55,78,55,75.68,55.13Zm-.82,2.39c-.51,2.45-.4,2.55,2.28,2.23a12.61,12.61,0,0,0-1.71-3.77c-.13,0-.2.06-.2.09C74.75,56.71,74.61,57.19,74.51,57.68Zm-2.26-1.35a7.56,7.56,0,0,0,1.32,2.85c.09-1.08.62-2,.67-3.1,0-.25.11-.51-.08-.73a2.88,2.88,0,0,0-1.6,0A.88.88,0,0,0,72.25,56.33Zm-.42.67a4.81,4.81,0,0,0-1,3.21c.69-.29,1.37-.12,2.09-.36C72.56,58.86,72.19,57.93,71.83,57Zm-2.61-.94c.26,1,.49,1.95.76,3.09a6.72,6.72,0,0,0,1.17-3.42c0-.29-.15-.47-.45-.49a8.81,8.81,0,0,0-.89,0C69.26,55.24,69.07,55.51,69.22,56.06ZM68.54,56a9.24,9.24,0,0,0-.93,2.25c-.17.58-.85,1.21-.42,1.73s1.27.11,1.92.15a.69.69,0,0,0,.25,0,.34.34,0,0,0,.27-.47C69.21,58.46,69.08,57.19,68.54,56Zm-2.92-.79c.15.71.24,1.38.44,2s-.1,1.33.57,1.9A14.08,14.08,0,0,0,68,55.28,5.11,5.11,0,0,0,65.62,55.22Zm-.47.93c-.82.81-1,1.87-1.53,2.71s-.37,1.18.78,1.28l.76,0c.5.06.76-.15.63-.65A17,17,0,0,0,65.15,56.15Zm-3.81-.95a22.31,22.31,0,0,0,1.56,3.63,11.44,11.44,0,0,0,1.81-3.63A11.53,11.53,0,0,0,61.34,55.2ZM59.54,60a10,10,0,0,0,3.12.1,37.39,37.39,0,0,0-1.82-4.32c-.17.1-.26.12-.31.18-.66,1-.83,2.17-1.53,3.15C58.69,59.56,59.06,59.9,59.54,60Zm8.8,12.82a50.38,50.38,0,0,0-1.16-5.18A45.87,45.87,0,0,1,65.6,61.5c-.11-.7-.37-.8-.94-.79h-5.5c.8,2.65,2.64,4.61,3.84,6.93a33.56,33.56,0,0,0,5,6.58c.17.2.31.53.72.45A4.65,4.65,0,0,0,68.34,72.83Zm2.8-2.55c.55-2,1-4,1.49-6,.23-1,.41-2,.55-3,.1-.69-.05-.87-.75-.76a49.76,49.76,0,0,1-5.45.22c-.73,0-.92.23-.82.93a25.63,25.63,0,0,0,.57,2.6,58.72,58.72,0,0,1,1.64,6.12c.2,1.27.63,2.51,1,4A14.9,14.9,0,0,0,71.14,70.28ZM79,60.7a32.67,32.67,0,0,1-4.19-.15c-.65-.1-1,.21-1.15.88-.28,1.36-.63,2.72-.88,4.09a37.6,37.6,0,0,1-2.43,8.38c-.13.3-.39.59-.15.95a1.2,1.2,0,0,0,.67-.32,25.85,25.85,0,0,0,3.51-3.66,23.8,23.8,0,0,0,3.5-5.27,23.14,23.14,0,0,0,1.88-3.88C80.08,60.8,80,60.72,79,60.7Zm1.12-.78a15.76,15.76,0,0,0-1.6-3.85A13.56,13.56,0,0,0,77.87,60,7,7,0,0,0,80.15,59.92Z"/><path class="cls-2" d="M126.78,111.31a28.05,28.05,0,0,1-3.89-.14c-.6-.09-.94.2-1.07.82-.25,1.26-.58,2.52-.81,3.79a35,35,0,0,1-2.26,7.77c-.11.27-.36.55-.13.88a1.13,1.13,0,0,0,.62-.3,24.23,24.23,0,0,0,3.25-3.39,22.07,22.07,0,0,0,3.25-4.88,22.54,22.54,0,0,0,1.74-3.6C127.74,111.4,127.7,111.33,126.78,111.31Z"/><path class="cls-2" d="M115.79,117.75a44.83,44.83,0,0,1-1.47-5.69c-.1-.65-.34-.74-.86-.74-1.65,0-3.29,0-5.11,0,.75,2.46,2.46,4.28,3.57,6.42a30.49,30.49,0,0,0,4.58,6.11c.16.18.3.49.67.41a4.3,4.3,0,0,0-.3-1.7A49.16,49.16,0,0,0,115.79,117.75Z"/><path class="cls-3" d="M120.84,114.61c.22-.92.38-1.85.52-2.78.09-.64-.06-.8-.71-.7a47.27,47.27,0,0,1-5.05.21c-.67,0-.84.21-.75.86a22.56,22.56,0,0,0,.53,2.41c.48,1.89,1.22,3.71,1.52,5.67a36.76,36.76,0,0,0,.94,3.71,13.86,13.86,0,0,0,1.62-3.8C120,118.34,120.41,116.47,120.84,114.61Z"/><path class="cls-3" d="M115.8,110.66c.4.48,1.17.09,1.78.14a.85.85,0,0,0,.23,0,.31.31,0,0,0,.25-.44c-.39-1.09-.51-2.27-1-3.37a9.05,9.05,0,0,0-.86,2.09C116,109.59,115.4,110.18,115.8,110.66Z"/><path class="cls-3" d="M119.19,110.86c.64-.27,1.27-.11,1.94-.34-.36-.91-.69-1.77-1-2.64A4.52,4.52,0,0,0,119.19,110.86Z"/><path class="cls-3" d="M124.7,110.58a11.85,11.85,0,0,0-1.59-3.49c-.12,0-.18.06-.19.08-.11.45-.24.89-.34,1.35C122.11,110.78,122.21,110.88,124.7,110.58Z"/><path class="cls-3" d="M125.69,110.62a6.31,6.31,0,0,0,2.12,0,14.3,14.3,0,0,0-1.49-3.57A13.32,13.32,0,0,0,125.69,110.62Z"/><path class="cls-3" d="M111.6,110.77a35.27,35.27,0,0,0-1.69-4,1.46,1.46,0,0,0-.28.17c-.61.9-.78,2-1.42,2.92-.29.41.06.72.5.82A9.17,9.17,0,0,0,111.6,110.77Z"/><path class="cls-3" d="M113.21,110.79l.71,0c.46,0,.7-.14.59-.6a16.61,16.61,0,0,0-.6-3.14,12,12,0,0,0-1.42,2.51C111.94,110.46,112.14,110.7,113.21,110.79Z"/><path class="cls-2" d="M118.39,109.87a6.18,6.18,0,0,0,1.08-3.16c0-.27-.14-.44-.42-.45a7.48,7.48,0,0,0-.82,0c-.51,0-.69.26-.55.77C117.92,107.91,118.13,108.82,118.39,109.87Z"/><path class="cls-2" d="M125.45,108.19c.35-2.12.35-2.12-1.78-2a2.06,2.06,0,0,0-.33.14c.83,1,1,2.28,1.74,3.31A2.63,2.63,0,0,0,125.45,108.19Z"/><path class="cls-2" d="M121.71,109.91c.09-1,.57-1.9.63-2.88,0-.23.09-.47-.08-.67a2.59,2.59,0,0,0-1.49,0,.82.82,0,0,0-.28,1A6.9,6.9,0,0,0,121.71,109.91Z"/><path class="cls-2" d="M115.28,109.86a12.66,12.66,0,0,0,1.25-3.57,4.65,4.65,0,0,0-2.19-.05c.14.65.23,1.27.41,1.86S114.65,109.34,115.28,109.86Z"/><path class="cls-2" d="M113.5,106.22a10.53,10.53,0,0,0-3.12,0,20.73,20.73,0,0,0,1.44,3.36A10.81,10.81,0,0,0,113.5,106.22Z"/><path d="M128.13,109.54a2.91,2.91,0,0,1,.33,1.12,6.68,6.68,0,0,1-.81,2.56,47.29,47.29,0,0,1-3.46,6.13,28.78,28.78,0,0,1-4.68,5.24,5.85,5.85,0,0,1-1.07.71c-.8.41-.92.31-1.59-.32a52.25,52.25,0,0,1-4.06-4.86,19.33,19.33,0,0,1-1.55-2.5c-.74-1.28-1.46-2.58-2.31-3.81a10.46,10.46,0,0,1-1.24-2.64,2.35,2.35,0,0,1,.17-2c.47-.86.87-1.75,1.33-2.61a1.49,1.49,0,0,1,1.49-.88c2.63,0,5.25.07,7.88.13,2.23,0,4.46,0,6.69-.13a1.41,1.41,0,0,1,1.65,1.07C127.22,107.71,127.73,108.6,128.13,109.54Zm-4.79-3.24c.83,1,1,2.28,1.74,3.31a2.63,2.63,0,0,0,.37-1.42c.35-2.12.35-2.12-1.78-2A2.06,2.06,0,0,0,123.34,106.3Zm-.76,2.22c-.47,2.26-.37,2.36,2.12,2.06a11.85,11.85,0,0,0-1.59-3.49c-.12,0-.18.06-.19.08C122.81,107.62,122.68,108.06,122.58,108.52Zm-2.09-1.25a6.9,6.9,0,0,0,1.22,2.64c.09-1,.57-1.9.63-2.88,0-.23.09-.47-.08-.67a2.59,2.59,0,0,0-1.49,0A.82.82,0,0,0,120.49,107.27Zm-.39.61a4.52,4.52,0,0,0-.91,3c.64-.27,1.27-.11,1.94-.34C120.77,109.61,120.44,108.75,120.1,107.88Zm-2.42-.87c.24.9.45,1.81.71,2.86a6.18,6.18,0,0,0,1.08-3.16c0-.27-.14-.44-.42-.45a7.48,7.48,0,0,0-.82,0C117.72,106.26,117.54,106.5,117.68,107Zm-.63-.05a9.05,9.05,0,0,0-.86,2.09c-.16.54-.79,1.13-.39,1.61s1.17.09,1.78.14a.85.85,0,0,0,.23,0,.31.31,0,0,0,.25-.44C117.67,109.24,117.55,108.06,117.05,107Zm-2.71-.72c.14.65.23,1.27.41,1.86s-.1,1.24.53,1.76a12.66,12.66,0,0,0,1.25-3.57A4.65,4.65,0,0,0,114.34,106.24Zm-.43.86a12,12,0,0,0-1.42,2.51c-.55.85-.35,1.09.72,1.18l.71,0c.46,0,.7-.14.59-.6A16.61,16.61,0,0,0,113.91,107.1Zm-3.53-.88a20.73,20.73,0,0,0,1.44,3.36,10.81,10.81,0,0,0,1.68-3.36A10.53,10.53,0,0,0,110.38,106.22Zm-1.67,4.45a9.17,9.17,0,0,0,2.89.1,35.27,35.27,0,0,0-1.69-4,1.46,1.46,0,0,0-.28.17c-.61.9-.78,2-1.42,2.92C107.92,110.26,108.27,110.57,108.71,110.67Zm8.16,11.89a49.16,49.16,0,0,0-1.08-4.81,44.83,44.83,0,0,1-1.47-5.69c-.1-.65-.34-.74-.86-.74-1.65,0-3.29,0-5.11,0,.75,2.46,2.46,4.28,3.57,6.42a30.49,30.49,0,0,0,4.58,6.11c.16.18.3.49.67.41A4.3,4.3,0,0,0,116.87,122.56Zm2.59-2.37c.51-1.85,1-3.72,1.38-5.58.22-.92.38-1.85.52-2.78.09-.64-.06-.8-.71-.7a47.27,47.27,0,0,1-5.05.21c-.67,0-.84.21-.75.86a22.56,22.56,0,0,0,.53,2.41c.48,1.89,1.22,3.71,1.52,5.67a36.76,36.76,0,0,0,.94,3.71A13.86,13.86,0,0,0,119.46,120.19Zm7.32-8.88a28.05,28.05,0,0,1-3.89-.14c-.6-.09-.94.2-1.07.82-.25,1.26-.58,2.52-.81,3.79a35,35,0,0,1-2.26,7.77c-.11.27-.36.55-.13.88a1.13,1.13,0,0,0,.62-.3,24.23,24.23,0,0,0,3.25-3.39,22.07,22.07,0,0,0,3.25-4.88,22.54,22.54,0,0,0,1.74-3.6C127.74,111.4,127.7,111.33,126.78,111.31Zm1-.72a14.3,14.3,0,0,0-1.49-3.57,13.32,13.32,0,0,0-.63,3.6A6.31,6.31,0,0,0,127.81,110.59Z"/><path class="cls-2" d="M62.31,100.43a18.69,18.69,0,0,1-2.59-.09.57.57,0,0,0-.71.54c-.17.85-.39,1.68-.55,2.53a22.77,22.77,0,0,1-1.5,5.18c-.07.18-.24.37-.09.59a.82.82,0,0,0,.42-.2,17.17,17.17,0,0,0,2.17-2.26,15.13,15.13,0,0,0,2.16-3.26,13.88,13.88,0,0,0,1.16-2.39C63,100.49,62.93,100.44,62.31,100.43Z"/><path class="cls-2" d="M55,104.73a28.27,28.27,0,0,1-1-3.8c-.07-.43-.23-.49-.58-.49-1.09,0-2.19,0-3.4,0,.5,1.64,1.64,2.85,2.38,4.28a20.42,20.42,0,0,0,3.05,4.07c.11.12.2.33.45.27a2.93,2.93,0,0,0-.2-1.13C55.5,106.86,55.3,105.77,55,104.73Z"/><path class="cls-3" d="M58.36,102.63c.14-.61.25-1.23.34-1.85.06-.43,0-.53-.47-.47a31.65,31.65,0,0,1-3.37.14c-.45,0-.56.14-.5.57s.22,1.08.35,1.61c.32,1.26.82,2.48,1,3.78a22.86,22.86,0,0,0,.62,2.47,9.39,9.39,0,0,0,1.09-2.53C57.77,105.12,58.07,103.87,58.36,102.63Z"/><path class="cls-3" d="M55,100c.26.32.78.06,1.18.09l.16,0a.21.21,0,0,0,.16-.29c-.26-.73-.34-1.51-.67-2.25a6.32,6.32,0,0,0-.58,1.39C55.15,99.29,54.73,99.68,55,100Z"/><path class="cls-3" d="M57.26,100.13c.42-.18.84-.07,1.29-.22l-.69-1.76A3,3,0,0,0,57.26,100.13Z"/><path class="cls-3" d="M60.93,99.94a7.94,7.94,0,0,0-1.06-2.32l-.13,0c-.08.3-.16.6-.22.9C59.2,100.08,59.27,100.15,60.93,99.94Z"/><path class="cls-3" d="M61.59,100A4.19,4.19,0,0,0,63,100a9.35,9.35,0,0,0-1-2.38A8.37,8.37,0,0,0,61.59,100Z"/><path class="cls-3" d="M52.19,100.07a22.54,22.54,0,0,0-1.12-2.67,1.65,1.65,0,0,0-.19.11c-.41.6-.52,1.35-.94,1.95-.2.27,0,.48.33.55A6.39,6.39,0,0,0,52.19,100.07Z"/><path class="cls-3" d="M53.27,100.09l.47,0c.31,0,.47-.09.39-.4a10.72,10.72,0,0,0-.4-2.1,7.65,7.65,0,0,0-.94,1.68C52.42,99.86,52.56,100,53.27,100.09Z"/><path class="cls-2" d="M56.72,99.47a4.11,4.11,0,0,0,.72-2.11c0-.18-.09-.29-.28-.3h-.55c-.34,0-.45.18-.36.51C56.41,98.17,56.55,98.77,56.72,99.47Z"/><path class="cls-2" d="M61.43,98.35c.23-1.41.23-1.41-1.19-1.35l-.22.09c.56.67.67,1.52,1.16,2.21A1.7,1.7,0,0,0,61.43,98.35Z"/><path class="cls-2" d="M58.93,99.5c.06-.67.39-1.27.42-1.92,0-.16.07-.32-.05-.45a1.74,1.74,0,0,0-1,0,.55.55,0,0,0-.19.64A4.93,4.93,0,0,0,58.93,99.5Z"/><path class="cls-2" d="M54.65,99.47a8.88,8.88,0,0,0,.83-2.38,3,3,0,0,0-1.46,0c.1.44.15.85.27,1.24S54.23,99.12,54.65,99.47Z"/><path class="cls-2" d="M53.46,97a6.91,6.91,0,0,0-2.08,0,13.37,13.37,0,0,0,1,2.24A7.14,7.14,0,0,0,53.46,97Z"/><path d="M63.21,99.25a1.81,1.81,0,0,1,.22.75,4.19,4.19,0,0,1-.54,1.7,30.88,30.88,0,0,1-2.3,4.09,19.21,19.21,0,0,1-3.12,3.5,4.16,4.16,0,0,1-.71.47c-.54.27-.62.2-1.06-.22A32.29,32.29,0,0,1,53,106.3a10.46,10.46,0,0,1-1-1.66c-.5-.86-1-1.72-1.54-2.54a7,7,0,0,1-.84-1.76A1.57,1.57,0,0,1,49.7,99c.32-.58.58-1.17.89-1.75a1,1,0,0,1,1-.58c1.75,0,3.5,0,5.25.08,1.49,0,3,0,4.47-.08a.92.92,0,0,1,1.09.71C62.61,98,63,98.63,63.21,99.25ZM60,97.09c.56.67.67,1.52,1.16,2.21a1.7,1.7,0,0,0,.25-1c.23-1.41.23-1.41-1.19-1.35Zm-.5,1.48c-.32,1.51-.25,1.58,1.41,1.37a7.94,7.94,0,0,0-1.06-2.32l-.13,0C59.66,98,59.58,98.27,59.52,98.57Zm-1.4-.83a4.93,4.93,0,0,0,.81,1.76c.06-.67.39-1.27.42-1.92,0-.16.07-.32-.05-.45a1.74,1.74,0,0,0-1,0A.55.55,0,0,0,58.12,97.74Zm-.26.41a3,3,0,0,0-.6,2c.42-.18.84-.07,1.29-.22Zm-1.61-.59c.16.61.3,1.21.47,1.91a4.11,4.11,0,0,0,.72-2.11c0-.18-.09-.29-.28-.3h-.55C56.27,97.06,56.16,97.23,56.25,97.56Zm-.42,0a6.32,6.32,0,0,0-.58,1.39c-.1.37-.52.76-.25,1.08s.78.06,1.18.09l.16,0a.21.21,0,0,0,.16-.29C56.24,99.05,56.16,98.27,55.83,97.53ZM54,97.05c.1.44.15.85.27,1.24s-.06.83.36,1.18a8.88,8.88,0,0,0,.83-2.38A3,3,0,0,0,54,97.05Zm-.29.57a7.65,7.65,0,0,0-.94,1.68c-.37.56-.23.73.48.79l.47,0c.31,0,.47-.09.39-.4A10.72,10.72,0,0,0,53.73,97.62ZM51.38,97a13.37,13.37,0,0,0,1,2.24A7.14,7.14,0,0,0,53.46,97,6.91,6.91,0,0,0,51.38,97Zm-1.11,3a6.39,6.39,0,0,0,1.92.06,22.54,22.54,0,0,0-1.12-2.67,1.65,1.65,0,0,0-.19.11c-.41.6-.52,1.35-.94,1.95C49.74,99.73,50,99.94,50.27,100Zm5.44,7.92c-.21-1.07-.41-2.16-.72-3.2a28.27,28.27,0,0,1-1-3.8c-.07-.43-.23-.49-.58-.49-1.09,0-2.19,0-3.4,0,.5,1.64,1.64,2.85,2.38,4.28a20.42,20.42,0,0,0,3.05,4.07c.11.12.2.33.45.27A2.93,2.93,0,0,0,55.71,107.93Zm1.73-1.58c.33-1.23.63-2.48.92-3.72.14-.61.25-1.23.34-1.85.06-.43,0-.53-.47-.47a31.65,31.65,0,0,1-3.37.14c-.45,0-.56.14-.5.57s.22,1.08.35,1.61c.32,1.26.82,2.48,1,3.78a22.86,22.86,0,0,0,.62,2.47A9.39,9.39,0,0,0,57.44,106.35Zm4.87-5.92a18.69,18.69,0,0,1-2.59-.09.57.57,0,0,0-.71.54c-.17.85-.39,1.68-.55,2.53a22.77,22.77,0,0,1-1.5,5.18c-.07.18-.24.37-.09.59a.82.82,0,0,0,.42-.2,17.17,17.17,0,0,0,2.17-2.26,15.13,15.13,0,0,0,2.16-3.26,13.88,13.88,0,0,0,1.16-2.39C63,100.49,62.93,100.44,62.31,100.43ZM63,100a9.35,9.35,0,0,0-1-2.38,8.37,8.37,0,0,0-.42,2.4A4.19,4.19,0,0,0,63,100Z"/><path class="cls-2" d="M84.42,135.06A19.26,19.26,0,0,1,82,135c-.37-.06-.58.12-.66.5-.16.79-.36,1.56-.5,2.35a21.79,21.79,0,0,1-1.39,4.8c-.08.16-.23.33-.09.54a.72.72,0,0,0,.39-.19,14.64,14.64,0,0,0,2-2.09,13.81,13.81,0,0,0,2-3,12.62,12.62,0,0,0,1.07-2.22C85,135.11,85,135.07,84.42,135.06Z"/><path class="cls-2" d="M77.63,139a28.68,28.68,0,0,1-.9-3.51c-.06-.4-.21-.46-.54-.46H73c.46,1.52,1.52,2.64,2.2,4a19.56,19.56,0,0,0,2.83,3.77c.1.11.19.3.42.25A2.71,2.71,0,0,0,78.3,142,30.33,30.33,0,0,0,77.63,139Z"/><path class="cls-3" d="M80.76,137.09c.13-.56.23-1.14.31-1.71.06-.4,0-.5-.43-.44a27.13,27.13,0,0,1-3.12.13c-.42,0-.52.13-.47.53a15.24,15.24,0,0,0,.33,1.49,35.42,35.42,0,0,1,.94,3.5c.11.73.36,1.44.58,2.29a8.28,8.28,0,0,0,1-2.34C80.21,139.4,80.49,138.24,80.76,137.09Z"/><path class="cls-3" d="M77.64,134.65c.25.3.73.06,1.1.09l.14,0c.14,0,.21-.14.16-.27-.24-.67-.32-1.4-.63-2.08a5.67,5.67,0,0,0-.53,1.29C77.78,134,77.4,134.36,77.64,134.65Z"/><path class="cls-3" d="M79.74,134.77c.39-.16.78-.06,1.19-.2-.22-.56-.43-1.1-.63-1.63A2.7,2.7,0,0,0,79.74,134.77Z"/><path class="cls-3" d="M83.14,134.6a7.69,7.69,0,0,0-1-2.15c-.08,0-.11,0-.12.05-.07.27-.15.55-.21.83C81.54,134.73,81.6,134.79,83.14,134.6Z"/><path class="cls-3" d="M83.75,134.63a4.13,4.13,0,0,0,1.31,0,8.53,8.53,0,0,0-.92-2.2A8.12,8.12,0,0,0,83.75,134.63Z"/><path class="cls-3" d="M75.05,134.72a23.7,23.7,0,0,0-1-2.48c-.1.06-.16.08-.18.11-.38.56-.48,1.24-.88,1.8-.18.26,0,.45.31.51A5.86,5.86,0,0,0,75.05,134.72Z"/><path class="cls-3" d="M76,134.73l.44,0c.28,0,.43-.09.36-.38a10.46,10.46,0,0,0-.37-1.94A7.31,7.31,0,0,0,75.6,134C75.26,134.53,75.38,134.68,76,134.73Z"/><path class="cls-2" d="M79.24,134.17a3.84,3.84,0,0,0,.67-2c0-.16-.09-.27-.26-.28h-.51c-.31,0-.42.17-.34.48C79,133,79.08,133.52,79.24,134.17Z"/><path class="cls-2" d="M83.6,133.13c.22-1.31.22-1.31-1.1-1.26l-.2.09c.51.62.61,1.41,1.07,2A1.64,1.64,0,0,0,83.6,133.13Z"/><path class="cls-2" d="M81.29,134.19c.06-.62.36-1.17.39-1.78,0-.14.06-.29-.05-.41a1.68,1.68,0,0,0-.92,0,.52.52,0,0,0-.17.59A4.31,4.31,0,0,0,81.29,134.19Z"/><path class="cls-2" d="M77.32,134.16a7.91,7.91,0,0,0,.77-2.2,2.82,2.82,0,0,0-1.35,0c.09.41.14.79.25,1.15S76.93,133.84,77.32,134.16Z"/><path class="cls-2" d="M76.22,131.91a6.57,6.57,0,0,0-1.93,0,13.56,13.56,0,0,0,.89,2.08A6.66,6.66,0,0,0,76.22,131.91Z"/><path d="M85.25,134a1.54,1.54,0,0,1,.21.69,4.07,4.07,0,0,1-.5,1.58A29.25,29.25,0,0,1,82.83,140a17.88,17.88,0,0,1-2.9,3.24,3.79,3.79,0,0,1-.66.44c-.49.25-.57.19-1-.2a34.08,34.08,0,0,1-2.51-3,11.7,11.7,0,0,1-1-1.55c-.46-.79-.91-1.59-1.43-2.35a6.77,6.77,0,0,1-.77-1.63,1.44,1.44,0,0,1,.11-1.24c.29-.53.53-1.08.82-1.61a.93.93,0,0,1,.92-.54c1.62,0,3.24,0,4.86.08,1.38,0,2.76,0,4.14-.08a.85.85,0,0,1,1,.66C84.7,132.83,85,133.38,85.25,134Zm-3-2c.51.62.61,1.41,1.07,2a1.64,1.64,0,0,0,.23-.88c.22-1.31.22-1.31-1.1-1.26Zm-.47,1.37c-.29,1.4-.23,1.46,1.31,1.27a7.69,7.69,0,0,0-1-2.15c-.08,0-.11,0-.12.05C82,132.77,81.89,133.05,81.83,133.33Zm-1.29-.77a4.31,4.31,0,0,0,.75,1.63c.06-.62.36-1.17.39-1.78,0-.14.06-.29-.05-.41a1.68,1.68,0,0,0-.92,0A.52.52,0,0,0,80.54,132.56Zm-.24.38a2.7,2.7,0,0,0-.56,1.83c.39-.16.78-.06,1.19-.2C80.71,134,80.5,133.47,80.3,132.94Zm-1.5-.54c.15.56.28,1.12.44,1.77a3.84,3.84,0,0,0,.67-2c0-.16-.09-.27-.26-.28h-.51C78.83,131.93,78.72,132.09,78.8,132.4Zm-.39,0a5.67,5.67,0,0,0-.53,1.29c-.1.33-.48.7-.24,1s.73.06,1.1.09l.14,0c.14,0,.21-.14.16-.27C78.8,133.78,78.72,133.05,78.41,132.37Zm-1.67-.45c.09.41.14.79.25,1.15s-.06.77.33,1.09a7.91,7.91,0,0,0,.77-2.2A2.82,2.82,0,0,0,76.74,131.92Zm-.27.53A7.31,7.31,0,0,0,75.6,134c-.34.53-.22.68.44.73l.44,0c.28,0,.43-.09.36-.38A10.46,10.46,0,0,0,76.47,132.45Zm-2.18-.54a13.56,13.56,0,0,0,.89,2.08,6.66,6.66,0,0,0,1-2.08A6.57,6.57,0,0,0,74.29,131.91Zm-1,2.75a5.86,5.86,0,0,0,1.79.06,23.7,23.7,0,0,0-1-2.48c-.1.06-.16.08-.18.11-.38.56-.48,1.24-.88,1.8C72.77,134.41,73,134.6,73.26,134.66Zm5,7.34a30.33,30.33,0,0,0-.67-3,28.68,28.68,0,0,1-.9-3.51c-.06-.4-.21-.46-.54-.46H73c.46,1.52,1.52,2.64,2.2,4a19.56,19.56,0,0,0,2.83,3.77c.1.11.19.3.42.25A2.71,2.71,0,0,0,78.3,142Zm1.6-1.46c.31-1.14.59-2.3.86-3.45.13-.56.23-1.14.31-1.71.06-.4,0-.5-.43-.44a27.13,27.13,0,0,1-3.12.13c-.42,0-.52.13-.47.53a15.24,15.24,0,0,0,.33,1.49,35.42,35.42,0,0,1,.94,3.5c.11.73.36,1.44.58,2.29A8.28,8.28,0,0,0,79.9,140.54Zm4.52-5.48A19.26,19.26,0,0,1,82,135c-.37-.06-.58.12-.66.5-.16.79-.36,1.56-.5,2.35a21.79,21.79,0,0,1-1.39,4.8c-.08.16-.23.33-.09.54a.72.72,0,0,0,.39-.19,14.64,14.64,0,0,0,2-2.09,13.81,13.81,0,0,0,2-3,12.62,12.62,0,0,0,1.07-2.22C85,135.11,85,135.07,84.42,135.06Zm.64-.45a8.53,8.53,0,0,0-.92-2.2,8.12,8.12,0,0,0-.39,2.22A4.13,4.13,0,0,0,85.06,134.61Z"/><path class="cls-2" d="M37.8,111.31a28,28,0,0,1-3.88-.14c-.61-.09-1,.2-1.07.82-.26,1.26-.59,2.52-.82,3.79a34.94,34.94,0,0,1-2.25,7.77c-.12.27-.36.55-.13.88a1.17,1.17,0,0,0,.62-.3,24.82,24.82,0,0,0,3.25-3.39,22.39,22.39,0,0,0,3.24-4.88,21.76,21.76,0,0,0,1.75-3.6C38.77,111.4,38.73,111.33,37.8,111.31Z"/><path class="cls-2" d="M26.81,117.75a43.17,43.17,0,0,1-1.46-5.69c-.1-.65-.34-.74-.87-.74-1.64,0-3.29,0-5.1,0,.75,2.46,2.45,4.28,3.56,6.42a30.92,30.92,0,0,0,4.59,6.11c.16.18.29.49.67.41a4.48,4.48,0,0,0-.3-1.7A49.21,49.21,0,0,0,26.81,117.75Z"/><path class="cls-3" d="M31.87,114.61c.21-.92.38-1.85.51-2.78.09-.64-.05-.8-.7-.7a47.38,47.38,0,0,1-5.05.21c-.68,0-.85.21-.76.86.12.81.33,1.61.53,2.41a54.4,54.4,0,0,1,1.52,5.67c.18,1.18.59,2.32.95,3.71a14.18,14.18,0,0,0,1.62-3.8C31,118.34,31.44,116.47,31.87,114.61Z"/><path class="cls-3" d="M26.83,110.66c.4.48,1.17.09,1.78.14l.23,0a.32.32,0,0,0,.25-.44c-.4-1.09-.52-2.27-1-3.37a9.51,9.51,0,0,0-.86,2.09C27.05,109.59,26.43,110.18,26.83,110.66Z"/><path class="cls-3" d="M30.22,110.86c.64-.27,1.27-.11,1.93-.34-.35-.91-.69-1.77-1-2.64A4.51,4.51,0,0,0,30.22,110.86Z"/><path class="cls-3" d="M35.73,110.58a12.11,12.11,0,0,0-1.59-3.49c-.12,0-.18.06-.19.08-.12.45-.25.89-.34,1.35C33.14,110.78,33.24,110.88,35.73,110.58Z"/><path class="cls-3" d="M36.72,110.62a6.31,6.31,0,0,0,2.12,0A14.69,14.69,0,0,0,37.35,107,12.58,12.58,0,0,0,36.72,110.62Z"/><path class="cls-3" d="M22.63,110.77a35.27,35.27,0,0,0-1.69-4,1.18,1.18,0,0,0-.28.17c-.62.9-.78,2-1.42,2.92-.3.41.05.72.5.82A9.17,9.17,0,0,0,22.63,110.77Z"/><path class="cls-3" d="M24.24,110.79l.7,0c.46,0,.7-.14.59-.6a17.38,17.38,0,0,0-.59-3.14,11.14,11.14,0,0,0-1.42,2.51C23,110.46,23.17,110.7,24.24,110.79Z"/><path class="cls-2" d="M29.41,109.87a6.19,6.19,0,0,0,1.09-3.16.39.39,0,0,0-.42-.45,7.54,7.54,0,0,0-.82,0c-.51,0-.69.26-.55.77C29,107.91,29.16,108.82,29.41,109.87Z"/><path class="cls-2" d="M36.47,108.19c.36-2.12.36-2.12-1.77-2a1.69,1.69,0,0,0-.33.14c.83,1,1,2.28,1.73,3.31A2.46,2.46,0,0,0,36.47,108.19Z"/><path class="cls-2" d="M32.73,109.91c.09-1,.58-1.9.63-2.88,0-.23.1-.47-.07-.67a2.59,2.59,0,0,0-1.49,0,.84.84,0,0,0-.29,1A7.21,7.21,0,0,0,32.73,109.91Z"/><path class="cls-2" d="M26.3,109.86a13,13,0,0,0,1.26-3.57,4.65,4.65,0,0,0-2.19-.05c.14.65.23,1.27.41,1.86S25.68,109.34,26.3,109.86Z"/><path class="cls-2" d="M24.53,106.22a10.59,10.59,0,0,0-3.13,0,20.77,20.77,0,0,0,1.45,3.36A10.81,10.81,0,0,0,24.53,106.22Z"/><path d="M39.15,109.54a2.76,2.76,0,0,1,.34,1.12,6.53,6.53,0,0,1-.82,2.56,46.08,46.08,0,0,1-3.45,6.13,29.16,29.16,0,0,1-4.68,5.24,6.21,6.21,0,0,1-1.07.71c-.8.41-.92.31-1.59-.32a50.73,50.73,0,0,1-4.06-4.86,17.36,17.36,0,0,1-1.55-2.5c-.74-1.28-1.46-2.58-2.31-3.81a10.84,10.84,0,0,1-1.25-2.64,2.35,2.35,0,0,1,.17-2c.48-.86.87-1.75,1.33-2.61a1.52,1.52,0,0,1,1.5-.88c2.62,0,5.25.07,7.87.13,2.23,0,4.47,0,6.7-.13a1.4,1.4,0,0,1,1.64,1.07C38.25,107.71,38.76,108.6,39.15,109.54Zm-4.78-3.24c.83,1,1,2.28,1.73,3.31a2.46,2.46,0,0,0,.37-1.42c.36-2.12.36-2.12-1.77-2A1.69,1.69,0,0,0,34.37,106.3Zm-.76,2.22c-.47,2.26-.37,2.36,2.12,2.06a12.11,12.11,0,0,0-1.59-3.49c-.12,0-.18.06-.19.08C33.83,107.62,33.7,108.06,33.61,108.52Zm-2.1-1.25a7.21,7.21,0,0,0,1.22,2.64c.09-1,.58-1.9.63-2.88,0-.23.1-.47-.07-.67a2.59,2.59,0,0,0-1.49,0A.84.84,0,0,0,31.51,107.27Zm-.39.61a4.51,4.51,0,0,0-.9,3c.64-.27,1.27-.11,1.93-.34C31.8,109.61,31.46,108.75,31.12,107.88ZM28.71,107c.24.9.45,1.81.7,2.86a6.19,6.19,0,0,0,1.09-3.16.39.39,0,0,0-.42-.45,7.54,7.54,0,0,0-.82,0C28.75,106.26,28.57,106.5,28.71,107Zm-.64-.05a9.51,9.51,0,0,0-.86,2.09c-.16.54-.78,1.13-.38,1.61s1.17.09,1.78.14l.23,0a.32.32,0,0,0,.25-.44C28.69,109.24,28.57,108.06,28.07,107Zm-2.7-.72c.14.65.23,1.27.41,1.86s-.1,1.24.52,1.76a13,13,0,0,0,1.26-3.57A4.65,4.65,0,0,0,25.37,106.24Zm-.43.86a11.14,11.14,0,0,0-1.42,2.51c-.55.85-.35,1.09.72,1.18l.7,0c.46,0,.7-.14.59-.6A17.38,17.38,0,0,0,24.94,107.1Zm-3.54-.88a20.77,20.77,0,0,0,1.45,3.36,10.81,10.81,0,0,0,1.68-3.36A10.59,10.59,0,0,0,21.4,106.22Zm-1.66,4.45a9.17,9.17,0,0,0,2.89.1,35.27,35.27,0,0,0-1.69-4,1.18,1.18,0,0,0-.28.17c-.62.9-.78,2-1.42,2.92C18.94,110.26,19.29,110.57,19.74,110.67Zm8.16,11.89a49.21,49.21,0,0,0-1.09-4.81,43.17,43.17,0,0,1-1.46-5.69c-.1-.65-.34-.74-.87-.74-1.64,0-3.29,0-5.1,0,.75,2.46,2.45,4.28,3.56,6.42a30.92,30.92,0,0,0,4.59,6.11c.16.18.29.49.67.41A4.48,4.48,0,0,0,27.9,122.56Zm2.59-2.37c.5-1.85,1-3.72,1.38-5.58.21-.92.38-1.85.51-2.78.09-.64-.05-.8-.7-.7a47.38,47.38,0,0,1-5.05.21c-.68,0-.85.21-.76.86.12.81.33,1.61.53,2.41a54.4,54.4,0,0,1,1.52,5.67c.18,1.18.59,2.32.95,3.71A14.18,14.18,0,0,0,30.49,120.19Zm7.31-8.88a28,28,0,0,1-3.88-.14c-.61-.09-1,.2-1.07.82-.26,1.26-.59,2.52-.82,3.79a34.94,34.94,0,0,1-2.25,7.77c-.12.27-.36.55-.13.88a1.17,1.17,0,0,0,.62-.3,24.82,24.82,0,0,0,3.25-3.39,22.39,22.39,0,0,0,3.24-4.88,21.76,21.76,0,0,0,1.75-3.6C38.77,111.4,38.73,111.33,37.8,111.31Zm1-.72A14.69,14.69,0,0,0,37.35,107a12.58,12.58,0,0,0-.63,3.6A6.31,6.31,0,0,0,38.84,110.59Z"/><path class="cls-2" d="M171.26,12.08a28,28,0,0,1-3.88-.14c-.61-.09-.95.2-1.07.82-.26,1.26-.59,2.52-.82,3.79a34.94,34.94,0,0,1-2.25,7.77c-.12.27-.36.55-.13.88a1.17,1.17,0,0,0,.62-.3A24.23,24.23,0,0,0,167,21.51a22.39,22.39,0,0,0,3.24-4.88A21.76,21.76,0,0,0,172,13C172.23,12.17,172.19,12.1,171.26,12.08Z"/><path class="cls-2" d="M160.27,18.52a43.58,43.58,0,0,1-1.46-5.69c-.1-.65-.34-.75-.87-.74h-5.1c.75,2.46,2.45,4.28,3.57,6.42A30.49,30.49,0,0,0,161,24.62c.16.18.29.49.67.41a4.48,4.48,0,0,0-.3-1.7A48.56,48.56,0,0,0,160.27,18.52Z"/><path class="cls-3" d="M165.33,15.37c.21-.91.38-1.84.51-2.77.09-.64-.05-.8-.7-.7a44.88,44.88,0,0,1-5,.2c-.67,0-.85.22-.75.86a21.5,21.5,0,0,0,.52,2.41,55.26,55.26,0,0,1,1.52,5.68c.18,1.18.59,2.32,1,3.7A14.12,14.12,0,0,0,164,21C164.45,19.11,164.9,17.24,165.33,15.37Z"/><path class="cls-3" d="M160.29,11.43c.4.48,1.17.09,1.78.14a.91.91,0,0,0,.23,0,.31.31,0,0,0,.25-.44c-.39-1.09-.51-2.27-1-3.37a9.32,9.32,0,0,0-.86,2.09C160.51,10.36,159.89,11,160.29,11.43Z"/><path class="cls-3" d="M163.68,11.62c.64-.26,1.27-.1,1.94-.33l-1-2.64A4.5,4.5,0,0,0,163.68,11.62Z"/><path class="cls-3" d="M169.19,11.35a12.17,12.17,0,0,0-1.59-3.5c-.12.06-.18.06-.19.09-.12.45-.25.89-.34,1.34C166.6,11.55,166.7,11.65,169.19,11.35Z"/><path class="cls-3" d="M170.18,11.39a6.58,6.58,0,0,0,2.12,0,14.53,14.53,0,0,0-1.49-3.57A12.58,12.58,0,0,0,170.18,11.39Z"/><path class="cls-3" d="M156.09,11.53a35.87,35.87,0,0,0-1.69-4c-.16.09-.24.11-.28.17-.62.9-.78,2-1.42,2.91-.3.42.05.73.5.83A9.49,9.49,0,0,0,156.09,11.53Z"/><path class="cls-3" d="M157.7,11.56l.71,0c.45.05.69-.14.58-.6a16.56,16.56,0,0,0-.59-3.14,11.3,11.3,0,0,0-1.42,2.5C156.43,11.23,156.63,11.47,157.7,11.56Z"/><path class="cls-2" d="M162.88,10.64A6.3,6.3,0,0,0,164,7.48c0-.27-.15-.44-.42-.46s-.55,0-.82,0c-.51,0-.69.26-.55.77C162.41,8.68,162.62,9.59,162.88,10.64Z"/><path class="cls-2" d="M169.94,9c.35-2.12.35-2.12-1.78-2l-.33.15c.83,1,1,2.28,1.73,3.31A2.58,2.58,0,0,0,169.94,9Z"/><path class="cls-2" d="M166.2,10.67c.09-1,.57-1.89.63-2.87,0-.23.09-.48-.08-.68a2.68,2.68,0,0,0-1.49,0A.83.83,0,0,0,165,8,6.93,6.93,0,0,0,166.2,10.67Z"/><path class="cls-2" d="M159.76,10.63A13.12,13.12,0,0,0,161,7.06,4.79,4.79,0,0,0,158.83,7c.14.66.23,1.28.41,1.87S159.14,10.1,159.76,10.63Z"/><path class="cls-2" d="M158,7a10.27,10.27,0,0,0-3.13,0,21.16,21.16,0,0,0,1.45,3.36A10.81,10.81,0,0,0,158,7Z"/><path d="M172.61,10.31a2.76,2.76,0,0,1,.34,1.12,6.58,6.58,0,0,1-.82,2.56,46.08,46.08,0,0,1-3.45,6.13A29.16,29.16,0,0,1,164,25.36a5.85,5.85,0,0,1-1.07.71c-.8.41-.92.31-1.59-.33a49.41,49.41,0,0,1-4.06-4.85,17.93,17.93,0,0,1-1.55-2.5c-.74-1.28-1.46-2.58-2.31-3.81a10.84,10.84,0,0,1-1.25-2.64,2.35,2.35,0,0,1,.17-2c.48-.86.87-1.75,1.34-2.61a1.49,1.49,0,0,1,1.49-.88c2.62,0,5.25.07,7.87.13,2.23,0,4.47,0,6.7-.13a1.39,1.39,0,0,1,1.64,1.07C171.71,8.48,172.22,9.37,172.61,10.31Zm-4.78-3.24c.83,1,1,2.28,1.73,3.31A2.58,2.58,0,0,0,169.94,9c.35-2.12.35-2.12-1.78-2Zm-.76,2.21c-.47,2.27-.37,2.37,2.12,2.07a12.17,12.17,0,0,0-1.59-3.5c-.12.06-.18.06-.19.09C167.29,8.39,167.16,8.83,167.07,9.28ZM165,8a6.93,6.93,0,0,0,1.23,2.64c.09-1,.57-1.89.63-2.87,0-.23.09-.48-.08-.68a2.68,2.68,0,0,0-1.49,0A.83.83,0,0,0,165,8Zm-.39.62a4.5,4.5,0,0,0-.9,3c.64-.26,1.27-.1,1.94-.33Zm-2.41-.87c.24.9.45,1.81.71,2.86A6.3,6.3,0,0,0,164,7.48c0-.27-.15-.44-.42-.46s-.55,0-.82,0C162.21,7,162,7.27,162.17,7.78Zm-.64,0a9.32,9.32,0,0,0-.86,2.09c-.16.54-.78,1.13-.38,1.61s1.17.09,1.78.14a.91.91,0,0,0,.23,0,.31.31,0,0,0,.25-.44C162.16,10,162,8.83,161.53,7.73ZM158.83,7c.14.66.23,1.28.41,1.87s-.1,1.23.52,1.76A13.12,13.12,0,0,0,161,7.06,4.79,4.79,0,0,0,158.83,7Zm-.43.87a11.3,11.3,0,0,0-1.42,2.5c-.55.86-.35,1.1.72,1.19l.71,0c.45.05.69-.14.58-.6A16.56,16.56,0,0,0,158.4,7.87ZM154.86,7a21.16,21.16,0,0,0,1.45,3.36A10.81,10.81,0,0,0,158,7,10.27,10.27,0,0,0,154.86,7Zm-1.66,4.45a9.49,9.49,0,0,0,2.89.09,35.87,35.87,0,0,0-1.69-4c-.16.09-.24.11-.28.17-.62.9-.78,2-1.42,2.91C152.4,11,152.75,11.34,153.2,11.44Zm8.16,11.89a48.56,48.56,0,0,0-1.09-4.81,43.58,43.58,0,0,1-1.46-5.69c-.1-.65-.34-.75-.87-.74h-5.1c.75,2.46,2.45,4.28,3.57,6.42A30.49,30.49,0,0,0,161,24.62c.16.18.29.49.67.41A4.48,4.48,0,0,0,161.36,23.33ZM164,21c.5-1.85,1-3.72,1.38-5.59.21-.91.38-1.84.51-2.77.09-.64-.05-.8-.7-.7a44.88,44.88,0,0,1-5,.2c-.67,0-.85.22-.75.86a21.5,21.5,0,0,0,.52,2.41,55.26,55.26,0,0,1,1.52,5.68c.18,1.18.59,2.32,1,3.7A14.12,14.12,0,0,0,164,21Zm7.31-8.88a28,28,0,0,1-3.88-.14c-.61-.09-.95.2-1.07.82-.26,1.26-.59,2.52-.82,3.79a34.94,34.94,0,0,1-2.25,7.77c-.12.27-.36.55-.13.88a1.17,1.17,0,0,0,.62-.3A24.23,24.23,0,0,0,167,21.51a22.39,22.39,0,0,0,3.24-4.88A21.76,21.76,0,0,0,172,13C172.23,12.17,172.19,12.1,171.26,12.08Zm1-.72a14.53,14.53,0,0,0-1.49-3.57,12.58,12.58,0,0,0-.63,3.6A6.58,6.58,0,0,0,172.3,11.36Z"/><path class="cls-2" d="M106.8,1.2a18.69,18.69,0,0,1-2.59-.09.57.57,0,0,0-.71.54c-.17.85-.4,1.68-.55,2.53a23.29,23.29,0,0,1-1.5,5.18c-.08.18-.24.37-.09.59a.76.76,0,0,0,.41-.2,16.54,16.54,0,0,0,2.17-2.26,14.43,14.43,0,0,0,2.16-3.26,14.29,14.29,0,0,0,1.17-2.39C107.44,1.26,107.41,1.21,106.8,1.2Z"/><path class="cls-2" d="M99.47,5.49a29.25,29.25,0,0,1-1-3.79c-.07-.43-.23-.5-.58-.49-1.1,0-2.19,0-3.4,0,.5,1.64,1.63,2.85,2.37,4.28A20.85,20.85,0,0,0,100,9.56c.11.12.19.33.45.27a3.1,3.1,0,0,0-.21-1.13A31.69,31.69,0,0,0,99.47,5.49Z"/><path class="cls-3" d="M102.84,3.4a16.71,16.71,0,0,0,.34-1.85c.07-.43,0-.54-.46-.47a31.65,31.65,0,0,1-3.37.14c-.45,0-.57.14-.5.57A15.44,15.44,0,0,0,99.2,3.4a37.57,37.57,0,0,1,1,3.78c.12.79.39,1.55.63,2.47a9.17,9.17,0,0,0,1.08-2.53C102.26,5.89,102.55,4.64,102.84,3.4Z"/><path class="cls-3" d="M99.48.77c.27.32.78.06,1.19.09l.15,0A.21.21,0,0,0,101,.55c-.26-.73-.34-1.51-.68-2.25a6.08,6.08,0,0,0-.57,1.39C99.63.06,99.22.45,99.48.77Z"/><path class="cls-3" d="M101.74.9c.43-.18.85-.07,1.29-.23-.23-.6-.46-1.18-.68-1.76A3,3,0,0,0,101.74.9Z"/><path class="cls-3" d="M105.42.71a8.27,8.27,0,0,0-1.06-2.33c-.08,0-.12,0-.13.06-.08.3-.16.6-.23.9C103.69.85,103.75.91,105.42.71Z"/><path class="cls-3" d="M106.08.74a4.19,4.19,0,0,0,1.41,0,9.72,9.72,0,0,0-1-2.38A8.37,8.37,0,0,0,106.08.74Z"/><path class="cls-3" d="M96.68.84a24.34,24.34,0,0,0-1.12-2.67c-.11.06-.17.07-.19.11-.41.6-.52,1.34-1,1.94-.19.28,0,.49.33.56A6.47,6.47,0,0,0,96.68.84Z"/><path class="cls-3" d="M97.76.85l.47,0c.3,0,.46-.09.39-.4a11.52,11.52,0,0,0-.4-2.1A7.59,7.59,0,0,0,97.28.06C96.91.63,97,.8,97.76.85Z"/><path class="cls-2" d="M101.21.24a4.24,4.24,0,0,0,.72-2.11c0-.18-.1-.29-.28-.3a5,5,0,0,0-.55,0c-.34,0-.46.17-.37.51C100.9-1.06,101-.46,101.21.24Z"/><path class="cls-2" d="M105.91-.88c.24-1.41.24-1.41-1.18-1.36,0,0,0,0-.22.1.55.67.66,1.52,1.16,2.21A1.72,1.72,0,0,0,105.91-.88Z"/><path class="cls-2" d="M103.42.26c.06-.66.38-1.26.42-1.91,0-.16.06-.32,0-.45a1.75,1.75,0,0,0-1,0,.54.54,0,0,0-.19.63A4.48,4.48,0,0,0,103.42.26Z"/><path class="cls-2" d="M99.13.24A8.57,8.57,0,0,0,100-2.14a3,3,0,0,0-1.46,0c.09.43.15.85.27,1.24S98.72-.12,99.13.24Z"/><path class="cls-2" d="M98-2.19a7,7,0,0,0-2.09,0,14.72,14.72,0,0,0,1,2.24A7.36,7.36,0,0,0,98-2.19Z"/><path d="M107.7,0a1.77,1.77,0,0,1,.22.75,4.35,4.35,0,0,1-.54,1.7,30.88,30.88,0,0,1-2.3,4.09A19.25,19.25,0,0,1,102,10.05a3.85,3.85,0,0,1-.71.48c-.53.27-.61.2-1.06-.22a33.35,33.35,0,0,1-2.7-3.24,12.46,12.46,0,0,1-1-1.66c-.49-.86-1-1.72-1.54-2.54a7.35,7.35,0,0,1-.83-1.77,1.58,1.58,0,0,1,.12-1.33c.31-.57.57-1.16.88-1.74a1,1,0,0,1,1-.58c1.75,0,3.5,0,5.25.08,1.49,0,3,0,4.46-.08a.93.93,0,0,1,1.1.71C107.1-1.2,107.44-.6,107.7,0Zm-3.19-2.16c.55.67.66,1.52,1.16,2.21a1.72,1.72,0,0,0,.24-.95c.24-1.41.24-1.41-1.18-1.36C104.7-2.24,104.68-2.22,104.51-2.14ZM104-.66c-.31,1.51-.25,1.57,1.42,1.37a8.27,8.27,0,0,0-1.06-2.33c-.08,0-.12,0-.13.06C104.15-1.26,104.07-1,104-.66Zm-1.39-.84a4.48,4.48,0,0,0,.81,1.76c.06-.66.38-1.26.42-1.91,0-.16.06-.32,0-.45a1.75,1.75,0,0,0-1,0A.54.54,0,0,0,102.61-1.5Zm-.26.41a3,3,0,0,0-.61,2c.43-.18.85-.07,1.29-.23C102.8.07,102.57-.51,102.35-1.09Zm-1.62-.58c.17.61.3,1.21.48,1.91a4.24,4.24,0,0,0,.72-2.11c0-.18-.1-.29-.28-.3a5,5,0,0,0-.55,0C100.76-2.17,100.64-2,100.73-1.67Zm-.42,0a6.08,6.08,0,0,0-.57,1.39c-.11.37-.52.76-.26,1.08s.78.06,1.19.09l.15,0A.21.21,0,0,0,101,.55C100.73-.18,100.65-1,100.31-1.7Zm-1.8-.48c.09.43.15.85.27,1.24s-.06.82.35,1.18A8.57,8.57,0,0,0,100-2.14,3,3,0,0,0,98.51-2.18Zm-.29.57A7.59,7.59,0,0,0,97.28.06c-.37.57-.24.74.48.79l.47,0c.3,0,.46-.09.39-.4A11.52,11.52,0,0,0,98.22-1.61Zm-2.36-.58a14.72,14.72,0,0,0,1,2.24A7.36,7.36,0,0,0,98-2.19,7,7,0,0,0,95.86-2.19Zm-1.11,3a6.47,6.47,0,0,0,1.93.06,24.34,24.34,0,0,0-1.12-2.67c-.11.06-.17.07-.19.11-.41.6-.52,1.34-1,1.94C94.23.5,94.46.71,94.75.78Zm5.44,7.92a31.69,31.69,0,0,0-.72-3.21,29.25,29.25,0,0,1-1-3.79c-.07-.43-.23-.5-.58-.49-1.1,0-2.19,0-3.4,0,.5,1.64,1.63,2.85,2.37,4.28A20.85,20.85,0,0,0,100,9.56c.11.12.19.33.45.27A3.1,3.1,0,0,0,100.19,8.7Zm1.73-1.58c.34-1.23.63-2.48.92-3.72a16.71,16.71,0,0,0,.34-1.85c.07-.43,0-.54-.46-.47a31.65,31.65,0,0,1-3.37.14c-.45,0-.57.14-.5.57A15.44,15.44,0,0,0,99.2,3.4a37.57,37.57,0,0,1,1,3.78c.12.79.39,1.55.63,2.47A9.17,9.17,0,0,0,101.92,7.12ZM106.8,1.2a18.69,18.69,0,0,1-2.59-.09.57.57,0,0,0-.71.54c-.17.85-.4,1.68-.55,2.53a23.29,23.29,0,0,1-1.5,5.18c-.08.18-.24.37-.09.59a.76.76,0,0,0,.41-.2,16.54,16.54,0,0,0,2.17-2.26,14.43,14.43,0,0,0,2.16-3.26,14.29,14.29,0,0,0,1.17-2.39C107.44,1.26,107.41,1.21,106.8,1.2Zm.69-.48a9.72,9.72,0,0,0-1-2.38,8.37,8.37,0,0,0-.42,2.4A4.19,4.19,0,0,0,107.49.72Z"/><path class="cls-2" d="M128.91,35.82a17.5,17.5,0,0,1-2.4-.08c-.38-.06-.59.12-.66.5-.16.78-.36,1.56-.51,2.34a21.64,21.64,0,0,1-1.39,4.8c-.07.17-.22.34-.08.55a.69.69,0,0,0,.38-.19,14.71,14.71,0,0,0,2-2.09,13.77,13.77,0,0,0,2-3,12,12,0,0,0,1.08-2.22C129.5,35.88,129.48,35.83,128.91,35.82Z"/><path class="cls-2" d="M122.12,39.8a25.23,25.23,0,0,1-.9-3.52c-.07-.4-.21-.45-.54-.45-1,0-2,0-3.15,0,.46,1.52,1.51,2.64,2.2,4a19.46,19.46,0,0,0,2.83,3.77c.1.11.18.3.42.25a2.91,2.91,0,0,0-.19-1A29.69,29.69,0,0,0,122.12,39.8Z"/><path class="cls-3" d="M125.24,37.86c.13-.57.24-1.14.32-1.71.06-.4,0-.5-.43-.44a27.13,27.13,0,0,1-3.12.13c-.42,0-.53.13-.47.53a12.79,12.79,0,0,0,.33,1.49c.3,1.17.75,2.29.94,3.5.11.73.36,1.44.58,2.29a8.58,8.58,0,0,0,1-2.34C124.7,40.17,125,39,125.24,37.86Z"/><path class="cls-3" d="M122.13,35.42c.25.3.72.06,1.1.09l.14,0a.2.2,0,0,0,.16-.27c-.25-.68-.32-1.4-.63-2.08a5.67,5.67,0,0,0-.53,1.29C122.27,34.76,121.88,35.12,122.13,35.42Z"/><path class="cls-3" d="M124.22,35.54c.4-.16.79-.06,1.2-.2l-.64-1.63A2.79,2.79,0,0,0,124.22,35.54Z"/><path class="cls-3" d="M127.63,35.37a7.62,7.62,0,0,0-1-2.16c-.07,0-.11,0-.11.06-.07.27-.15.55-.21.83C126,35.5,126.09,35.56,127.63,35.37Z"/><path class="cls-3" d="M128.24,35.4a4.13,4.13,0,0,0,1.31,0,9.54,9.54,0,0,0-.92-2.21A7.88,7.88,0,0,0,128.24,35.4Z"/><path class="cls-3" d="M119.53,35.49a20.07,20.07,0,0,0-1-2.48c-.09.06-.15.08-.17.11-.38.56-.48,1.24-.88,1.8-.18.26,0,.45.31.51A6.14,6.14,0,0,0,119.53,35.49Z"/><path class="cls-3" d="M120.53,35.5l.44,0c.28,0,.43-.09.36-.38a10.46,10.46,0,0,0-.37-1.94,7.31,7.31,0,0,0-.87,1.55C119.75,35.3,119.87,35.45,120.53,35.5Z"/><path class="cls-2" d="M123.73,34.94a3.94,3.94,0,0,0,.67-2c0-.17-.09-.27-.26-.28h-.51c-.32,0-.42.16-.34.48C123.44,33.73,123.57,34.29,123.73,34.94Z"/><path class="cls-2" d="M128.09,33.9c.22-1.31.21-1.31-1.1-1.26l-.2.09c.51.62.61,1.41,1.07,2.05A1.66,1.66,0,0,0,128.09,33.9Z"/><path class="cls-2" d="M125.78,35c0-.62.35-1.17.39-1.78,0-.14.06-.29,0-.42a1.78,1.78,0,0,0-.92,0,.53.53,0,0,0-.18.59A4.41,4.41,0,0,0,125.78,35Z"/><path class="cls-2" d="M121.8,34.93a7.93,7.93,0,0,0,.78-2.2,2.82,2.82,0,0,0-1.35,0c.08.4.14.79.25,1.15S121.42,34.6,121.8,34.93Z"/><path class="cls-2" d="M120.71,32.68a6.57,6.57,0,0,0-1.93,0,12.19,12.19,0,0,0,.89,2.07A6.72,6.72,0,0,0,120.71,32.68Z"/><path d="M129.74,34.73a1.68,1.68,0,0,1,.21.69,3.92,3.92,0,0,1-.51,1.58,28.74,28.74,0,0,1-2.13,3.79A18.12,18.12,0,0,1,124.42,44a4.73,4.73,0,0,1-.66.44c-.49.25-.57.18-1-.21a30,30,0,0,1-2.51-3,11,11,0,0,1-1-1.54c-.45-.79-.9-1.59-1.42-2.35a6.58,6.58,0,0,1-.77-1.63,1.48,1.48,0,0,1,.1-1.24c.3-.53.54-1.08.82-1.61a.93.93,0,0,1,.93-.54c1.62,0,3.24,0,4.86.07,1.38,0,2.76,0,4.14-.07a.85.85,0,0,1,1,.66C129.18,33.6,129.5,34.15,129.74,34.73Zm-3-2c.51.62.61,1.41,1.07,2.05a1.66,1.66,0,0,0,.23-.88c.22-1.31.21-1.31-1.1-1.26Zm-.47,1.37c-.29,1.4-.23,1.46,1.31,1.27a7.62,7.62,0,0,0-1-2.16c-.07,0-.11,0-.11.06C126.46,33.54,126.38,33.82,126.32,34.1Zm-1.3-.77a4.41,4.41,0,0,0,.76,1.63c0-.62.35-1.17.39-1.78,0-.14.06-.29,0-.42a1.78,1.78,0,0,0-.92,0A.53.53,0,0,0,125,33.33Zm-.24.38a2.79,2.79,0,0,0-.56,1.83c.4-.16.79-.06,1.2-.2Zm-1.49-.54c.15.56.28,1.12.44,1.77a3.94,3.94,0,0,0,.67-2c0-.17-.09-.27-.26-.28h-.51C123.31,32.7,123.21,32.85,123.29,33.17Zm-.39,0a5.67,5.67,0,0,0-.53,1.29c-.1.33-.49.69-.24,1s.72.06,1.1.09l.14,0a.2.2,0,0,0,.16-.27C123.28,34.54,123.21,33.82,122.9,33.14Zm-1.67-.45c.08.4.14.79.25,1.15s-.06.76.32,1.09a7.93,7.93,0,0,0,.78-2.2A2.82,2.82,0,0,0,121.23,32.69Zm-.27.53a7.31,7.31,0,0,0-.87,1.55c-.34.53-.22.68.44.73l.44,0c.28,0,.43-.09.36-.38A10.46,10.46,0,0,0,121,33.22Zm-2.18-.54a12.19,12.19,0,0,0,.89,2.07,6.72,6.72,0,0,0,1-2.07A6.57,6.57,0,0,0,118.78,32.68Zm-1,2.75a6.14,6.14,0,0,0,1.78.06,20.07,20.07,0,0,0-1-2.48c-.09.06-.15.08-.17.11-.38.56-.48,1.24-.88,1.8C117.26,35.18,117.48,35.37,117.75,35.43Zm5,7.34a29.69,29.69,0,0,0-.67-3,25.23,25.23,0,0,1-.9-3.52c-.07-.4-.21-.45-.54-.45-1,0-2,0-3.15,0,.46,1.52,1.51,2.64,2.2,4a19.46,19.46,0,0,0,2.83,3.77c.1.11.18.3.42.25A2.91,2.91,0,0,0,122.79,42.77Zm1.6-1.46c.31-1.14.58-2.3.85-3.45.13-.57.24-1.14.32-1.71.06-.4,0-.5-.43-.44a27.13,27.13,0,0,1-3.12.13c-.42,0-.53.13-.47.53a12.79,12.79,0,0,0,.33,1.49c.3,1.17.75,2.29.94,3.5.11.73.36,1.44.58,2.29A8.58,8.58,0,0,0,124.39,41.31Zm4.52-5.49a17.5,17.5,0,0,1-2.4-.08c-.38-.06-.59.12-.66.5-.16.78-.36,1.56-.51,2.34a21.64,21.64,0,0,1-1.39,4.8c-.07.17-.22.34-.08.55a.69.69,0,0,0,.38-.19,14.71,14.71,0,0,0,2-2.09,13.77,13.77,0,0,0,2-3,12,12,0,0,0,1.08-2.22C129.5,35.88,129.48,35.83,128.91,35.82Zm.64-.44a9.54,9.54,0,0,0-.92-2.21,7.88,7.88,0,0,0-.39,2.23A4.13,4.13,0,0,0,129.55,35.38Z"/><path class="cls-2" d="M82.29,12.08a27.91,27.91,0,0,1-3.88-.14c-.61-.09-1,.2-1.07.82-.26,1.26-.59,2.52-.82,3.79a35.48,35.48,0,0,1-2.25,7.77c-.12.27-.37.55-.14.88a1.1,1.1,0,0,0,.62-.3A24.3,24.3,0,0,0,78,21.51a22.39,22.39,0,0,0,3.24-4.88A21,21,0,0,0,83,13C83.26,12.17,83.21,12.1,82.29,12.08Z"/><path class="cls-2" d="M71.3,18.52a43.58,43.58,0,0,1-1.46-5.69c-.1-.65-.34-.75-.87-.74H63.86c.76,2.46,2.46,4.28,3.57,6.42A30.87,30.87,0,0,0,72,24.62c.17.18.3.49.67.41a4.3,4.3,0,0,0-.3-1.7A45.85,45.85,0,0,0,71.3,18.52Z"/><path class="cls-3" d="M76.36,15.37c.21-.91.38-1.84.51-2.77.09-.64-.05-.8-.7-.7a44.88,44.88,0,0,1-5,.2c-.68,0-.85.22-.76.86a24,24,0,0,0,.53,2.41,57.93,57.93,0,0,1,1.52,5.68c.18,1.18.58,2.32.94,3.7A14.17,14.17,0,0,0,75,21C75.48,19.11,75.92,17.24,76.36,15.37Z"/><path class="cls-3" d="M71.31,11.43c.4.48,1.18.09,1.78.14a1,1,0,0,0,.24,0,.32.32,0,0,0,.25-.44c-.4-1.09-.52-2.27-1-3.37a9.32,9.32,0,0,0-.86,2.09C71.54,10.36,70.92,11,71.31,11.43Z"/><path class="cls-3" d="M74.71,11.62c.63-.26,1.26-.1,1.93-.33-.35-.91-.69-1.77-1-2.64A4.5,4.5,0,0,0,74.71,11.62Z"/><path class="cls-3" d="M80.21,11.35a11.65,11.65,0,0,0-1.59-3.5c-.11.06-.18.06-.18.09-.12.45-.25.89-.34,1.34C77.63,11.55,77.72,11.65,80.21,11.35Z"/><path class="cls-3" d="M81.21,11.39a6.52,6.52,0,0,0,2.11,0,14.1,14.1,0,0,0-1.48-3.57A12.58,12.58,0,0,0,81.21,11.39Z"/><path class="cls-3" d="M67.11,11.53a35.87,35.87,0,0,0-1.68-4c-.16.09-.25.11-.29.17-.61.9-.77,2-1.42,2.91-.29.42.06.73.5.83A9.5,9.5,0,0,0,67.11,11.53Z"/><path class="cls-3" d="M68.73,11.56l.7,0c.46.05.7-.14.59-.6a16.61,16.61,0,0,0-.6-3.14A11.66,11.66,0,0,0,68,10.37C67.46,11.23,67.66,11.47,68.73,11.56Z"/><path class="cls-2" d="M73.9,10.64A6.32,6.32,0,0,0,75,7.48c0-.27-.15-.44-.43-.46S74,7,73.74,7c-.51,0-.68.26-.55.77C73.43,8.68,73.64,9.59,73.9,10.64Z"/><path class="cls-2" d="M81,9c.36-2.12.35-2.12-1.78-2l-.33.15c.84,1,1,2.28,1.74,3.31A2.56,2.56,0,0,0,81,9Z"/><path class="cls-2" d="M77.22,10.67c.09-1,.58-1.89.63-2.87,0-.23.1-.48-.08-.68a2.65,2.65,0,0,0-1.48,0A.8.8,0,0,0,76,8,7.06,7.06,0,0,0,77.22,10.67Z"/><path class="cls-2" d="M70.79,10.63a13.12,13.12,0,0,0,1.26-3.57A4.79,4.79,0,0,0,69.86,7c.13.66.22,1.28.4,1.87S70.17,10.1,70.79,10.63Z"/><path class="cls-2" d="M69,7a10.2,10.2,0,0,0-3.12,0,21.11,21.11,0,0,0,1.44,3.36A10.4,10.4,0,0,0,69,7Z"/><path d="M83.64,10.31A2.6,2.6,0,0,1,84,11.43,6.4,6.4,0,0,1,83.16,14a47.23,47.23,0,0,1-3.45,6.13A28.83,28.83,0,0,1,75,25.36a6.13,6.13,0,0,1-1.06.71c-.8.41-.93.31-1.59-.33a49.41,49.41,0,0,1-4.06-4.85,17.93,17.93,0,0,1-1.55-2.5c-.75-1.28-1.47-2.58-2.32-3.81a11.19,11.19,0,0,1-1.24-2.64,2.35,2.35,0,0,1,.17-2c.47-.86.87-1.75,1.33-2.61a1.5,1.5,0,0,1,1.49-.88c2.63,0,5.25.07,7.88.13,2.23,0,4.47,0,6.7-.13a1.39,1.39,0,0,1,1.64,1.07C82.74,8.48,83.25,9.37,83.64,10.31ZM78.85,7.07c.84,1,1,2.28,1.74,3.31A2.56,2.56,0,0,0,81,9c.36-2.12.35-2.12-1.78-2ZM78.1,9.28c-.47,2.27-.38,2.37,2.11,2.07a11.65,11.65,0,0,0-1.59-3.5c-.11.06-.18.06-.18.09C78.32,8.39,78.19,8.83,78.1,9.28ZM76,8a7.06,7.06,0,0,0,1.22,2.64c.09-1,.58-1.89.63-2.87,0-.23.1-.48-.08-.68a2.65,2.65,0,0,0-1.48,0A.8.8,0,0,0,76,8Zm-.39.62a4.5,4.5,0,0,0-.9,3c.63-.26,1.26-.1,1.93-.33C76.29,10.38,76,9.52,75.61,8.65Zm-2.42-.87c.24.9.45,1.81.71,2.86A6.32,6.32,0,0,0,75,7.48c0-.27-.15-.44-.43-.46S74,7,73.74,7C73.23,7,73.06,7.27,73.19,7.78Zm-.63,0a9.32,9.32,0,0,0-.86,2.09c-.16.54-.78,1.13-.39,1.61s1.18.09,1.78.14a1,1,0,0,0,.24,0,.32.32,0,0,0,.25-.44C73.18,10,73.06,8.83,72.56,7.73ZM69.86,7c.13.66.22,1.28.4,1.87s-.09,1.23.53,1.76a13.12,13.12,0,0,0,1.26-3.57A4.79,4.79,0,0,0,69.86,7Zm-.44.87A11.66,11.66,0,0,0,68,10.37c-.55.86-.35,1.1.72,1.19l.7,0c.46.05.7-.14.59-.6A16.61,16.61,0,0,0,69.42,7.87ZM65.89,7a21.11,21.11,0,0,0,1.44,3.36A10.4,10.4,0,0,0,69,7,10.2,10.2,0,0,0,65.89,7Zm-1.67,4.45a9.5,9.5,0,0,0,2.89.09,35.87,35.87,0,0,0-1.68-4c-.16.09-.25.11-.29.17-.61.9-.77,2-1.42,2.91C63.43,11,63.78,11.34,64.22,11.44Zm8.16,11.89a45.85,45.85,0,0,0-1.08-4.81,43.58,43.58,0,0,1-1.46-5.69c-.1-.65-.34-.75-.87-.74H63.86c.76,2.46,2.46,4.28,3.57,6.42A30.87,30.87,0,0,0,72,24.62c.17.18.3.49.67.41A4.3,4.3,0,0,0,72.38,23.33ZM75,21c.5-1.85.94-3.72,1.38-5.59.21-.91.38-1.84.51-2.77.09-.64-.05-.8-.7-.7a44.88,44.88,0,0,1-5,.2c-.68,0-.85.22-.76.86a24,24,0,0,0,.53,2.41,57.93,57.93,0,0,1,1.52,5.68c.18,1.18.58,2.32.94,3.7A14.17,14.17,0,0,0,75,21Zm7.31-8.88a27.91,27.91,0,0,1-3.88-.14c-.61-.09-1,.2-1.07.82-.26,1.26-.59,2.52-.82,3.79a35.48,35.48,0,0,1-2.25,7.77c-.12.27-.37.55-.14.88a1.1,1.1,0,0,0,.62-.3A24.3,24.3,0,0,0,78,21.51a22.39,22.39,0,0,0,3.24-4.88A21,21,0,0,0,83,13C83.26,12.17,83.21,12.1,82.29,12.08Zm1-.72a14.1,14.1,0,0,0-1.48-3.57,12.58,12.58,0,0,0-.63,3.6A6.52,6.52,0,0,0,83.32,11.36Z"/><path class="cls-2" d="M17.83,1.2a18.64,18.64,0,0,1-2.59-.09c-.41-.06-.63.13-.72.54-.17.85-.39,1.68-.54,2.53a23.84,23.84,0,0,1-1.5,5.18c-.08.18-.25.37-.09.59a.79.79,0,0,0,.41-.2A16.54,16.54,0,0,0,15,7.49a15.13,15.13,0,0,0,2.16-3.26,14.25,14.25,0,0,0,1.16-2.39C18.47,1.26,18.44,1.21,17.83,1.2Z"/><path class="cls-2" d="M10.5,5.49a27.75,27.75,0,0,1-1-3.79c-.06-.43-.22-.5-.57-.49-1.1,0-2.2,0-3.41,0C6,2.85,7.18,4.06,7.92,5.49A20.42,20.42,0,0,0,11,9.56c.11.12.2.33.45.27a2.9,2.9,0,0,0-.2-1.13A31.69,31.69,0,0,0,10.5,5.49Z"/><path class="cls-3" d="M13.87,3.4c.14-.61.25-1.23.34-1.85.06-.43,0-.54-.47-.47a31.46,31.46,0,0,1-3.36.14c-.45,0-.57.14-.51.57a15.5,15.5,0,0,0,.36,1.61c.32,1.26.81,2.48,1,3.78.12.79.39,1.55.63,2.47A9.17,9.17,0,0,0,13,7.12C13.28,5.89,13.58,4.64,13.87,3.4Z"/><path class="cls-3" d="M10.51.77c.26.32.78.06,1.19.09l.15,0A.21.21,0,0,0,12,.55c-.27-.73-.35-1.51-.68-2.25a5.67,5.67,0,0,0-.57,1.39C10.66.06,10.24.45,10.51.77Z"/><path class="cls-3" d="M12.77.9c.42-.18.84-.07,1.29-.23-.24-.6-.46-1.18-.69-1.76A3,3,0,0,0,12.77.9Z"/><path class="cls-3" d="M16.44.71a8,8,0,0,0-1.06-2.33c-.08,0-.12,0-.12.06-.08.3-.17.6-.23.9C14.72.85,14.78.91,16.44.71Z"/><path class="cls-3" d="M17.1.74a4.18,4.18,0,0,0,1.41,0,9.35,9.35,0,0,0-1-2.38A8.73,8.73,0,0,0,17.1.74Z"/><path class="cls-3" d="M7.71.84A24.34,24.34,0,0,0,6.58-1.83c-.1.06-.16.07-.19.11C6-1.12,5.88-.38,5.45.22c-.2.28,0,.49.33.56A6.47,6.47,0,0,0,7.71.84Z"/><path class="cls-3" d="M8.78.85l.47,0c.31,0,.47-.09.39-.4a11.45,11.45,0,0,0-.39-2.1A8.08,8.08,0,0,0,8.3.06C7.94.63,8.07.8,8.78.85Z"/><path class="cls-2" d="M12.23.24A4.16,4.16,0,0,0,13-1.87c0-.18-.1-.29-.29-.3a4.87,4.87,0,0,0-.54,0c-.34,0-.46.17-.37.51C11.92-1.06,12.06-.46,12.23.24Z"/><path class="cls-2" d="M16.94-.88c.24-1.41.23-1.41-1.19-1.36l-.22.1c.56.67.67,1.52,1.16,2.21A1.74,1.74,0,0,0,16.94-.88Z"/><path class="cls-2" d="M14.45.26c.06-.66.38-1.26.42-1.91,0-.16.06-.32,0-.45a1.78,1.78,0,0,0-1,0,.56.56,0,0,0-.19.63A4.64,4.64,0,0,0,14.45.26Z"/><path class="cls-2" d="M10.16.24A9.27,9.27,0,0,0,11-2.14a3,3,0,0,0-1.46,0c.09.43.15.85.27,1.24S9.74-.12,10.16.24Z"/><path class="cls-2" d="M9-2.19a6.91,6.91,0,0,0-2.08,0,14.66,14.66,0,0,0,1,2.24A6.93,6.93,0,0,0,9-2.19Z"/><path d="M18.72,0A1.78,1.78,0,0,1,19,.77a4.2,4.2,0,0,1-.55,1.7,29.79,29.79,0,0,1-2.3,4.09A18.83,18.83,0,0,1,13,10.05a4.22,4.22,0,0,1-.71.48c-.53.27-.62.2-1.06-.22A35,35,0,0,1,8.5,7.07a12.39,12.39,0,0,1-1-1.66c-.5-.86-1-1.72-1.54-2.54A7.35,7.35,0,0,1,5.1,1.1,1.58,1.58,0,0,1,5.21-.23C5.53-.8,5.79-1.39,6.1-2a1,1,0,0,1,1-.58c1.75,0,3.5,0,5.25.08,1.49,0,3,0,4.47-.08a.92.92,0,0,1,1.09.71C18.12-1.2,18.46-.6,18.72,0ZM15.53-2.14c.56.67.67,1.52,1.16,2.21a1.74,1.74,0,0,0,.25-.95c.24-1.41.23-1.41-1.19-1.36ZM15-.66C14.72.85,14.78.91,16.44.71a8,8,0,0,0-1.06-2.33c-.08,0-.12,0-.12.06C15.18-1.26,15.09-1,15-.66Zm-1.4-.84A4.64,4.64,0,0,0,14.45.26c.06-.66.38-1.26.42-1.91,0-.16.06-.32,0-.45a1.78,1.78,0,0,0-1,0A.56.56,0,0,0,13.63-1.5Zm-.26.41a3,3,0,0,0-.6,2c.42-.18.84-.07,1.29-.23C13.82.07,13.6-.51,13.37-1.09Zm-1.61-.58c.16.61.3,1.21.47,1.91A4.16,4.16,0,0,0,13-1.87c0-.18-.1-.29-.29-.3a4.87,4.87,0,0,0-.54,0C11.79-2.17,11.67-2,11.76-1.67Zm-.42,0a5.67,5.67,0,0,0-.57,1.39c-.11.37-.53.76-.26,1.08s.78.06,1.19.09l.15,0A.21.21,0,0,0,12,.55C11.75-.18,11.67-1,11.34-1.7Zm-1.8-.48c.09.43.15.85.27,1.24s-.07.82.35,1.18A9.27,9.27,0,0,0,11-2.14,3,3,0,0,0,9.54-2.18Zm-.29.57A8.08,8.08,0,0,0,8.3.06c-.36.57-.23.74.48.79l.47,0c.31,0,.47-.09.39-.4A11.45,11.45,0,0,0,9.25-1.61ZM6.89-2.19a14.66,14.66,0,0,0,1,2.24A6.93,6.93,0,0,0,9-2.19,6.91,6.91,0,0,0,6.89-2.19ZM5.78.78A6.47,6.47,0,0,0,7.71.84,24.34,24.34,0,0,0,6.58-1.83c-.1.06-.16.07-.19.11C6-1.12,5.88-.38,5.45.22,5.25.5,5.49.71,5.78.78ZM11.22,8.7a31.69,31.69,0,0,0-.72-3.21,27.75,27.75,0,0,1-1-3.79c-.06-.43-.22-.5-.57-.49-1.1,0-2.2,0-3.41,0C6,2.85,7.18,4.06,7.92,5.49A20.42,20.42,0,0,0,11,9.56c.11.12.2.33.45.27A2.9,2.9,0,0,0,11.22,8.7ZM13,7.12c.33-1.23.63-2.48.92-3.72.14-.61.25-1.23.34-1.85.06-.43,0-.54-.47-.47a31.46,31.46,0,0,1-3.36.14c-.45,0-.57.14-.51.57a15.5,15.5,0,0,0,.36,1.61c.32,1.26.81,2.48,1,3.78.12.79.39,1.55.63,2.47A9.17,9.17,0,0,0,13,7.12ZM17.83,1.2a18.64,18.64,0,0,1-2.59-.09c-.41-.06-.63.13-.72.54-.17.85-.39,1.68-.54,2.53a23.84,23.84,0,0,1-1.5,5.18c-.08.18-.25.37-.09.59a.79.79,0,0,0,.41-.2A16.54,16.54,0,0,0,15,7.49a15.13,15.13,0,0,0,2.16-3.26,14.25,14.25,0,0,0,1.16-2.39C18.47,1.26,18.44,1.21,17.83,1.2Zm.68-.48a9.35,9.35,0,0,0-1-2.38A8.73,8.73,0,0,0,17.1.74,4.18,4.18,0,0,0,18.51.72Z"/><path class="cls-2" d="M39.93,35.82a17.31,17.31,0,0,1-2.39-.08c-.38-.06-.59.12-.67.5-.15.78-.36,1.56-.5,2.34A21.64,21.64,0,0,1,35,43.38c-.07.17-.23.34-.08.55a.72.72,0,0,0,.38-.19,15.28,15.28,0,0,0,2-2.09,13.77,13.77,0,0,0,2-3,13.4,13.4,0,0,0,1.08-2.22C40.53,35.88,40.5,35.83,39.93,35.82Z"/><path class="cls-2" d="M33.15,39.8a26.75,26.75,0,0,1-.91-3.52c-.06-.4-.21-.45-.53-.45-1,0-2,0-3.16,0,.47,1.52,1.52,2.64,2.21,4a19.07,19.07,0,0,0,2.83,3.77c.1.11.18.3.41.25a2.71,2.71,0,0,0-.19-1A27.11,27.11,0,0,0,33.15,39.8Z"/><path class="cls-3" d="M36.27,37.86c.13-.57.23-1.14.32-1.71,0-.4,0-.5-.44-.44a27.13,27.13,0,0,1-3.12.13c-.41,0-.52.13-.46.53a15.19,15.19,0,0,0,.32,1.49,34.69,34.69,0,0,1,.94,3.5c.11.73.36,1.44.58,2.29a8.63,8.63,0,0,0,1-2.34C35.73,40.17,36,39,36.27,37.86Z"/><path class="cls-3" d="M33.16,35.42c.24.3.72.06,1.09.09l.15,0a.19.19,0,0,0,.15-.27c-.24-.68-.32-1.4-.63-2.08a6.16,6.16,0,0,0-.53,1.29C33.29,34.76,32.91,35.12,33.16,35.42Z"/><path class="cls-3" d="M35.25,35.54c.39-.16.78-.06,1.2-.2l-.64-1.63A2.73,2.73,0,0,0,35.25,35.54Z"/><path class="cls-3" d="M38.65,35.37a7.33,7.33,0,0,0-1-2.16c-.07,0-.11,0-.12.06-.07.27-.15.55-.21.83C37.05,35.5,37.11,35.56,38.65,35.37Z"/><path class="cls-3" d="M39.27,35.4a4.07,4.07,0,0,0,1.3,0,8.74,8.74,0,0,0-.92-2.21A7.84,7.84,0,0,0,39.27,35.4Z"/><path class="cls-3" d="M30.56,35.49a23.7,23.7,0,0,0-1-2.48,1.27,1.27,0,0,0-.18.11c-.37.56-.48,1.24-.87,1.8-.18.26,0,.45.31.51A6.13,6.13,0,0,0,30.56,35.49Z"/><path class="cls-3" d="M31.56,35.5l.43,0c.29,0,.43-.09.37-.38A10.46,10.46,0,0,0,32,33.22a7,7,0,0,0-.88,1.55C30.77,35.3,30.9,35.45,31.56,35.5Z"/><path class="cls-2" d="M34.75,34.94a3.84,3.84,0,0,0,.67-2c0-.17-.09-.27-.26-.28h-.5c-.32,0-.43.16-.34.48C34.46,33.73,34.59,34.29,34.75,34.94Z"/><path class="cls-2" d="M39.11,33.9c.22-1.31.22-1.31-1.09-1.26,0,0-.05,0-.21.09.52.62.62,1.41,1.07,2.05A1.49,1.49,0,0,0,39.11,33.9Z"/><path class="cls-2" d="M36.8,35c.06-.62.36-1.17.39-1.78,0-.14.06-.29,0-.42a1.79,1.79,0,0,0-.92,0,.51.51,0,0,0-.18.59A4.38,4.38,0,0,0,36.8,35Z"/><path class="cls-2" d="M32.83,34.93a8.27,8.27,0,0,0,.78-2.2,2.85,2.85,0,0,0-1.36,0c.09.4.14.79.26,1.15S32.45,34.6,32.83,34.93Z"/><path class="cls-2" d="M31.73,32.68a6.57,6.57,0,0,0-1.93,0,13.09,13.09,0,0,0,.9,2.07A6.48,6.48,0,0,0,31.73,32.68Z"/><path d="M40.77,34.73a1.67,1.67,0,0,1,.2.69,3.91,3.91,0,0,1-.5,1.58,28.74,28.74,0,0,1-2.13,3.79A18.93,18.93,0,0,1,35.45,44a4.73,4.73,0,0,1-.66.44c-.5.25-.57.18-1-.21a30,30,0,0,1-2.51-3,10.17,10.17,0,0,1-1-1.54c-.46-.79-.9-1.59-1.43-2.35a7.37,7.37,0,0,1-.77-1.63,1.44,1.44,0,0,1,.11-1.24c.29-.53.53-1.08.82-1.61a.91.91,0,0,1,.92-.54c1.62,0,3.24,0,4.87.07,1.37,0,2.75,0,4.13-.07A.86.86,0,0,1,40,33C40.21,33.6,40.53,34.15,40.77,34.73Zm-3-2c.52.62.62,1.41,1.07,2.05a1.49,1.49,0,0,0,.23-.88c.22-1.31.22-1.31-1.09-1.26C38,32.64,38,32.66,37.81,32.73Zm-.47,1.37c-.29,1.4-.23,1.46,1.31,1.27a7.33,7.33,0,0,0-1-2.16c-.07,0-.11,0-.12.06C37.48,33.54,37.4,33.82,37.34,34.1Zm-1.29-.77A4.38,4.38,0,0,0,36.8,35c.06-.62.36-1.17.39-1.78,0-.14.06-.29,0-.42a1.79,1.79,0,0,0-.92,0A.51.51,0,0,0,36.05,33.33Zm-.24.38a2.73,2.73,0,0,0-.56,1.83c.39-.16.78-.06,1.2-.2Zm-1.49-.54c.14.56.27,1.12.43,1.77a3.84,3.84,0,0,0,.67-2c0-.17-.09-.27-.26-.28h-.5C34.34,32.7,34.23,32.85,34.32,33.17Zm-.4,0a6.16,6.16,0,0,0-.53,1.29c-.1.33-.48.69-.23,1s.72.06,1.09.09l.15,0a.19.19,0,0,0,.15-.27C34.31,34.54,34.23,33.82,33.92,33.14Zm-1.67-.45c.09.4.14.79.26,1.15s-.06.76.32,1.09a8.27,8.27,0,0,0,.78-2.2A2.85,2.85,0,0,0,32.25,32.69Zm-.26.53a7,7,0,0,0-.88,1.55c-.34.53-.21.68.45.73l.43,0c.29,0,.43-.09.37-.38A10.46,10.46,0,0,0,32,33.22Zm-2.19-.54a13.09,13.09,0,0,0,.9,2.07,6.48,6.48,0,0,0,1-2.07A6.57,6.57,0,0,0,29.8,32.68Zm-1,2.75a6.13,6.13,0,0,0,1.78.06,23.7,23.7,0,0,0-1-2.48,1.27,1.27,0,0,0-.18.11c-.37.56-.48,1.24-.87,1.8C28.29,35.18,28.5,35.37,28.78,35.43Zm5,7.34a27.11,27.11,0,0,0-.66-3,26.75,26.75,0,0,1-.91-3.52c-.06-.4-.21-.45-.53-.45-1,0-2,0-3.16,0,.47,1.52,1.52,2.64,2.21,4a19.07,19.07,0,0,0,2.83,3.77c.1.11.18.3.41.25A2.71,2.71,0,0,0,33.81,42.77Zm1.61-1.46c.31-1.14.58-2.3.85-3.45.13-.57.23-1.14.32-1.71,0-.4,0-.5-.44-.44a27.13,27.13,0,0,1-3.12.13c-.41,0-.52.13-.46.53a15.19,15.19,0,0,0,.32,1.49,34.69,34.69,0,0,1,.94,3.5c.11.73.36,1.44.58,2.29A8.63,8.63,0,0,0,35.42,41.31Zm4.51-5.49a17.31,17.31,0,0,1-2.39-.08c-.38-.06-.59.12-.67.5-.15.78-.36,1.56-.5,2.34A21.64,21.64,0,0,1,35,43.38c-.07.17-.23.34-.08.55a.72.72,0,0,0,.38-.19,15.28,15.28,0,0,0,2-2.09,13.77,13.77,0,0,0,2-3,13.4,13.4,0,0,0,1.08-2.22C40.53,35.88,40.5,35.83,39.93,35.82Zm.64-.44a8.74,8.74,0,0,0-.92-2.21,7.84,7.84,0,0,0-.38,2.23A4.07,4.07,0,0,0,40.57,35.38Z"/></pattern></defs><g id="_6_t-shirt" data-name="6_t-shirt"><path class="cls-4" d="M349.11,489.2a.34.34,0,0,0,0-.1,4.67,4.67,0,0,1-2-.12c-1.68-.6-2.73-2.9-3.15-4.51-.62-2.37-.89-4.86-1.3-7.27l-1.29-7.63-2.58-15.27q-2.56-15.21-5.14-30.41a2,2,0,0,1,1.4-2.46,2,2,0,0,1,2.46,1.4q1.41,8.31,2.81,16.62l5,29.79c.32,1.94.65,3.89,1,5.83l19.2-4.34L399.92,463c10.87-2.46,21.92-4.59,32.5-8.19-.22-1.23-.45-2.46-.67-3.68-1.68-9.15-3.44-18.3-5.73-27.32a140.35,140.35,0,0,0-63.9-86.07,1.61,1.61,0,0,1-.47,2.09l-6.13,5.1-25.3,21c-2.84,2.35-5.66,4.73-8.5,7.09a2,2,0,0,1-.74.81,1.54,1.54,0,0,1-.46.19c-4.79,4-9.62,7.9-14.64,11.57-15.77,11.53-34,18.58-53,22.59a242.8,242.8,0,0,1-29.17,4.21c-10.49.9-21.1,1-31.5-.82A81.3,81.3,0,0,1,146.13,386a79.5,79.5,0,0,1-5.57-7,1.87,1.87,0,0,1-.62-.23,2.15,2.15,0,0,1-1-2.1,82.14,82.14,0,0,1-13.38-40.3,2,2,0,0,1,0-.6c-6.56,5-13.64,10.44-19,16.62-1.84,2.13-4.32,3.65-6.17,5.81-1,1.15-1.91,2.36-2.84,3.56-11.47,14.93-22.4,30-31.09,46.73A239.26,239.26,0,0,0,52,442.91a1.57,1.57,0,0,1,.78.28q6.08,4.46,12.55,8.32a231.38,231.38,0,0,0,24.56,12.14l24.74,11c.33-1.86.65-3.72,1.06-5.55.65-2.83,1.31-5.66,2-8.47q2.1-8.58,4.52-17.06t5.14-16.88c.47-1.46.95-2.91,1.43-4.36.37-1.09.69-2.27,1.74-2.89s2.83-.48,2.68,1.11c-.33,3.52-2,7.29-3.1,10.65-.93,2.92-1.82,5.85-2.69,8.79-2.8,9.48-5,19.13-7.53,28.68-1.31,4.87-2.71,9.71-4.36,14.48-1.26,3.63-3.25,5.67-7.38,4.64-.49,1.85-.93,3.72-1.3,5.6s-.7,3.92-.89,5.42a2.66,2.66,0,0,1-.44,1.19H349.39s0-.05,0-.08A79.89,79.89,0,0,0,349.11,489.2Z"/></g></svg>