<svg id="T-shirt_single_image" xmlns="http://www.w3.org/2000/svg" viewBox="0 0 500 500"><defs><style>.cls-1{fill:#fbb03b;}.cls-2{fill:#f6a3ad;}.cls-3{fill:#fcfbfa;}.cls-4{fill:#434845;}</style></defs><g id="_5_t-shirt_single_im" data-name="5_t-shirt_single_im"><path class="cls-1" d="M194.72,451.51c-1.6.89-2.25.59-2.84-.91-.34-.86-.48-.9-1.21-.41a5.48,5.48,0,0,0-2.18,4.06c-.11,1.64,0,2.11.62,3,.82,1.22,1.66,1.29,2.83.42.49-.37.24-.79.36-1.18a.41.41,0,0,1,.41-.34.33.33,0,0,1,.32.4,4.25,4.25,0,0,0,.41,2.14,2.48,2.48,0,0,0,2.53,1.79c1-.05,1.66-.73,2.05-2,.85-2.71-.23-4.85-1.93-6.82C195.68,451.22,195.34,451.17,194.72,451.51Zm-4.59,3.75a.37.37,0,0,1-.29-.42.39.39,0,0,1,.44-.28c.29,0,.22.24.24.4S190.35,455.31,190.13,455.26Zm.89-2c0,.2-.16.36-.41.26a.45.45,0,0,1-.28-.44c.08-.2.22-.33.44-.26A.35.35,0,0,1,191,453.27Zm6.21,4.4c.21,0,.34.1.39.33s-.13.2-.26.21-.36-.06-.38-.28A.24.24,0,0,1,197.23,457.67Zm-.51-2.54a.29.29,0,0,1,.25.4c-.08.21-.26.38-.43.33s-.12-.33-.12-.51A.24.24,0,0,1,196.72,455.13Z"/><path class="cls-1" d="M217.57,457.55c.13-.2.39-.36.25-.63s-.5-.25-.77-.22c-.73.06-1.46.21-2.19.23-3.42.06-5.87,1.75-7.89,4.65.58.24.92.42,1.29.53a3.85,3.85,0,0,1,2.85,3.34c.08.53.08,1.08.12,1.61a1.8,1.8,0,0,0,.73,1.38,5.49,5.49,0,0,0,8.24-1.6,46.68,46.68,0,0,0,2.56-6.36,7.46,7.46,0,0,0,.34-1.43c.15-.9,0-1.17-.89-1.32s-1.05,0-1.2.94a7.06,7.06,0,0,1-2,3.7c-.79.88-1.73.82-3-.07-.57-.39-.59-.85-.07-2A17.59,17.59,0,0,1,217.57,457.55Zm-.84,6.68a2.06,2.06,0,0,1,1.39,1.86c-.05.52-1,1.09-1.6,1a1.53,1.53,0,0,1-1.11-1.52C215.48,464.93,216.23,464.17,216.73,464.23Z"/><path class="cls-1" d="M189.46,448.2c1-.36,1.93-.67,2.88-1,1.83-.7,2.13-2.44.68-3.79a5.78,5.78,0,0,1-1.11-1.15c-.58-.9-1-.91-1.6,0a11.24,11.24,0,0,0-1.89,4.87c0,.1,0,.2,0,.29C188.36,448.48,188.48,448.57,189.46,448.2Zm1.59-1.37a.63.63,0,0,1-.7-.74c0-.57.39-.74.91-.67a.66.66,0,0,1,.72.74C192,446.75,191.52,446.83,191.05,446.83Zm2-2.46a.4.4,0,0,1,.16.6.34.34,0,0,1-.51.07,3.56,3.56,0,0,0-2.69-.82A2.54,2.54,0,0,1,193,444.37Z"/><path class="cls-2" d="M195.69,437.47a4.44,4.44,0,0,0,.71.21.27.27,0,0,0,.2,0c.06,0,.08-.11.1-.18a7.35,7.35,0,0,1,.66-1.62l.69-1.34c-.34-.27-2.08,2.18-2.29,2.47l-.11.15c-.06.09-.11.2-.05.28A.16.16,0,0,0,195.69,437.47Z"/><path class="cls-2" d="M206.13,442.35c.07,0,.18,0,.32.08.52-.86.4-1.81.53-3.06l-1.07,1.28C205.11,441.6,205.1,441.61,206.13,442.35Z"/><path class="cls-2" d="M189.26,462.92a3.13,3.13,0,0,0,3.54-1c.68-.85.54-2.15-.58-3.73C192.42,460.7,191,461.88,189.26,462.92Z"/><path class="cls-2" d="M193.5,451.26c.54.06,1.53-.63,1.54-1.08s-1.08-1.11-2-1.18c-.4,0-.68.05-.64.51C192.31,450.52,192.73,451.18,193.5,451.26Z"/><path class="cls-3" d="M195.41,438.62c.87-.13,1.77-.08,2.64-.22,1,.13,1-.12,1.49-1.42.64-1.89,1-3.9,2.65-5.57a6.39,6.39,0,0,0-3.48.8,8.92,8.92,0,0,0-2.63,2.29,22.68,22.68,0,0,0-2.89,4.61c.06-.13.94-.23,1.1-.27C194.66,438.76,195,438.67,195.41,438.62Zm-.16-1.69c.65-.85,1.35-1.67,2-2.49.38-.44.78-.89,1.56-.62-.7,1.44-1.57,2.8-1.63,4.43-.42,0-.84,0-1.27,0h-.08C194.68,438.09,194.55,437.85,195.25,436.93Z"/><path class="cls-3" d="M216.45,460.45a1,1,0,0,0,.18,1.19c.72.79,1.36.9,2.13.16a6.42,6.42,0,0,0,1.7-3.51,10.38,10.38,0,0,1,1-2.89,29.11,29.11,0,0,1,2.44-3.66c.65-.88,1.29-1.77,2.11-2.89a1.84,1.84,0,0,0-1.21.69,62.94,62.94,0,0,0-6.16,7.3A16.56,16.56,0,0,0,216.45,460.45Z"/><path class="cls-3" d="M206.73,460.88a11.46,11.46,0,0,1,4.62-3.7c1.94-1,4.11-.74,6.17-1.12,1.17-.22,1.55-.37,2-1.77a2.4,2.4,0,0,1-1.66-.7,10,10,0,0,0-6.77-2.35c-1,0-1,0-.93-.89a8.2,8.2,0,0,0-.72-4c-.56-1.35-.58-1.34-1.74-.54,0,0-.1,0-.34,0a12.71,12.71,0,0,0,1.63-5.84c-.09-2.06.06-4.18-1.24-6.16-.65,1.1-1.19,2.08-1.79,3s-1.2,1.79-1.78,2.7c-1.46,2.3-1.46,2.3-1.92,2.37,0-.59.56-1,.51-1.56a4,4,0,0,0-1.79-.71c-3.22-.89-6.36-1.09-9.14,1.35a6,6,0,0,0,1.63,1.95,3,3,0,0,1,.9,3.42,2.38,2.38,0,0,1-1.4,1.38c-.88.26-1.76.55-2.65.8-1.88.53-1.88.53-1.75,2.81a7.69,7.69,0,0,1,2.78-2.14c.41-.13.25-.48.5-.73.71-.7,1.88.09,2.6.4.5.2,1.09.42,1.28.94a12.52,12.52,0,0,0,1.7,2.54c1.51,2.31,2.13,4.7.86,7.33a2.8,2.8,0,0,0-.1.66A14.47,14.47,0,0,0,201,458.6c.82-.61,1.58-1.3,2.37-2a16.78,16.78,0,0,0,1.89-2.42c.66-.78.29-2,1.36-2.85a8.9,8.9,0,0,1-2.59,5.26,25.74,25.74,0,0,1-4.16,3.49,1.92,1.92,0,0,0-.87,1.3,14.13,14.13,0,0,0-.32,2,42.16,42.16,0,0,0-.07,8.48c.26,1.89.13,3.82.47,5.71a6.42,6.42,0,0,0,.69,2.24,1.18,1.18,0,0,0,2.14.12c1.24-1.53.94-4.84.94-6.68a14.41,14.41,0,0,1,0-3.77c.26-1,.45-1.87-.36-2.67a1.21,1.21,0,0,1-.23-.38c-.1-.23-.17-.5.07-.66s.39.06.53.26.31.64.69.63C204.54,464.73,205.52,462.76,206.73,460.88Zm-7.47-10.83c-.59,0-.95-.41-.86-.91s.91-.83,1.55-.8a.59.59,0,0,1,.61.65A1.12,1.12,0,0,1,199.26,450.05Zm3.13-.22a.3.3,0,0,1-.44-.23c-.15-1.44-1.31-1.78-2.36-2.33-.59-.31-1.16.26-1.72-.18a1.16,1.16,0,0,1,1.5-.57,10.44,10.44,0,0,1,2.25,1,2.64,2.64,0,0,1,1,1.91A.48.48,0,0,1,202.39,449.83Zm4.22-6.24a.44.44,0,0,1-.48-.23,3.47,3.47,0,0,0-.68-.94c-1.06-.78-1.07-.82-.26-1.73s1.47-2.16,2.38-3.34c.49,1-.06,1.64-.09,2.34a29.67,29.67,0,0,1-.52,3.47A.5.5,0,0,1,206.61,443.59Z"/><path class="cls-3" d="M228.9,463.53a8.34,8.34,0,0,0-4.6-5c-.4.19-.35.54-.45.8q-1.26,3.27-2.5,6.56c-1.25,3.29-4.81,5.44-8.31,3.87-1.63-.73-2.72-1.67-2.56-3.62a3.59,3.59,0,0,0-1.35-3,3.21,3.21,0,0,0-2.17-.75c-.79,0-.76.79-1.11,1.22a5.84,5.84,0,0,0-.48.74,15.35,15.35,0,0,0-2,9c.11,1.68.52,3.28.76,4.92a104.75,104.75,0,0,0,2,11.11,14.91,14.91,0,0,0,1.12,2.7,2,2,0,0,0,1.48,1.11.81.81,0,0,0,1-.43,13.51,13.51,0,0,0,1.67-5.73c.12-1.4-.12-2.83-.12-4.25a20.94,20.94,0,0,1,.31-4.4c.1-.48.31-.75.79-.41,1.74,1.24,3.76,1.25,5.76,1.37a5.52,5.52,0,0,0,4.13-1.11.7.7,0,0,1,1.19.28,4.84,4.84,0,0,1,.64,2.39c-.12,1.76.06,3.52,0,5.28a32.65,32.65,0,0,0,.67,5.83,2.09,2.09,0,0,0,3.35,1.35c1.42-.93,1.4-4.21,1.6-5.73.5-3.94.55-7.92.83-11.89a33.26,33.26,0,0,0-.05-6.31A25.29,25.29,0,0,0,228.9,463.53Z"/><path class="cls-3" d="M221.6,456.42c-.18.49.19.62.51.68a9.46,9.46,0,0,1,2.26.46,7.63,7.63,0,0,0-2-1.44C222,456,221.76,456,221.6,456.42Z"/><path class="cls-4" d="M216.85,466.38c.32,0,.53-.19.57-.62-.15-.33-.36-.73-.87-.71-.33,0-.44.34-.43.64A.64.64,0,0,0,216.85,466.38Z"/><path class="cls-4" d="M191.41,446a.38.38,0,0,0-.65.07c-.11.28.27.53.51.4a.34.34,0,0,0,.18-.33h0A.31.31,0,0,0,191.41,446Z"/><path class="cls-4" d="M199.69,448.9a.41.41,0,0,0-.38-.11.42.42,0,0,0-.33.19.23.23,0,0,0,.05.28c0,.19.22.25.4.24a.37.37,0,0,0,.35-.37.35.35,0,0,0,0-.12A.3.3,0,0,0,199.69,448.9Z"/><path d="M231,475.86v0a33.5,33.5,0,0,0,.15-6.49,36.59,36.59,0,0,0-1.4-5.12,13.48,13.48,0,0,0-2.79-4.72c-1.07-1.23-2.35-2.94-3.84-3.69-.87-.45-1-.72-.5-1.41a47.82,47.82,0,0,1,3.11-4.26,7.33,7.33,0,0,0,1-1.48.6.6,0,0,0-.08-.81c-.21-.17-.46,0-.67.11a8.06,8.06,0,0,0-1.29,1c-1.32,1.45-2.74,2.82-3.95,4.36-.32.4-.59.61-1.1.31a12.87,12.87,0,0,1-2.56-1.43,4.3,4.3,0,0,0-2-1,13,13,0,0,0-3-.58c-.74,0-1.1-.2-1.2-1.06a9.32,9.32,0,0,0-1.74-5.07,1,1,0,0,1-.05-1c.71-2.31.45-4.66.29-7a8.72,8.72,0,0,0-1.14-3.15c-.13-.27-.32-.55-.67-.47s-.31.33-.41.56a22.77,22.77,0,0,1-2.91,4.92c-.93,1.21-1.44,1.29-2.87.65a7.89,7.89,0,0,0-.92-.46c-.57-.18-.64-.55-.48-1,.75-2.16,1.12-4.5,3-6.14.18-.16.37-.35.18-.62a.58.58,0,0,0-.65-.22,10.46,10.46,0,0,0-5.8,2.57,23.41,23.41,0,0,0-3.8,5.38,7.58,7.58,0,0,1-1.41,1.84,10.41,10.41,0,0,0-3.68,8.32,34,34,0,0,1,0,6.38,3.68,3.68,0,0,0,.57,2.38c.56.92,1.18,1.73,2.45,1.47.75-.15.82.26.71.85a2.33,2.33,0,0,1-.52,1,4.64,4.64,0,0,1-1.71,1.34.89.89,0,0,0-.62,1,.91.91,0,0,0,1,.64,6,6,0,0,0,2.77-.79c1-.53.87-2,1.74-2.11s1.9.36,2.87,0a1.49,1.49,0,0,1,1.21.11c-.18,1.66-.11,3.35-.36,5-.35,2.36.13,4.7.2,7a24.83,24.83,0,0,0,.6,5.83,4.69,4.69,0,0,0,.5,1.37c.88,1.39,2.21,1.42,3.19.08a2.45,2.45,0,0,0,.46-1.37c0-.29-.07-.7.39-.83a1.66,1.66,0,0,1,.4,1.08c.39,2.66.69,5.33,1.32,8a17.52,17.52,0,0,0,1.94,5.66,2,2,0,0,0,3.42,0,10.59,10.59,0,0,0,.84-2,18.16,18.16,0,0,0,.69-6.51,31.89,31.89,0,0,1,.07-4.26c.13-1.26.11-1.26,1.26-.87a9.93,9.93,0,0,0,2.41.62c2.48.17,5,.64,7.27-1a6,6,0,0,1,.63,2.54c0,2.35,0,4.7.11,7a18.84,18.84,0,0,0,.66,4.35c.29,1,2,2.17,2.78,1.94a3.28,3.28,0,0,0,2.36-2.4,53.44,53.44,0,0,0,1-6.66C230.67,482.35,230.8,479.09,231,475.86Zm-8.59-19.74a7.63,7.63,0,0,1,2,1.44,9.46,9.46,0,0,0-2.26-.46c-.32-.06-.69-.19-.51-.68S222,456,222.41,456.12ZM216,462.3c1.29.89,2.23.95,3,.07a7.06,7.06,0,0,0,2-3.7c.15-1,.35-1.09,1.2-.94s1,.42.89,1.32a7.46,7.46,0,0,1-.34,1.43,46.68,46.68,0,0,1-2.56,6.36,5.49,5.49,0,0,1-8.24,1.6,1.8,1.8,0,0,1-.73-1.38c0-.53,0-1.08-.12-1.61a3.85,3.85,0,0,0-2.85-3.34c-.37-.11-.71-.29-1.29-.53,2-2.9,4.47-4.59,7.89-4.65.73,0,1.46-.17,2.19-.23.27,0,.61-.13.77.22s-.12.43-.25.63a17.59,17.59,0,0,0-1.63,2.78C215.42,461.45,215.44,461.91,216,462.3Zm8.81-12.76a1.84,1.84,0,0,1,1.21-.69c-.82,1.12-1.46,2-2.11,2.89a29.11,29.11,0,0,0-2.44,3.66,10.38,10.38,0,0,0-1,2.89,6.42,6.42,0,0,1-1.7,3.51c-.77.74-1.41.63-2.13-.16a1,1,0,0,1-.18-1.19,16.56,16.56,0,0,1,2.21-3.61A62.94,62.94,0,0,1,224.82,449.54Zm-28.74-15a8.92,8.92,0,0,1,2.63-2.29,6.39,6.39,0,0,1,3.48-.8c-1.64,1.67-2,3.68-2.65,5.57-.44,1.3-.49,1.55-1.49,1.42-.87.14-1.77.09-2.64.22-.38.05-.75.14-1.12.22-.16,0-1,.14-1.1.27A22.68,22.68,0,0,1,196.08,434.5Zm-7.68,12.93c0-.09,0-.19,0-.29a11.24,11.24,0,0,1,1.89-4.87c.56-1,1-.95,1.6,0a5.78,5.78,0,0,0,1.11,1.15c1.45,1.35,1.15,3.09-.68,3.79-1,.37-1.92.68-2.88,1S188.36,448.48,188.4,447.43Zm4.4,14.46a3.13,3.13,0,0,1-3.54,1c1.71-1,3.16-2.22,3-4.76C193.34,459.74,193.48,461,192.8,461.89Zm5.22-3.38c-.39,1.25-1,1.93-2.05,2a2.48,2.48,0,0,1-2.53-1.79,4.25,4.25,0,0,1-.41-2.14.33.33,0,0,0-.32-.4.41.41,0,0,0-.41.34c-.12.39.13.81-.36,1.18-1.17.87-2,.8-2.83-.42-.62-.9-.73-1.37-.62-3a5.48,5.48,0,0,1,2.18-4.06c.73-.49.87-.45,1.21.41.59,1.5,1.24,1.8,2.84.91.62-.34,1-.29,1.37.18C197.79,453.66,198.87,455.8,198,458.51ZM193,449c.93.07,2,.7,2,1.18s-1,1.14-1.54,1.08c-.77-.08-1.19-.74-1.11-1.75C192.35,449.05,192.63,449,193,449Zm9.19,17.5a1.21,1.21,0,0,0,.23.38c.81.8.62,1.69.36,2.67a14.41,14.41,0,0,0,0,3.77c0,1.84.3,5.15-.94,6.68a1.18,1.18,0,0,1-2.14-.12,6.42,6.42,0,0,1-.69-2.24c-.34-1.89-.21-3.82-.47-5.71a42.16,42.16,0,0,1,.07-8.48,14.13,14.13,0,0,1,.32-2,1.92,1.92,0,0,1,.87-1.3,25.74,25.74,0,0,0,4.16-3.49,8.9,8.9,0,0,0,2.59-5.26c-1.07.87-.7,2.07-1.36,2.85a16.78,16.78,0,0,1-1.89,2.42c-.79.65-1.55,1.34-2.37,2a14.47,14.47,0,0,1-2.76,1.71,2.8,2.8,0,0,1,.1-.66c1.27-2.63.65-5-.86-7.33a12.52,12.52,0,0,1-1.7-2.54c-.19-.52-.78-.74-1.28-.94-.72-.31-1.89-1.1-2.6-.4-.25.25-.09.6-.5.73a7.69,7.69,0,0,0-2.78,2.14c-.13-2.28-.13-2.28,1.75-2.81.89-.25,1.77-.54,2.65-.8a2.38,2.38,0,0,0,1.4-1.38,3,3,0,0,0-.9-3.42,6,6,0,0,1-1.63-1.95c2.78-2.44,5.92-2.24,9.14-1.35a4,4,0,0,1,1.79.71c0,.57-.55,1-.51,1.56.46-.07.46-.07,1.92-2.37.58-.91,1.21-1.78,1.78-2.7s1.14-1.93,1.79-3c1.3,2,1.15,4.1,1.24,6.16a12.71,12.71,0,0,1-1.63,5.84c.24,0,.31.07.34,0,1.16-.8,1.18-.81,1.74.54a8.2,8.2,0,0,1,.72,4c-.09.93,0,.88.93.89a10,10,0,0,1,6.77,2.35,2.4,2.4,0,0,0,1.66.7c-.45,1.4-.83,1.55-2,1.77-2.06.38-4.23.08-6.17,1.12a11.46,11.46,0,0,0-4.62,3.7c-1.21,1.88-2.19,3.85-3.22,5.85-.38,0-.5-.35-.69-.63s-.24-.47-.53-.26S202.12,466.27,202.22,466.5Zm27.5,21.17c-.2,1.52-.18,4.8-1.6,5.73a2.09,2.09,0,0,1-3.35-1.35,32.65,32.65,0,0,1-.67-5.83c0-1.76-.14-3.52,0-5.28a4.84,4.84,0,0,0-.64-2.39.7.7,0,0,0-1.19-.28,5.52,5.52,0,0,1-4.13,1.11c-2-.12-4-.13-5.76-1.37-.48-.34-.69-.07-.79.41a20.94,20.94,0,0,0-.31,4.4c0,1.42.24,2.85.12,4.25a13.51,13.51,0,0,1-1.67,5.73.81.81,0,0,1-1,.43,2,2,0,0,1-1.48-1.11,14.91,14.91,0,0,1-1.12-2.7,104.75,104.75,0,0,1-2-11.11c-.24-1.64-.65-3.24-.76-4.92a15.35,15.35,0,0,1,2-9,5.84,5.84,0,0,1,.48-.74c.35-.43.32-1.23,1.11-1.22a3.21,3.21,0,0,1,2.17.75,3.59,3.59,0,0,1,1.35,3c-.16,1.95.93,2.89,2.56,3.62,3.5,1.57,7.06-.58,8.31-3.87q1.25-3.28,2.5-6.56c.1-.26.05-.61.45-.8a8.34,8.34,0,0,1,4.6,5,25.29,25.29,0,0,1,1.6,5.94,33.26,33.26,0,0,1,.05,6.31C230.27,479.75,230.22,483.73,229.72,487.67Z"/><path d="M195.87,438.26H196c.43,0,.85,0,1.27,0,.06-1.63.93-3,1.63-4.43-.78-.27-1.18.18-1.56.62-.69.82-1.39,1.64-2,2.49S194.68,438.09,195.87,438.26Zm-.11-1.27c.21-.29,2-2.74,2.29-2.47l-.69,1.34a7.35,7.35,0,0,0-.66,1.62c0,.07,0,.15-.1.18a.27.27,0,0,1-.2,0,4.44,4.44,0,0,1-.71-.21.16.16,0,0,1-.09-.05c-.06-.08,0-.19.05-.27Z"/><path d="M230.27,446.64c.41-.23.72-.16.84.14.42,1.1.95,2.21.27,3.44A8.52,8.52,0,0,0,230.27,446.64Z"/><path d="M230,449.92a5.35,5.35,0,0,0-1.18-2.76c-.15-.15-.06-.37.11-.51s.28-.15.38,0a4.84,4.84,0,0,1,1.16,2.9C230.45,449.75,230.24,449.84,230,449.92Z"/><path d="M207.57,437.35c.49,1-.06,1.64-.09,2.34a29.67,29.67,0,0,1-.52,3.47.5.5,0,0,1-.35.43.44.44,0,0,1-.48-.23,3.47,3.47,0,0,0-.68-.94c-1.06-.78-1.07-.82-.26-1.73S206.66,438.53,207.57,437.35Zm-.59,2-1.07,1.28c-.8,1-.81,1,.22,1.7.07,0,.18,0,.32.08C207,441.57,206.85,440.62,207,439.37Z"/><path d="M197.87,447.09a1.16,1.16,0,0,1,1.5-.57,10.44,10.44,0,0,1,2.25,1,2.64,2.64,0,0,1,1,1.91.48.48,0,0,1-.21.36.3.3,0,0,1-.44-.23c-.15-1.44-1.31-1.78-2.36-2.33C199,447,198.43,447.53,197.87,447.09Z"/><path d="M200,448.34c-.64,0-1.49.41-1.55.8s.27.88.86.91a1.12,1.12,0,0,0,1.3-1.06A.59.59,0,0,0,200,448.34Zm-.52,1.16c-.18,0-.36-.05-.4-.24A.23.23,0,0,1,199,449a.42.42,0,0,1,.33-.19.41.41,0,0,1,.38.11.3.3,0,0,1,.06.11.35.35,0,0,1,0,.12A.37.37,0,0,1,199.43,449.5Z"/><path d="M216.52,467.1a1.53,1.53,0,0,1-1.11-1.52c.07-.65.82-1.41,1.32-1.35a2.06,2.06,0,0,1,1.39,1.86C218.07,466.61,217.17,467.18,216.52,467.1Zm.9-1.34c-.15-.33-.36-.73-.87-.71-.33,0-.44.34-.43.64a.64.64,0,0,0,.73.69C217.17,466.36,217.38,466.19,217.42,465.76Z"/><path d="M190.33,453.09c.08-.2.22-.33.44-.26a.35.35,0,0,1,.25.44c0,.2-.16.36-.41.26A.45.45,0,0,1,190.33,453.09Z"/><path d="M190.52,455c0,.23-.17.35-.39.3a.37.37,0,0,1-.29-.42.39.39,0,0,1,.44-.28C190.57,454.56,190.5,454.8,190.52,455Z"/><path d="M197,455.53c-.08.21-.26.38-.43.33s-.12-.33-.12-.51a.24.24,0,0,1,.3-.22A.29.29,0,0,1,197,455.53Z"/><path d="M197.62,458c0,.16-.13.2-.26.21s-.36-.06-.38-.28a.24.24,0,0,1,.25-.26C197.44,457.65,197.57,457.77,197.62,458Z"/><path d="M190,444.22a2.54,2.54,0,0,1,3,.15.4.4,0,0,1,.16.6.34.34,0,0,1-.51.07A3.56,3.56,0,0,0,190,444.22Z"/><path d="M191.26,445.42c-.52-.07-.89.1-.91.67a.63.63,0,0,0,.7.74c.47,0,.93-.08.93-.67A.66.66,0,0,0,191.26,445.42Zm0,1c-.24.13-.62-.12-.51-.4a.38.38,0,0,1,.65-.07.31.31,0,0,1,0,.13h0A.34.34,0,0,1,191.27,446.42Z"/></g></svg>