<svg id="T-shirt_pattern" xmlns="http://www.w3.org/2000/svg" xmlns:xlink="http://www.w3.org/1999/xlink" viewBox="0 0 500 500"><defs><style>.cls-1{fill:none;}.cls-2{fill:#ed1c24;}.cls-3{opacity:0.64;}.cls-4{fill:#fcee21;}.cls-5{fill:#a03541;}.cls-6{fill:#c7a73c;}.cls-7{fill:url(#New_Pattern_33_copy);}</style><pattern id="New_Pattern_33_copy" data-name="New Pattern 33 copy" width="101.02" height="68.05" patternUnits="userSpaceOnUse" viewBox="0 0 101.02 68.05"><rect class="cls-1" width="101.02" height="68.05"/><path class="cls-2" d="M100.84,50.62a8.75,8.75,0,0,0-1.09,1.91l-1.21,2.18c-.8,1.45-1.61,2.91-2.4,4.37-1,1.81-2,3.62-3,5.44l-1.26,2.31c-.4.75-.6,1.14.3,1.63,1.25.68,2.54,1.12,3.81,1.71s2.47,1.32,3.71,2a2,2,0,0,0,1.06.3,2.34,2.34,0,0,0,0-.26,15.29,15.29,0,0,0,0-1.67c0-1.1-.11-2.2-.08-3.31q.07-2.75.09-5.49c0-1.88,0-3.77,0-5.65S101,52.39,100.84,50.62Z"/><g class="cls-3"><path class="cls-4" d="M100.9,74.41q0-2.75-.09-5.49c0-1.1.1-2.2.08-3.31a15.37,15.37,0,0,0,0-1.67,2.17,2.17,0,0,0,0-.25,1.91,1.91,0,0,0-1.06.29c-1.24.63-2.46,1.38-3.71,2s-2.56,1-3.81,1.71c-.9.49-.7.89-.3,1.64l1.26,2.3c1,1.82,2,3.63,3,5.45.79,1.45,1.6,2.91,2.4,4.36l1.21,2.18a8.52,8.52,0,0,0,1.09,1.91c.18-1.77,0-3.63,0-5.42S100.91,76.3,100.9,74.41Z"/></g><path d="M111,66.53a1.49,1.49,0,0,1,.25,1.24,2.06,2.06,0,0,1-.8.83q-2.28,1.59-4.68,3-1.2.7-2.43,1.35c-.62.33-1.39,1-2.13.7a25.5,25.5,0,0,1-2.69-1.4c-1.84-1-3.67-1.81-5.57-2.62-1.39-.58-2.76-1.34-1.86-3l1.32-2.46c.91-1.69,1.83-3.37,2.74-5q1.53-2.79,3.07-5.57c.41-.74.76-1.53,1.17-2.27.26-.48,1-2.18,1.67-2.22.85-.05,2.13,3.25,2.5,3.93q1.59,2.94,3.2,5.88l2.46,4.52,1.27,2.33C110.58,65.92,110.79,66.21,111,66.53ZM100.88,56c0-1.79.14-3.65,0-5.42a8.75,8.75,0,0,0-1.09,1.91l-1.21,2.18c-.8,1.45-1.61,2.91-2.4,4.37-1,1.81-2,3.62-3,5.44l-1.26,2.31c-.4.75-.6,1.14.3,1.63,1.25.68,2.54,1.12,3.81,1.71s2.47,1.32,3.71,2a2,2,0,0,0,1.06.3,2.34,2.34,0,0,0,0-.26,15.29,15.29,0,0,0,0-1.67c0-1.1-.11-2.2-.08-3.31q.07-2.75.09-5.49C100.91,59.81,100.91,57.92,100.88,56Zm8.94,10c-.6-1.1-1.15-2.21-1.77-3.29-1.41-2.44-2.75-4.93-4-7.48-.78-1.66-1.92-3.06-2.55-4.82a25.66,25.66,0,0,0,.11,4.11c.19,3.11.07,6.23.06,9.34a88.07,88.07,0,0,0,0,8.9c0-.17,3.48-1.74,3.87-2,1.46-.81,2.8-1.71,4.2-2.62C110.73,67.53,110.3,66.87,109.82,66Z"/><path d="M111.21,68.33a1.51,1.51,0,0,1-.25,1.25c-.17.31-.38.61-.51.84-.42.77-.84,1.55-1.27,2.32l-2.46,4.52-3.2,5.89c-.37.67-1.65,4-2.5,3.93-.67,0-1.41-1.75-1.67-2.22-.41-.75-.76-1.53-1.17-2.28Q96.64,79.81,95.11,77l-2.74-5-1.32-2.46c-.9-1.69.47-2.45,1.86-3,1.9-.81,3.73-1.66,5.57-2.62a25.5,25.5,0,0,1,2.69-1.4c.74-.27,1.51.37,2.13.7q1.23.66,2.43,1.35,2.4,1.41,4.68,3A2,2,0,0,1,111.21,68.33ZM100.88,80.06c0-1.88,0-3.76,0-5.65s0-3.66-.09-5.49c0-1.1.1-2.2.08-3.31a15.37,15.37,0,0,0,0-1.67,2.17,2.17,0,0,0,0-.25,1.91,1.91,0,0,0-1.06.29c-1.24.63-2.46,1.38-3.71,2s-2.56,1-3.81,1.71c-.9.49-.7.89-.3,1.64l1.26,2.3c1,1.82,2,3.63,3,5.45.79,1.45,1.6,2.91,2.4,4.36l1.21,2.18a8.52,8.52,0,0,0,1.09,1.91C101,83.71,100.86,81.85,100.88,80.06Zm8.85-12.14c-1.4-.9-2.74-1.81-4.2-2.62-.39-.21-3.88-1.79-3.87-1.95a87.89,87.89,0,0,0,0,8.89c0,3.12.13,6.23-.06,9.34a25.66,25.66,0,0,0-.11,4.11c.63-1.76,1.77-3.16,2.55-4.81,1.21-2.55,2.55-5,4-7.49.62-1.07,1.17-2.19,1.77-3.28C110.3,69.23,110.73,68.57,109.73,67.92Z"/><path class="cls-5" d="M7,62.71c-1.41-2.44-2.74-4.93-3.95-7.48A52.7,52.7,0,0,1,.53,50.41a24.55,24.55,0,0,0,.11,4.11c.18,3.11.07,6.23.06,9.34a85.23,85.23,0,0,0,0,8.9c0-.17,3.48-1.74,3.87-2C6,70,7.32,69.09,8.71,68.18c1-.65.57-1.31.09-2.18C8.21,64.9,7.66,63.79,7,62.71Z"/><g class="cls-3"><path class="cls-6" d="M8.71,67.92C7.32,67,6,66.11,4.52,65.3,4.13,65.09.63,63.51.65,63.35a85.06,85.06,0,0,0,0,8.89c0,3.12.12,6.23-.06,9.34a24.55,24.55,0,0,0-.11,4.11,51.26,51.26,0,0,1,2.55-4.81c1.21-2.55,2.54-5,4-7.49.63-1.07,1.18-2.19,1.77-3.28C9.28,69.23,9.71,68.57,8.71,67.92Z"/></g><path d="M9.94,66.53a1.45,1.45,0,0,1,.25,1.24,2,2,0,0,1-.79.83q-2.28,1.59-4.69,3-1.2.7-2.43,1.35c-.62.33-1.39,1-2.12.7a23.69,23.69,0,0,1-2.69-1.4c-1.84-1-3.68-1.81-5.58-2.62-1.39-.58-2.76-1.34-1.85-3l1.32-2.46q1.37-2.53,2.74-5c1-1.86,2-3.72,3.06-5.57.41-.74.76-1.53,1.17-2.27.26-.48,1-2.18,1.68-2.22C.85,49,2.13,52.28,2.5,53q1.6,2.94,3.2,5.88l2.47,4.52,1.27,2.33C9.56,65.92,9.77,66.21,9.94,66.53ZM-.13,56c0-1.79.13-3.65,0-5.42a8.75,8.75,0,0,0-1.09,1.91l-1.21,2.18-2.4,4.37q-1.49,2.72-3,5.44c-.41.77-.84,1.54-1.25,2.31s-.61,1.14.3,1.63c1.24.68,2.53,1.12,3.8,1.71s2.48,1.32,3.71,2a2,2,0,0,0,1.07.3l0-.26a15.26,15.26,0,0,0,.06-1.67c0-1.1-.11-2.2-.09-3.31q.07-2.75.09-5.49C-.1,59.81-.11,57.92-.13,56ZM8.8,66C8.21,64.9,7.66,63.79,7,62.71c-1.41-2.44-2.74-4.93-3.95-7.48A52.7,52.7,0,0,1,.53,50.41a24.55,24.55,0,0,0,.11,4.11c.18,3.11.07,6.23.06,9.34a85.23,85.23,0,0,0,0,8.9c0-.17,3.48-1.74,3.87-2C6,70,7.32,69.09,8.71,68.18,9.71,67.53,9.28,66.87,8.8,66Z"/><path d="M10.19,68.33a1.48,1.48,0,0,1-.25,1.25c-.17.31-.38.61-.5.84C9,71.19,8.59,72,8.17,72.74L5.7,77.26,2.5,83.15c-.37.67-1.65,4-2.49,3.93-.68,0-1.42-1.75-1.68-2.22-.41-.75-.76-1.53-1.17-2.28-1-1.85-2-3.71-3.06-5.57q-1.38-2.52-2.74-5L-10,69.51c-.91-1.69.46-2.45,1.85-3,1.9-.81,3.74-1.66,5.58-2.62a23.69,23.69,0,0,1,2.69-1.4c.73-.27,1.5.37,2.12.7q1.23.66,2.43,1.35,2.42,1.41,4.69,3A2,2,0,0,1,10.19,68.33ZM-.13,80.06c0-1.88,0-3.76,0-5.65s0-3.66-.09-5.49c0-1.1.1-2.2.09-3.31a15.35,15.35,0,0,0-.06-1.67l0-.25A1.94,1.94,0,0,0-1.28,64c-1.23.63-2.46,1.38-3.71,2s-2.56,1-3.8,1.71c-.91.49-.71.89-.3,1.64s.84,1.53,1.25,2.3c1,1.82,2,3.63,3,5.45l2.4,4.36,1.21,2.18A8.52,8.52,0,0,0-.18,85.48C0,83.71-.16,81.85-.13,80.06ZM8.71,67.92C7.32,67,6,66.11,4.52,65.3,4.13,65.09.63,63.51.65,63.35a85.06,85.06,0,0,0,0,8.89c0,3.12.12,6.23-.06,9.34a24.55,24.55,0,0,0-.11,4.11,51.26,51.26,0,0,1,2.55-4.81c1.21-2.55,2.54-5,4-7.49.63-1.07,1.18-2.19,1.77-3.28C9.28,69.23,9.71,68.57,8.71,67.92Z"/><path class="cls-2" d="M100.84-17.43a8.52,8.52,0,0,0-1.09,1.91l-1.21,2.18c-.8,1.45-1.61,2.91-2.4,4.37-1,1.81-2,3.62-3,5.44L91.92-1.22c-.4.74-.6,1.14.3,1.63,1.25.68,2.54,1.12,3.81,1.71s2.47,1.32,3.71,2a2,2,0,0,0,1.06.3c0-.09,0-.18,0-.26a15.37,15.37,0,0,0,0-1.67c0-1.11-.11-2.21-.08-3.31q.07-2.74.09-5.49c0-1.88,0-3.77,0-5.65S101-15.66,100.84-17.43Z"/><g class="cls-3"><path class="cls-4" d="M100.9,6.36q0-2.74-.09-5.49c0-1.1.1-2.2.08-3.31a15.37,15.37,0,0,0,0-1.67c0-.08,0-.17,0-.26a2,2,0,0,0-1.06.3c-1.24.63-2.46,1.37-3.71,2s-2.56,1-3.81,1.71c-.9.49-.7.89-.3,1.64l1.26,2.3c1,1.82,2,3.63,3,5.44.79,1.46,1.6,2.92,2.4,4.37l1.21,2.18a8.52,8.52,0,0,0,1.09,1.91c.18-1.77,0-3.63,0-5.42S100.91,8.24,100.9,6.36Z"/></g><path d="M111-1.53a1.51,1.51,0,0,1,.25,1.25,2.12,2.12,0,0,1-.8.83q-2.28,1.59-4.68,3-1.2.7-2.43,1.35c-.62.33-1.39,1-2.13.7a25.5,25.5,0,0,1-2.69-1.4c-1.84-1-3.67-1.81-5.57-2.62-1.39-.59-2.76-1.35-1.86-3l1.32-2.46C93.28-5.6,94.2-7.28,95.11-9q1.53-2.79,3.07-5.57c.41-.75.76-1.53,1.17-2.27.26-.48,1-2.19,1.67-2.23.85,0,2.13,3.26,2.5,3.93q1.59,3,3.2,5.89l2.46,4.52c.43.77.85,1.55,1.27,2.33C110.58-2.13,110.79-1.84,111-1.53ZM100.88-12c0-1.79.14-3.65,0-5.42a8.52,8.52,0,0,0-1.09,1.91l-1.21,2.18c-.8,1.45-1.61,2.91-2.4,4.37-1,1.81-2,3.62-3,5.44L91.92-1.22c-.4.74-.6,1.14.3,1.63,1.25.68,2.54,1.12,3.81,1.71s2.47,1.32,3.71,2a2,2,0,0,0,1.06.3c0-.09,0-.18,0-.26a15.37,15.37,0,0,0,0-1.67c0-1.11-.11-2.21-.08-3.31q.07-2.74.09-5.49C100.91-8.24,100.91-10.13,100.88-12Zm8.94,10c-.6-1.09-1.15-2.2-1.77-3.28-1.41-2.44-2.75-4.93-4-7.48-.78-1.66-1.92-3.06-2.55-4.82a25.66,25.66,0,0,0,.11,4.11c.19,3.11.07,6.23.06,9.34a88.07,88.07,0,0,0,0,8.9c0-.17,3.48-1.74,3.87-2,1.46-.81,2.8-1.72,4.2-2.62C110.73-.52,110.3-1.18,109.82-2.06Z"/><path d="M111.21.28A1.51,1.51,0,0,1,111,1.53c-.17.31-.38.6-.51.84-.42.77-.84,1.55-1.27,2.32l-2.46,4.52q-1.6,2.94-3.2,5.89c-.37.67-1.65,4-2.5,3.93-.67,0-1.41-1.75-1.67-2.23-.41-.74-.76-1.52-1.17-2.27Q96.64,11.76,95.11,9c-.91-1.68-1.83-3.36-2.74-5.05L91.05,1.45c-.9-1.68.47-2.44,1.86-3,1.9-.81,3.73-1.66,5.57-2.62a25.5,25.5,0,0,1,2.69-1.4c.74-.27,1.51.37,2.13.7.82.43,1.63.89,2.43,1.35q2.4,1.41,4.68,3A2.12,2.12,0,0,1,111.21.28ZM100.88,12c0-1.88,0-3.77,0-5.65s0-3.66-.09-5.49c0-1.1.1-2.2.08-3.31a15.37,15.37,0,0,0,0-1.67c0-.08,0-.17,0-.26a2,2,0,0,0-1.06.3c-1.24.63-2.46,1.37-3.71,2s-2.56,1-3.81,1.71c-.9.49-.7.89-.3,1.64l1.26,2.3c1,1.82,2,3.63,3,5.44.79,1.46,1.6,2.92,2.4,4.37l1.21,2.18a8.52,8.52,0,0,0,1.09,1.91C101,15.66,100.86,13.8,100.88,12ZM109.73-.13c-1.4-.9-2.74-1.81-4.2-2.62a43.09,43.09,0,0,1-3.87-2,88.07,88.07,0,0,0,0,8.9c0,3.11.13,6.23-.06,9.34a25.66,25.66,0,0,0-.11,4.11c.63-1.76,1.77-3.16,2.55-4.81,1.21-2.56,2.55-5,4-7.49.62-1.08,1.17-2.19,1.77-3.28C110.3,1.18,110.73.52,109.73-.13Z"/><path class="cls-2" d="M50.33,16.59a9,9,0,0,0-1.09,1.91L48,20.68l-2.4,4.37-3,5.44c-.42.77-.84,1.54-1.25,2.31s-.61,1.15.29,1.64c1.25.67,2.54,1.12,3.81,1.71s2.47,1.32,3.71,1.94a1.84,1.84,0,0,0,1.06.3,2.17,2.17,0,0,0,0-.25c.06-.56.05-1.09.06-1.68,0-1.1-.12-2.2-.09-3.3.05-1.83.08-3.66.09-5.5s0-3.76,0-5.64S50.51,18.37,50.33,16.59Z"/><path class="cls-5" d="M57.54,28.69c-1.41-2.45-2.75-4.94-3.95-7.49A51.26,51.26,0,0,1,51,16.39a25.69,25.69,0,0,0,.1,4.11c.19,3.11.07,6.22.07,9.34a85.06,85.06,0,0,0-.05,8.89c0-.16,3.47-1.74,3.86-1.95,1.46-.81,2.8-1.72,4.2-2.62,1-.65.57-1.31.09-2.19C58.72,30.88,58.17,29.76,57.54,28.69Z"/><g class="cls-3"><path class="cls-4" d="M50.39,40.39q0-2.74-.09-5.49c0-1.11.1-2.21.09-3.31,0-.59,0-1.12-.06-1.67a2.34,2.34,0,0,0,0-.26,1.92,1.92,0,0,0-1.06.3c-1.24.63-2.46,1.37-3.71,1.95s-2.56,1-3.81,1.7c-.9.49-.7.89-.29,1.64s.83,1.54,1.25,2.31q1.47,2.73,3,5.44L48,47.37l1.21,2.18a8.75,8.75,0,0,0,1.09,1.91c.18-1.78,0-3.64.05-5.42S50.4,42.27,50.39,40.39Z"/><path class="cls-6" d="M59.22,33.89c-1.4-.9-2.74-1.8-4.2-2.61-.39-.22-3.88-1.8-3.86-2a85.25,85.25,0,0,0,.05,8.9c0,3.11.12,6.23-.07,9.34a25.63,25.63,0,0,0-.1,4.11c.63-1.77,1.76-3.16,2.55-4.82,1.2-2.55,2.54-5,3.95-7.48.63-1.08,1.18-2.2,1.77-3.29C59.79,35.21,60.22,34.54,59.22,33.89Z"/></g><path d="M60.45,32.5a1.51,1.51,0,0,1,.25,1.25,2.07,2.07,0,0,1-.79.82c-1.52,1.07-3.09,2.07-4.69,3-.8.47-1.61.92-2.43,1.36-.62.33-1.39,1-2.13.7A27.53,27.53,0,0,1,48,38.23c-1.84-1-3.67-1.82-5.57-2.62-1.39-.59-2.76-1.35-1.86-3,.44-.82.88-1.64,1.33-2.46.9-1.68,1.82-3.36,2.74-5q1.52-2.79,3.06-5.57c.41-.75.76-1.53,1.17-2.28.26-.47,1-2.18,1.67-2.22.85-.05,2.13,3.25,2.5,3.93l3.2,5.89,2.46,4.51,1.27,2.33C60.07,31.89,60.28,32.19,60.45,32.5ZM50.38,22c0-1.79.13-3.65-.05-5.43a9,9,0,0,0-1.09,1.91L48,20.68l-2.4,4.37-3,5.44c-.42.77-.84,1.54-1.25,2.31s-.61,1.15.29,1.64c1.25.67,2.54,1.12,3.81,1.71s2.47,1.32,3.71,1.94a1.84,1.84,0,0,0,1.06.3,2.17,2.17,0,0,0,0-.25c.06-.56.05-1.09.06-1.68,0-1.1-.12-2.2-.09-3.3.05-1.83.08-3.66.09-5.5S50.4,23.9,50.38,22Zm8.93,10c-.59-1.09-1.14-2.21-1.77-3.28-1.41-2.45-2.75-4.94-3.95-7.49A51.26,51.26,0,0,1,51,16.39a25.69,25.69,0,0,0,.1,4.11c.19,3.11.07,6.22.07,9.34a85.06,85.06,0,0,0-.05,8.89c0-.16,3.47-1.74,3.86-1.95,1.46-.81,2.8-1.72,4.2-2.62C60.22,33.51,59.79,32.85,59.31,32Z"/><path d="M60.7,34.31a1.49,1.49,0,0,1-.25,1.24c-.17.31-.38.61-.51.84l-1.27,2.33-2.46,4.51L53,49.12c-.37.68-1.65,4-2.5,3.93-.67,0-1.41-1.74-1.67-2.22-.41-.75-.76-1.53-1.17-2.27-1-1.86-2.05-3.71-3.06-5.57-.92-1.68-1.84-3.37-2.74-5.05-.45-.82-.89-1.64-1.33-2.46-.9-1.69.47-2.45,1.86-3,1.9-.81,3.73-1.67,5.57-2.62a27.63,27.63,0,0,1,2.69-1.41c.74-.27,1.51.38,2.13.71q1.23.64,2.43,1.35c1.6.93,3.17,1.94,4.69,3A2.1,2.1,0,0,1,60.7,34.31ZM50.38,46c0-1.89,0-3.77,0-5.65s0-3.66-.09-5.49c0-1.11.1-2.21.09-3.31,0-.59,0-1.12-.06-1.67a2.34,2.34,0,0,0,0-.26,1.92,1.92,0,0,0-1.06.3c-1.24.63-2.46,1.37-3.71,1.95s-2.56,1-3.81,1.7c-.9.49-.7.89-.29,1.64s.83,1.54,1.25,2.31q1.47,2.73,3,5.44L48,47.37l1.21,2.18a8.75,8.75,0,0,0,1.09,1.91C50.51,49.68,50.35,47.82,50.38,46Zm8.84-12.15c-1.4-.9-2.74-1.8-4.2-2.61-.39-.22-3.88-1.8-3.86-2a85.25,85.25,0,0,0,.05,8.9c0,3.11.12,6.23-.07,9.34a25.63,25.63,0,0,0-.1,4.11c.63-1.77,1.76-3.16,2.55-4.82,1.2-2.55,2.54-5,3.95-7.48.63-1.08,1.18-2.2,1.77-3.29C59.79,35.21,60.22,34.54,59.22,33.89Z"/><path class="cls-5" d="M7-5.34c-1.41-2.44-2.74-4.93-3.95-7.48A52.7,52.7,0,0,1,.53-17.64a24.55,24.55,0,0,0,.11,4.11C.82-10.42.71-7.3.7-4.19a85.23,85.23,0,0,0,0,8.9c0-.17,3.48-1.74,3.87-2C6,1.94,7.32,1,8.71.13c1-.65.57-1.31.09-2.19C8.21-3.15,7.66-4.26,7-5.34Z"/><g class="cls-3"><path class="cls-6" d="M8.71-.13C7.32-1,6-1.94,4.52-2.75a41.79,41.79,0,0,1-3.87-2,85.23,85.23,0,0,0,0,8.9c0,3.11.12,6.23-.06,9.34a24.55,24.55,0,0,0-.11,4.11,51.26,51.26,0,0,1,2.55-4.81c1.21-2.56,2.54-5,4-7.49C7.66,4.26,8.21,3.15,8.8,2.06,9.28,1.18,9.71.52,8.71-.13Z"/></g><path d="M9.94-1.53a1.48,1.48,0,0,1,.25,1.25A2,2,0,0,1,9.4.55q-2.28,1.59-4.69,3-1.2.7-2.43,1.35c-.62.33-1.39,1-2.12.7A23.69,23.69,0,0,1-2.53,4.2c-1.84-1-3.68-1.81-5.58-2.62C-9.5,1-10.87.23-10-1.45l1.32-2.46Q-7.27-6.44-5.9-9c1-1.86,2-3.72,3.06-5.57.41-.75.76-1.53,1.17-2.27C-1.41-17.28-.67-19,0-19c.84,0,2.12,3.26,2.49,3.93L5.7-9.21,8.17-4.69,9.44-2.36C9.56-2.13,9.77-1.84,9.94-1.53ZM-.13-12c0-1.79.13-3.65,0-5.42a8.52,8.52,0,0,0-1.09,1.91l-1.21,2.18L-4.88-9q-1.49,2.72-3,5.44c-.41.77-.84,1.54-1.25,2.31S-9.7-.08-8.79.41c1.24.68,2.53,1.12,3.8,1.71s2.48,1.32,3.71,2a2,2,0,0,0,1.07.3l0-.26A15.35,15.35,0,0,0-.12,2.44C-.11,1.33-.23.23-.21-.87q.07-2.74.09-5.49C-.1-8.24-.11-10.13-.13-12Zm8.93,10C8.21-3.15,7.66-4.26,7-5.34c-1.41-2.44-2.74-4.93-3.95-7.48A52.7,52.7,0,0,1,.53-17.64a24.55,24.55,0,0,0,.11,4.11C.82-10.42.71-7.3.7-4.19a85.23,85.23,0,0,0,0,8.9c0-.17,3.48-1.74,3.87-2C6,1.94,7.32,1,8.71.13,9.71-.52,9.28-1.18,8.8-2.06Z"/><path d="M10.19.28a1.48,1.48,0,0,1-.25,1.25c-.17.31-.38.6-.5.84C9,3.14,8.59,3.92,8.17,4.69L5.7,9.21,2.5,15.1C2.13,15.77.85,19.08,0,19c-.68,0-1.42-1.75-1.68-2.23-.41-.74-.76-1.52-1.17-2.27-1-1.85-2-3.71-3.06-5.57Q-7.28,6.44-8.64,3.91L-10,1.45c-.91-1.68.46-2.44,1.85-3,1.9-.81,3.74-1.66,5.58-2.62A23.69,23.69,0,0,1,.16-5.6c.73-.27,1.5.37,2.12.7.82.43,1.63.89,2.43,1.35q2.42,1.41,4.69,3A2,2,0,0,1,10.19.28ZM-.13,12c0-1.88,0-3.77,0-5.65S-.16,2.7-.21.87c0-1.1.1-2.2.09-3.31A15.35,15.35,0,0,0-.18-4.11l0-.26a2,2,0,0,0-1.07.3c-1.23.63-2.46,1.37-3.71,2s-2.56,1-3.8,1.71c-.91.49-.71.89-.3,1.64s.84,1.53,1.25,2.3q1.47,2.73,3,5.44l2.4,4.37,1.21,2.18A8.52,8.52,0,0,0-.18,17.43C0,15.66-.16,13.8-.13,12ZM8.71-.13C7.32-1,6-1.94,4.52-2.75a41.79,41.79,0,0,1-3.87-2,85.23,85.23,0,0,0,0,8.9c0,3.11.12,6.23-.06,9.34a24.55,24.55,0,0,0-.11,4.11,51.26,51.26,0,0,1,2.55-4.81c1.21-2.56,2.54-5,4-7.49C7.66,4.26,8.21,3.15,8.8,2.06,9.28,1.18,9.71.52,8.71-.13Z"/></pattern></defs><g id="_12_t-shirt_pattern" data-name="12_t-shirt_pattern"><path class="cls-1" d="M158.83,368.77c-.39-.34-.78-.67-1.16-1-1.1-1-2.16-2.09-3.19-3.18a111.82,111.82,0,0,0-10.69,12,76.25,76.25,0,0,0,4.81,6.1,107.46,107.46,0,0,1,10.15-13.85Z"/><path class="cls-1" d="M146.16,353.94l0,0q-1.55-2.51-2.87-5.13a40.67,40.67,0,0,0-5.15,3.07c-.46.32-.9.64-1.34,1l-.07.05-.29.24-.66.53c-.84.71-1.65,1.45-2.44,2.22l0,0a79.31,79.31,0,0,0,3,7.63Q141,358.54,146.16,353.94Z"/><path class="cls-1" d="M167.42,375.22a67.45,67.45,0,0,1-5.57-3.94,2.16,2.16,0,0,1-.27.38,102,102,0,0,0-10.17,14.08c.9.92,1.83,1.83,2.79,2.71q2.18,2,4.49,3.8l8.61-16.86A1.77,1.77,0,0,1,167.42,375.22Z"/><path class="cls-1" d="M148.45,357.27q-5.35,4.85-10.27,10.13,1.51,2.93,3.27,5.72a116.85,116.85,0,0,1,10.36-11.54C150.64,360.19,149.5,358.76,148.45,357.27Z"/><path class="cls-1" d="M210.24,388.54a174.53,174.53,0,0,0-1.16,20.18,2.23,2.23,0,0,1,0,.27c5,0,10-.22,14.93-.65q-.87-9.82-1.75-19.65A117,117,0,0,1,210.24,388.54Z"/><path class="cls-1" d="M178.9,381.28a79.88,79.88,0,0,1-8.09-4l-.05.12L162,394.51a1.53,1.53,0,0,1-.11.16,78,78,0,0,0,9.9,5.88q3.1-9.57,6.88-18.88C178.76,381.54,178.83,381.41,178.9,381.28Z"/><path class="cls-1" d="M200.4,387.45c-1.36-.21-2.71-.47-4.05-.75q-1.54,10.47-3.08,20.92a81.85,81.85,0,0,0,8.74,1.11c1,.07,2.06.12,3.09.16a.88.88,0,0,1,0-.17,173.65,173.65,0,0,1,1.2-20.51Q203.34,387.91,200.4,387.45Z"/><path class="cls-1" d="M237.5,387.26c-3.75.55-7.51,1-11.29,1.23L228,408c1.52-.16,3-.33,4.55-.51q5.26-.63,10.48-1.49-2.68-9.1-5.39-18.21A2.23,2.23,0,0,1,237.5,387.26Z"/><path class="cls-1" d="M175.47,402.25a79.36,79.36,0,0,0,13.9,4.57q1.55-10.5,3.1-21a90.22,90.22,0,0,1-9.92-3.06Q178.65,392.37,175.47,402.25Z"/><path class="cls-1" d="M94.12,469.91l-6.92-3.05c-1,2-2,4-2.83,6.1l7,3.68Z"/><path class="cls-1" d="M83.56,465.24c-1.94-.88-3.88-1.76-5.81-2.67l-2.7,5.51,5.79,3C81.69,469.12,82.6,467.17,83.56,465.24Z"/><path class="cls-1" d="M101.59,481.54l2.52-7.21L99,472.06l-1.25-.55c-.94,2.3-1.87,4.61-2.81,6.91l0,.06.45.23A64.24,64.24,0,0,0,101.59,481.54Z"/><path class="cls-1" d="M112.09,483a4.29,4.29,0,0,0,1.2-2.26c.2-.68.36-1.37.52-2.05h0l-6-2.68-2.37,6.8,1.17.28C108.16,483.37,110.47,484.3,112.09,483Z"/><path class="cls-1" d="M139.33,338.55l-.14.11-7.82,5.22a1.67,1.67,0,0,1-.93.27c.42,2.52,1,5,1.63,7.49a43.33,43.33,0,0,1,9.59-6.5A60.58,60.58,0,0,1,139.33,338.55Z"/><path class="cls-1" d="M138.41,335c-.21,0-1-4.68-1.3-6.67a66,66,0,0,0-9.72,6.14,2,2,0,0,1,2.19,1.92q.1,1.86.3,3.72l7.29-4.86A1.73,1.73,0,0,1,138.41,335Z"/><path class="cls-1" d="M48.52,454.19l3.61,1.88c1-2.08,2.07-4.18,3-6.3q-2.22-1.51-4.4-3.1C50,449.16,49.22,451.66,48.52,454.19Z"/><path class="cls-1" d="M61.87,461.18c.81-1.88,1.71-3.71,2.67-5.51-2-1.18-4-2.4-6-3.67q-1.38,3-2.87,5.93L61,460.72Z"/><path class="cls-1" d="M71.59,466.08c.85-1.75,1.71-3.49,2.57-5.24l-.9-.43c-1.77-.89-3.51-1.82-5.24-2.77-.94,1.76-1.82,3.55-2.62,5.38l6.12,3.21C71.55,466.18,71.56,466.13,71.59,466.08Z"/><path class="cls-1" d="M338.54,341.42l.07,0a28.49,28.49,0,0,1,6.82,6.64l5.26-4.36-7.58-5.6Q340.83,339.78,338.54,341.42Z"/><path class="cls-1" d="M399.91,467.09c.57,1.87,1.2,3.71,1.88,5.55,2-.54,3.94-1.06,5.92-1.56L406,465.69Z"/><path class="cls-1" d="M396,468l-6.58,1.5c.67,2,1.33,4.11,2,6.17,1.45-.42,2.91-.84,4.35-1.28l2.16-.62c-.69-1.85-1.33-3.72-1.9-5.61A.9.9,0,0,1,396,468Z"/><path class="cls-1" d="M379,471.83c.6,2.28,1.27,4.53,2.05,6.75q3.3-.9,6.6-1.83l-2.07-6.4Z"/><path class="cls-1" d="M367.78,474.35a1.83,1.83,0,0,1,.14.32,46.54,46.54,0,0,1,1.7,6.25,2.38,2.38,0,0,1,0,.59c2.49-.61,5-1.25,7.47-1.9-.79-2.27-1.48-4.57-2.09-6.9Z"/><path class="cls-1" d="M364.07,475.73a1.38,1.38,0,0,1-.09-.53l-6,1.36s0,0,0,.06v.07a47.94,47.94,0,0,0,1.35,6.49,2,2,0,0,1,.05.76c2.19-.49,4.37-1,6.55-1.53a1.33,1.33,0,0,1-.17-.43A46.5,46.5,0,0,0,364.07,475.73Z"/><path class="cls-1" d="M415.67,463.5,410,464.8l1.65,5.32c1.51-.37,3-.74,4.54-1.08.71-.16,1.43-.31,2.15-.45q-1-2.61-1.82-5.28Z"/><path class="cls-1" d="M428.55,460.18a31.48,31.48,0,0,1,1.54,5.73c1.65-.43,3.26-1,3.88-2.17.47-.85-.34-3.45-.77-5Q430.89,459.5,428.55,460.18Z"/><path class="cls-1" d="M420.37,462.38q.87,2.72,1.87,5.39a.06.06,0,0,0,0,0c1.33-.27,2.66-.58,3.95-1a30.86,30.86,0,0,0-1.5-5.58C423.26,461.65,421.82,462,420.37,462.38Z"/><path class="cls-1" d="M354.09,477.43,347.14,479l-.14,0a33.29,33.29,0,0,0,1,4.81,3.69,3.69,0,0,0,1.36,2.14,1.68,1.68,0,0,0,.48.22,2.12,2.12,0,0,1,.79-.34c1.71-.35,3.41-.73,5.11-1.1a1.89,1.89,0,0,1-.23-.5A49.5,49.5,0,0,1,354.09,477.43Z"/><path class="cls-1" d="M284.17,374.36q-3,1.2-6.12,2.29c-1.56.55-3.13,1.1-4.7,1.63a139.86,139.86,0,0,1,6.86,17.3q3-1.27,6-2.73t5.62-3q-3.75-7.55-7.51-15.07A2.23,2.23,0,0,1,284.17,374.36Z"/><path class="cls-1" d="M298.32,368.1c-3.43,1.73-6.93,3.31-10.48,4.78q3.72,7.47,7.45,14.94c3.72-2.29,7.32-4.78,10.82-7.42a34.68,34.68,0,0,1-7.7-11.82A1.36,1.36,0,0,1,298.32,368.1Z"/><path class="cls-1" d="M269.56,379.52c-3.66,1.17-7.34,2.28-11.05,3.28l0,.06q3.45,9,6.11,18.22c4-1.16,8-2.49,11.85-4a133.09,133.09,0,0,0-6.81-17.24C269.64,379.74,269.6,379.63,269.56,379.52Z"/><path class="cls-1" d="M311.37,360.58c-3,1.94-6.05,3.79-9.18,5.5l-.71.37a2.72,2.72,0,0,1,.79,1.07l.21.53a1,1,0,0,1,0,.1c.12.27.24.54.37.81.25.54.52,1.08.81,1.6a31,31,0,0,0,1.82,3c.17.25.34.49.52.73l.3.4.05.07c.37.47.75.93,1.15,1.38.56.63,1.16,1.24,1.77,1.83l1-.77q3.54-2.84,7-5.73-3-5.38-5.93-10.75A.49.49,0,0,0,311.37,360.58Z"/><path class="cls-1" d="M254.65,383.78c-.84.21-1.67.44-2.52.64q-5.31,1.27-10.71,2.21a.08.08,0,0,1,0,0q2.76,9.3,5.51,18.58,6.54-1.22,13-2.87l.84-.23q-2.67-9.24-6.11-18.23Z"/><path class="cls-1" d="M351.75,331.92l-4.49,3.23-.76.54,6.61,4.88a2.63,2.63,0,0,1,.61.64l5.11-4.23a2,2,0,0,1,1.19-.49c-2.5-1.44-5-2.81-7.63-4.08A2.21,2.21,0,0,1,351.75,331.92Z"/><path class="cls-1" d="M341.77,349.78l0,0-.36-.43a22.49,22.49,0,0,0-1.54-1.7c-.56-.56-1.13-1.09-1.74-1.59-.14-.13-.29-.25-.44-.37a2,2,0,0,1-.23-.18l0,0c-.3-.23-.61-.45-.92-.66a2.19,2.19,0,0,1-.94-1.41l-8.94,6.44a2.43,2.43,0,0,1,.87.46l7.46,6.32,7.34-6.09c-.15-.21-.29-.42-.44-.62S341.82,349.86,341.77,349.78Z"/><path class="cls-1" d="M324.19,351.75c-3.14,2.25-6.3,4.49-9.51,6.65a1.31,1.31,0,0,1,.19.27l5.61,10.18,11.45-9.54-7.18-6.08A1.73,1.73,0,0,1,324.19,351.75Z"/><path class="cls-7" d="M349.11,489.2a.34.34,0,0,0,0-.1,4.67,4.67,0,0,1-2-.12c-1.68-.6-2.73-2.9-3.15-4.51-.62-2.37-.89-4.86-1.3-7.27l-1.29-7.63-2.58-15.27q-2.56-15.21-5.14-30.41a2,2,0,0,1,1.4-2.46,2,2,0,0,1,2.46,1.4q1.41,8.31,2.81,16.62l5,29.79c.32,1.94.65,3.89,1,5.83l19.2-4.34L399.92,463c10.87-2.46,21.92-4.59,32.5-8.19-.22-1.23-.45-2.46-.67-3.68-1.68-9.15-3.44-18.3-5.73-27.32a140.35,140.35,0,0,0-63.9-86.07,1.61,1.61,0,0,1-.47,2.09l-6.13,5.1-25.3,21c-2.84,2.35-5.66,4.73-8.5,7.09a2,2,0,0,1-.74.81,1.54,1.54,0,0,1-.46.19c-4.79,4-9.62,7.9-14.64,11.57-15.77,11.53-34,18.58-53,22.59a242.8,242.8,0,0,1-29.17,4.21c-10.49.9-21.1,1-31.5-.82A81.3,81.3,0,0,1,146.13,386a79.5,79.5,0,0,1-5.57-7,1.87,1.87,0,0,1-.62-.23,2.15,2.15,0,0,1-1-2.1,82.14,82.14,0,0,1-13.38-40.3,2,2,0,0,1,0-.6c-6.56,5-13.64,10.44-19,16.62-1.84,2.13-4.32,3.65-6.17,5.81-1,1.15-1.91,2.36-2.84,3.56-11.47,14.93-22.4,30-31.09,46.73A239.26,239.26,0,0,0,52,442.91a1.57,1.57,0,0,1,.78.28q6.08,4.46,12.55,8.32a231.38,231.38,0,0,0,24.56,12.14l24.74,11c.33-1.86.65-3.72,1.06-5.55.65-2.83,1.31-5.66,2-8.47q2.1-8.58,4.52-17.06t5.14-16.88c.47-1.46.95-2.91,1.43-4.36.37-1.09.69-2.27,1.74-2.89s2.83-.48,2.68,1.11c-.33,3.52-2,7.29-3.1,10.65-.93,2.92-1.82,5.85-2.69,8.79-2.8,9.48-5,19.13-7.53,28.68-1.31,4.87-2.71,9.71-4.36,14.48-1.26,3.63-3.25,5.67-7.38,4.64-.49,1.85-.93,3.72-1.3,5.6s-.7,3.92-.89,5.42a2.66,2.66,0,0,1-.44,1.19H349.39s0-.05,0-.08A79.89,79.89,0,0,0,349.11,489.2Z"/></g></svg>