<svg id="T-shirt_pattern" xmlns="http://www.w3.org/2000/svg" xmlns:xlink="http://www.w3.org/1999/xlink" viewBox="0 0 500 500"><defs><style>.cls-1{fill:none;}.cls-2{fill:url(#New_Pattern_24);}</style><pattern id="New_Pattern_24" data-name="New Pattern 24" width="128.01" height="84.73" patternUnits="userSpaceOnUse" viewBox="0 0 128.01 84.73"><rect class="cls-1" width="128.01" height="84.73"/><path d="M55.8,14.91c.4,1.07.89,2.1,1.37,3.14.15.33.56.62,0,.95s-.8.58-1.31.11a2.91,2.91,0,0,1-.81-1.21,45,45,0,0,1-1.5-4.74,16.15,16.15,0,0,0,1.49,6.55c-1.21.6-1.32.62-2-.37a6.66,6.66,0,0,1-1.25-3.51c0-.33-.09-.75-.49-.69s-.45.51-.34.91a9.3,9.3,0,0,0,2,4.32,2.06,2.06,0,0,1-1.13.52c-.77.08-1.46,1-2.27.3a4.23,4.23,0,0,1-1.45-2.13c0-.1,0-.23,0-.32-.11-.25-.24-.54-.59-.37s-.2.36-.14.57a7.36,7.36,0,0,0,1.13,2.17c.21.3.48.66,0,1a.69.69,0,0,1-1-.19,3.72,3.72,0,0,1-.83-1.57c-.07-.3,0-.7-.7-.69a5.86,5.86,0,0,0,.93,2.93A1.7,1.7,0,0,1,45,22.39c-2.86-1.86-6-1.71-9.17-1.11-.63.11-.83.73-.33,1.07,1.88,1.25,3.15,3.43,5.64,3.77.62.09.64.45.39.95-.43.89-.84,1.78-1.21,2.69a4.26,4.26,0,0,0,.25,3.49.92.92,0,0,0,.82.65c.54,0,.62-.27.77-.65a4.12,4.12,0,0,1,1.68-1.94,8.1,8.1,0,0,0,3.39-5.23c.19-.73.49-1.06,1.1-1.16s.75.47.94.91.51,1.08,1.32.89a13.8,13.8,0,0,1-.74-1.17c-.21-.43-.53-1,.13-1.25s.52.4.72.69a6.41,6.41,0,0,0,1.23,1.52c.25.18.51.46.91.14a4.62,4.62,0,0,0-1.12-1.33,1.34,1.34,0,0,1-.49-1c0-.33,0-.67.37-.83a.58.58,0,0,1,.8.33A8.14,8.14,0,0,0,54,25.7c.23.23.42.53.86.18-.3-.84-1.1-1.29-1.6-2-.26-.36-.52-.78,0-1.14s.88-.29,1.17.33c.59,1.26,1.72,2.11,2.54,3.2a1,1,0,0,0,1.29.38c-.29-.81-.3-.79-.87-1.21a5.51,5.51,0,0,1-2.24-2.53c-.1-.3-.34-.61,0-.87a.77.77,0,0,1,1,0,4.37,4.37,0,0,1,.75.86,9.28,9.28,0,0,0,2.93,2.82c.39.27.93,1,1.31.24.3-.61-.62-.58-1-.8a6.34,6.34,0,0,1-2.87-2.83c-.13-.3-.26-.62,0-.92a1.51,1.51,0,0,1,2.23.12A20.23,20.23,0,0,0,61.7,24c.6.69.88.7,1.8.44-1.44-1-2.91-2-3.53-3.75,1.15-.58,2.08-.72,3,.33.5.57,1,1.1,1.5,1.72a1.64,1.64,0,0,0,2.54.33A34.31,34.31,0,0,0,69.8,20.8a11.75,11.75,0,0,0,3.4-4.68c.73-2.11.4-4.68-2.77-5.42A25.16,25.16,0,0,0,61,10.25c-2.37.33-2.46.39-2.15,2.77a8.06,8.06,0,0,0,.47,1.73c.22.61.51,1.2.78,1.8.37.79-.22,1.05-.72,1.39s-1,.42-1.38-.19a10.45,10.45,0,0,1-1.81-4.17c0-.34.15-.77-.46-1.06A4,4,0,0,0,55.8,14.91Zm10.68,7.61c-.26.22-.72.49-1,0-.93-1.49-2.48-2.42-3.38-4a22.13,22.13,0,0,1-2.4-5c-.43-1.47-.49-2.33,1.65-2.69a23.07,23.07,0,0,1,8.92.52c1.87.42,2.57,1.51,2.44,3.44a6.8,6.8,0,0,1-1.16,2.85c-.41.7-1.16.5-1.79.38a6.37,6.37,0,0,1-1-.48.4.4,0,0,0-.54.21c-.08.18,0,.31.19.4a3.5,3.5,0,0,0,2,.68C69.25,20.58,67.74,21.41,66.48,22.52ZM41,30.07a13.06,13.06,0,0,1,1.81-3.83.63.63,0,0,0,.15-.75c-.19-.36-.49-.31-.84-.24a4,4,0,0,1-3.59-1.08l-1.91-1.83a2.6,2.6,0,0,1,2-.8,8.77,8.77,0,0,1,5.49,1.27,2.08,2.08,0,0,1,1.2,1.47,1.28,1.28,0,0,0,.14.47c.4.62,1.22,1.1.91,2a7.25,7.25,0,0,1-1.63,3,4.45,4.45,0,0,1-.59.56,13.07,13.07,0,0,1-1.52,1c-.57.27-.59,1-1.26,1.3A2.35,2.35,0,0,1,41,30.07Zm13.59-8.55a38.17,38.17,0,0,0-4.7,1.9c-1,.43-2,.83-3,1.29-.37.18-.63.17-.82-.18a.64.64,0,0,1,.25-1,4.16,4.16,0,0,1,.62-.23c2.38-.8,4.75-1.62,7.15-2.38a38.58,38.58,0,0,0,5.56-2.41c1.15-.56,1.14-.59,1.79.91C59.12,20.17,56.88,20.89,54.62,21.52Z"/><path d="M49.6,16.79c.27,1.27.36,2.58,1.51,3.44a.35.35,0,0,1,0,.57.47.47,0,0,1-.59-.08A3.33,3.33,0,0,1,49.6,16.79Z"/><path d="M65.42,15.32a1.33,1.33,0,0,1-1.19-.72.71.71,0,0,1,0-.9c.83-1.12,3.64-.88,4.28.37.37.71.24,1.14-.51,1.4a3.1,3.1,0,0,1-2.67-.18c.62-.45,1.38-.27,2.05-.47a.61.61,0,0,0,.49-.58.56.56,0,0,0-.52-.55,3.92,3.92,0,0,0-2.57.3C65,14.49,65.6,14.75,65.42,15.32Z"/><path d="M106,59.35c-.66.94-1.24,1.92-1.84,2.9-.18.31-.19.82-.76.56s-.93-.34-.83-1a3,3,0,0,1,.55-1.35,42.53,42.53,0,0,1,3.08-3.9,16,16,0,0,0-4.58,4.91c-1.17-.67-1.26-.75-.8-1.84a6.71,6.71,0,0,1,2.2-3c.27-.19.57-.49.3-.79s-.68-.08-.94.23a9.18,9.18,0,0,0-2.45,4.08,2,2,0,0,1-1.07-.64c-.49-.59-1.67-.62-1.53-1.71a4.37,4.37,0,0,1,1-2.39c.07-.08.19-.12.24-.21s.31-.5,0-.7-.42,0-.55.21a7.24,7.24,0,0,0-1.17,2.15c-.13.35-.27.77-.8.52a.7.7,0,0,1-.41-.94,3.82,3.82,0,0,1,.83-1.58c.21-.21.57-.4.18-1a6.07,6.07,0,0,0-1.91,2.41,1.66,1.66,0,0,1-.93-1.67c-.08-3.41-2-5.93-4.24-8.22-.44-.45-1.07-.27-1.06.33,0,2.26-1.08,4.53,0,6.79.28.56,0,.78-.56.86-1,.14-1.94.3-2.91.5A4.25,4.25,0,0,0,82.23,57a.91.91,0,0,0-.08,1c.27.47.57.36,1,.28a4,4,0,0,1,2.55.3,8.1,8.1,0,0,0,6.23-.14,1.31,1.31,0,0,1,1.58.26c.45.47,0,.89-.23,1.3s-.61,1,0,1.58c.2-.47.34-.88.55-1.26s.5-1,1.1-.6,0,.66-.16,1a6.18,6.18,0,0,0-.56,1.88c0,.31-.1.67.39.83a4.69,4.69,0,0,0,.47-1.67,1.33,1.33,0,0,1,.55-1c.27-.18.53-.41.89-.16a.58.58,0,0,1,.18.85A8.39,8.39,0,0,0,96,63.9c-.06.32-.2.64.33.81.53-.72.45-1.63.74-2.42.15-.43.35-.88.92-.67s.74.56.39,1.15a18.7,18.7,0,0,0-1.22,3.89A1,1,0,0,0,97.57,68a1.73,1.73,0,0,0,.51-1.4,5.41,5.41,0,0,1,.84-3.27c.19-.25.31-.63.74-.45s.66.4.58.86a4.44,4.44,0,0,1-.28,1.1,9.21,9.21,0,0,0-.69,4c0,.48-.33,1.34.54,1.22.67-.09.12-.84.1-1.26a6.4,6.4,0,0,1,.73-4c.18-.28.37-.56.76-.52a1.5,1.5,0,0,1,1.16,1.91,19.35,19.35,0,0,0-.83,3.16c-.23.89-.09,1.12.65,1.74,0-1.77,0-3.51,1.12-5,1.13.63,1.76,1.32,1.41,2.67-.19.74-.33,1.48-.58,2.21a1.64,1.64,0,0,0,1.15,2.29,35.12,35.12,0,0,0,3.46,1,11.78,11.78,0,0,0,5.78.19c2.16-.58,4.1-2.29,2.94-5.33a25.3,25.3,0,0,0-4.92-8.06c-1.61-1.78-1.71-1.82-3.5-.23a8,8,0,0,0-1.17,1.36c-.38.53-.71,1.1-1,1.66-.45.74-1,.4-1.56.18s-.91-.59-.62-1.25a10.45,10.45,0,0,1,2.44-3.83c.26-.23.72-.32.62-1A4,4,0,0,0,106,59.35Zm-.3,13.12c-.34-.09-.82-.32-.6-.81.72-1.6.62-3.41,1.38-5a22.53,22.53,0,0,1,2.79-4.8c1-1.18,1.65-1.72,3.15-.14A23,23,0,0,1,117,69.38c.7,1.79.19,3-1.48,4a6.65,6.65,0,0,1-3,.64c-.81,0-1.07-.68-1.32-1.27a5.69,5.69,0,0,1-.19-1.12.39.39,0,0,0-.47-.33c-.2,0-.23.22-.23.38a3.56,3.56,0,0,0,.57,2.05C108.82,73.67,107.28,72.89,105.66,72.47ZM85.12,55.64A12.66,12.66,0,0,1,89.31,55a.63.63,0,0,0,.7-.29c.19-.36,0-.58-.26-.84a3.94,3.94,0,0,1-1.12-3.57c.13-.86.28-1.71.43-2.61a2.53,2.53,0,0,1,1.75,1.16,8.76,8.76,0,0,1,2,5.26,2.12,2.12,0,0,1-.54,1.82,1.13,1.13,0,0,0-.31.38c-.29.68-.23,1.63-1.12,1.86a7.38,7.38,0,0,1-3.4.33,5.32,5.32,0,0,1-.79-.18A10.63,10.63,0,0,1,85,57.6c-.54-.31-1.19.1-1.78-.31A2.34,2.34,0,0,1,85.12,55.64Zm14.71,6.45a36,36,0,0,0-4.22-2.82c-.91-.59-1.82-1.21-2.75-1.76-.35-.21-.49-.43-.31-.78a.64.64,0,0,1,1-.34,3.94,3.94,0,0,1,.53.38c2,1.53,4,3,6,4.59a40.22,40.22,0,0,0,5.12,3.25c1.12.63,1.13.61.25,2C103.47,65.05,101.62,63.61,99.83,62.09Z"/><path d="M100.93,55.28c-.91.94-1.94,1.75-2,3.18a.34.34,0,0,1-.47.31.47.47,0,0,1-.27-.53A3.33,3.33,0,0,1,100.93,55.28Z"/><path d="M111,67.55a1.36,1.36,0,0,1-.08-1.39.72.72,0,0,1,.78-.46c1.39,0,2.77,2.52,2.1,3.75-.39.7-.81.84-1.45.36A3.07,3.07,0,0,1,111,67.5c.71.26,1,1,1.53,1.44a.62.62,0,0,0,.76.07.57.57,0,0,0,.16-.73,4,4,0,0,0-1.69-2C111.47,66.74,111.59,67.38,111,67.55Z"/><path d="M25.44,57.78c-.18.9-.31,1.79-.45,2.69,0,.28.08.61-.34.69s-.67.19-.77-.3a2.61,2.61,0,0,1,0-1.11c.3-1.29.57-2.59,1-3.88a16.8,16.8,0,0,0-1.69,5.19c-.89.08-1,.07-.94-.84a6.65,6.65,0,0,1,.65-2.91c.13-.24.24-.57,0-.65s-.44.25-.53.56a8.57,8.57,0,0,0-.55,3.72A1.12,1.12,0,0,1,21,61c-.45-.17-1.19.33-1.36-.44a3.67,3.67,0,0,1,0-2c0-.08.09-.16.1-.25s.07-.46-.19-.44-.24.21-.29.38a7,7,0,0,0-.21,1.9c0,.28,0,.62-.38.69s-.46-.08-.48-.42a3.51,3.51,0,0,1,.14-1.39c.08-.24.26-.52-.12-.7a5.92,5.92,0,0,0-.61,2.39c-.57.07-.8-.2-1-.67-.87-2.18-2.66-3-4.63-3.47a.51.51,0,0,0-.59.68c.56,1.46.42,3.41,1.66,4.38.3.25.18.51-.15.8-.57.52-1.14,1.05-1.7,1.6A4.57,4.57,0,0,0,10,66.68c0,.29,0,.55.21.71s.44,0,.67-.24a3.23,3.23,0,0,1,1.67-.93,7.08,7.08,0,0,0,3.87-2.81c.38-.48.68-.63,1-.53s.23.57.17.94-.14.93.38,1c0-.4,0-.73.05-1.06s.07-.87.54-.87.14.44.14.7a4.67,4.67,0,0,0,.1,1.46c.06.21.1.49.44.37a3.44,3.44,0,0,0-.11-1.29,1.29,1.29,0,0,1,.12-.87c.12-.23.23-.49.51-.49s.35.18.32.47a6.41,6.41,0,0,0,.15,1.82c0,.23,0,.51.4.38a7,7,0,0,0-.12-1.89c0-.34,0-.72.42-.84s.59,0,.52.58a15.46,15.46,0,0,0,.17,3.06c0,.4.19.65.57.66a1.51,1.51,0,0,0,0-1.14A4.36,4.36,0,0,1,22,63.41c.06-.25,0-.54.35-.61s.52,0,.58.3a4.6,4.6,0,0,1,.09.84,6.82,6.82,0,0,0,.53,2.9c.11.31.12,1,.63.55s-.12-.59-.24-.86a4.84,4.84,0,0,1-.49-2.89.85.85,0,0,1,.34-.67A.81.81,0,0,1,25,63.7a15.87,15.87,0,0,0,.24,2.42c.07.68.22.76.83.84a6.14,6.14,0,0,1-.51-3.75c.86-.09,1.42.08,1.52,1.11.06.56.15,1.1.17,1.68,0,.88.49,1.23,1.28,1a23.1,23.1,0,0,0,2.41-.85,9.92,9.92,0,0,0,3.66-2.41c1.21-1.32,2-3.28.56-4.74a12.15,12.15,0,0,0-5-3.07c-1.43-.44-1.51-.43-2.24,1.39a8.51,8.51,0,0,0-.41,1.39c-.11.51-.18,1-.25,1.54-.11.67-.53.69-.94.8s-.71,0-.69-.54a10.32,10.32,0,0,1,.61-3.55c.11-.27.37-.53.15-.91A4.52,4.52,0,0,0,25.44,57.78Zm3,8.63c-.23.09-.59.16-.57-.26.07-1.35-.43-2.47-.34-3.85A21.57,21.57,0,0,1,28.09,58c.33-1.2.62-1.84,1.94-1.47a11,11,0,0,1,4.72,3c.86.85.83,1.85,0,3.21A6.33,6.33,0,0,1,33,64.4c-.49.39-.83,0-1.13-.24a3.7,3.7,0,0,1-.38-.65.24.24,0,0,0-.38,0,.31.31,0,0,0,0,.35A1.86,1.86,0,0,0,32,64.93,13.75,13.75,0,0,1,28.41,66.41ZM11.5,64.51A12.38,12.38,0,0,1,14,62.26a.64.64,0,0,0,.37-.51c0-.31-.15-.36-.36-.42A2.13,2.13,0,0,1,12.4,59.5c-.12-.61-.23-1.23-.35-1.88a1.43,1.43,0,0,1,1.38,0A4.44,4.44,0,0,1,16,60.12a1.72,1.72,0,0,1,.1,1.42,1.07,1.07,0,0,0-.1.38c0,.57.25,1.16-.26,1.7a6.81,6.81,0,0,1-2,1.7,3.59,3.59,0,0,1-.55.23,7.51,7.51,0,0,1-1.21.27c-.41,0-.72.58-1.19.58A2.44,2.44,0,0,1,11.5,64.51Zm10.76-2.27a21.67,21.67,0,0,0-3.32,0c-.71,0-1.43,0-2.15.07-.27,0-.4-.07-.38-.37s.2-.59.52-.63a2,2,0,0,1,.42,0c1.62.11,3.24.2,4.85.35a21.43,21.43,0,0,0,4-.14c.85-.08.85-.09.64,1.18C25.26,62.57,23.75,62.45,22.26,62.24Z"/><path d="M21.31,57.35a4.85,4.85,0,0,0-.49,2.94.34.34,0,0,1-.22.41c-.17,0-.25-.07-.3-.23A3.38,3.38,0,0,1,21.31,57.35Z"/><path d="M30.58,60.88c-.32-.14-.38-.49-.38-.87a.75.75,0,0,1,.38-.64,1.59,1.59,0,0,1,2.21,1.51c-.07.63-.3.9-.82.87a1.51,1.51,0,0,1-1.39-.91c.51-.14.86.21,1.3.26a.46.46,0,0,0,.49-.28.42.42,0,0,0-.07-.55,1.92,1.92,0,0,0-1.53-.53C30.67,60.15,30.9,60.52,30.58,60.88Z"/></pattern></defs><g id="_2_t-shirt_pattern" data-name="2_t-shirt_pattern"><path class="cls-1" d="M158.83,368.77c-.39-.34-.78-.67-1.16-1-1.1-1-2.16-2.09-3.19-3.18a111.82,111.82,0,0,0-10.69,12,76.25,76.25,0,0,0,4.81,6.1,107.46,107.46,0,0,1,10.15-13.85Z"/><path class="cls-1" d="M146.16,353.94l0,0q-1.55-2.51-2.87-5.13a40.67,40.67,0,0,0-5.15,3.07c-.46.32-.9.64-1.34,1l-.07.05-.29.24-.66.53c-.84.71-1.65,1.45-2.44,2.22l0,0a79.31,79.31,0,0,0,3,7.63Q141,358.54,146.16,353.94Z"/><path class="cls-1" d="M167.42,375.22a67.45,67.45,0,0,1-5.57-3.94,2.16,2.16,0,0,1-.27.38,102,102,0,0,0-10.17,14.08c.9.92,1.83,1.83,2.79,2.71q2.18,2,4.49,3.8l8.61-16.86A1.77,1.77,0,0,1,167.42,375.22Z"/><path class="cls-1" d="M148.45,357.27q-5.35,4.85-10.27,10.13,1.51,2.93,3.27,5.72a116.85,116.85,0,0,1,10.36-11.54C150.64,360.19,149.5,358.76,148.45,357.27Z"/><path class="cls-1" d="M210.24,388.54a174.53,174.53,0,0,0-1.16,20.18,2.23,2.23,0,0,1,0,.27c5,0,10-.22,14.93-.65q-.87-9.82-1.75-19.65A117,117,0,0,1,210.24,388.54Z"/><path class="cls-1" d="M178.9,381.28a79.88,79.88,0,0,1-8.09-4l-.05.12L162,394.51a1.53,1.53,0,0,1-.11.16,78,78,0,0,0,9.9,5.88q3.1-9.57,6.88-18.88C178.76,381.54,178.83,381.41,178.9,381.28Z"/><path class="cls-1" d="M200.4,387.45c-1.36-.21-2.71-.47-4.05-.75q-1.54,10.47-3.08,20.92a81.85,81.85,0,0,0,8.74,1.11c1,.07,2.06.12,3.09.16a.88.88,0,0,1,0-.17,173.65,173.65,0,0,1,1.2-20.51Q203.34,387.91,200.4,387.45Z"/><path class="cls-1" d="M237.5,387.26c-3.75.55-7.51,1-11.29,1.23L228,408c1.52-.16,3-.33,4.55-.51q5.26-.63,10.48-1.49-2.68-9.1-5.39-18.21A2.23,2.23,0,0,1,237.5,387.26Z"/><path class="cls-1" d="M175.47,402.25a79.36,79.36,0,0,0,13.9,4.57q1.55-10.5,3.1-21a90.22,90.22,0,0,1-9.92-3.06Q178.65,392.37,175.47,402.25Z"/><path class="cls-1" d="M94.12,469.91l-6.92-3.05c-1,2-2,4-2.83,6.1l7,3.68Z"/><path class="cls-1" d="M83.56,465.24c-1.94-.88-3.88-1.76-5.81-2.67l-2.7,5.51,5.79,3C81.69,469.12,82.6,467.17,83.56,465.24Z"/><path class="cls-1" d="M101.59,481.54l2.52-7.21L99,472.06l-1.25-.55c-.94,2.3-1.87,4.61-2.81,6.91l0,.06.45.23A64.24,64.24,0,0,0,101.59,481.54Z"/><path class="cls-1" d="M112.09,483a4.29,4.29,0,0,0,1.2-2.26c.2-.68.36-1.37.52-2.05h0l-6-2.68-2.37,6.8,1.17.28C108.16,483.37,110.47,484.3,112.09,483Z"/><path class="cls-1" d="M139.33,338.55l-.14.11-7.82,5.22a1.67,1.67,0,0,1-.93.27c.42,2.52,1,5,1.63,7.49a43.33,43.33,0,0,1,9.59-6.5A60.58,60.58,0,0,1,139.33,338.55Z"/><path class="cls-1" d="M138.41,335c-.21,0-1-4.68-1.3-6.67a66,66,0,0,0-9.72,6.14,2,2,0,0,1,2.19,1.92q.1,1.86.3,3.72l7.29-4.86A1.73,1.73,0,0,1,138.41,335Z"/><path class="cls-1" d="M48.52,454.19l3.61,1.88c1-2.08,2.07-4.18,3-6.3q-2.22-1.51-4.4-3.1C50,449.16,49.22,451.66,48.52,454.19Z"/><path class="cls-1" d="M61.87,461.18c.81-1.88,1.71-3.71,2.67-5.51-2-1.18-4-2.4-6-3.67q-1.38,3-2.87,5.93L61,460.72Z"/><path class="cls-1" d="M71.59,466.08c.85-1.75,1.71-3.49,2.57-5.24l-.9-.43c-1.77-.89-3.51-1.82-5.24-2.77-.94,1.76-1.82,3.55-2.62,5.38l6.12,3.21C71.55,466.18,71.56,466.13,71.59,466.08Z"/><path class="cls-1" d="M338.54,341.42l.07,0a28.49,28.49,0,0,1,6.82,6.64l5.26-4.36-7.58-5.6Q340.83,339.78,338.54,341.42Z"/><path class="cls-1" d="M399.91,467.09c.57,1.87,1.2,3.71,1.88,5.55,2-.54,3.94-1.06,5.92-1.56L406,465.69Z"/><path class="cls-1" d="M396,468l-6.58,1.5c.67,2,1.33,4.11,2,6.17,1.45-.42,2.91-.84,4.35-1.28l2.16-.62c-.69-1.85-1.33-3.72-1.9-5.61A.9.9,0,0,1,396,468Z"/><path class="cls-1" d="M379,471.83c.6,2.28,1.27,4.53,2.05,6.75q3.3-.9,6.6-1.83l-2.07-6.4Z"/><path class="cls-1" d="M367.78,474.35a1.83,1.83,0,0,1,.14.32,46.54,46.54,0,0,1,1.7,6.25,2.38,2.38,0,0,1,0,.59c2.49-.61,5-1.25,7.47-1.9-.79-2.27-1.48-4.57-2.09-6.9Z"/><path class="cls-1" d="M364.07,475.73a1.38,1.38,0,0,1-.09-.53l-6,1.36s0,0,0,.06v.07a47.94,47.94,0,0,0,1.35,6.49,2,2,0,0,1,.05.76c2.19-.49,4.37-1,6.55-1.53a1.33,1.33,0,0,1-.17-.43A46.5,46.5,0,0,0,364.07,475.73Z"/><path class="cls-1" d="M415.67,463.5,410,464.8l1.65,5.32c1.51-.37,3-.74,4.54-1.08.71-.16,1.43-.31,2.15-.45q-1-2.61-1.82-5.28Z"/><path class="cls-1" d="M428.55,460.18a31.48,31.48,0,0,1,1.54,5.73c1.65-.43,3.26-1,3.88-2.17.47-.85-.34-3.45-.77-5Q430.89,459.5,428.55,460.18Z"/><path class="cls-1" d="M420.37,462.38q.87,2.72,1.87,5.39a.06.06,0,0,0,0,0c1.33-.27,2.66-.58,3.95-1a30.86,30.86,0,0,0-1.5-5.58C423.26,461.65,421.82,462,420.37,462.38Z"/><path class="cls-1" d="M354.09,477.43,347.14,479l-.14,0a33.29,33.29,0,0,0,1,4.81,3.69,3.69,0,0,0,1.36,2.14,1.68,1.68,0,0,0,.48.22,2.12,2.12,0,0,1,.79-.34c1.71-.35,3.41-.73,5.11-1.1a1.89,1.89,0,0,1-.23-.5A49.5,49.5,0,0,1,354.09,477.43Z"/><path class="cls-1" d="M284.17,374.36q-3,1.2-6.12,2.29c-1.56.55-3.13,1.1-4.7,1.63a139.86,139.86,0,0,1,6.86,17.3q3-1.27,6-2.73t5.62-3q-3.75-7.55-7.51-15.07A2.23,2.23,0,0,1,284.17,374.36Z"/><path class="cls-1" d="M298.32,368.1c-3.43,1.73-6.93,3.31-10.48,4.78q3.72,7.47,7.45,14.94c3.72-2.29,7.32-4.78,10.82-7.42a34.68,34.68,0,0,1-7.7-11.82A1.36,1.36,0,0,1,298.32,368.1Z"/><path class="cls-1" d="M269.56,379.52c-3.66,1.17-7.34,2.28-11.05,3.28l0,.06q3.45,9,6.11,18.22c4-1.16,8-2.49,11.85-4a133.09,133.09,0,0,0-6.81-17.24C269.64,379.74,269.6,379.63,269.56,379.52Z"/><path class="cls-1" d="M311.37,360.58c-3,1.94-6.05,3.79-9.18,5.5l-.71.37a2.72,2.72,0,0,1,.79,1.07l.21.53a1,1,0,0,1,0,.1c.12.27.24.54.37.81.25.54.52,1.08.81,1.6a31,31,0,0,0,1.82,3c.17.25.34.49.52.73l.3.4.05.07c.37.47.75.93,1.15,1.38.56.63,1.16,1.24,1.77,1.83l1-.77q3.54-2.84,7-5.73-3-5.38-5.93-10.75A.49.49,0,0,0,311.37,360.58Z"/><path class="cls-1" d="M254.65,383.78c-.84.21-1.67.44-2.52.64q-5.31,1.27-10.71,2.21a.08.08,0,0,1,0,0q2.76,9.3,5.51,18.58,6.54-1.22,13-2.87l.84-.23q-2.67-9.24-6.11-18.23Z"/><path class="cls-1" d="M351.75,331.92l-4.49,3.23-.76.54,6.61,4.88a2.63,2.63,0,0,1,.61.64l5.11-4.23a2,2,0,0,1,1.19-.49c-2.5-1.44-5-2.81-7.63-4.08A2.21,2.21,0,0,1,351.75,331.92Z"/><path class="cls-1" d="M341.77,349.78l0,0-.36-.43a22.49,22.49,0,0,0-1.54-1.7c-.56-.56-1.13-1.09-1.74-1.59-.14-.13-.29-.25-.44-.37a2,2,0,0,1-.23-.18l0,0c-.3-.23-.61-.45-.92-.66a2.19,2.19,0,0,1-.94-1.41l-8.94,6.44a2.43,2.43,0,0,1,.87.46l7.46,6.32,7.34-6.09c-.15-.21-.29-.42-.44-.62S341.82,349.86,341.77,349.78Z"/><path class="cls-1" d="M324.19,351.75c-3.14,2.25-6.3,4.49-9.51,6.65a1.31,1.31,0,0,1,.19.27l5.61,10.18,11.45-9.54-7.18-6.08A1.73,1.73,0,0,1,324.19,351.75Z"/><path class="cls-2" d="M349.11,489.2a.33.33,0,0,0,0-.1,4.67,4.67,0,0,1-2-.12c-1.68-.6-2.73-2.9-3.15-4.51-.62-2.37-.89-4.86-1.3-7.27l-1.29-7.63-2.58-15.27q-2.56-15.21-5.14-30.41a2,2,0,0,1,1.4-2.46,2,2,0,0,1,2.46,1.39q1.41,8.32,2.81,16.63l5,29.79c.32,1.94.65,3.89,1,5.83l19.2-4.34L399.92,463c10.87-2.46,21.92-4.59,32.5-8.19-.22-1.23-.45-2.46-.67-3.68-1.68-9.15-3.44-18.3-5.73-27.32a140.35,140.35,0,0,0-63.9-86.07,1.61,1.61,0,0,1-.47,2.09q-3.06,2.55-6.13,5.09l-25.3,21c-2.84,2.35-5.66,4.73-8.5,7.09a2,2,0,0,1-.74.81,1.54,1.54,0,0,1-.46.19c-4.79,4-9.62,7.9-14.64,11.57-15.77,11.53-34,18.58-53,22.59a242.8,242.8,0,0,1-29.17,4.21c-10.49.9-21.1,1-31.5-.82A81.3,81.3,0,0,1,146.13,386a79.5,79.5,0,0,1-5.57-7,1.87,1.87,0,0,1-.62-.23,2.15,2.15,0,0,1-1-2.1,82.14,82.14,0,0,1-13.38-40.3,2,2,0,0,1,0-.6c-6.56,5-13.64,10.44-19,16.62-1.84,2.13-4.32,3.65-6.17,5.81-1,1.15-1.91,2.36-2.84,3.56-11.47,14.93-22.4,30-31.09,46.73A239.26,239.26,0,0,0,52,442.91a1.57,1.57,0,0,1,.78.28q6.08,4.46,12.55,8.32a231.38,231.38,0,0,0,24.56,12.14l24.74,11c.33-1.86.65-3.72,1.06-5.55.65-2.83,1.31-5.66,2-8.47q2.1-8.58,4.52-17.06t5.14-16.88c.47-1.46.95-2.91,1.43-4.37.37-1.08.69-2.26,1.74-2.88s2.83-.48,2.68,1.11c-.33,3.52-2,7.29-3.1,10.65-.93,2.92-1.82,5.85-2.69,8.79-2.8,9.48-5,19.13-7.53,28.67-1.31,4.88-2.71,9.72-4.36,14.49-1.26,3.63-3.25,5.67-7.38,4.64-.49,1.85-.93,3.72-1.3,5.6s-.7,3.92-.89,5.42a2.66,2.66,0,0,1-.44,1.19H349.39s0-.05,0-.08A79.89,79.89,0,0,0,349.11,489.2Z"/></g></svg>