<svg id="T-shirt_pattern" xmlns="http://www.w3.org/2000/svg" xmlns:xlink="http://www.w3.org/1999/xlink" viewBox="0 0 500 500"><defs><style>.cls-1{fill:none;}.cls-2{fill:#edc1cc;}.cls-3{fill:#000105;}.cls-4{fill:url(#New_Pattern);}</style><pattern id="New_Pattern" data-name="New Pattern" width="170.43" height="223.77" patternUnits="userSpaceOnUse" viewBox="0 0 170.43 223.77"><rect class="cls-1" width="170.43" height="223.77"/><path class="cls-2" d="M105.89,181.09c-.78.15-.64.7-.53,1.24.25.94.94,1.55,1.64,1.43a1.24,1.24,0,0,0,.81-1.58A1.85,1.85,0,0,0,105.89,181.09Z"/><path class="cls-2" d="M113.58,177c.73.07,1-.59,1.17-1.16a5.74,5.74,0,0,0,.21-1.17c.06-.6-.12-1.11-.76-1.22s-1.38,0-1.6.84a6.54,6.54,0,0,0-.11,1.27C112.7,176.24,112.89,176.9,113.58,177Z"/><path class="cls-2" d="M108.35,178.52c1,0,.9-1,1.08-1.7a1.43,1.43,0,0,0-2.07-1.77c-.73.45-.57,1.13-.48,1.77C107.12,177.64,107.42,178.54,108.35,178.52Z"/><path class="cls-2" d="M117.77,177.18a2.65,2.65,0,0,0-.47,2.64.52.52,0,0,0,.7.19,2,2,0,0,0,1-2.24C118.78,177.1,118.22,176.83,117.77,177.18Z"/><path class="cls-2" d="M112.78,180.28c-.93-.49-1.65-.19-1.84.81a32.88,32.88,0,0,0-.89,6.4,3.69,3.69,0,0,0,.72,2.28,1.33,1.33,0,0,0,2.1.26,2.77,2.77,0,0,0,1-1.71c.08-.45,0-1,.6-1.13.37,0,.44.3.58.52.84,1.31,1.56,1.58,2.61,1s1.21-1.36.58-2.64A12.63,12.63,0,0,0,112.78,180.28Z"/><path class="cls-3" d="M118,183.55a7.77,7.77,0,0,1,1.43,2.65,2.76,2.76,0,0,1-3.17,3.76,2.29,2.29,0,0,0-2.56.77,2.3,2.3,0,0,1-4.08-1c-.09-.4-.25-.78-.42-1.29a6.21,6.21,0,0,1-.06-2.29c.21-1.6.37-3.22.65-4.81.45-2.54,1.92-3.08,4-1.62A21,21,0,0,1,118,183.55Zm.26,2.51a12.63,12.63,0,0,0-5.46-5.78c-.93-.49-1.65-.19-1.84.81a32.88,32.88,0,0,0-.89,6.4,3.69,3.69,0,0,0,.72,2.28,1.33,1.33,0,0,0,2.1.26,2.77,2.77,0,0,0,1-1.71c.08-.45,0-1,.6-1.13.37,0,.44.3.58.52.84,1.31,1.56,1.58,2.61,1S118.87,187.34,118.24,186.06Z"/><path class="cls-3" d="M105.77,177.18a2.31,2.31,0,0,1,1-2.72,2.45,2.45,0,0,1,2.84-.17,2,2,0,0,1,.9,2.45c-.13.46-.16.94-.31,1.38-.58,1.76-2.18,2.12-3.41.72A3.26,3.26,0,0,1,105.77,177.18Zm1.11-.36c.24.82.54,1.72,1.47,1.7s.9-1,1.08-1.7a1.43,1.43,0,0,0-2.07-1.77C106.63,175.5,106.79,176.18,106.88,176.82Z"/><path class="cls-3" d="M111.64,176c-.5-2.31.83-3.8,3-3.4a1.46,1.46,0,0,1,1,.58c.72,1,.22,3.74-.84,4.44C113.34,178.64,112.08,178,111.64,176Zm.85-.47c.21.7.4,1.36,1.09,1.44s1-.59,1.17-1.16a5.74,5.74,0,0,0,.21-1.17c.06-.6-.12-1.11-.76-1.22s-1.38,0-1.6.84A6.54,6.54,0,0,0,112.49,175.54Z"/><path class="cls-3" d="M108.49,183.82a1.63,1.63,0,0,1-2.66.69,4.22,4.22,0,0,1-1.45-2.14,1.85,1.85,0,0,1,.36-1.89c.58-.63,1.23-.39,1.88-.21C108.72,180.84,109.38,182.1,108.49,183.82Zm-.68-1.64a1.85,1.85,0,0,0-1.92-1.09c-.78.15-.64.7-.53,1.24.25.94.94,1.55,1.64,1.43A1.24,1.24,0,0,0,107.81,182.18Z"/><path class="cls-3" d="M120,178.49a3.14,3.14,0,0,1-1.24,2.21,1.47,1.47,0,0,1-1.65.38,1.57,1.57,0,0,1-.93-1.43,5.56,5.56,0,0,1,.25-2c.43-1.39,1-1.68,2.4-1.37C119.79,176.49,120.15,177.21,120,178.49Zm-1.05-.72c-.18-.67-.74-.94-1.19-.59a2.65,2.65,0,0,0-.47,2.64.52.52,0,0,0,.7.19A2,2,0,0,0,119,177.77Z"/><path class="cls-2" d="M151.5,204.56c-.77-.2-.87.37-1,.9a1.63,1.63,0,0,0,.88,2,1.24,1.24,0,0,0,1.4-1.09A1.84,1.84,0,0,0,151.5,204.56Z"/><path class="cls-2" d="M160.2,204.06c.64.39,1.14-.11,1.56-.55a5.69,5.69,0,0,0,.68-1,1,1,0,0,0-.18-1.42,1.24,1.24,0,0,0-1.8.08,7.33,7.33,0,0,0-.64,1.12C159.72,203,159.61,203.71,160.2,204.06Z"/><path class="cls-2" d="M154.82,203.27c.86.38,1.24-.55,1.68-1.09a1.43,1.43,0,0,0-1.12-2.48c-.86.1-1,.79-1.18,1.4C154.07,202,154,202.89,154.82,203.27Z"/><path class="cls-2" d="M163.92,206a2.67,2.67,0,0,0-1.53,2.2.51.51,0,0,0,.55.47,2,2,0,0,0,1.81-1.63C164.87,206.37,164.48,205.89,163.92,206Z"/><path class="cls-2" d="M158.1,206.73c-.65-.84-1.42-.87-2,0a32.73,32.73,0,0,0-3.5,5.44,3.75,3.75,0,0,0-.31,2.37,1.32,1.32,0,0,0,1.8,1.11,2.82,2.82,0,0,0,1.63-1.12c.26-.38.45-.86,1-.78.33.18.26.47.3.72.22,1.54.76,2.09,1.95,2s1.68-.73,1.64-2.15A12.65,12.65,0,0,0,158.1,206.73Z"/><path class="cls-3" d="M161.43,211.88a8.07,8.07,0,0,1,.19,3,2.77,2.77,0,0,1-4.47,2.08,2.28,2.28,0,0,0-2.64-.39,2.3,2.3,0,0,1-3.29-2.62,12.43,12.43,0,0,0,.17-1.34,5.89,5.89,0,0,1,.91-2.1c.86-1.37,1.68-2.76,2.61-4.09,1.47-2.11,3-2,4.35.24A20.88,20.88,0,0,1,161.43,211.88Zm-.82,2.39a12.65,12.65,0,0,0-2.51-7.54c-.65-.84-1.42-.87-2,0a32.73,32.73,0,0,0-3.5,5.44,3.75,3.75,0,0,0-.31,2.37,1.32,1.32,0,0,0,1.8,1.11,2.82,2.82,0,0,0,1.63-1.12c.26-.38.45-.86,1-.78.33.18.26.47.3.72.22,1.54.76,2.09,1.95,2S160.65,215.69,160.61,214.27Z"/><path class="cls-3" d="M153,201a2.31,2.31,0,0,1,2-2.07,2.47,2.47,0,0,1,2.64,1,2,2,0,0,1-.22,2.61c-.3.36-.53.78-.85,1.12-1.27,1.36-2.88,1-3.4-.78A3.27,3.27,0,0,1,153,201Zm1.16.14c-.13.85-.24,1.79.62,2.17s1.24-.55,1.68-1.09a1.43,1.43,0,0,0-1.12-2.48C154.52,199.8,154.39,200.49,154.2,201.1Z"/><path class="cls-3" d="M158.86,202.38c.51-2.31,2.35-3.1,4.16-1.82a1.42,1.42,0,0,1,.67.95,4.12,4.12,0,0,1-2.62,3.68C159.29,205.47,158.41,204.36,158.86,202.38Zm1-.07c-.1.72-.21,1.4.38,1.75s1.14-.11,1.56-.55a5.69,5.69,0,0,0,.68-1,1,1,0,0,0-.18-1.42,1.24,1.24,0,0,0-1.8.08A7.33,7.33,0,0,0,159.82,202.31Z"/><path class="cls-3" d="M152.71,208.14a1.63,1.63,0,0,1-2.7-.5,4.2,4.2,0,0,1-.42-2.56,1.89,1.89,0,0,1,1.12-1.56c.79-.32,1.29.17,1.8.6C154.17,205.52,154.24,206.94,152.71,208.14Zm.07-1.78a1.84,1.84,0,0,0-1.28-1.8c-.77-.2-.87.37-1,.9a1.63,1.63,0,0,0,.88,2A1.24,1.24,0,0,0,152.78,206.36Z"/><path class="cls-3" d="M165.4,208.14a3.12,3.12,0,0,1-2.05,1.49,1.48,1.48,0,0,1-1.66-.35,1.58,1.58,0,0,1-.24-1.69,5.56,5.56,0,0,1,1.07-1.7c1-1.08,1.56-1.12,2.75-.23C166,206.24,166.07,207.05,165.4,208.14Zm-.65-1.09c.12-.68-.27-1.16-.83-1a2.67,2.67,0,0,0-1.53,2.2.51.51,0,0,0,.55.47A2,2,0,0,0,164.75,207.05Z"/><path class="cls-2" d="M20.68,181.09c-.79.15-.64.7-.53,1.24.24.94.94,1.55,1.64,1.43a1.23,1.23,0,0,0,.8-1.58A1.83,1.83,0,0,0,20.68,181.09Z"/><path class="cls-2" d="M28.36,177c.74.07,1-.59,1.18-1.16a5.73,5.73,0,0,0,.2-1.17c.07-.6-.11-1.11-.76-1.22s-1.37,0-1.59.84a6.61,6.61,0,0,0-.12,1.27C27.49,176.24,27.67,176.9,28.36,177Z"/><path class="cls-2" d="M23.14,178.52c.94,0,.89-1,1.07-1.7a1.43,1.43,0,0,0-2.06-1.77c-.74.45-.57,1.13-.48,1.77C21.9,177.64,22.21,178.54,23.14,178.52Z"/><path class="cls-2" d="M32.55,177.18a2.67,2.67,0,0,0-.46,2.64.51.51,0,0,0,.69.19,2,2,0,0,0,1-2.24C33.57,177.1,33,176.83,32.55,177.18Z"/><path class="cls-2" d="M27.57,180.28c-.93-.49-1.65-.19-1.84.81a32.9,32.9,0,0,0-.9,6.4,3.82,3.82,0,0,0,.72,2.28,1.34,1.34,0,0,0,2.11.26,2.86,2.86,0,0,0,1-1.71c.08-.45.05-1,.6-1.13.37,0,.43.3.57.52.85,1.31,1.57,1.58,2.62,1s1.21-1.36.57-2.64A12.56,12.56,0,0,0,27.57,180.28Z"/><path class="cls-3" d="M32.76,183.55a8,8,0,0,1,1.44,2.65A2.76,2.76,0,0,1,31,190a2.28,2.28,0,0,0-2.55.77,2.31,2.31,0,0,1-4.09-1,11.59,11.59,0,0,0-.41-1.29,6,6,0,0,1-.06-2.29c.2-1.6.36-3.22.64-4.81.45-2.54,1.92-3.08,4.06-1.62A21.2,21.2,0,0,1,32.76,183.55Zm.26,2.51a12.56,12.56,0,0,0-5.45-5.78c-.93-.49-1.65-.19-1.84.81a32.9,32.9,0,0,0-.9,6.4,3.82,3.82,0,0,0,.72,2.28,1.34,1.34,0,0,0,2.11.26,2.86,2.86,0,0,0,1-1.71c.08-.45.05-1,.6-1.13.37,0,.43.3.57.52.85,1.31,1.57,1.58,2.62,1S33.66,187.34,33,186.06Z"/><path class="cls-3" d="M20.55,177.18a2.31,2.31,0,0,1,1-2.72,2.44,2.44,0,0,1,2.83-.17,2,2,0,0,1,.9,2.45c-.12.46-.16.94-.3,1.38-.58,1.76-2.19,2.12-3.41.72A3.35,3.35,0,0,1,20.55,177.18Zm1.12-.36c.23.82.54,1.72,1.47,1.7s.89-1,1.07-1.7a1.43,1.43,0,0,0-2.06-1.77C21.41,175.5,21.58,176.18,21.67,176.82Z"/><path class="cls-3" d="M26.43,176c-.51-2.31.83-3.8,3-3.4a1.42,1.42,0,0,1,1,.58c.72,1,.22,3.74-.83,4.44C28.12,178.64,26.86,178,26.43,176Zm.84-.47c.22.7.4,1.36,1.09,1.44s1-.59,1.18-1.16a5.73,5.73,0,0,0,.2-1.17c.07-.6-.11-1.11-.76-1.22s-1.37,0-1.59.84A6.61,6.61,0,0,0,27.27,175.54Z"/><path class="cls-3" d="M23.28,183.82a1.63,1.63,0,0,1-2.66.69,4.3,4.3,0,0,1-1.46-2.14,1.89,1.89,0,0,1,.36-1.89c.58-.63,1.24-.39,1.88-.21C23.5,180.84,24.16,182.1,23.28,183.82Zm-.69-1.64a1.83,1.83,0,0,0-1.91-1.09c-.79.15-.64.7-.53,1.24.24.94.94,1.55,1.64,1.43A1.23,1.23,0,0,0,22.59,182.18Z"/><path class="cls-3" d="M34.79,178.49a3.11,3.11,0,0,1-1.24,2.21,1.46,1.46,0,0,1-1.64.38,1.6,1.6,0,0,1-.94-1.43,5.57,5.57,0,0,1,.26-2c.43-1.39.95-1.68,2.39-1.37C34.57,176.49,34.94,177.21,34.79,178.49Zm-1-.72c-.18-.67-.74-.94-1.2-.59a2.67,2.67,0,0,0-.46,2.64.51.51,0,0,0,.69.19A2,2,0,0,0,33.75,177.77Z"/><path class="cls-2" d="M66.29,204.56c-.78-.2-.88.37-1,.9a1.62,1.62,0,0,0,.88,2,1.23,1.23,0,0,0,1.39-1.09A1.82,1.82,0,0,0,66.29,204.56Z"/><path class="cls-2" d="M75,204.06c.64.39,1.14-.11,1.55-.55a5.69,5.69,0,0,0,.68-1,1,1,0,0,0-.18-1.42,1.23,1.23,0,0,0-1.79.08,6,6,0,0,0-.64,1.12C74.51,203,74.4,203.71,75,204.06Z"/><path class="cls-2" d="M69.6,203.27c.86.38,1.24-.55,1.69-1.09a1.38,1.38,0,0,0,.24-1.83,1.37,1.37,0,0,0-1.37-.65c-.85.1-1,.79-1.18,1.4C68.85,202,68.75,202.89,69.6,203.27Z"/><path class="cls-2" d="M78.71,206a2.68,2.68,0,0,0-1.54,2.2.51.51,0,0,0,.55.47,2,2,0,0,0,1.82-1.63C79.66,206.37,79.27,205.89,78.71,206Z"/><path class="cls-2" d="M72.88,206.73c-.64-.84-1.41-.87-2,0a33.44,33.44,0,0,0-3.51,5.44,3.81,3.81,0,0,0-.3,2.37,1.32,1.32,0,0,0,1.8,1.11,2.85,2.85,0,0,0,1.63-1.12c.25-.38.45-.86,1-.78.32.18.26.47.29.72.22,1.54.76,2.09,2,2,1-.08,1.67-.73,1.63-2.15A12.58,12.58,0,0,0,72.88,206.73Z"/><path class="cls-3" d="M76.22,211.88a8.06,8.06,0,0,1,.18,3A2.76,2.76,0,0,1,71.94,217a2.28,2.28,0,0,0-2.64-.39A2.3,2.3,0,0,1,66,214c.09-.39.1-.8.17-1.34a6,6,0,0,1,.9-2.1c.86-1.37,1.69-2.76,2.62-4.09,1.47-2.11,3-2,4.35.24A20.88,20.88,0,0,1,76.22,211.88Zm-.83,2.39a12.58,12.58,0,0,0-2.51-7.54c-.64-.84-1.41-.87-2,0a33.44,33.44,0,0,0-3.51,5.44,3.81,3.81,0,0,0-.3,2.37,1.32,1.32,0,0,0,1.8,1.11,2.85,2.85,0,0,0,1.63-1.12c.25-.38.45-.86,1-.78.32.18.26.47.29.72.22,1.54.76,2.09,2,2C74.81,216.34,75.43,215.69,75.39,214.27Z"/><path class="cls-3" d="M67.82,201a2.33,2.33,0,0,1,2-2.07,2.49,2.49,0,0,1,2.65,1,2,2,0,0,1-.22,2.61c-.31.36-.54.78-.86,1.12-1.26,1.36-2.87,1-3.39-.78A3.28,3.28,0,0,1,67.82,201Zm1.16.14c-.13.85-.23,1.79.62,2.17s1.24-.55,1.69-1.09a1.38,1.38,0,0,0,.24-1.83,1.37,1.37,0,0,0-1.37-.65C69.31,199.8,69.17,200.49,69,201.1Z"/><path class="cls-3" d="M73.64,202.38c.52-2.31,2.35-3.1,4.17-1.82a1.45,1.45,0,0,1,.67.95c.22,1.24-1.38,3.48-2.63,3.68C74.07,205.47,73.2,204.36,73.64,202.38Zm1-.07c-.1.72-.21,1.4.38,1.75s1.14-.11,1.55-.55a5.69,5.69,0,0,0,.68-1,1,1,0,0,0-.18-1.42,1.23,1.23,0,0,0-1.79.08A6,6,0,0,0,74.61,202.31Z"/><path class="cls-3" d="M67.5,208.14a1.64,1.64,0,0,1-2.71-.5,4.27,4.27,0,0,1-.41-2.56,1.85,1.85,0,0,1,1.12-1.56c.79-.32,1.28.17,1.79.6C69,205.52,69,206.94,67.5,208.14Zm.06-1.78a1.82,1.82,0,0,0-1.27-1.8c-.78-.2-.88.37-1,.9a1.62,1.62,0,0,0,.88,2A1.23,1.23,0,0,0,67.56,206.36Z"/><path class="cls-3" d="M80.18,208.14a3.12,3.12,0,0,1-2.05,1.49,1.46,1.46,0,0,1-1.65-.35,1.56,1.56,0,0,1-.25-1.69,5.76,5.76,0,0,1,1.07-1.7c1-1.08,1.57-1.12,2.75-.23C80.83,206.24,80.86,207.05,80.18,208.14Zm-.64-1.09c.12-.68-.27-1.16-.83-1a2.68,2.68,0,0,0-1.54,2.2.51.51,0,0,0,.55.47A2,2,0,0,0,79.54,207.05Z"/><path class="cls-2" d="M138.47,128.16c-.79.09-.68.66-.6,1.2.19,1,.85,1.61,1.55,1.53a1.24,1.24,0,0,0,.9-1.53A1.84,1.84,0,0,0,138.47,128.16Z"/><path class="cls-2" d="M146.39,124.51c.73.12,1-.52,1.24-1.08a5.11,5.11,0,0,0,.27-1.17c.11-.59,0-1.1-.68-1.25s-1.38-.06-1.64.73a6.42,6.42,0,0,0-.19,1.27C145.56,123.72,145.71,124.39,146.39,124.51Z"/><path class="cls-2" d="M141.08,125.74c.95,0,1-1,1.17-1.63a1.39,1.39,0,0,0-.44-1.79,1.34,1.34,0,0,0-1.51-.1c-.76.4-.63,1.09-.59,1.73C139.9,124.79,140.15,125.7,141.08,125.74Z"/><path class="cls-2" d="M150.56,125a2.66,2.66,0,0,0-.62,2.61.51.51,0,0,0,.68.23,2,2,0,0,0,1.1-2.18C151.58,125,151,124.64,150.56,125Z"/><path class="cls-2" d="M145.4,127.76c-.9-.54-1.63-.29-1.89.69a33.39,33.39,0,0,0-1.27,6.35,3.79,3.79,0,0,0,.58,2.32,1.33,1.33,0,0,0,2.08.37,2.77,2.77,0,0,0,1.11-1.64c.1-.45.11-1,.66-1.09.37,0,.42.33.55.55.76,1.36,1.46,1.67,2.54,1.15s1.3-1.29.74-2.6A12.58,12.58,0,0,0,145.4,127.76Z"/><path class="cls-3" d="M150.39,131.33a8,8,0,0,1,1.28,2.73,2.77,2.77,0,0,1-3.4,3.57,2.27,2.27,0,0,0-2.59.61,2.31,2.31,0,0,1-4-1.23c-.06-.4-.2-.79-.33-1.31a6,6,0,0,1,.07-2.29c.3-1.59.56-3.19.94-4.76.6-2.51,2.1-3,4.14-1.38A20.94,20.94,0,0,1,150.39,131.33Zm.11,2.53a12.58,12.58,0,0,0-5.1-6.1c-.9-.54-1.63-.29-1.89.69a33.39,33.39,0,0,0-1.27,6.35,3.79,3.79,0,0,0,.58,2.32,1.33,1.33,0,0,0,2.08.37,2.77,2.77,0,0,0,1.11-1.64c.1-.45.11-1,.66-1.09.37,0,.42.33.55.55.76,1.36,1.46,1.67,2.54,1.15S151.06,135.17,150.5,133.86Z"/><path class="cls-3" d="M138.58,124.25a2.34,2.34,0,0,1,1.11-2.67,2.48,2.48,0,0,1,2.85,0,2,2,0,0,1,.75,2.51c-.15.44-.21.92-.39,1.36-.68,1.72-2.31,2-3.44.51A3.28,3.28,0,0,1,138.58,124.25Zm1.13-.3c.19.84.44,1.75,1.37,1.79s1-1,1.17-1.63a1.39,1.39,0,0,0-.44-1.79,1.34,1.34,0,0,0-1.51-.1C139.54,122.62,139.67,123.31,139.71,124Z"/><path class="cls-3" d="M144.52,123.43c-.37-2.33,1-3.74,3.21-3.21a1.39,1.39,0,0,1,1,.64c.66,1.07,0,3.74-1.1,4.38C146.05,126.15,144.83,125.44,144.52,123.43Zm.87-.42c.17.71.32,1.38,1,1.5s1-.52,1.24-1.08a5.11,5.11,0,0,0,.27-1.17c.11-.59,0-1.1-.68-1.25s-1.38-.06-1.64.73A6.42,6.42,0,0,0,145.39,123Z"/><path class="cls-3" d="M140.91,131a1.64,1.64,0,0,1-2.7.53,4.27,4.27,0,0,1-1.33-2.23,1.88,1.88,0,0,1,.48-1.86c.61-.59,1.25-.31,1.89-.1C141.31,128.07,141.89,129.37,140.91,131Zm-.59-1.68a1.84,1.84,0,0,0-1.85-1.2c-.79.09-.68.66-.6,1.2.19,1,.85,1.61,1.55,1.53A1.24,1.24,0,0,0,140.32,129.36Z"/><path class="cls-3" d="M152.72,126.4a3.16,3.16,0,0,1-1.37,2.14,1.47,1.47,0,0,1-1.67.27,1.57,1.57,0,0,1-.85-1.48,5.75,5.75,0,0,1,.38-2c.51-1.36,1-1.62,2.47-1.22C152.62,124.4,152.94,125.14,152.72,126.4Zm-1-.78c-.14-.67-.68-1-1.16-.66a2.66,2.66,0,0,0-.62,2.61.51.51,0,0,0,.68.23A2,2,0,0,0,151.72,125.62Z"/><path class="cls-2" d="M148.5,69.21c-.79.14-.64.7-.53,1.23.24,1,.94,1.56,1.64,1.44a1.24,1.24,0,0,0,.8-1.58A1.82,1.82,0,0,0,148.5,69.21Z"/><path class="cls-2" d="M156.18,65.09c.74.08,1-.58,1.18-1.15a5.2,5.2,0,0,0,.2-1.18c.07-.6-.11-1.1-.76-1.21s-1.37,0-1.59.83a5.93,5.93,0,0,0-.11,1.28C155.31,64.36,155.49,65,156.18,65.09Z"/><path class="cls-2" d="M151,66.64c.95,0,.9-1,1.07-1.7a1.38,1.38,0,0,0-.55-1.76,1.34,1.34,0,0,0-1.51,0c-.74.45-.57,1.12-.48,1.77C149.72,65.75,150,66.65,151,66.64Z"/><path class="cls-2" d="M160.38,65.29a2.66,2.66,0,0,0-.47,2.64.51.51,0,0,0,.69.2,2,2,0,0,0,1-2.25C161.39,65.22,160.83,64.94,160.38,65.29Z"/><path class="cls-2" d="M155.39,68.39c-.93-.48-1.65-.19-1.84.81a32.24,32.24,0,0,0-.89,6.41,3.73,3.73,0,0,0,.72,2.28,1.33,1.33,0,0,0,2.1.25,2.83,2.83,0,0,0,1-1.71c.08-.45.05-1,.6-1.13.37,0,.43.31.57.53.85,1.3,1.57,1.57,2.62,1s1.21-1.36.58-2.63A12.7,12.7,0,0,0,155.39,68.39Z"/><path class="cls-3" d="M160.59,71.66A8,8,0,0,1,162,74.31a2.77,2.77,0,0,1-3.17,3.77,2.29,2.29,0,0,0-2.56.76,2.3,2.3,0,0,1-4.09-1,13.08,13.08,0,0,0-.41-1.29,6.15,6.15,0,0,1-.06-2.28c.2-1.61.37-3.22.65-4.82.44-2.53,1.91-3.07,4.05-1.61A21.18,21.18,0,0,1,160.59,71.66Zm.26,2.52a12.7,12.7,0,0,0-5.46-5.79c-.93-.48-1.65-.19-1.84.81a32.24,32.24,0,0,0-.89,6.41,3.73,3.73,0,0,0,.72,2.28,1.33,1.33,0,0,0,2.1.25,2.83,2.83,0,0,0,1-1.71c.08-.45.05-1,.6-1.13.37,0,.43.31.57.53.85,1.3,1.57,1.57,2.62,1S161.48,75.45,160.85,74.18Z"/><path class="cls-3" d="M148.38,65.3a2.31,2.31,0,0,1,1-2.73,2.47,2.47,0,0,1,2.84-.17,2,2,0,0,1,.89,2.46c-.12.45-.15.93-.3,1.38-.58,1.76-2.19,2.11-3.41.72A3.3,3.3,0,0,1,148.38,65.3Zm1.11-.36c.23.81.54,1.71,1.47,1.7s.9-1,1.07-1.7a1.38,1.38,0,0,0-.55-1.76,1.34,1.34,0,0,0-1.51,0C149.23,63.62,149.4,64.29,149.49,64.94Z"/><path class="cls-3" d="M154.25,64.13c-.5-2.31.83-3.8,3-3.4a1.42,1.42,0,0,1,1,.58,4.12,4.12,0,0,1-.83,4.44C155.94,66.75,154.68,66.11,154.25,64.13Zm.85-.47c.21.7.39,1.36,1.08,1.43s1-.58,1.18-1.15a5.2,5.2,0,0,0,.2-1.18c.07-.6-.11-1.1-.76-1.21s-1.37,0-1.59.83A5.93,5.93,0,0,0,155.1,63.66Z"/><path class="cls-3" d="M151.1,71.94a1.62,1.62,0,0,1-2.66.68A4.14,4.14,0,0,1,147,70.48a1.85,1.85,0,0,1,.35-1.88c.58-.63,1.24-.39,1.88-.22C151.32,69,152,70.21,151.1,71.94Zm-.69-1.64a1.82,1.82,0,0,0-1.91-1.09c-.79.14-.64.7-.53,1.23.24,1,.94,1.56,1.64,1.44A1.24,1.24,0,0,0,150.41,70.3Z"/><path class="cls-3" d="M162.61,66.6a3.13,3.13,0,0,1-1.23,2.21,1.46,1.46,0,0,1-1.65.38,1.57,1.57,0,0,1-.94-1.43,5.74,5.74,0,0,1,.26-2c.43-1.39.95-1.68,2.39-1.37C162.39,64.61,162.76,65.32,162.61,66.6Zm-1-.72c-.18-.66-.74-.94-1.19-.59a2.66,2.66,0,0,0-.47,2.64.51.51,0,0,0,.69.2A2,2,0,0,0,161.57,65.88Z"/><path class="cls-2" d="M53.26,128.16c-.79.09-.68.66-.6,1.2.18,1,.84,1.61,1.54,1.53a1.23,1.23,0,0,0,.9-1.53A1.81,1.81,0,0,0,53.26,128.16Z"/><path class="cls-2" d="M61.17,124.51c.74.12,1-.52,1.25-1.08a5.69,5.69,0,0,0,.27-1.17c.1-.59,0-1.1-.68-1.25s-1.38-.06-1.65.73a7.25,7.25,0,0,0-.19,1.27C60.35,123.72,60.49,124.39,61.17,124.51Z"/><path class="cls-2" d="M55.87,125.74c.94,0,1-1,1.17-1.63a1.39,1.39,0,0,0-.44-1.79,1.35,1.35,0,0,0-1.51-.1c-.77.4-.64,1.09-.59,1.73C54.69,124.79,54.94,125.7,55.87,125.74Z"/><path class="cls-2" d="M65.35,125a2.66,2.66,0,0,0-.63,2.61.52.52,0,0,0,.69.23,2,2,0,0,0,1.09-2.18C66.36,125,65.82,124.64,65.35,125Z"/><path class="cls-2" d="M60.19,127.76c-.9-.54-1.64-.29-1.89.69A32.65,32.65,0,0,0,57,134.8a3.79,3.79,0,0,0,.59,2.32,1.33,1.33,0,0,0,2.08.37,2.75,2.75,0,0,0,1.1-1.64c.11-.45.11-1,.67-1.09.37,0,.41.33.54.55.77,1.36,1.47,1.67,2.55,1.15s1.29-1.29.74-2.6A12.69,12.69,0,0,0,60.19,127.76Z"/><path class="cls-3" d="M65.18,131.33a8,8,0,0,1,1.27,2.73,2.76,2.76,0,0,1-3.39,3.57,2.28,2.28,0,0,0-2.6.61,2.3,2.3,0,0,1-4-1.23,12.85,12.85,0,0,0-.34-1.31,6.18,6.18,0,0,1,.08-2.29c.3-1.59.56-3.19.93-4.76.6-2.51,2.1-3,4.14-1.38A21.29,21.29,0,0,1,65.18,131.33Zm.11,2.53a12.69,12.69,0,0,0-5.1-6.1c-.9-.54-1.64-.29-1.89.69A32.65,32.65,0,0,0,57,134.8a3.79,3.79,0,0,0,.59,2.32,1.33,1.33,0,0,0,2.08.37,2.75,2.75,0,0,0,1.1-1.64c.11-.45.11-1,.67-1.09.37,0,.41.33.54.55.77,1.36,1.47,1.67,2.55,1.15S65.84,135.17,65.29,133.86Z"/><path class="cls-3" d="M53.37,124.25a2.32,2.32,0,0,1,1.11-2.67,2.47,2.47,0,0,1,2.84,0,2,2,0,0,1,.75,2.51c-.15.44-.21.92-.38,1.36-.68,1.72-2.31,2-3.45.51A3.34,3.34,0,0,1,53.37,124.25Zm1.13-.3c.19.84.44,1.75,1.37,1.79s1-1,1.17-1.63a1.39,1.39,0,0,0-.44-1.79,1.35,1.35,0,0,0-1.51-.1C54.32,122.62,54.45,123.31,54.5,124Z"/><path class="cls-3" d="M59.3,123.43c-.36-2.33,1.06-3.74,3.21-3.21a1.41,1.41,0,0,1,1,.64c.65,1.07,0,3.74-1.1,4.38C60.84,126.15,59.62,125.44,59.3,123.43Zm.87-.42c.18.71.32,1.38,1,1.5s1-.52,1.25-1.08a5.69,5.69,0,0,0,.27-1.17c.1-.59,0-1.1-.68-1.25s-1.38-.06-1.65.73A7.25,7.25,0,0,0,60.17,123Z"/><path class="cls-3" d="M55.69,131a1.64,1.64,0,0,1-2.7.53,4.26,4.26,0,0,1-1.32-2.23,1.87,1.87,0,0,1,.47-1.86c.62-.59,1.26-.31,1.89-.1C56.09,128.07,56.68,129.37,55.69,131Zm-.59-1.68a1.81,1.81,0,0,0-1.84-1.2c-.79.09-.68.66-.6,1.2.18,1,.84,1.61,1.54,1.53A1.23,1.23,0,0,0,55.1,129.36Z"/><path class="cls-3" d="M67.5,126.4a3.15,3.15,0,0,1-1.36,2.14,1.47,1.47,0,0,1-1.67.27,1.55,1.55,0,0,1-.85-1.48,5.52,5.52,0,0,1,.38-2c.51-1.36,1-1.62,2.47-1.22C67.4,124.4,67.72,125.14,67.5,126.4Zm-1-.78c-.14-.67-.68-1-1.15-.66a2.66,2.66,0,0,0-.63,2.61.52.52,0,0,0,.69.23A2,2,0,0,0,66.5,125.62Z"/><path class="cls-2" d="M100,148.17c-.75-.28-.91.28-1.08.79a1.63,1.63,0,0,0,.68,2.07,1.24,1.24,0,0,0,1.5-.95A1.83,1.83,0,0,0,100,148.17Z"/><path class="cls-2" d="M108.67,148.52c.6.44,1.15,0,1.6-.4a5.62,5.62,0,0,0,.77-.91,1,1,0,0,0,0-1.43,1.23,1.23,0,0,0-1.8-.09,6.75,6.75,0,0,0-.74,1C108.29,147.44,108.11,148.11,108.67,148.52Z"/><path class="cls-2" d="M103.39,147.2c.82.47,1.28-.42,1.78-.92a1.38,1.38,0,0,0,.42-1.79,1.35,1.35,0,0,0-1.3-.78c-.86,0-1.06.68-1.31,1.28C102.77,145.82,102.57,146.74,103.39,147.2Z"/><path class="cls-2" d="M112.18,150.82a2.66,2.66,0,0,0-1.74,2,.51.51,0,0,0,.5.52,2,2,0,0,0,2-1.45C113.09,151.27,112.75,150.75,112.18,150.82Z"/><path class="cls-2" d="M106.31,151c-.55-.89-1.32-1-2-.23a32.67,32.67,0,0,0-4,5.06,3.78,3.78,0,0,0-.54,2.34,1.33,1.33,0,0,0,1.68,1.28,2.83,2.83,0,0,0,1.74-1c.29-.35.53-.81,1.08-.67.31.21.22.49.23.75.07,1.55.55,2.15,1.75,2.17s1.74-.55,1.84-2A12.67,12.67,0,0,0,106.31,151Z"/><path class="cls-3" d="M109.13,156.42a7.8,7.8,0,0,1-.11,3,2.76,2.76,0,0,1-4.64,1.63,2.27,2.27,0,0,0-2.59-.63,2.31,2.31,0,0,1-3-2.93c.13-.39.18-.79.3-1.32a5.94,5.94,0,0,1,1.1-2c1-1.28,2-2.59,3-3.82,1.67-2,3.21-1.68,4.31.66A20.83,20.83,0,0,1,109.13,156.42Zm-1,2.3a12.67,12.67,0,0,0-1.77-7.76c-.55-.89-1.32-1-2-.23a32.67,32.67,0,0,0-4,5.06,3.78,3.78,0,0,0-.54,2.34,1.33,1.33,0,0,0,1.68,1.28,2.83,2.83,0,0,0,1.74-1c.29-.35.53-.81,1.08-.67.31.21.22.49.23.75.07,1.55.55,2.15,1.75,2.17S108,160.14,108.08,158.72Z"/><path class="cls-3" d="M101.84,144.74a2.32,2.32,0,0,1,2.2-1.87,2.46,2.46,0,0,1,2.53,1.29,2,2,0,0,1-.47,2.57c-.34.33-.61.73-1,1-1.39,1.22-3,.71-3.3-1.11A3.22,3.22,0,0,1,101.84,144.74ZM103,145c-.21.83-.41,1.75.41,2.21s1.28-.42,1.78-.92a1.38,1.38,0,0,0,.42-1.79,1.35,1.35,0,0,0-1.3-.78C103.43,143.72,103.23,144.39,103,145Z"/><path class="cls-3" d="M107.49,146.71c.74-2.25,2.64-2.86,4.32-1.4a1.39,1.39,0,0,1,.58,1c.1,1.26-1.7,3.33-3,3.4C107.62,149.83,106.86,148.64,107.49,146.71Zm1,0c-.17.71-.35,1.38.21,1.79s1.15,0,1.6-.4a5.62,5.62,0,0,0,.77-.91,1,1,0,0,0,0-1.43,1.23,1.23,0,0,0-1.8-.09A6.75,6.75,0,0,0,108.46,146.73Z"/><path class="cls-3" d="M100.82,151.84a1.63,1.63,0,0,1-2.65-.76A4.29,4.29,0,0,1,98,148.5a1.85,1.85,0,0,1,1.26-1.44c.82-.25,1.27.29,1.73.77C102.52,149.38,102.45,150.8,100.82,151.84Zm.24-1.76a1.83,1.83,0,0,0-1.1-1.91c-.75-.28-.91.28-1.08.79a1.63,1.63,0,0,0,.68,2.07A1.24,1.24,0,0,0,101.06,150.08Z"/><path class="cls-3" d="M113.44,153.09a3.13,3.13,0,0,1-2.18,1.27,1.44,1.44,0,0,1-1.61-.51,1.57,1.57,0,0,1-.09-1.7,6,6,0,0,1,1.23-1.59c1.08-1,1.67-1,2.76,0C114.27,151.25,114.22,152.06,113.44,153.09Zm-.53-1.16c.18-.66-.16-1.18-.73-1.11a2.66,2.66,0,0,0-1.74,2,.51.51,0,0,0,.5.52A2,2,0,0,0,112.91,151.93Z"/><path class="cls-2" d="M63.28,69.21c-.78.14-.64.7-.52,1.23.24,1,.94,1.56,1.63,1.44a1.24,1.24,0,0,0,.81-1.58A1.83,1.83,0,0,0,63.28,69.21Z"/><path class="cls-2" d="M71,65.09c.74.08,1-.58,1.18-1.15a6.61,6.61,0,0,0,.2-1.18c.07-.6-.12-1.1-.76-1.21s-1.38,0-1.6.83a6.64,6.64,0,0,0-.11,1.28C70.09,64.36,70.28,65,71,65.09Z"/><path class="cls-2" d="M65.75,66.64c.94,0,.89-1,1.07-1.7a1.38,1.38,0,0,0-.55-1.76,1.34,1.34,0,0,0-1.51,0c-.74.45-.57,1.12-.49,1.77C64.51,65.75,64.82,66.65,65.75,66.64Z"/><path class="cls-2" d="M75.16,65.29a2.63,2.63,0,0,0-.46,2.64.51.51,0,0,0,.69.2,2,2,0,0,0,1-2.25C76.17,65.22,75.62,64.94,75.16,65.29Z"/><path class="cls-2" d="M70.18,68.39c-.94-.48-1.65-.19-1.85.81a33.77,33.77,0,0,0-.89,6.41,3.86,3.86,0,0,0,.72,2.28,1.33,1.33,0,0,0,2.1.25,2.8,2.8,0,0,0,1-1.71c.07-.45,0-1,.6-1.13.37,0,.43.31.57.53.85,1.3,1.56,1.57,2.61,1s1.21-1.36.58-2.63A12.68,12.68,0,0,0,70.18,68.39Z"/><path class="cls-3" d="M75.37,71.66a8.17,8.17,0,0,1,1.44,2.65,2.77,2.77,0,0,1-3.18,3.77,2.27,2.27,0,0,0-2.55.76,2.3,2.3,0,0,1-4.09-1c-.09-.39-.25-.77-.41-1.29a5.75,5.75,0,0,1-.06-2.28c.2-1.61.36-3.22.64-4.82.45-2.53,1.92-3.07,4-1.61A20.63,20.63,0,0,1,75.37,71.66Zm.26,2.52a12.68,12.68,0,0,0-5.45-5.79c-.94-.48-1.65-.19-1.85.81a33.77,33.77,0,0,0-.89,6.41,3.86,3.86,0,0,0,.72,2.28,1.33,1.33,0,0,0,2.1.25,2.8,2.8,0,0,0,1-1.71c.07-.45,0-1,.6-1.13.37,0,.43.31.57.53.85,1.3,1.56,1.57,2.61,1S76.26,75.45,75.63,74.18Z"/><path class="cls-3" d="M63.16,65.3a2.32,2.32,0,0,1,1-2.73A2.47,2.47,0,0,1,67,62.4a2,2,0,0,1,.9,2.46c-.13.45-.16.93-.3,1.38C67,68,65.36,68.35,64.14,67A3.32,3.32,0,0,1,63.16,65.3Zm1.11-.36c.24.81.55,1.71,1.48,1.7s.89-1,1.07-1.7a1.38,1.38,0,0,0-.55-1.76,1.34,1.34,0,0,0-1.51,0C64,63.62,64.19,64.29,64.27,64.94Z"/><path class="cls-3" d="M69,64.13c-.51-2.31.82-3.8,3-3.4a1.44,1.44,0,0,1,1,.58,4.1,4.1,0,0,1-.84,4.44C70.73,66.75,69.47,66.11,69,64.13Zm.84-.47c.21.7.4,1.36,1.09,1.43s1-.58,1.18-1.15a6.61,6.61,0,0,0,.2-1.18c.07-.6-.12-1.1-.76-1.21s-1.38,0-1.6.83A6.64,6.64,0,0,0,69.88,63.66Z"/><path class="cls-3" d="M65.89,71.94a1.63,1.63,0,0,1-2.67.68,4.26,4.26,0,0,1-1.45-2.14,1.85,1.85,0,0,1,.36-1.88c.58-.63,1.24-.39,1.88-.22C66.11,69,66.77,70.21,65.89,71.94ZM65.2,70.3a1.83,1.83,0,0,0-1.92-1.09c-.78.14-.64.7-.52,1.23.24,1,.94,1.56,1.63,1.44A1.24,1.24,0,0,0,65.2,70.3Z"/><path class="cls-3" d="M77.4,66.6a3.14,3.14,0,0,1-1.24,2.21,1.45,1.45,0,0,1-1.64.38,1.54,1.54,0,0,1-.94-1.43,5.51,5.51,0,0,1,.26-2c.42-1.39.94-1.68,2.39-1.37C77.18,64.61,77.54,65.32,77.4,66.6Zm-1.05-.72c-.18-.66-.73-.94-1.19-.59a2.63,2.63,0,0,0-.46,2.64.51.51,0,0,0,.69.2A2,2,0,0,0,76.35,65.88Z"/><path class="cls-2" d="M108.89,92.68c-.77-.2-.87.36-1,.89a1.64,1.64,0,0,0,.89,2,1.23,1.23,0,0,0,1.39-1.1A1.84,1.84,0,0,0,108.89,92.68Z"/><path class="cls-2" d="M117.6,92.18c.63.38,1.14-.11,1.55-.55a6.11,6.11,0,0,0,.68-1c.31-.52.36-1.05-.18-1.42a1.23,1.23,0,0,0-1.8.08,7.26,7.26,0,0,0-.64,1.11C117.11,91.14,117,91.82,117.6,92.18Z"/><path class="cls-2" d="M112.21,91.38c.86.39,1.24-.54,1.69-1.09a1.38,1.38,0,0,0,.24-1.82,1.35,1.35,0,0,0-1.37-.65c-.86.1-1,.78-1.18,1.4C111.46,90.06,111.36,91,112.21,91.38Z"/><path class="cls-2" d="M121.31,94.13a2.66,2.66,0,0,0-1.53,2.2.51.51,0,0,0,.55.47,2,2,0,0,0,1.82-1.64C122.27,94.49,121.87,94,121.31,94.13Z"/><path class="cls-2" d="M115.49,94.84c-.64-.83-1.42-.87-2,0a32.07,32.07,0,0,0-3.51,5.43,3.84,3.84,0,0,0-.31,2.38,1.33,1.33,0,0,0,1.8,1.11,2.76,2.76,0,0,0,1.63-1.13c.26-.38.45-.86,1-.77.33.18.26.46.3.72.22,1.54.76,2.08,2,2,1-.08,1.67-.72,1.63-2.14A12.63,12.63,0,0,0,115.49,94.84Z"/><path class="cls-3" d="M118.82,100a7.82,7.82,0,0,1,.19,3,2.77,2.77,0,0,1-4.47,2.08,2.26,2.26,0,0,0-2.63-.38,2.3,2.3,0,0,1-3.29-2.62c.08-.4.1-.81.16-1.35a6.22,6.22,0,0,1,.91-2.09c.86-1.37,1.69-2.77,2.61-4.1,1.48-2.11,3-2,4.36.24A20.92,20.92,0,0,1,118.82,100Zm-.82,2.39a12.63,12.63,0,0,0-2.51-7.55c-.64-.83-1.42-.87-2,0a32.07,32.07,0,0,0-3.51,5.43,3.84,3.84,0,0,0-.31,2.38,1.33,1.33,0,0,0,1.8,1.11,2.76,2.76,0,0,0,1.63-1.13c.26-.38.45-.86,1-.77.33.18.26.46.3.72.22,1.54.76,2.08,2,2C117.42,104.45,118,103.81,118,102.39Z"/><path class="cls-3" d="M110.43,89.08a2.32,2.32,0,0,1,2-2.07,2.43,2.43,0,0,1,2.64,1,2,2,0,0,1-.22,2.6c-.3.36-.53.79-.85,1.13-1.27,1.35-2.88,1-3.4-.78A3.36,3.36,0,0,1,110.43,89.08Zm1.16.14c-.13.84-.23,1.79.62,2.16s1.24-.54,1.69-1.09a1.38,1.38,0,0,0,.24-1.82,1.35,1.35,0,0,0-1.37-.65C111.91,87.92,111.78,88.6,111.59,89.22Z"/><path class="cls-3" d="M116.25,90.49c.51-2.31,2.35-3.1,4.16-1.81a1.39,1.39,0,0,1,.67.95,4.12,4.12,0,0,1-2.62,3.68C116.68,93.58,115.81,92.47,116.25,90.49Zm1-.07c-.1.72-.21,1.4.39,1.76s1.14-.11,1.55-.55a6.11,6.11,0,0,0,.68-1c.31-.52.36-1.05-.18-1.42a1.23,1.23,0,0,0-1.8.08A7.26,7.26,0,0,0,117.21,90.42Z"/><path class="cls-3" d="M110.1,96.25a1.63,1.63,0,0,1-2.7-.5A4.24,4.24,0,0,1,107,93.2a1.86,1.86,0,0,1,1.12-1.56c.79-.33,1.29.17,1.8.6C111.56,93.64,111.63,95.06,110.1,96.25Zm.07-1.78a1.84,1.84,0,0,0-1.28-1.79c-.77-.2-.87.36-1,.89a1.64,1.64,0,0,0,.89,2A1.23,1.23,0,0,0,110.17,94.47Z"/><path class="cls-3" d="M122.79,96.26a3.11,3.11,0,0,1-2.05,1.48,1.45,1.45,0,0,1-1.65-.35,1.56,1.56,0,0,1-.25-1.69A5.64,5.64,0,0,1,119.91,94c1-1.08,1.57-1.13,2.75-.24C123.43,94.36,123.46,95.16,122.79,96.26Zm-.64-1.1c.12-.67-.28-1.16-.84-1a2.66,2.66,0,0,0-1.53,2.2.51.51,0,0,0,.55.47A2,2,0,0,0,122.15,95.16Z"/><path class="cls-2" d="M14.75,148.17c-.75-.28-.91.28-1.09.79a1.63,1.63,0,0,0,.69,2.07,1.23,1.23,0,0,0,1.49-.95A1.84,1.84,0,0,0,14.75,148.17Z"/><path class="cls-2" d="M23.46,148.52c.59.44,1.14,0,1.6-.4a6.17,6.17,0,0,0,.77-.91,1,1,0,0,0,0-1.43,1.24,1.24,0,0,0-1.8-.09,6.13,6.13,0,0,0-.74,1C23.08,147.44,22.9,148.11,23.46,148.52Z"/><path class="cls-2" d="M18.17,147.2c.82.47,1.29-.42,1.79-.92a1.39,1.39,0,0,0,.42-1.79,1.36,1.36,0,0,0-1.3-.78c-.87,0-1.07.68-1.32,1.28C17.55,145.82,17.36,146.74,18.17,147.2Z"/><path class="cls-2" d="M27,150.82a2.62,2.62,0,0,0-1.74,2,.5.5,0,0,0,.5.52,2,2,0,0,0,2-1.45C27.88,151.27,27.54,150.75,27,150.82Z"/><path class="cls-2" d="M21.1,151c-.56-.89-1.33-1-2-.23a32.15,32.15,0,0,0-4,5.06,3.78,3.78,0,0,0-.53,2.34,1.33,1.33,0,0,0,1.68,1.28,2.81,2.81,0,0,0,1.73-1c.29-.35.53-.81,1.09-.67.31.21.22.49.23.75.06,1.55.55,2.15,1.75,2.17s1.73-.55,1.83-2A12.59,12.59,0,0,0,21.1,151Z"/><path class="cls-3" d="M23.92,156.42a8.22,8.22,0,0,1-.11,3,2.77,2.77,0,0,1-4.65,1.63,2.26,2.26,0,0,0-2.59-.63,2.31,2.31,0,0,1-3-2.93c.13-.39.18-.79.3-1.32a6,6,0,0,1,1.11-2c1-1.28,1.95-2.59,3-3.82,1.67-2,3.21-1.68,4.31.66A21.23,21.23,0,0,1,23.92,156.42Zm-1.06,2.3A12.59,12.59,0,0,0,21.1,151c-.56-.89-1.33-1-2-.23a32.15,32.15,0,0,0-4,5.06,3.78,3.78,0,0,0-.53,2.34,1.33,1.33,0,0,0,1.68,1.28,2.81,2.81,0,0,0,1.73-1c.29-.35.53-.81,1.09-.67.31.21.22.49.23.75.06,1.55.55,2.15,1.75,2.17S22.76,160.14,22.86,158.72Z"/><path class="cls-3" d="M16.62,144.74a2.32,2.32,0,0,1,2.2-1.87,2.47,2.47,0,0,1,2.54,1.29,2,2,0,0,1-.47,2.57c-.34.33-.61.73-1,1-1.39,1.22-3,.71-3.3-1.11A3.3,3.3,0,0,1,16.62,144.74Zm1.14.25c-.21.83-.4,1.75.41,2.21s1.29-.42,1.79-.92a1.39,1.39,0,0,0,.42-1.79,1.36,1.36,0,0,0-1.3-.78C18.21,143.72,18,144.39,17.76,145Z"/><path class="cls-3" d="M22.28,146.71c.74-2.25,2.64-2.86,4.32-1.4a1.43,1.43,0,0,1,.58,1c.09,1.26-1.71,3.33-3,3.4C22.41,149.83,21.65,148.64,22.28,146.71Zm1,0c-.17.71-.35,1.38.21,1.79s1.14,0,1.6-.4a6.17,6.17,0,0,0,.77-.91,1,1,0,0,0,0-1.43,1.24,1.24,0,0,0-1.8-.09A6.13,6.13,0,0,0,23.25,146.73Z"/><path class="cls-3" d="M15.6,151.84a1.63,1.63,0,0,1-2.64-.76,4.21,4.21,0,0,1-.17-2.58,1.87,1.87,0,0,1,1.27-1.44c.82-.25,1.26.29,1.73.77C17.31,149.38,17.24,150.8,15.6,151.84Zm.24-1.76a1.84,1.84,0,0,0-1.09-1.91c-.75-.28-.91.28-1.09.79a1.63,1.63,0,0,0,.69,2.07A1.23,1.23,0,0,0,15.84,150.08Z"/><path class="cls-3" d="M28.23,153.09A3.15,3.15,0,0,1,26,154.36a1.45,1.45,0,0,1-1.61-.51,1.56,1.56,0,0,1-.08-1.7,5.61,5.61,0,0,1,1.23-1.59c1.07-1,1.67-1,2.76,0C29.05,151.25,29,152.06,28.23,153.09Zm-.54-1.16c.19-.66-.15-1.18-.72-1.11a2.62,2.62,0,0,0-1.74,2,.5.5,0,0,0,.5.52A2,2,0,0,0,27.69,151.93Z"/><path class="cls-2" d="M23.68,92.68c-.77-.2-.87.36-1,.89a1.64,1.64,0,0,0,.88,2,1.25,1.25,0,0,0,1.4-1.1A1.84,1.84,0,0,0,23.68,92.68Z"/><path class="cls-2" d="M32.38,92.18c.64.38,1.14-.11,1.56-.55a5.48,5.48,0,0,0,.67-1,1,1,0,0,0-.17-1.42,1.23,1.23,0,0,0-1.8.08A5.9,5.9,0,0,0,32,90.42C31.9,91.14,31.79,91.82,32.38,92.18Z"/><path class="cls-2" d="M27,91.38c.86.39,1.23-.54,1.68-1.09a1.38,1.38,0,0,0,.25-1.82,1.36,1.36,0,0,0-1.37-.65c-.86.1-1,.78-1.19,1.4C26.24,90.06,26.14,91,27,91.38Z"/><path class="cls-2" d="M36.1,94.13a2.64,2.64,0,0,0-1.53,2.2.51.51,0,0,0,.54.47,2,2,0,0,0,1.82-1.64C37.05,94.49,36.66,94,36.1,94.13Z"/><path class="cls-2" d="M30.27,94.84c-.64-.83-1.41-.87-2,0a33.35,33.35,0,0,0-3.51,5.43,3.83,3.83,0,0,0-.3,2.38,1.33,1.33,0,0,0,1.8,1.11,2.79,2.79,0,0,0,1.63-1.13c.26-.38.45-.86,1-.77.33.18.26.46.3.72.21,1.54.75,2.08,1.95,2s1.67-.72,1.64-2.14A12.64,12.64,0,0,0,30.27,94.84Z"/><path class="cls-3" d="M33.61,100a8,8,0,0,1,.19,3,2.77,2.77,0,0,1-4.47,2.08,2.28,2.28,0,0,0-2.64-.38,2.31,2.31,0,0,1-3.29-2.62c.09-.4.1-.81.17-1.35a5.84,5.84,0,0,1,.91-2.09c.86-1.37,1.68-2.77,2.61-4.1,1.47-2.11,3-2,4.35.24A21,21,0,0,1,33.61,100Zm-.82,2.39a12.64,12.64,0,0,0-2.52-7.55c-.64-.83-1.41-.87-2,0a33.35,33.35,0,0,0-3.51,5.43,3.83,3.83,0,0,0-.3,2.38,1.33,1.33,0,0,0,1.8,1.11,2.79,2.79,0,0,0,1.63-1.13c.26-.38.45-.86,1-.77.33.18.26.46.3.72.21,1.54.75,2.08,1.95,2S32.82,103.81,32.79,102.39Z"/><path class="cls-3" d="M25.21,89.08a2.32,2.32,0,0,1,2-2.07,2.45,2.45,0,0,1,2.65,1,2,2,0,0,1-.22,2.6c-.3.36-.54.79-.86,1.13-1.26,1.35-2.87,1-3.39-.78A3.28,3.28,0,0,1,25.21,89.08Zm1.16.14c-.13.84-.23,1.79.63,2.16s1.23-.54,1.68-1.09a1.38,1.38,0,0,0,.25-1.82,1.36,1.36,0,0,0-1.37-.65C26.7,87.92,26.57,88.6,26.37,89.22Z"/><path class="cls-3" d="M31,90.49c.52-2.31,2.36-3.1,4.17-1.81a1.43,1.43,0,0,1,.67.95,4.11,4.11,0,0,1-2.63,3.68C31.47,93.58,30.59,92.47,31,90.49Zm1-.07c-.1.72-.21,1.4.38,1.76s1.14-.11,1.56-.55a5.48,5.48,0,0,0,.67-1,1,1,0,0,0-.17-1.42,1.23,1.23,0,0,0-1.8.08A5.9,5.9,0,0,0,32,90.42Z"/><path class="cls-3" d="M24.89,96.25a1.63,1.63,0,0,1-2.7-.5,4.17,4.17,0,0,1-.42-2.55,1.86,1.86,0,0,1,1.12-1.56c.79-.33,1.28.17,1.79.6C26.35,93.64,26.42,95.06,24.89,96.25ZM25,94.47a1.84,1.84,0,0,0-1.28-1.79c-.77-.2-.87.36-1,.89a1.64,1.64,0,0,0,.88,2A1.25,1.25,0,0,0,25,94.47Z"/><path class="cls-3" d="M37.58,96.26a3.11,3.11,0,0,1-2,1.48,1.46,1.46,0,0,1-1.66-.35,1.6,1.6,0,0,1-.25-1.69A5.67,5.67,0,0,1,34.7,94c1-1.08,1.56-1.13,2.74-.24C38.22,94.36,38.25,95.16,37.58,96.26Zm-.65-1.1c.12-.67-.27-1.16-.83-1a2.64,2.64,0,0,0-1.53,2.2.51.51,0,0,0,.54.47A2,2,0,0,0,36.93,95.16Z"/><path class="cls-2" d="M95.86,16.27c-.79.1-.68.66-.6,1.2.19,1,.85,1.61,1.55,1.53a1.23,1.23,0,0,0,.9-1.52A1.84,1.84,0,0,0,95.86,16.27Z"/><path class="cls-2" d="M103.78,12.62c.73.13,1-.52,1.25-1.08a6.32,6.32,0,0,0,.27-1.16c.1-.59,0-1.11-.69-1.25s-1.37-.06-1.64.73a6.21,6.21,0,0,0-.19,1.27C103,11.84,103.1,12.51,103.78,12.62Z"/><path class="cls-2" d="M98.48,13.86c.94,0,1-1,1.17-1.64a1.43,1.43,0,0,0-2-1.89c-.76.41-.63,1.09-.58,1.74C97.29,12.9,97.55,13.82,98.48,13.86Z"/><path class="cls-2" d="M108,13.08a2.67,2.67,0,0,0-.62,2.61.51.51,0,0,0,.68.23,2,2,0,0,0,1.1-2.18C109,13.06,108.43,12.75,108,13.08Z"/><path class="cls-2" d="M102.79,15.87c-.9-.54-1.63-.29-1.88.7a32.7,32.7,0,0,0-1.28,6.34,3.79,3.79,0,0,0,.59,2.32,1.33,1.33,0,0,0,2.08.38A2.82,2.82,0,0,0,103.4,24c.1-.44.11-1,.67-1.09.37,0,.41.33.54.56.76,1.35,1.47,1.66,2.55,1.14s1.29-1.29.73-2.6A12.62,12.62,0,0,0,102.79,15.87Z"/><path class="cls-3" d="M107.78,19.45a7.94,7.94,0,0,1,1.28,2.73,2.77,2.77,0,0,1-3.4,3.57,2.27,2.27,0,0,0-2.59.61,2.3,2.3,0,0,1-4-1.24c-.06-.4-.2-.78-.34-1.31a6.12,6.12,0,0,1,.08-2.28c.3-1.59.55-3.19.93-4.77.6-2.5,2.1-3,4.14-1.37A20.66,20.66,0,0,1,107.78,19.45Zm.11,2.52a12.62,12.62,0,0,0-5.1-6.1c-.9-.54-1.63-.29-1.88.7a32.7,32.7,0,0,0-1.28,6.34,3.79,3.79,0,0,0,.59,2.32,1.33,1.33,0,0,0,2.08.38A2.82,2.82,0,0,0,103.4,24c.1-.44.11-1,.67-1.09.37,0,.41.33.54.56.76,1.35,1.47,1.66,2.55,1.14S108.45,23.28,107.89,22Z"/><path class="cls-3" d="M96,12.36A2.31,2.31,0,0,1,97.09,9.7a2.45,2.45,0,0,1,2.84,0,2,2,0,0,1,.75,2.5c-.15.45-.21.93-.38,1.37-.69,1.72-2.31,2-3.45.51A3.26,3.26,0,0,1,96,12.36Zm1.13-.29c.18.83.44,1.75,1.37,1.79s1-1,1.17-1.64a1.43,1.43,0,0,0-2-1.89C96.93,10.74,97.06,11.42,97.11,12.07Z"/><path class="cls-3" d="M101.91,11.55c-.37-2.34,1-3.75,3.21-3.22a1.46,1.46,0,0,1,1,.64,4.11,4.11,0,0,1-1.1,4.39C103.44,14.27,102.22,13.55,101.91,11.55Zm.87-.42c.17.71.32,1.38,1,1.49s1-.52,1.25-1.08a6.32,6.32,0,0,0,.27-1.16c.1-.59,0-1.11-.69-1.25s-1.37-.06-1.64.73A6.21,6.21,0,0,0,102.78,11.13Z"/><path class="cls-3" d="M98.3,19.16a1.63,1.63,0,0,1-2.7.52,4.17,4.17,0,0,1-1.32-2.22,1.84,1.84,0,0,1,.47-1.86c.61-.6,1.26-.32,1.89-.11C98.7,16.19,99.28,17.49,98.3,19.16Zm-.59-1.68a1.84,1.84,0,0,0-1.85-1.21c-.79.1-.68.66-.6,1.2.19,1,.85,1.61,1.55,1.53A1.23,1.23,0,0,0,97.71,17.48Z"/><path class="cls-3" d="M110.11,14.52a3.14,3.14,0,0,1-1.37,2.13,1.45,1.45,0,0,1-1.66.28,1.55,1.55,0,0,1-.85-1.48,5.74,5.74,0,0,1,.37-2c.51-1.36,1.05-1.62,2.47-1.23C110,12.51,110.33,13.25,110.11,14.52Zm-1-.78c-.14-.68-.68-1-1.16-.66a2.67,2.67,0,0,0-.62,2.61.51.51,0,0,0,.68.23A2,2,0,0,0,109.11,13.74Z"/><path class="cls-2" d="M142.57,36.28c-.75-.27-.91.28-1.08.8a1.63,1.63,0,0,0,.68,2.07,1.23,1.23,0,0,0,1.49-.95A1.83,1.83,0,0,0,142.57,36.28Z"/><path class="cls-2" d="M151.28,36.63c.59.45,1.14,0,1.6-.39a6.73,6.73,0,0,0,.77-.91,1,1,0,0,0,0-1.43,1.24,1.24,0,0,0-1.8-.1,6.35,6.35,0,0,0-.74,1.05C150.9,35.56,150.72,36.22,151.28,36.63Z"/><path class="cls-2" d="M146,35.32c.82.46,1.29-.42,1.79-.93a1.43,1.43,0,0,0-.88-2.57c-.87,0-1.06.69-1.31,1.28C145.37,33.93,145.18,34.86,146,35.32Z"/><path class="cls-2" d="M154.79,38.94a2.62,2.62,0,0,0-1.74,2,.5.5,0,0,0,.5.51,2,2,0,0,0,2-1.44C155.7,39.38,155.36,38.86,154.79,38.94Z"/><path class="cls-2" d="M148.92,39.08c-.56-.89-1.32-1-2-.24a33.93,33.93,0,0,0-4,5.07,3.75,3.75,0,0,0-.53,2.33,1.32,1.32,0,0,0,1.68,1.28,2.77,2.77,0,0,0,1.73-1c.3-.35.54-.81,1.09-.67.31.21.22.48.23.74.07,1.56.55,2.15,1.75,2.18s1.74-.56,1.84-2A12.64,12.64,0,0,0,148.92,39.08Z"/><path class="cls-3" d="M151.74,44.53a7.8,7.8,0,0,1-.11,3A2.77,2.77,0,0,1,147,49.18a2.27,2.27,0,0,0-2.58-.64,2.31,2.31,0,0,1-3-2.93c.12-.38.18-.79.29-1.32a6.07,6.07,0,0,1,1.11-2c1-1.28,1.95-2.59,3-3.82,1.67-2,3.21-1.68,4.31.66A21.23,21.23,0,0,1,151.74,44.53Zm-1.05,2.3a12.64,12.64,0,0,0-1.77-7.75c-.56-.89-1.32-1-2-.24a33.93,33.93,0,0,0-4,5.07,3.75,3.75,0,0,0-.53,2.33,1.32,1.32,0,0,0,1.68,1.28,2.77,2.77,0,0,0,1.73-1c.3-.35.54-.81,1.09-.67.31.21.22.48.23.74.07,1.56.55,2.15,1.75,2.18S150.59,48.25,150.69,46.83Z"/><path class="cls-3" d="M144.45,32.85a2.29,2.29,0,0,1,2.2-1.86,2.45,2.45,0,0,1,2.53,1.29,2,2,0,0,1-.47,2.57c-.34.33-.61.73-1,1-1.39,1.22-3,.71-3.3-1.11A3.33,3.33,0,0,1,144.45,32.85Zm1.14.25c-.22.83-.41,1.76.4,2.22s1.29-.42,1.79-.93a1.43,1.43,0,0,0-.88-2.57C146,31.84,145.84,32.51,145.59,33.1Z"/><path class="cls-3" d="M150.1,34.82c.74-2.24,2.64-2.85,4.32-1.4a1.47,1.47,0,0,1,.58,1c.09,1.26-1.71,3.34-3,3.41C150.23,37.94,149.47,36.75,150.1,34.82Zm1,0c-.17.71-.35,1.37.21,1.78s1.14,0,1.6-.39a6.73,6.73,0,0,0,.77-.91,1,1,0,0,0,0-1.43,1.24,1.24,0,0,0-1.8-.1A6.35,6.35,0,0,0,151.07,34.85Z"/><path class="cls-3" d="M143.42,40a1.64,1.64,0,0,1-2.64-.76,4.17,4.17,0,0,1-.16-2.59,1.85,1.85,0,0,1,1.26-1.44c.82-.24,1.27.29,1.73.77C145.13,37.5,145.06,38.92,143.42,40Zm.24-1.76a1.83,1.83,0,0,0-1.09-1.92c-.75-.27-.91.28-1.08.8a1.63,1.63,0,0,0,.68,2.07A1.23,1.23,0,0,0,143.66,38.2Z"/><path class="cls-3" d="M156.05,41.2a3.16,3.16,0,0,1-2.19,1.28,1.47,1.47,0,0,1-1.61-.51,1.6,1.6,0,0,1-.08-1.71,5.57,5.57,0,0,1,1.23-1.58c1.07-1,1.67-1,2.76,0C156.87,39.37,156.83,40.17,156.05,41.2Zm-.53-1.15c.18-.67-.16-1.19-.73-1.11a2.62,2.62,0,0,0-1.74,2,.5.5,0,0,0,.5.51A2,2,0,0,0,155.52,40.05Z"/><path class="cls-2" d="M10.65,16.27c-.79.1-.68.66-.6,1.2.19,1,.85,1.61,1.55,1.53a1.23,1.23,0,0,0,.9-1.52A1.84,1.84,0,0,0,10.65,16.27Z"/><path class="cls-2" d="M18.57,12.62c.73.13,1-.52,1.24-1.08a5.6,5.6,0,0,0,.27-1.16c.11-.59,0-1.11-.68-1.25s-1.38-.06-1.64.73a6.21,6.21,0,0,0-.19,1.27C17.74,11.84,17.88,12.51,18.57,12.62Z"/><path class="cls-2" d="M13.26,13.86c1,0,1-1,1.17-1.64a1.42,1.42,0,0,0-1.95-1.89c-.76.41-.64,1.09-.59,1.74C12.08,12.9,12.33,13.82,13.26,13.86Z"/><path class="cls-2" d="M22.74,13.08a2.65,2.65,0,0,0-.62,2.61.51.51,0,0,0,.68.23,2,2,0,0,0,1.09-2.18C23.76,13.06,23.21,12.75,22.74,13.08Z"/><path class="cls-2" d="M17.58,15.87c-.9-.54-1.64-.29-1.89.7a33.44,33.44,0,0,0-1.27,6.34A3.79,3.79,0,0,0,15,25.23a1.33,1.33,0,0,0,2.08.38A2.84,2.84,0,0,0,18.19,24c.1-.44.1-1,.66-1.09.37,0,.42.33.54.56.77,1.35,1.47,1.66,2.55,1.14s1.29-1.29.74-2.6A12.73,12.73,0,0,0,17.58,15.87Z"/><path class="cls-3" d="M22.57,19.45a7.73,7.73,0,0,1,1.27,2.73,2.76,2.76,0,0,1-3.39,3.57,2.28,2.28,0,0,0-2.6.61,2.31,2.31,0,0,1-4-1.24c-.06-.4-.2-.78-.33-1.31a5.91,5.91,0,0,1,.07-2.28c.3-1.59.56-3.19.94-4.77.59-2.5,2.09-3,4.14-1.37A21,21,0,0,1,22.57,19.45ZM22.68,22a12.73,12.73,0,0,0-5.1-6.1c-.9-.54-1.64-.29-1.89.7a33.44,33.44,0,0,0-1.27,6.34A3.79,3.79,0,0,0,15,25.23a1.33,1.33,0,0,0,2.08.38A2.84,2.84,0,0,0,18.19,24c.1-.44.1-1,.66-1.09.37,0,.42.33.54.56.77,1.35,1.47,1.66,2.55,1.14S23.23,23.28,22.68,22Z"/><path class="cls-3" d="M10.76,12.36A2.31,2.31,0,0,1,11.87,9.7a2.46,2.46,0,0,1,2.85,0,2,2,0,0,1,.75,2.5c-.16.45-.22.93-.39,1.37-.68,1.72-2.31,2-3.44.51A3.27,3.27,0,0,1,10.76,12.36Zm1.13-.29c.19.83.44,1.75,1.37,1.79s1-1,1.17-1.64a1.42,1.42,0,0,0-1.95-1.89C11.72,10.74,11.84,11.42,11.89,12.07Z"/><path class="cls-3" d="M16.7,11.55c-.37-2.34,1.05-3.75,3.21-3.22a1.48,1.48,0,0,1,1,.64,4.11,4.11,0,0,1-1.1,4.39C18.23,14.27,17,13.55,16.7,11.55Zm.87-.42c.17.71.31,1.38,1,1.49s1-.52,1.24-1.08a5.6,5.6,0,0,0,.27-1.16c.11-.59,0-1.11-.68-1.25s-1.38-.06-1.64.73A6.21,6.21,0,0,0,17.57,11.13Z"/><path class="cls-3" d="M13.09,19.16a1.63,1.63,0,0,1-2.7.52,4.25,4.25,0,0,1-1.33-2.22,1.88,1.88,0,0,1,.47-1.86c.62-.6,1.26-.32,1.89-.11C13.49,16.19,14.07,17.49,13.09,19.16Zm-.59-1.68a1.84,1.84,0,0,0-1.85-1.21c-.79.1-.68.66-.6,1.2.19,1,.85,1.61,1.55,1.53A1.23,1.23,0,0,0,12.5,17.48Z"/><path class="cls-3" d="M24.89,14.52a3.1,3.1,0,0,1-1.36,2.13,1.47,1.47,0,0,1-1.67.28A1.59,1.59,0,0,1,21,15.45a5.75,5.75,0,0,1,.38-2c.51-1.36,1.05-1.62,2.47-1.23C24.8,12.51,25.12,13.25,24.89,14.52Zm-1-.78c-.13-.68-.68-1-1.15-.66a2.65,2.65,0,0,0-.62,2.61.51.51,0,0,0,.68.23A2,2,0,0,0,23.89,13.74Z"/><path class="cls-2" d="M57.35,36.28c-.75-.27-.9.28-1.08.8A1.63,1.63,0,0,0,57,39.15a1.23,1.23,0,0,0,1.5-.95A1.84,1.84,0,0,0,57.35,36.28Z"/><path class="cls-2" d="M66.06,36.63c.6.45,1.15,0,1.6-.39a6.08,6.08,0,0,0,.77-.91,1,1,0,0,0,0-1.43,1.24,1.24,0,0,0-1.8-.1,6.45,6.45,0,0,0-.75,1.05C65.68,35.56,65.51,36.22,66.06,36.63Z"/><path class="cls-2" d="M60.78,35.32c.82.46,1.28-.42,1.78-.93a1.43,1.43,0,0,0-.88-2.57c-.86,0-1.06.69-1.31,1.28C60.16,33.93,60,34.86,60.78,35.32Z"/><path class="cls-2" d="M69.57,38.94a2.66,2.66,0,0,0-1.74,2,.5.5,0,0,0,.5.51,2,2,0,0,0,2-1.44C70.49,39.38,70.14,38.86,69.57,38.94Z"/><path class="cls-2" d="M63.71,39.08c-.56-.89-1.33-1-2-.24a32.69,32.69,0,0,0-4,5.07,3.75,3.75,0,0,0-.54,2.33,1.33,1.33,0,0,0,1.69,1.28,2.82,2.82,0,0,0,1.73-1c.29-.35.53-.81,1.09-.67.31.21.21.48.22.74.07,1.56.56,2.15,1.76,2.18,1,0,1.73-.56,1.83-2A12.7,12.7,0,0,0,63.71,39.08Z"/><path class="cls-3" d="M66.52,44.53a8,8,0,0,1-.1,3,2.77,2.77,0,0,1-4.65,1.64,2.29,2.29,0,0,0-2.59-.64,2.31,2.31,0,0,1-3-2.93c.13-.38.18-.79.3-1.32a6.07,6.07,0,0,1,1.11-2c1-1.28,1.94-2.59,3-3.82,1.68-2,3.22-1.68,4.32.66A20.81,20.81,0,0,1,66.52,44.53Zm-1,2.3a12.7,12.7,0,0,0-1.76-7.75c-.56-.89-1.33-1-2-.24a32.69,32.69,0,0,0-4,5.07,3.75,3.75,0,0,0-.54,2.33,1.33,1.33,0,0,0,1.69,1.28,2.82,2.82,0,0,0,1.73-1c.29-.35.53-.81,1.09-.67.31.21.21.48.22.74.07,1.56.56,2.15,1.76,2.18C64.69,48.83,65.37,48.25,65.47,46.83Z"/><path class="cls-3" d="M59.23,32.85A2.3,2.3,0,0,1,61.43,31,2.45,2.45,0,0,1,64,32.28a2,2,0,0,1-.47,2.57c-.34.33-.61.73-1,1-1.39,1.22-3,.71-3.3-1.11A3.34,3.34,0,0,1,59.23,32.85Zm1.14.25c-.21.83-.4,1.76.41,2.22s1.28-.42,1.78-.93a1.43,1.43,0,0,0-.88-2.57C60.82,31.84,60.62,32.51,60.37,33.1Z"/><path class="cls-3" d="M64.89,34.82c.73-2.24,2.64-2.85,4.32-1.4a1.46,1.46,0,0,1,.57,1c.1,1.26-1.7,3.34-3,3.41C65,37.94,64.25,36.75,64.89,34.82Zm1,0c-.17.71-.34,1.37.21,1.78s1.15,0,1.6-.39a6.08,6.08,0,0,0,.77-.91,1,1,0,0,0,0-1.43,1.24,1.24,0,0,0-1.8-.1A6.45,6.45,0,0,0,65.85,34.85Z"/><path class="cls-3" d="M58.21,40a1.63,1.63,0,0,1-2.64-.76,4.25,4.25,0,0,1-.17-2.59,1.88,1.88,0,0,1,1.27-1.44c.81-.24,1.26.29,1.73.77C59.92,37.5,59.84,38.92,58.21,40Zm.24-1.76a1.84,1.84,0,0,0-1.1-1.92c-.75-.27-.9.28-1.08.8A1.63,1.63,0,0,0,57,39.15,1.23,1.23,0,0,0,58.45,38.2Z"/><path class="cls-3" d="M70.84,41.2a3.16,3.16,0,0,1-2.19,1.28A1.47,1.47,0,0,1,67,42,1.56,1.56,0,0,1,67,40.26a5.57,5.57,0,0,1,1.23-1.58c1.07-1,1.67-1,2.76,0C71.66,39.37,71.61,40.17,70.84,41.2Zm-.54-1.15c.19-.67-.16-1.19-.73-1.11a2.66,2.66,0,0,0-1.74,2,.5.5,0,0,0,.5.51A2,2,0,0,0,70.3,40.05Z"/></pattern></defs><g id="_1_t-shirt_pattern" data-name="1_t-shirt_pattern"><path class="cls-1" d="M158.83,368.77c-.39-.34-.78-.67-1.16-1-1.1-1-2.16-2.09-3.19-3.18a111.82,111.82,0,0,0-10.69,12,76.25,76.25,0,0,0,4.81,6.1,107.46,107.46,0,0,1,10.15-13.85Z"/><path class="cls-1" d="M146.16,353.94l0,0q-1.55-2.51-2.87-5.13a40.67,40.67,0,0,0-5.15,3.07c-.46.32-.9.64-1.34,1l-.07.05-.29.24-.66.53c-.84.71-1.65,1.45-2.44,2.22l0,0a79.31,79.31,0,0,0,3,7.63Q141,358.54,146.16,353.94Z"/><path class="cls-1" d="M167.42,375.22a67.45,67.45,0,0,1-5.57-3.94,2.16,2.16,0,0,1-.27.38,102,102,0,0,0-10.17,14.08c.9.92,1.83,1.83,2.79,2.71q2.18,2,4.49,3.8l8.61-16.86A1.77,1.77,0,0,1,167.42,375.22Z"/><path class="cls-1" d="M148.45,357.27q-5.35,4.85-10.27,10.13,1.51,2.93,3.27,5.72a116.85,116.85,0,0,1,10.36-11.54C150.64,360.19,149.5,358.76,148.45,357.27Z"/><path class="cls-1" d="M210.24,388.54a174.53,174.53,0,0,0-1.16,20.18,2.23,2.23,0,0,1,0,.27c5,0,10-.22,14.93-.65q-.87-9.82-1.75-19.65A117,117,0,0,1,210.24,388.54Z"/><path class="cls-1" d="M178.9,381.28a79.88,79.88,0,0,1-8.09-4l-.05.12L162,394.51a1.53,1.53,0,0,1-.11.16,78,78,0,0,0,9.9,5.88q3.1-9.57,6.88-18.88C178.76,381.54,178.83,381.41,178.9,381.28Z"/><path class="cls-1" d="M200.4,387.45c-1.36-.21-2.71-.47-4.05-.75q-1.54,10.47-3.08,20.92a81.85,81.85,0,0,0,8.74,1.11c1,.07,2.06.12,3.09.16a.88.88,0,0,1,0-.17,173.65,173.65,0,0,1,1.2-20.51Q203.34,387.91,200.4,387.45Z"/><path class="cls-1" d="M237.5,387.26c-3.75.55-7.51,1-11.29,1.23L228,408c1.52-.16,3-.33,4.55-.51q5.26-.63,10.48-1.49-2.68-9.1-5.39-18.21A2.23,2.23,0,0,1,237.5,387.26Z"/><path class="cls-1" d="M175.47,402.25a79.36,79.36,0,0,0,13.9,4.57q1.55-10.5,3.1-21a90.22,90.22,0,0,1-9.92-3.06Q178.65,392.37,175.47,402.25Z"/><path class="cls-1" d="M94.12,469.91l-6.92-3.05c-1,2-2,4-2.83,6.1l7,3.68Z"/><path class="cls-1" d="M83.56,465.24c-1.94-.88-3.88-1.76-5.81-2.67l-2.7,5.51,5.79,3C81.69,469.12,82.6,467.17,83.56,465.24Z"/><path class="cls-1" d="M101.59,481.54l2.52-7.21L99,472.06l-1.25-.55c-.94,2.3-1.87,4.61-2.81,6.91l0,.06.45.23A64.24,64.24,0,0,0,101.59,481.54Z"/><path class="cls-1" d="M112.09,483a4.29,4.29,0,0,0,1.2-2.26c.2-.68.36-1.37.52-2.05h0l-6-2.68-2.37,6.8,1.17.28C108.16,483.37,110.47,484.3,112.09,483Z"/><path class="cls-1" d="M139.33,338.55l-.14.11-7.82,5.22a1.67,1.67,0,0,1-.93.27c.42,2.52,1,5,1.63,7.49a43.33,43.33,0,0,1,9.59-6.5A60.58,60.58,0,0,1,139.33,338.55Z"/><path class="cls-1" d="M138.41,335c-.21,0-1-4.68-1.3-6.67a66,66,0,0,0-9.72,6.14,2,2,0,0,1,2.19,1.92q.1,1.86.3,3.72l7.29-4.86A1.73,1.73,0,0,1,138.41,335Z"/><path class="cls-1" d="M48.52,454.19l3.61,1.88c1-2.08,2.07-4.18,3-6.3q-2.22-1.51-4.4-3.1C50,449.16,49.22,451.66,48.52,454.19Z"/><path class="cls-1" d="M61.87,461.18c.81-1.88,1.71-3.71,2.67-5.51-2-1.18-4-2.4-6-3.67q-1.38,3-2.87,5.93L61,460.72Z"/><path class="cls-1" d="M71.59,466.08c.85-1.75,1.71-3.49,2.57-5.24l-.9-.43c-1.77-.89-3.51-1.82-5.24-2.77-.94,1.76-1.82,3.55-2.62,5.38l6.12,3.21C71.55,466.18,71.56,466.13,71.59,466.08Z"/><path class="cls-1" d="M338.54,341.42l.07,0a28.49,28.49,0,0,1,6.82,6.64l5.26-4.36-7.58-5.6Q340.83,339.78,338.54,341.42Z"/><path class="cls-1" d="M399.91,467.09c.57,1.87,1.2,3.71,1.88,5.55,2-.54,3.94-1.06,5.92-1.56L406,465.69Z"/><path class="cls-1" d="M396,468l-6.58,1.5c.67,2,1.33,4.11,2,6.17,1.45-.42,2.91-.84,4.35-1.28l2.16-.62c-.69-1.85-1.33-3.72-1.9-5.61A.9.9,0,0,1,396,468Z"/><path class="cls-1" d="M379,471.83c.6,2.28,1.27,4.53,2.05,6.75q3.3-.9,6.6-1.83l-2.07-6.4Z"/><path class="cls-1" d="M367.78,474.35a1.83,1.83,0,0,1,.14.32,46.54,46.54,0,0,1,1.7,6.25,2.38,2.38,0,0,1,0,.59c2.49-.61,5-1.25,7.47-1.9-.79-2.27-1.48-4.57-2.09-6.9Z"/><path class="cls-1" d="M364.07,475.73a1.38,1.38,0,0,1-.09-.53l-6,1.36s0,0,0,.06v.07a47.94,47.94,0,0,0,1.35,6.49,2,2,0,0,1,.05.76c2.19-.49,4.37-1,6.55-1.53a1.33,1.33,0,0,1-.17-.43A46.5,46.5,0,0,0,364.07,475.73Z"/><path class="cls-1" d="M415.67,463.5,410,464.8l1.65,5.32c1.51-.37,3-.74,4.54-1.08.71-.16,1.43-.31,2.15-.45q-1-2.61-1.82-5.28Z"/><path class="cls-1" d="M428.55,460.18a31.48,31.48,0,0,1,1.54,5.73c1.65-.43,3.26-1,3.88-2.17.47-.85-.34-3.45-.77-5Q430.89,459.5,428.55,460.18Z"/><path class="cls-1" d="M420.37,462.38q.87,2.72,1.87,5.39a.06.06,0,0,0,0,0c1.33-.27,2.66-.58,3.95-1a30.86,30.86,0,0,0-1.5-5.58C423.26,461.65,421.82,462,420.37,462.38Z"/><path class="cls-1" d="M354.09,477.43,347.14,479l-.14,0a33.29,33.29,0,0,0,1,4.81,3.69,3.69,0,0,0,1.36,2.14,1.68,1.68,0,0,0,.48.22,2.12,2.12,0,0,1,.79-.34c1.71-.35,3.41-.73,5.11-1.1a1.89,1.89,0,0,1-.23-.5A49.5,49.5,0,0,1,354.09,477.43Z"/><path class="cls-1" d="M284.17,374.36q-3,1.2-6.12,2.29c-1.56.55-3.13,1.1-4.7,1.63a139.86,139.86,0,0,1,6.86,17.3q3-1.27,6-2.73t5.62-3q-3.75-7.55-7.51-15.07A2.23,2.23,0,0,1,284.17,374.36Z"/><path class="cls-1" d="M298.32,368.1c-3.43,1.73-6.93,3.31-10.48,4.78q3.72,7.47,7.45,14.94c3.72-2.29,7.32-4.78,10.82-7.42a34.68,34.68,0,0,1-7.7-11.82A1.36,1.36,0,0,1,298.32,368.1Z"/><path class="cls-1" d="M269.56,379.52c-3.66,1.17-7.34,2.28-11.05,3.28l0,.06q3.45,9,6.11,18.22c4-1.16,8-2.49,11.85-4a133.09,133.09,0,0,0-6.81-17.24C269.64,379.74,269.6,379.63,269.56,379.52Z"/><path class="cls-1" d="M311.37,360.58c-3,1.94-6.05,3.79-9.18,5.5l-.71.37a2.72,2.72,0,0,1,.79,1.07l.21.53a1,1,0,0,1,0,.1c.12.27.24.54.37.81.25.54.52,1.08.81,1.6a31,31,0,0,0,1.82,3c.17.25.34.49.52.73l.3.4.05.07c.37.47.75.93,1.15,1.38.56.63,1.16,1.24,1.77,1.83l1-.77q3.54-2.84,7-5.73-3-5.38-5.93-10.75A.49.49,0,0,0,311.37,360.58Z"/><path class="cls-1" d="M254.65,383.78c-.84.21-1.67.44-2.52.64q-5.31,1.27-10.71,2.21a.08.08,0,0,1,0,0q2.76,9.3,5.51,18.58,6.54-1.22,13-2.87l.84-.23q-2.67-9.24-6.11-18.23Z"/><path class="cls-1" d="M351.75,331.92l-4.49,3.23-.76.54,6.61,4.88a2.63,2.63,0,0,1,.61.64l5.11-4.23a2,2,0,0,1,1.19-.49c-2.5-1.44-5-2.81-7.63-4.08A2.21,2.21,0,0,1,351.75,331.92Z"/><path class="cls-1" d="M341.77,349.78l0,0-.36-.43a22.49,22.49,0,0,0-1.54-1.7c-.56-.56-1.13-1.09-1.74-1.59-.14-.13-.29-.25-.44-.37a2,2,0,0,1-.23-.18l0,0c-.3-.23-.61-.45-.92-.66a2.19,2.19,0,0,1-.94-1.41l-8.94,6.44a2.43,2.43,0,0,1,.87.46l7.46,6.32,7.34-6.09c-.15-.21-.29-.42-.44-.62S341.82,349.86,341.77,349.78Z"/><path class="cls-1" d="M324.19,351.75c-3.14,2.25-6.3,4.49-9.51,6.65a1.31,1.31,0,0,1,.19.27l5.61,10.18,11.45-9.54-7.18-6.08A1.73,1.73,0,0,1,324.19,351.75Z"/><path class="cls-4" d="M349.11,489.2a.33.33,0,0,0,0-.1,4.67,4.67,0,0,1-2-.12c-1.68-.6-2.73-2.9-3.15-4.51-.62-2.37-.89-4.86-1.3-7.27l-1.29-7.63-2.58-15.27q-2.56-15.21-5.14-30.41a2,2,0,0,1,1.4-2.46,2,2,0,0,1,2.46,1.39q1.41,8.32,2.81,16.63l5,29.79c.32,1.94.65,3.89,1,5.83l19.2-4.34L399.92,463c10.87-2.46,21.92-4.59,32.5-8.19-.22-1.23-.45-2.46-.67-3.68-1.68-9.15-3.44-18.3-5.73-27.32a140.35,140.35,0,0,0-63.9-86.07,1.61,1.61,0,0,1-.47,2.09q-3.06,2.55-6.13,5.09l-25.3,21c-2.84,2.35-5.66,4.73-8.5,7.09a2,2,0,0,1-.74.81,1.54,1.54,0,0,1-.46.19c-4.79,4-9.62,7.9-14.64,11.57-15.77,11.53-34,18.58-53,22.59a242.8,242.8,0,0,1-29.17,4.21c-10.49.9-21.1,1-31.5-.82A81.3,81.3,0,0,1,146.13,386a79.5,79.5,0,0,1-5.57-7,1.87,1.87,0,0,1-.62-.23,2.15,2.15,0,0,1-1-2.1,82.14,82.14,0,0,1-13.38-40.3,2,2,0,0,1,0-.6c-6.56,5-13.64,10.44-19,16.62-1.84,2.13-4.32,3.65-6.17,5.81-1,1.15-1.91,2.36-2.84,3.56-11.47,14.93-22.4,30-31.09,46.73A239.26,239.26,0,0,0,52,442.91a1.57,1.57,0,0,1,.78.28q6.08,4.46,12.55,8.32a231.38,231.38,0,0,0,24.56,12.14l24.74,11c.33-1.86.65-3.72,1.06-5.55.65-2.83,1.31-5.66,2-8.47q2.1-8.58,4.52-17.06t5.14-16.88c.47-1.46.95-2.91,1.43-4.37.37-1.08.69-2.26,1.74-2.88s2.83-.48,2.68,1.11c-.33,3.52-2,7.29-3.1,10.65-.93,2.92-1.82,5.85-2.69,8.79-2.8,9.48-5,19.13-7.53,28.67-1.31,4.88-2.71,9.72-4.36,14.49-1.26,3.63-3.25,5.67-7.38,4.64-.49,1.85-.93,3.72-1.3,5.6s-.7,3.92-.89,5.42a2.66,2.66,0,0,1-.44,1.19H349.39s0-.05,0-.08A79.89,79.89,0,0,0,349.11,489.2Z"/></g></svg>