<svg id="Body" xmlns="http://www.w3.org/2000/svg" viewBox="0 0 500 500"><defs><style>.cls-1{fill:#fbb03b;}.cls-2{fill:#f2881d;}.cls-3{fill:#fcfbfa;}.cls-4{fill:#dddcdb;}</style></defs><g id="_6_ginger_white_stripes" data-name="6_ginger_white_stripes"><path class="cls-1" d="M339,420.9a109.72,109.72,0,0,1,7.32,18c6.09,19.73,7.11,40.55,7.39,61.1h76a415,415,0,0,0-5.11-41.87c-2.18-12.48-4.73-25-8.63-37.07a159.23,159.23,0,0,0-14.64-32.59c-7.08-11.81-13.78-23.31-22.85-33.74a89.1,89.1,0,0,0-29.71-22.89,2,2,0,0,1,1.91-3.5,1.85,1.85,0,0,1,.33-1q5.06-7.65,9.72-15.55c8.85-15,17.53-30.91,23.49-47.3,5.76-15.86,7.3-33.88,7.56-50.62.37-24.32-2.25-50.56-13.38-72.48-2.21-4.36-4.56-8.64-6.8-13-1.74-3.37-3.31-6.89-5.71-9.8-2.56-3.09-4.82-6.49-7.35-9.62s-5.89-5.14-8.78-7.72c-4.05-3.61-8.94-6.91-14.46-7.52-6-.65-10.92,2-16.25,4.09a129.67,129.67,0,0,0-25.11,13.2c-5.26,3.52-10.79,7.72-14.79,12.66-1.53,1.89-3.29,3.38-5.8,3.58-2.35.18-.77-2.35-.56-2.28a111.85,111.85,0,0,0-18-4.42c-5.13-.89-10.28-1.69-15.42-2.52-3.46-.55-6.4-.1-8.38-3.35-2.13-3.47-2.78-8.41-4.89-12.14a69.46,69.46,0,0,0-18.91-21.25,24.2,24.2,0,0,0-6.81-3.76c-2.63-.87-5.3-1.57-7.93,0A16.9,16.9,0,0,1,190,79.1,49.44,49.44,0,0,0,181,83.57c-2.41,1.62-5,3-7.29,4.76-17.06,12.9-31.8,25.38-42.49,44.23-2.13,3.77-4.52,7.4-6.63,11.18a42.07,42.07,0,0,0-2.2,3.62c-1.52,3.56-3.53,6.87-5.37,10.26a97.39,97.39,0,0,0-4.44,9.14c-.62,1.47-1.58,2.71-2.19,4.15a217.4,217.4,0,0,0-14,46.29l.91.18a14.45,14.45,0,0,0-.54,2.87c0,.19,0,.39,0,.58l-.9-.19a142.86,142.86,0,0,0-1.56,15.78s.11,0,.28.06a9.89,9.89,0,0,0-.27,3.44h-.1A104.28,104.28,0,0,0,95.74,260l1.21-.25c.21.84.44,1.66.7,2.46,0,.31.11.62.16.93l-1.37.28a78,78,0,0,0,6.87,19,111.09,111.09,0,0,0,21.92,29.11c10.48,9.92,21.56,16.83,34.42,23.48,9.67,5,19.83,9.39,30.65,11.12,15.44,2.47,30.52.37,45.9-1.16A203.25,203.25,0,0,0,283,334.63a220.59,220.59,0,0,0,38.66-17.95q4.61-2.7,9.09-5.59c1.21-.78,6.22-5.32,7.27-2.29,1,2.8-13.75,10.6-16.15,12q-6.51,3.9-13.3,7.3a215.21,215.21,0,0,1-54.85,18.24c-9,1.77-17.94,2.33-26.89,3.79a122.4,122.4,0,0,1-28.67,1.53c-15.47-1.15-28.15-7.3-41.77-14.17a160.29,160.29,0,0,1-16.4-9.44,2,2,0,0,1-.68.66c-12.23,7-24.2,16.35-33.26,26.91-16.39,19.09-28,41.91-35.91,65.67C61.61,446.82,57,473.4,53.58,500h48.29a3.18,3.18,0,0,1,.06-.43c1.38-6.57,2.45-13.2,3.59-19.82,3.68-21.35,8.38-43.63,23.42-60.16a2,2,0,0,1,2.82.21,2.07,2.07,0,0,1-.21,2.82,66.35,66.35,0,0,0-9.65,14.12c-10.12,19.56-11.65,42-16,63.26H349.71c0-3.94-.13-7.88-.27-11.82-.81-22.3-3.51-45.16-13.88-65.26C334.38,420.64,337.83,418.61,339,420.9ZM212.48,116.64c-2.09,3.56-9.83,4.12-13.39,5.15a85.79,85.79,0,0,1-15.72,3.12,48.71,48.71,0,0,0-7.15,1.36,37.67,37.67,0,0,1-9.53,1,12.74,12.74,0,0,1-4.79-.64,7.72,7.72,0,0,1-4.2-2.89c-1-1.32-1.27-2.1-.18-3.11,1.38-1.28,2.09-3,3.19-4.36a49.87,49.87,0,0,1,8.68-9.31c3.87-2.94,7.69-6,11.55-8.9,3.29-2.52,7-4.08,10.57-6,3.84-2.06,9.9-1.17,12.56,2.21s5.27,7.09,6.35,11.51C211.18,108.88,214.37,113.43,212.48,116.64Zm120.89,30.14c-2.07-1.27-4.22-2.46-6.21-3.86-3.28-2.31-6.58-4.61-9.7-7.13-1.56-1.25-3.67-3.59-4.08-5.55a8.49,8.49,0,0,1,.07-3.44c.06-.26.12-.52.19-.78,1.28-4.74,4.84-8.33,8.52-11.35,3.39-2.77,7-5.15,11.47-5.86a5.93,5.93,0,0,0,1.88-.94c4.92-2.7,12.13.67,15,4.93,2.28,3.36,3.31,7.37,4.82,11.13,3,7.44,8.63,14.44,8.83,22.74.15,6.09-2.25,9.11-8.42,8.67-5.9-.41-11.56-3-16.8-5.26A43,43,0,0,1,333.37,146.78Z"/><path class="cls-2" d="M175.2,210.27c-3.13-.14-10,4-12.8,4.37-8,.93-17.53,0-24.46-4.09-3.59-2.11-7.2-4.69-8.87-8.51-1-2.21-.17-11.66-4.76-10.89s-3,11.78-2.27,14.73c1.93,7.41,8.76,13,15.52,16.25,9.91,4.72,18.94,3.67,28.94-.51,2.74-1.14,14.15-6.38,9.92-10.88A1.74,1.74,0,0,0,175.2,210.27Z"/><path class="cls-2" d="M280.77,231.11c-.2.17-.4.34-.61.5A18.36,18.36,0,0,1,270.11,235c-6.82.45-15.94.24-21.61-4.11a22.45,22.45,0,0,1-5.94-7.19c-1.25-2.28-1.72-6.07-3.72-7.76-5.61-4.77-3.08,11.29-2,13.54,3.91,8.14,10.86,14.07,19.87,15.83a33.87,33.87,0,0,0,17.8-1.19A31.43,31.43,0,0,0,289.34,232a6.85,6.85,0,0,0,1.16-2.6,2.71,2.71,0,0,0-.91-2.57,2.75,2.75,0,0,0-2.47-.23C284.88,227.33,282.56,229.59,280.77,231.11Z"/><path class="cls-2" d="M301.88,328.06c-4.32,1.76-8.38,4.26-12.69,6.14a154.06,154.06,0,0,1-22.69,7.85,156,156,0,0,1-16.71,3.4c-5.08.74-10.37.72-15.36,1.8-12,2.6-24.9,3.8-37.12,2.2-12-1.56-23.56-5.34-34.65-10.09-6.7-2.87-12.61-7.11-18.76-11a5.09,5.09,0,0,0-3.37-.87,7.25,7.25,0,0,0-1.38.39c-2.41.84-5,2-6.13,4.24a5.92,5.92,0,0,0-.16,4.67c.82,2.2,3.07,4.15,4.93,5.5,23.11,16.88,49.29,28.4,78.44,25.15,15.24-1.7,29.85-6.12,44.41-10.74,17.49-5.53,35.22-11.65,48.52-24.93,1.25-1.25,2.52-2.74,2.47-4.5a1.41,1.41,0,0,0-.34-1,1.74,1.74,0,0,0-1.42-.31A27.66,27.66,0,0,0,301.88,328.06Z"/><path class="cls-2" d="M271.77,123.43c-2.6-2.52-7.9-2.67-11.21-3.81-6.39-2.22-12.84-4.42-19.59-5.3-4.1-.54-8.79-.5-11.91,2.62-3.57,3.57-4.23,9,.75,11.48a20.44,20.44,0,0,0,6.09,1.6c4.5.69,9.86.53,14.12,1.94,4.91,1.62,9.84,3.37,15,1.84C269.13,132.6,275.7,127.23,271.77,123.43Z"/><path class="cls-2" d="M120.36,297.66l-1.31-1.28c-10.19-9.58-12.53-26.71-13.24-39.9-2-37.89,4.56-78.86,22.92-112.23,1.4-2.55,2.85-5.27,2.74-8.18-1.83-.69-3.61,1.06-4.74,2.66-10.14,14.4-18.07,28.11-23.84,44.94-2.55,7.44-5,15.76-5.67,23.61s-3,15.52-3.7,23.41c-1.25,13.64-1.6,29,4.14,41.61a175.81,175.81,0,0,0,10.71,20.3c5.42,8.72,11.95,19,20.68,24.73,1.77,1.16,4,2.16,5.94,1.34C139.24,316.88,125,302.26,120.36,297.66Z"/><path class="cls-2" d="M75.18,489.21a334.82,334.82,0,0,1,9.55-86.87c1.42-5.79,3.59-12.67,1.91-18.6a18.29,18.29,0,0,0-7.2,7.5c-3.39,6-5,13.76-7,19.49C68.1,422.81,64,435,60.65,447.35a277.17,277.17,0,0,0-6.28,28.31c-.84,5.16-3.76,16.56-2.23,24.34H73.53A29.37,29.37,0,0,0,75.18,489.21Z"/><path class="cls-2" d="M132.5,449.37c1.64-6.16,3.87-12.22,4.49-18.56a14.81,14.81,0,0,0-.35-5.86,6.86,6.86,0,0,0-3.65-4.41,3,3,0,0,0-2.16-.19,3.9,3.9,0,0,0-1.24.86,44.44,44.44,0,0,0-7.34,8.62,35.71,35.71,0,0,0-4.24,9c-2.42,8-5.6,15.59-7,23.9-1.88,11.34-4.13,22.7-6.23,34.05a9,9,0,0,0-.17,3.18h20.28a17.62,17.62,0,0,0,1.54-6.27C128,478.86,128.64,463.81,132.5,449.37Z"/><path class="cls-2" d="M351.67,477.81a121.32,121.32,0,0,0-.93-17.25,124.59,124.59,0,0,0-9.17-33.5c-1-2.35-4.38-4.3-6.61-5.33a3.59,3.59,0,0,0-1.17-.39,3,3,0,0,0-1.77.57c-2.88,1.8-4.51,5.14-5,8.5-.82,5.5,1,10.82,1.65,16.22a71.49,71.49,0,0,1,.21,16.15,72.49,72.49,0,0,1-10.09,30.15,7.32,7.32,0,0,0-.18,7.07h32.33a14.45,14.45,0,0,0,1.13-4.85C352.59,489.32,351.56,483.62,351.67,477.81Z"/><path class="cls-2" d="M430.33,483.83c-1.86-13.92-3.85-27.67-8.15-41.31-3.07-23.23-12.5-43.67-22.91-64.27-8.92-17.61-26.51-36.43-44.52-44.55-1.22-.55-2.54-1.2-3.06-2.43-1.13-2.74,13.73-23.41,15.79-27.44a271.25,271.25,0,0,0,13.73-31.31c7.63-21.15,12.15-43.44,12.15-66,0-17-1.47-33.47-6.39-49.72-4.52-14.93-11.82-25.72-20.64-38.76,8.19,28.52,8,58.73,3.78,87.89-1,6.94-2.12,13.86-3.19,20.78-.61,4-1.23,8-2.14,11.89-3.47,15-9,29-15.75,42.73-2.35,4.79-4.88,9.49-7.46,14.16-1,1.87-2.08,3.73-3.13,5.59a58.94,58.94,0,0,1-4.58,7.24,29.5,29.5,0,0,1-7,6.43c-2.81,1.85-5.73,2.78-8.09,5.28s-2.32,4.52-.63,7.46c3.26,5.67,11.06,7.46,16.34,10.62,3,1.81,4.8,4.47,7.07,7.1,4.5,5.18,9.28,9.92,13.69,15.16s8.87,10.71,13.07,16.25c8.38,11,16,22.74,21.85,35.36l.52,1.14a140.11,140.11,0,0,1,11.22,40.13A144.47,144.47,0,0,1,403,474c-.06,3.51-.26,7-.58,10.52-.46,4.92-1.91,9.95-2.85,14.81,0,.22-.08.46-.1.69h32.74C432.88,494.93,431,488.67,430.33,483.83Z"/><path class="cls-2" d="M327.71,311.37c-8.3,2.19-15.92,6.17-24.32,8.35a417.69,417.69,0,0,1-57.68,11,293.6,293.6,0,0,1-41.29,1.79,133.87,133.87,0,0,1-20.86-1.94,129.87,129.87,0,0,1-28.69-9.19c-8.78-3.95-16.68-9.53-24.8-14.63-1.34-.85-3.63-3.46-5.35-3.23-3.46.48,1,5.91,1.84,7.18,8.28,12,20.21,18.92,32.73,25.65,9.72,5.23,20,9.16,30.94,10.73A97.55,97.55,0,0,0,209,348.4a364.12,364.12,0,0,0,54.86-6.93,123.08,123.08,0,0,0,13.29-3.22c3-1,5.89-2.16,8.8-3.35l7.9-3.24A220.72,220.72,0,0,0,317.25,321c4.54-2.52,9.17-4.28,13.08-7.79.81-.72,1.65-1.86,1.08-2.78C330.17,310.72,328.94,311,327.71,311.37Z"/><path class="cls-3" d="M237.91,114.3a12.65,12.65,0,0,1-3.43.63,3.66,3.66,0,0,0-6,.08,160.76,160.76,0,0,0-17.15,34c-1.46,4,4.24,5.67,6.39,2.7a159,159,0,0,0,10.19-16.69c3.21-5.77,6.72-11.16,12.68-14.37C244.06,118.84,241.71,113.07,237.91,114.3Z"/><path class="cls-3" d="M255.5,117.53a28.46,28.46,0,0,1-6.37-.91,3.59,3.59,0,0,0-4,1.61c-11.74,19.93-22.35,40.21-28.24,62.59-.31,1.2-.39,2.86.78,3.26.91.32,1.8-.48,2.42-1.22,7.11-8.52,11.58-20.12,17.39-29.71A304,304,0,0,1,258,123.51C259.8,121.18,258.76,117.64,255.5,117.53Z"/><path class="cls-3" d="M269.82,122.43c-1.17-1.58-3.45-2.3-5.14-.43a122.63,122.63,0,0,0-20.44,30.72c-1.61,3.45,2.51,7.21,5.49,4.25a103,103,0,0,0,11.64-13.72c3.57-5,6.33-10.59,10.85-14.89C274.69,126,272.46,122.61,269.82,122.43Z"/><path class="cls-3" d="M404.33,390.76a2.91,2.91,0,0,0-2.11-1.75c-.92-2.51-4.71-3.75-6.25-.74-5.81,11.37-21.12,16.22-31.84,21.6-3.48,1.75-1,7.86,2.7,6.4q13.56-5.32,26.83-11.34C399.61,402.22,408.1,398.76,404.33,390.76Z"/><path class="cls-3" d="M416.65,414a3.46,3.46,0,0,0-1.14-1.69,3.9,3.9,0,0,0-5.94-1.64,110.4,110.4,0,0,1-19.78,12.19c-3.42,1.66-1.35,6.24,1.77,6.53a37.16,37.16,0,0,0,20.1-3.73c2.29-1.14,5.79-2.75,6.81-5.33C419.66,417.36,417.42,416.42,416.65,414Z"/><path class="cls-3" d="M425.24,445.72a3,3,0,0,0-.7-1.58c1.42-3-2.81-6.61-5.74-3.88-14.6,13.61-34.37,18.61-53.4,22.52-3.31.68-3.37,6.11,0,6.75,13.1,2.48,25.85-.4,38-5.43,5.57-2.31,11.61-4.64,16.74-7.83C424.07,453.82,426,450.3,425.24,445.72Z"/><path class="cls-3" d="M429.77,471.18a3.05,3.05,0,0,0-2.61-2.44,3.45,3.45,0,0,0-5.23-.5c-8,7.61-20.36,7.88-29.87,12.9-3.29,1.73-1.46,6.27,1.76,6.52C403.51,488.4,433.84,487.6,429.77,471.18Z"/><path class="cls-3" d="M119.06,380.73a53.88,53.88,0,0,0-8.06-5.59c-5.46-3-8.09-5.76-12.46-10.19a1.34,1.34,0,0,0-2.36.08c-4.16,4.53-7,10.18-1.09,15,5.35,4.4,14,5.19,20.56,6.51C118.74,387.2,122,383.14,119.06,380.73Z"/><path class="cls-3" d="M117.19,402.83c-11.34.6-24,1.2-32.42-7.85-2-2.21-4.89-.75-5.68,1.45a3.13,3.13,0,0,0-2.41.48A5.45,5.45,0,0,0,75,405.1c2.29,3.14,7.62,4.35,11.19,5.13a67.94,67.94,0,0,0,15.53,1.26c5.42-.09,11.18,0,16.36-1.79C121.65,408.48,121.35,402.6,117.19,402.83Z"/><path class="cls-3" d="M89.26,436.23a42.67,42.67,0,0,0-10.69-3c-1.73-.25-3.49-.32-5.2-.64a15.74,15.74,0,0,1-2.25-.56,2.44,2.44,0,0,0-.94-.6,3.46,3.46,0,0,0-3.3-3l-.34,0A3.54,3.54,0,0,0,63.16,431a4.75,4.75,0,0,0,1.23,4.88,3.58,3.58,0,0,0,1.79,5.5A50.53,50.53,0,0,0,89.26,443C93.13,442.4,92,437.38,89.26,436.23Z"/><path class="cls-3" d="M84.92,468.1c-8.21.07-16.36.07-24.38-1.84a3.42,3.42,0,0,0-4.18,2.49A3.13,3.13,0,0,0,54,472l.06,4.34c0,2.44,2.2,3.75,4.43,3.37L85.85,475C89.79,474.29,88.79,468.06,84.92,468.1Z"/><path class="cls-3" d="M388.31,209.93c-3.44,6.8-10.74,9.67-17.54,12.1-3.45,1.23-3.26,7.28.93,6.87,5.24-.51,15.64-.66,19.49-5.33a3.62,3.62,0,0,0,2.12-2.07,5.53,5.53,0,0,0-.6-5.32,21.56,21.56,0,0,0,1.64-2.72C396.38,209.45,390.34,205.9,388.31,209.93Z"/><path class="cls-3" d="M388.73,247a43.82,43.82,0,0,1-25.61,7.56c-2.93,0-4.75,3.93-2.47,6,5,4.53,11.4,4.21,17.8,4.27,4,0,7.86.76,9.35-3.7.51-1.54.73-3.16,1.24-4.7S394.64,243.09,388.73,247Z"/><path class="cls-3" d="M372,282.16a18.59,18.59,0,0,1-13.72.45c-3.19-1.07-6.14,3.63-3.4,5.85,3.54,2.86,8,5.61,12.56,6.43,4.76.85,7.14-3.75,8.8-7.81C377.41,284.22,375.93,280.41,372,282.16Z"/><path class="cls-4" d="M404.33,390.76a2.91,2.91,0,0,0-2.11-1.75c-.92-2.51-4.71-3.75-6.25-.74-2.56,5-7,8.74-12,11.82,1.39,2.43,2.73,4.89,4,7.39q2.85-1.26,5.69-2.55C399.61,402.22,408.1,398.76,404.33,390.76Z"/><path class="cls-4" d="M417.67,421.69c-1.13-3.8-2.41-7.53-3.8-11.23a3.68,3.68,0,0,0-4.3.22,108,108,0,0,1-15.73,10.13q1.64,4.31,3,8.71a37,37,0,0,0,14.84-3.85C413.53,424.75,416.19,423.5,417.67,421.69Z"/><path class="cls-4" d="M420.14,456.27a11,11,0,0,0,4.5-4.92c-.73-3-1.53-5.89-2.46-8.83-.14-1.06-.31-2.12-.48-3.17a3.3,3.3,0,0,0-2.9.91,68.47,68.47,0,0,1-17.11,11.49c.07.52.15,1,.22,1.54.46,3.66.77,7.34.95,11l.54-.22C409,461.79,415,459.46,420.14,456.27Z"/><path class="cls-4" d="M429.47,477.53q-.6-4.23-1.27-8.45a3.26,3.26,0,0,0-1-.34,3.45,3.45,0,0,0-5.23-.5c-5.16,4.92-12.15,6.77-19,8.82-.1,2.48-.24,5-.47,7.44-.1,1.09-.26,2.19-.44,3.29C412.22,487.47,426.26,485.3,429.47,477.53Z"/><path class="cls-4" d="M388.31,209.93c-3.44,6.8-10.74,9.67-17.54,12.1-3.45,1.23-3.26,7.28.93,6.87,5.24-.51,15.64-.66,19.49-5.33a3.67,3.67,0,0,0,1.42-1c.18-1.94.32-3.9.44-5.85-.11-.19-.22-.38-.34-.56.14-.2.27-.42.41-.63q.17-3.26.21-6.53C391.8,207.8,389.44,207.69,388.31,209.93Z"/><path class="cls-4" d="M360.65,260.58c5,4.53,11.4,4.21,17.8,4.27a29,29,0,0,0,5.41-.13c1.86-5.81,3.47-11.71,4.82-17.66a43.72,43.72,0,0,1-25.56,7.54C360.19,254.55,358.37,258.53,360.65,260.58Z"/><path class="cls-4" d="M372,282.16a18.59,18.59,0,0,1-13.72.45c-3.19-1.07-6.14,3.63-3.4,5.85,3.54,2.86,8,5.61,12.56,6.43a5.67,5.67,0,0,0,5.23-1.72q2-4.38,3.89-8.81C376.27,282.41,374.73,281,372,282.16Z"/><path class="cls-4" d="M240.6,120.69c3.46-1.85,1.11-7.62-2.69-6.39a12.65,12.65,0,0,1-3.43.63,4.4,4.4,0,0,0-.52-.54,9.65,9.65,0,0,0-4.9,2.55c-3.57,3.57-4.23,9,.75,11.48a12.64,12.64,0,0,0,1.76.7A26.11,26.11,0,0,1,240.6,120.69Z"/><path class="cls-4" d="M258.13,118.78c-1.33-.45-2.67-.9-4-1.33a28.72,28.72,0,0,1-5-.83,3.59,3.59,0,0,0-4,1.61q-3.54,6-6.91,12.07c3.94.4,8.23.49,11.76,1.66l1.28.43q3.25-4.5,6.67-8.88A3.85,3.85,0,0,0,258.13,118.78Z"/><path class="cls-4" d="M272.39,128.17a3.67,3.67,0,0,0-.62-4.74,6.29,6.29,0,0,0-1-.8,4.08,4.08,0,0,0-.92-.2,3.5,3.5,0,0,0-.44-.5,19.41,19.41,0,0,0-3.08-1,3.28,3.28,0,0,0-1.62,1,124.19,124.19,0,0,0-9.31,11.61,17.93,17.93,0,0,0,9.7.19,14.42,14.42,0,0,0,4.27-2.26,31.92,31.92,0,0,1,2.88-3.18Z"/><path class="cls-4" d="M83.07,409.48c.53-2.38,1.08-4.77,1.66-7.14.46-1.89,1-3.91,1.47-6-.49-.45-1-.9-1.43-1.4-2-2.21-4.89-.75-5.68,1.45a3.06,3.06,0,0,0-2.18.36c-.93,2.44-1.71,4.95-2.44,7.37a6.2,6.2,0,0,0,.57.94C76.72,407.4,80,408.66,83.07,409.48Z"/><path class="cls-4" d="M66.18,441.37a50,50,0,0,0,11.16,2.12c.4-3.41.84-6.82,1.34-10.21l-.11,0c-1.73-.25-3.49-.32-5.2-.64a15.74,15.74,0,0,1-2.25-.56,2.44,2.44,0,0,0-.94-.6,3.46,3.46,0,0,0-3.3-3l-.34,0h-.19q-1.16,3.54-2.25,7.1l.29.34A3.58,3.58,0,0,0,66.18,441.37Z"/><path class="cls-4" d="M58.45,479.68l16.71-2.87q.06-4.4.24-8.77a73.94,73.94,0,0,1-14.86-1.78,3.42,3.42,0,0,0-4.18,2.49,3.21,3.21,0,0,0-.81.33c-.42,2.19-.82,4.39-1.18,6.58-.07.43-.16.92-.25,1.43A3.6,3.6,0,0,0,58.45,479.68Z"/><path d="M421.11,424.25c-5.68-19.33-14.33-38.5-26.21-54.84-7.65-10.5-15.54-21.07-25.64-29.38a87,87,0,0,0-15.34-10.1,2.07,2.07,0,0,0,.52-.54q4-6.09,7.79-12.35c7.26-19.12,21.71-35.57,27.22-55.17,5.77-20.55,6.18-42.1,6-63.3-.08-9.36-2-18.53-3.45-27.74-1.75-10.87-6.08-21.21-11-31-4.7-9.47-9.26-18.82-15.8-27.25a71.18,71.18,0,0,0-13.22-13c-2.42-1.83-4.87-3.61-7.25-5.48-1.78-1.42-3-3.09-5.37-3.53a19,19,0,0,0-4.94-.19,39.4,39.4,0,0,0-9.32,2.14c-4.32,1.43-8.58,3.08-12.75,4.91a143.52,143.52,0,0,0-23.9,13.3c-2.63,1.81-5,3.93-7.41,6a25.15,25.15,0,0,0-3.05,2.59c-.78.87-1.67,2.18-2.94,2.35-1.76.24-4.76-1.22-6.49-1.7-4.21-1.17-8.42-2.39-12.73-3.14-7-1.2-13.93-2.26-20.89-3.38l-.26,0c-2.6-12.62-10.66-20.1-18.84-29.36-.19-.21-.38-.43-.58-.64-.95-1.07-2-2.14-3-3.16a24,24,0,0,0-7.58-5.13c-3.39-1.32-7.88-3.15-11.36-1.43-3.67,1.81-7.45,3.39-11.05,5.36-2.23,1.23-4.21,2.8-6.34,4.14-7.82,4.93-15.64,9.85-22.12,16.5q-2.84,2.89-5.61,5.88c-3,3.22-5.9,6.53-8.68,9.94a136.76,136.76,0,0,0-8.58,11.68c-2.33,3.56-4.51,7.22-6.66,10.9-4.47,7.69-8.78,14.73-12.33,23-5.54,13-12.3,26.52-15,40.42-1,5.16-2,10.24-2.87,15.3q-1.55-.27-3.09-.51a1.8,1.8,0,0,0-2.15,1.22A1.76,1.76,0,0,0,90,219.63c1.15.18,2.31.38,3.45.58-.83,5.33-1.49,10.65-1.8,16l-6.29-.51c-2.25-.19-2.24,3.31,0,3.5l6.14.49a98.05,98.05,0,0,0,1.36,19.86h-.13c.07.35.13.7.2,1l-3.83.8c-2.21.45-1.28,3.83.93,3.37l3.74-.77a112.17,112.17,0,0,0,3.73,12.74,79.89,79.89,0,0,0,12,21.57c3.38,4.44,7.05,8.64,10.72,12.84,4.82,5.51,10.62,9.59,16,14.44-5.71,3-10.85,7.82-16.22,11.61-14.73,10.4-25.86,27.56-35.4,42.82-4.75,7.6-7.64,16-12.05,23.65a292.58,292.58,0,0,0-16,53.39c-2.93,14.2-5.09,28.55-7,42.93h4c3.46-26.6,8-53.18,16.54-78.67,7.94-23.76,19.52-46.58,35.91-65.67,9.06-10.56,21-19.92,33.26-26.91a2,2,0,0,0,.68-.66,160.29,160.29,0,0,0,16.4,9.44c13.62,6.87,26.3,13,41.77,14.17a122.4,122.4,0,0,0,28.67-1.53c8.95-1.46,17.9-2,26.89-3.79a215.21,215.21,0,0,0,54.85-18.24q6.78-3.39,13.3-7.3c2.4-1.44,17.12-9.24,16.15-12-1.05-3-6.06,1.51-7.27,2.29q-4.49,2.88-9.09,5.59A220.59,220.59,0,0,1,283,334.63,203.25,203.25,0,0,1,236.2,345c-15.38,1.53-30.46,3.63-45.9,1.16-10.82-1.73-21-6.12-30.65-11.12-12.86-6.65-23.94-13.56-34.42-23.48a111.09,111.09,0,0,1-21.92-29.11,78,78,0,0,1-6.87-19l17.66-3.65c4.32-.88,8.64-1.74,13-2.38,2.25-.32,4.51-.6,6.78-.79,1.49-.12,7,.77,6.37-2.24a1.91,1.91,0,0,0-2.19-1.55h-.25l0,.05c-8.16.3-16.21,1.8-24.2,3.44q-9,1.83-17.9,3.7a104.28,104.28,0,0,1-1.63-20.13Q118,241.83,142,243.3l.11,0c1.47.51,4.35,0,3.75-2.13-.52-1.93-3.92-1.4-5.4-1.49q-7.71-.48-15.43-1c-2.58-.18-30.86-2-30.85-2.29a142.86,142.86,0,0,1,1.56-15.78,194.26,194.26,0,0,1,22,5.57c8.84,2.78,17.71,5.8,27.07,6,2.25.05,2.25-3.45,0-3.5-9.19-.21-17.91-3.32-26.58-6a194.73,194.73,0,0,0-21.93-5.49,217.4,217.4,0,0,1,14-46.29c.61-1.44,1.57-2.68,2.19-4.15a97.39,97.39,0,0,1,4.44-9.14c1.84-3.39,3.85-6.7,5.37-10.26a42.07,42.07,0,0,1,2.2-3.62c2.11-3.78,4.5-7.41,6.63-11.18,10.69-18.85,25.43-31.33,42.49-44.23,2.29-1.74,4.88-3.14,7.29-4.76A49.44,49.44,0,0,1,190,79.1a16.9,16.9,0,0,0,2.43-1.47c2.63-1.61,5.3-.91,7.93,0a24.2,24.2,0,0,1,6.81,3.76A69.46,69.46,0,0,1,226.1,102.6c2.11,3.73,2.76,8.67,4.89,12.14,2,3.25,4.92,2.8,8.38,3.35,5.14.83,10.29,1.63,15.42,2.52a111.85,111.85,0,0,1,18,4.42c-.21-.07-1.79,2.46.56,2.28,2.51-.2,4.27-1.69,5.8-3.58,4-4.94,9.53-9.14,14.79-12.66A129.67,129.67,0,0,1,319,97.87c5.33-2.06,10.27-4.74,16.25-4.09,5.52.61,10.41,3.91,14.46,7.52,2.89,2.58,6.37,4.73,8.78,7.72s4.79,6.53,7.35,9.62c2.4,2.91,4,6.43,5.71,9.8,2.24,4.34,4.59,8.62,6.8,13,11.13,21.92,13.75,48.16,13.38,72.48-.26,16.74-1.8,34.76-7.56,50.62-6,16.39-14.64,32.32-23.49,47.3q-4.66,7.9-9.72,15.55a1.85,1.85,0,0,0-.33,1,2,2,0,0,0-1.91,3.5,89.1,89.1,0,0,1,29.71,22.89c9.07,10.43,15.77,21.93,22.85,33.74A159.23,159.23,0,0,1,416,421.06c3.9,12.07,6.45,24.59,8.63,37.07A415,415,0,0,1,429.69,500h4q-1.35-18.9-4.36-37.63A309.8,309.8,0,0,0,421.11,424.25Z"/><path d="M339,420.9c-1.18-2.29-4.63-.26-3.45,2,10.37,20.1,13.07,43,13.88,65.26.14,3.94.22,7.88.27,11.82h4c-.28-20.55-1.3-41.37-7.39-61.1A109.72,109.72,0,0,0,339,420.9Z"/><path d="M131.55,422.62a2.07,2.07,0,0,0,.21-2.82,2,2,0,0,0-2.82-.21c-15,16.53-19.74,38.81-23.42,60.16-1.14,6.62-2.21,13.25-3.59,19.82a3.18,3.18,0,0,0-.06.43h4c4.37-21.24,5.9-43.7,16-63.26A66.35,66.35,0,0,1,131.55,422.62Z"/><path d="M185.72,373.76a1.26,1.26,0,0,0-1.71.45l-3.45,7.31a1.25,1.25,0,1,0,2.16,1.26l3.45-7.31A1.28,1.28,0,0,0,185.72,373.76Z"/><path d="M217.31,397.31a1.28,1.28,0,0,0-1.25,1.25l-.68,5.64a1.26,1.26,0,0,0,1.25,1.25,1.31,1.31,0,0,0,1.25-1.25l.68-5.64A1.26,1.26,0,0,0,217.31,397.31Z"/><path d="M253.43,360.6a1.27,1.27,0,0,0-1.25,1.25v4a1.25,1.25,0,0,0,2.5,0v-4A1.26,1.26,0,0,0,253.43,360.6Z"/><path d="M287.94,408.4c-.74-2.08-1.49-4.15-2.23-6.23a1.25,1.25,0,1,0-2.41.67l2.23,6.22a1.28,1.28,0,0,0,1.54.87A1.25,1.25,0,0,0,287.94,408.4Z"/><path d="M169.72,445.35a1.29,1.29,0,0,0-.74-.58,1.32,1.32,0,0,0-1,.13,1.23,1.23,0,0,0-.57.75c-.2.94-.39,1.88-.59,2.82a1.39,1.39,0,0,0,.13,1,1.27,1.27,0,0,0,.75.57,1.23,1.23,0,0,0,1.53-.87l.59-2.82A1.28,1.28,0,0,0,169.72,445.35Z"/><path d="M269.32,449.05a1.34,1.34,0,0,0-.57-.75l-.25-.25c-.06-.09-.11-.18-.16-.27a3.37,3.37,0,0,1-.09-.34c0-.1,0-.21,0-.31a1.23,1.23,0,0,0-1.25-1.25,1.27,1.27,0,0,0-.88.36l-.19.25a1.31,1.31,0,0,0-.18.64,3.66,3.66,0,0,0,.09,1,3.4,3.4,0,0,0,.34.92,3.68,3.68,0,0,0,1.32,1.42,1.24,1.24,0,0,0,1,.12,1.3,1.3,0,0,0,.75-.57A1.24,1.24,0,0,0,269.32,449.05Z"/><path d="M308.68,451.6l-1.13-2.26a1.31,1.31,0,0,0-.75-.58,1.26,1.26,0,0,0-1.54.88,1.34,1.34,0,0,0,.13,1l1.13,2.26a1.2,1.2,0,0,0,.75.57,1.25,1.25,0,0,0,1-.12,1.23,1.23,0,0,0,.57-.75A1.39,1.39,0,0,0,308.68,451.6Z"/><path d="M225.51,473.91a.9.9,0,0,0-.4-.26,1,1,0,0,0-.48-.11,1.26,1.26,0,0,0-1.25,1.25v1.7a1.26,1.26,0,0,0,.37.88,1.39,1.39,0,0,0,.88.37,1.26,1.26,0,0,0,1.25-1.25v-1.7A1.28,1.28,0,0,0,225.51,473.91Z"/><path d="M381,196.1c-.52-1.33-1-2.67-1.57-4a1.37,1.37,0,0,0-.57-.75,1.29,1.29,0,0,0-1-.12,1.25,1.25,0,0,0-.88,1.53c.53,1.34,1.05,2.67,1.57,4a1.33,1.33,0,0,0,.58.74,1.24,1.24,0,0,0,1,.13,1.31,1.31,0,0,0,.75-.58A1.24,1.24,0,0,0,381,196.1Z"/><path d="M378.21,213c-.18-.57-.37-1.14-.55-1.7a1.34,1.34,0,0,0-.57-.75,1,1,0,0,0-.47-.15,1,1,0,0,0-.5,0,1.26,1.26,0,0,0-.74.58,1.24,1.24,0,0,0-.13,1c.18.57.37,1.13.55,1.7a1.34,1.34,0,0,0,.57.75,1,1,0,0,0,.47.15,1.06,1.06,0,0,0,.5,0,1.25,1.25,0,0,0,.74-.57A1.2,1.2,0,0,0,378.21,213Z"/><path d="M385.05,232.21l-1.15-4.51a1.25,1.25,0,0,0-2.41.66c.38,1.51.77,3,1.15,4.52a1.25,1.25,0,0,0,1.53.87A1.28,1.28,0,0,0,385.05,232.21Z"/><path d="M373.47,236.17a1.3,1.3,0,0,0-.89-.37,1.26,1.26,0,0,0-.88.37,1.28,1.28,0,0,0-.37.88v2.26a1.3,1.3,0,0,0,.37.89,1.27,1.27,0,0,0,1.77,0,1.34,1.34,0,0,0,.36-.89v-2.26A1.31,1.31,0,0,0,373.47,236.17Z"/><path d="M380.57,257.05l-.57-2.82a1.27,1.27,0,0,0-.57-.75,1.32,1.32,0,0,0-1-.13,1.26,1.26,0,0,0-.74.58,1.34,1.34,0,0,0-.13,1c.19.94.38,1.88.56,2.83a1.26,1.26,0,0,0,.58.74,1.24,1.24,0,0,0,1,.13,1.28,1.28,0,0,0,.75-.58A1.44,1.44,0,0,0,380.57,257.05Z"/><path d="M364.27,264.16a1.35,1.35,0,0,0-.37-.89,1.21,1.21,0,0,0-.88-.36,1.25,1.25,0,0,0-.88.36,1.22,1.22,0,0,0-.37.89c.19,1.5.39,3,.58,4.51a1.39,1.39,0,0,0,.36.89,1.29,1.29,0,0,0,.89.36,1.25,1.25,0,0,0,.88-.36,1.22,1.22,0,0,0,.37-.89C364.66,267.17,364.46,265.66,364.27,264.16Z"/><path d="M374.85,275a.94.94,0,0,0-.25-.4,1,1,0,0,0-.41-.26,1,1,0,0,0-.48-.11l-.33.05a1.27,1.27,0,0,0-.55.32l-.2.25a1.29,1.29,0,0,0-.17.63v1.13a1,1,0,0,0,.11.49,1,1,0,0,0,.26.4,1,1,0,0,0,.4.26,1,1,0,0,0,.48.1l.33,0a1.31,1.31,0,0,0,.56-.32l.19-.26a1.15,1.15,0,0,0,.17-.63v-1.13A.89.89,0,0,0,374.85,275Z"/><path d="M360.72,290.58a1.28,1.28,0,0,0-1.25,1.25v3.95a1.25,1.25,0,0,0,2.5,0v-3.95A1.26,1.26,0,0,0,360.72,290.58Z"/><path d="M398.31,401.06l-3.38-3.38a1.25,1.25,0,0,0-1.77,1.76l3.39,3.39a1.25,1.25,0,0,0,1.76-1.77Z"/><path d="M410.17,417.44l-2.26-2.26a1.26,1.26,0,0,0-1.76,0,1.28,1.28,0,0,0-.37.89,1.32,1.32,0,0,0,.37.88l2.26,2.26a1.29,1.29,0,0,0,.88.36,1.25,1.25,0,0,0,.88-.36,1.28,1.28,0,0,0,.37-.89A1.32,1.32,0,0,0,410.17,417.44Z"/><path d="M402.43,429.58l-1.71-2.25a1.07,1.07,0,0,0-.32-.35,1,1,0,0,0-.43-.22,1.24,1.24,0,0,0-1,.12,1.31,1.31,0,0,0-.58.75,1.19,1.19,0,0,0,.13,1l1.71,2.25a.78.78,0,0,0,.32.35,1,1,0,0,0,.42.23,1.32,1.32,0,0,0,1-.13,1.27,1.27,0,0,0,.57-.75A1.24,1.24,0,0,0,402.43,429.58Z"/><path d="M417.71,447.06q-1.11-2-2.2-4a1.25,1.25,0,0,0-2.16,1.27l2.2,4a1.25,1.25,0,1,0,2.16-1.26Z"/><path d="M412.22,460.9c-.37-.95-.75-1.89-1.12-2.83a1.39,1.39,0,0,0-.58-.75,1.28,1.28,0,0,0-1-.12,1.3,1.3,0,0,0-.75.57,1.25,1.25,0,0,0-.12,1c.37.95.75,1.89,1.12,2.83a1.39,1.39,0,0,0,.58.75,1.28,1.28,0,0,0,1,.12,1.23,1.23,0,0,0,.87-1.53Z"/><path d="M422.29,473.18a1.15,1.15,0,0,0-.66-.66.89.89,0,0,0-.48-.1l-.33,0a1.31,1.31,0,0,0-.56.32l-.19.25a1.3,1.3,0,0,0-.17.64v1.12a.91.91,0,0,0,.11.49.94.94,0,0,0,.25.4,1,1,0,0,0,.41.26.89.89,0,0,0,.48.1l.33,0a1.27,1.27,0,0,0,.55-.32l.2-.25a1.3,1.3,0,0,0,.17-.64v-1.12A1,1,0,0,0,422.29,473.18Z"/><path d="M417.22,486.34c-.37-1.13-.75-2.26-1.12-3.39a1.36,1.36,0,0,0-.58-.75,1.24,1.24,0,0,0-1-.12,1.26,1.26,0,0,0-.88,1.53c.38,1.13.76,2.26,1.13,3.39a1.36,1.36,0,0,0,.58.75,1.25,1.25,0,0,0,1.83-1.41Z"/><path d="M86.24,407a1.23,1.23,0,0,0-1.71-.45,11.9,11.9,0,0,0-3.36,3.77,1.25,1.25,0,1,0,2.15,1.26,11.46,11.46,0,0,1,.78-1.18,10.47,10.47,0,0,1,1.77-1.75l-.05,0a1.34,1.34,0,0,0,.55-.73A1.24,1.24,0,0,0,86.24,407Z"/><path d="M84.1,421.38a1,1,0,0,0-.23-.42.93.93,0,0,0-.35-.33,1.24,1.24,0,0,0-1-.12l-.3.12a1.21,1.21,0,0,0-.45.45l-1.13,1.7a.93.93,0,0,0-.15.46,1.06,1.06,0,0,0,0,.5,1,1,0,0,0,.23.42.93.93,0,0,0,.35.33,1.24,1.24,0,0,0,1,.12l.3-.12a1.29,1.29,0,0,0,.45-.45l1.13-1.7a.93.93,0,0,0,.15-.46A1.06,1.06,0,0,0,84.1,421.38Z"/><path d="M73.93,440a.93.93,0,0,0-.22-.43,1,1,0,0,0-.35-.32,1.32,1.32,0,0,0-1-.13l-.3.13a1.27,1.27,0,0,0-.44.45l-1.13,1.69a.87.87,0,0,0-.15.47.91.91,0,0,0,0,.49.93.93,0,0,0,.22.43,1,1,0,0,0,.35.32,1.32,1.32,0,0,0,1,.13l.3-.13a1.27,1.27,0,0,0,.44-.45L73.8,441a.8.8,0,0,0,.15-.47A.91.91,0,0,0,73.93,440Z"/><path d="M85.17,446.2a1,1,0,0,0-.22-.42,1,1,0,0,0-.35-.33l-.3-.12a1.27,1.27,0,0,0-.67,0l-.3.12a1.27,1.27,0,0,0-.44.45L82.32,447a1,1,0,0,0-.15.46,1.1,1.1,0,0,0,.25.93,1,1,0,0,0,.35.32l.3.13a1.23,1.23,0,0,0,.66,0l.3-.13a1.21,1.21,0,0,0,.45-.45c.19-.37.38-.75.56-1.13a.77.77,0,0,0,.15-.46A.94.94,0,0,0,85.17,446.2Z"/><path d="M69.3,465.71a1.28,1.28,0,0,0-.75-.58,1.24,1.24,0,0,0-1,.13,6.15,6.15,0,0,0-.81.64,6.26,6.26,0,0,0-.67.78,5.44,5.44,0,0,0-.81,1.57,1.25,1.25,0,0,0,1.83,1.41,1.44,1.44,0,0,0,.58-.75.14.14,0,0,1,0-.06,4.77,4.77,0,0,1,.42-.73,4.46,4.46,0,0,1,.72-.72,1.26,1.26,0,0,0,.55-.73A1.24,1.24,0,0,0,69.3,465.71Z"/><path d="M78.42,470.52a1.25,1.25,0,0,0-1.54-.88,1.26,1.26,0,0,0-.74.58,1.29,1.29,0,0,0-.13,1,.51.51,0,0,1,0,.13,1.93,1.93,0,0,1,0,.34,1.68,1.68,0,0,1-.09.32,2.08,2.08,0,0,1-.22.38l0-.05a1.27,1.27,0,0,0-.32.81,1.28,1.28,0,0,0,.37.89,1.27,1.27,0,0,0,.88.36,1.25,1.25,0,0,0,.88-.36,3.64,3.64,0,0,0,.85-3.48Z"/><path d="M66,486a1.27,1.27,0,0,0-.75-.57,1.24,1.24,0,0,0-1,.12,1.3,1.3,0,0,0-.57.75l-.6,2.25a1.28,1.28,0,0,0,.12,1,1.31,1.31,0,0,0,.75.58,1.24,1.24,0,0,0,1-.13,1.26,1.26,0,0,0,.58-.74l.6-2.25A1.31,1.31,0,0,0,66,486Z"/><path d="M339.75,227.54a1.74,1.74,0,0,0-.21-.7l-.34-.2-.13.05c-.45.12-.89.22-1.32.37a2.69,2.69,0,0,1-.54.14c-17.08,7-35.34,10.29-53.12,15.06-5,1.34-9.89,2.8-14.75,4.49a.41.41,0,0,0,0-.11,2.32,2.32,0,0,0-.72.36,1.72,1.72,0,0,0-1,1.05l-.15.19a1.15,1.15,0,0,0-.07,1.34,1.11,1.11,0,0,0,.65.44,1.47,1.47,0,0,0,1.6.31c17.65-6.2,36.2-9.22,54.08-14.66a154.82,154.82,0,0,0,15.1-5.38,1.8,1.8,0,0,0,1.22-2.15A1.57,1.57,0,0,0,339.75,227.54Z"/><path d="M332.14,278.06c-9.68,1.13-19.43.48-29.12-.18l-29.24-2c-1.78-.12-2.14,2-1.12,3,.19.52.45.9,1.35.49l29,2c9.35.64,18.74,1.25,28.08.28.88-.21,1.75-.48,2.62-.66a.54.54,0,0,0,0-.11,2.06,2.06,0,0,0,.11-1s0-.05,0-.08A1.76,1.76,0,0,0,332.14,278.06Z"/><path d="M331.87,253.73c-9.42,3-19.66,2.85-29.45,3.39l-31.11,1.71a1.69,1.69,0,0,0-1.5,1,1.54,1.54,0,0,0-.55,1.22,1.23,1.23,0,0,0,1.09,1,1.63,1.63,0,0,0,1,.23l31.6-1.74c9.94-.55,20.33-.42,29.89-3.49C334.94,256.42,334,253,331.87,253.73Z"/></g></svg>