<?xml version="1.0" encoding="UTF-8"?>
<svg id="Glasses" xmlns="http://www.w3.org/2000/svg" xmlns:xlink="http://www.w3.org/1999/xlink" viewBox="0 0 500 500">
  <defs>
    <style>
      .cls-1 {
        fill: #fff;
      }

      .cls-2 {
        fill: #fbfaf9;
        stroke: #dcdbda;
      }

      .cls-2, .cls-3, .cls-4 {
        stroke-miterlimit: 10;
      }

      .cls-3 {
        fill: #bbb;
        stroke: #969c8f;
      }

      .cls-5 {
        opacity: .59;
      }

      .cls-6 {
        opacity: .72;
      }

      .cls-4 {
        fill: url(#linear-gradient);
        stroke: #bbb;
      }

      .cls-7 {
        fill: #ff1d25;
      }

      .cls-7, .cls-8 {
        opacity: .8;
      }

      .cls-8 {
        fill: #0071bb;
      }
    </style>
    <linearGradient id="linear-gradient" x1="308.77" y1="189.42" x2="371.06" y2="189.42" gradientTransform="matrix(1, 0, 0, 1, 0, 0)" gradientUnits="userSpaceOnUse">
      <stop offset="0" stop-color="#fbfaf9"/>
      <stop offset=".13" stop-color="#dcdbda"/>
      <stop offset="1" stop-color="#bbb"/>
    </linearGradient>
  </defs>
  <g id="__glasses" data-name="7_glasses">
    <path class="cls-3" d="M310.78,184.23c-.48-.12-.95-.24-1.43-.36-11.49-2.79-23.28-4.42-34.95-6.18-7.9-1.19-15.87-2.13-23.86-2.31-6.77-.15-12.72-1.71-18.31,2.56-3.18,1.71-5.86,4.94-8.7,7.16-1.42,1.11-2.85,2.23-4.44,3.07-5.48,2.92-13.35,2.21-17.63-2.46-1.99-2.16-4.14-4.22-5.68-6.79-1.59-2.66-2.74-5.57-4.45-8.17-3.88-5.87-10.01-6.36-16.45-8.44-7.61-2.46-15.44-4.2-23.29-5.67-11.61-2.18-23.28-4.52-35.04-5.66-.49-.05-.98-.09-1.47-.14-3.51-.3-3.98,7.26-4.23,9.44-.65,5.72-.79,11.47-1.39,17.23-1.12,10.9-1.74,21.81-.27,32.69,.52,3.83,3.07,6.32,6.41,8.17,4.36,2.42,9.47,3.33,14.22,4.69,5.31,1.51,10.55,3.29,15.95,4.48,6.23,1.37,12.14,3.31,18.63,2.21,4.16-.7,8.46-2.42,11.66-5.13,4.41-3.74,8.91-6.95,12.88-11.25,2.71-2.94,5.3-5.62,8.91-7.46,1.01-.51,2.28-.83,3.69-.96,4.94-.12,10.5,1.47,12.96,4.04,1.19,1.24,2.14,2.56,2.98,3.95,.01,.05,.03,.1,.04,.15,.12,.41,.33,.72,.59,.94,.86,1.57,1.61,3.22,2.35,4.94,2.33,5.37,5.53,9.88,8.46,14.87,2.13,3.61,5.62,6.65,9.32,8.68,5.77,3.17,11.99,3.29,18.32,4.04,5.49,.65,11.02,.7,16.54,1.02,4.93,.29,10.06,1.11,14.97,.26,3.77-.65,6.99-2.17,8.74-5.61,4.96-9.78,7.97-20.29,10.5-30.96,1.34-5.64,3.09-11.12,4.36-16.73,.48-2.14,2.52-9.44-.88-10.3Zm-115.56,12.52c-.11,.66-.26,1.31-.42,1.95-1.34,5.22-5.01,9.12-8.79,12.69-3.92,3.69-7.91,7.44-12.62,10.12-4.09,2.34-10.03,5.52-14.87,4.6-8.56-1.62-16.99-3.83-25.34-6.28-5.51-1.61-11.96-2.06-16.29-6.25-3.15-3.05-4.25-7.69-4.58-11.92-.34-4.52-.29-9.47,.04-13.97,.67-9.06,1.19-18.18,2.93-27.12,.46-2.34,.36-4.89,2.85-5.4,2.34-.48,5.67,.58,7.87,.97,15.13,2.56,30.49,5.47,45.14,9.56,3.57,1,7.16,2,10.48,3.64,6.15,3.03,7.97,7.58,11.26,13.09,.03,.05,.06,.09,.08,.14,2.55,4.24,3.1,9.37,2.26,14.19Zm112.16-3.41c-1.3,9.01-3.81,17.79-6.15,26.57-1.17,4.36-2.75,9.05-4.56,13.21-1.7,3.89-4.27,7.91-8.24,9.75-5.47,2.54-11.7,.83-17.44,.55-8.69-.44-17.38-1.13-26-2.41-4.87-.72-9.43-5.69-12.53-9.24-3.56-4.08-6.1-8.93-8.59-13.71-2.55-4.91-4.22-10.59-4.02-16.16,.2-5.57,3.36-10.75,7.66-14.2,4.38-3.51,8.52-7.19,14.35-7.91,3.67-.45,7.39-.22,11.09,.01,15.18,.95,30.64,3.26,45.77,5.83,2.21,.35,5.7,.45,7.75,1.68,2.19,1.31,1.26,3.67,.92,6.04Z"/>
    <path class="cls-2" d="M308.78,182.23c-.48-.12-.95-.24-1.43-.36-11.49-2.79-23.28-4.42-34.95-6.18-7.9-1.19-15.87-2.13-23.86-2.31-6.77-.15-12.72-1.71-18.31,2.56-3.18,1.71-5.86,4.94-8.7,7.16-1.42,1.11-2.85,2.23-4.44,3.07-5.48,2.92-13.35,2.21-17.63-2.46-1.99-2.16-4.14-4.22-5.68-6.79-1.59-2.66-2.74-5.57-4.45-8.17-3.88-5.87-10.01-6.36-16.45-8.44-7.61-2.46-15.44-4.2-23.29-5.67-11.61-2.18-23.28-4.52-35.04-5.66-.49-.05-.98-.09-1.47-.14-3.51-.3-3.98,7.26-4.23,9.44-.65,5.72-.79,11.47-1.39,17.23-1.12,10.9-1.74,21.81-.27,32.69,.52,3.83,3.07,6.32,6.41,8.17,4.36,2.42,9.47,3.33,14.22,4.69,5.31,1.51,10.55,3.29,15.95,4.48,6.23,1.37,12.14,3.31,18.63,2.21,4.16-.7,8.46-2.42,11.66-5.13,4.41-3.74,8.91-6.95,12.88-11.25,2.71-2.94,5.3-5.62,8.91-7.46,1.01-.51,2.28-.83,3.69-.96,4.94-.12,10.5,1.47,12.96,4.04,1.19,1.24,2.14,2.56,2.98,3.95,.01,.05,.03,.1,.04,.15,.12,.41,.33,.72,.59,.94,.86,1.57,1.61,3.22,2.35,4.94,2.33,5.37,5.53,9.88,8.46,14.87,2.13,3.61,5.62,6.65,9.32,8.68,5.77,3.17,11.99,3.29,18.32,4.04,5.49,.65,11.02,.7,16.54,1.02,4.93,.29,10.06,1.11,14.97,.26,3.77-.65,6.99-2.17,8.74-5.61,4.96-9.78,7.97-20.29,10.5-30.96,1.34-5.64,3.09-11.12,4.36-16.73,.48-2.14,2.52-9.44-.88-10.3Zm-115.56,12.52c-.11,.66-.26,1.31-.42,1.95-1.34,5.22-5.01,9.12-8.79,12.69-3.92,3.69-7.91,7.44-12.62,10.12-4.09,2.34-10.03,5.52-14.87,4.6-8.56-1.62-16.99-3.83-25.34-6.28-5.51-1.61-11.96-2.06-16.29-6.25-3.15-3.05-4.25-7.69-4.58-11.92-.34-4.52-.29-9.47,.04-13.97,.67-9.06,1.19-18.18,2.93-27.12,.46-2.34,.36-4.89,2.85-5.4,2.34-.48,5.67,.58,7.87,.97,15.13,2.56,30.49,5.47,45.14,9.56,3.57,1,7.16,2,10.48,3.64,6.15,3.03,7.97,7.58,11.26,13.09,.03,.05,.06,.09,.08,.14,2.55,4.24,3.1,9.37,2.26,14.19Zm112.16-3.41c-1.3,9.01-3.81,17.79-6.15,26.57-1.17,4.36-2.75,9.05-4.56,13.21-1.7,3.89-4.27,7.91-8.24,9.75-5.47,2.54-11.7,.83-17.44,.55-8.69-.44-17.38-1.13-26-2.41-4.87-.72-9.43-5.69-12.53-9.24-3.56-4.08-6.1-8.93-8.59-13.71-2.55-4.91-4.22-10.59-4.02-16.16,.2-5.57,3.36-10.75,7.66-14.2,4.38-3.51,8.52-7.19,14.35-7.91,3.67-.45,7.39-.22,11.09,.01,15.18,.95,30.64,3.26,45.77,5.83,2.21,.35,5.7,.45,7.75,1.68,2.19,1.31,1.26,3.67,.92,6.04Z"/>
    <path class="cls-7" d="M304.46,185.3c-2.05-1.23-5.54-1.32-7.75-1.68-15.13-2.56-30.59-4.87-45.77-5.83-3.69-.23-7.42-.46-11.09-.01-5.82,.72-9.96,4.4-14.35,7.91-4.3,3.45-7.46,8.63-7.66,14.2-.2,5.57,1.47,11.25,4.02,16.16,2.48,4.78,5.03,9.63,8.59,13.71,3.1,3.55,7.66,8.51,12.53,9.24,8.61,1.28,17.3,1.97,26,2.41,5.74,.29,11.98,1.99,17.44-.55,3.98-1.85,6.55-5.87,8.24-9.75,1.81-4.15,3.39-8.84,4.56-13.21,2.35-8.78,4.85-17.56,6.15-26.57,.34-2.36,1.27-4.73-.92-6.04Z"/>
    <path class="cls-8" d="M190.88,180.43c-3.29-5.51-5.11-10.05-11.26-13.09-3.32-1.64-6.91-2.64-10.48-3.64-14.64-4.09-30.01-7-45.14-9.56-2.2-.39-5.53-1.45-7.87-.97-2.49,.51-2.4,3.06-2.85,5.4-1.74,8.94-2.26,18.05-2.93,27.12-.33,4.5-.38,9.45-.04,13.97,.32,4.23,1.43,8.87,4.58,11.92,4.33,4.19,10.78,4.64,16.29,6.25,8.35,2.45,16.79,4.66,25.34,6.28,4.83,.92,10.77-2.27,14.87-4.6,4.7-2.68,8.7-6.43,12.62-10.12,3.79-3.57,7.45-7.47,8.79-12.69,.17-.64,.31-1.29,.42-1.95,.84-4.82,.29-9.95-2.26-14.19-.03-.05-.06-.09-.08-.14Z"/>
    <path class="cls-4" d="M367.88,179.49c-1.91-1.18-4.27-1-6.38-.52-2.48,.57-4.94,1.27-7.42,1.87-10.13,2.45-20.37,4.42-30.69,5.91-2.86,.41-10.76-.1-12.33,2.66-.39,.68-.55,1.45-.72,2.21l-1.46,6.82c-.11,.5-.21,1.05,.02,1.52,.81,1.61,17.06-4.39,19.26-5.1,6.8-2.21,13.53-4.62,20.18-7.23,4.6-1.81,9.8-4.57,14.9-4.19,3.2,.24,3.97,2.69,3.28,5.54-.89,3.72,.52,8.21,3.16,3.02,1.92-3.76,2.22-10.01-1.81-12.5Z"/>
    <g class="cls-5">
      <g class="cls-6">
        <path class="cls-1" d="M234.07,184.73c-3.85,5.91-6.42,12.36-7.7,19.07-.18,.96,.88,1.8,1.83,1.81,1.15,.01,1.86-.81,2.04-1.77,1.16-6.07,3.61-11.97,7.09-17.31,1.31-2.01-1.96-3.82-3.27-1.8Z"/>
        <path class="cls-1" d="M239.46,186.88c-4.3,9.08-7.53,18.51-9.64,28.15-.21,.96,.18,1.91,1.25,2.2,.91,.25,2.24-.29,2.45-1.24,2.11-9.63,5.34-19.07,9.64-28.15,1.01-2.14-2.69-3.08-3.69-.96Z"/>
      </g>
      <g class="cls-6">
        <path class="cls-1" d="M120.73,162.01c-3.78,5.96-6.27,12.44-7.47,19.17-.17,.96,.9,1.79,1.86,1.79,1.15,0,1.85-.83,2.02-1.79,1.08-6.09,3.47-12.02,6.88-17.4,1.29-2.03-2-3.79-3.29-1.76Z"/>
        <path class="cls-1" d="M126.15,164.09c-4.18,9.13-7.3,18.6-9.29,28.26-.2,.96,.2,1.91,1.27,2.19,.91,.24,2.23-.32,2.43-1.27,1.99-9.66,5.11-19.13,9.29-28.26,.99-2.16-2.73-3.05-3.71-.92Z"/>
      </g>
    </g>
  </g>
</svg>