<svg id="Glasses" xmlns="http://www.w3.org/2000/svg" viewBox="0 0 500 500"><defs><style>.cls-1,.cls-2{fill:#434845;}.cls-1{stroke:#333;stroke-miterlimit:10;}.cls-3{fill:#ccc;opacity:0.37;}.cls-4{opacity:0.72;}.cls-5{fill:#fff;}</style></defs><g id="_2_glasses" data-name="2_glasses"><path class="cls-1" d="M315.26,181.45c-2.84-.7-6-.82-8.72-1.53-3.35-.86-6.06-3.12-9-4.82-6.87-4-14.19-7.63-22.28-9.29a51,51,0,0,0-31.13,3.67c-5.86,2.71-11.06,6.47-16.52,9.79s-11.07,6.17-17.79,5.22l-.3-.05-.31-.05a17.71,17.71,0,0,1-9.06-4.5c-6.27-6.28-10.36-14.34-16.58-20.73a47.49,47.49,0,0,0-27.39-13.65c-8.2-1.12-16.51-.18-24.57,1.31-3.39.62-6.85,1.82-10.33,1.52-2.86-.24-5.81-1.16-8.73-1.45-3.63-.35-4.3,6.58-4.6,8.57-.81,5.23-1.09,10.5-1.84,15.78-1.26,8.87-3.22,19.43-1.93,28.31,3.12,21.64,30.52,31.27,52.41,29.35a45.16,45.16,0,0,0,23.74-9c3.77-2.94,7.6-5.94,10.25-9.72,3.38-4.8,3.59-11.28,11-11.79a34.19,34.19,0,0,1,4.85.33,34.84,34.84,0,0,1,4.66,1.29c6.72,2.93,4.17,8.95,5.32,14.57.89,4.39,3.2,8.43,5.48,12.41a40.39,40.39,0,0,0,18.3,16.21c19.54,9,49,9,60.9-10,4.89-7.83,7.46-18.28,10-26.94,1.5-5.15,3.43-10.14,4.85-15.26C316.52,189,318.78,182.31,315.26,181.45Zm-29.55,59.69c-10.72,6.77-27.77,5.26-39,.79-9.91-3.93-16.24-7.84-20.5-16.86a63.26,63.26,0,0,1-5.48-15.58c-.9-5,.16-7.8-4.05-11.46-1.9-1.65-6.22-2.21-9.44-2.63-3.16-.67-7.4-1.57-9.86-.66-5.43,2-5.61,5-8.53,9.31a71,71,0,0,1-11.57,12.68c-7.71,7-15.22,8.53-26.06,8.92-12.34.45-28.81-3.76-35.95-13.58-9.57-13.15-9.48-31.43-1.22-45a32.27,32.27,0,0,1,5.12-6.32c15.24-14.76,41.16-15.8,57.75-1.66a81.89,81.89,0,0,1,15.62,18.55c1.75,2.73,3.51,5.64,6.24,7.73a16.59,16.59,0,0,0,5.15,2.45,16.27,16.27,0,0,0,4.13,1.09l.57.08.56.12a16.71,16.71,0,0,0,4.3.34,17.72,17.72,0,0,0,5.81-.59c3.4-1,6.24-3.16,9-5.13a92.92,92.92,0,0,1,22.23-12.09c21.3-7.68,44.94,1.81,53,20.54a28.71,28.71,0,0,1,2.13,7.55C307.59,215.05,300.07,232.07,285.71,241.14Z"/><path d="M312.26,179.56c-2.84-.69-6-.81-8.72-1.52-3.35-.87-6.06-3.12-9-4.82-6.87-4-14.19-7.63-22.28-9.3a51.08,51.08,0,0,0-31.13,3.68c-5.86,2.71-11.06,6.47-16.52,9.79s-11.07,6.16-17.79,5.22l-.3-.05-.31-.05a17.71,17.71,0,0,1-9.06-4.5c-6.27-6.28-10.36-14.34-16.58-20.73a47.56,47.56,0,0,0-27.39-13.66c-8.2-1.11-16.51-.17-24.57,1.32-3.39.62-6.85,1.82-10.33,1.52-2.86-.24-5.81-1.16-8.73-1.45-3.63-.35-4.3,6.58-4.6,8.57-.81,5.23-1.09,10.5-1.84,15.78-1.26,8.87-3.22,19.43-1.93,28.31,3.12,21.64,30.52,31.26,52.41,29.35a45.16,45.16,0,0,0,23.74-9c3.77-2.94,7.6-5.94,10.25-9.72,3.38-4.8,3.59-11.29,11-11.79a34.19,34.19,0,0,1,4.85.33,33.4,33.4,0,0,1,4.66,1.29c6.72,2.93,4.17,8.94,5.32,14.57.89,4.39,3.2,8.43,5.48,12.41a40.45,40.45,0,0,0,18.3,16.21c19.54,9,49,9,60.9-10,4.89-7.83,7.46-18.28,10-26.94,1.5-5.15,3.43-10.14,4.85-15.26C313.52,187.08,315.78,180.43,312.26,179.56Zm-29.55,59.7c-10.72,6.77-27.77,5.26-39,.79-9.91-3.93-16.24-7.84-20.5-16.86a63.26,63.26,0,0,1-5.48-15.58c-.9-5,.16-7.8-4.05-11.46-1.9-1.66-6.22-2.21-9.44-2.63-3.16-.67-7.4-1.57-9.86-.66-5.43,2-5.61,5-8.53,9.31a71.36,71.36,0,0,1-11.57,12.68c-7.71,7-15.22,8.52-26.06,8.92-12.34.44-28.81-3.76-35.95-13.58-9.57-13.15-9.48-31.43-1.22-45a32.27,32.27,0,0,1,5.12-6.32c15.24-14.76,41.16-15.81,57.75-1.67a82.1,82.1,0,0,1,15.62,18.55c1.75,2.74,3.51,5.65,6.24,7.73a16.15,16.15,0,0,0,5.15,2.45A15.87,15.87,0,0,0,205,187l.57.07.56.12a15.87,15.87,0,0,0,4.3.34,17.71,17.71,0,0,0,5.81-.58c3.4-1,6.24-3.16,9-5.13a93.3,93.3,0,0,1,22.23-12.1c21.3-7.68,44.94,1.82,53,20.54a28.89,28.89,0,0,1,2.13,7.56C304.59,213.17,297.07,230.18,282.71,239.26Z"/><path class="cls-2" d="M310.63,183.9c-2.42-4.39-9.5-.71-7.18,4s9.89,1.19,7.25-3.86Z"/><path class="cls-2" d="M115.89,151.16c-2.42-4.4-9.49-.72-7.17,4s9.89,1.18,7.25-3.87Z"/><path d="M369.34,180.13c-1.85-1.28-4.22-1.21-6.35-.83-2.5.44-5,1-7.49,1.51q-15.36,2.92-30.94,4.4c-2.88.27-10.74-.62-12.45,2a7.57,7.57,0,0,0-.83,2.18l-1.78,6.74a2.25,2.25,0,0,0-.06,1.51c.73,1.66,17.26-3.55,19.48-4.15q10.35-2.82,20.51-6.24c4.68-1.58,10-4.09,15.09-3.46,3.18.4,3.83,2.88,3,5.69-1.08,3.67.12,8.23,3,3.18C372.64,189,373.25,182.82,369.34,180.13Z"/><path class="cls-3" d="M302.08,197.88a28.75,28.75,0,0,0-2.09-7.43c-8-18.69-31.48-27.79-52.34-20.27a92.63,92.63,0,0,0-22.11,12l-.53.38c-2.63,1.88-5.36,3.83-8.62,4.82a17.88,17.88,0,0,1-6,.6,16.63,16.63,0,0,1-4.38-.35l-1.09-.18a27.48,27.48,0,0,1-9.53-3.65c-2.62-2-4.34-4.71-6-7.33l-.34-.53a81.32,81.32,0,0,0-15.53-18.44c-16.24-13.84-41.84-13.1-57.07,1.65a31.56,31.56,0,0,0-5,6.22c-8.48,14-8,31.85,1.19,44.49,5,6.88,18.27,14,35.53,13.37,10.83-.39,18.14-1.91,25.75-8.79a70.26,70.26,0,0,0,11.48-12.59c.74-1.09,1.28-2.07,1.81-3,1.53-2.75,2.74-4.92,7-6.49A8.08,8.08,0,0,1,197,192a37.55,37.55,0,0,1,7.32,1.05c3.21.41,7.65,1,9.67,2.74,3.29,2.86,3.51,5.29,3.79,8.36.1,1.05.2,2.14.42,3.39A63.22,63.22,0,0,0,223.61,223c4.2,8.87,10.35,12.68,20.24,16.6,15.79,6.27,31.07,4,38.59-.74C296.25,230.11,304.14,213.65,302.08,197.88Z"/><g class="cls-4"><g class="cls-4"><path class="cls-5" d="M236.82,180.13a53.21,53.21,0,0,0-11.93,16.76c-.4.89.43,2,1.36,2.19a2,2,0,0,0,2.4-1.25,48.52,48.52,0,0,1,10.93-15.18C241.33,181,238.57,178.48,236.82,180.13Z"/><path class="cls-5" d="M241.57,183.48a131.16,131.16,0,0,0-15.94,25.12,1.76,1.76,0,0,0,.7,2.44,2.08,2.08,0,0,0,2.67-.64,132,132,0,0,1,15.93-25.13C246.42,183.42,243,181.65,241.57,183.48Z"/></g><g class="cls-4"><path class="cls-5" d="M125.82,156.13a53.21,53.21,0,0,0-11.93,16.76c-.4.89.43,2,1.36,2.19a2,2,0,0,0,2.4-1.25,48.52,48.52,0,0,1,10.93-15.18C130.33,157,127.57,154.48,125.82,156.13Z"/><path class="cls-5" d="M130.57,159.48a131.16,131.16,0,0,0-15.94,25.12,1.76,1.76,0,0,0,.7,2.44,2.08,2.08,0,0,0,2.67-.64,132,132,0,0,1,15.93-25.13C135.42,159.42,132,157.65,130.57,159.48Z"/></g></g></g></svg>