<svg id="Glasses" xmlns="http://www.w3.org/2000/svg" xmlns:xlink="http://www.w3.org/1999/xlink" viewBox="0 0 500 500"><defs><style>.cls-1{fill:#434845;stroke:#333;stroke-miterlimit:10;}.cls-2{fill:#ccc;opacity:0.37;}.cls-3{opacity:0.72;}.cls-4{fill:#fff;}.cls-5{fill:url(#linear-gradient);}.cls-6{fill:url(#linear-gradient-2);}.cls-7{fill:url(#linear-gradient-3);}.cls-8{fill:url(#linear-gradient-4);}.cls-9{fill:url(#linear-gradient-5);}.cls-10{fill:url(#linear-gradient-6);}.cls-11{fill:url(#linear-gradient-7);}.cls-12{fill:url(#linear-gradient-8);}.cls-13{fill:url(#linear-gradient-9);}.cls-14{fill:url(#linear-gradient-10);}.cls-15{fill:url(#linear-gradient-11);}.cls-16{fill:url(#linear-gradient-12);}.cls-17{fill:url(#linear-gradient-13);}.cls-18{fill:url(#linear-gradient-14);}.cls-19{fill:url(#linear-gradient-15);}.cls-20{fill:url(#linear-gradient-16);}.cls-21{fill:url(#linear-gradient-17);}.cls-22{fill:url(#linear-gradient-18);}.cls-23{fill:url(#linear-gradient-19);}.cls-24{fill:url(#linear-gradient-20);}.cls-25{fill:url(#linear-gradient-21);}.cls-26{fill:url(#linear-gradient-22);}.cls-27{fill:url(#linear-gradient-23);}.cls-28{fill:url(#linear-gradient-24);}.cls-29{fill:url(#linear-gradient-25);}.cls-30{fill:url(#linear-gradient-26);}.cls-31{fill:url(#linear-gradient-27);}.cls-32{fill:url(#linear-gradient-28);}.cls-33{fill:url(#linear-gradient-29);}.cls-34{fill:url(#linear-gradient-30);}.cls-35{fill:url(#linear-gradient-31);}.cls-36{fill:url(#linear-gradient-32);}.cls-37{fill:url(#linear-gradient-33);}.cls-38{fill:url(#linear-gradient-34);}.cls-39{fill:url(#linear-gradient-35);}.cls-40{fill:url(#linear-gradient-36);}.cls-41{fill:url(#linear-gradient-37);}.cls-42{fill:url(#linear-gradient-38);}.cls-43{fill:url(#linear-gradient-39);}.cls-44{fill:url(#linear-gradient-40);}.cls-45{fill:url(#linear-gradient-41);}.cls-46{fill:url(#linear-gradient-42);}.cls-47{fill:url(#linear-gradient-43);}.cls-48{fill:url(#linear-gradient-44);}.cls-49{fill:url(#linear-gradient-45);}.cls-50{fill:url(#linear-gradient-46);}.cls-51{fill:url(#linear-gradient-47);}.cls-52{fill:url(#linear-gradient-48);}.cls-53{fill:url(#linear-gradient-49);}.cls-54{fill:url(#linear-gradient-50);}.cls-55{fill:url(#linear-gradient-51);}.cls-56{fill:url(#linear-gradient-52);}.cls-57{fill:url(#linear-gradient-53);}.cls-58{fill:url(#linear-gradient-54);}.cls-59{fill:url(#linear-gradient-55);}.cls-60{fill:url(#linear-gradient-56);}.cls-61{fill:url(#linear-gradient-57);}.cls-62{fill:url(#linear-gradient-58);}.cls-63{fill:url(#linear-gradient-59);}.cls-64{fill:url(#linear-gradient-60);}.cls-65{fill:url(#linear-gradient-61);}</style><linearGradient id="linear-gradient" x1="329.1" y1="277.11" x2="324.41" y2="288.37" gradientTransform="translate(377.42 818.93) rotate(-142.63)" gradientUnits="userSpaceOnUse"><stop offset="0" stop-color="#626270"/><stop offset="1" stop-color="#0a0a0a"/></linearGradient><linearGradient id="linear-gradient-2" x1="324.89" y1="285.12" x2="324.87" y2="285.16" xlink:href="#linear-gradient"/><linearGradient id="linear-gradient-3" x1="324.34" y1="284.05" x2="324.3" y2="284.15" xlink:href="#linear-gradient"/><linearGradient id="linear-gradient-4" x1="254.16" y1="305.1" x2="260.53" y2="314.46" gradientTransform="translate(-46.55 634.75) rotate(-85.75)" xlink:href="#linear-gradient"/><linearGradient id="linear-gradient-5" x1="255.57" y1="311.94" x2="255.63" y2="312.03" gradientTransform="translate(-46.55 634.75) rotate(-85.75)" xlink:href="#linear-gradient"/><linearGradient id="linear-gradient-6" x1="255" y1="310.89" x2="255.08" y2="311" gradientTransform="translate(-46.55 634.75) rotate(-85.75)" xlink:href="#linear-gradient"/><linearGradient id="linear-gradient-7" x1="233.45" y1="331.78" x2="243.09" y2="337.09" gradientTransform="translate(-136.84 430.46) rotate(-58.87)" xlink:href="#linear-gradient"/><linearGradient id="linear-gradient-8" x1="236.35" y1="336.78" x2="236.45" y2="336.83" gradientTransform="translate(-136.84 430.46) rotate(-58.87)" xlink:href="#linear-gradient"/><linearGradient id="linear-gradient-9" x1="235.79" y1="335.74" x2="235.88" y2="335.79" gradientTransform="translate(-136.84 430.46) rotate(-58.87)" xlink:href="#linear-gradient"/><linearGradient id="linear-gradient-10" x1="233.73" y1="346.31" x2="244.38" y2="348.63" gradientTransform="translate(-143.64 296.79) rotate(-42.3)" xlink:href="#linear-gradient"/><linearGradient id="linear-gradient-11" x1="237.17" y1="349.84" x2="237.26" y2="349.86" gradientTransform="translate(-143.64 296.79) rotate(-42.3)" xlink:href="#linear-gradient"/><linearGradient id="linear-gradient-12" x1="236.62" y1="348.8" x2="236.69" y2="348.81" gradientTransform="translate(-143.64 296.79) rotate(-42.3)" xlink:href="#linear-gradient"/><linearGradient id="linear-gradient-13" x1="257.4" y1="387" x2="267.19" y2="381.35" gradientTransform="matrix(1, 0, 0, 1, 0, 0)" xlink:href="#linear-gradient"/><linearGradient id="linear-gradient-14" x1="260.99" y1="386.88" x2="261.04" y2="386.85" gradientTransform="matrix(1, 0, 0, 1, 0, 0)" xlink:href="#linear-gradient"/><linearGradient id="linear-gradient-15" x1="260.29" y1="385.93" x2="260.29" y2="385.93" gradientTransform="matrix(1, 0, 0, 1, 0, 0)" xlink:href="#linear-gradient"/><linearGradient id="linear-gradient-16" x1="264.83" y1="382.75" x2="273.91" y2="375.95" gradientTransform="translate(39.7 -34.02) rotate(6.79)" xlink:href="#linear-gradient"/><linearGradient id="linear-gradient-17" x1="268.26" y1="382.1" x2="268.3" y2="382.07" gradientTransform="translate(39.7 -34.02) rotate(6.79)" xlink:href="#linear-gradient"/><linearGradient id="linear-gradient-18" x1="267.48" y1="381.21" x2="267.5" y2="381.2" gradientTransform="translate(39.7 -34.02) rotate(6.79)" xlink:href="#linear-gradient"/><linearGradient id="linear-gradient-19" x1="268.91" y1="374.92" x2="277.73" y2="367.63" gradientTransform="translate(55.7 -46.81) rotate(9.57)" xlink:href="#linear-gradient"/><linearGradient id="linear-gradient-20" x1="271.99" y1="373.82" x2="272.02" y2="373.8" gradientTransform="translate(55.7 -46.81) rotate(9.57)" xlink:href="#linear-gradient"/><linearGradient id="linear-gradient-21" x1="271.26" y1="372.89" x2="271.29" y2="372.87" gradientTransform="translate(55.7 -46.81) rotate(9.57)" xlink:href="#linear-gradient"/><linearGradient id="linear-gradient-22" x1="274.72" y1="367.05" x2="283.19" y2="359.29" gradientTransform="translate(72.28 -60.03) rotate(12.53)" xlink:href="#linear-gradient"/><linearGradient id="linear-gradient-23" x1="277.6" y1="365.67" x2="277.62" y2="365.65" gradientTransform="translate(72.28 -60.03) rotate(12.53)" xlink:href="#linear-gradient"/><linearGradient id="linear-gradient-24" x1="276.87" y1="364.73" x2="276.9" y2="364.71" gradientTransform="translate(72.28 -60.03) rotate(12.53)" xlink:href="#linear-gradient"/><linearGradient id="linear-gradient-25" x1="304.71" y1="365.78" x2="312.45" y2="357.26" gradientTransform="matrix(0.95, 0.3, -0.3, 0.95, 85.4, -92.62)" xlink:href="#linear-gradient"/><linearGradient id="linear-gradient-26" x1="307.23" y1="363.97" x2="307.25" y2="363.95" gradientTransform="matrix(0.95, 0.3, -0.3, 0.95, 85.4, -92.62)" xlink:href="#linear-gradient"/><linearGradient id="linear-gradient-27" x1="306.5" y1="363.05" x2="306.53" y2="363.01" gradientTransform="matrix(0.95, 0.3, -0.3, 0.95, 85.4, -92.62)" xlink:href="#linear-gradient"/><linearGradient id="linear-gradient-28" x1="298.53" y1="354.27" x2="306.57" y2="346.06" gradientTransform="matrix(0.96, 0.27, -0.27, 0.96, 75.34, -82.03)" xlink:href="#linear-gradient"/><linearGradient id="linear-gradient-29" x1="301.19" y1="352.62" x2="301.21" y2="352.61" gradientTransform="matrix(0.96, 0.27, -0.27, 0.96, 75.34, -82.03)" xlink:href="#linear-gradient"/><linearGradient id="linear-gradient-30" x1="300.46" y1="351.7" x2="300.49" y2="351.67" gradientTransform="matrix(0.96, 0.27, -0.27, 0.96, 75.34, -82.03)" xlink:href="#linear-gradient"/><linearGradient id="linear-gradient-31" x1="294.75" y1="343.96" x2="302.08" y2="335.05" gradientTransform="translate(116.59 -94.79) rotate(20.54)" xlink:href="#linear-gradient"/><linearGradient id="linear-gradient-32" x1="297.08" y1="341.95" x2="297.09" y2="341.93" gradientTransform="translate(116.59 -94.79) rotate(20.54)" xlink:href="#linear-gradient"/><linearGradient id="linear-gradient-33" x1="296.34" y1="341.03" x2="296.38" y2="340.98" gradientTransform="translate(116.59 -94.79) rotate(20.54)" xlink:href="#linear-gradient"/><linearGradient id="linear-gradient-34" x1="275.94" y1="322.26" x2="285.85" y2="316.54" gradientTransform="matrix(1, 0, 0, 1, 0, 0)" xlink:href="#linear-gradient"/><linearGradient id="linear-gradient-35" x1="279.16" y1="321.7" x2="279.19" y2="321.68" gradientTransform="matrix(1, 0, 0, 1, 0, 0)" xlink:href="#linear-gradient"/><linearGradient id="linear-gradient-36" x1="278.6" y1="320.65" x2="278.63" y2="320.64" gradientTransform="matrix(1, 0, 0, 1, 0, 0)" xlink:href="#linear-gradient"/><linearGradient id="linear-gradient-37" x1="295.83" y1="323.72" x2="303.95" y2="315.58" gradientTransform="translate(78.52 -76.26) rotate(15.09)" xlink:href="#linear-gradient"/><linearGradient id="linear-gradient-38" x1="298.54" y1="322.11" x2="298.55" y2="322.09" gradientTransform="translate(78.52 -76.26) rotate(15.09)" xlink:href="#linear-gradient"/><linearGradient id="linear-gradient-39" x1="297.8" y1="321.18" x2="297.83" y2="321.15" gradientTransform="translate(78.52 -76.26) rotate(15.09)" xlink:href="#linear-gradient"/><linearGradient id="linear-gradient-40" x1="306.96" y1="317.93" x2="314.03" y2="308.85" gradientTransform="translate(118.06 -105.71) rotate(22.06)" xlink:href="#linear-gradient"/><linearGradient id="linear-gradient-41" x1="309.33" y1="315.92" x2="309.34" y2="315.91" gradientTransform="translate(118.06 -105.71) rotate(22.06)" xlink:href="#linear-gradient"/><linearGradient id="linear-gradient-42" x1="308.53" y1="315.06" x2="308.56" y2="315.02" gradientTransform="translate(118.06 -105.71) rotate(22.06)" xlink:href="#linear-gradient"/><linearGradient id="linear-gradient-43" x1="305.06" y1="306.85" x2="312.8" y2="298.33" gradientTransform="matrix(0.95, 0.31, -0.31, 0.95, 89.51, -90.43)" xlink:href="#linear-gradient"/><linearGradient id="linear-gradient-44" x1="307.59" y1="305.04" x2="307.6" y2="305.02" gradientTransform="matrix(0.95, 0.31, -0.31, 0.95, 89.51, -90.43)" xlink:href="#linear-gradient"/><linearGradient id="linear-gradient-45" x1="306.85" y1="304.11" x2="306.88" y2="304.08" gradientTransform="matrix(0.95, 0.31, -0.31, 0.95, 89.51, -90.43)" xlink:href="#linear-gradient"/><linearGradient id="linear-gradient-46" x1="306.74" y1="296.05" x2="314.66" y2="287.71" gradientTransform="translate(79.61 -85.79) rotate(16.46)" xlink:href="#linear-gradient"/><linearGradient id="linear-gradient-47" x1="309.35" y1="294.34" x2="309.37" y2="294.32" gradientTransform="translate(79.61 -85.79) rotate(16.46)" xlink:href="#linear-gradient"/><linearGradient id="linear-gradient-48" x1="308.62" y1="293.41" x2="308.65" y2="293.38" gradientTransform="translate(79.61 -85.79) rotate(16.46)" xlink:href="#linear-gradient"/><linearGradient id="linear-gradient-49" x1="310.36" y1="288.1" x2="318.1" y2="279.58" gradientTransform="matrix(0.95, 0.3, -0.3, 0.95, 85.4, -92.62)" xlink:href="#linear-gradient"/><linearGradient id="linear-gradient-50" x1="312.88" y1="286.29" x2="312.9" y2="286.27" gradientTransform="matrix(0.95, 0.3, -0.3, 0.95, 85.4, -92.62)" xlink:href="#linear-gradient"/><linearGradient id="linear-gradient-51" x1="312.15" y1="285.36" x2="312.18" y2="285.33" gradientTransform="matrix(0.95, 0.3, -0.3, 0.95, 85.4, -92.62)" xlink:href="#linear-gradient"/><linearGradient id="linear-gradient-52" x1="307.84" y1="275.88" x2="316.38" y2="268.21" gradientTransform="translate(52.46 -65.85) rotate(11.92)" xlink:href="#linear-gradient"/><linearGradient id="linear-gradient-53" x1="310.76" y1="274.54" x2="310.78" y2="274.52" gradientTransform="translate(52.46 -65.85) rotate(11.92)" xlink:href="#linear-gradient"/><linearGradient id="linear-gradient-54" x1="310.03" y1="273.61" x2="310.06" y2="273.59" gradientTransform="translate(52.46 -65.85) rotate(11.92)" xlink:href="#linear-gradient"/><linearGradient id="linear-gradient-55" x1="298.88" y1="258.69" x2="308.67" y2="253.04" gradientTransform="matrix(1, 0, 0, 1, 0, 0)" xlink:href="#linear-gradient"/><linearGradient id="linear-gradient-56" x1="302.48" y1="258.57" x2="302.52" y2="258.54" gradientTransform="matrix(1, 0, 0, 1, 0, 0)" xlink:href="#linear-gradient"/><linearGradient id="linear-gradient-57" x1="301.77" y1="257.62" x2="301.77" y2="257.62" gradientTransform="matrix(1, 0, 0, 1, 0, 0)" xlink:href="#linear-gradient"/><linearGradient id="linear-gradient-58" x1="301.4" y1="247.49" x2="313.95" y2="239.24" gradientTransform="translate(11.78 -19.88) rotate(3.33)" xlink:href="#linear-gradient"/><linearGradient id="linear-gradient-59" x1="307.27" y1="250.7" x2="307.3" y2="250.67" gradientTransform="translate(11.78 -19.88) rotate(3.33)" xlink:href="#linear-gradient"/><linearGradient id="linear-gradient-60" x1="306.55" y1="249.76" x2="306.56" y2="249.75" gradientTransform="translate(11.78 -19.88) rotate(3.33)" xlink:href="#linear-gradient"/><linearGradient id="linear-gradient-61" x1="270.5" y1="373.64" x2="287.12" y2="369.67" gradientTransform="translate(-80.14 110.95) rotate(-16.55)" xlink:href="#linear-gradient"/></defs><g id="_9_monocle" data-name="9_monocle"><path class="cls-1" d="M310.47,221.32a14.67,14.67,0,0,1-1.94-2.31c-1.63-2.75-.81-6.45-.72-9.47a33,33,0,0,0-1.62-11.25,33.5,33.5,0,0,0-3-6.62,37.16,37.16,0,0,0-18.51-15.58c-10.8-4.15-20.33-5.77-31.63-2.58-9.46,2.66-18.35,8.17-23.76,16.53-7.38,11.39-6.81,26.63-.23,38.08a35.89,35.89,0,0,0,16.28,14.43A57.86,57.86,0,0,0,271,247.72a44.44,44.44,0,0,0,12.94-2.23c4.3-1.46,7.37-4.16,11.24-6.26a20.65,20.65,0,0,1,4.59-1.83,69.22,69.22,0,0,1,7.31-1.22,14.1,14.1,0,0,0,5.25-1.66C317.8,231.14,313.69,224.78,310.47,221.32Zm-24.68,19.43c-9.53,6-24.7,4.68-34.74.7-9.59-3.81-17.27-10-21-19.85a33.38,33.38,0,0,1-1.66-19.08,31.74,31.74,0,0,1,15.75-21c8.06-4.37,17.07-7.47,26.27-5.5A73.58,73.58,0,0,1,283,179.43c8.11,3.35,15.1,9.57,18.59,17.71a25.74,25.74,0,0,1,1.89,6.73C305.26,217.54,298.57,232.67,285.79,240.75Zm24.65-10.58a3.75,3.75,0,0,1-1.49,1.44,4.22,4.22,0,0,1-2.15.49,5.14,5.14,0,0,1-2-.57,3.73,3.73,0,0,1-.37-.23h0a2.8,2.8,0,0,1-1.51-1.16,4.33,4.33,0,0,1-.54-2.08,3.78,3.78,0,0,1,.55-1.91,4.4,4.4,0,0,1,1.39-1.36,5.48,5.48,0,0,1,.93-.41,1.89,1.89,0,0,1,.36-.11,4.79,4.79,0,0,1,1.36-.12,5.83,5.83,0,0,1,1,.16,5,5,0,0,1,.9.36,4.31,4.31,0,0,1,.8.58,1.31,1.31,0,0,1,.24.23,3.53,3.53,0,0,1,.63.91,5.13,5.13,0,0,1,.33.83,4.68,4.68,0,0,1,.13.88A3.61,3.61,0,0,1,310.44,230.17Z"/><path d="M309.45,220.3a14.62,14.62,0,0,1-1.93-2.3c-1.63-2.75-.81-6.45-.72-9.47a33,33,0,0,0-1.62-11.25,33.5,33.5,0,0,0-3-6.62,37.16,37.16,0,0,0-18.51-15.58c-10.8-4.15-20.33-5.77-31.63-2.58-9.46,2.66-18.35,8.17-23.76,16.53-7.38,11.39-6.81,26.63-.24,38.08a35.92,35.92,0,0,0,16.28,14.42A57.78,57.78,0,0,0,270,246.71a44.44,44.44,0,0,0,12.94-2.23c4.3-1.46,7.37-4.16,11.24-6.26a20.65,20.65,0,0,1,4.59-1.83,69.25,69.25,0,0,1,7.31-1.23,13.91,13.91,0,0,0,5.25-1.65C316.78,230.13,312.68,223.77,309.45,220.3Zm-24.67,19.44c-9.53,6-24.7,4.68-34.74.7-9.59-3.81-17.27-10-21-19.85a33.3,33.3,0,0,1-1.66-19.08,31.74,31.74,0,0,1,15.75-21c8.06-4.37,17.07-7.47,26.27-5.5A73.22,73.22,0,0,1,282,178.42c8.12,3.35,15.11,9.57,18.59,17.71a25.77,25.77,0,0,1,1.9,6.73C304.25,216.53,297.56,231.66,284.78,239.74Zm24.65-10.58a3.75,3.75,0,0,1-1.49,1.44,4.22,4.22,0,0,1-2.15.49,5.14,5.14,0,0,1-2-.57,2.85,2.85,0,0,1-.37-.23h0a2.8,2.8,0,0,1-1.51-1.16,4.33,4.33,0,0,1-.54-2.08,3.78,3.78,0,0,1,.55-1.91,4.4,4.4,0,0,1,1.39-1.36,4.79,4.79,0,0,1,.93-.41,2,2,0,0,1,.35-.11,4.86,4.86,0,0,1,1.37-.12,7,7,0,0,1,1,.15,5.87,5.87,0,0,1,.9.37,4.31,4.31,0,0,1,.8.58,1.73,1.73,0,0,1,.24.23,3.53,3.53,0,0,1,.63.91,5.4,5.4,0,0,1,.33.82,6,6,0,0,1,.13.89A3.61,3.61,0,0,1,309.43,229.16Z"/><path class="cls-2" d="M302.46,202.86a25.77,25.77,0,0,0-1.9-6.73c-3.48-8.14-10.47-14.36-18.59-17.71A73.22,73.22,0,0,0,269.39,175c-9.2-2-18.21,1.13-26.27,5.5a31.74,31.74,0,0,0-15.75,21A33.3,33.3,0,0,0,229,220.59c3.74,9.87,11.42,16,21,19.85,10,4,25.21,5.32,34.74-.7C297.56,231.66,304.25,216.53,302.46,202.86Z"/><g class="cls-3"><path class="cls-4" d="M243.73,185.36a53.06,53.06,0,0,0-11.93,16.75c-.4.89.43,1.95,1.36,2.19a2,2,0,0,0,2.4-1.25,48.52,48.52,0,0,1,10.93-15.18C248.23,186.22,245.48,183.7,243.73,185.36Z"/><path class="cls-4" d="M248.47,188.7a131.91,131.91,0,0,0-15.93,25.12,1.76,1.76,0,0,0,.7,2.44,2.07,2.07,0,0,0,2.67-.64,131.6,131.6,0,0,1,15.93-25.12C253.33,188.65,250,186.87,248.47,188.7Z"/></g><path class="cls-5" d="M283.82,395.93c.05,1.08.19,3,.22,3l.31,0a2.62,2.62,0,0,0,.33.09l.15.06.1.05c.14.09.29.18.42.28l.29.29.17.2,0,.06.22.39.09.21a.45.45,0,0,0,0,.11c0,.18.08.34.11.52v.07l.39,0c1.31-.12,2.5.37,3.79,0a7.2,7.2,0,0,0,3-1.8,5.72,5.72,0,0,0,1.69-5.41,5.51,5.51,0,0,0-3.66-3.67,5.71,5.71,0,0,0-5.27,1,6.36,6.36,0,0,0-2.41,3.85C283.81,395.38,283.81,395.62,283.82,395.93Zm4.26-2.11.15-.11a3.7,3.7,0,0,1,.43-.25l.21-.1h0c.13,0,.26-.08.4-.1l.13,0h.47l.21,0h0c.14,0,.73.11.8.24s-.34-.17-.08,0l.19.1a4,4,0,0,1,.44.27l0,0,0,0c.09.1.19.19.28.3a.69.69,0,0,1,.11.13c.07.11.19.35.21.38l0,0,0,.08.06.28c0-.05,0,0,0,.1h0v.23c0,.07,0,.15,0,.23v.07c0,.16-.08.31-.13.45a.19.19,0,0,1,0,.08.76.76,0,0,1,0,.11h0v0a4.79,4.79,0,0,1-.25.45l-.14.2c-.07.09-.07.12-.06.12s-.3.27-.35.31a1.29,1.29,0,0,1-.17.16l-.17.12a9.18,9.18,0,0,1-1,.52l-.05,0h0l-.32.1q-.33.09-.66.15c-.12,0-.25,0-.37.06a5.86,5.86,0,0,0-1.85-1.89v-.09c0-.1,0-.2,0-.29a6.24,6.24,0,0,1,.26-.94s.05-.11.07-.17l0-.06c.07-.14.15-.28.23-.41s.18-.25.27-.39h0l.19-.2C287.85,394,288,393.92,288.08,393.82Z"/><path class="cls-6" d="M292.28,395.19h0a.36.36,0,0,1,0-.11A.89.89,0,0,0,292.28,395.19Z"/><path class="cls-7" d="M292.06,396.37h0l.05-.12S292.1,396.24,292.06,396.37Z"/><path class="cls-8" d="M278.25,396.35c-.88.62-2.43,1.81-2.41,1.83s.11.17.15.26.09.3.1.34a.66.66,0,0,1,0,.15.66.66,0,0,0,0,.11c0,.17,0,.34,0,.51s-.08.36-.09.4a1.83,1.83,0,0,1-.08.25l0,.07c-.07.13-.13.26-.21.39a1.27,1.27,0,0,1-.13.19l-.07.09a3.32,3.32,0,0,1-.38.37l-.06,0,.18.35c.82,1,1.06,2.29,2.07,3.17a7.27,7.27,0,0,0,3.14,1.53,5.73,5.73,0,0,0,5.46-1.55,5.52,5.52,0,0,0,1.08-5.07,5.71,5.71,0,0,0-3.7-3.88,6.4,6.4,0,0,0-4.54.09A4.77,4.77,0,0,0,278.25,396.35Zm4.09,2.41.18.06c.15.07.3.14.44.22l.2.13h0l.31.28a1.11,1.11,0,0,0,.1.09l0,0c.08.12.16.23.23.35a1.62,1.62,0,0,0,.1.18v0h0c.05.14.31.67.24.8s0-.37,0-.08a1.49,1.49,0,0,1,0,.21,3,3,0,0,1,0,.52v.11c0,.13-.05.26-.09.39a1.09,1.09,0,0,1-.05.17l-.21.38v0l-.06.06a2,2,0,0,1-.2.21s0,0-.07.07h0l0,0,0,0-.19.12-.2.11,0,0h0l-.44.14-.09,0-.1,0h0l-.51,0h-.38c-.15,0-.39-.1-.45-.11l-.23-.06-.19-.08a7.7,7.7,0,0,1-1-.54l0,0h0a2.75,2.75,0,0,0-.26-.22c-.17-.15-.33-.3-.49-.47a3.33,3.33,0,0,1-.25-.28,5.76,5.76,0,0,0,.58-2.58l.08-.05.25-.13a6.29,6.29,0,0,1,.93-.3l.18,0h.07l.47,0h.47l.28,0Z"/><path class="cls-9" d="M283.49,403h0l.08-.07Z"/><path class="cls-10" d="M282.38,403.49h0l.12,0Z"/><path class="cls-11" d="M272,393.93c-1.07.15-3,.51-3,.54s0,.21,0,.3-.05.31-.06.35a.83.83,0,0,1,0,.15.36.36,0,0,1,0,.11c-.07.15-.15.3-.23.45l-.26.32-.18.19-.06,0c-.12.09-.23.18-.36.26l-.2.11-.1.05a5,5,0,0,1-.51.16h-.07v.39c.27,1.3-.09,2.53.42,3.77a7.17,7.17,0,0,0,2.11,2.77A5.7,5.7,0,0,0,275,405a5.49,5.49,0,0,0,3.26-4,5.69,5.69,0,0,0-1.54-5.13,6.36,6.36,0,0,0-4.09-2A5.61,5.61,0,0,0,272,393.93Zm2.56,4,.13.13c.1.13.21.26.3.4l.12.2v0l.15.39s0,.07,0,.12a.18.18,0,0,0,0,.06c0,.13,0,.27,0,.41s0,.14,0,.21v0h0c0,.14,0,.74-.15.82s.13-.35,0-.08l-.08.2a3.88,3.88,0,0,1-.22.46l0,.06,0,0c-.09.11-.17.22-.26.32l-.12.12-.36.25,0,0-.08,0-.27.09s0,0-.1,0h0l-.22,0h-.31a4,4,0,0,1-.46-.08l-.08,0-.11,0h0a3.9,3.9,0,0,1-.47-.2l-.21-.11-.13-.06a3.35,3.35,0,0,1-.35-.3l-.18-.16-.13-.15a8.43,8.43,0,0,1-.63-.93l0,0v0c0-.1-.09-.2-.13-.31s-.16-.42-.23-.63-.06-.25-.1-.37a5.65,5.65,0,0,0,1.69-2h.38a6.38,6.38,0,0,1,1,.15l.18.06.06,0c.15.05.29.12.43.18l.41.22h0l.23.17A3.27,3.27,0,0,1,274.53,397.93Z"/><path class="cls-12" d="M273.62,402.25h0l.1,0Z"/><path class="cls-13" d="M272.43,402.16h0l.12,0Z"/><path class="cls-14" d="M268,387.45c-1.07-.15-3-.35-3-.33s0,.2-.07.3-.13.27-.15.31l-.08.13-.07.1c-.12.12-.23.25-.35.36l-.34.24-.23.13-.07,0-.42.14a1.8,1.8,0,0,1-.22.06h-.12l-.52,0-.07,0-.12.38c-.11,1.31-.8,2.39-.67,3.73a7.29,7.29,0,0,0,1.23,3.26,5.72,5.72,0,0,0,5,2.63A5.51,5.51,0,0,0,272,396a5.69,5.69,0,0,0,0-5.35,6.38,6.38,0,0,0-3.36-3.07A4.81,4.81,0,0,0,268,387.45ZM269.3,392l.09.17c.06.16.12.31.17.47l.06.23h0c0,.14,0,.28,0,.42s0,.08,0,.13a.18.18,0,0,1,0,.06c0,.13,0,.27-.07.4a1.6,1.6,0,0,0-.05.21v0h0c-.06.14-.24.71-.38.75s.22-.3,0-.07l-.13.17a4.14,4.14,0,0,1-.35.38l0,0,0,0-.34.22-.15.09-.41.13,0,0h-.38c.06,0,0,0-.1,0h0l-.22,0-.22-.05h-.05l0,0a4,4,0,0,1-.42-.2l-.07,0-.1-.05h0l0,0h0a3.09,3.09,0,0,1-.39-.33,1.29,1.29,0,0,1-.17-.16c-.08-.09-.11-.1-.11-.09a3.3,3.3,0,0,1-.25-.39l-.12-.21-.09-.18a10,10,0,0,1-.33-1.06l0-.06v0c0-.11,0-.22,0-.34s0-.45,0-.67,0-.26,0-.38a5.71,5.71,0,0,0,2.2-1.48l.09,0,.28.08a8.72,8.72,0,0,1,.87.42l.16.1.05,0,.36.3c.12.11.22.23.34.33h0c.05.08.11.15.16.22A4.25,4.25,0,0,1,269.3,392Z"/><path class="cls-15" d="M267.2,395.9Z"/><path class="cls-16" d="M266.08,395.47h0l.11.06Z"/><path class="cls-17" d="M266.21,380.16c-.81-.71-2.33-1.93-2.35-1.91l-.22.21-.3.18a.61.61,0,0,1-.14.07l-.11,0-.49.12c-.06,0-.37,0-.41,0l-.27,0h-.06a3,3,0,0,1-.43-.11l-.22-.07-.11-.05-.45-.28,0,0-.3.26c-.8,1-2,1.57-2.58,2.77a7.27,7.27,0,0,0-.74,3.4,5.73,5.73,0,0,0,2.8,4.94,5.53,5.53,0,0,0,5.18-.16,5.67,5.67,0,0,0,2.89-4.51,6.29,6.29,0,0,0-1.16-4.39A5.05,5.05,0,0,0,266.21,380.16Zm-1.37,4.54c0,.07,0,.13,0,.19s-.07.33-.12.49,0,.14-.07.22v0a3.24,3.24,0,0,1-.2.36.45.45,0,0,1-.06.12l0,0a4,4,0,0,1-.28.3l-.15.14,0,0h0c-.12.08-.57.46-.72.42,0,0,.35-.13.07,0l-.19.07-.5.13h-.69l-.42-.11h0l-.07,0-.24-.15s0,0-.09-.05h0l-.16-.15a1.29,1.29,0,0,1-.16-.17l0,0v0c-.09-.13-.17-.26-.25-.39l0-.08a.44.44,0,0,1-.06-.1h0v0h0a4.42,4.42,0,0,1-.15-.48l-.06-.23c0-.12,0-.14,0-.14a3.15,3.15,0,0,1,0-.46v-.24s0-.14,0-.2a10.12,10.12,0,0,1,.29-1.08l0,0v0l.15-.3c.1-.2.22-.4.34-.59s.14-.21.21-.32a5.61,5.61,0,0,0,2.64-.05l.07.07c.07.07.12.15.19.22a6.25,6.25,0,0,1,.51.82s0,.11.07.17l0,.07c.05.14.1.29.14.44s.06.31.1.46h0a2.64,2.64,0,0,1,0,.28A3.53,3.53,0,0,1,264.84,384.7Z"/><path class="cls-18" d="M261,386.83h0l.1.06Z"/><path class="cls-19" d="M260.26,385.86h0l.06.11S260.33,386,260.26,385.86Z"/><path class="cls-20" d="M266.4,370.67c-.78-.75-2.24-2-2.26-2l-.23.2s-.27.15-.31.17l-.14.06-.11,0c-.17,0-.33.07-.5.09h-.41l-.26,0-.07,0-.43-.13-.21-.08-.1-.06-.44-.29s0,0-.05-.06l-.31.25c-.85,1-2,1.48-2.71,2.64a7.12,7.12,0,0,0-.89,3.37,5.7,5.7,0,0,0,2.56,5.06,5.49,5.49,0,0,0,5.18.08,5.67,5.67,0,0,0,3.1-4.37,6.33,6.33,0,0,0-1-4.44A5.55,5.55,0,0,0,266.4,370.67Zm-1.58,4.48,0,.18c0,.16-.08.33-.13.48l-.09.22v0c-.08.12-.14.24-.22.36l-.07.11,0,0-.3.29-.16.13v0h0c-.12.07-.6.43-.74.38,0,0,.36-.11.08,0l-.2.06a4.64,4.64,0,0,1-.51.11h-.52l-.17,0-.41-.13h0l-.07,0-.24-.16c.05,0,0,0-.08-.06h0l-.16-.16c-.05-.05-.09-.12-.15-.17l0,0v0c-.08-.14-.16-.27-.23-.41l0-.08a.23.23,0,0,1-.05-.1h0v0c0-.16-.09-.32-.12-.49s0-.16-.05-.24,0-.14,0-.13c0-.16,0-.41,0-.47s0-.15,0-.23,0-.14,0-.2a8.16,8.16,0,0,1,.34-1.06l0,0v0l.17-.3a5.5,5.5,0,0,1,.36-.57,3.55,3.55,0,0,1,.23-.31,5.75,5.75,0,0,0,2.64.08l.06.06c.07.08.12.16.19.23a7,7,0,0,1,.46.85s0,.11.07.18l0,.06a3.74,3.74,0,0,1,.12.45c0,.16.05.31.08.46h0a2.72,2.72,0,0,1,0,.28C264.84,374.84,264.83,375,264.82,375.15Z"/><path class="cls-21" d="M260.85,377.09h0l.09.07A.25.25,0,0,0,260.85,377.09Z"/><path class="cls-22" d="M260.18,376.09h0l.05.11Z"/><path class="cls-23" d="M268,361.27c-.68-.83-2-2.29-2-2.27l-.25.17a2.26,2.26,0,0,0-.33.13l-.14,0-.12,0-.51,0s-.36,0-.4-.06a2,2,0,0,1-.26-.06l-.07,0c-.13-.06-.27-.11-.4-.18l-.2-.11-.1-.07-.4-.34,0-.07-.34.21c-1,.9-2.2,1.23-3,2.3a7.33,7.33,0,0,0-1.29,3.24,5.73,5.73,0,0,0,1.94,5.33,5.49,5.49,0,0,0,5.14.7,5.65,5.65,0,0,0,3.59-4,6.34,6.34,0,0,0-.41-4.53C268.35,361.7,268.2,361.51,268,361.27Zm-2.11,4.26c0,.06,0,.12,0,.18s-.12.31-.19.46l-.11.2v0l-.26.33-.08.11,0,0-.33.25-.18.11,0,0h0c-.14.05-.65.36-.79.29,0,0,.37-.07.08,0l-.2,0a4.73,4.73,0,0,1-.52,0h-.11l-.4-.06-.17,0-.4-.18h0l-.06-.06a1.3,1.3,0,0,1-.22-.19s0,0-.08-.06h0l0,0,0,0c0-.06-.09-.11-.13-.18a2.14,2.14,0,0,1-.13-.19s0,0,0,0v0c-.06-.15-.13-.29-.18-.44a.31.31,0,0,0,0-.08.24.24,0,0,1,0-.1v0c0-.17-.05-.34-.07-.51s0-.16,0-.24,0-.14,0-.13a4.14,4.14,0,0,1,.08-.46c0-.08,0-.16,0-.23l.06-.2a9.26,9.26,0,0,1,.47-1l0-.05,0,0,.19-.27c.14-.18.28-.36.43-.53l.27-.27a5.7,5.7,0,0,0,2.61.39l.06.07.15.25a5.83,5.83,0,0,1,.36.9s0,.12,0,.18v.07a3.62,3.62,0,0,1,.06.46c0,.16,0,.31,0,.47h0l0,.28A4,4,0,0,1,265.89,365.53Z"/><path class="cls-24" d="M261.72,367h0l.09.07Z"/><path class="cls-25" d="M261.18,365.91h0a.56.56,0,0,1,0,.12S261.23,366,261.18,365.91Z"/><path class="cls-26" d="M270.5,351.71c-.64-.86-1.86-2.38-1.89-2.37a1.75,1.75,0,0,1-.25.16,3.19,3.19,0,0,0-.33.11l-.15,0h-.12a4.34,4.34,0,0,1-.51,0l-.4-.07-.26-.08-.06,0-.4-.2-.19-.12-.09-.08c-.13-.12-.26-.23-.38-.36l0-.06a3.9,3.9,0,0,0-.35.19c-1,.84-2.27,1.1-3.13,2.13a7.34,7.34,0,0,0-1.45,3.17,5.73,5.73,0,0,0,1.66,5.43,5.48,5.48,0,0,0,5.09,1,5.65,5.65,0,0,0,3.8-3.77,6.35,6.35,0,0,0-.18-4.54C270.82,352.16,270.68,352,270.5,351.71Zm-2.32,4.15-.06.18a4.66,4.66,0,0,1-.22.45c0,.06-.08.13-.11.2h0c-.1.11-.18.22-.28.32l-.09.1,0,0-.34.23-.19.11h0c-.14.05-.66.33-.8.25h.08l-.2,0a4.61,4.61,0,0,1-.52,0h-.11l-.4-.08-.16-.05a4.34,4.34,0,0,1-.39-.2h0l-.07-.06a1.89,1.89,0,0,1-.2-.2s0,0-.08-.07h0l0,0,0,0-.13-.19-.12-.2,0,0v0c0-.15-.11-.3-.15-.45s0-.05,0-.08a.62.62,0,0,1,0-.1v0a4.38,4.38,0,0,1,0-.51v-.24c0-.12,0-.14,0-.14,0-.15.1-.4.11-.45l.06-.23.07-.19a7.79,7.79,0,0,1,.52-1l0-.05,0,0,.21-.26c.15-.17.3-.34.46-.5l.27-.26a5.71,5.71,0,0,0,2.6.52.35.35,0,0,0,0,.08l.14.25a8.29,8.29,0,0,1,.31.92,1.64,1.64,0,0,0,0,.19v.06c0,.16,0,.31,0,.47s0,.31,0,.47h0a2.36,2.36,0,0,0,0,.28C268.25,355.56,268.22,355.71,268.18,355.86Z"/><path class="cls-27" d="M263.94,357.1h0l.08.07Z"/><path class="cls-28" d="M263.45,356h0l0,.12S263.49,356.13,263.45,356Z"/><path class="cls-29" d="M274.11,342.86c-.56-.92-1.64-2.55-1.66-2.53l-.28.13-.34.08-.15,0h-.11l-.51,0-.4-.11-.24-.1-.06,0c-.13-.08-.26-.15-.38-.24l-.18-.14-.09-.08a4.13,4.13,0,0,1-.34-.39l0-.07-.36.16c-1.09.74-2.36.89-3.31,1.84a7.3,7.3,0,0,0-1.73,3,5.69,5.69,0,0,0,1.16,5.55,5.48,5.48,0,0,0,5,1.42,5.64,5.64,0,0,0,4.12-3.41,6.25,6.25,0,0,0,.23-4.54A4.09,4.09,0,0,0,274.11,342.86Zm-2.69,3.91c0,.06-.05.12-.07.17s-.17.3-.26.43l-.14.19v0l-.3.29-.1.09,0,0c-.12.07-.24.14-.37.2a1.11,1.11,0,0,1-.19.09h0c-.14,0-.69.27-.82.18s.38,0,.08,0H269l-.51,0h-.07l0,0-.39-.11-.16-.07-.37-.23,0,0-.06-.06a2,2,0,0,1-.19-.22c0,.05,0,0-.06-.07h0l0,0,0,0-.11-.2a1.86,1.86,0,0,0-.1-.2s0,0,0,0v0c0-.15-.08-.29-.11-.45s0-.05,0-.08a.36.36,0,0,1,0-.11h0v0a4.34,4.34,0,0,1,0-.51c0-.08,0-.16,0-.24s0-.14,0-.14.13-.38.15-.44a2,2,0,0,1,.08-.22,1.5,1.5,0,0,1,.09-.18,8.32,8.32,0,0,1,.6-.94l0-.05h0l.23-.25c.16-.16.33-.31.5-.45s.2-.16.3-.24a5.73,5.73,0,0,0,2.54.76s0,.05,0,.08.07.18.12.27a7.58,7.58,0,0,1,.23.94s0,.12,0,.19v.06c0,.16,0,.31,0,.47s0,.31,0,.47h0a2.68,2.68,0,0,0-.07.27C271.52,346.48,271.47,346.63,271.42,346.77Z"/><path class="cls-30" d="M267.08,347.62h0l.07.08Z"/><path class="cls-31" d="M266.7,346.48h0s0,.08,0,.12S266.73,346.62,266.7,346.48Z"/><path class="cls-32" d="M277.42,333.54c-.59-.9-1.73-2.48-1.75-2.47l-.27.14a2.07,2.07,0,0,0-.33.1l-.16,0h-.11a4.35,4.35,0,0,1-.51,0l-.4-.09-.25-.09-.06,0-.39-.22-.19-.13-.08-.08a4.38,4.38,0,0,1-.36-.39l0-.06-.36.17c-1.05.79-2.32,1-3.23,2a7.25,7.25,0,0,0-1.62,3.09,5.71,5.71,0,0,0,1.36,5.5,5.53,5.53,0,0,0,5,1.24,5.69,5.69,0,0,0,4-3.57,6.35,6.35,0,0,0,.06-4.54A6.18,6.18,0,0,0,277.42,333.54Zm-2.54,4-.06.17c-.08.15-.16.3-.25.44l-.12.2h0c-.1.1-.19.21-.3.3l-.09.1,0,0-.36.22-.19.09,0,0h0c-.14,0-.68.29-.81.21s.37,0,.08,0l-.21,0a4.56,4.56,0,0,1-.52,0h-.06l0,0-.4-.1-.16-.05-.38-.23h0l-.06-.06a1.9,1.9,0,0,1-.19-.21s0,0-.08-.07h0l0,0,0,0-.12-.19-.11-.21,0,0v0c-.05-.15-.09-.29-.13-.45s0-.05,0-.08a.81.81,0,0,1,0-.11h0v0a4.34,4.34,0,0,1,0-.51c0-.08,0-.15,0-.23s0-.15,0-.14c0-.16.12-.39.13-.45l.08-.23.08-.18a7.82,7.82,0,0,1,.57-1l0-.05h0c.08-.08.15-.17.23-.26s.31-.32.48-.47a3.47,3.47,0,0,1,.29-.25,5.74,5.74,0,0,0,2.56.67.56.56,0,0,1,0,.08l.12.26a5.84,5.84,0,0,1,.27.93l0,.18v.07c0,.16,0,.31,0,.47l0,.47h0c0,.09,0,.18-.05.27S274.93,337.4,274.88,337.55Z"/><path class="cls-33" d="M270.58,338.56h0l.08.08A.57.57,0,0,1,270.58,338.56Z"/><path class="cls-34" d="M270.15,337.43h0l0,.12S270.19,337.57,270.15,337.43Z"/><path class="cls-35" d="M282,325.2c-.52-.95-1.51-2.62-1.54-2.61a2.36,2.36,0,0,1-.28.12l-.34.06-.15,0h-.12l-.51-.07-.38-.13-.25-.1-.05,0-.37-.25-.18-.15s0,0-.08-.08-.22-.27-.32-.42l0-.07-.37.14c-1.12.7-2.4.78-3.4,1.68a7.38,7.38,0,0,0-1.88,2.94,5.74,5.74,0,0,0,.89,5.6,5.48,5.48,0,0,0,4.91,1.67,5.65,5.65,0,0,0,4.28-3.21,6.33,6.33,0,0,0,.46-4.52ZM279.13,329a.89.89,0,0,0-.08.17c-.09.14-.18.28-.28.41s-.1.12-.15.18v0a4,4,0,0,1-.31.27l-.1.09-.05,0-.37.19-.2.07,0,0h0c-.15,0-.71.22-.83.13h-.13l-.51-.06H276l-.38-.14-.16-.07-.35-.25,0,0-.06-.06-.18-.23c0,.05,0,0-.06-.08h0l0,0,0,0a1.24,1.24,0,0,1-.1-.2,1.89,1.89,0,0,1-.09-.21l0,0v0a3.73,3.73,0,0,1-.09-.46s0-.06,0-.09a.28.28,0,0,1,0-.1v0a4.36,4.36,0,0,1,0-.51l0-.24c0-.12,0-.14,0-.14a4.24,4.24,0,0,1,.16-.43l.09-.22.1-.18a8.35,8.35,0,0,1,.65-.91l0,0h0l.25-.24.52-.43.31-.22a5.73,5.73,0,0,0,2.49.88.36.36,0,0,1,0,.09c0,.08.07.18.11.27a5.91,5.91,0,0,1,.18.95s0,.12,0,.19v.06c0,.16,0,.32,0,.47s-.05.31-.07.46v0c0,.09-.05.18-.08.26S279.19,328.84,279.13,329Z"/><path class="cls-36" d="M274.76,329.61h0l.06.09Z"/><path class="cls-37" d="M274.43,328.46h0s0,.08,0,.12S274.45,328.59,274.43,328.46Z"/><path class="cls-38" d="M285.4,315.93c-.68-.83-2-2.28-2-2.27l-.25.17-.33.13-.14.05-.12,0-.51,0-.4-.05-.26-.06-.07,0-.4-.18-.2-.11-.1-.07c-.13-.12-.27-.22-.4-.35l0-.06-.34.21c-1,.89-2.2,1.23-3,2.3a7.32,7.32,0,0,0-1.28,3.24,5.73,5.73,0,0,0,1.94,5.33,5.52,5.52,0,0,0,5.14.7,5.69,5.69,0,0,0,3.59-4,6.35,6.35,0,0,0-.42-4.53C285.75,316.36,285.6,316.17,285.4,315.93Zm-2.1,4.26c0,.06,0,.12,0,.18s-.12.31-.2.46l-.1.21h0c-.09.11-.17.23-.26.33l-.08.11,0,0-.34.25-.17.12h0c-.14.06-.65.36-.79.29s.37-.06.08,0l-.2,0a4.57,4.57,0,0,1-.52.05h-.11c-.13,0-.27,0-.4-.06l-.17,0-.4-.17,0,0-.06,0-.22-.19s0,0-.08-.06h0l0,0,0,0-.13-.18a2.14,2.14,0,0,1-.13-.19l0,0v0c-.06-.14-.13-.28-.18-.43s0,0,0-.08a.51.51,0,0,1,0-.1v0c0-.17,0-.34-.07-.51s0-.16,0-.24,0-.14,0-.13a3.74,3.74,0,0,1,.08-.46,1.55,1.55,0,0,1,.05-.23,1.36,1.36,0,0,1,.06-.2,7.64,7.64,0,0,1,.46-1l0-.05v0l.2-.27a5.52,5.52,0,0,1,.43-.53l.26-.27a5.85,5.85,0,0,0,2.62.38.35.35,0,0,0,.05.08l.15.24a7.74,7.74,0,0,1,.37.9s0,.12,0,.18l0,.07c0,.15.05.31.06.47s0,.31,0,.46h0l0,.28A3.4,3.4,0,0,1,283.3,320.19Z"/><path class="cls-39" d="M279.13,321.65h0l.09.07Z"/><path class="cls-40" d="M278.59,320.58h0a.56.56,0,0,1,0,.12S278.64,320.71,278.59,320.58Z"/><path class="cls-41" d="M289.67,307.34c-.6-.89-1.75-2.47-1.77-2.45l-.27.14-.33.1-.15,0h-.63l-.4-.1-.25-.08-.06,0-.39-.22-.19-.13-.09-.07c-.12-.13-.25-.25-.36-.39l0-.06-.35.17c-1.05.8-2.32,1-3.22,2a7.18,7.18,0,0,0-1.59,3.1,5.7,5.7,0,0,0,1.41,5.49,5.53,5.53,0,0,0,5,1.2,5.72,5.72,0,0,0,4-3.6,6.37,6.37,0,0,0,0-4.55A5,5,0,0,0,289.67,307.34Zm-2.5,4a1.34,1.34,0,0,1-.07.18,3.68,3.68,0,0,1-.23.44l-.13.2h0l-.29.31-.09.09-.05,0-.35.22-.19.09,0,0h0c-.14,0-.68.29-.81.21s.38,0,.08,0l-.21,0h-.62l-.4-.1-.16-.06-.38-.21,0,0s-.06,0-.06-.06a2,2,0,0,1-.2-.21c0,.05,0,0-.07-.07h0l0,0,0,0a1.22,1.22,0,0,1-.12-.19c0-.06-.07-.13-.11-.2l0,0v0c0-.15-.09-.3-.13-.45a.31.31,0,0,0,0-.08s0-.07,0-.11h0v0c0-.17,0-.34,0-.51a1.93,1.93,0,0,1,0-.24c0-.11,0-.14,0-.13a3.39,3.39,0,0,1,.13-.45,2,2,0,0,1,.07-.23,2.05,2.05,0,0,1,.08-.19,9.23,9.23,0,0,1,.56-1l0,0,0,0,.22-.26.47-.48a3.47,3.47,0,0,0,.29-.25,5.65,5.65,0,0,0,2.57.64.22.22,0,0,0,.05.08,2.1,2.1,0,0,0,.13.26c.1.31.2.61.27.93l0,.19v.07a3.62,3.62,0,0,1,0,.47c0,.15,0,.31,0,.46h0c0,.1,0,.19,0,.28S287.21,311.23,287.17,311.37Z"/><path class="cls-42" d="M282.88,312.42h0l.07.08Z"/><path class="cls-43" d="M282.44,311.3h0a.5.5,0,0,1,0,.12S282.48,311.44,282.44,311.3Z"/><path class="cls-44" d="M293.08,298.5c-.56-.93-1.63-2.55-1.66-2.54l-.27.13-.34.08-.15,0h-.12l-.5,0-.4-.12-.24-.09-.06,0c-.13-.08-.26-.15-.38-.24l-.18-.14-.09-.08c-.12-.13-.23-.26-.34-.4a.67.67,0,0,1,0-.07l-.37.16c-1.09.74-2.36.89-3.31,1.83a7.24,7.24,0,0,0-1.75,3,5.73,5.73,0,0,0,1.14,5.56,5.53,5.53,0,0,0,5,1.44,5.68,5.68,0,0,0,4.14-3.4,6.33,6.33,0,0,0,.24-4.53A3.52,3.52,0,0,0,293.08,298.5Zm-2.71,3.9a.87.87,0,0,1-.07.17,3.07,3.07,0,0,1-.26.43c0,.07-.09.13-.13.19v0l-.31.28-.1.1,0,0c-.12.07-.24.14-.37.2l-.19.09h0c-.14,0-.69.26-.82.18s.38,0,.08,0h-.21l-.51,0h-.07l0,0-.39-.12a.76.76,0,0,1-.16-.06l-.37-.23,0,0-.06-.06-.18-.22s0,0-.07-.08h0v0c0-.07-.07-.13-.1-.2a2,2,0,0,1-.1-.21l0,0v0a2.46,2.46,0,0,1-.11-.45s0-.06,0-.09a.65.65,0,0,0,0-.11h0v0a4.34,4.34,0,0,1,0-.51c0-.08,0-.15,0-.23s0-.15,0-.14c0-.15.13-.39.15-.44a2.09,2.09,0,0,1,.08-.23l.09-.18a7.82,7.82,0,0,1,.61-.93l0-.05h0l.23-.25c.16-.16.33-.31.5-.45l.3-.24a5.74,5.74,0,0,0,2.53.77l0,.08.11.27a6.14,6.14,0,0,1,.23.94s0,.12,0,.19v.06a3.68,3.68,0,0,1,0,.47c0,.16,0,.31-.05.47h0l-.06.27A3.26,3.26,0,0,1,290.37,302.4Z"/><path class="cls-45" d="M286,303.24h0a.6.6,0,0,1,.08.08Z"/><path class="cls-46" d="M285.66,302.09h0s0,.08,0,.12S285.68,302.23,285.66,302.09Z"/><path class="cls-47" d="M296.41,289.08c-.56-.92-1.64-2.55-1.66-2.53l-.28.13-.33.08-.16,0h-.11l-.51,0-.4-.11-.24-.1-.06,0c-.13-.08-.26-.15-.38-.24l-.18-.14-.09-.08a4.13,4.13,0,0,1-.34-.39s0,0,0-.07l-.37.16c-1.09.74-2.36.89-3.31,1.84a7.26,7.26,0,0,0-1.73,3,5.7,5.7,0,0,0,1.16,5.56,5.48,5.48,0,0,0,5,1.42,5.66,5.66,0,0,0,4.12-3.41,6.3,6.3,0,0,0,.23-4.54A4.09,4.09,0,0,0,296.41,289.08ZM293.72,293c0,.06-.05.12-.07.17s-.17.3-.26.43l-.14.19v0l-.3.29-.1.09,0,0c-.13.07-.24.14-.37.2a1.63,1.63,0,0,1-.19.09h0c-.13,0-.69.26-.81.17s.37,0,.08,0h-.21l-.52,0h-.06l0,0-.39-.11-.16-.07-.37-.23,0,0-.06-.06a2,2,0,0,1-.19-.22c0,.05,0,0-.07-.07h0l0,0,0,0a2,2,0,0,1-.11-.2c0-.06-.06-.14-.1-.2s0,0,0,0v0c0-.15-.08-.3-.11-.45a.25.25,0,0,1,0-.08.36.36,0,0,1,0-.11v0a4.34,4.34,0,0,1,0-.51c0-.08,0-.16,0-.24s0-.14,0-.14.13-.38.15-.44a2,2,0,0,1,.08-.22s.06-.13.08-.19c.19-.32.39-.63.61-.93l0,0h0l.23-.25c.16-.16.33-.31.5-.45l.3-.24a5.73,5.73,0,0,0,2.54.76l0,.08c0,.09.07.18.12.27a6.11,6.11,0,0,1,.22.94,1.25,1.25,0,0,1,0,.19v.53c0,.16,0,.31-.05.47h0l-.06.27C293.82,292.7,293.77,292.85,293.72,293Z"/><path class="cls-48" d="M289.38,293.84h0l.07.08Z"/><path class="cls-49" d="M289,292.7h0a.59.59,0,0,0,0,.13S289,292.84,289,292.7Z"/><path class="cls-50" d="M299.76,279.18c-.58-.91-1.69-2.5-1.72-2.49l-.27.14-.33.09-.16,0h-.11l-.51,0-.4-.1-.25-.09-.06,0c-.13-.08-.26-.14-.38-.23l-.19-.13-.08-.08c-.12-.13-.25-.25-.36-.39l0-.07-.36.17c-1.07.77-2.34.95-3.27,1.92a7.16,7.16,0,0,0-1.66,3.06,5.68,5.68,0,0,0,1.28,5.52,5.5,5.5,0,0,0,5,1.32,5.67,5.67,0,0,0,4-3.51,4.8,4.8,0,0,0-.2-5.1Zm-2.6,4s-.05.11-.07.17-.16.3-.25.44-.09.12-.13.19h0c-.1.1-.19.2-.3.3a.37.37,0,0,1-.09.09l-.05,0-.35.21-.19.09h0c-.14,0-.68.28-.81.2s.37,0,.08,0h-.21a4.61,4.61,0,0,1-.52,0h-.1l-.4-.11-.16-.06-.37-.23h0l-.06-.06a2,2,0,0,1-.19-.22c0,.05,0,0-.07-.07h0l0,0,0,0-.11-.19-.11-.21,0,0v0c0-.15-.09-.3-.12-.45s0-.05,0-.08a.65.65,0,0,0,0-.11h0v0a4.34,4.34,0,0,1,0-.51,1.93,1.93,0,0,1,0-.24c0-.12,0-.14,0-.14s.12-.39.13-.44l.08-.23a1.78,1.78,0,0,0,.08-.18,9.37,9.37,0,0,1,.59-1l0,0h0l.23-.25c.16-.17.32-.32.49-.47l.3-.24a5.83,5.83,0,0,0,2.55.7s0,.05,0,.08l.12.26a6.21,6.21,0,0,1,.25.94l0,.19v.06c0,.16,0,.31,0,.47s0,.31,0,.47h0l-.06.27C297.25,282.86,297.21,283,297.16,283.16Z"/><path class="cls-51" d="M292.84,284.1h0a.6.6,0,0,0,.08.08Z"/><path class="cls-52" d="M292.43,283h0a.5.5,0,0,1,0,.12S292.47,283.11,292.43,283Z"/><path class="cls-53" d="M303.16,270.59c-.56-.92-1.64-2.54-1.66-2.53a1.66,1.66,0,0,1-.27.13l-.34.08-.15,0h-.12l-.51,0-.39-.11-.25-.09-.06,0-.38-.23-.18-.14-.09-.08c-.11-.13-.23-.26-.34-.4l0-.07-.37.16c-1.08.75-2.36.9-3.3,1.85a7.11,7.11,0,0,0-1.74,3,5.69,5.69,0,0,0,1.16,5.55,5.5,5.5,0,0,0,5,1.43,5.7,5.7,0,0,0,4.13-3.41,6.36,6.36,0,0,0,.23-4.54C303.44,271.07,303.32,270.86,303.16,270.59Zm-2.69,3.92c0,.05-.05.11-.07.17s-.16.29-.26.43-.09.12-.13.19h0c-.11.1-.2.2-.31.29l-.09.09-.05,0-.36.2L299,276h0c-.14,0-.69.26-.82.18s.38,0,.08,0H298a4.41,4.41,0,0,1-.52,0h-.11L297,276l-.16-.06-.37-.24h0l-.05-.06c-.07-.07-.13-.15-.19-.22s0,0-.07-.08h0v0l-.11-.19a2,2,0,0,0-.1-.21s0,0,0,0v0c0-.15-.08-.3-.11-.45s0-.06,0-.09a.27.27,0,0,1,0-.11h0v0a4.34,4.34,0,0,1,0-.51,1.79,1.79,0,0,1,0-.23.39.39,0,0,0,0-.14,3.34,3.34,0,0,1,.14-.44l.08-.23.09-.18a9.33,9.33,0,0,1,.6-.94l0,0v0l.24-.24c.16-.16.32-.31.5-.46a3.4,3.4,0,0,1,.3-.23,5.64,5.64,0,0,0,2.53.75l0,.09.12.26a7.58,7.58,0,0,1,.23.94s0,.12,0,.19v.07a3.68,3.68,0,0,1,0,.47c0,.15,0,.31,0,.46h0a2.86,2.86,0,0,1-.07.28C300.57,274.21,300.52,274.36,300.47,274.51Z"/><path class="cls-54" d="M296.13,275.35h0l.08.09Z"/><path class="cls-55" d="M295.75,274.21h0s0,.08,0,.12S295.78,274.35,295.75,274.21Z"/><path class="cls-56" d="M306.28,261.47c-.65-.86-1.89-2.36-1.91-2.35a1.83,1.83,0,0,1-.26.16l-.33.12-.15,0h-.11l-.51,0c-.05,0-.36-.07-.4-.08l-.26-.07-.06,0c-.14-.07-.27-.12-.4-.2a2.12,2.12,0,0,1-.2-.12l-.09-.07c-.13-.12-.26-.23-.38-.36l0-.06a3.9,3.9,0,0,0-.35.19c-1,.85-2.26,1.13-3.1,2.17a7.2,7.2,0,0,0-1.42,3.19,5.69,5.69,0,0,0,1.71,5.4,5.52,5.52,0,0,0,5.11.92,5.67,5.67,0,0,0,3.75-3.82,6.3,6.3,0,0,0-.23-4.54A5.06,5.06,0,0,0,306.28,261.47ZM304,265.64a1.21,1.21,0,0,0-.05.18c-.07.15-.14.31-.22.45a1.28,1.28,0,0,1-.11.2v0l-.27.32-.09.1,0,0-.34.24-.18.1,0,0h0c-.13.05-.66.33-.79.26s.37-.05.08,0l-.21,0a3,3,0,0,1-.52,0h-.11l-.4-.07-.16-.05-.39-.19,0,0-.07-.05-.21-.2s0,0-.07-.07h0l0,0,0,0-.13-.18c0-.06-.07-.13-.12-.2l0,0v0a3.89,3.89,0,0,1-.16-.44.29.29,0,0,1,0-.09.24.24,0,0,1,0-.1v0a2.94,2.94,0,0,1,0-.51,1.93,1.93,0,0,1,0-.24c0-.12,0-.14,0-.14s.09-.39.1-.45l.06-.23a.76.76,0,0,1,.07-.19,10.36,10.36,0,0,1,.5-1l0,0,0,0,.2-.27.45-.5.28-.27a5.7,5.7,0,0,0,2.6.5.35.35,0,0,0,.05.08l.14.25a6.15,6.15,0,0,1,.32.91s0,.12,0,.19V264c0,.16,0,.31.05.47s0,.31,0,.47h0l0,.28C304.07,265.34,304,265.49,304,265.64Z"/><path class="cls-57" d="M299.77,266.92h0l.08.08Z"/><path class="cls-58" d="M299.28,265.83h0l0,.12S299.32,266,299.28,265.83Z"/><path class="cls-59" d="M307.69,251.85c-.81-.71-2.33-1.93-2.35-1.91a2.18,2.18,0,0,1-.22.21l-.3.18-.14.07-.11,0c-.16,0-.32.09-.49.12s-.37,0-.41,0h-.27l-.06,0-.43-.1-.22-.08-.11-.05-.45-.28-.05-.05-.3.26c-.8,1-2,1.57-2.58,2.77a7.16,7.16,0,0,0-.73,3.41,5.69,5.69,0,0,0,2.79,4.93,5.5,5.5,0,0,0,5.18-.16,5.67,5.67,0,0,0,2.89-4.51,6.3,6.3,0,0,0-1.16-4.39A5.05,5.05,0,0,0,307.69,251.85Zm-1.37,4.55c0,.06,0,.12,0,.18s-.07.33-.12.49l-.07.22v0c-.07.12-.13.25-.21.37a.64.64,0,0,1-.06.11l0,0c-.1.1-.19.21-.29.3l-.15.14,0,0h0c-.12.08-.57.47-.72.42,0,0,.35-.13.07,0l-.19.07a4.6,4.6,0,0,1-.5.13h-.11a2.81,2.81,0,0,1-.41,0h-.17l-.42-.11h0l-.07,0-.24-.15s0,0-.09-.05h0l0,0h0c-.05,0-.11-.09-.16-.15a1.29,1.29,0,0,1-.16-.17l0,0v0c-.09-.13-.17-.26-.25-.4l0-.08a.7.7,0,0,1-.06-.09v0a4.58,4.58,0,0,1-.15-.49l-.06-.23c0-.12,0-.14,0-.13a3.25,3.25,0,0,1,0-.47V256s0-.14,0-.2a10.12,10.12,0,0,1,.29-1.08l0-.05v0l.15-.3c.1-.2.22-.4.34-.59a3.37,3.37,0,0,1,.21-.31,5.88,5.88,0,0,0,2.64,0l.07.06c.07.07.13.15.19.22a6.25,6.25,0,0,1,.51.82l.07.18,0,.06c.05.15.1.3.14.45s.06.3.1.45h0c0,.1,0,.19,0,.28A3.69,3.69,0,0,1,306.32,256.4Z"/><path class="cls-60" d="M302.45,258.53h0l.1.05Z"/><path class="cls-61" d="M301.74,257.56h0l.06.11S301.81,257.68,301.74,257.56Z"/><path class="cls-62" d="M309.67,241.74a14.37,14.37,0,0,0,1.27-2.15c.15-.75.07-1.64.15-2.42.16-1.43-2.12-.91-2.77-.21-.42.46-.08,1-.19,1.55a2.55,2.55,0,0,1-1.08,1.51c.21-.14-.2.1-.25.12l-.14.06-.11,0-.5.08h-.41a1.24,1.24,0,0,1-.27,0h-.06c-.15-.05-.29-.08-.43-.14l-.21-.08-.1-.06c-.15-.1-.3-.19-.44-.3a3.84,3.84,0,0,0-.28-.3l-.07-.1c0-.08-.1-.15-.14-.23a2.59,2.59,0,0,1-.29-.89,5.5,5.5,0,0,1,.16-2.08,13.5,13.5,0,0,1,1.47-3.32c.7-1.17.49-1.53,1.8-1.61a1.32,1.32,0,0,0,.66-.32c-1.29-3.79-4.95-.75-6,1.55s-1.66,5.45-.68,7.74a5,5,0,0,0,.94,1.43,7.7,7.7,0,0,0-1.64,4.29,5.73,5.73,0,0,0,2.51,5.09,5.52,5.52,0,0,0,5.18.13,5.67,5.67,0,0,0,3.14-4.33A6.91,6.91,0,0,0,309.67,241.74Zm-2,5.42v0c-.08.12-.14.24-.22.36a.35.35,0,0,0-.07.11l0,0-.3.29-.17.13,0,0h0c-.12.07-.6.43-.75.38,0,0,.37-.11.08,0l-.2.06-.51.1h-.11l-.4,0-.17,0-.42-.14h0l-.07-.05c-.09,0-.16-.11-.24-.16s0,0-.08-.06h0l-.16-.16c-.05-.06-.09-.12-.15-.18l0,0v0a3.23,3.23,0,0,1-.22-.41l0-.08a.51.51,0,0,1,0-.1h0v0h0c0-.16-.09-.32-.12-.49s0-.16,0-.24,0-.14,0-.13a2.74,2.74,0,0,1,0-.47,2,2,0,0,1,0-.23s0-.14,0-.2a10.11,10.11,0,0,1,.35-1.06l0,0,0,0a2.69,2.69,0,0,1,.16-.29c.12-.2.24-.39.37-.57l.23-.3a5.75,5.75,0,0,0,2.64.1l.07.07.18.23a6.9,6.9,0,0,1,.45.85l.07.18,0,.06c0,.15.08.3.11.46s.05.31.08.46h0a2.62,2.62,0,0,1,0,.28c0,.15,0,.31,0,.46l0,.19c-.05.16-.08.32-.14.48Z"/><path class="cls-63" d="M304,248.18h0l.09.07Z"/><path class="cls-64" d="M303.3,247.17h0s0,.07,0,.11S303.37,247.3,303.3,247.17Z"/><path class="cls-65" d="M300.61,386.34c-2.75-1.08-5.45-2.14-8.33-3l-3.22-.93c-2.53-.72-6.55-2.15-7.25,1.8-.43,2.41,2.23,3.32,3.95,4.32q4.25,2.46,8.61,4.68a2,2,0,0,0,.63.19c1.34.18,2.62,1.65,4.23,1.86a1.14,1.14,0,0,0,.61,0,1.17,1.17,0,0,0,.46-.45,19,19,0,0,0,2.34-6.86,1,1,0,0,0-.09-.72,1.08,1.08,0,0,0-.52-.34Z"/></g></svg>