<svg id="Glasses" xmlns="http://www.w3.org/2000/svg" xmlns:xlink="http://www.w3.org/1999/xlink" viewBox="0 0 500 500"><defs><style>.cls-1{fill:#d87113;}.cls-1,.cls-2{stroke:#d87113;}.cls-1,.cls-2,.cls-6{stroke-miterlimit:10;}.cls-2{fill:#fbb03b;}.cls-3{fill:#ccc;opacity:0.37;}.cls-4{opacity:0.72;}.cls-5{fill:#fff;}.cls-6{fill:url(#linear-gradient);stroke:url(#linear-gradient-2);}</style><linearGradient id="linear-gradient" x1="309.12" y1="189.61" x2="372.02" y2="189.61" gradientUnits="userSpaceOnUse"><stop offset="0" stop-color="#fbb03b"/><stop offset="0.23" stop-color="#ed972b"/><stop offset="0.5" stop-color="#e1821e"/><stop offset="0.76" stop-color="#da7516"/><stop offset="1" stop-color="#d87113"/></linearGradient><linearGradient id="linear-gradient-2" x1="308.62" y1="189.61" x2="372.52" y2="189.61" gradientUnits="userSpaceOnUse"><stop offset="0" stop-color="#fbb03b"/><stop offset="0.01" stop-color="#f2881d"/><stop offset="1" stop-color="#d87113"/></linearGradient></defs><g id="_5_glasses" data-name="5_glasses"><path class="cls-1" d="M310.78,184.23l-1.43-.35c-11.49-2.79-23.28-4.42-35-6.18a189.25,189.25,0,0,0-23.87-2.31c-6.77-.15-12.72-1.71-18.31,2.56-3.18,1.71-5.86,4.94-8.7,7.16a30.53,30.53,0,0,1-4.44,3.07c-5.47,2.92-13.35,2.21-17.63-2.45a43,43,0,0,1-5.68-6.8c-1.6-2.66-2.74-5.57-4.46-8.16-3.87-5.88-10-6.36-16.44-8.44a190.2,190.2,0,0,0-23.3-5.68c-11.61-2.18-23.28-4.51-35-5.66l-1.47-.14c-3.51-.3-4,7.26-4.23,9.44-.64,5.72-.79,11.47-1.38,17.23-1.12,10.91-1.74,21.82-.28,32.69.52,3.82,3.07,6.32,6.41,8.17,4.36,2.42,9.47,3.34,14.22,4.69,5.32,1.51,10.56,3.29,16,4.48,6.22,1.37,12.13,3.31,18.63,2.21a24.71,24.71,0,0,0,11.66-5.13c4.41-3.74,8.91-6.95,12.88-11.25,2.71-2.94,5.3-5.62,8.91-7.46a10.4,10.4,0,0,1,3.69-1c4.94-.12,10.5,1.47,13,4a22.14,22.14,0,0,1,3,3.95.83.83,0,0,1,0,.15,1.9,1.9,0,0,0,.59.94c.86,1.57,1.61,3.22,2.35,4.94,2.33,5.37,5.53,9.89,8.46,14.87a24.81,24.81,0,0,0,9.33,8.68c5.77,3.17,12,3.29,18.32,4,5.49.65,11,.69,16.54,1,4.93.28,10,1.1,15,.25,3.76-.65,7-2.17,8.74-5.61,5-9.78,8-20.29,10.49-30.95,1.34-5.65,3.1-11.12,4.37-16.73C312.15,192.4,314.19,185.1,310.78,184.23ZM195.22,196.75q-.18,1-.42,1.95c-1.34,5.23-5,9.13-8.8,12.7s-7.91,7.43-12.61,10.12c-4.1,2.33-10,5.52-14.87,4.6-8.56-1.62-17-3.83-25.34-6.28-5.52-1.62-12-2.06-16.29-6.26-3.15-3.05-4.26-7.69-4.58-11.92a97.21,97.21,0,0,1,0-14c.67-9.07,1.19-18.18,2.93-27.12.46-2.34.36-4.88,2.85-5.4s5.67.58,7.87,1c15.13,2.56,30.49,5.47,45.14,9.56a60.07,60.07,0,0,1,10.47,3.64c6.16,3,8,7.58,11.27,13.09l.08.13A20.71,20.71,0,0,1,195.22,196.75Zm112.15-3.41c-1.3,9-3.8,17.79-6.15,26.57a97.26,97.26,0,0,1-4.56,13.21c-1.7,3.88-4.27,7.9-8.24,9.75-5.47,2.54-11.71.84-17.45.55-8.69-.44-17.38-1.13-26-2.41-4.87-.73-9.43-5.69-12.53-9.24-3.56-4.08-6.1-8.93-8.58-13.71a33.34,33.34,0,0,1-4-16.16c.2-5.56,3.36-10.75,7.67-14.2s8.52-7.19,14.34-7.91a60.42,60.42,0,0,1,11.09,0c15.18,1,30.64,3.27,45.77,5.83,2.21.35,5.7.45,7.75,1.67S307.72,191,307.37,193.34Z"/><path class="cls-2" d="M308.78,182.23l-1.43-.35c-11.49-2.79-23.28-4.42-35-6.18a189.25,189.25,0,0,0-23.87-2.31c-6.77-.15-12.72-1.71-18.31,2.56-3.18,1.71-5.86,4.94-8.7,7.16a30.53,30.53,0,0,1-4.44,3.07c-5.47,2.92-13.35,2.21-17.63-2.45a43,43,0,0,1-5.68-6.8c-1.6-2.66-2.74-5.57-4.46-8.16-3.87-5.88-10-6.36-16.44-8.44a190.2,190.2,0,0,0-23.3-5.68c-11.61-2.18-23.28-4.51-35-5.66l-1.47-.14c-3.51-.3-4,7.26-4.23,9.44-.64,5.72-.79,11.47-1.38,17.23-1.12,10.91-1.74,21.82-.28,32.69.52,3.82,3.07,6.32,6.41,8.17,4.36,2.42,9.47,3.34,14.22,4.69,5.32,1.51,10.56,3.29,16,4.48,6.22,1.37,12.13,3.31,18.63,2.21a24.71,24.71,0,0,0,11.66-5.13c4.41-3.74,8.91-6.95,12.88-11.25,2.71-2.94,5.3-5.62,8.91-7.46a10.4,10.4,0,0,1,3.69-1c4.94-.12,10.5,1.47,13,4a22.14,22.14,0,0,1,3,3.95.83.83,0,0,1,0,.15,1.9,1.9,0,0,0,.59.94c.86,1.57,1.61,3.22,2.35,4.94,2.33,5.37,5.53,9.89,8.46,14.87a24.81,24.81,0,0,0,9.33,8.68c5.77,3.17,12,3.29,18.32,4,5.49.65,11,.69,16.54,1,4.93.28,10,1.1,15,.25,3.76-.65,7-2.17,8.74-5.61,5-9.78,8-20.29,10.49-30.95,1.34-5.65,3.1-11.12,4.37-16.73C310.15,190.4,312.19,183.1,308.78,182.23ZM193.22,194.75q-.18,1-.42,1.95c-1.34,5.23-5,9.13-8.8,12.7s-7.91,7.43-12.61,10.12c-4.1,2.33-10,5.52-14.87,4.6-8.56-1.62-17-3.83-25.34-6.28-5.52-1.62-12-2.06-16.29-6.26-3.15-3.05-4.26-7.69-4.58-11.92a97.21,97.21,0,0,1,0-14c.67-9.07,1.19-18.18,2.93-27.12.46-2.34.36-4.88,2.85-5.4s5.67.58,7.87,1c15.13,2.56,30.49,5.47,45.14,9.56a60.07,60.07,0,0,1,10.47,3.64c6.16,3,8,7.58,11.27,13.09l.08.13A20.71,20.71,0,0,1,193.22,194.75Zm112.15-3.41c-1.3,9-3.8,17.79-6.15,26.57a97.26,97.26,0,0,1-4.56,13.21c-1.7,3.88-4.27,7.9-8.24,9.75-5.47,2.54-11.71.84-17.45.55-8.69-.44-17.38-1.13-26-2.41-4.87-.73-9.43-5.69-12.53-9.24-3.56-4.08-6.1-8.93-8.58-13.71a33.34,33.34,0,0,1-4-16.16c.2-5.56,3.36-10.75,7.67-14.2s8.52-7.19,14.34-7.91a60.42,60.42,0,0,1,11.09,0c15.18,1,30.64,3.27,45.77,5.83,2.21.35,5.7.45,7.75,1.67S305.72,189,305.37,191.34Z"/><path class="cls-3" d="M304.46,185.3c-2-1.22-5.54-1.32-7.75-1.67-15.13-2.56-30.59-4.87-45.77-5.83a60.42,60.42,0,0,0-11.09,0c-5.82.72-10,4.4-14.34,7.91s-7.47,8.64-7.67,14.2a33.34,33.34,0,0,0,4,16.16c2.48,4.78,5,9.63,8.58,13.71,3.1,3.55,7.66,8.51,12.53,9.24,8.61,1.28,17.3,2,26,2.41,5.74.29,12,2,17.45-.55,4-1.85,6.54-5.87,8.24-9.75a97.26,97.26,0,0,0,4.56-13.21c2.35-8.78,4.85-17.56,6.15-26.57C305.72,189,306.64,186.61,304.46,185.3Z"/><path class="cls-3" d="M190.88,180.43c-3.29-5.51-5.11-10.06-11.27-13.09a60.07,60.07,0,0,0-10.47-3.64c-14.65-4.09-30-7-45.14-9.56-2.2-.39-5.53-1.45-7.87-1s-2.39,3.06-2.85,5.4c-1.74,8.94-2.26,18.05-2.93,27.12a97.21,97.21,0,0,0,0,14c.32,4.23,1.43,8.87,4.58,11.92,4.32,4.2,10.77,4.64,16.29,6.26,8.35,2.45,16.78,4.66,25.34,6.28,4.83.92,10.77-2.27,14.87-4.6,4.7-2.69,8.7-6.43,12.61-10.12s7.46-7.47,8.8-12.7q.24-1,.42-1.95A20.71,20.71,0,0,0,191,180.56Z"/><g class="cls-4"><g class="cls-4"><path class="cls-5" d="M234.07,184.73a52.9,52.9,0,0,0-7.71,19.07c-.18,1,.88,1.8,1.84,1.81a2,2,0,0,0,2-1.76,48.55,48.55,0,0,1,7.09-17.32C238.64,184.52,235.38,182.72,234.07,184.73Z"/><path class="cls-5" d="M239.46,186.88A131.31,131.31,0,0,0,229.82,215a1.76,1.76,0,0,0,1.25,2.21,2.08,2.08,0,0,0,2.44-1.25,131.31,131.31,0,0,1,9.64-28.14C244.16,185.69,240.46,184.75,239.46,186.88Z"/></g><g class="cls-4"><path class="cls-5" d="M120.73,162a53.08,53.08,0,0,0-7.47,19.17c-.17,1,.9,1.79,1.86,1.78a2,2,0,0,0,2-1.79,48.85,48.85,0,0,1,6.88-17.4C125.31,161.75,122,160,120.73,162Z"/><path class="cls-5" d="M126.15,164.09a131.2,131.2,0,0,0-9.29,28.26,1.75,1.75,0,0,0,1.27,2.19,2.07,2.07,0,0,0,2.43-1.27A131.57,131.57,0,0,1,129.85,165C130.84,162.85,127.13,162,126.15,164.09Z"/></g></g><path class="cls-6" d="M369.19,181.32c-1.85-1.28-4.22-1.22-6.35-.85-2.51.44-5,1-7.5,1.48-10.24,1.92-20.58,3.35-30.95,4.29-2.89.26-10.74-.67-12.46,2a7.62,7.62,0,0,0-.83,2.17l-1.82,6.74a2.38,2.38,0,0,0-.06,1.51c.72,1.66,17.27-3.48,19.5-4.08q10.35-2.78,20.53-6.16c4.69-1.56,10-4,15.1-3.4,3.18.4,3.82,2.89,3,5.7-1.09,3.66.09,8.22,3,3.18C372.45,190.25,373.08,184,369.19,181.32Z"/></g></svg>