<svg id="Glasses" xmlns="http://www.w3.org/2000/svg" viewBox="0 0 500 500"><defs><style>.cls-1{fill:#ccc;opacity:0.37;}.cls-2{opacity:0.72;}.cls-3{fill:#fff;}.cls-4{fill:#434845;stroke:#333;stroke-miterlimit:10;}</style></defs><g id="_2_glasses" data-name="2_glasses"><path class="cls-1" d="M298.73,199.05c-.37-4.75-1.62-9.33-4.08-12.82-1.58-2.23-3.73-4-5.52-6a32.51,32.51,0,0,0-3.7-4.07c-3.69-3-10.65-4.73-15.23-5.92-5.3-1.37-11.05-1-16.41-.27-5.9.79-9.53,3.43-14.3,6.48s-9.55,4.89-13,9.75c-2.74,3.84-3.66,7.06-4.42,11.7a54.4,54.4,0,0,0-.85,7.53c-.19,7.8,3.44,13.81,7.59,20.09,3.9,5.92,10.09,9.1,16.51,11.64,14.41,5.72,28.36,3.66,35.22-.68a39.67,39.67,0,0,0,16.68-22.24A43.45,43.45,0,0,0,298.73,199.05Z"/><g class="cls-2"><path class="cls-3" d="M238.9,182.88A48.41,48.41,0,0,0,228,198.17c-.36.81.4,1.78,1.24,2a1.84,1.84,0,0,0,2.19-1.13,44.29,44.29,0,0,1,10-13.85C243,183.67,240.5,181.37,238.9,182.88Z"/><path class="cls-3" d="M243.23,185.93a120.11,120.11,0,0,0-14.54,22.92,1.61,1.61,0,0,0,.64,2.23,1.89,1.89,0,0,0,2.43-.59,120.61,120.61,0,0,1,14.54-22.92C247.66,185.88,244.57,184.26,243.23,185.93Z"/></g><path class="cls-1" d="M192.59,193.13c1.25-4.72,2-11.64.1-16.22a46,46,0,0,0-10.33-15.35c-5.23-5.09-11.33-7.26-18.1-9.43-13.4-4.3-29-1.24-39.18,8.64a29.18,29.18,0,0,0-4.6,5.68c-7.73,12.74-7.29,29.06,1.1,40.59,4.56,6.27,16.66,12.77,32.41,12.2,9.91-.36,19.75-3.59,27.4-10a40.16,40.16,0,0,0,9.39-11.55A20.37,20.37,0,0,0,192.59,193.13Z"/><g class="cls-2"><path class="cls-3" d="M133.62,158a48.36,48.36,0,0,0-10.89,15.29c-.37.81.39,1.78,1.24,2a1.85,1.85,0,0,0,2.19-1.13,44.13,44.13,0,0,1,10-13.85C137.73,158.77,135.21,156.47,133.62,158Z"/><path class="cls-3" d="M138,161A119.93,119.93,0,0,0,123.41,184a1.61,1.61,0,0,0,.64,2.23,1.89,1.89,0,0,0,2.43-.59A120.11,120.11,0,0,1,141,162.67C142.38,161,139.29,159.36,138,161Z"/></g><path class="cls-4" d="M301.65,188.8c-5.51-10.61-16.7-16.31-28.38-18.71a46.46,46.46,0,0,0-28.4,3.36c-10.73,5-18.72,10.13-22.14,22-2.86,9.85-3.38,21.34,1.86,30.47a36.79,36.79,0,0,0,16.69,14.79c17.83,8.19,44.71,8.25,55.57-9.16C304,220.1,308.2,201.38,301.65,188.8Zm-18.88,50c-9.78,6.18-25.33,4.8-35.63.72-9-3.59-14.82-7.16-18.71-15.38-5-10.65-6.38-22.64,0-33.14,4.92-8.11,13.56-12.54,22.2-15.66,19.43-7,41,1.65,48.32,18.74a26.2,26.2,0,0,1,1.95,6.9C302.73,215,295.88,230.55,282.77,238.83Z"/><path class="cls-4" d="M197,182.55c-1.24-8.07-5-15-11.41-21.53a43.44,43.44,0,0,0-25-12.46c-8.79-1.19-16.86-.9-24.86,3.26-7.23,3.77-14.26,9-18,16.41a50.63,50.63,0,0,0-4.6,29.65C116,217.62,141,226.41,161,224.66a41.14,41.14,0,0,0,21.66-8.25c7.07-5.51,13.52-13.15,14.53-22.41a.57.57,0,0,0,0-.13A43.83,43.83,0,0,0,197,182.55Zm-17.23,31c-7,6.36-13.89,7.77-23.78,8.13-11.26.41-26.29-3.43-32.8-12.38-8.74-12-8.65-28.68-1.12-41.1a29.48,29.48,0,0,1,4.68-5.77c13.9-13.47,37.55-14.42,52.69-1.52,6.24,5.32,11.06,11.1,13.36,19a32,32,0,0,1-.67,20.28C190.12,205.26,183.78,210,179.79,213.56Z"/><path d="M299.65,186.8c-5.51-10.61-16.7-16.31-28.38-18.71a46.46,46.46,0,0,0-28.4,3.36c-10.73,5-18.72,10.13-22.14,22-2.86,9.85-3.38,21.34,1.86,30.47a36.79,36.79,0,0,0,16.69,14.79c17.83,8.19,44.71,8.25,55.57-9.16C302,218.1,306.2,199.38,299.65,186.8Zm-18.88,50c-9.78,6.18-25.33,4.8-35.63.72-9-3.59-14.82-7.16-18.71-15.38-5-10.65-6.38-22.64,0-33.14,4.92-8.11,13.56-12.54,22.2-15.66,19.43-7,41,1.65,48.32,18.74a26.2,26.2,0,0,1,1.95,6.9C300.73,213,293.88,228.55,280.77,236.83Z"/><path d="M195,180.55c-1.24-8.07-5-15-11.41-21.53a43.44,43.44,0,0,0-25-12.46c-8.79-1.19-16.86-.9-24.86,3.26-7.23,3.77-14.26,9-18,16.41a50.63,50.63,0,0,0-4.6,29.65C114,215.62,139,224.41,159,222.66a41.14,41.14,0,0,0,21.66-8.25c7.07-5.51,13.52-13.15,14.53-22.41a.57.57,0,0,0,0-.13A43.83,43.83,0,0,0,195,180.55Zm-17.23,31c-7,6.36-13.89,7.77-23.78,8.13-11.26.41-26.29-3.43-32.8-12.38-8.74-12-8.65-28.68-1.12-41.1a29.48,29.48,0,0,1,4.68-5.77c13.9-13.47,37.55-14.42,52.69-1.52,6.24,5.32,11.06,11.1,13.36,19a32,32,0,0,1-.67,20.28C188.12,203.26,181.78,208,177.79,211.56Z"/><path d="M361.34,196.13c-1.85-1.28-4.22-1.21-6.35-.83-2.5.44-5,1-7.49,1.51q-15.36,2.92-30.94,4.4c-2.88.27-10.74-.62-12.45,2a7.57,7.57,0,0,0-.83,2.18l-1.78,6.74a2.25,2.25,0,0,0-.06,1.51c.73,1.66,17.26-3.55,19.48-4.15q10.35-2.82,20.51-6.24c4.68-1.58,10-4.09,15.09-3.46,3.18.4,3.83,2.88,3,5.69-1.08,3.67.12,8.23,3,3.18C364.64,205,365.25,198.82,361.34,196.13Z"/><path d="M119.27,163.27a89.74,89.74,0,0,1-3.44-10.56,2.29,2.29,0,0,0-.44-1.05,1.63,1.63,0,0,0-2.11-.07c-3.3,2.33-2.86,8.38-2.45,11.8.3,2.58,1.15,6.1,3.37,7.8a1.7,1.7,0,0,0,2.26-.53c.8-1.06,1.3-4.06,1.49-5.39,0,0,0-.06,0-.1a1.26,1.26,0,0,0,.28,0A1.51,1.51,0,0,0,119.27,163.27Z"/><path d="M220.59,199.5a13.62,13.62,0,0,0-1.65-5.91c-2.05-3.66-6.47-5.12-10.29-6.05-3.36-.81-7.63-.74-10.83.94-3,1.6-4.36,4.6-5.57,7.65-.51,1.3-1,2.81-.36,4.07,1.63-.16,2.88-1.48,3.89-2.77,3.19-4.05,6.7-4.82,11.77-4.38,4.17.37,9,2.36,9.88,6.81a19.81,19.81,0,0,0,1.14,4.92c.08.17.2.36.38.37s.34-.17.44-.33A9.33,9.33,0,0,0,220.59,199.5Z"/></g></svg>