<svg id="Nose_Mouth" xmlns="http://www.w3.org/2000/svg" xmlns:xlink="http://www.w3.org/1999/xlink" viewBox="0 0 500 500"><defs><style>.cls-1{fill:#f6a3ad;}.cls-2{fill:#ea7a92;}.cls-3{fill:#fff;}.cls-4{fill:url(#New_Gradient_Swatch_25);}.cls-5{fill:#dddcdb;}</style><linearGradient id="New_Gradient_Swatch_25" x1="185.78" y1="301.59" x2="185.78" y2="280.36" gradientUnits="userSpaceOnUse"><stop offset="0" stop-color="#d66582"/><stop offset="0.22" stop-color="#d1617c"/><stop offset="0.51" stop-color="#c4556d"/><stop offset="0.83" stop-color="#ae4252"/><stop offset="1" stop-color="#a03541"/></linearGradient></defs><g id="_4_Nose_Mouth_smile" data-name="4_Nose_Mouth_smile"><path class="cls-1" d="M190.81,252.21c4.29-2.08,9-3.69,13.43-5.65,3.61-1.6,11.41-5.24,10.59-10.35-.47-2.87-4-4.36-6.37-5.34a57,57,0,0,0-19.23-4.07c-3.5-.09-14.3-.07-14.16,5.4.07,2.87,2.39,9.66,5.75,14.64C183.65,251,187.22,254,190.81,252.21Z"/><path class="cls-2" d="M190.81,252.21c4.29-2.08,9-3.69,13.43-5.65,3.61-1.6,11.41-5.24,10.59-10.35-.34-2.07-2.68-6.65-5.46-5.62-.86.32-1.31,1.24-1.78,2a22,22,0,0,1-2,2.62,36.07,36.07,0,0,1-6.42,6.47,28.76,28.76,0,0,1-6.55,3.36,9.79,9.79,0,0,1-7.14.25,12.28,12.28,0,0,1-5.62-4.95c-1-1.74-2.22-4.28-4.24-5.06-.31,1.37.83,2.84,1.34,4.11a38.37,38.37,0,0,0,3.84,7.42C183.65,251,187.22,254,190.81,252.21Z"/><path class="cls-3" d="M189.22,230.23a2.54,2.54,0,0,0-1.5-1.15,18.41,18.41,0,0,0-3.47-.44,17.76,17.76,0,0,0-3.49.3,2.51,2.51,0,0,0-1.5,1.15A2.6,2.6,0,0,0,179,232a2.53,2.53,0,0,0,1.15,1.49l.6.25a2.5,2.5,0,0,0,1.33,0l.12,0a15.16,15.16,0,0,1,3.23,0c.32.05.64.1.95.17a2.64,2.64,0,0,0,1.93-.25,2.58,2.58,0,0,0,1.15-1.5A2.52,2.52,0,0,0,189.22,230.23Z"/><path class="cls-3" d="M183.69,234.84c-3.22,0-3.22,5,0,5S186.91,234.84,183.69,234.84Z"/><path class="cls-3" d="M228.42,279.91c.16-.42.31-.85.44-1.32a1.22,1.22,0,0,0,0-.68c-.38-1.15-3.68.71-4.46,1a24.94,24.94,0,0,1-6.41,1.68c-2.55.31-4.86,1-7.51.84a48.34,48.34,0,0,1-5.85-.79,49.28,49.28,0,0,1-7-1.62,24.21,24.21,0,0,1-8.3-4.82c-.9-.79-2.24-1.63-2.76-2.7-.37-.79-.48-2.52-1.61-2.66-.7-.09-1.39.87-1.92,1.23-.88.6-1.83,1.16-2.71,1.78l-6.12,4.23a1.44,1.44,0,0,0-.31.29,38.92,38.92,0,0,1-7.87,1.83,33.28,33.28,0,0,1-7.9-.57,19.33,19.33,0,0,1-4.49-1.13c-3.47-1.47-5.87-4.74-9.17-6.55a1.36,1.36,0,0,0-2.06,1.54c.64,2.15,1.16,4.38,1.94,6.47.57,1.53,2.08,2,3.44,2.79a11,11,0,0,1,4.36,5.62c.26.7.14,1.73.81,2.18,1.24.84,2-.57,2.4-1.5.5-1.21,1.08-2.71,2.49-3.09a3.83,3.83,0,0,1,1.31-.06c4.19.33,8.1,2.18,12.16,3.23a115.93,115.93,0,0,0,12.13,1.93c3.37.49,6.73,1,10.1,1.4,2.77.36,5.41-.13,8.21-.37a34.47,34.47,0,0,0,10.12-2.31c0,.11,0,.22.08.34.39,1.36.84,2.71,1.27,4.07a1.52,1.52,0,0,0,2.74.35,19.14,19.14,0,0,1,5.45-5.71c1.09-.81,2.21-1.58,3.31-2.37A9.86,9.86,0,0,0,228.42,279.91Z"/><path class="cls-4" d="M223.22,285.37a33,33,0,0,1-7.62,10.06,1.71,1.71,0,0,0-1-.46,24.24,24.24,0,0,0-.95-3.68c-.39-1.1-.91-2.13-2.23-2.2s-3,.62-4.42.86a65.55,65.55,0,0,1-15.4.32l-2-.67a10.81,10.81,0,0,0-5.72-.63q-11.62-2.4-23.38-4.22a1.61,1.61,0,0,0-.38,0,1.44,1.44,0,0,0-2.28.34c-.42,1-.88,1.9-1.35,2.83a20,20,0,0,1-1.67,2.49,1.55,1.55,0,0,0-.24-.19l-.28-.16-.1-.06a3.68,3.68,0,0,1-.4-.39s-.26-.35-.08-.09l-.15-.2c-.12-.18-.22-.37-.33-.56s-.2-.39-.29-.59l-.15-.34,0,0c-.19-.48-.38-1-.58-1.43a17.81,17.81,0,0,0-4.05-5.57,1.5,1.5,0,1,0-2.12,2.12c.42.42.83.84,1.23,1.28a13.25,13.25,0,0,1,1,1.2,11.68,11.68,0,0,1,.88,1.43l.3.63,0,.07,0,.06c.05.11.09.21.13.32.76,1.88,1.55,3.91,3.46,4.91l.13,0a1.5,1.5,0,0,0,2.54,1c.17-.17.31-.36.47-.54a.88.88,0,0,0,.17,0,51.22,51.22,0,0,1,14.29-2,1.49,1.49,0,0,0,1.09.58q15.38,1.5,30.57,4.35l.05,0a39.4,39.4,0,0,0,5.77,1.59c1.49.39,3.33,1.07,4,2.63s2.93,1.41,3-.4c0-.14,0-.28,0-.42a35.9,35.9,0,0,0,10.77-12.85C226.66,285.16,224.07,283.64,223.22,285.37Z"/><path class="cls-1" d="M210.78,300.81c-2.68-3.08-7.31-3.22-11.06-3.76q-3.57-.51-7.14-1a18.57,18.57,0,0,0-3.76-.21,6.12,6.12,0,0,0-2.54.4,6.88,6.88,0,0,0-1.48.83,6.23,6.23,0,0,0-.53-1.81,2.32,2.32,0,0,0-2.38-1.07c-1.27-.27-2.55-.5-3.83-.71l-.18-.06a19.8,19.8,0,0,0-2.76-1,17.32,17.32,0,0,0-3.21-.34,36.24,36.24,0,0,0-12.41,1.73,1.48,1.48,0,0,0-.78.58h0a1.41,1.41,0,0,0-.4.28l-.07,0c-1.46-.52-2.46,1.49-1.46,2.51a19.82,19.82,0,0,0,6.2,4,8.21,8.21,0,0,0,1.41.84,1.58,1.58,0,0,0,.92.12q3.83,1.54,7.75,2.79a113.25,113.25,0,0,0,18.89,4.2,1.61,1.61,0,0,0,1.55-.53c6-.29,11.59-2.86,17-5.45A1.52,1.52,0,0,0,210.78,300.81Z"/><path class="cls-2" d="M183,297.77h0l0,0Z"/><path class="cls-2" d="M212.69,302.23c.15-1.22-1.95-2.39-2.9-2.92-2.69-1.53-5.83-2.05-8.83-2.6-4.35-.79-8.85-1.14-13.22-1.65-4.84-.57-9.5-2.31-14.35-2.7a38.12,38.12,0,0,0-8.8.3c-2,.29-8,.39-7.88,3.14s4.19.7,5.67.41a36.06,36.06,0,0,1,9.78-.58c2.13.16,5.08.28,7,1.24s.42,2.4,1.1,4.22,2.83,1.63,3.79.31a7,7,0,0,1,6.09-3.37,30.92,30.92,0,0,1,7.49.62,29.1,29.1,0,0,1,8.36,2.84c1.23.64,2.5,1.95,3.75,2.43A2.46,2.46,0,0,0,212.69,302.23Zm-30.05-3.15c-.1.11-.18.24-.28.35a3.36,3.36,0,0,1,.13-.63c0-.12.07-.24.11-.36a.84.84,0,0,1,0-.12s0,0,0,0a3.6,3.6,0,0,1,.29-.5s0,0,0,0l0,0h0c0-.08,0,0,0,0l0-.06.22-.22.09-.09.16-.1a.83.83,0,0,0,.29.4l-.33.18a.92.92,0,0,0-.46.88C182.87,298.85,182.75,299,182.64,299.08Z"/><path class="cls-5" d="M226.15,278a38.74,38.74,0,0,1-7.65,3.34.82.82,0,0,0-.83-.43c-3.22.24-6.44.74-9.68.74a25.39,25.39,0,0,1-8.45-1.48,32.23,32.23,0,0,1-14-10.16c-.6-.72-1.49-.17-1.63.57a.86.86,0,0,0-.63.29,27.05,27.05,0,0,1-14.72,8.05,12.48,12.48,0,0,1-1.34-.15,1,1,0,0,0-1.07.47c-.57.05-1.14.09-1.71.1a26.8,26.8,0,0,1-19.45-8,1,1,0,0,0-1.41,1.41,28.8,28.8,0,0,0,20.86,8.57c.21,0,.42,0,.63,0,7.49,1.06,14.28-2.39,19.93-7,3.5,6.46,10.59,9.72,17.77,10.56a40,40,0,0,0,24.37-5.13A1,1,0,0,0,226.15,278Z"/><path d="M230.47,275.41a1.54,1.54,0,0,0-2.05-.73,14.93,14.93,0,0,0-2.9,1.79,14.08,14.08,0,0,1-5.8,2.42c-2,.24-4,.32-6.06.41a47.32,47.32,0,0,1-13.07-.83c-5.18-1.22-11.3-4.65-13.84-9.52-1.24-2.35,0-5.84.47-8.32.3-1.52.35-3.82,2.14-4.39,2.85-.9,5.52-2.22,8.26-3.37,3.08-1.28,6-2.87,9-4.2,3.72-1.62,8.68-4.27,10.7-7.95,2.2-4,1.21-8.32-2.74-10.65-2.18-1.28-5.45-3.55-8-3.79-1.91-.19-3.63-1.07-5.51-1.32a55.75,55.75,0,0,0-9.84-.89c-2.34.1-4.67.36-7,.47A30.21,30.21,0,0,0,172.55,228c-3.15,1.52,0,8.76.95,10.81a28.92,28.92,0,0,0,2.93,5.32c1.53,2,3.14,3.94,4.52,6,1.12,1.73,3.78,4,3.4,6.31a53.72,53.72,0,0,1-2.71,11.24c-1.16,2.9-4.14,4.62-6.79,5.94a25.75,25.75,0,0,1-11.49,2.68,25.44,25.44,0,0,1-13.93-4.32,28.79,28.79,0,0,1-5.47-4.93c-1.83-2.06-3.36-.58-3.62,1.55a16.56,16.56,0,0,0,1.17,7.71,64.57,64.57,0,0,0,7.05,14A43,43,0,0,0,168,305.65a77.48,77.48,0,0,0,13.37,3.87,43.31,43.31,0,0,0,23.3-1.83c1.86-.67,3.87-1.08,5.67-1.92,7.72-3.62,13.92-11.22,17.33-18.9a43.43,43.43,0,0,0,2.07-5.76C230.12,279.65,231.28,276.81,230.47,275.41Zm-49.65-28.57c-3.36-5-5.68-11.77-5.75-14.64-.14-5.47,10.66-5.49,14.16-5.4a57,57,0,0,1,19.23,4.07c2.35,1,5.9,2.47,6.37,5.34.82,5.11-7,8.75-10.59,10.35-4.4,2-9.14,3.57-13.43,5.65C187.22,254,183.65,251,180.82,246.84Zm26.34,56.51a37.22,37.22,0,0,1-8.59,2.86c-8.6,1.77-17.71.66-26.08-2.1A44.1,44.1,0,0,1,158,296.29c-.32-.26-.62-.54-.94-.81,8.4-3.34,17.4-1.61,26,0a8.25,8.25,0,0,0-2,4,1.67,1.67,0,0,0,.15,1.16,1.52,1.52,0,0,0,.9.69,1.49,1.49,0,0,0,1.15-.15,1.45,1.45,0,0,0,.69-.9,5.53,5.53,0,0,1,1.11-2.59,6.43,6.43,0,0,1,1-1,1.23,1.23,0,0,0,.37-.67c4.33.68,8.7,1,13,1.73a24.58,24.58,0,0,1,10.85,4.07C209.38,302.31,208.31,302.8,207.16,303.35Zm11.76-7.9a20.34,20.34,0,0,1-5.65,4.84c-5.74-4.92-13.36-5.58-20.59-6.39-8-.9-15.92-3.22-24.05-3.35a31.4,31.4,0,0,0-12.72,2.18,1.84,1.84,0,0,0-.94.81c-.92-.89-1.82-1.82-2.66-2.73-2.06-2.25-3.47-5.32-4.86-8-.36-.69-.71-1.4-1-2.11l2.27,2.47a14.77,14.77,0,0,1,2.14,2.66c.39.7.56,1.45.93,2.15.52,1,1.07,1.89,1.49,2.9a1.17,1.17,0,0,0,.38.56c.39.23.86-.1,1.16-.43a15,15,0,0,0,2.65-4.75,1.92,1.92,0,0,1,.47-.82c.55-.51,1.79.31,2.41.49,1.09.32,2.18.58,3.28.82,2.14.46,4.3.81,6.45,1.19,5,.88,10,1.79,15,2.64,8.44,1.42,17.91,2.79,26-.69a17,17,0,0,0,3.46,6.73,1.5,1.5,0,0,0,2.35-.3,27.23,27.23,0,0,1,8.19-10.39A47.45,47.45,0,0,1,218.92,295.45Zm7.27-13.32a5.5,5.5,0,0,1-1.58,1.27,22.17,22.17,0,0,0-5.42,3.93c-.51.57-4.21,4.67-3.81,5.35a13.16,13.16,0,0,1-1.73-5,1.52,1.52,0,0,0-2.26-1.29c-8,4.31-18,2.56-26.5,1.1-4.68-.81-9.37-1.65-14-2.47-2.85-.5-5.72-.9-8.52-1.62-2-.52-4.57-2.3-6.07,0-.77,1.19-1.09,2.59-1.81,3.79-.93,1.57-1.36,0-1.48-1.11a8.22,8.22,0,0,0-1.24-3.5c-1.48-2.23-4.06-3.58-6.23-5-1.35-.87-1.67-2.65-2-4.14-.13-.66-.63-3.25.84-2.52,1,.49,1.87,1.87,2.66,2.63a14.25,14.25,0,0,0,2.63,2.08,29.42,29.42,0,0,0,8.14,3.09,28.59,28.59,0,0,0,20.7-3.7,20.53,20.53,0,0,0,5.94-5.17,20.88,20.88,0,0,0,9.88,9.54c6.86,3.29,14.69,3.17,22.1,2.7a30.58,30.58,0,0,0,5.4-.6c1.94-.49,3.44-2,5.26-2.58A5.33,5.33,0,0,1,226.19,282.13Z"/><path d="M247.52,274.23c-.9,0-2.05,1.64-2,2.85a2,2,0,0,0,2,2.06c.91-.07,2.07-1.73,2.19-3.12C249.75,275.51,248.16,274.21,247.52,274.23Z"/><path d="M243.48,260a2.31,2.31,0,0,0-2.11,2.38c0,1.29.54,1.89,1.79,1.89s2.92-1.52,2.8-2.36A4.74,4.74,0,0,0,243.48,260Z"/><path d="M152.74,237.63a2.17,2.17,0,0,0-2,1.89,2.39,2.39,0,0,0,2.15,2.35,2.44,2.44,0,0,0,2.28-2C155.2,239.15,153.66,237.7,152.74,237.63Z"/><path d="M263.48,267.28a1.74,1.74,0,0,0-1.85,2c0,1,1.13,2.36,1.91,2.36a2.78,2.78,0,0,0,2.13-2.33A2.15,2.15,0,0,0,263.48,267.28Z"/><path d="M146.9,260.25a5.24,5.24,0,0,0,1.83-2.08,2.31,2.31,0,0,0-2.14-2.09,2.14,2.14,0,0,0-2.32,2.13A3,3,0,0,0,146.9,260.25Z"/><path d="M161,251.72c-.09,1.28.63,1.94,2.24,2.07.87.07,1.46-.74,1.54-2.08s-.33-1.7-1.83-1.77C161.73,249.89,161.12,250.45,161,251.72Z"/><path d="M256.9,250.12a2,2,0,0,0-1.73,2.16,2.07,2.07,0,0,0,1.78,1.59c1.3,0,2.05-.59,2-1.67A2.18,2.18,0,0,0,256.9,250.12Z"/></g></svg>