<svg id="Nose_Mouth" xmlns="http://www.w3.org/2000/svg" xmlns:xlink="http://www.w3.org/1999/xlink" viewBox="0 0 500 500"><defs><style>.cls-1,.cls-4{fill:#f6a3ad;}.cls-2,.cls-6{fill:#ea7a92;}.cls-3{fill:#fff;}.cls-4{opacity:0.69;}.cls-5{opacity:0.56;fill:url(#linear-gradient);}.cls-6{opacity:0.6;}.cls-7{opacity:0.66;}.cls-8{fill:#fcfbfa;}</style><linearGradient id="linear-gradient" x1="118.48" y1="290.43" x2="165.68" y2="290.43" gradientUnits="userSpaceOnUse"><stop offset="0" stop-color="#f6a3ad"/><stop offset="0.3" stop-color="#f296a4"/><stop offset="1" stop-color="#ea7a92"/></linearGradient></defs><g id="_1_Nose_Mouth_rose" data-name="1_Nose_Mouth_rose"><path class="cls-1" d="M190.81,252.21c4.29-2.08,9-3.69,13.43-5.65,3.61-1.6,11.41-5.24,10.59-10.35-.47-2.87-4-4.36-6.37-5.34a57,57,0,0,0-19.23-4.07c-3.5-.09-14.3-.07-14.16,5.4.07,2.87,2.39,9.66,5.75,14.64C183.65,251,187.22,254,190.81,252.21Z"/><path class="cls-2" d="M190.81,252.21c4.29-2.08,9-3.69,13.43-5.65,3.61-1.6,11.41-5.24,10.59-10.35-.34-2.07-2.68-6.65-5.46-5.62-.86.32-1.31,1.24-1.78,2a22,22,0,0,1-2,2.62,36.07,36.07,0,0,1-6.42,6.47,28.76,28.76,0,0,1-6.55,3.36,9.79,9.79,0,0,1-7.14.25,12.28,12.28,0,0,1-5.62-4.95c-1-1.74-2.22-4.28-4.24-5.06-.31,1.37.83,2.84,1.34,4.11a38.37,38.37,0,0,0,3.84,7.42C183.65,251,187.22,254,190.81,252.21Z"/><path class="cls-3" d="M189.22,230.23a2.54,2.54,0,0,0-1.5-1.15,18.41,18.41,0,0,0-3.47-.44,17.76,17.76,0,0,0-3.49.3,2.51,2.51,0,0,0-1.5,1.15A2.6,2.6,0,0,0,179,232a2.53,2.53,0,0,0,1.15,1.49l.6.25a2.5,2.5,0,0,0,1.33,0l.12,0a15.16,15.16,0,0,1,3.23,0c.32.05.64.1.95.17a2.64,2.64,0,0,0,1.93-.25,2.58,2.58,0,0,0,1.15-1.5A2.52,2.52,0,0,0,189.22,230.23Z"/><path class="cls-3" d="M183.69,234.84c-3.22,0-3.22,5,0,5S186.91,234.84,183.69,234.84Z"/><path d="M214.62,230.07c-2.18-1.28-5.45-3.55-8-3.79-1.91-.19-3.63-1.07-5.51-1.32a55.75,55.75,0,0,0-9.84-.89c-2.34.1-4.67.36-7,.47A30.21,30.21,0,0,0,172.55,228c-3.15,1.52,0,8.76.95,10.81a28.92,28.92,0,0,0,2.93,5.32c1.53,2,3.14,3.94,4.52,6a14.3,14.3,0,0,0,2.38,2.88,4.78,4.78,0,0,1,1.6,4.49c-.16,1-.77,4.25-1.92,4.46s-3.32-2.33-4.29-2.89a12,12,0,0,0-4.63-1.61,6.91,6.91,0,0,0-5.72,2.31,8.67,8.67,0,0,0-2.1,5.89,1,1,0,0,0,.28.78c.77.52,2.18-1.24,2.47-1.76a22.66,22.66,0,0,1,1.09-2.07,4.47,4.47,0,0,1,5.25-1.93c3,.91,5.54,3.17,7.92,5.18,1.82,1.55,4.05,2.43,5.75,4.17a9,9,0,0,1,2.32,3.74c.33,1.16.32,2.58,1.91,2.85,2,.35,1.16-2.15.72-3.24-1.3-3.29-3.48-6.48-6.7-8.14a7.16,7.16,0,0,1-1.13-.69c.37-1.8.8-3.58,1.22-5.34.27-1.14.6-2.6,2-3,2.85-.9,5.52-2.22,8.26-3.37,3.08-1.28,6-2.87,9-4.2,3.72-1.62,8.68-4.27,10.7-7.95C219.56,236.72,218.57,232.4,214.62,230.07Zm-10.38,16.49c-4.4,2-9.14,3.57-13.43,5.65-3.59,1.74-7.16-1.18-10-5.37-3.36-5-5.68-11.77-5.75-14.64-.14-5.47,10.66-5.49,14.16-5.4a57,57,0,0,1,19.23,4.07c2.35,1,5.9,2.47,6.37,5.34C215.65,241.32,207.85,245,204.24,246.56Z"/><path d="M247.52,274.23c-.9,0-2.05,1.64-2,2.85a2,2,0,0,0,2,2.06c.91-.07,2.07-1.73,2.19-3.12C249.75,275.51,248.16,274.21,247.52,274.23Z"/><path d="M243.48,260a2.31,2.31,0,0,0-2.11,2.38c0,1.29.54,1.89,1.79,1.89s2.92-1.52,2.8-2.36A4.74,4.74,0,0,0,243.48,260Z"/><path d="M152.74,237.63a2.17,2.17,0,0,0-2,1.89,2.39,2.39,0,0,0,2.15,2.35,2.44,2.44,0,0,0,2.28-2C155.2,239.15,153.66,237.7,152.74,237.63Z"/><path d="M263.48,267.28a1.74,1.74,0,0,0-1.85,2c0,1,1.13,2.36,1.91,2.36a2.78,2.78,0,0,0,2.13-2.33A2.15,2.15,0,0,0,263.48,267.28Z"/><path d="M146.9,260.25a5.24,5.24,0,0,0,1.83-2.08,2.31,2.31,0,0,0-2.14-2.09,2.14,2.14,0,0,0-2.32,2.13A3,3,0,0,0,146.9,260.25Z"/><path d="M161,251.72c-.09,1.28.63,1.94,2.24,2.07.87.07,1.46-.74,1.54-2.08s-.33-1.7-1.83-1.77C161.73,249.89,161.12,250.45,161,251.72Z"/><path d="M256.9,250.12a2,2,0,0,0-1.73,2.16,2.07,2.07,0,0,0,1.78,1.59c1.3,0,2.05-.59,2-1.67A2.18,2.18,0,0,0,256.9,250.12Z"/><path class="cls-4" d="M183.24,278.13a22.44,22.44,0,0,0-1-2.23,6,6,0,0,0-1.31-1.82c-1.16-1-3.08-1.06-4.52-1.27-1.85-.27-3.62,0-5.47-.53a5.53,5.53,0,0,1-1.8-1c-3-2.49-3.84-6.2-5.42-9.59a2.72,2.72,0,0,0-.11-.25c-.23-.47-.46-.92-.71-1.37a7.18,7.18,0,0,0-1.23-1.55c-.19-.44-.39-.9-.65-1.38-2.36-4.32-6.73-6.33-11.34-7.35l-.37-.06a24.42,24.42,0,0,0-10.5-1.09,28.65,28.65,0,0,0-22,14.85,8.47,8.47,0,0,0-.51,1.17c-3,5.93-2.94,13.47-.66,19.86,1,2.94,3,5.23,4.26,8,1.16,2.48,1.9,3.85,4.29,5.53,4.53,3.18,8.24,5.84,13.52,7.58a26,26,0,0,0,16,.2c3.41-1.08,8.43-3.7,10.77-6.37a13.57,13.57,0,0,0,2-3.4c1-2.2,1.19-4.15,3.33-5.11,1.4-.63,3-.95,4.48-1.48a26.19,26.19,0,0,1,5.1-1.17c1.29-.19,3.52-.54,4.58-1.35.9-.68.9-2,.75-3.12A24.38,24.38,0,0,0,183.24,278.13Z"/><path class="cls-5" d="M165.67,284.49a9.79,9.79,0,0,0-.13-2,11.58,11.58,0,0,0-.77-2.64,10.89,10.89,0,0,1-.79-1.73c-.57.91-.88,2.1-1.43,3.07a14.88,14.88,0,0,1-4.29,4.82c-5.06,5.32-14.1,7.36-21.21,6.4a20.15,20.15,0,0,1-11.81-5.7,21,21,0,0,1-6.76-8.49,21.47,21.47,0,0,1,.34,2.28q.41,1.6.9,3.18c3,9.29,11.44,17.94,21.43,18.85a27,27,0,0,0,10.08-.86c2.93-.86,6-2,8.16-4.2a19.84,19.84,0,0,0,4.3-5.36A19.22,19.22,0,0,0,165.67,284.49Z"/><path class="cls-6" d="M184.22,282.48a9.15,9.15,0,0,0-.31-1.14,37,37,0,0,0-1.68-4.7c-1-2-2.3-4.69-4.92-3.58-.26.11-.56.32-.52.61s.23.35.4.49c1.42,1.09,2.51,4.35,1.41,5.91a4,4,0,0,1-.33.37,50.56,50.56,0,0,1-9.36.79h-.07a.28.28,0,0,0-.13,0,.31.31,0,0,0-.19,0c-.39.12.71,3.48.9,3.82,1,1.73,4.12-.21,5.66-.41,1.39-.18,5.83-1.41,6.08,1,.06.6-.43,1.27-.06,1.74.64.82,2.7-.66,3.1-1.29C184.77,285.18,184.43,283.47,184.22,282.48Z"/><g class="cls-7"><path class="cls-8" d="M161.67,269.39a2.75,2.75,0,0,0,.44-1c.12-.79-.64-2-1-2.76a17.22,17.22,0,0,0-3.48-4.74,18.46,18.46,0,0,0-10.62-5c-7.83-.93-15.6.81-21.63,6.14a19,19,0,0,0-5.17,7.58,14.65,14.65,0,0,0-.88,3.58,7.18,7.18,0,0,0,.8,3.81c-.21-.47.65-2.24.82-2.73a28.81,28.81,0,0,1,1.14-2.77,20.79,20.79,0,0,1,4.32-6.7,23.08,23.08,0,0,1,11.73-5.5c4.45-.78,9.43-1,13.6,1a13.52,13.52,0,0,1,2.74,1.74c2.45,2,5.27,5.75,5.2,9.08,0,.13.08.28.2.26a.26.26,0,0,0,.14-.09A12.83,12.83,0,0,0,161.67,269.39Z"/><path class="cls-8" d="M139.09,252.72a.66.66,0,0,0-.16-.27c-.9-1-3.49-.23-4.55,0a20,20,0,0,0-5.56,2.11,21.14,21.14,0,0,0-3.23,2.24,7,7,0,0,0-1.28,1.15c-.08.11-.6,1.51-.44,1.47a5.91,5.91,0,0,0,2.23-1.5,18.68,18.68,0,0,1,12-4.61C138.5,253.31,139.18,253.12,139.09,252.72Z"/><path class="cls-8" d="M154.55,255a10.37,10.37,0,0,0-5.47-2.86,15.88,15.88,0,0,0-3.51-.33,3.2,3.2,0,0,0-1.78.3c-.76.59,0,.76.68.7a14.4,14.4,0,0,1,5.64.71,14.66,14.66,0,0,1,4.86,3.21c.07.05.15.11.23.08a.21.21,0,0,0,.13-.16,1.21,1.21,0,0,0-.21-1A5.27,5.27,0,0,0,154.55,255Z"/></g><path d="M185.86,281.91a27.26,27.26,0,0,0-3.15-8,12.58,12.58,0,0,0-5.26-4.91c-1.32-.7-5.42-2.89-6.76-2a3.37,3.37,0,0,0-.95,1.1,5,5,0,0,0-.87,3.55c.07.31.32.67.62.55a.64.64,0,0,0,.26-.3,3.83,3.83,0,0,1,1.19-1.45c2.08-1.4,5.06.84,6.59,2.14a18.23,18.23,0,0,1,4.85,7.16l.64,1.56a10.75,10.75,0,0,1,.43,1.2,7.73,7.73,0,0,1-.23,4.34,4.82,4.82,0,0,0,.06,2.5c.19.63.85,1.68,1.67,1.21.47-.26.3-1.3.36-1.77C185.6,286.41,186.31,284.28,185.86,281.91Z"/><path d="M190,293.52a2.26,2.26,0,0,0-1.65.43c-2.82,1.68-8.1.95-10.84-.66-1.22-.72-2.44-1.78-1.16-2.77s4.79-1.2,6.44-1.62c1.87-.47,1.08-3.36-.8-2.89-3.27.82-6.51,1.53-9.71,2.56-1,.32-2,.73-2.81-.2-.56-.65-.1-2.87-1.3-2.93-.5,0-.7.62-.74,1.11-.23,3-.52,6.21-1.84,9a16.94,16.94,0,0,1-9.43,8.29A30.92,30.92,0,0,1,143.54,306,33,33,0,0,1,125,298.59a23.12,23.12,0,0,1-4.15-4.84c-5.25-8-7.79-19.55-4.21-28.74,5.45-14,24-20.18,37-13.48a23.33,23.33,0,0,1,2.87,1.64,19.66,19.66,0,0,1,7,10.07c1.25,3.78,1.19,7.92,2.45,11.65a.83.83,0,0,0,.3.48c.38.21.78-.25.93-.66a5.13,5.13,0,0,0,.19-2.69c.39,1.93,4.37,1.78,5.75,1.92.82.08,3.69.48,4.32-.17s.27-1.55-.9-1.7c-2.16-.27-4.28-.93-6.43-1.25-1.48-.22-2,0-2.64-1.18-1.44-2.77-.42-6.25-2-8.9a41.75,41.75,0,0,0-4.38-6.6,18,18,0,0,0-10.5-6.36c-11.15-1.95-22,.17-30.43,7.8-4.47,4-6.75,10.43-7.41,16.42a34,34,0,0,0,9,26.54,28.36,28.36,0,0,0,6.53,5A33.7,33.7,0,0,0,151.06,308c7.54-1.26,16.22-5.28,18.23-13.32.24-1,.24-1.64,1-2.35.48-.43,2.23-1.44,2.65-.71a11.49,11.49,0,0,0,8.15,5.46,14.72,14.72,0,0,0,7.79-.95C190.74,295.35,191,293.78,190,293.52Z"/></g></svg>