<svg id="Nose_Mouth" xmlns="http://www.w3.org/2000/svg" xmlns:xlink="http://www.w3.org/1999/xlink" viewBox="0 0 500 500"><defs><style>.cls-1{fill:#f6a3ad;}.cls-2{fill:#ea7a92;}.cls-3{fill:#fff;}.cls-4{fill:url(#linear-gradient);}.cls-5{fill:url(#linear-gradient-2);}.cls-6{fill:url(#linear-gradient-3);}.cls-7{fill:url(#linear-gradient-4);}.cls-8{fill:url(#linear-gradient-5);}.cls-9{fill:url(#linear-gradient-6);}.cls-10{fill:url(#linear-gradient-7);}.cls-11{fill:url(#linear-gradient-8);}.cls-12{fill:url(#linear-gradient-9);}.cls-13{fill:url(#linear-gradient-10);}.cls-14{fill:url(#linear-gradient-11);}.cls-15{fill:url(#linear-gradient-12);}.cls-16{fill:url(#linear-gradient-13);}.cls-17{fill:url(#linear-gradient-14);}.cls-18{fill:url(#linear-gradient-15);}.cls-19{fill:url(#linear-gradient-16);}.cls-20{fill:url(#linear-gradient-17);}.cls-21{fill:url(#linear-gradient-18);}.cls-22{fill:url(#linear-gradient-19);}.cls-23{fill:url(#linear-gradient-20);}.cls-24{fill:url(#linear-gradient-21);}.cls-25{fill:url(#linear-gradient-22);}.cls-26{fill:url(#linear-gradient-23);}.cls-27{fill:url(#linear-gradient-24);}.cls-28{fill:url(#linear-gradient-25);}.cls-29{fill:url(#linear-gradient-26);}.cls-30{fill:#333;}</style><linearGradient id="linear-gradient" x1="173.25" y1="298.13" x2="173.25" y2="279.79" gradientUnits="userSpaceOnUse"><stop offset="0" stop-color="#dddcdb"/><stop offset="1" stop-color="#fcfbfa"/><stop offset="1" stop-color="#f8fcf6"/><stop offset="1" stop-color="#edfeeb"/><stop offset="1" stop-color="#eaffe8"/></linearGradient><linearGradient id="linear-gradient-2" x1="154.04" y1="295.77" x2="154.04" y2="288.34" xlink:href="#linear-gradient"/><linearGradient id="linear-gradient-3" x1="163.43" y1="299.68" x2="163.43" y2="288.58" xlink:href="#linear-gradient"/><linearGradient id="linear-gradient-4" x1="161.45" y1="295.73" x2="161.45" y2="284.44" xlink:href="#linear-gradient"/><linearGradient id="linear-gradient-5" x1="152.34" y1="290.29" x2="152.34" y2="282.14" xlink:href="#linear-gradient"/><linearGradient id="linear-gradient-6" x1="252.3" y1="288.14" x2="252.3" y2="285.34" xlink:href="#linear-gradient"/><linearGradient id="linear-gradient-7" x1="130.91" y1="274.31" x2="130.91" y2="268.7" xlink:href="#linear-gradient"/><linearGradient id="linear-gradient-8" x1="175.08" y1="303.47" x2="175.08" y2="282.62" xlink:href="#linear-gradient"/><linearGradient id="linear-gradient-9" x1="143.65" y1="284.66" x2="143.65" y2="278.77" xlink:href="#linear-gradient"/><linearGradient id="linear-gradient-10" x1="135.88" y1="277.12" x2="135.88" y2="273.96" xlink:href="#linear-gradient"/><linearGradient id="linear-gradient-11" x1="137.29" y1="284.43" x2="137.29" y2="278.01" xlink:href="#linear-gradient"/><linearGradient id="linear-gradient-12" x1="145.78" y1="291.47" x2="145.78" y2="283.22" xlink:href="#linear-gradient"/><linearGradient id="linear-gradient-13" x1="223.26" y1="300.24" x2="223.26" y2="291.99" xlink:href="#linear-gradient"/><linearGradient id="linear-gradient-14" x1="187.53" y1="304.87" x2="187.53" y2="295.02" xlink:href="#linear-gradient"/><linearGradient id="linear-gradient-15" x1="207.01" y1="305.63" x2="207.01" y2="299.5" xlink:href="#linear-gradient"/><linearGradient id="linear-gradient-16" x1="214.29" y1="303.24" x2="214.29" y2="292.59" xlink:href="#linear-gradient"/><linearGradient id="linear-gradient-17" x1="186.64" y1="302.15" x2="186.64" y2="279.42" xlink:href="#linear-gradient"/><linearGradient id="linear-gradient-18" x1="205.01" y1="303.82" x2="205.01" y2="291.54" xlink:href="#linear-gradient"/><linearGradient id="linear-gradient-19" x1="196.17" y1="304.7" x2="196.17" y2="288.67" xlink:href="#linear-gradient"/><linearGradient id="linear-gradient-20" x1="217.99" y1="304.16" x2="217.99" y2="299.15" xlink:href="#linear-gradient"/><linearGradient id="linear-gradient-21" x1="245.85" y1="291.73" x2="245.85" y2="287.71" xlink:href="#linear-gradient"/><linearGradient id="linear-gradient-22" x1="197.23" y1="305.65" x2="197.23" y2="299.91" xlink:href="#linear-gradient"/><linearGradient id="linear-gradient-23" x1="237.05" y1="296.75" x2="237.05" y2="292.8" xlink:href="#linear-gradient"/><linearGradient id="linear-gradient-24" x1="240.65" y1="293.76" x2="240.65" y2="289.24" xlink:href="#linear-gradient"/><linearGradient id="linear-gradient-25" x1="227.42" y1="301.44" x2="227.42" y2="296.2" xlink:href="#linear-gradient"/><linearGradient id="linear-gradient-26" x1="232.26" y1="297.62" x2="232.26" y2="290.87" xlink:href="#linear-gradient"/></defs><g id="_1_Nose_Mouth_rose" data-name="1_Nose_Mouth_rose"><path class="cls-1" d="M190.81,252.21c4.29-2.08,9-3.69,13.43-5.65,3.61-1.6,11.41-5.24,10.59-10.35-.47-2.87-4-4.36-6.37-5.34a57,57,0,0,0-19.23-4.07c-3.5-.09-14.3-.07-14.16,5.4.07,2.87,2.39,9.66,5.75,14.64C183.65,251,187.22,254,190.81,252.21Z"/><path class="cls-2" d="M190.81,252.21c4.29-2.08,9-3.69,13.43-5.65,3.61-1.6,11.41-5.24,10.59-10.35-.34-2.07-2.68-6.65-5.46-5.62-.86.32-1.31,1.24-1.78,2a22,22,0,0,1-2,2.62,36.07,36.07,0,0,1-6.42,6.47,28.76,28.76,0,0,1-6.55,3.36,9.79,9.79,0,0,1-7.14.25,12.28,12.28,0,0,1-5.62-4.95c-1-1.74-2.22-4.28-4.24-5.06-.31,1.37.83,2.84,1.34,4.11a38.37,38.37,0,0,0,3.84,7.42C183.65,251,187.22,254,190.81,252.21Z"/><path class="cls-3" d="M189.22,230.23a2.54,2.54,0,0,0-1.5-1.15,18.41,18.41,0,0,0-3.47-.44,17.76,17.76,0,0,0-3.49.3,2.51,2.51,0,0,0-1.5,1.15A2.6,2.6,0,0,0,179,232a2.53,2.53,0,0,0,1.15,1.49l.6.25a2.5,2.5,0,0,0,1.33,0l.12,0a15.16,15.16,0,0,1,3.23,0c.32.05.64.1.95.17a2.64,2.64,0,0,0,1.93-.25,2.58,2.58,0,0,0,1.15-1.5A2.52,2.52,0,0,0,189.22,230.23Z"/><path class="cls-3" d="M183.69,234.84c-3.22,0-3.22,5,0,5S186.91,234.84,183.69,234.84Z"/><path class="cls-4" d="M171.43,283.48l-1.89.37c-.08,2.25-.65,4.46-1,6.72a41.54,41.54,0,0,0-.33,7.56,194,194,0,0,0,10-18.34A15.15,15.15,0,0,1,171.43,283.48Z"/><path class="cls-5" d="M152.65,293.44a1.48,1.48,0,0,1-.42.44c1.17.66,2.38,1.29,3.62,1.89a68.3,68.3,0,0,1-.34-7.43C154.63,290.07,153.69,291.78,152.65,293.44Z"/><path class="cls-6" d="M165.34,299.68a47.16,47.16,0,0,1,.21-9c.09-.71.2-1.42.32-2.13-1.49,3.22-3.11,6.39-4.88,9.48Q163.14,298.91,165.34,299.68Z"/><path class="cls-7" d="M163.71,284.66a29.74,29.74,0,0,1-5.06-.22,68.64,68.64,0,0,0,.2,11.29,118.77,118.77,0,0,0,5.53-11.13Z"/><path class="cls-8" d="M150.41,282.14a18.21,18.21,0,0,0,.62,8.15,66.76,66.76,0,0,0,3.43-6.68A27.17,27.17,0,0,1,150.41,282.14Z"/><path class="cls-9" d="M250.25,288.14a19.14,19.14,0,0,1,4.12-2.8q-2.06.77-4.14,1.44a.77.77,0,0,0,0,.15A9.77,9.77,0,0,1,250.25,288.14Z"/><path class="cls-10" d="M131.78,274.31c0-.32,0-.63,0-.95s.15-.73.2-1.11,0-.61.06-.91q-1.2-1.27-2.28-2.64A28.88,28.88,0,0,0,131.78,274.31Z"/><path class="cls-11" d="M169.91,301.13a91.91,91.91,0,0,0,9.81,2.27l.39.07a193.35,193.35,0,0,1,.15-20.85A191.65,191.65,0,0,1,169.91,301.13Z"/><path class="cls-12" d="M141.8,278.77a17.48,17.48,0,0,0,.49,5.89,27.27,27.27,0,0,0,3.27-4.15A36.6,36.6,0,0,1,141.8,278.77Z"/><path class="cls-13" d="M136.27,276.34l.44-.36c.1-.08.18-.18.27-.26-.75-.56-1.48-1.14-2.19-1.76a14,14,0,0,0,.28,3.16c.29-.17.58-.35.86-.54Z"/><path class="cls-14" d="M138.87,278a14.25,14.25,0,0,1-3.44,2.24,36.15,36.15,0,0,0,3.73,4.18A20.37,20.37,0,0,1,138.87,278Z"/><path class="cls-15" d="M147.33,283.22a28.31,28.31,0,0,1-4.07,4.69c1.62,1.21,3.33,2.43,5,3.56A20.43,20.43,0,0,1,147.33,283.22Z"/><path class="cls-16" d="M220.84,296.15c0-.15,0-.13,0,.06a11.32,11.32,0,0,0,.23,1.13,10.68,10.68,0,0,0,.33,1.1c.06.18.13.35.2.53,0,0,.17.35.18.38.15.31.32.6.49.89a14.05,14.05,0,0,0,3.48-8.25c-1.24.13-2.48.25-3.73.34l-1.2.08a2,2,0,0,1,0,.77c0,.08,0,.16,0,.24s0,.06,0,.12,0,.41-.05.62c0,.38,0,.76,0,1.15,0,.18,0,.36,0,.53Z"/><path class="cls-17" d="M185.22,304.3c1.39.21,2.78.4,4.18.57,0-3.29.16-6.58.43-9.85q-.36,1-.78,2A46.69,46.69,0,0,1,185.22,304.3Z"/><path class="cls-18" d="M209.7,305.18a29.85,29.85,0,0,1-1.1-5.68,21.15,21.15,0,0,1-4.28,6.13C206.14,305.56,207.93,305.41,209.7,305.18Z"/><path class="cls-19" d="M217.15,292.59c-1.82.06-3.64.08-5.46.05a2.17,2.17,0,0,1,0,.36,26.2,26.2,0,0,0,.6,10.24A17.56,17.56,0,0,0,217.15,292.59Z"/><path class="cls-20" d="M183.05,302.15a43.26,43.26,0,0,0,3.45-6.74c1.14-2.87,1.81-5.94,3.8-8.39,0,0,0,0,.07-.06s0,0-.05,0a16.87,16.87,0,0,1-2.51-1.72,15.18,15.18,0,0,1-4.3-5.79A193.7,193.7,0,0,0,183.05,302.15Z"/><path class="cls-21" d="M208.12,292.5a15.9,15.9,0,0,1-4-.78c-.46-.05-.91-.11-1.36-.18a1.41,1.41,0,0,1,0,.29,63.43,63.43,0,0,0-.91,12C205.19,301,206.79,296.58,208.12,292.5Z"/><path class="cls-22" d="M199.89,291.2l0-.17a.43.43,0,0,0,0,0,31.53,31.53,0,0,1-6.43-2.31,119.36,119.36,0,0,0-1.09,16,68.23,68.23,0,0,0,7.38-13.29A2,2,0,0,1,199.89,291.2Z"/><path class="cls-23" d="M220.5,302.91a14.55,14.55,0,0,1-2-3.76,20.71,20.71,0,0,1-3,5Q218,303.62,220.5,302.91Z"/><path class="cls-24" d="M246.85,290.3a1.2,1.2,0,0,1,0-.57,7.5,7.5,0,0,0,.33-1.34c0-.22,0-.45.05-.68l-.52.16c-.74.22-1.48.42-2.22.62a11.33,11.33,0,0,1-.09,3.24Z"/><path class="cls-25" d="M195.49,305.47c1.15.08,2.3.14,3.44.18-.08-1.92-.05-3.83,0-5.74C197.9,301.82,196.73,303.66,195.49,305.47Z"/><path class="cls-26" d="M236.92,292.8a11,11,0,0,1-.95,3.95c.73-.39,1.45-.79,2.16-1.21A9.21,9.21,0,0,1,236.92,292.8Z"/><path class="cls-27" d="M239.68,291.29s0,.1,0,.15,0,.19.05.28c0,.25.11.49.18.73s.09.26.14.39a.49.49,0,0,0,0,.11c.12.2.2.43.32.63a1.74,1.74,0,0,0,.11.18h0c.15-.24.28-.48.4-.72l.12-.26.06-.14a10,10,0,0,0,.4-1.39c0-.14.05-.27.07-.41h0c0-.24,0-.48,0-.72s0-.52,0-.78a.22.22,0,0,1,0-.08l-1.91.45s0,.05,0,.07A7.12,7.12,0,0,0,239.68,291.29Z"/><path class="cls-28" d="M229.65,299.72A10.68,10.68,0,0,1,228,296.2a17.16,17.16,0,0,1-2.78,5.24C226.69,300.92,228.18,300.34,229.65,299.72Z"/><path class="cls-29" d="M230.62,292.38a1.05,1.05,0,0,0,0,.13c0,.16,0,.32,0,.48a7.21,7.21,0,0,0,0,1l0,.37s0,.24.06.32c.06.32.14.64.23.95l.18.53.08.2a8.93,8.93,0,0,0,.45.87c.07.12.15.23.23.35.14-.15.29-.29.42-.44l0-.06c.06-.08.12-.15.17-.23l.3-.45a10.83,10.83,0,0,0,.53-1l0-.06v0l.09-.25c.07-.17.12-.34.18-.51a9.59,9.59,0,0,0,.27-1.18.46.46,0,0,0,0-.14l0-.13c0-.2,0-.41,0-.61a8.69,8.69,0,0,0,0-1.14s0-.08,0-.14a.35.35,0,0,0,0-.13,1.84,1.84,0,0,0,0-.25c-1.08.18-2.15.35-3.23.51a1.92,1.92,0,0,1,0,.86Z"/><path class="cls-30" d="M243.79,287.15a1.61,1.61,0,0,0-1.16-.15,1.54,1.54,0,0,0-.89.69,1.78,1.78,0,0,0-.16,1.11v0a1.5,1.5,0,0,0,0,.2l0,.36q0,.39,0,.78c0,.24,0,.48,0,.72h0c0,.14,0,.27-.07.41a10,10,0,0,1-.4,1.39l-.06.14-.12.26c-.12.24-.25.48-.4.72h0a1.74,1.74,0,0,1-.11-.18c-.12-.2-.2-.43-.32-.63a.49.49,0,0,1,0-.11c-.05-.13-.1-.26-.14-.39s-.13-.48-.18-.73c0-.09,0-.19-.05-.28s0-.1,0-.15a7.12,7.12,0,0,1,0-1.53,1.47,1.47,0,0,0-.44-1.06,1.54,1.54,0,0,0-1.06-.44,1.56,1.56,0,0,0-1.06.44,1.82,1.82,0,0,0-.44,1.06,1.93,1.93,0,0,0,0,.24c0-.09,0-.18,0-.27a1.52,1.52,0,0,0-1.84-1.05,1.53,1.53,0,0,0-1.05,1.85,5.6,5.6,0,0,1,.12.59.35.35,0,0,1,0,.13c0,.06,0,.12,0,.14a8.69,8.69,0,0,1,0,1.14c0,.2,0,.41,0,.61l0,.13a.46.46,0,0,1,0,.14,9.59,9.59,0,0,1-.27,1.18c-.06.17-.11.34-.18.51l-.09.25v0l0,.06a10.83,10.83,0,0,1-.53,1l-.3.45c-.05.08-.11.15-.17.23l0,.06c-.13.15-.28.29-.42.44-.08-.12-.16-.23-.23-.35a8.93,8.93,0,0,1-.45-.87l-.08-.2-.18-.53c-.09-.31-.17-.63-.23-.95,0-.08,0-.33-.06-.32l0-.37a7.21,7.21,0,0,1,0-1c0-.16,0-.32,0-.48a1.05,1.05,0,0,1,0-.13l0-.14a1.53,1.53,0,0,0-1-1.85,1.76,1.76,0,0,0-1.24.21,1.49,1.49,0,0,0-2.57,1,14,14,0,0,1-3.51,8.6c-.17-.29-.34-.58-.49-.89,0,0-.16-.35-.18-.38-.07-.18-.14-.35-.2-.53a10.68,10.68,0,0,1-.33-1.1,11.32,11.32,0,0,1-.23-1.13c0-.19,0-.21,0-.06l0-.31c0-.17,0-.35,0-.53,0-.39,0-.77,0-1.15,0-.21,0-.41.05-.62s0-.09,0-.12,0-.16,0-.24a1.55,1.55,0,0,0-.94-1.8,1.6,1.6,0,0,0-1.25-.67,1.53,1.53,0,0,0-1.5,1.5,17.52,17.52,0,0,1-4.91,11,26.2,26.2,0,0,1-.6-10.24,1.55,1.55,0,0,0-1-1.85l-.14,0a1.53,1.53,0,0,0-2.21.85c-1.36,4.23-3,8.85-6.39,11.84a63.43,63.43,0,0,1,.91-12,1.55,1.55,0,0,0-1.05-1.84,1.5,1.5,0,0,0-1.84,1l0,.17a2,2,0,0,0-.1.21,68.23,68.23,0,0,1-7.38,13.29,119,119,0,0,1,1.11-16.23,1.55,1.55,0,0,0-1-1.85,1.59,1.59,0,0,0-.78,0,1.37,1.37,0,0,0-1.4.38c-2,2.45-2.66,5.52-3.8,8.39a43.26,43.26,0,0,1-3.45,6.74,192.3,192.3,0,0,1,.71-26,1.25,1.25,0,0,0-1.22-1.43,1.3,1.3,0,0,0-2.1.44,192.74,192.74,0,0,1-12.19,22.93,41.54,41.54,0,0,1,.33-7.56c.37-2.7,1.14-5.35.95-8.07-1.46.21-2.93.35-4.42.43a121.17,121.17,0,0,1-6.26,12.8,68.31,68.31,0,0,1-.1-12.87c-1.26-.1-2.51-.27-3.75-.48a67.18,67.18,0,0,1-4,7.91,19.08,19.08,0,0,1-.52-9,27.22,27.22,0,0,1-4.35-1.79,26.4,26.4,0,0,1-3.87,5.12,17.64,17.64,0,0,1-.28-7.58c-1.29-.85-2.55-1.75-3.8-2.66-.22.26-.43.52-.66.76s-.55.55-.84.8l-.44.36-.34.24c-.28.19-.57.37-.86.54a14.07,14.07,0,0,1-.13-5.05c-.6-.42-1.2-.84-1.81-1.25a8.93,8.93,0,0,1-1-.83v0c0,.27,0,.55,0,.82l0,0a2.07,2.07,0,0,1,0,.22c0,.4,0,.81-.08,1.23s-.12.75-.2,1.11a17.1,17.1,0,0,0,.52,5.18,1.45,1.45,0,0,0,.77.92,1.5,1.5,0,0,0,1.84,1,14,14,0,0,0,4-2.48,20.19,20.19,0,0,0,.68,8.06,1.39,1.39,0,0,0,1.13,1,1.56,1.56,0,0,0,.42.86,1.54,1.54,0,0,0,2.12,0,28.89,28.89,0,0,0,4.11-4.74,19.35,19.35,0,0,0,1.65,9.92,1.45,1.45,0,0,0,1.5.72,1.51,1.51,0,0,0,2.17-.42c1-1.66,2-3.37,2.86-5.1a69.58,69.58,0,0,0,.42,8.28,1.54,1.54,0,0,0,1.52,1.48,1.62,1.62,0,0,0,.76-.24,1.53,1.53,0,0,0,2.74.28c1.79-3.11,3.41-6.31,4.92-9.56-.12.71-.23,1.42-.32,2.13a47.64,47.64,0,0,0-.19,9.4,1.55,1.55,0,0,0,1.63,1.42,1.57,1.57,0,0,0,2.64,0,191.22,191.22,0,0,0,10.63-18.95,191.71,191.71,0,0,0-.11,21.84,1.57,1.57,0,0,0,2.31,1.26,1.55,1.55,0,0,0,2.13-.43,46.35,46.35,0,0,0,4.46-8.26q.42-1,.78-2c-.29,3.57-.45,7.15-.43,10.74a1.52,1.52,0,0,0,2.51,1.1,1.64,1.64,0,0,0,.55.59,1.53,1.53,0,0,0,2-.54,68.33,68.33,0,0,0,4.45-7c-.08,1.95-.11,3.9,0,5.85a1.51,1.51,0,0,0,1.68,1.44,1.45,1.45,0,0,0,1.66.11,19.36,19.36,0,0,0,6.33-7.81,29.56,29.56,0,0,0,1.24,6.15,1.48,1.48,0,0,0,2.63.5,1.39,1.39,0,0,0,1.49-.33,20.25,20.25,0,0,0,4.57-6.67,14.2,14.2,0,0,0,2.21,4.1,1.51,1.51,0,0,0,2.11,0,1.44,1.44,0,0,0,1.12-.42,17,17,0,0,0,4-6.64,10.45,10.45,0,0,0,2.57,4.59,1.51,1.51,0,0,0,2.12,0,1.32,1.32,0,0,0,.16-.25,1.51,1.51,0,0,0,.72-.37,10.79,10.79,0,0,0,3.38-7.37,9.1,9.1,0,0,0,2.07,3.87,1.44,1.44,0,0,0,2.48-.74,1.48,1.48,0,0,0,1.65-.66,10.74,10.74,0,0,0,1.36-7.22A1.49,1.49,0,0,0,243.79,287.15Z"/><path class="cls-30" d="M250.25,286.93a1.63,1.63,0,0,0-.44-1.06,1.56,1.56,0,0,0-1.06-.44,1.54,1.54,0,0,0-1.06.44,1.47,1.47,0,0,0-.44,1.06,7.9,7.9,0,0,1,0,1.46,7.5,7.5,0,0,1-.33,1.34,1.56,1.56,0,0,0,.15,1.16,1.52,1.52,0,0,0,.9.69,1.49,1.49,0,0,0,1.15-.15,1.59,1.59,0,0,0,.69-.9A9,9,0,0,0,250.25,286.93Z"/><path d="M260.73,279.11c-2.75,1.32-5.23,3.18-8.16,4.11a152.67,152.67,0,0,1-16,4.09c-8.87,1.8-18,3-27.08,2.09-6.63-.66-14.07-2.16-19.25-6.66-6.75-5.87-4.7-15.77-2.86-23.46.27-1.14.6-2.6,2-3,2.85-.9,5.52-2.22,8.26-3.37,3.08-1.28,6-2.87,9-4.2,3.72-1.62,8.68-4.27,10.7-7.95,2.2-4,1.21-8.32-2.74-10.65-2.18-1.28-5.45-3.55-8-3.79-1.91-.19-3.63-1.07-5.51-1.32a55.75,55.75,0,0,0-9.84-.89c-2.34.1-4.67.36-7,.47A30.21,30.21,0,0,0,172.55,228c-3.15,1.52,0,8.76.95,10.81a28.92,28.92,0,0,0,2.93,5.32c1.53,2,3.14,3.94,4.52,6a14.3,14.3,0,0,0,2.38,2.88,4.7,4.7,0,0,1,1.28,5.58c-2.05,5.2-2.37,10.91-5.42,15.34l-.27.4a22.26,22.26,0,0,1-4.76,4.37,12.76,12.76,0,0,1-6,2.45c-9.88,1.72-20.48-1.65-28.63-7.37a34.75,34.75,0,0,1-6.13-5.49,53.46,53.46,0,0,1-4.61-6.47c-1.27-2-2.65-2.69-2.72.39a1.56,1.56,0,0,0,0,.31c.3,4.22.66,8.31,2.78,12.07a58.61,58.61,0,0,0,6.87,9.69c8.19,9.42,20.33,14.56,31.77,19.07a92.5,92.5,0,0,0,12,3.41,79.2,79.2,0,0,0,13.69,2.1,81.15,81.15,0,0,0,21.49-1.43c12.54-2.56,24.45-8.79,35.33-15.57,4.43-2.77,8.92-6.1,12.13-10.28C263.72,279.59,263.66,277.71,260.73,279.11Zm-79.91-32.27c-3.36-5-5.68-11.77-5.75-14.64-.14-5.47,10.66-5.49,14.16-5.4a57,57,0,0,1,19.23,4.07c2.35,1,5.9,2.47,6.37,5.34.82,5.11-7,8.75-10.59,10.35-4.4,2-9.14,3.57-13.43,5.65C187.22,254,183.65,251,180.82,246.84ZM235.54,297c-.64.34-1.28.67-1.94,1a81,81,0,0,1-23.3,7.13c-10,1.44-20.74,0-30.58-1.7s-21.32-5.56-29.91-10.95c-2.29-1.44-4.66-3.12-6.84-4.75-6.25-4.68-11.37-11.41-13.2-19a37.52,37.52,0,0,0,20.12,13.21,29.27,29.27,0,0,0,13.82,2.75,57.57,57.57,0,0,0,7.72-1.18c3.59-.68,8.08-3.92,9.62-7.29.37-.8,1-.6,1.52,0a1.86,1.86,0,0,1,.42,1.08c.39,3.39,2.45,5.79,4.82,8a16.87,16.87,0,0,0,2.51,1.72,32.3,32.3,0,0,0,13.85,4.79,18.19,18.19,0,0,0,5.43.87,109.69,109.69,0,0,0,12.43-.26,119.33,119.33,0,0,0,24.72-4.46c2.57-.75,5.11-1.6,7.62-2.53-1.71.63-3.5,2.48-5.06,3.47-1.8,1.16-3.68,2.18-5.5,3.29C241.06,293.79,238.38,295.49,235.54,297Z"/><path d="M247.52,274.23c-.9,0-2.05,1.64-2,2.85a2,2,0,0,0,2,2.06c.91-.07,2.07-1.73,2.19-3.12C249.75,275.51,248.16,274.21,247.52,274.23Z"/><path d="M243.48,260a2.31,2.31,0,0,0-2.11,2.38c0,1.29.54,1.89,1.79,1.89s2.92-1.52,2.8-2.36A4.74,4.74,0,0,0,243.48,260Z"/><path d="M152.74,237.63a2.17,2.17,0,0,0-2,1.89,2.39,2.39,0,0,0,2.15,2.35,2.44,2.44,0,0,0,2.28-2C155.2,239.15,153.66,237.7,152.74,237.63Z"/><path d="M263.48,267.28a1.74,1.74,0,0,0-1.85,2c0,1,1.13,2.36,1.91,2.36a2.78,2.78,0,0,0,2.13-2.33A2.15,2.15,0,0,0,263.48,267.28Z"/><path d="M146.9,260.25a5.24,5.24,0,0,0,1.83-2.08,2.31,2.31,0,0,0-2.14-2.09,2.14,2.14,0,0,0-2.32,2.13A3,3,0,0,0,146.9,260.25Z"/><path d="M161,251.72c-.09,1.28.63,1.94,2.24,2.07.87.07,1.46-.74,1.54-2.08s-.33-1.7-1.83-1.77C161.73,249.89,161.12,250.45,161,251.72Z"/><path d="M256.9,250.12a2,2,0,0,0-1.73,2.16,2.07,2.07,0,0,0,1.78,1.59c1.3,0,2.05-.59,2-1.67A2.18,2.18,0,0,0,256.9,250.12Z"/></g></svg>