<svg id="Nose_Mouth" xmlns="http://www.w3.org/2000/svg" xmlns:xlink="http://www.w3.org/1999/xlink" viewBox="0 0 500 500"><defs><style>.cls-1{fill:url(#linear-gradient);}.cls-2{fill:#f6a3ad;}.cls-3{fill:#ea7a92;}.cls-4{fill:#d66582;}.cls-5{fill:#fcfbfa;}.cls-6{fill:#dddcdb;}.cls-7{fill:#fff;}.cls-8{fill:#8cdbf4;}.cls-11,.cls-8,.cls-9{opacity:0.51;}.cls-10{fill:#71cef3;}.cls-11{fill:#a9e8f7;}</style><linearGradient id="linear-gradient" x1="166.01" y1="316.05" x2="206.09" y2="265.53" gradientUnits="userSpaceOnUse"><stop offset="0" stop-color="#d66582"/><stop offset="0.48" stop-color="#be4f65"/><stop offset="1" stop-color="#a03541"/></linearGradient></defs><path class="cls-1" d="M228.17,263.06c-.63-1.88-1.37-2.93-3.72-2.42L209.18,264a48.44,48.44,0,0,1-5,.91,41.82,41.82,0,0,1-6,.19,116,116,0,0,1-14.43-1.28q-3.5-.53-6.94-1.27c-1.11-.24-5.32-1.89-6.16-1a1.72,1.72,0,0,0-.32,1.25,32.58,32.58,0,0,0,1.27,7.18c.58,2.34.72,4.73,1.3,7q2,7.95,4.29,15.82a20.05,20.05,0,0,0,1.52,4.08,15.34,15.34,0,0,0,3.85,4.4A27,27,0,0,0,198,307.21a27.87,27.87,0,0,0,11.07-1.64c3.75-1.36,5.83-3.41,8.41-6.15A62.54,62.54,0,0,0,222,294c1.19-1.59,2.79-3.41,3.48-5.24a14.94,14.94,0,0,0,1.39-5.22,17,17,0,0,1,.62-4.15c.37-1.79.66-3.59.85-5.4C228.71,270.74,229.32,266.47,228.17,263.06Z"/><path class="cls-2" d="M216.62,282.78c-3.54-1.84-8.24-2.81-12.26-3.36-.67-.09-7.35-.75-7.33-.3-.08-1.59-3.25-2.05-4.55-2.38a18.46,18.46,0,0,0-6.83-.26c-6.31.88-13.08,3.54-16.67,8.52a18.05,18.05,0,0,0-2.9,14.89c1.36,5.22,6.22,8.69,11.57,10.44,2.91,1,5.44.75,8.48.77,4.12,0,10-.36,13.36-2.68,1.21-.83,1.74-2.05,2.88-2.93a11.84,11.84,0,0,1,4.47-1.92c2.47-.59,5.07-.81,7.36-1.82,3.78-1.66,6.11-5.15,7.91-8.59.91-1.75,1.75-3.82.82-5.57a6.3,6.3,0,0,0-1.67-1.79A28.21,28.21,0,0,0,216.62,282.78Z"/><path class="cls-3" d="M197.15,278.71c-2.18,0-4.21,1.18-6,2.24a28.54,28.54,0,0,0-5,3.77c-2.13,2-4.41,4.61-5.27,7.35-.26.79-.23,2.05,1,2.2s1.62-1.07,2-1.75a28.11,28.11,0,0,1,4.33-5.62,24.88,24.88,0,0,1,4.06-3.2c1.39-.88,3.18-2.12,4.94-2.14A1.43,1.43,0,1,0,197.15,278.71Z"/><path class="cls-3" d="M213.27,291.84a36.91,36.91,0,0,1-11.16,8.51c-6.08,3.11-14.77,5.61-21.75,3.92a14,14,0,0,1-9.83-8.4c-1.35-3.72-.78-7.76-.19-11.63-5.33,6.37-6.46,16.4.42,22.28a17.75,17.75,0,0,0,5.33,2.9,25.8,25.8,0,0,0,8.64,1.85,36.18,36.18,0,0,0,7.74-1,16.9,16.9,0,0,0,3.08-.85c3.74-1.58,6.92-4.54,11.32-4.55.78,0,1.57.09,2.34,0a9.09,9.09,0,0,0,3.34-1.22,29.32,29.32,0,0,0,8.31-6.23,14,14,0,0,0,3.76-9,1.84,1.84,0,0,0-.13-.81c-.31-.65-1.17-.88-1.88-1.16a25.43,25.43,0,0,1-5.11-3.13,4.14,4.14,0,0,0-3.17-.85C215,285.33,215.33,289.4,213.27,291.84Z"/><path class="cls-4" d="M197.92,305.22a10.84,10.84,0,0,1-2.33,1.31,23.15,23.15,0,0,1-9.36,1.35c-4.35-.2-9.2-1-12.95-3.16-3.17-1.8-4.51-4.48-6.36-7.22-.15-.22-.36-.47-.64-.43s-.44.51-.39.85c.62,5.09,4.73,9.66,9.79,11.78a26.15,26.15,0,0,0,5.56,1.54,31,31,0,0,0,15-1c3.34-1.07,3.28-3.85,5.85-5.45,1.33-.82,3.16-.51,4.6.13a8.24,8.24,0,0,0,2.18.83,5.15,5.15,0,0,0,3.31-.9,19.62,19.62,0,0,0,6.06-6c2-3,4.72-5.38,6.66-8.43a2.74,2.74,0,0,0,.64-2,2.9,2.9,0,0,0-1-1.34,2.63,2.63,0,0,0-1.75-.88c-1.46.06-3.47,3-4.23,3.94-1.4,1.74-2.7,3.55-4.17,5.24a19.12,19.12,0,0,1-7.4,5.56c-1.35.51-2.8.81-4.17,1.29A20.18,20.18,0,0,0,197.92,305.22Z"/><path class="cls-5" d="M183.87,283.61a1.74,1.74,0,0,0-2.22-.16,14.83,14.83,0,0,0-5.28,7.09,1.42,1.42,0,0,0,1,1.82,1.63,1.63,0,0,0,2-.88,13.59,13.59,0,0,1,.79-1.84s.24-.41.07-.13l.28-.47q.26-.39.54-.78t.6-.75l.37-.41.16-.16a13,13,0,0,1,1.54-1.31A1.36,1.36,0,0,0,183.87,283.61Z"/><path class="cls-5" d="M202.12,287.74a2.25,2.25,0,0,0-1.18-1.35,1.42,1.42,0,0,0-.54-.3c-2.81-.75-5.75,1.16-7.65,2.87a14.24,14.24,0,0,0-4.21,6.47,1.57,1.57,0,0,0,2.78,1.29,17.46,17.46,0,0,1,7.76-5.21,5.63,5.63,0,0,0,2.42-1.36A2.55,2.55,0,0,0,202.12,287.74Z"/><path class="cls-5" d="M208.18,283.66l-.12-.35a1.49,1.49,0,0,0-.53-.56,5,5,0,0,0-1.22-.47,5.26,5.26,0,0,0-1.31-.14,1.35,1.35,0,0,0-.6.08,1.15,1.15,0,0,0-.53.26,1.11,1.11,0,0,0-.37.44,1.09,1.09,0,0,0-.18.55,1.35,1.35,0,0,0,.37,1l.3.25a1.67,1.67,0,0,0,.79.25,3.23,3.23,0,0,1,.62,0,3.57,3.57,0,0,1,.61.19l-.24-.11a1.22,1.22,0,0,0,.55.2,1.3,1.3,0,0,0,.62,0,1.21,1.21,0,0,0,.55-.22,1.06,1.06,0,0,0,.44-.37l.19-.34A1.18,1.18,0,0,0,208.18,283.66Z"/><path class="cls-5" d="M183,264.75a3.55,3.55,0,0,0-1.8-1.35,16.46,16.46,0,0,0-4.33-1,14,14,0,0,1-2.14-.43,9.88,9.88,0,0,1-1.86-.95,1.85,1.85,0,0,0-1.48-.2.84.84,0,0,0-.23-.12,1,1,0,0,0-1.23.7,17.42,17.42,0,0,0-1.09,5.52,10,10,0,0,0,.13,2.45,3.63,3.63,0,0,0,1.53,2.16c1.36,1,2.84,1.89,4.6,1.63a11.48,11.48,0,0,0,4.56-2.22,8.48,8.48,0,0,0,3.09-3.79A3.08,3.08,0,0,0,183,264.75Z"/><path class="cls-6" d="M183,264.75a3.55,3.55,0,0,0-1.8-1.35,16.46,16.46,0,0,0-4.33-1,14,14,0,0,1-2.14-.43,9.88,9.88,0,0,1-1.86-.95,2.26,2.26,0,0,0-3.4,1.08c-.72,1.8.62,2.68,2.28,3.2a33.63,33.63,0,0,0,5.48,1.4,31.39,31.39,0,0,1,3.37.46C182.21,267.58,184.16,267,183,264.75Z"/><path d="M182.5,264.45a14.16,14.16,0,0,1-3.23,5.83c-1.35,1.45-3.37,3.22-5.51,2.79s-3.38-2.42-3.74-4.4c-.46-2.54.28-5.09,1-7.51.36-1.23-1.51-2-1.87-.71-1.19,4.11-2.43,9.4,1,12.82a6,6,0,0,0,5.52,1.72,11.12,11.12,0,0,0,5.21-3.54,15.82,15.82,0,0,0,3.47-6.29C184.71,263.93,182.85,263.21,182.5,264.45Z"/><path class="cls-5" d="M223.62,260.39a79.32,79.32,0,0,1-9.19,2.58,6.87,6.87,0,0,0-2.07.54,1.3,1.3,0,0,0-.4.37.89.89,0,0,0-.87.7,7.68,7.68,0,0,0,.68,5.36,5.64,5.64,0,0,0,3.7,3.41,5.85,5.85,0,0,0,4.67-1.1,9.89,9.89,0,0,0,3-4.26,25.08,25.08,0,0,0,1.69-6.37C224.94,260.93,224.43,260.11,223.62,260.39Z"/><path class="cls-6" d="M223.62,260.39a79.32,79.32,0,0,1-9.19,2.58,6.87,6.87,0,0,0-2.07.54,1.3,1.3,0,0,0-.4.37c-2,.07-1.29,3.79.73,3.87a4.08,4.08,0,0,0,1.42-.28c3.06-1,6.8-1.62,9.63-3.11,1.2-.63,1.11-.79,1.1-2C224.83,261.62,224.91,259.94,223.62,260.39Z"/><path d="M223.6,260.91c0,1.39-.1,2.77-.21,4.15a15.81,15.81,0,0,1-.58,3.63,6.65,6.65,0,0,1-3.88,4.07c-1.75.71-4.11.76-5.6-.56a4.36,4.36,0,0,1-1.19-2.93,35.94,35.94,0,0,1-.23-4.27,1,1,0,0,0-2,0,38.57,38.57,0,0,0,.19,3.87,9.7,9.7,0,0,0,.78,3.36,6,6,0,0,0,5,3,8.79,8.79,0,0,0,8.83-6,17.82,17.82,0,0,0,.64-4c.11-1.42.18-2.85.22-4.28S223.64,259.62,223.6,260.91Z"/><path class="cls-5" d="M202.24,265.81a1,1,0,0,0-1-.74q-4.77.19-9.55.17l-.12,0a1,1,0,0,0-1.39.59,12.74,12.74,0,0,0-.59,4.94,4.54,4.54,0,0,0,2.64,3.63c1.42.73,3.13,1.25,4.57.27h0a4.82,4.82,0,0,0,2.76-2.22,17,17,0,0,0,1.93-3.83l.07-.1A3.16,3.16,0,0,0,202.24,265.81Z"/><path class="cls-6" d="M202.24,265.81a1,1,0,0,0-1-.74q-4.77.19-9.55.17l-.12,0c-1.66.23-2,1.71-2.24,3.41a1.68,1.68,0,0,0,0,1c.27.6,1.09.65,1.74.62l7.43-.34a6.65,6.65,0,0,0,2.18-.36A3.24,3.24,0,0,0,202.24,265.81Z"/><path d="M201.79,265.28a24.31,24.31,0,0,1-2.18,6.45,7,7,0,0,1-1.68,2.25,4.78,4.78,0,0,1-2.92.89,4.13,4.13,0,0,1-4.57-2.56c-1-2.09-.48-4.54.12-6.66a1,1,0,0,0-1.93-.53,13.31,13.31,0,0,0-.48,6.65,7,7,0,0,0,3.11,4.37,8.07,8.07,0,0,0,6.05.4,7.17,7.17,0,0,0,4-3.71,26.26,26.26,0,0,0,2.43-7C204,264.56,202.05,264,201.79,265.28Z"/><path class="cls-5" d="M164.49,259.14c-1.3-.8-2.69-1.45-4.06-2.14l-3.86-1.94a1,1,0,0,0-1.64-.12,1,1,0,0,0-.35.59c-.35,2.4-1.9,4.6-1.69,7.22.27,3.37,5.09,4.85,7.66,3.35,2-1.19,4.45-2.51,5-5A1.81,1.81,0,0,0,164.49,259.14Z"/><path class="cls-6" d="M164.49,259.14a59.59,59.59,0,0,1-6.34-4c-1.5-1.2-3.79-1.35-4.34.87s1.17,2.86,2.71,3.61c1.18.57,2.14,1.42,3.38,1.95s3.82,2,5.22.72C166.16,261.33,165.51,259.77,164.49,259.14Z"/><path d="M166.52,260a1,1,0,0,0-1.23.7,10.32,10.32,0,0,1-4.72,4.89c-2.87,1.49-6.68.3-7.08-3.28a14.39,14.39,0,0,1,1.77-7.74c.69-1.09-1-2.1-1.72-1a11.62,11.62,0,0,0-1.52,5.53c-.17,2.63-.21,6.53,2.61,7.82a8,8,0,0,0,8.5-1.05,11.09,11.09,0,0,0,4.09-4.63A1,1,0,0,0,166.52,260Z"/><path d="M229.91,265.43a23.48,23.48,0,0,0-1.84-6.09c-.55-1-1.21-1.66-2-1.33a72.68,72.68,0,0,1-28,6.18,87.83,87.83,0,0,1-28.94-4.77,50.34,50.34,0,0,1-9.4-4.22c-1.06-.6-7.24-3.56-4.55-5l.32-.16.16-.06.07,0,.35-.11.85-.22a.91.91,0,0,0,.7-1.12,1,1,0,0,0-1.23-.63c-1.86.45-4.15,1.36-3.83,3.47.39,2.5,2.7,3.41,4.77,4.65a54.61,54.61,0,0,0,8.77,4.34,96.17,96.17,0,0,0,15.31,4.18,76.53,76.53,0,0,0,29.59.17,71.27,71.27,0,0,0,7.68-1.93c1.12-.34,2.07-.93,3.2-1.22s3.55-1.14,4.55-.7,1,2,1.18,2.77c.81,3.23.37,6.41.34,9.69a20.5,20.5,0,0,1-.17,2.38,44.52,44.52,0,0,1-2.82,10.81c.15-.34-4.21-2.39-4.55-2.56q-1.94-1-3.9-1.92a38.78,38.78,0,0,0-4.32-1.54c-1.9-.63-3.77-1-5.74-1.49a25.45,25.45,0,0,0-8.93-.56.93.93,0,0,0-.63-1.16c-5.76-2-13.24-1.09-19,.46-.67.18-2.71,1.29-3.31,1s-.91-2.91-1-3.56-.51-2.41-1.53-1.36a1.31,1.31,0,0,0-.19,1.12,13.45,13.45,0,0,0,.54,2.84c.18.49.84,1.72.18,2.11a18.06,18.06,0,0,0-6.41,6.26,17.75,17.75,0,0,0-1.45,14.13,13.56,13.56,0,0,0,3.76,5.8,21.17,21.17,0,0,0,6.12,4.07,32.87,32.87,0,0,0,17.93,1.59,21.1,21.1,0,0,0,6.62-2.49A14.3,14.3,0,0,0,201,308c1.36.35,5.11-.21,5.67-.34a21.42,21.42,0,0,0,7.51-3.39c5.72-4,9.7-10.05,12.33-16.08a1,1,0,0,0,.23-.54A44.88,44.88,0,0,0,229.91,265.43ZM205.9,306c-.94.22-2.11.22-3.16.39a6.77,6.77,0,0,1,3.79-.56ZM223,290.8q-1,1.74-2.07,3.39a35,35,0,0,1-9.73,9.55,13.06,13.06,0,0,1-2,1.08,1.25,1.25,0,0,0-.58-.41,8.7,8.7,0,0,0-10,3s0,0,0,.07a15.52,15.52,0,0,1-3.78,1.88,20,20,0,0,1-2.61.66c-4.48.83-9.22.21-13.62-.56a16.69,16.69,0,0,1-5.35-1.67,23.1,23.1,0,0,1-3.81-3.23c-2.15-1.93-2.85-5.32-3.21-7.94a15.92,15.92,0,0,1,1.38-7.93,14.94,14.94,0,0,1,4.06-5.76c2.37-2.1,6.6-3.18,9.75-3.86,4.56-1,9.42-1.68,14-.4-.8.12-1.59.26-2.39.39-1.26.22-.72,2,.54,1.75a38.27,38.27,0,0,1,10.47-.37,29.26,29.26,0,0,1,5.27,1,39.27,39.27,0,0,1,4.69,1.47c3,1.32,5.82,2.89,8.77,4.36a15.72,15.72,0,0,1,1.55.83C223.92,289,223.49,289.92,223,290.8Z"/><path class="cls-2" d="M190.81,252.21c4.29-2.08,9-3.69,13.43-5.65,3.61-1.6,11.41-5.24,10.59-10.35-.47-2.87-4-4.36-6.37-5.34a57,57,0,0,0-19.23-4.07c-3.5-.09-14.3-.07-14.16,5.4.07,2.87,2.39,9.66,5.75,14.64C183.65,251,187.22,254,190.81,252.21Z"/><path class="cls-3" d="M190.81,252.21c4.29-2.08,9-3.69,13.43-5.65,3.61-1.6,11.41-5.24,10.59-10.35-.34-2.07-2.68-6.65-5.46-5.62-.86.32-1.31,1.24-1.78,2a22,22,0,0,1-2,2.62,36.07,36.07,0,0,1-6.42,6.47,28.76,28.76,0,0,1-6.55,3.36,9.79,9.79,0,0,1-7.14.25,12.28,12.28,0,0,1-5.62-4.95c-1-1.74-2.22-4.28-4.24-5.06-.31,1.37.83,2.84,1.34,4.11a38.37,38.37,0,0,0,3.84,7.42C183.65,251,187.22,254,190.81,252.21Z"/><path class="cls-7" d="M189.22,230.23a2.54,2.54,0,0,0-1.5-1.15,18.41,18.41,0,0,0-3.47-.44,17.76,17.76,0,0,0-3.49.3,2.51,2.51,0,0,0-1.5,1.15A2.6,2.6,0,0,0,179,232a2.53,2.53,0,0,0,1.15,1.49l.6.25a2.5,2.5,0,0,0,1.33,0l.12,0a15.16,15.16,0,0,1,3.23,0c.32.05.64.1.95.17a2.64,2.64,0,0,0,1.93-.25,2.58,2.58,0,0,0,1.15-1.5A2.52,2.52,0,0,0,189.22,230.23Z"/><path class="cls-7" d="M183.69,234.84c-3.22,0-3.22,5,0,5S186.91,234.84,183.69,234.84Z"/><path d="M214.62,230.07A35.58,35.58,0,0,0,201.1,225a55.75,55.75,0,0,0-9.84-.89c-2.34.1-4.67.36-7,.47A30.21,30.21,0,0,0,172.55,228c-3.15,1.52,0,8.76.95,10.81a28.92,28.92,0,0,0,2.93,5.32c1.53,2,3.14,3.94,4.52,6a14.3,14.3,0,0,0,2.38,2.88,4.7,4.7,0,0,1,1.28,5.58c-.46,1.17-.77,2.38-1.13,3.59-.3,1-.87,1.88.61,2.06s2,.11,2.34-1.29c.33-1.24.64-2.49.94-3.74s.6-2.6,2-3c2.85-.9,5.52-2.22,8.26-3.37,3.08-1.28,6-2.87,9-4.2,3.72-1.62,8.68-4.27,10.7-7.95C219.56,236.72,218.57,232.4,214.62,230.07Zm-10.38,16.49c-4.4,2-9.14,3.57-13.43,5.65-3.59,1.74-7.16-1.18-10-5.37-3.36-5-5.68-11.77-5.75-14.64-.14-5.47,10.66-5.49,14.16-5.4a57,57,0,0,1,19.23,4.07c2.35,1,5.9,2.47,6.37,5.34C215.65,241.32,207.85,245,204.24,246.56Z"/><path d="M247.52,274.23c-.9,0-2.05,1.64-2,2.85a2,2,0,0,0,2,2.06c.91-.07,2.07-1.73,2.19-3.12C249.75,275.51,248.16,274.21,247.52,274.23Z"/><path d="M243.48,260a2.31,2.31,0,0,0-2.11,2.38c0,1.29.54,1.89,1.79,1.89s2.92-1.52,2.8-2.36A4.74,4.74,0,0,0,243.48,260Z"/><path d="M152.74,237.63a2.17,2.17,0,0,0-2,1.89,2.39,2.39,0,0,0,2.15,2.35,2.44,2.44,0,0,0,2.28-2C155.2,239.15,153.66,237.7,152.74,237.63Z"/><path d="M263.48,267.28a1.74,1.74,0,0,0-1.85,2c0,1,1.13,2.36,1.91,2.36a2.78,2.78,0,0,0,2.13-2.33A2.15,2.15,0,0,0,263.48,267.28Z"/><path d="M146.9,260.25a5.24,5.24,0,0,0,1.83-2.08,2.31,2.31,0,0,0-2.14-2.09,2.14,2.14,0,0,0-2.32,2.13A3,3,0,0,0,146.9,260.25Z"/><path d="M161,251.72c-.09,1.28.63,1.94,2.24,2.07.87.07,1.46-.74,1.54-2.08s-.33-1.7-1.83-1.77C161.73,249.89,161.12,250.45,161,251.72Z"/><path d="M256.9,250.12a2,2,0,0,0-1.73,2.16,2.07,2.07,0,0,0,1.78,1.59c1.3,0,2.05-.59,2-1.67A2.18,2.18,0,0,0,256.9,250.12Z"/><path class="cls-8" d="M191.64,304.57c-2.66-.93-5.27-1.75-7.27-3.75a23,23,0,0,0-1.91-1.91,6.32,6.32,0,0,0-4.16-1.32c-.7,0-1.39.18-2.08.26-2.6.28-5.18-.48-7.73-1a3.54,3.54,0,0,0-2.43.09,2.36,2.36,0,0,0-1,1.28,5.55,5.55,0,0,0,0,3.49,12.43,12.43,0,0,0,.73,1.77,10.81,10.81,0,0,1,.82,1.48,12.74,12.74,0,0,0,.17,1.33c.16.41.72.71.84,1.05.43,1.18,1.7,1.39,2.81,1.87a12.8,12.8,0,0,1,2.51,1.47,8.64,8.64,0,0,0,.36,1c.07.16.15.31.22.47s.06.15.07.18a6,6,0,0,1,.27.7c0,.12.07.23.1.35a1.42,1.42,0,0,1,0,.2c0,.06,0,.09,0,.1v0a1.49,1.49,0,0,1,0,.21c0,.12,0,.24,0,.36s0,.24,0,.36a.37.37,0,0,0,0,.08l0,.08a.75.75,0,0,0-.29.48,3.11,3.11,0,0,1-.16.67l-.1.24-.12.24c-.14.26-.29.5-.44.75l-.06,0a4.14,4.14,0,0,0-1.63,3.36,3,3,0,0,0,2.42,2.7c1.36.22,3.11-.11,3.79-1.37a4.65,4.65,0,0,0,.14-3.81c-.22-.59-.51-1.15-.74-1.74-.05-.15-.09-.31-.13-.46a2.07,2.07,0,0,1,1.11-.74,6.66,6.66,0,0,1,2.94.18,6.44,6.44,0,0,0,2.8-.11l.06,0a6,6,0,0,1,.61.15l.26.08.13.06.09.06.09.07.05.08a1.66,1.66,0,0,0,.06.21v.12a2.71,2.71,0,0,1,0,.29c0,.22,0,.43-.07.64a4.16,4.16,0,0,0,.07,1.49,1.11,1.11,0,0,0,1.35.72,1.75,1.75,0,0,0,1-.72,1,1,0,0,0,.37-.76c0-.23,0-.46.05-.69l0-.29a.43.43,0,0,0,0-.11,5,5,0,0,1,.16-.67,2.25,2.25,0,0,1,.08-.24l.06-.16c.05-.11,0-.09,0,.05,0-.12.18-.34.25-.45s.1-.2.17-.23c-.1.11-.11.13,0,0l.09-.11.16-.15.11-.09,0,0c0-.05.2-.13.25-.15l.27-.13a.8.8,0,0,0,.39-.38c.34,0,.68,0,1,0,1.44.11,2.53.72,3.92.18a8.92,8.92,0,0,0,3.59-2.35,19.24,19.24,0,0,0,2.17-3.76,6.39,6.39,0,0,1,3-3.12c.58-.23,1.22-.33,1.8-.57a3.75,3.75,0,0,0,2.19-2.37,1.27,1.27,0,0,0-.09-1.14,1.5,1.5,0,0,0-.89-.48c-2.1-.46-4.2.7-5.92,1.93s-3.51,2.63-5.67,2.76A7.78,7.78,0,0,1,191.64,304.57Z"/><g class="cls-9"><path class="cls-10" d="M177.42,317.73a2.66,2.66,0,0,1,0,.28,3.48,3.48,0,0,1-.53,2.13,3.29,3.29,0,0,1-3.49,1.25,3.15,3.15,0,0,1-2.11-1.89,2.9,2.9,0,0,0-.1,1.06,3,3,0,0,0,2.42,2.7c1.36.22,3.11-.11,3.79-1.37a4.65,4.65,0,0,0,.14-3.81A3.68,3.68,0,0,0,177.42,317.73Z"/><path class="cls-10" d="M185.38,315a1,1,0,0,0,.33-1,.72.72,0,0,0-.25-.51,1,1,0,0,0-.6-.16c-1.63-.08-3.4.29-4.81-.49-.55-.31-1.05-.79-1.69-.76-1.29.05-1.76,2.59-1.58,3.53a2.39,2.39,0,0,1,2-.33,9.39,9.39,0,0,1,.86.59,4.55,4.55,0,0,0,2.49.42,2.5,2.5,0,0,0,1.69-.44C184.32,315.44,185,315.35,185.38,315Z"/><path class="cls-10" d="M190.57,305.53a4.3,4.3,0,0,1,3.09-.22c1.17.58,1.57,1.79,3.2,1.36,1.29-.35,1.37-1.54,2.3-2.21s1.76-1.28,2.62-2a4.53,4.53,0,0,1,2.32-1.06,1.94,1.94,0,0,1,1.64.53.74.74,0,0,1-.43,1.3,2.9,2.9,0,0,1-.51,0,5.89,5.89,0,0,0-1.45.34,8.64,8.64,0,0,0-1.33.44,5.42,5.42,0,0,0-2.12,1.69,12,12,0,0,0-.92,1.69c-.23.46-.45.93-.72,1.37s-.6.85-.85,1.34a6.1,6.1,0,0,1-.56.92c-1.36,1.71-3.74,1.33-5.58.71-.89-.29-1.41-1-2.36-.42-2.13,1.29-.51,4.12-1.51,5.9a1.87,1.87,0,0,1-2,.86,1.45,1.45,0,0,1-.61-.33,3.57,3.57,0,0,0,.1.71,1.11,1.11,0,0,0,1.35.72,1.75,1.75,0,0,0,1-.72,1,1,0,0,0,.37-.76c0-.23,0-.46.05-.69l0-.29a.43.43,0,0,0,0-.11,5,5,0,0,1,.16-.67,2.25,2.25,0,0,1,.08-.24l.06-.16c.05-.11,0-.09,0,.05,0-.12.18-.34.25-.45s.1-.2.17-.23c-.1.11-.11.13,0,0l.09-.11.16-.15.11-.09,0,0c0-.05.2-.13.25-.15l.27-.13a.8.8,0,0,0,.39-.38c.34,0,.68,0,1,0,1,.07,2,.51,3,.5a3.61,3.61,0,0,0,2.13-1,16.27,16.27,0,0,0,3.35-4.05c1.38-2.1,2.95-4.35,5.43-5.16a4,4,0,0,0,2.08-1,1.6,1.6,0,0,0-.23-2.09,2.76,2.76,0,0,0-2.24-.66,5.8,5.8,0,0,0-2.24.84c-1.65,1-3.07,2.33-4.89,3-2.63.93-5.58.2-8.16-.83a15.57,15.57,0,0,1-5.64-3.76,6.42,6.42,0,0,0-2.65-2.07,6.27,6.27,0,0,0-2.12-.07,44.65,44.65,0,0,1-6.12.06,13.74,13.74,0,0,1-2.22-.27c-.76-.17-1.48-.45-2.24-.6a3.45,3.45,0,0,0-2.27.24,2.69,2.69,0,0,0-1.25,2.37,6.44,6.44,0,0,0,.78,2.65,15.57,15.57,0,0,1,1.54,2.89,5.34,5.34,0,0,0,.16,1.31c.16.36.71.67.81,1,.43,1.18,1.7,1.39,2.81,1.87a12.8,12.8,0,0,1,2.51,1.47,8.64,8.64,0,0,0,.36,1c.07.16.15.31.22.47s.06.15.07.18.11.29.17.43c.13.35,1.56-.54,1.7-.68a2.85,2.85,0,0,0,.71-2c-.11-1.38-1.53-2.35-2.93-2.75s-2.92-.42-4.28-.94a2.48,2.48,0,0,1-1.58-2.28c0-1.06-1-2.23-1.47-3.19a1.51,1.51,0,0,1-.26-.91,1.23,1.23,0,0,1,.47-.68,2.45,2.45,0,0,1,1.51-.68,2.92,2.92,0,0,1,1.81.68,3.18,3.18,0,0,1,1.6,2.25,2,2,0,0,0,1.2,1.43,8.1,8.1,0,0,0,1.4.3c1.41.3,2.64,1.27,4.09,1.36a9.48,9.48,0,0,1,1.69.09c.27.07.51.19.77.28a3.38,3.38,0,0,0,1.26.22c.54,0,1.53-.35,1.27-1-.19-.51-1.23-.47-1.7-.78s-.88-.75-1.34-1.09a2.35,2.35,0,0,0-1.63-.56,5.53,5.53,0,0,0-1,.32c-.57.19-3-.33-2.85-1.19.06-.26,1.06-.58,1.28-.69a5.58,5.58,0,0,1,1.8-.7,5.09,5.09,0,0,1,2.53.51,7.12,7.12,0,0,1,2.21,1.27c.54.49.93,1.11,1.47,1.6a6.34,6.34,0,0,0,2.71,1.34,2.55,2.55,0,0,1,1.22.53,5.68,5.68,0,0,1,.41.59,1.72,1.72,0,0,0,1.93.46Z"/></g><path class="cls-11" d="M187.45,312.9a.75.75,0,0,0,.05-.52,1.73,1.73,0,0,0-.4-.74,8,8,0,0,0-2.81-1.91c-.51-.24-1.09-.55-1.18-1.08a.21.21,0,0,1,0-.2.34.34,0,0,1,.17,0,5.35,5.35,0,0,1,2.44.74c.42.25.8.57,1.24.79.78.38,1.62,0,2.45.3s1.37,1.11,2.31,1.41a3.34,3.34,0,0,0,2.76.15c.72-.41.89-1.4,1.39-2s1.26-.92,1.82-1.46c1-1,1.28-2.56,2.39-3.46a6.34,6.34,0,0,1,1.92-1c.68-.24,1.33-.55,2-.74a1.88,1.88,0,0,0,1.24-.67.43.43,0,0,0,.06-.29.46.46,0,0,0-.31-.34,1.16,1.16,0,0,0-.49-.06,4.93,4.93,0,0,0-2.84,1.43c-.7.64-1.68.85-2.35,1.56-.37.39-.63.87-1,1.28a4.44,4.44,0,0,1-2.93,1.49,2.84,2.84,0,0,1-1.68-.23,14.42,14.42,0,0,1-1.73-1,2.62,2.62,0,0,0-.87-.47,2.09,2.09,0,0,0-1.31.24,7.16,7.16,0,0,1-1.24.54,1.65,1.65,0,0,1-1.47-.48,11.87,11.87,0,0,0-1.37-.89,10.66,10.66,0,0,0-1.81-1.16,3.73,3.73,0,0,1-1.94-1.12c-.29-.41-.41-.92-.74-1.3a3.1,3.1,0,0,0-1-.68,3.58,3.58,0,0,0-2.72-.47,8.34,8.34,0,0,0-1.31.8,1.92,1.92,0,0,1-1.64,0c-.33-.1-1.29-.5-1.51,0-.41.92,2.48,1.31,3,1.3.67,0,1.22-.15,1.88-.22a2.59,2.59,0,0,1,1,0c.72.2,1,1,1.67,1.3.21.09.44.13.65.23a.71.71,0,0,1,.44.47.31.31,0,0,1-.07.26.41.41,0,0,1-.11.07,1.21,1.21,0,0,1-.82,0c-.27-.07-.52-.19-.79-.26a4.81,4.81,0,0,0-.76-.12c-.81-.1-1.44.32-2.24.27a7.17,7.17,0,0,1-2.35-.66,5.15,5.15,0,0,1-1.4-.82,5.43,5.43,0,0,0-2-1.55c-1.05-.37-1.57-1.14-2.48-1.67a1.35,1.35,0,0,0-.93-.24c-.17,0-.27.2-.42.24s-.46-.09-.72.07a.71.71,0,0,0-.34.59,1,1,0,0,0,.44.76c.23.19.51.34.75.53.87.69.72,1.83,1.17,2.75a2.24,2.24,0,0,0,1.28,1.09l.44.2a1.76,1.76,0,0,1,.2.09c.21.07.42.15.64.21s.68.1,1,.16a2.8,2.8,0,0,1,1.37.55,1.7,1.7,0,0,1,.3.3c.13,0,.26,0,.38.06a2.77,2.77,0,0,1,.74.34l.11.07.07,0h.12l.27,0a14.84,14.84,0,0,1,2.38.22,4.49,4.49,0,0,0,2.9-.31,1.13,1.13,0,0,1,.39-.17.29.29,0,0,1,.34.19c0,.13-.08.25-.2.33a3.93,3.93,0,0,1-1.67.51,3,3,0,0,0-2,.94c-.27.43-.28.75-.75,1.05s-.73.34-1,.57l-.07.05-.22.19c-.13.12-.25.25-.37.38l-.06.07,0,0a7.83,7.83,0,0,1-.66,3,.78.78,0,0,1,0,.3,6.6,6.6,0,0,1-.63,2l-.42.84c-.06.12-.13.25-.19.38s-.09.18-.13.28l0,0a7,7,0,0,0-.29.76c0,.12-.07.25-.1.38v.08a.44.44,0,0,0,0,.09c0,.13,0,.25,0,.38a.74.74,0,0,1,0,.14s0,0,0,.08a.28.28,0,0,1,0,.08l.1.16h0l.06.05,0,0,0,0h0l.52.13h.44l.27-.06.16-.06.14-.06.42-.25.15-.13.15-.16a2.83,2.83,0,0,1,.2-.28l.08-.16,0,0,.13-.36c.08-.24.14-.5.2-.75a9,9,0,0,1-.16-1,2.93,2.93,0,0,1,.47-2.09.62.62,0,0,1,.14-.14,3.06,3.06,0,0,1,0-.8,3.62,3.62,0,0,1,.5-1.6,2.21,2.21,0,0,1,1.56-1,2.29,2.29,0,0,1,.47-.69,3.6,3.6,0,0,1,2.5-.84,4.53,4.53,0,0,1,2.37.76,2.74,2.74,0,0,1,1.46,2.12,1.73,1.73,0,0,0,.31,1.47,3.72,3.72,0,0,1-.22,1.31l-.16.55c0,.07,0,.13-.05.2a2.22,2.22,0,0,0,0,.36c.19,1.31,1.25.35,1.34-.38.12-1-.51-1.87-.06-2.81C186.71,313.6,187.26,313.33,187.45,312.9Z"/><g class="cls-9"><path class="cls-5" d="M186.58,315.57a.59.59,0,0,0-.25-.31.58.58,0,0,0-.43-.06.57.57,0,0,0-.33.24.51.51,0,0,0,0,.4,1.82,1.82,0,0,1,.07.25v.21a1.42,1.42,0,0,1-.07.22,1.09,1.09,0,0,1-.14.23l0,0a.51.51,0,0,0-.15.35.5.5,0,0,0,.16.36.59.59,0,0,0,.39.16.55.55,0,0,0,.39-.16,1.76,1.76,0,0,0,.46-.87A1.72,1.72,0,0,0,186.58,315.57Z"/><path class="cls-5" d="M175,315.1a.57.57,0,0,0-.68.36,11.76,11.76,0,0,1-1.52,3,.51.51,0,0,0,.19.71.58.58,0,0,0,.76-.19,13.12,13.12,0,0,0,1.63-3.21A.52.52,0,0,0,175,315.1Z"/><path class="cls-5" d="M174.71,320.2a.56.56,0,0,0-.33-.23l-.15,0a.46.46,0,0,0-.2.05h0l.05,0-.07,0h-.1l0,0,0,0a.16.16,0,0,1,0-.07l0,.05h0a.41.41,0,0,0-.07-.11.5.5,0,0,0-.15-.14.61.61,0,0,0-.42-.05.52.52,0,0,0-.33.24.48.48,0,0,0-.06.4,1.12,1.12,0,0,0,.3.44,1.29,1.29,0,0,0,.48.28,1.21,1.21,0,0,0,.43.07,1.31,1.31,0,0,0,.55-.13.49.49,0,0,0,.25-.31A.51.51,0,0,0,174.71,320.2Z"/><path class="cls-5" d="M178.36,306.25l-.38,0a11.74,11.74,0,0,1-3.41-1.2c-.49-.24-.59-.72-1.08-.91a6.8,6.8,0,0,0-3.13-.47c-.59.05-2.17.25-1.26,1.14a1.56,1.56,0,0,0,.84.36c.62.12,1.26.11,1.89.19a2.87,2.87,0,0,1,1.7.71c.26.25.43.57.7.81a2.72,2.72,0,0,0,1.93.48,9.28,9.28,0,0,1,1.9,0,3.68,3.68,0,0,0,2.73-.32.61.61,0,0,0,.18-.83c-.32-.4-.87-.15-1.26-.05A4.38,4.38,0,0,1,178.36,306.25Z"/><path class="cls-5" d="M193.32,308.39c-.6-.06-1.21.19-1.83-.11a3.85,3.85,0,0,0-1.21-.49c-.67-.08-1.33.37-2,.22-.41-.09-.73-.4-1.14-.47a2.14,2.14,0,0,1-.57-.12,1.26,1.26,0,0,1-.36-.54,1.75,1.75,0,0,0-2.17-.8c-.66.29-1,1.09-.33,1.58A2.81,2.81,0,0,0,185,308c.46.06.93.14,1.39.23a2.39,2.39,0,0,1,1.55.78,1.19,1.19,0,0,0,1.08.66,9.89,9.89,0,0,0,1.09-.17,3,3,0,0,1,2,.46c.76.5,1.87,1.54,2.44.17a1.36,1.36,0,0,0-.85-1.67A1.17,1.17,0,0,0,193.32,308.39Z"/><path class="cls-5" d="M179.93,309.33a.58.58,0,0,0-.68-.36.52.52,0,0,0-.38.64v0s0,0,0,.05,0,.08,0,.07a.79.79,0,0,1-.17.2,5.05,5.05,0,0,1-.77.39h-.08a4.14,4.14,0,0,0-2,1.35,2.44,2.44,0,0,0-.54,1.09.93.93,0,0,0,.3.81h0a.53.53,0,0,0,.65.22l.08,0a1,1,0,0,0,.95-.6,1.1,1.1,0,0,0,.11-.53,3.55,3.55,0,0,1,.2-.67,1.82,1.82,0,0,1,.52-.62,2.1,2.1,0,0,1,.31-.19l.43-.2C179.56,310.73,180.17,310.1,179.93,309.33Z"/><path class="cls-5" d="M186.72,312.67a1.6,1.6,0,0,0-.19-.45,1.71,1.71,0,0,0-.45-.44.61.61,0,0,0-.42,0,.54.54,0,0,0-.33.24.51.51,0,0,0-.06.4l.06.12a.58.58,0,0,0,.19.19h0l-.09-.07a.43.43,0,0,1,.12.11l.07.11,0,.13a.28.28,0,0,1,0,.13l0,.13h0a.51.51,0,0,0,.2.71.58.58,0,0,0,.75-.19A1.46,1.46,0,0,0,186.72,312.67Z"/><path class="cls-5" d="M204.87,302a2.15,2.15,0,0,0-.87-.17,2.21,2.21,0,0,0-.79.21,1.42,1.42,0,0,0-.28.2.38.38,0,0,0-.08.32.41.41,0,0,0,.22.23,1,1,0,0,0,.34.07,4.83,4.83,0,0,0,1.14,0,.73.73,0,0,0,.52-.22C205.3,302.36,205.14,302.16,204.87,302Z"/><path class="cls-5" d="M200.33,304.55a.3.3,0,0,0-.22-.05,2.05,2.05,0,0,0-1,.48,3.83,3.83,0,0,0-.69.87c-.29.47-.59.95-1.21,1a4.26,4.26,0,0,0-.51,0,.54.54,0,0,0-.29.76,1,1,0,0,0,.8.44c1.2.07,1.62-1.12,2-2,.15-.35.19-.79.57-1l.32-.13a.64.64,0,0,0,.27-.19A.21.21,0,0,0,200.33,304.55Z"/><path class="cls-5" d="M168.55,300.9c-.11-.3-.48-.47-.78-.59a.62.62,0,0,1-.36-.64,2,2,0,0,1,.27-.72.7.7,0,0,0,.11-.6c-.25-.53-1.41-.35-1.73,0a1.77,1.77,0,0,0,.09,1.91,2.34,2.34,0,0,0,.81.72l.2.12s.15.11.19.12l0,0a.6.6,0,0,0,.08.08l.07.11c.26.48,1,.21,1.05-.26A.54.54,0,0,0,168.55,300.9Z"/><path class="cls-5" d="M167.15,299.83l0,0h0Z"/><path class="cls-5" d="M181.72,300.34a4,4,0,0,1-1-.41c-.55-.4-.94-.95-1.67-1.11a5,5,0,0,0-2.34,0c-.45.12-1.65.23-1.93.58a.56.56,0,0,0,0,.67,1.1,1.1,0,0,0,.63.38,2.2,2.2,0,0,0,1.61-.2,2.07,2.07,0,0,1,2.19-.15c.68.37.81,1.19,1.57,1.39a2.3,2.3,0,0,0,1.19-.07.65.65,0,0,0,.44-.32.46.46,0,0,0-.06-.34A1.13,1.13,0,0,0,181.72,300.34Z"/></g><path d="M198.86,312.38a6.52,6.52,0,0,0,1.06-1.56c1-2,1.91-4.26,4.07-5.4.67-.35,1.42-.56,2.11-.87a3.13,3.13,0,0,0,1.67-1.44,2.33,2.33,0,0,0-1.4-3.26,4.25,4.25,0,0,0-1.18-.15,8.93,8.93,0,0,0-4.63,1.13c-1,.69-1.9,1.67-3,2.37-4,2.65-10.92-.05-13.72-3.15-1.13-1.24-2.56-3.09-4.43-3.08-2.68,0-5.41.81-8,.14-1.35-.35-2.57-1.09-3.95-1.32-2.5-.42-3.52,1.26-3.91,3.27a4.48,4.48,0,0,0,.44,2.8c.32.66.77,1.27,1.06,1.95a18.56,18.56,0,0,0,1.1,3,9,9,0,0,0,2,2.44,17.92,17.92,0,0,0,2.33,1.13,4.12,4.12,0,0,1,1.24.84c2.22,2.48-.88,5.38-1.44,7.73a4.13,4.13,0,0,0,2.79,4.9,4.38,4.38,0,0,0,5.29-2.3,4.61,4.61,0,0,0,0-3.29,4.31,4.31,0,0,1-.34-1.65c.17-1.25.93-.58,1.73-.31a4.52,4.52,0,0,0,1.47.23,6.48,6.48,0,0,1,1.64-.06c.87.26.42,1.8.68,2.54.78,2.2,3.57,1.41,4.35-.32.47-1.05.24-2.65,1.32-3.38,1.55-1,2.94.35,4.49,0a13.49,13.49,0,0,0,4.09-2A7.37,7.37,0,0,0,198.86,312.38Zm-5.32,1.55a30.13,30.13,0,0,1-3.15-.21,4.51,4.51,0,0,0-2.87.71c-.83.62-.62,1.47-.54,2.4.06.75,0,2-1.07,2.05a1.07,1.07,0,0,1-.95-1.5,5.34,5.34,0,0,0,.3-1.24,1.29,1.29,0,0,0-.48-1.13c-.91-.65-1.94-.11-2.83.2a3,3,0,0,1-2,0c-1-.37-2.51-1.67-3.21-.31a4.68,4.68,0,0,0,.17,3.72c.75,1.38.91,3.09-.8,3.92a2.93,2.93,0,0,1-2.57,0c-.67-.33-1.43-.37-1.74-1.12-.79-1.9.92-3.72,1.82-5.28a5.23,5.23,0,0,0,.81-2.94,5.82,5.82,0,0,0-2.61-3.77A23.71,23.71,0,0,0,169,308a4,4,0,0,1-1.76-1.64c-.58-1-.59-2.24-1.07-3.3-.41-.88-1.24-1.41-1.48-2.39a3.58,3.58,0,0,1,.76-2.81,3,3,0,0,1,2.53-.67c1.25.14,2.32.83,3.55,1a12,12,0,0,0,4.31.28,17.81,17.81,0,0,1,2.26-.39,5.49,5.49,0,0,1,3.94,1.29c.55.55,1,1.17,1.56,1.71s1.56,1.18,2.31,1.81a11,11,0,0,0,2.48,1.3c1.92.9,4,1.87,6.21,1.62a11.42,11.42,0,0,0,5.78-3c1.32-1.22,3.61-2.47,5.47-1.4a1.31,1.31,0,0,1,.59.64c.48,1.38-1.35,1.58-2.25,1.8a6.88,6.88,0,0,0-3.51,2.08,9.09,9.09,0,0,0-1.2,2.34,11.09,11.09,0,0,1-3.41,4.64A4.47,4.47,0,0,1,193.54,313.93Z"/></svg>