<svg id="Nose_Mouth" xmlns="http://www.w3.org/2000/svg" xmlns:xlink="http://www.w3.org/1999/xlink" viewBox="0 0 500 500"><defs><style>.cls-1{fill:#f6a3ad;}.cls-2{fill:#ea7a92;}.cls-3{fill:#fff;}.cls-4{fill:url(#New_Gradient_Swatch_28);}</style><linearGradient id="New_Gradient_Swatch_28" x1="184.08" y1="299.88" x2="186.08" y2="262.84" gradientUnits="userSpaceOnUse"><stop offset="0" stop-color="#d66582"/><stop offset="0.48" stop-color="#be4f65"/><stop offset="1" stop-color="#a03541"/></linearGradient></defs><g id="_1_Nose_Mouth_rose" data-name="1_Nose_Mouth_rose"><path class="cls-1" d="M190.81,252.21c4.29-2.08,9-3.69,13.43-5.65,3.61-1.6,11.41-5.24,10.59-10.35-.47-2.87-4-4.36-6.37-5.34a57,57,0,0,0-19.23-4.07c-3.5-.09-14.3-.07-14.16,5.4.07,2.87,2.39,9.66,5.75,14.64C183.65,251,187.22,254,190.81,252.21Z"/><path class="cls-2" d="M190.81,252.21c4.29-2.08,9-3.69,13.43-5.65,3.61-1.6,11.41-5.24,10.59-10.35-.34-2.07-2.68-6.65-5.46-5.62-.86.32-1.31,1.24-1.78,2a22,22,0,0,1-2,2.62,36.07,36.07,0,0,1-6.42,6.47,28.76,28.76,0,0,1-6.55,3.36,9.79,9.79,0,0,1-7.14.25,12.28,12.28,0,0,1-5.62-4.95c-1-1.74-2.22-4.28-4.24-5.06-.31,1.37.83,2.84,1.34,4.11a38.37,38.37,0,0,0,3.84,7.42C183.65,251,187.22,254,190.81,252.21Z"/><path class="cls-3" d="M189.22,230.23a2.54,2.54,0,0,0-1.5-1.15,18.41,18.41,0,0,0-3.47-.44,17.76,17.76,0,0,0-3.49.3,2.51,2.51,0,0,0-1.5,1.15A2.6,2.6,0,0,0,179,232a2.53,2.53,0,0,0,1.15,1.49l.6.25a2.5,2.5,0,0,0,1.33,0l.12,0a15.16,15.16,0,0,1,3.23,0c.32.05.64.1.95.17a2.64,2.64,0,0,0,1.93-.25,2.58,2.58,0,0,0,1.15-1.5A2.52,2.52,0,0,0,189.22,230.23Z"/><path class="cls-3" d="M183.69,234.84c-3.22,0-3.22,5,0,5S186.91,234.84,183.69,234.84Z"/><path class="cls-4" d="M165.28,264.11c-5.41-4.67-13.92-6.29-18.08,1.18a11.47,11.47,0,0,0-.55,9.2,27.92,27.92,0,0,0,5.47,9.1,50.48,50.48,0,0,0,7.5,7.26,47.55,47.55,0,0,0,35.12,10.07,45.22,45.22,0,0,0,18.47-6.52c4.47-2.82,8.6-6.32,10.58-11.35a18.53,18.53,0,0,0,1.06-3.84c.53-3.32.05-6.84-2.74-9-2.4-1.85-6.32-1.37-9.11-1.1-7,.69-13.72,3-20.68,3.94-6.79.94-13.73.26-19.74-3.24A49.71,49.71,0,0,1,165.28,264.11Z"/><path class="cls-1" d="M170.43,280.29a22.8,22.8,0,0,1,3.72-.24,26.41,26.41,0,0,1,7.49,1.25,10.09,10.09,0,0,1,5.18,3.43,2.55,2.55,0,0,0,3,.5c3.76-1.91,8.34-1.7,12.44-1.68a18.85,18.85,0,0,1,3.44.26A20.14,20.14,0,0,1,211,286l3,1.57c.5.26,1.57.5,1.84,1a2.24,2.24,0,0,1,.18,1.15l0,2.84a3.46,3.46,0,0,1-.25,1.5,3.28,3.28,0,0,1-.92,1,33.9,33.9,0,0,1-11.52,6.06,41.74,41.74,0,0,1-17.48,1.1,77.32,77.32,0,0,1-17-4.59c-3.26-1.24-5.85-3.17-8.71-5.12a41.36,41.36,0,0,1-4-3.09A20.62,20.62,0,0,1,170.43,280.29Z"/><path class="cls-3" d="M176.58,272a1.08,1.08,0,0,0-.14-.5,3.61,3.61,0,0,0-.7-.81,9.53,9.53,0,0,0-1.71-1.09c-.28-.14-.56-.29-.83-.45s-.26-.16-.38-.25l0,0,0,0-.2-.18a1,1,0,0,0-.78-.27.78.78,0,0,0-.41-.24,1,1,0,0,0-1.23.69,16.25,16.25,0,0,0-.2,5.25,1.26,1.26,0,0,0,.42.8,1.09,1.09,0,0,0,.13.34,1.87,1.87,0,0,0,1.2,1.29,3.15,3.15,0,0,0,3.31-1,6.33,6.33,0,0,0,1.62-3A1.35,1.35,0,0,0,176.58,272Z"/><path class="cls-3" d="M162.57,261.47a2,2,0,0,1-.33-.08c.17.05-.07,0-.12-.08l-.18-.12-.27-.24a6.61,6.61,0,0,0-1.19-1,2.39,2.39,0,0,0-2.57.09,1,1,0,0,0-.75.47,6.82,6.82,0,0,0-1.08,3.11,3.25,3.25,0,0,0,1.27,2.67,3.07,3.07,0,0,0,3.26,0,7.55,7.55,0,0,0,2.34-1.86,3.07,3.07,0,0,0,.84-1.67A1.37,1.37,0,0,0,162.57,261.47Z"/><path class="cls-3" d="M199.92,271a1.9,1.9,0,0,0-1.67-.27q-1.53.19-3,.48c-.47.09-.94.19-1.4.3a2.53,2.53,0,0,0-1.4.57.85.85,0,0,0-.14.21.86.86,0,0,0-.43.12,1,1,0,0,0-.36,1.36,11.7,11.7,0,0,0,1.51,2.52,3.53,3.53,0,0,0,2.47,1.24,4.64,4.64,0,0,0,2.87-.39,3.88,3.88,0,0,0,1.65-2,7.65,7.65,0,0,0,.43-2.77A1.73,1.73,0,0,0,199.92,271Z"/><path class="cls-3" d="M218.8,268.56a.38.38,0,0,0-.09-.09c-1.41-1.2-5.56-.39-7.25-.39-.69,0-1.44-.07-1.61.73-.78,3.69,3.91,9,7.27,5.36a7.43,7.43,0,0,0,1.93-4.5A1.56,1.56,0,0,0,218.8,268.56Z"/><path class="cls-3" d="M155.43,284.25a8.49,8.49,0,0,0,0-3.14.92.92,0,0,0-.52-.62,4.2,4.2,0,0,0-.36-.5l-.11-.11-.31-.45a1,1,0,0,0-.61-.28A.93.93,0,0,0,153,279a2.42,2.42,0,0,0-1.36.06,3.19,3.19,0,0,0-1.45,1.12c-.46.61-.85,1.24-.45,2a4.69,4.69,0,0,0,.72.88l.72.8,1.31,1.47a1,1,0,0,0,.66,1.24l.57.18a1,1,0,0,0,1.13-.46c.1-.22.17-.45.25-.68a1,1,0,0,0,.45-1.1C155.48,284.42,155.45,284.34,155.43,284.25Z"/><path class="cls-3" d="M171,292.43c-.29-1.11-.52-2.55-1.49-3.3a2.39,2.39,0,0,0-2.23-.31c-.63.21-1.19.68-1.76.91a1.13,1.13,0,0,0-.63.58,10.09,10.09,0,0,0-2.31,2.16,1,1,0,0,0,0,1.42,1,1,0,0,0,.42.23,12,12,0,0,0,2.08,1.4,1.1,1.1,0,0,0,.7.74,13.36,13.36,0,0,1,3.1,1.59,1.84,1.84,0,0,0,1.92.34,1.76,1.76,0,0,0,.82-1.71A15,15,0,0,0,171,292.43Z"/><path class="cls-3" d="M205.82,296.91a6.21,6.21,0,0,0-1.11-.94c-.42-.33-.84-.64-1.27-1a16.87,16.87,0,0,0-2.39-1.64,4.12,4.12,0,0,0-5,1.39c-1.42,1.73-1.72,3.93-1.81,6.09a1,1,0,0,0,1.32.91.88.88,0,0,0,.68.28,22.7,22.7,0,0,0,5.83-1.59c1-.35,2-.68,3-1a1.6,1.6,0,0,0,1.12-1A1.66,1.66,0,0,0,205.82,296.91Z"/><path class="cls-3" d="M223,286.59a4.39,4.39,0,0,0-2.55-1.81,3.63,3.63,0,0,0-3,.59,3.3,3.3,0,0,0-1.29,2.3s0,.06,0,.09A10.56,10.56,0,0,0,216,289a10.21,10.21,0,0,0,0,2.47v0h0l0,.27a.77.77,0,0,0,.33.49,1,1,0,0,0,.91.62,1.09,1.09,0,0,0,.73-.32,1.59,1.59,0,0,0,.21-.15c1.49-1.57,3-3.09,4.63-4.57A1,1,0,0,0,223,286.59Z"/><path class="cls-2" d="M156.88,288.89q1.92-1.89,3.85-3.77a1,1,0,0,1,.81-.25c.28-.27.56-.55.86-.8,4-3.32,10.19-3.81,15.2-3.75a6.65,6.65,0,0,1,2.33.68c2.92,1.16,5.81,2.16,7.45,5a.93.93,0,0,1,0,.83c.24-.59,2.81-1.27,3.4-1.49a28.08,28.08,0,0,1,3.71-1.07,26,26,0,0,1,7.41-.54c4.74.34,10.11,2.13,13.46,5.65a1.73,1.73,0,0,1,.35.82l.45,1.91a4.26,4.26,0,0,1,.16,1.58,1.43,1.43,0,0,1-.95,1.19c-.73.19-1.4-.43-1.91-1-2.93-3.27-6.72-7.14-11.36-7.59a24.87,24.87,0,0,0-17.23,4.39.88.88,0,0,1-.46.16,1.84,1.84,0,0,1-.29.26l-.49.32c-.75.51-1.7-.44-1.41-1.2a.94.94,0,0,1,0-.55c-.05-.3-.08-.61-.11-.9a5.4,5.4,0,0,0-.85-2.35,7.8,7.8,0,0,0-3.48-2.55.71.71,0,0,1-.29,0,23,23,0,0,0-5.58-.82,15.19,15.19,0,0,0-1.64.43c-4.14,1.37-7.44,4.53-10.26,7.74a.81.81,0,0,1-1.2.08,1.08,1.08,0,0,1-1.5-.72.85.85,0,0,1-.47-.26A1,1,0,0,1,156.88,288.89Z"/><path d="M154.89,289.22c5.05-6.49,12.93-10.89,21.32-10.14a20.4,20.4,0,0,1,11.24,4.49c.28.23.74.82,1.07.92a.77.77,0,0,0,.4,0c.27-.1.53-.19.81-.27a4.9,4.9,0,0,1,.51-.22c4.12-1.55,8.52-1.5,12.85-1.15a24.86,24.86,0,0,1,12.06,4.25,1.8,1.8,0,0,1,.25,2.47.35.35,0,0,1-.18.16c-.1,0-1.45-1.13-1.67-1.26a26,26,0,0,0-8.7-3.86,32.05,32.05,0,0,0-10.11.11,15.81,15.81,0,0,0-9.1,4.41c-.55.55-2.95,2.86-2.32.7a9,9,0,0,1,3.47-4.19,21,21,0,0,0-2.3-1.78,18.71,18.71,0,0,0-5.51-2.32,19.94,19.94,0,0,0-11.76.76,24.6,24.6,0,0,0-10.64,8C155.8,291.3,154.1,290.24,154.89,289.22Z"/><path d="M163.7,262.42c-1.13,1.84-3.09,3.95-5.5,3.42a2.16,2.16,0,0,1-1.28-.71,2.38,2.38,0,0,1-.29-1.48,6.63,6.63,0,0,1,1.19-3.51,1,1,0,1,0-1.73-1,8.51,8.51,0,0,0-1.46,4.81,3.62,3.62,0,0,0,2.76,3.75,6,6,0,0,0,4.8-.77,10.48,10.48,0,0,0,3.23-3.49C166.1,262.33,164.37,261.32,163.7,262.42Z"/><path d="M177.65,270.63a1,1,0,0,0-1.23.7c-.3.76-.58,1.52-.9,2.27a3.17,3.17,0,0,1-1.18,1.52,5.47,5.47,0,0,1-2,.94,1.47,1.47,0,0,1-1.27-.54,5.09,5.09,0,0,1-1.15-3.43,7.42,7.42,0,0,1,1.1-4c.67-1.1-1.06-2.1-1.73-1a9.14,9.14,0,0,0-.65,8.36A4.36,4.36,0,0,0,171.5,278c1.5.32,3.06-.54,4.23-1.41,1.48-1.11,2-3.07,2.62-4.72A1,1,0,0,0,177.65,270.63Z"/><path d="M199.66,270.84c0,.82-.07,1.64-.1,2.46a4,4,0,0,1-.28,1.95,4.09,4.09,0,0,1-1.52,1.14,5.38,5.38,0,0,1-1.87.59,3.62,3.62,0,0,1-4-4.06,1,1,0,0,0-2,0,5.68,5.68,0,0,0,3.67,5.78,6,6,0,0,0,4.11-.12,6.07,6.07,0,0,0,3.41-2.53,6,6,0,0,0,.42-2.47l.12-2.74C201.72,269.56,199.72,269.56,199.66,270.84Z"/><path d="M218.14,268.82a6.88,6.88,0,0,1-.91,3.63c-.51.87-1.44,2.21-2.56,2.22a4.55,4.55,0,0,1-3-1.67,4,4,0,0,1-1.11-3.06,1,1,0,0,0-2,0,6,6,0,0,0,1.69,4.48,6.49,6.49,0,0,0,4.46,2.25c1.81,0,3.22-1.52,4.13-2.95a8.9,8.9,0,0,0,1.34-4.9A1,1,0,0,0,218.14,268.82Z"/><path d="M155.68,279.21a4.28,4.28,0,0,0-3.56-1.37,4.44,4.44,0,0,0-3.34,2.12c-.67,1.1,1.06,2.11,1.73,1a2.44,2.44,0,0,1,1.78-1.15,2.35,2.35,0,0,1,2.05.89,2.84,2.84,0,0,1,.49,1.11,4.91,4.91,0,0,1,.07,1.43,4.65,4.65,0,0,1-.86,2.51,1,1,0,0,0,0,1.41,1,1,0,0,0,1.41,0C157.14,285,157.65,281.34,155.68,279.21Z"/><path d="M172.24,293.17a10.53,10.53,0,0,0-1.5-4.22c-1.72-2.44-5.56-1.09-7.45.42a7.39,7.39,0,0,0-2.45,3.59c-.38,1.24,1.55,1.76,1.93.54a5.57,5.57,0,0,1,5.41-3.84c.68,0,.91.34,1.2.93a11.06,11.06,0,0,1,.73,2.12,11.8,11.8,0,0,1,.19,4.66,1,1,0,0,0,.7,1.23,1,1,0,0,0,1.23-.7A15,15,0,0,0,172.24,293.17Z"/><path d="M207,297.89a22.16,22.16,0,0,0-4-4.46,6.35,6.35,0,0,0-5.26-1.64c-1.87.38-3,2-3.7,3.68a11.73,11.73,0,0,0-.9,5.82,1,1,0,0,0,1,1,1,1,0,0,0,1-1,10.42,10.42,0,0,1,.57-4.66c.44-1.18,1.19-2.66,2.56-2.91a4.72,4.72,0,0,1,3.77,1.51,21.9,21.9,0,0,1,3.26,3.67C206.05,299.94,207.79,298.94,207,297.89Z"/><path d="M223.58,285.26c-2-1.79-5-2.52-7.28-.78a4.48,4.48,0,0,0-1.74,3.45,15.92,15.92,0,0,0,.45,4.46,1,1,0,0,0,1.23.7,1,1,0,0,0,.7-1.23,14.85,14.85,0,0,1-.4-3.45,7.52,7.52,0,0,1,.05-.82,2.48,2.48,0,0,1,.1-.39s.11-.31.06-.19a2.2,2.2,0,0,1,.73-.93,3.27,3.27,0,0,1,1-.49,2.82,2.82,0,0,1,1.27-.11,4.73,4.73,0,0,1,2.46,1.19,1,1,0,0,0,1.42,0A1,1,0,0,0,223.58,285.26Z"/><path d="M247.52,274.23c-.9,0-2.05,1.64-2,2.85a2,2,0,0,0,2,2.06c.91-.07,2.07-1.73,2.19-3.12C249.75,275.51,248.16,274.21,247.52,274.23Z"/><path d="M243.48,260a2.31,2.31,0,0,0-2.11,2.38c0,1.29.54,1.89,1.79,1.89s2.92-1.52,2.8-2.36A4.74,4.74,0,0,0,243.48,260Z"/><path d="M152.74,237.63a2.17,2.17,0,0,0-2,1.89,2.39,2.39,0,0,0,2.15,2.35,2.44,2.44,0,0,0,2.28-2C155.2,239.15,153.66,237.7,152.74,237.63Z"/><path d="M263.48,267.28a1.74,1.74,0,0,0-1.85,2c0,1,1.13,2.36,1.91,2.36a2.78,2.78,0,0,0,2.13-2.33A2.15,2.15,0,0,0,263.48,267.28Z"/><path d="M146.9,260.25a5.24,5.24,0,0,0,1.83-2.08,2.31,2.31,0,0,0-2.14-2.09,2.14,2.14,0,0,0-2.32,2.13A3,3,0,0,0,146.9,260.25Z"/><path d="M161,251.72c-.09,1.28.63,1.94,2.24,2.07.87.07,1.46-.74,1.54-2.08s-.33-1.7-1.83-1.77C161.73,249.89,161.12,250.45,161,251.72Z"/><path d="M256.9,250.12a2,2,0,0,0-1.73,2.16,2.07,2.07,0,0,0,1.78,1.59c1.3,0,2.05-.59,2-1.67A2.18,2.18,0,0,0,256.9,250.12Z"/><path d="M223.8,267.75c-2.75-2-6.44-1.94-9.67-1.72a76.72,76.72,0,0,0-11.66,2c-4.82,1.08-9.65,2.26-14.61,2.45-3.58.14-3.12-1.3-2.28-4.29.63-2.27,1.24-4.57,1.79-6.87.27-1.14.6-2.6,2-3,2.85-.9,5.52-2.22,8.26-3.37,3.08-1.28,6-2.87,9-4.2,3.72-1.62,8.68-4.27,10.7-7.95,2.2-4,1.21-8.32-2.74-10.65A35.58,35.58,0,0,0,201.1,225a55.75,55.75,0,0,0-9.84-.89c-2.34.1-4.67.36-7,.47A30.21,30.21,0,0,0,172.55,228c-3.15,1.52,0,8.76.95,10.81a28.92,28.92,0,0,0,2.93,5.32c1.53,2,3.14,3.94,4.52,6a14.3,14.3,0,0,0,2.38,2.88,4.7,4.7,0,0,1,1.28,5.58c-.87,2.2-1.24,4.56-2.14,6.76-1.09,2.68-2.15,4.55-5.05,3.41a25.31,25.31,0,0,1-7.06-4.25c-3-2.51-6-6.27-10-7.08-4.09-.86-8.31-.51-11.86,2s-5.83,8.35-5.46,12.71c.49,5.81,4.43,10.84,8.2,15a51.77,51.77,0,0,0,35.85,17.06,48.72,48.72,0,0,0,21.05-3.85,46.34,46.34,0,0,0,9.25-5.23,24.73,24.73,0,0,0,7.44-7.8C228,281.51,230.37,272.51,223.8,267.75Zm-43-20.91c-3.36-5-5.68-11.77-5.75-14.64-.14-5.47,10.66-5.49,14.16-5.4a57,57,0,0,1,19.23,4.07c2.35,1,5.9,2.47,6.37,5.34.82,5.11-7,8.75-10.59,10.35-4.4,2-9.14,3.57-13.43,5.65C187.22,254,183.65,251,180.82,246.84Zm44,32.37a18.53,18.53,0,0,1-1.06,3.84c-2,5-6.11,8.53-10.58,11.35a45.22,45.22,0,0,1-18.47,6.52,47.55,47.55,0,0,1-35.12-10.07,50.48,50.48,0,0,1-7.5-7.26,27.92,27.92,0,0,1-5.47-9.1,11.47,11.47,0,0,1,.55-9.2c4.16-7.47,12.67-5.85,18.08-1.18a49.71,49.71,0,0,0,7.3,5.72c6,3.5,12.95,4.18,19.74,3.24,7-1,13.68-3.25,20.68-3.94,2.79-.27,6.71-.75,9.11,1.1C224.9,272.37,225.38,275.89,224.85,279.21Z"/><path d="M184,307.64a29,29,0,0,1-15.53-4.45c-1.1-.69-2.1,1-1,1.72A31,31,0,0,0,184,309.64,1,1,0,0,0,184,307.64Z"/></g></svg>