<svg id="Nose_Mouth" xmlns="http://www.w3.org/2000/svg" xmlns:xlink="http://www.w3.org/1999/xlink" viewBox="0 0 500 500"><defs><style>.cls-1{fill:url(#linear-gradient);}.cls-2{fill:#fcfbfa;}.cls-3{fill:#dddcdb;}.cls-4{fill:#f6a3ad;}.cls-5{fill:#ea7a92;}.cls-6{fill:#d66582;}.cls-7{fill:#fff;}</style><linearGradient id="linear-gradient" x1="166.97" y1="324.01" x2="209.41" y2="270.52" gradientUnits="userSpaceOnUse"><stop offset="0" stop-color="#d66582"/><stop offset="0.48" stop-color="#be4f65"/><stop offset="1" stop-color="#a03541"/></linearGradient></defs><path class="cls-1" d="M228.17,264.63a9.54,9.54,0,0,0-1.06-2.37,1,1,0,0,0-.25-.28.81.81,0,0,0-.9.16,4.6,4.6,0,0,0-1.35,1.43c-1.55,3.64-3.33,7.16-4.92,10.78-.4.9-.74,2.9-2.11,1.86-1.13-.85-1.26-2.53-2.62-3.36a3.18,3.18,0,0,0-2.9-.29,20.39,20.39,0,0,1-4.49,1.34L202,275c-9.45,1.85-19.68.56-29.08-1.69a1.22,1.22,0,0,0-1,0c-.37.27-.32.83-.22,1.28q2.47,11.5,5.49,22.88a23.6,23.6,0,0,0,1.52,4.5,16.58,16.58,0,0,0,3.85,4.85,25.33,25.33,0,0,0,26.48,4.66c3.75-1.5,5.83-3.76,8.41-6.78a67.07,67.07,0,0,0,4.54-5.94c1.19-1.76,2.79-3.76,3.48-5.79a17.74,17.74,0,0,0,1.39-5.75,20.51,20.51,0,0,1,.62-4.58c.37-2,.66-4,.85-5.95C228.71,273.1,229.32,268.39,228.17,264.63Z"/><path class="cls-2" d="M224.69,263.06l.17-.28c.52-.89,1.42-1.55,1.7-2.58-3.11,1-6.19,2-9.21,3.23a32.12,32.12,0,0,1-3.36,1.42,32.18,32.18,0,0,1-4.34.91q-2.72.32-5.46.51a87.46,87.46,0,0,1-21.8-.89c-3.36-.6-6.68-2-10-2.43s-6.47-2.39-9.29-3.94a24,24,0,0,1-3.91-2.32,35.43,35.43,0,0,1-3-2.29c-.27-.28-.48-.63-.78-.89a1,1,0,0,0-1.09-.22,3.48,3.48,0,0,0,0,2.69c1.07,3.15,1.68,6.48,2.63,9.7a12.06,12.06,0,0,1,.32,1.35c0,.14,0,.15,0,0l0,.34a21.14,21.14,0,0,0,1.38,4.86,18.92,18.92,0,0,1,2.1-2.28,3.26,3.26,0,0,1,.94-.66,3.55,3.55,0,0,1,2.55.36c1.73.7,3.5,1.32,5.27,1.89,1.28.41,2.36,1.18,3.64,1.52a69.22,69.22,0,0,0,11.17,1.75,98.74,98.74,0,0,0,13.21.42c2.24-.08,4.47-.29,6.71-.47,2-.16,3.29-1.16,5.05-2.08a4.67,4.67,0,0,1,4.32-.39c.5.28,4.92,4.19,4.66,4.54a14.3,14.3,0,0,0,1.82-4.37,32.69,32.69,0,0,1,3.22-7C223.77,264.67,224.23,263.86,224.69,263.06Z"/><path class="cls-3" d="M217.35,263.43a32.12,32.12,0,0,1-3.36,1.42,32.18,32.18,0,0,1-4.34.91q-2.72.32-5.46.51a87.46,87.46,0,0,1-21.8-.89c-3.36-.6-6.68-2-10-2.43s-6.47-2.39-9.29-3.94a24,24,0,0,1-3.91-2.32,35.43,35.43,0,0,1-3-2.29c-.27-.28-.48-.63-.78-.89a1,1,0,0,0-1.09-.22,3.48,3.48,0,0,0,0,2.69c.52,1.54.93,3.13,1.33,4.72a2,2,0,0,1,2.23.35c1.58,1.38,3.91,2.26,5.79,3.14,2.23,1.05,4.52,2,6.82,2.9,7.93,3.11,17,3.18,25.43,3.1a80.61,80.61,0,0,0,12.79-1,51.73,51.73,0,0,0,6.3-1.42,17.91,17.91,0,0,0,5.1-2.68,2,2,0,0,1,2.88,1c.12-.22.24-.44.37-.65.48-.79.94-1.6,1.4-2.4l.17-.28c.52-.89,1.42-1.55,1.7-2.58C223.45,261.16,220.37,262.23,217.35,263.43Z"/><path class="cls-4" d="M216.62,286.38c-3.54-2-8.24-3.1-12.26-3.71-.67-.1-7.35-.83-7.33-.33-.08-1.75-3.25-2.26-4.55-2.62a16.73,16.73,0,0,0-6.83-.29c-6.31,1-13.08,3.9-16.67,9.4a21.56,21.56,0,0,0-2.9,16.41c1.36,5.76,6.22,9.59,11.57,11.52,2.91,1.06,5.44.83,8.48.85,4.12,0,10-.4,13.36-2.95,1.21-.92,1.74-2.27,2.88-3.24a11.46,11.46,0,0,1,4.47-2.12c2.47-.64,5.07-.89,7.36-2,3.78-1.83,6.11-5.68,7.91-9.47.91-1.94,1.75-4.22.82-6.14a6.61,6.61,0,0,0-1.67-2A27.5,27.5,0,0,0,216.62,286.38Z"/><path class="cls-5" d="M197.15,281.89c-2.18,0-4.21,1.3-6,2.47a29.18,29.18,0,0,0-5,4.15c-2.13,2.23-4.41,5.09-5.27,8.11-.26.88-.23,2.26,1,2.43s1.62-1.18,2-1.93a30.94,30.94,0,0,1,4.33-6.2,25.78,25.78,0,0,1,4.06-3.53c1.39-1,3.18-2.34,4.94-2.35C199.28,285,199.18,281.87,197.15,281.89Z"/><path class="cls-5" d="M213.27,296.38a37.37,37.37,0,0,1-11.16,9.37c-6.08,3.44-14.77,6.2-21.75,4.33a14.49,14.49,0,0,1-9.83-9.27c-1.35-4.1-.78-8.55-.19-12.83-5.33,7-6.46,18.1.42,24.58a17.26,17.26,0,0,0,5.33,3.19,23.41,23.41,0,0,0,8.64,2.05,32.88,32.88,0,0,0,7.74-1.12,15.64,15.64,0,0,0,3.08-.93c3.74-1.74,6.92-5,11.32-5a20.32,20.32,0,0,0,2.34,0,8.49,8.49,0,0,0,3.34-1.34,29.84,29.84,0,0,0,8.31-6.88,16.3,16.3,0,0,0,3.76-9.94,2.26,2.26,0,0,0-.13-.9c-.31-.72-1.17-1-1.88-1.28A24.66,24.66,0,0,1,217.5,287a3.9,3.9,0,0,0-3.17-.94C215,289.19,215.33,293.68,213.27,296.38Z"/><path class="cls-6" d="M197.92,311.13a10.53,10.53,0,0,1-2.33,1.44,21.2,21.2,0,0,1-9.36,1.49c-4.35-.22-9.2-1.15-12.95-3.49-3.17-2-4.51-4.94-6.36-8-.15-.24-.36-.51-.64-.48s-.44.57-.39.95c.62,5.6,4.73,10.64,9.79,13a23.85,23.85,0,0,0,5.56,1.7,28.18,28.18,0,0,0,15-1.14c3.34-1.18,3.28-4.25,5.85-6,1.33-.91,3.16-.57,4.6.14a8.16,8.16,0,0,0,2.18.92,4.79,4.79,0,0,0,3.31-1,20.82,20.82,0,0,0,6.06-6.67c2-3.36,4.72-5.93,6.66-9.29a2.41,2.41,0,0,0-.39-3.72,2.57,2.57,0,0,0-1.75-1c-1.46.06-3.47,3.3-4.23,4.34-1.4,1.92-2.7,3.92-4.17,5.78a19.32,19.32,0,0,1-7.4,6.13c-1.35.57-2.8.89-4.17,1.43C200.87,308.48,199.46,309.92,197.92,311.13Z"/><path class="cls-2" d="M183.87,287.3a1.6,1.6,0,0,0-2.22-.18,16.32,16.32,0,0,0-5.28,7.82,1.57,1.57,0,0,0,3,1,16.23,16.23,0,0,1,.79-2s.24-.45.07-.14c.09-.17.18-.34.28-.51s.35-.59.54-.87.39-.55.6-.82a5.54,5.54,0,0,1,.37-.45l.16-.19a13.13,13.13,0,0,1,1.54-1.44A1.59,1.59,0,0,0,183.87,287.3Z"/><path class="cls-2" d="M202.12,291.84a2.43,2.43,0,0,0-1.18-1.48,1.36,1.36,0,0,0-.54-.33c-2.81-.83-5.75,1.28-7.65,3.17a15.91,15.91,0,0,0-4.21,7.13,1.58,1.58,0,0,0,2.78,1.42,17.59,17.59,0,0,1,7.76-5.75,5.4,5.4,0,0,0,2.42-1.49A3,3,0,0,0,202.12,291.84Z"/><path class="cls-2" d="M208.18,287.34l-.12-.38a1.56,1.56,0,0,0-.53-.61,4.4,4.4,0,0,0-1.22-.52,4.85,4.85,0,0,0-1.31-.16,1.22,1.22,0,0,0-.6.09,1.18,1.18,0,0,0-.53.28,1.25,1.25,0,0,0-.37.49,1.31,1.31,0,0,0-.18.61,1.57,1.57,0,0,0,.37,1.12l.3.28a1.59,1.59,0,0,0,.79.27,3.24,3.24,0,0,1,.62.05,2.94,2.94,0,0,1,.61.21l-.24-.12a1.14,1.14,0,0,0,.55.22,1.19,1.19,0,0,0,.62,0,1.14,1.14,0,0,0,.55-.24,1.08,1.08,0,0,0,.44-.41l.19-.38A1.43,1.43,0,0,0,208.18,287.34Z"/><path d="M229.91,267.24a27.81,27.81,0,0,0-1.84-6.71c-.55-1.13-1.21-1.83-2-1.47a66.83,66.83,0,0,1-28,6.81,80.06,80.06,0,0,1-28.94-5.26,48.32,48.32,0,0,1-9.4-4.64c-1.06-.67-7.24-3.93-4.55-5.57a2,2,0,0,1,.32-.18l.16-.07.07,0,.35-.12c.28-.1.57-.17.85-.25a1,1,0,0,0,.7-1.23,1,1,0,0,0-1.23-.7c-1.32.36-2.92.87-3.57,2.21s-.25,4.64,0,6.27a45.85,45.85,0,0,0,2.09,7q.85,2.75,1.57,5.53c.24.93.42,4.18,1.23,4.68,1,.6,2-1.57,2.64-2.11,2.69-2.37,4.42-.7,7.07.6.94.46,1.91.88,2.89,1.26a1,1,0,0,0,0,.74,32.56,32.56,0,0,1,2.26,9.1,19.12,19.12,0,0,0-6.41,6.92,21.32,21.32,0,0,0-1.45,15.57,15.19,15.19,0,0,0,3.76,6.4,21.36,21.36,0,0,0,6.12,4.49,29.94,29.94,0,0,0,17.93,1.75,20,20,0,0,0,6.62-2.74,15.29,15.29,0,0,0,1.7-1.3c1.36.38,5.11-.24,5.67-.38a20.47,20.47,0,0,0,7.51-3.74c5.72-4.43,9.7-11.08,12.33-17.73a1.13,1.13,0,0,0,.23-.59A54.21,54.21,0,0,0,229.91,267.24Zm-65.3,1.23a8.26,8.26,0,0,0-1.65-.29,4.58,4.58,0,0,0-3.42,1.11c-.29.27-.63.63-1,.5a33.86,33.86,0,0,0-1.75-8.15c-.41-1-.82-2-1.15-3a32.71,32.71,0,0,0-.87-3.77,50.61,50.61,0,0,0,11.44,6.74,90.59,90.59,0,0,0,15.31,4.61,69.47,69.47,0,0,0,29.59.18,66.32,66.32,0,0,0,7.69-2.12c.81-.28,4.85-2.67,5.28-1.56.27.7-1.48,2.26-1.82,2.76a33.12,33.12,0,0,0-2.55,5,17.28,17.28,0,0,0-1.1,4c-.08.35-.21.77-.56.86-.51.12-1.35-1.51-1.73-1.89-.89-.88-1.95-2.42-3.29-2.58-2-.24-4.26,1.58-6.09,2.13a41,41,0,0,1-8.85,1.64,73,73,0,0,1-18.32-.69,44.88,44.88,0,0,1-8.94-2.53C168.75,270.5,166.78,269.09,164.61,268.47Zm41.29,43.47c-.94.25-2.11.24-3.16.43a6.24,6.24,0,0,1,3.79-.62C206.32,311.81,206.11,311.89,205.9,311.94ZM223,295.22c-.64,1.28-1.33,2.53-2.07,3.74a36.93,36.93,0,0,1-9.73,10.54,13.61,13.61,0,0,1-2,1.18,1.32,1.32,0,0,0-.58-.45,8.24,8.24,0,0,0-10,3.27s0,.06,0,.08a14.68,14.68,0,0,1-3.78,2.07,17.53,17.53,0,0,1-2.61.74c-4.48.92-9.22.23-13.62-.62a15.82,15.82,0,0,1-5.35-1.84,24.19,24.19,0,0,1-3.81-3.56c-2.15-2.13-2.85-5.87-3.21-8.77a19.15,19.15,0,0,1,1.38-8.74,16.55,16.55,0,0,1,4.06-6.35c2.37-2.31,6.6-3.5,9.75-4.26,4.56-1.1,9.42-1.84,14-.44-.8.14-1.59.28-2.39.44-1.26.24-.72,2.16.54,1.92a35,35,0,0,1,10.47-.4,26.35,26.35,0,0,1,5.27,1.14,38.18,38.18,0,0,1,4.69,1.62c3,1.46,5.82,3.19,8.77,4.82a13.8,13.8,0,0,1,1.55.91C223.92,293.26,223.49,294.25,223,295.22Zm5-19.36a24.88,24.88,0,0,1-.17,2.62,53.39,53.39,0,0,1-2.82,11.93c.15-.38-4.21-2.64-4.55-2.83q-1.94-1.09-3.9-2.11a34.29,34.29,0,0,0-4.32-1.7c-1.9-.7-3.77-1.13-5.74-1.65a23.3,23.3,0,0,0-8.93-.62,1,1,0,0,0-.63-1.27c-5.76-2.19-13.24-1.21-19,.5a20.33,20.33,0,0,0-3.38,1.34s0-.09,0-.12a36.92,36.92,0,0,0-.66-4.37,23.1,23.1,0,0,0-1.34-3.48c1.13.38,2.28.72,3.44,1,10.49,2.58,23.17,2.7,33.44-.87,1.9-.66,3.29-2,5-.55,1.07.89,2.32,3.95,3.83,4.07s2.57-5,3-6.28a21.92,21.92,0,0,1,5.39-8.9C229,266.86,228.09,271.27,228.05,275.86Z"/><path class="cls-4" d="M190.81,252.21c4.29-2.08,9-3.69,13.43-5.65,3.61-1.6,11.41-5.24,10.59-10.35-.47-2.87-4-4.36-6.37-5.34a57,57,0,0,0-19.23-4.07c-3.5-.09-14.3-.07-14.16,5.4.07,2.87,2.39,9.66,5.75,14.64C183.65,251,187.22,254,190.81,252.21Z"/><path class="cls-5" d="M190.81,252.21c4.29-2.08,9-3.69,13.43-5.65,3.61-1.6,11.41-5.24,10.59-10.35-.34-2.07-2.68-6.65-5.46-5.62-.86.32-1.31,1.24-1.78,2a22,22,0,0,1-2,2.62,36.07,36.07,0,0,1-6.42,6.47,28.76,28.76,0,0,1-6.55,3.36,9.79,9.79,0,0,1-7.14.25,12.28,12.28,0,0,1-5.62-4.95c-1-1.74-2.22-4.28-4.24-5.06-.31,1.37.83,2.84,1.34,4.11a38.37,38.37,0,0,0,3.84,7.42C183.65,251,187.22,254,190.81,252.21Z"/><path class="cls-7" d="M189.22,230.23a2.54,2.54,0,0,0-1.5-1.15,18.41,18.41,0,0,0-3.47-.44,17.76,17.76,0,0,0-3.49.3,2.51,2.51,0,0,0-1.5,1.15A2.6,2.6,0,0,0,179,232a2.53,2.53,0,0,0,1.15,1.49l.6.25a2.5,2.5,0,0,0,1.33,0l.12,0a15.16,15.16,0,0,1,3.23,0c.32.05.64.1.95.17a2.64,2.64,0,0,0,1.93-.25,2.58,2.58,0,0,0,1.15-1.5A2.52,2.52,0,0,0,189.22,230.23Z"/><path class="cls-7" d="M183.69,234.84c-3.22,0-3.22,5,0,5S186.91,234.84,183.69,234.84Z"/><path d="M214.62,230.07A35.58,35.58,0,0,0,201.1,225a55.75,55.75,0,0,0-9.84-.89c-2.34.1-4.67.36-7,.47A30.21,30.21,0,0,0,172.55,228c-3.15,1.52,0,8.76.95,10.81a28.92,28.92,0,0,0,2.93,5.32c1.53,2,3.14,3.94,4.52,6a14.3,14.3,0,0,0,2.38,2.88,4.7,4.7,0,0,1,1.28,5.58c-.78,2-1.19,4.1-1.91,6.11a1.57,1.57,0,0,1,.49.2,3.72,3.72,0,0,0,.38.22l.27.06c.65.06,1.3.06,2,.1.55-2,1.08-4,1.57-6.07.27-1.14.6-2.6,2-3,2.85-.9,5.52-2.22,8.26-3.37,3.08-1.28,6-2.87,9-4.2,3.72-1.62,8.68-4.27,10.7-7.95C219.56,236.72,218.57,232.4,214.62,230.07Zm-10.38,16.49c-4.4,2-9.14,3.57-13.43,5.65-3.59,1.74-7.16-1.18-10-5.37-3.36-5-5.68-11.77-5.75-14.64-.14-5.47,10.66-5.49,14.16-5.4a57,57,0,0,1,19.23,4.07c2.35,1,5.9,2.47,6.37,5.34C215.65,241.32,207.85,245,204.24,246.56Z"/><path d="M247.52,274.23c-.9,0-2.05,1.64-2,2.85a2,2,0,0,0,2,2.06c.91-.07,2.07-1.73,2.19-3.12C249.75,275.51,248.16,274.21,247.52,274.23Z"/><path d="M243.48,260a2.31,2.31,0,0,0-2.11,2.38c0,1.29.54,1.89,1.79,1.89s2.92-1.52,2.8-2.36A4.74,4.74,0,0,0,243.48,260Z"/><path d="M152.74,237.63a2.17,2.17,0,0,0-2,1.89,2.39,2.39,0,0,0,2.15,2.35,2.44,2.44,0,0,0,2.28-2C155.2,239.15,153.66,237.7,152.74,237.63Z"/><path d="M263.48,267.28a1.74,1.74,0,0,0-1.85,2c0,1,1.13,2.36,1.91,2.36a2.78,2.78,0,0,0,2.13-2.33A2.15,2.15,0,0,0,263.48,267.28Z"/><path d="M146.9,260.25a5.24,5.24,0,0,0,1.83-2.08,2.31,2.31,0,0,0-2.14-2.09,2.14,2.14,0,0,0-2.32,2.13A3,3,0,0,0,146.9,260.25Z"/><path d="M161,251.72c-.09,1.28.63,1.94,2.24,2.07.87.07,1.46-.74,1.54-2.08s-.33-1.7-1.83-1.77C161.73,249.89,161.12,250.45,161,251.72Z"/><path d="M256.9,250.12a2,2,0,0,0-1.73,2.16,2.07,2.07,0,0,0,1.78,1.59c1.3,0,2.05-.59,2-1.67A2.18,2.18,0,0,0,256.9,250.12Z"/></svg>