<svg id="Nose_Mouth" xmlns="http://www.w3.org/2000/svg" viewBox="0 0 500 500"><defs><style>.cls-1{fill:#f6a3ad;}.cls-2{fill:#ea7a92;}.cls-3{fill:#fff;}.cls-4{fill:#fcfbfa;}</style></defs><g id="_5_Nose_Mouth_rose" data-name="5_Nose_Mouth_rose"><path class="cls-1" d="M190.81,252.21c4.29-2.08,9-3.69,13.43-5.65,3.61-1.6,11.41-5.24,10.59-10.35-.47-2.87-4-4.36-6.37-5.34a57,57,0,0,0-19.23-4.07c-3.5-.09-14.3-.07-14.16,5.4.07,2.87,2.39,9.66,5.75,14.64C183.65,251,187.22,254,190.81,252.21Z"/><path class="cls-2" d="M190.81,252.21c4.29-2.08,9-3.69,13.43-5.65,3.61-1.6,11.41-5.24,10.59-10.35-.34-2.07-2.68-6.65-5.46-5.62-.86.32-1.31,1.24-1.78,2a22,22,0,0,1-2,2.62,36.07,36.07,0,0,1-6.42,6.47,28.76,28.76,0,0,1-6.55,3.36,9.79,9.79,0,0,1-7.14.25,12.28,12.28,0,0,1-5.62-4.95c-1-1.74-2.22-4.28-4.24-5.06-.31,1.37.83,2.84,1.34,4.11a38.37,38.37,0,0,0,3.84,7.42C183.65,251,187.22,254,190.81,252.21Z"/><path class="cls-3" d="M189.22,230.23a2.54,2.54,0,0,0-1.5-1.15,18.41,18.41,0,0,0-3.47-.44,17.76,17.76,0,0,0-3.49.3,2.51,2.51,0,0,0-1.5,1.15A2.6,2.6,0,0,0,179,232a2.53,2.53,0,0,0,1.15,1.49l.6.25a2.5,2.5,0,0,0,1.33,0l.12,0a15.16,15.16,0,0,1,3.23,0c.32.05.64.1.95.17a2.64,2.64,0,0,0,1.93-.25,2.58,2.58,0,0,0,1.15-1.5A2.52,2.52,0,0,0,189.22,230.23Z"/><path class="cls-3" d="M183.69,234.84c-3.22,0-3.22,5,0,5S186.91,234.84,183.69,234.84Z"/><path class="cls-1" d="M206.44,286.39a24.57,24.57,0,0,0,1.86-2.09,20.24,20.24,0,0,0,3.45-14.76,22.67,22.67,0,0,0-1.07-2.68,26,26,0,0,0-3.39-7.08c-1-1.49-2.55-3-4.37-2.83s-3.19,2.12-4.09,3.86c-2.09,4-4.24,8.3-8,10.78-1.12.74-2.36,1.3-3.49,2-1.55,1-2.92,2.31-2.43,4.17a14.64,14.64,0,0,0,3,5.72,8.79,8.79,0,0,0,5.71,3.89c2.86.79,5.76,1.43,8.68,1.93a2.27,2.27,0,0,0,1.46-.07,2.39,2.39,0,0,0,.7-.68C205.07,287.82,205.76,287.11,206.44,286.39Z"/><path class="cls-2" d="M211.77,274.89c.15-.56.28-1.13.38-1.7.34-1.94-.51-3.91-1.16-5.72a39.23,39.23,0,0,0-2.65-5.79,1.4,1.4,0,0,0-.44-.55.51.51,0,0,0-.65.07c-.29.38.61,3.14.7,3.68.33,1.88,1.07,3.36,1.13,5.34.08,2.92.27,9.63-3.19,11a1.42,1.42,0,0,1-1.62-.31,2.69,2.69,0,0,1-.32-1.74c0-.6-.27-1.33-.86-1.42s-1,.46-1.37.91c-4.16,5.13-10.76,1.62-14-2.7-.34-.46-.67-1-1.22-1.15a1.37,1.37,0,0,0-1.61.84c-.23.67.15,1,.44,1.59.78,1.55,1.44,3.12,2.35,4.61a12.12,12.12,0,0,0,2.71,3.28,11.24,11.24,0,0,0,4,1.75c1.24.36,2.3,1.1,3.6,1.39a10.11,10.11,0,0,0,8-1.61c2.6-1.89,3.91-5.94,4.89-8.88C211.22,276.81,211.52,275.86,211.77,274.89Z"/><path class="cls-2" d="M205.73,260.44c-.52-1.16-1.83-.26-2,.68a2.72,2.72,0,0,0,.13,1.13,20.46,20.46,0,0,1,.55,9.17c-.19,1-.78,4.55,1.45,2.56,1.39-1.24,1.39-5.26,1.34-6.94A18.18,18.18,0,0,0,205.73,260.44Z"/><path class="cls-4" d="M200.87,263.3c.14-.46.42-1.56-.11-1.9s-1.24.45-1.51.88a8,8,0,0,0-.68,1.62,16.5,16.5,0,0,1-3.42,5.47,2.82,2.82,0,0,0-.86,1.53c-.07.86.45.86,1,.45a17.66,17.66,0,0,0,5.1-6.83A10.57,10.57,0,0,0,200.87,263.3Z"/><path d="M212,265.77c-.08-.34-.18-.67-.29-1a25.41,25.41,0,0,0-3.4-6.35c-1.21-1.74-2.94-3.29-5.19-3.2-2,.07-4,1.89-5.3,3.29a27.2,27.2,0,0,0-3.52,5.29,31.24,31.24,0,0,1-3.71,6c-.86,1-4.53,4.34-5.61,2.17-.86-1.73-3.45-.21-2.59,1.51,2.07,4.17,7.54,1.33,9.83-1,2.78-2.86,4.14-6.64,6.28-9.93a11.44,11.44,0,0,1,4.64-4.32c1.89-1,2.63.6,3.72,2a20.53,20.53,0,0,1,3.9,13c-.07,3.73-1.53,7-3.23,10.26-1,2-3,2.83-4.93,3.84-.85.43-1.91.59-1.56,1.7a1.47,1.47,0,0,0,1.76,1,7.81,7.81,0,0,0,4.39-2.2,17.72,17.72,0,0,0,5.69-15.9A38,38,0,0,0,212,265.77Z"/><path d="M187.37,259.28c.27-1.14.6-2.6,2-3,2.85-.9,5.52-2.22,8.26-3.37,3.08-1.28,6-2.87,9-4.2,3.72-1.62,8.68-4.27,10.7-7.95,2.2-4,1.21-8.32-2.74-10.65-2.18-1.28-5.45-3.55-8-3.79-1.91-.19-3.63-1.07-5.51-1.32a55.75,55.75,0,0,0-9.84-.89c-2.34.1-4.67.36-7,.47A30.21,30.21,0,0,0,172.55,228c-3.15,1.52,0,8.76.95,10.81a28.92,28.92,0,0,0,2.93,5.32c1.53,2,3.14,3.94,4.52,6a14.3,14.3,0,0,0,2.38,2.88,4.7,4.7,0,0,1,1.28,5.58c-2.05,5.2-2.37,10.91-5.42,15.34l-.27.4a14.17,14.17,0,0,1-4.18,3.74c-2.11,1.26-4.13,2.65-6.57,3.08-7.25,1.26-14.57.27-20.42-4.53a6.57,6.57,0,0,1-2.27-2.51c-1.6-4.22-5.87,1-2.79,2.38a4.49,4.49,0,0,1,1.37,1.26c4.92,5,12.7,7.14,19.65,6.84a57.57,57.57,0,0,0,7.72-1.18c3.59-.68,8.08-3.92,9.62-7.29.37-.8,1-.6,1.52,0a1.86,1.86,0,0,1,.42,1.08c.39,3.39,2.45,5.79,4.82,8a16.87,16.87,0,0,0,2.51,1.72,32.59,32.59,0,0,0,24.79,4.13,29.6,29.6,0,0,0,9.17-4.16,3.84,3.84,0,0,0,1.28-2.23,1.28,1.28,0,0,0-.88-1.69,2.43,2.43,0,0,0-3.11,1c-1.77,2.42-4.61,2.77-7.13,3.51a42,42,0,0,1-5.77.82c-5.1.73-10.48-1-14.95-3.38a17.57,17.57,0,0,1-4-3,13.2,13.2,0,0,1-2.88-3.39,13.54,13.54,0,0,1-1.39-4.57c-.07-.53-.12-1.06-.14-1.59C185.14,268,186.35,263.57,187.37,259.28Zm-6.55-12.44c-3.36-5-5.68-11.77-5.75-14.64-.14-5.47,10.66-5.49,14.16-5.4a57,57,0,0,1,19.23,4.07c2.35,1,5.9,2.47,6.37,5.34.82,5.11-7,8.75-10.59,10.35-4.4,2-9.14,3.57-13.43,5.65C187.22,254,183.65,251,180.82,246.84Z"/><path d="M247.52,274.23c-.9,0-2.05,1.64-2,2.85a2,2,0,0,0,2,2.06c.91-.07,2.07-1.73,2.19-3.12C249.75,275.51,248.16,274.21,247.52,274.23Z"/><path d="M243.48,260a2.31,2.31,0,0,0-2.11,2.38c0,1.29.54,1.89,1.79,1.89s2.92-1.52,2.8-2.36A4.74,4.74,0,0,0,243.48,260Z"/><path d="M152.74,237.63a2.17,2.17,0,0,0-2,1.89,2.39,2.39,0,0,0,2.15,2.35,2.44,2.44,0,0,0,2.28-2C155.2,239.15,153.66,237.7,152.74,237.63Z"/><path d="M263.48,267.28a1.74,1.74,0,0,0-1.85,2c0,1,1.13,2.36,1.91,2.36a2.78,2.78,0,0,0,2.13-2.33A2.15,2.15,0,0,0,263.48,267.28Z"/><path d="M146.9,260.25a5.24,5.24,0,0,0,1.83-2.08,2.31,2.31,0,0,0-2.14-2.09,2.14,2.14,0,0,0-2.32,2.13A3,3,0,0,0,146.9,260.25Z"/><path d="M161,251.72c-.09,1.28.63,1.94,2.24,2.07.87.07,1.46-.74,1.54-2.08s-.33-1.7-1.83-1.77C161.73,249.89,161.12,250.45,161,251.72Z"/><path d="M256.9,250.12a2,2,0,0,0-1.73,2.16,2.07,2.07,0,0,0,1.78,1.59c1.3,0,2.05-.59,2-1.67A2.18,2.18,0,0,0,256.9,250.12Z"/></g></svg>