<svg id="Nose_Mouth" xmlns="http://www.w3.org/2000/svg" xmlns:xlink="http://www.w3.org/1999/xlink" viewBox="0 0 500 500"><defs><style>.cls-1{fill:#f6a3ad;}.cls-2{fill:#ea7a92;}.cls-3{fill:#fff;}.cls-4{fill:none;}.cls-5{fill:url(#New_Gradient_Swatch_25);}</style><linearGradient id="New_Gradient_Swatch_25" x1="180.6" y1="303.01" x2="180.6" y2="263.7" gradientUnits="userSpaceOnUse"><stop offset="0" stop-color="#d66582"/><stop offset="0.22" stop-color="#d1617c"/><stop offset="0.51" stop-color="#c4556d"/><stop offset="0.83" stop-color="#ae4252"/><stop offset="1" stop-color="#a03541"/></linearGradient></defs><g id="_1_Nose_Mouth_rose" data-name="1_Nose_Mouth_rose"><path class="cls-1" d="M190.81,252.21c4.29-2.08,9-3.69,13.43-5.65,3.61-1.6,11.41-5.24,10.59-10.35-.47-2.87-4-4.36-6.37-5.34a57,57,0,0,0-19.23-4.07c-3.5-.09-14.3-.07-14.16,5.4.07,2.87,2.39,9.66,5.75,14.64C183.65,251,187.22,254,190.81,252.21Z"/><path class="cls-2" d="M190.81,252.21c4.29-2.08,9-3.69,13.43-5.65,3.61-1.6,11.41-5.24,10.59-10.35-.34-2.07-2.68-6.65-5.46-5.62-.86.32-1.31,1.24-1.78,2a22,22,0,0,1-2,2.62,36.07,36.07,0,0,1-6.42,6.47,28.76,28.76,0,0,1-6.55,3.36,9.79,9.79,0,0,1-7.14.25,12.28,12.28,0,0,1-5.62-4.95c-1-1.74-2.22-4.28-4.24-5.06-.31,1.37.83,2.84,1.34,4.11a38.37,38.37,0,0,0,3.84,7.42C183.65,251,187.22,254,190.81,252.21Z"/><path class="cls-3" d="M189.22,230.23a2.54,2.54,0,0,0-1.5-1.15,18.41,18.41,0,0,0-3.47-.44,17.76,17.76,0,0,0-3.49.3,2.51,2.51,0,0,0-1.5,1.15A2.6,2.6,0,0,0,179,232a2.53,2.53,0,0,0,1.15,1.49l.6.25a2.5,2.5,0,0,0,1.33,0l.12,0a15.16,15.16,0,0,1,3.23,0c.32.05.64.1.95.17a2.64,2.64,0,0,0,1.93-.25,2.58,2.58,0,0,0,1.15-1.5A2.52,2.52,0,0,0,189.22,230.23Z"/><path class="cls-3" d="M183.69,234.84c-3.22,0-3.22,5,0,5S186.91,234.84,183.69,234.84Z"/><path class="cls-4" d="M208.46,230.87a57,57,0,0,0-19.23-4.07c-3.5-.09-14.3-.07-14.16,5.4.07,2.87,2.39,9.66,5.75,14.64,2.83,4.19,6.4,7.11,10,5.37,4.29-2.08,9-3.69,13.43-5.65,3.61-1.6,11.41-5.24,10.59-10.35C214.36,233.34,210.81,231.85,208.46,230.87Z"/><path class="cls-5" d="M169.77,263.73a8.14,8.14,0,0,0-6.08,2.5c-1.71,2-2.27,5-2.44,7.56-.33,4.95,1,9.83,2.86,14.38a53.55,53.55,0,0,0,7.08,12.94,18.5,18.5,0,0,0,1.75,1.9c.1-2.12.24-4.23.46-6.33a24,24,0,0,1,1.24-6.19c1.46-3.75,4.62-6.17,8.25-7.67,5.37-2.2,11.87-2.58,17.1,0l-.18-.51A26.25,26.25,0,0,0,188,269.39c-1.94-1.08-3.67-2.38-5.73-3.29A28.17,28.17,0,0,0,169.77,263.73Z"/><path class="cls-1" d="M202.8,286.9c-2.66-5-9.86-5.16-14.71-4.23-5.53,1.06-10.64,4.91-11.92,10.59a1.43,1.43,0,0,0,.45,1.44,66,66,0,0,0-.73,9.27,1.44,1.44,0,0,1-.47,1c5.66,3.89,13.29,4.82,19,.15,4.18-3.41,7-10.09,7-16A1.56,1.56,0,0,0,202.8,286.9Z"/><path class="cls-2" d="M202.82,285.7a19.7,19.7,0,0,0-1.77-.91l-.09-.09c-4.89-4.08-13-2.69-18.26,0a12.19,12.19,0,0,0-6.09,6.82,41.78,41.78,0,0,0-2.41,10.35,1.2,1.2,0,0,0,.5,1.19c0,.64,0,1.28,0,1.91a1.5,1.5,0,0,0,3,0c-.05-3.58.18-7.54,1.57-10.89a12.16,12.16,0,0,1,4.83-5.41,23,23,0,0,1,1.22,2q.44.78.81,1.59c.07.13.13.27.2.41s.06.14.09.23c.12.26.22.53.32.8a1.55,1.55,0,0,0,1.85,1.05,1.53,1.53,0,0,0,1-1.85,28.3,28.3,0,0,0-2.87-5.58,16.66,16.66,0,0,1,14.55,1A1.5,1.5,0,0,0,202.82,285.7Z"/><path d="M214.62,230.07c-2.18-1.28-5.45-3.55-8-3.79-1.91-.19-3.63-1.07-5.51-1.32a55.75,55.75,0,0,0-9.84-.89c-2.34.1-4.67.36-7,.47A30.21,30.21,0,0,0,172.55,228c-3.15,1.52,0,8.76.95,10.81a28.92,28.92,0,0,0,2.93,5.32c1.53,2,3.14,3.94,4.52,6a14.3,14.3,0,0,0,2.38,2.88,4.7,4.7,0,0,1,1.28,5.58,41.44,41.44,0,0,0-1.48,4.67c-3.26-2.07-7.8-2.43-11.45-2.59-5.12-.24-9.88,1.45-12,6.44-4.41,10.42,1.17,22.78,6.45,31.78,2.66,4.52,6.22,8.46,11.09,10.63A18.9,18.9,0,0,0,192,310c6.07-2.49,9.85-8.32,11.34-14.5,1.66-6.89,1.43-12.85-2.76-18.76-4-5.59-8.12-9.2-14.58-11.49.39-2,.88-4,1.35-6,.27-1.14.6-2.6,2-3,2.85-.9,5.52-2.22,8.26-3.37,3.08-1.28,6-2.87,9-4.2,3.72-1.62,8.68-4.27,10.7-7.95C219.56,236.72,218.57,232.4,214.62,230.07Zm-13.35,57.14c.85,6.33-2.19,14.17-6.83,18-5.73,4.67-13.36,3.74-19-.15a1.44,1.44,0,0,0,.47-1c.15-3.83.17-8,1.3-11.69C180.06,282.9,194.65,281.42,201.27,287.21ZM188,269.39a26.25,26.25,0,0,1,11.8,12.91l.18.51c-5.23-2.57-11.73-2.19-17.1,0-3.63,1.5-6.79,3.92-8.25,7.67a24,24,0,0,0-1.24,6.19c-.22,2.1-.36,4.21-.46,6.33a18.5,18.5,0,0,1-1.75-1.9,53.55,53.55,0,0,1-7.08-12.94c-1.86-4.55-3.19-9.43-2.86-14.38.17-2.57.73-5.53,2.44-7.56a8.14,8.14,0,0,1,6.08-2.5,28.17,28.17,0,0,1,12.51,2.37C184.34,267,186.07,268.31,188,269.39Zm16.23-22.83c-4.4,2-9.14,3.57-13.43,5.65-3.59,1.74-7.16-1.18-10-5.37-3.36-5-5.68-11.77-5.75-14.64-.14-5.47,10.66-5.49,14.16-5.4a57,57,0,0,1,19.23,4.07c2.35,1,5.9,2.47,6.37,5.34C215.65,241.32,207.85,245,204.24,246.56Z"/><path d="M247.52,274.23c-.9,0-2.05,1.64-2,2.85a2,2,0,0,0,2,2.06c.91-.07,2.07-1.73,2.19-3.12C249.75,275.51,248.16,274.21,247.52,274.23Z"/><path d="M243.48,260a2.31,2.31,0,0,0-2.11,2.38c0,1.29.54,1.89,1.79,1.89s2.92-1.52,2.8-2.36A4.74,4.74,0,0,0,243.48,260Z"/><path d="M152.74,237.63a2.17,2.17,0,0,0-2,1.89,2.39,2.39,0,0,0,2.15,2.35,2.44,2.44,0,0,0,2.28-2C155.2,239.15,153.66,237.7,152.74,237.63Z"/><path d="M263.48,267.28a1.74,1.74,0,0,0-1.85,2c0,1,1.13,2.36,1.91,2.36a2.78,2.78,0,0,0,2.13-2.33A2.15,2.15,0,0,0,263.48,267.28Z"/><path d="M146.9,260.25a5.24,5.24,0,0,0,1.83-2.08,2.31,2.31,0,0,0-2.14-2.09,2.14,2.14,0,0,0-2.32,2.13A3,3,0,0,0,146.9,260.25Z"/><path d="M161,251.72c-.09,1.28.63,1.94,2.24,2.07.87.07,1.46-.74,1.54-2.08s-.33-1.7-1.83-1.77C161.73,249.89,161.12,250.45,161,251.72Z"/><path d="M256.9,250.12a2,2,0,0,0-1.73,2.16,2.07,2.07,0,0,0,1.78,1.59c1.3,0,2.05-.59,2-1.67A2.18,2.18,0,0,0,256.9,250.12Z"/></g></svg>