<svg id="Nose_Mouth" xmlns="http://www.w3.org/2000/svg" viewBox="0 0 500 500"><defs><style>.cls-1{fill:#f6a3ad;}.cls-2{fill:#ea7a92;}.cls-3{fill:#fff;}.cls-4{fill:#fa5782;}.cls-5{fill:#d61e58;}.cls-6{fill:#41e5fb;}.cls-7{fill:#2b8fd6;}.cls-8{fill:#f4ff1d;}.cls-9{fill:#f7da00;}.cls-10{fill:#fcfbfa;}</style></defs><g id="_1_Nose_Mouth_rose" data-name="1_Nose_Mouth_rose"><path class="cls-1" d="M190.81,252.21c4.29-2.08,9-3.69,13.43-5.65,3.61-1.6,11.41-5.24,10.59-10.35-.47-2.87-4-4.36-6.37-5.34a57,57,0,0,0-19.23-4.07c-3.5-.09-14.3-.07-14.16,5.4.07,2.87,2.39,9.66,5.75,14.64C183.65,251,187.22,254,190.81,252.21Z"/><path class="cls-2" d="M190.81,252.21c4.29-2.08,9-3.69,13.43-5.65,3.61-1.6,11.41-5.24,10.59-10.35-.34-2.07-2.68-6.65-5.46-5.62-.86.32-1.31,1.24-1.78,2a22,22,0,0,1-2,2.62,36.07,36.07,0,0,1-6.42,6.47,28.76,28.76,0,0,1-6.55,3.36,9.79,9.79,0,0,1-7.14.25,12.28,12.28,0,0,1-5.62-4.95c-1-1.74-2.22-4.28-4.24-5.06-.31,1.37.83,2.84,1.34,4.11a38.37,38.37,0,0,0,3.84,7.42C183.65,251,187.22,254,190.81,252.21Z"/><path class="cls-3" d="M189.22,230.23a2.54,2.54,0,0,0-1.5-1.15,18.41,18.41,0,0,0-3.47-.44,17.76,17.76,0,0,0-3.49.3,2.51,2.51,0,0,0-1.5,1.15A2.6,2.6,0,0,0,179,232a2.53,2.53,0,0,0,1.15,1.49l.6.25a2.5,2.5,0,0,0,1.33,0l.12,0a15.16,15.16,0,0,1,3.23,0c.32.05.64.1.95.17a2.64,2.64,0,0,0,1.93-.25,2.58,2.58,0,0,0,1.15-1.5A2.52,2.52,0,0,0,189.22,230.23Z"/><path class="cls-3" d="M183.69,234.84c-3.22,0-3.22,5,0,5S186.91,234.84,183.69,234.84Z"/><path d="M191.57,266.16a18.85,18.85,0,0,1-2.71-1.67c-2.12-1.65-4.17-3.83-6.5-5.18a13,13,0,0,0-5-1.75,7.49,7.49,0,0,0-6.21,2.51,9.37,9.37,0,0,0-2.28,6.4,1,1,0,0,0,.3.84c.84.57,2.37-1.34,2.68-1.91a25.16,25.16,0,0,1,1.19-2.24,4.85,4.85,0,0,1,5.7-2.11c3.32,1,6,3.44,8.6,5.64,2,1.68,4.4,2.63,6.25,4.52a9.94,9.94,0,0,1,2.52,4.06c.35,1.27.34,2.81,2.07,3.1,2.19.38,1.26-2.34.79-3.53a19.19,19.19,0,0,0-3.95-6.32A13.34,13.34,0,0,0,191.57,266.16Z"/><path d="M214.62,230.07c-2.18-1.28-5.45-3.55-8-3.79-1.91-.19-3.63-1.07-5.51-1.32a55.75,55.75,0,0,0-9.84-.89c-2.34.1-4.67.36-7,.47A30.21,30.21,0,0,0,172.55,228c-3.15,1.52,0,8.76.95,10.81a28.92,28.92,0,0,0,2.93,5.32c1.53,2,3.14,3.94,4.52,6a14.3,14.3,0,0,0,2.38,2.88,4.78,4.78,0,0,1,1.6,4.49c-.14.81-.59,3.28-1.42,4.16,1,.6,1.91,1.2,2.89,1.77.31-1.41.64-2.82,1-4.22.27-1.14.6-2.6,2-3,2.85-.9,5.52-2.22,8.26-3.37,3.08-1.28,6-2.87,9-4.2,3.72-1.62,8.68-4.27,10.7-7.95C219.56,236.72,218.57,232.4,214.62,230.07Zm-10.38,16.49c-4.4,2-9.14,3.57-13.43,5.65-3.59,1.74-7.16-1.18-10-5.37-3.36-5-5.68-11.77-5.75-14.64-.14-5.47,10.66-5.49,14.16-5.4a57,57,0,0,1,19.23,4.07c2.35,1,5.9,2.47,6.37,5.34C215.65,241.32,207.85,245,204.24,246.56Z"/><path d="M247.52,274.23c-.9,0-2.05,1.64-2,2.85a2,2,0,0,0,2,2.06c.91-.07,2.07-1.73,2.19-3.12C249.75,275.51,248.16,274.21,247.52,274.23Z"/><path d="M243.48,260a2.31,2.31,0,0,0-2.11,2.38c0,1.29.54,1.89,1.79,1.89s2.92-1.52,2.8-2.36A4.74,4.74,0,0,0,243.48,260Z"/><path d="M152.74,237.63a2.17,2.17,0,0,0-2,1.89,2.39,2.39,0,0,0,2.15,2.35,2.44,2.44,0,0,0,2.28-2C155.2,239.15,153.66,237.7,152.74,237.63Z"/><path d="M263.48,267.28a1.74,1.74,0,0,0-1.85,2c0,1,1.13,2.36,1.91,2.36a2.78,2.78,0,0,0,2.13-2.33A2.15,2.15,0,0,0,263.48,267.28Z"/><path d="M146.9,260.25a5.24,5.24,0,0,0,1.83-2.08,2.31,2.31,0,0,0-2.14-2.09,2.14,2.14,0,0,0-2.32,2.13A3,3,0,0,0,146.9,260.25Z"/><path d="M161,251.72c-.09,1.28.63,1.94,2.24,2.07.87.07,1.46-.74,1.54-2.08s-.33-1.7-1.83-1.77C161.73,249.89,161.12,250.45,161,251.72Z"/><path d="M256.9,250.12a2,2,0,0,0-1.73,2.16,2.07,2.07,0,0,0,1.78,1.59c1.3,0,2.05-.59,2-1.67A2.18,2.18,0,0,0,256.9,250.12Z"/><path d="M193.46,283.09a31.86,31.86,0,0,0-3.69-9.38,14.76,14.76,0,0,0-6.13-5.74c-1.55-.81-6.33-3.36-7.89-2.34a4,4,0,0,0-1.11,1.27,5.83,5.83,0,0,0-1,4.15c.08.36.38.78.72.64a.71.71,0,0,0,.31-.35,4.7,4.7,0,0,1,1.39-1.7c2.43-1.63,5.91,1,7.69,2.51a21.21,21.21,0,0,1,5.66,8.35l.75,1.83a13.7,13.7,0,0,1,.5,1.4,9.14,9.14,0,0,1-.26,5,5.5,5.5,0,0,0,.06,2.93c.23.73,1,2,2,1.41.54-.31.34-1.52.41-2.07C193.15,288.34,194,285.86,193.46,283.09Z"/><path d="M198.31,296.65a2.62,2.62,0,0,0-1.93.49c-3.29,2-9.45,1.12-12.65-.77-.71-.42-1.95-1.14-2-2.1,0-.77,1-1,.49-1.89a1.9,1.9,0,0,0-1-.8,1.86,1.86,0,0,0-1.16-.12,1.9,1.9,0,0,0-1.1,1.12c-1.93,4.38,5.87,7.71,9,8.19a17.09,17.09,0,0,0,9.08-1.1C199.15,298.78,199.43,297,198.31,296.65Z"/><path class="cls-4" d="M178.08,286.55c-.31-.74-.63-1.48-.94-2.21-.14-.73-.3-1.44-.49-2.15-.42-1.57-1.05-4.3-2.48-5.35a1.55,1.55,0,0,0,0-.8,1.78,1.78,0,0,0-2.15-1.22l-10.89,2.59a1.76,1.76,0,0,0-1.22,2.15,1.79,1.79,0,0,0,2.16,1.22l.76-.18c3.73,3.24,3.32,8.65,3,13.12-.1,1.45,1.54,2,2.64,1.51a47,47,0,0,1,5.76-2.17c1.83-.55,4.3-.89,4.72-3.15A5.81,5.81,0,0,0,178.08,286.55Z"/><path class="cls-5" d="M178.77,287.47q-.08-.51-.18-1c-.18-.95-.42-1.89-.68-2.82a5.18,5.18,0,0,1-1.66.83c-.87.33-1.75.64-2.63,1a34,34,0,0,1-5.08,1.61,1.88,1.88,0,0,1-1.61-.4,1.67,1.67,0,0,1-.44.06h-.05a2.73,2.73,0,0,1-.49-.06l-.1,0-.11,0a28.74,28.74,0,0,1,0,7.18c-.1,1.45,1.54,2,2.64,1.51a47,47,0,0,1,5.76-2.17c1.43-.43,2.94-.69,4.06-1.76S179,289,178.77,287.47Z"/><path class="cls-4" d="M151.35,287.72a1.77,1.77,0,0,0-2.15-1.23l-2.37.9a16.37,16.37,0,0,0-2.46,1,3.15,3.15,0,0,0-.54.4,1.83,1.83,0,0,0-1.69,1.28,7.88,7.88,0,0,1-1.35,2.25,14.26,14.26,0,0,1-2.19,1.77c-.92.7-1.15,1.89-1.67,2.86a12,12,0,0,1-1.8,2.5,1.78,1.78,0,0,0-.27,2.12,1.75,1.75,0,0,0,2,.81,26.27,26.27,0,0,0,13.43-11.8,1.86,1.86,0,0,0,.22-.86A1.74,1.74,0,0,0,151.35,287.72Z"/><path class="cls-5" d="M141.75,297.87c-1.88.44-3.59,1.34-5.53,1.52a1.33,1.33,0,0,1-.87-.23l-.22.27a1.78,1.78,0,0,0-.27,2.12,1.75,1.75,0,0,0,2,.81,27,27,0,0,0,8.69-5.62A25.59,25.59,0,0,1,141.75,297.87Z"/><path class="cls-4" d="M135.83,281.31a20.7,20.7,0,0,0-4.73-2.24,7.07,7.07,0,0,0-2.22-1.66,1.87,1.87,0,0,0-1.35-.17,1.76,1.76,0,0,0-1,.8,1.78,1.78,0,0,0,.63,2.4l.34.17a2.65,2.65,0,0,0,.22.71,9,9,0,0,0,2.94,3.62,3.06,3.06,0,0,0,2.86.74,13.46,13.46,0,0,0,2.36-1.35A1.77,1.77,0,0,0,135.83,281.31Z"/><path class="cls-5" d="M136,281.9c-.87.66-1.82,1.18-2.74,1.77-.22.13-.43.28-.64.42a3.06,3.06,0,0,0-.29.21l.13-.14a2.71,2.71,0,0,1-.24.25,6.08,6.08,0,0,0-.52.5l-.23.27-.11.16-.05.05a2.56,2.56,0,0,0,2.16.29,13.46,13.46,0,0,0,2.36-1.35,1.75,1.75,0,0,0,.42-2.64A2.52,2.52,0,0,1,136,281.9Z"/><path class="cls-5" d="M161.41,281.17a1.78,1.78,0,0,0-.81-1.05,1.91,1.91,0,0,0-1.35-.18l-.43.11-.06,0a1.64,1.64,0,0,0-.93,0,4.07,4.07,0,0,0-1.37.39,1.92,1.92,0,0,0-.85,1.12,2,2,0,0,0,.19,1.42,1.85,1.85,0,0,0,.73.71,1.87,1.87,0,0,0,.92.25,2.6,2.6,0,0,0,.56-.07c.73-.15,1.45-.35,2.17-.53a1.79,1.79,0,0,0,1-.8,1.28,1.28,0,0,0,.21-.65A1.38,1.38,0,0,0,161.41,281.17Z"/><path class="cls-5" d="M165.65,295.22a1.75,1.75,0,0,0-.81-1.05l-.41-.18a1.83,1.83,0,0,0-.93,0c-.2.08-.4.14-.6.2a1.38,1.38,0,0,0-.57.05l-1,.34a1.93,1.93,0,0,0-1.05.81,1.37,1.37,0,0,0-.2.65,1.29,1.29,0,0,0,0,.7,1.78,1.78,0,0,0,.8,1l.42.18a1.83,1.83,0,0,0,.93,0,9.94,9.94,0,0,0,2.2-.59,1.35,1.35,0,0,0,.59-.31,1.41,1.41,0,0,0,.45-.49,1.31,1.31,0,0,0,.21-.65A1.38,1.38,0,0,0,165.65,295.22Z"/><path class="cls-6" d="M160.34,285.43a1.78,1.78,0,0,0-2.16-1.22l-4.77,1.65a2.05,2.05,0,0,0-.64.36h0a2.21,2.21,0,0,0-1.57,1.93,11.87,11.87,0,0,1-.42,1.66c-.09.28-.19.55-.29.81l-.09.21c-.06.14-.13.27-.2.41a12.33,12.33,0,0,1-1.74,2.64,15.46,15.46,0,0,1-1.28,1.28,3.11,3.11,0,0,0-.28.23l-.08.07-.07,0c-.26.2-.54.39-.82.57a1.75,1.75,0,0,0-.71,2.18,1.73,1.73,0,0,0,2.06,1l4.72-1.81a12.23,12.23,0,0,0,2.24-1,6.73,6.73,0,0,0,1.9-1.86c1-1.34,1.77-2.82,2.63-4.22S160.75,287.33,160.34,285.43Z"/><path class="cls-7" d="M147.76,296.51a1.84,1.84,0,0,1-2.08-.24,1.74,1.74,0,0,0,1.57,3l4.72-1.81a12.23,12.23,0,0,0,2.24-1,6.73,6.73,0,0,0,1.9-1.86c.55-.75,1-1.55,1.52-2.35C154.64,294.3,150.84,295,147.76,296.51Z"/><path class="cls-6" d="M189.78,278.45c-.55-1-1.14-2.08-1.71-3.11s-1-1.92-1.55-2.8a2.74,2.74,0,0,0-3-1.2c-2.25.38-4.5.91-6.74,1.37a1.46,1.46,0,0,0-1,.7,1.91,1.91,0,0,0-1.27.85,1.79,1.79,0,0,0,.62,2.39c1.61,1.22,2.4,3.33,3,5.17.43,1.27.84,2.56,1.22,3.85.2.66.39,1.33.57,2a6.49,6.49,0,0,0,.19.76c0-.06,0,0,0,.06l-.05.06c-1.09,1.52,1,3.15,2.4,2.4,2.17-1.15,4.62-4.22,4.51-6.88a3.59,3.59,0,0,0,2.73-5.61Z"/><path class="cls-7" d="M189.78,278.45c-.14-.26-.29-.52-.43-.79l-.27.14c-3.34,1.38-7.24,2.17-10,4.38a2.27,2.27,0,0,1-.64.36c.34,1,.68,2.08,1,3.13.2.66.39,1.33.57,2a6.49,6.49,0,0,0,.19.76c0-.06,0,0,0,.06l-.05.06c-1.09,1.52,1,3.15,2.4,2.4,2.17-1.15,4.62-4.22,4.51-6.88a3.59,3.59,0,0,0,2.73-5.61Z"/><path class="cls-6" d="M131,285.43a16.17,16.17,0,0,1-3.22-3.07c-.39-.5-.71-1.07-1.07-1.59a1.76,1.76,0,0,0,.51-.82A1.78,1.78,0,0,0,126,277.8a3.91,3.91,0,0,0-3.22.85,17.48,17.48,0,0,0-2.32,1.79,5.31,5.31,0,0,0-1.83,2.4,2.3,2.3,0,0,0,.61,2c.13.15.27.29.41.43l.09.09.08.13c.88,1.24,1.41,2.69,2.26,4a8.26,8.26,0,0,0,2,2,9.81,9.81,0,0,1,.89.59,3,3,0,0,1,.48.8,1.83,1.83,0,0,0,1.69,1.29,1.79,1.79,0,0,0,1.69-1.29,10.89,10.89,0,0,1,2.57-4.74A1.78,1.78,0,0,0,131,285.43Z"/><path class="cls-7" d="M131,285.43l-.1-.08c-.33.39-.51.63-.83,1.06-.64.88-1.28,1.79-1.84,2.73a8.58,8.58,0,0,0-1,2.74c-.17.76-.32,1.52-.49,2.27a1.82,1.82,0,0,0,.35.06,1.79,1.79,0,0,0,1.69-1.29,10.89,10.89,0,0,1,2.57-4.74A1.78,1.78,0,0,0,131,285.43Z"/><path class="cls-7" d="M140.65,286a2.86,2.86,0,0,0-2.82-1.74,1.56,1.56,0,0,0-1.6.06,21.45,21.45,0,0,0-3.61,3,6.08,6.08,0,0,0-1.77,3.16,1.8,1.8,0,0,0-.1,1.86,10,10,0,0,0,1.61,2.31,4.3,4.3,0,0,0,1.11,1,2.39,2.39,0,0,0,2.32,0,16.22,16.22,0,0,0,2.26-1.69,10.26,10.26,0,0,0,1.91-2.09A6.09,6.09,0,0,0,140.65,286Z"/><path class="cls-8" d="M165,287.23a10.11,10.11,0,0,0-.72-2.58,2.64,2.64,0,0,0-1.51-1.33,2.28,2.28,0,0,0-2,.23,1.93,1.93,0,0,0-.81,1.05,1.82,1.82,0,0,0,.18,1.35h0a1.7,1.7,0,0,0-.07.46v1.95a20.7,20.7,0,0,0-1.24,2.71l0,0a2.2,2.2,0,0,0-.17.44l-.11.13a7.49,7.49,0,0,1-.74.75c-.07.06-.48.47-.15.14a2.55,2.55,0,0,1-.43.3,1.76,1.76,0,0,0-.72,2.19,1.73,1.73,0,0,0,2.06,1l3.6-1.49c1.25-.52,2.6-1.27,2.88-2.74a1.71,1.71,0,0,0,0-.45,3,3,0,0,0,.26-1.39A19.79,19.79,0,0,0,165,287.23Z"/><path class="cls-9" d="M165,287.23a10.11,10.11,0,0,0-.72-2.58,2.64,2.64,0,0,0-1.51-1.33,2.69,2.69,0,0,0-.81-.11,2.05,2.05,0,0,1,.59.89,6.69,6.69,0,0,1-.25,5.65,8.19,8.19,0,0,1-4.49,3.53,1.36,1.36,0,0,1-1,0,1.71,1.71,0,0,0-.28,1.79,1.73,1.73,0,0,0,2.06,1l3.6-1.49c1.25-.52,2.6-1.27,2.88-2.74a1.71,1.71,0,0,0,0-.45,3,3,0,0,0,.26-1.39A19.79,19.79,0,0,0,165,287.23Z"/><path class="cls-9" d="M137.2,297.28a1.79,1.79,0,0,0-1.75-1.75c-.51,0-1-.08-1.54-.14s-1-.15-1.45-.26a1.23,1.23,0,0,0-.27,0,1.68,1.68,0,0,0-.72-.88,1.74,1.74,0,0,0-1.34-.18,1.77,1.77,0,0,0-1.23,2.15,19.08,19.08,0,0,0,2.17,4.3,1.81,1.81,0,0,0,1.52.86,1.73,1.73,0,0,0,1.51-.86,2.77,2.77,0,0,1,.22-.37l.32-.33a3.92,3.92,0,0,1,.56-.33h0a1.84,1.84,0,0,0,.7-.5A1.77,1.77,0,0,0,137.2,297.28Z"/><path class="cls-8" d="M130.55,299.78c-.46-.42-1-.81-1.42-1.2a7.81,7.81,0,0,0-1.17-2.21,1.66,1.66,0,0,0,.15-.39,1.78,1.78,0,0,0-1.22-2.15c-.24-.07-.48-.15-.71-.24l-.16-.07-.36-.19a13.91,13.91,0,0,1-1.32-.83l-.59-.42-.36-.27,0,0a12.87,12.87,0,0,1-1.12-1c-.17-.15-.32-.31-.48-.48l-.24-.27-.15-.19-.12-.17-.2-.31c-.09-.16-.17-.32-.25-.48a2.2,2.2,0,0,1-.09-.21c0-.13-.09-.25-.13-.38s-.14-.53-.19-.8l-.06-.32s0-.14,0-.24,0-.24,0-.27l-.06-.49a1.79,1.79,0,0,0-1.75-1.75c-.86,0-1.86.78-1.75,1.75.07.58.14,1.16.23,1.74a1.47,1.47,0,0,0-.26.55,11.31,11.31,0,0,0,2.68,10.2,13.2,13.2,0,0,0,10,4.06A1.77,1.77,0,0,0,130.55,299.78Z"/><path class="cls-9" d="M130,300.11a12,12,0,0,1-1.2-2.37,16.28,16.28,0,0,0-1.18-3c-.85-1.27-1.2.13-1.2.83a13.51,13.51,0,0,0,.73,4.41c-.05-.15-2.61-1.12-3-1.29a14.76,14.76,0,0,1-3.48-2.42,22.72,22.72,0,0,1-2.39-2.71,17.12,17.12,0,0,0-2.42-3.09,10.84,10.84,0,0,0,3,8.77,14.81,14.81,0,0,0,7.28,4.1,6.41,6.41,0,0,0,3.47.19c1.12-.35,2.33-1.15,1.26-2.26A8,8,0,0,1,130,300.11Z"/><path class="cls-10" d="M167.77,278.21a1.22,1.22,0,0,0-.54-.7,1.17,1.17,0,0,0-.9-.11,16.8,16.8,0,0,1-2.41.55,1.15,1.15,0,0,0-.7.54,1.18,1.18,0,0,0-.12.9,1.16,1.16,0,0,0,.54.69l.28.12a1.09,1.09,0,0,0,.62,0,16.49,16.49,0,0,0,2.41-.55,1.22,1.22,0,0,0,.7-.54A1.18,1.18,0,0,0,167.77,278.21Z"/><path class="cls-10" d="M183,274.37a1.19,1.19,0,0,0-1.44-.82l-4.17,1.21a1.17,1.17,0,1,0,.62,2.25l4.17-1.2A1.19,1.19,0,0,0,183,274.37Z"/><path class="cls-10" d="M170.16,276.81a1.17,1.17,0,0,0,0,2.33A1.17,1.17,0,0,0,170.16,276.81Z"/><path class="cls-10" d="M125.79,280.22a1.19,1.19,0,0,0-.7-.54l-.31,0a1.21,1.21,0,0,0-.59.16l-1.2.67a.8.8,0,0,0-.33.3.92.92,0,0,0-.21.39.94.94,0,0,0,0,.47.84.84,0,0,0,.14.43,1.19,1.19,0,0,0,.7.54l.31,0a1.14,1.14,0,0,0,.59-.16l1.2-.66a1,1,0,0,0,.33-.3,1,1,0,0,0,.21-.4.94.94,0,0,0,0-.47A1,1,0,0,0,125.79,280.22Z"/><path class="cls-10" d="M148.33,289.86l-.12-.28a1.06,1.06,0,0,0-.42-.42,1.23,1.23,0,0,0-.9-.12l-1.21.33a.92.92,0,0,0-.39.21.8.8,0,0,0-.3.33.76.76,0,0,0-.14.43.84.84,0,0,0,0,.47l.12.28a1.15,1.15,0,0,0,.41.41,1.18,1.18,0,0,0,.9.12l1.21-.33a.78.78,0,0,0,.4-.21.84.84,0,0,0,.3-.32,1,1,0,0,0,.14-.44A.9.9,0,0,0,148.33,289.86Z"/><polygon points="157.44 280.85 157.44 280.85 157.44 280.85 157.44 280.85 157.44 280.85"/><path d="M157.06,281.16c.07-.07.09-.09.08-.09a.6.6,0,0,1-.08.08Z"/><path d="M189.55,281.36A2.57,2.57,0,0,1,188,283a13.73,13.73,0,0,0-1.64.55c-1.3.75-1.22,2.36-1.56,3.6a4.76,4.76,0,0,1-2.58,2.88,2.94,2.94,0,0,1-1.94.6A31.19,31.19,0,0,0,178.9,282a23.1,23.1,0,0,0-1.88-4.11c-.22-.37-2-3.43-2.37-3.32,3-.88,6.08-1.7,9.15-2.43,1.46-.34.84-2.59-.62-2.25q-7.2,1.71-14.25,3.94c-3.86,1.23-7.79,2.24-11.67,3.43-2.37.73-2,1.53-2.63,3.63a5.81,5.81,0,0,0-.16,2.08,8.83,8.83,0,0,0,.11,1c.08.5-11,3.37-12,3.53-.43-1.42-.2-2.48-1.16-3.74a12.67,12.67,0,0,0-4-3.3c-1.84-1-3.76-1.89-5.65-2.82-2.84-1.38-6.83-2.38-9.72-.64-2.48,1.5-3.73,3.43-5.28,5.77-2.68,4.06-3.85,9.72-1.39,14.2a14.76,14.76,0,0,0,15.35,7.26c7.67-1.13,15.14-3.56,22.49-6,1.51-.49,3-1,4.5-1.57a1.14,1.14,0,0,0,.15.23c2.66,2.77,6.82,1.74,9.86.28,3.89-1.88,8.08-2.41,12.2-3.59a9.24,9.24,0,0,0,4.43-2.76c.32-.35.63-.73.94-1.13a8.65,8.65,0,0,0,2-3.35c.06-.27.11-.53.18-.79a.15.15,0,0,1,0-.07h.07a5.48,5.48,0,0,0,1.75-.63A4.69,4.69,0,0,0,191.8,282,1.17,1.17,0,0,0,189.55,281.36Zm-33,.5a1.71,1.71,0,0,1,1.57-1.1,7.35,7.35,0,0,1,3.12,1.16c-.91.35-3.59,1.9-4.5,1A.94.94,0,0,1,156.53,281.86ZM138.38,285a2.24,2.24,0,0,1,1.3,1.12,4.81,4.81,0,0,1,.39,3.36,8.11,8.11,0,0,1-2.61,3.77,21.22,21.22,0,0,1-1.9,1.5c-.16.12-.32.25-.49.36s-.35.19-.2.18c-.12,0-.65-.48-.8-.59A28.92,28.92,0,0,1,131,292c-.44-1.2.3-2.11,1.05-3,1.26-1.56,2.62-3.19,4.51-3.86A3,3,0,0,1,138.38,285Zm-1.68-1.76a15.83,15.83,0,0,0-4.72,2.5,15.12,15.12,0,0,1-5.19-7.22,10.92,10.92,0,0,1,4.34,1.47C132.54,280.68,135.94,281.72,136.7,283.23Zm-15.95-1.73a9,9,0,0,1,4.84-2.89,16.42,16.42,0,0,0,5.49,7.87,10.91,10.91,0,0,0-3.73,7.63,2.84,2.84,0,0,1-1.22-.87L124.77,292a25.56,25.56,0,0,1-2.48-2.51,20.11,20.11,0,0,1-2.89-6,.61.61,0,0,0-.09-.16A15.35,15.35,0,0,1,120.75,281.5Zm9.08,20.69a12.25,12.25,0,0,1-12.46-6.36c-1.76-3.2-.56-8.06,1.18-11.31a18.87,18.87,0,0,0,3,5.91,33.51,33.51,0,0,0,2.8,2.79c.87.82,1.73,1.9,3,2.08a12.3,12.3,0,0,0,.39,2.23,8.47,8.47,0,0,0,1.21,2.81,20,20,0,0,0,1.66,1.72A7.82,7.82,0,0,1,129.83,302.19Zm2.87-1.32c-1.6-.7-2.38-2.72-2.8-4.4a7.13,7.13,0,0,1-.27-1.89c1,1.19,2.69,1.79,4,2.62,1.08.71,2.1.31,3-.36-.8,1.64-1.83,3.33-3.66,3.86A.66.66,0,0,0,132.7,300.87Zm9.3-1.63c-2.33.7-4.82,1.79-7.29,1.9a10.7,10.7,0,0,0,3.37-4.65.61.61,0,0,0-.08-.68c.44-.34.86-.69,1.26-1.06a10.12,10.12,0,0,0,3.07-4.72c.21-.8,5.45-1.54,6.2-1.75s1.51-.5,2.26-.78a15.57,15.57,0,0,1-8.5,11.27A.48.48,0,0,0,142,299.24Zm10-3a.61.61,0,0,0-.38.2l-2.12.63c-1.37.41-2.75.8-4.13,1.2A16.88,16.88,0,0,0,152.06,287a30.54,30.54,0,0,1,3.77-1.3c1.14-.29,2.27-.73,3.4-1.13.5,2.61-.64,5.2-2,7.38C156.07,293.85,154.39,295.91,152,296.23Zm4.39-1.26a15.29,15.29,0,0,0,1.73-2.27c1.59-2.52,2.82-5.5,2.19-8.52.52-.16,1-.3,1.57-.41,1.38-.28,1.59.25,2.06,1.51a18.08,18.08,0,0,1,.71,5.28,1.9,1.9,0,0,1-.32,1.22c-1,1.54-4.13,1.85-5.74,2.43Zm8.12.25a5.76,5.76,0,0,1-.18.59,1.84,1.84,0,0,1-.4.74,1.63,1.63,0,0,1-1.36.33c-1-.12-2.32-.91-1.61-1.63.39-.39,3.7-.66,3.76-1.06A9,9,0,0,1,164.54,295.22Zm13.25-4.41a1.66,1.66,0,0,1-.72.94,6.48,6.48,0,0,1-1.95.53c-2.08.39-4,1.4-6,2-.76.21-1.78.65-2.17-.08-.26-.48.11-2.33.08-3a21,21,0,0,0-.91-6.75,9.53,9.53,0,0,0-6-5.61,35.08,35.08,0,0,1,8-2.51c1-.22,3.16-1.1,4.15-.83s1.75,2,2.24,2.7a20.56,20.56,0,0,1,2.5,5.45C177.4,285.05,178.49,288.89,177.79,290.81Z"/><path d="M138.53,286.18a.58.58,0,0,0-.58.58,3.71,3.71,0,0,1,0,.58,2.94,2.94,0,0,1-.16.65v0l0,.08a1.3,1.3,0,0,1-.08.17,3.45,3.45,0,0,1-.2.32.58.58,0,1,0,1,.59,3.62,3.62,0,0,0,.65-2.37A.59.59,0,0,0,138.53,286.18Z"/><path d="M137.77,288Z"/><path d="M137.32,290.45a.6.6,0,0,0-.27-.35.59.59,0,0,0-.45-.06.56.56,0,0,0-.35.27,3.94,3.94,0,0,1-.32.51,3.41,3.41,0,0,1-.46.47.58.58,0,0,0-.17.41.58.58,0,0,0,.59.59l.15,0a.61.61,0,0,0,.26-.15,4.1,4.1,0,0,0,.5-.52,4.7,4.7,0,0,0,.46-.7A.65.65,0,0,0,137.32,290.45Z"/><path d="M149.85,283.65a.59.59,0,0,0-.71-.41,15.82,15.82,0,0,1-2.75.76.6.6,0,0,0-.41.72.61.61,0,0,0,.72.41,16.23,16.23,0,0,0,2.75-.76A.59.59,0,0,0,149.85,283.65Z"/><path d="M150.51,281.67a.59.59,0,0,0-.72-.41,14.45,14.45,0,0,1-2.53.65.58.58,0,0,0-.4.72.61.61,0,0,0,.72.41,15.54,15.54,0,0,0,2.52-.65A.6.6,0,0,0,150.51,281.67Z"/><path d="M158.91,300c-2.68.79-5.32,1.7-7.91,2.75a.6.6,0,0,0-.4.72.58.58,0,0,0,.71.41,82.2,82.2,0,0,1,7.91-2.75A.59.59,0,0,0,158.91,300Z"/><path d="M159.52,302.2a.59.59,0,0,0-.72-.4l-4.05,1.68a.6.6,0,0,0-.41.71.59.59,0,0,0,.72.41l4.05-1.68A.6.6,0,0,0,159.52,302.2Z"/></g></svg>