<svg id="T-shirt" xmlns="http://www.w3.org/2000/svg" xmlns:xlink="http://www.w3.org/1999/xlink" viewBox="0 0 500 500"><defs><style>.cls-1{fill:#c5eb34;}.cls-2{fill:url(#linear-gradient);}.cls-3{fill:url(#linear-gradient-2);}.cls-4{fill:url(#linear-gradient-3);}.cls-5{fill:url(#linear-gradient-4);}.cls-6{fill:url(#linear-gradient-5);}</style><linearGradient id="linear-gradient" x1="242.2" y1="500" x2="242.2" y2="335.75" gradientUnits="userSpaceOnUse"><stop offset="0" stop-color="#edcc3b"/><stop offset="0.57" stop-color="#ccec49"/><stop offset="1" stop-color="#b8ff51"/></linearGradient><linearGradient id="linear-gradient-2" x1="342.19" y1="500" x2="342.19" y2="428.32" gradientUnits="userSpaceOnUse"><stop offset="0" stop-color="#d9b314"/><stop offset="0.61" stop-color="#bbd937"/><stop offset="1" stop-color="#aced4a"/></linearGradient><linearGradient id="linear-gradient-3" x1="414.32" y1="459.05" x2="414.32" y2="363.14" xlink:href="#linear-gradient-2"/><linearGradient id="linear-gradient-4" x1="76.82" y1="450.24" x2="76.82" y2="355.51" xlink:href="#linear-gradient-2"/><linearGradient id="linear-gradient-5" x1="118.95" y1="500.17" x2="118.95" y2="422.55" xlink:href="#linear-gradient-2"/></defs><g id="_2_t-shirt" data-name="2_t-shirt"><path class="cls-1" d="M158.83,368.77c-.39-.34-.78-.67-1.16-1-1.1-1-2.16-2.09-3.19-3.18a111.82,111.82,0,0,0-10.69,12,76.25,76.25,0,0,0,4.81,6.1,107.46,107.46,0,0,1,10.15-13.85Z"/><path class="cls-1" d="M146.16,353.94l0,0q-1.55-2.51-2.87-5.13a40.67,40.67,0,0,0-5.15,3.07c-.46.32-.9.64-1.34,1l-.07.05-.29.24-.66.53c-.84.71-1.65,1.45-2.44,2.22l0,0a79.31,79.31,0,0,0,3,7.63Q141,358.54,146.16,353.94Z"/><path class="cls-1" d="M167.42,375.22a67.45,67.45,0,0,1-5.57-3.94,2.16,2.16,0,0,1-.27.38,102,102,0,0,0-10.17,14.08c.9.92,1.83,1.83,2.79,2.71q2.18,2,4.49,3.8l8.61-16.86A1.77,1.77,0,0,1,167.42,375.22Z"/><path class="cls-1" d="M148.45,357.27q-5.35,4.85-10.27,10.13,1.51,2.93,3.27,5.72a116.85,116.85,0,0,1,10.36-11.54C150.64,360.19,149.5,358.76,148.45,357.27Z"/><path class="cls-1" d="M210.24,388.54a174.53,174.53,0,0,0-1.16,20.18,2.23,2.23,0,0,1,0,.27c5,0,10-.22,14.93-.65q-.87-9.82-1.75-19.65A117,117,0,0,1,210.24,388.54Z"/><path class="cls-1" d="M178.9,381.28a79.88,79.88,0,0,1-8.09-4l-.05.12L162,394.51a1.53,1.53,0,0,1-.11.16,78,78,0,0,0,9.9,5.88q3.1-9.57,6.88-18.88C178.76,381.54,178.83,381.41,178.9,381.28Z"/><path class="cls-1" d="M200.4,387.45c-1.36-.21-2.71-.47-4.05-.75q-1.54,10.47-3.08,20.92a81.85,81.85,0,0,0,8.74,1.11c1,.07,2.06.12,3.09.16a.88.88,0,0,1,0-.17,173.65,173.65,0,0,1,1.2-20.51Q203.34,387.91,200.4,387.45Z"/><path class="cls-1" d="M237.5,387.26c-3.75.55-7.51,1-11.29,1.23L228,408c1.52-.16,3-.33,4.55-.51q5.26-.63,10.48-1.49-2.68-9.1-5.39-18.21A2.23,2.23,0,0,1,237.5,387.26Z"/><path class="cls-1" d="M175.47,402.25a79.36,79.36,0,0,0,13.9,4.57q1.55-10.5,3.1-21a90.22,90.22,0,0,1-9.92-3.06Q178.65,392.37,175.47,402.25Z"/><path class="cls-1" d="M94.12,469.91l-6.92-3.05c-1,2-2,4-2.83,6.1l7,3.68Z"/><path class="cls-1" d="M83.56,465.24c-1.94-.88-3.88-1.76-5.81-2.67l-2.7,5.51,5.79,3C81.69,469.12,82.6,467.17,83.56,465.24Z"/><path class="cls-1" d="M101.59,481.54l2.52-7.21L99,472.06l-1.25-.55c-.94,2.3-1.87,4.61-2.81,6.91l0,.06.45.23A64.24,64.24,0,0,0,101.59,481.54Z"/><path class="cls-1" d="M112.09,483a4.29,4.29,0,0,0,1.2-2.26c.2-.68.36-1.37.52-2.05h0l-6-2.68-2.37,6.8,1.17.28C108.16,483.37,110.47,484.3,112.09,483Z"/><path class="cls-1" d="M139.33,338.55l-.14.11-7.82,5.22a1.67,1.67,0,0,1-.93.27c.42,2.52,1,5,1.63,7.49a43.33,43.33,0,0,1,9.59-6.5A60.58,60.58,0,0,1,139.33,338.55Z"/><path class="cls-1" d="M138.41,335c-.21,0-1-4.68-1.3-6.67a66,66,0,0,0-9.72,6.14,2,2,0,0,1,2.19,1.92q.1,1.86.3,3.72l7.29-4.86A1.73,1.73,0,0,1,138.41,335Z"/><path class="cls-1" d="M48.52,454.19l3.61,1.88c1-2.08,2.07-4.18,3-6.3q-2.22-1.51-4.4-3.1C50,449.16,49.22,451.66,48.52,454.19Z"/><path class="cls-1" d="M61.87,461.18c.81-1.88,1.71-3.71,2.67-5.51-2-1.18-4-2.4-6-3.67q-1.38,3-2.87,5.93L61,460.72Z"/><path class="cls-1" d="M71.59,466.08c.85-1.75,1.71-3.49,2.57-5.24l-.9-.43c-1.77-.89-3.51-1.82-5.24-2.77-.94,1.76-1.82,3.55-2.62,5.38l6.12,3.21C71.55,466.18,71.56,466.13,71.59,466.08Z"/><path class="cls-1" d="M338.54,341.42l.07,0a28.49,28.49,0,0,1,6.82,6.64l5.26-4.36-7.58-5.6Q340.83,339.78,338.54,341.42Z"/><path class="cls-1" d="M399.91,467.09c.57,1.87,1.2,3.71,1.88,5.55,2-.54,3.94-1.06,5.92-1.56L406,465.69Z"/><path class="cls-1" d="M396,468l-6.58,1.5c.67,2,1.33,4.11,2,6.17,1.45-.42,2.91-.84,4.35-1.28l2.16-.62c-.69-1.85-1.33-3.72-1.9-5.61A.9.9,0,0,1,396,468Z"/><path class="cls-1" d="M379,471.83c.6,2.28,1.27,4.53,2.05,6.75q3.3-.9,6.6-1.83l-2.07-6.4Z"/><path class="cls-1" d="M367.78,474.35a1.83,1.83,0,0,1,.14.32,46.54,46.54,0,0,1,1.7,6.25,2.38,2.38,0,0,1,0,.59c2.49-.61,5-1.25,7.47-1.9-.79-2.27-1.48-4.57-2.09-6.9Z"/><path class="cls-1" d="M364.07,475.73a1.38,1.38,0,0,1-.09-.53l-6,1.36s0,0,0,.06v.07a47.94,47.94,0,0,0,1.35,6.49,2,2,0,0,1,.05.76c2.19-.49,4.37-1,6.55-1.53a1.33,1.33,0,0,1-.17-.43A46.5,46.5,0,0,0,364.07,475.73Z"/><path class="cls-1" d="M415.67,463.5,410,464.8l1.65,5.32c1.51-.37,3-.74,4.54-1.08.71-.16,1.43-.31,2.15-.45q-1-2.61-1.82-5.28Z"/><path class="cls-1" d="M428.55,460.18a31.48,31.48,0,0,1,1.54,5.73c1.65-.43,3.26-1,3.88-2.17.47-.85-.34-3.45-.77-5Q430.89,459.5,428.55,460.18Z"/><path class="cls-1" d="M420.37,462.38q.87,2.72,1.87,5.39a.06.06,0,0,0,0,0c1.33-.27,2.66-.58,3.95-1a30.86,30.86,0,0,0-1.5-5.58C423.26,461.65,421.82,462,420.37,462.38Z"/><path class="cls-1" d="M354.09,477.43,347.14,479l-.14,0a33.29,33.29,0,0,0,1,4.81,3.69,3.69,0,0,0,1.36,2.14,1.68,1.68,0,0,0,.48.22,2.12,2.12,0,0,1,.79-.34c1.71-.35,3.41-.73,5.11-1.1a1.89,1.89,0,0,1-.23-.5A49.5,49.5,0,0,1,354.09,477.43Z"/><path class="cls-1" d="M284.17,374.36q-3,1.2-6.12,2.29c-1.56.55-3.13,1.1-4.7,1.63a139.86,139.86,0,0,1,6.86,17.3q3-1.27,6-2.73t5.62-3q-3.75-7.55-7.51-15.07A2.23,2.23,0,0,1,284.17,374.36Z"/><path class="cls-1" d="M298.32,368.1c-3.43,1.73-6.93,3.31-10.48,4.78q3.72,7.47,7.45,14.94c3.72-2.29,7.32-4.78,10.82-7.42a34.68,34.68,0,0,1-7.7-11.82A1.36,1.36,0,0,1,298.32,368.1Z"/><path class="cls-1" d="M269.56,379.52c-3.66,1.17-7.34,2.28-11.05,3.28l0,.06q3.45,9,6.11,18.22c4-1.16,8-2.49,11.85-4a133.09,133.09,0,0,0-6.81-17.24C269.64,379.74,269.6,379.63,269.56,379.52Z"/><path class="cls-1" d="M311.37,360.58c-3,1.94-6.05,3.79-9.18,5.5l-.71.37a2.72,2.72,0,0,1,.79,1.07l.21.53a1,1,0,0,1,0,.1c.12.27.24.54.37.81.25.54.52,1.08.81,1.6a31,31,0,0,0,1.82,3c.17.25.34.49.52.73l.3.4.05.07c.37.47.75.93,1.15,1.38.56.63,1.16,1.24,1.77,1.83l1-.77q3.54-2.84,7-5.73-3-5.38-5.93-10.75A.49.49,0,0,0,311.37,360.58Z"/><path class="cls-1" d="M254.65,383.78c-.84.21-1.67.44-2.52.64q-5.31,1.27-10.71,2.21a.08.08,0,0,1,0,0q2.76,9.3,5.51,18.58,6.54-1.22,13-2.87l.84-.23q-2.67-9.24-6.11-18.23Z"/><path class="cls-1" d="M351.75,331.92l-4.49,3.23-.76.54,6.61,4.88a2.63,2.63,0,0,1,.61.64l5.11-4.23a2,2,0,0,1,1.19-.49c-2.5-1.44-5-2.81-7.63-4.08A2.21,2.21,0,0,1,351.75,331.92Z"/><path class="cls-1" d="M341.77,349.78l0,0-.36-.43a22.49,22.49,0,0,0-1.54-1.7c-.56-.56-1.13-1.09-1.74-1.59-.14-.13-.29-.25-.44-.37a2,2,0,0,1-.23-.18l0,0c-.3-.23-.61-.45-.92-.66a2.19,2.19,0,0,1-.94-1.41l-8.94,6.44a2.43,2.43,0,0,1,.87.46l7.46,6.32,7.34-6.09c-.15-.21-.29-.42-.44-.62S341.82,349.86,341.77,349.78Z"/><path class="cls-1" d="M324.19,351.75c-3.14,2.25-6.3,4.49-9.51,6.65a1.31,1.31,0,0,1,.19.27l5.61,10.18,11.45-9.54-7.18-6.08A1.73,1.73,0,0,1,324.19,351.75Z"/><path class="cls-2" d="M349.11,489.2a.33.33,0,0,0,0-.1,4.67,4.67,0,0,1-2-.12c-1.68-.6-2.73-2.9-3.15-4.51-.62-2.37-.89-4.86-1.3-7.27l-1.29-7.63-2.58-15.27q-2.56-15.21-5.14-30.41a2,2,0,0,1,1.4-2.46,2,2,0,0,1,2.46,1.39q1.41,8.32,2.81,16.63l5,29.79c.32,1.94.65,3.89,1,5.83l19.2-4.34L399.92,463c10.87-2.46,21.92-4.59,32.5-8.19-.22-1.23-.45-2.46-.67-3.68-1.68-9.15-3.44-18.3-5.73-27.32a140.35,140.35,0,0,0-63.9-86.07,1.61,1.61,0,0,1-.47,2.09q-3.06,2.55-6.13,5.09l-25.3,21c-2.84,2.35-5.66,4.73-8.5,7.09a2,2,0,0,1-.74.81,1.54,1.54,0,0,1-.46.19c-4.79,4-9.62,7.9-14.64,11.57-15.77,11.53-34,18.58-53,22.59a242.8,242.8,0,0,1-29.17,4.21c-10.49.9-21.1,1-31.5-.82A81.3,81.3,0,0,1,146.13,386a79.5,79.5,0,0,1-5.57-7,1.87,1.87,0,0,1-.62-.23,2.15,2.15,0,0,1-1-2.1,82.14,82.14,0,0,1-13.38-40.3,2,2,0,0,1,0-.6c-6.56,5-13.64,10.44-19,16.62-1.84,2.13-4.32,3.65-6.17,5.81-1,1.15-1.91,2.36-2.84,3.56-11.47,14.93-22.4,30-31.09,46.73A239.26,239.26,0,0,0,52,442.91a1.57,1.57,0,0,1,.78.28q6.08,4.46,12.55,8.32a231.38,231.38,0,0,0,24.56,12.14l24.74,11c.33-1.86.65-3.72,1.06-5.55.65-2.83,1.31-5.66,2-8.47q2.1-8.58,4.52-17.06t5.14-16.88c.47-1.46.95-2.91,1.43-4.37.37-1.08.69-2.26,1.74-2.88s2.83-.48,2.68,1.11c-.33,3.52-2,7.29-3.1,10.65-.93,2.92-1.82,5.85-2.69,8.79-2.8,9.48-5,19.13-7.53,28.67-1.31,4.88-2.71,9.72-4.36,14.49-1.26,3.63-3.25,5.67-7.38,4.64-.49,1.85-.93,3.72-1.3,5.6s-.7,3.92-.89,5.42a2.66,2.66,0,0,1-.44,1.19H349.39s0-.05,0-.08A79.89,79.89,0,0,0,349.11,489.2Z"/><path class="cls-3" d="M351.55,496.84a34.65,34.65,0,0,0-.3-4.55s0-.08,0-.12a1.8,1.8,0,0,0-.19-1c-.54-3.26-3.95-3.19-5.34-6.31-3.65-8.19-1.14-18.75-4-27.47-2.42-7.32-2.67-14.83-3.91-22.51-.22-1.39-.59-5.33-1.69-6.13-1.29-.92-3.41-.41-3.28,1.44l2,27.38c.66,9,1.51,17.93,1.63,26.91a94.45,94.45,0,0,1-.87,15.22c0,.1,0,.19,0,.28H351.3a11.52,11.52,0,0,0,.18-2.68A1.79,1.79,0,0,0,351.55,496.84Z"/><path class="cls-4" d="M433.37,451.15l-9.18-42.58a1.74,1.74,0,0,0-2.18-1.38,85.31,85.31,0,0,0-4.06-10,68.57,68.57,0,0,0-7.4-11.9c-.49-1-1-2-1.49-3a148.06,148.06,0,0,0-11.33-18.22,2.07,2.07,0,0,0-2.74-.72,2,2,0,0,0-.72,2.74,147.68,147.68,0,0,1,12.48,20.53,3.48,3.48,0,0,0,.22.43c12.3,19.69,15.11,45.5,14.83,68-.1,8,4.58,1.24,7.68,1.57l.13,0c.3.08.59.18.89.23a3.32,3.32,0,0,0,3.72-4.85A3.16,3.16,0,0,0,433.37,451.15Z"/><path class="cls-5" d="M100.93,355.53a1.62,1.62,0,0,0-.69.28c-1.83,1.2-4.61,5.79-5.56,7A152.7,152.7,0,0,0,58.94,424c-.3,1-.56,1.95-.83,2.92a2,2,0,0,0-1.62.89A35.24,35.24,0,0,0,51,443a2,2,0,0,0,2,2,1.84,1.84,0,0,0,1.09-.34l.2.74a2.26,2.26,0,0,0,2.49,1.39l-.18.93a2.05,2.05,0,0,0,1.4,2.46,2,2,0,0,0,2.46-1.39A184.17,184.17,0,0,1,76,400.1c6.4-13.34,15-24.73,23.28-36.89C100,362.17,105.28,355.11,100.93,355.53Z"/><path class="cls-6" d="M134.09,424.55c.15-1.08-1-2-2-2a2.05,2.05,0,0,0-2,2c-.21,1.58-.41,3.17-.61,4.76a1.87,1.87,0,0,0-1,1.19q-1.8,6-3.38,12a1.66,1.66,0,0,0-.44.84c-.29,1.33-.54,2.66-.78,4q-2.34,9.53-4.13,19.18c-1.67,4.11-3.25,8.27-4.7,12.46,0,0,0,.08,0,.13-.74,2.16-1.46,4.32-2.15,6.5a2.1,2.1,0,0,0-2,1.5,2.09,2.09,0,0,0-3.18,1c-.37,1.34-.73,2.69-1.1,4a1.76,1.76,0,0,0-2.17,1.39,23.78,23.78,0,0,0-.64,6.43c5.84,0,11.8.39,17.61,0,5.49-.37,3.25-2.52,2.66-7.35a75.22,75.22,0,0,1,.4-17.16C126.4,458.17,131.81,441.7,134.09,424.55Z"/><path d="M353.11,489.2a2.23,2.23,0,0,0-.15-.63c4.94-.87,9.81-2.41,14.67-3.51,4.5-1,9-1.9,13.54-2.78a75.67,75.67,0,0,0,9.42-2.63c9.3-3.11,18.9-5.12,28.43-7.63q5.39-1.42,10.78-2.81c2-.53,9.14-1.06,8.6-3.92-2.41-12.79-4.57-25.67-7.5-38.36a151.23,151.23,0,0,0-10.75-31.24,145,145,0,0,0-37.08-47.9A141.47,141.47,0,0,0,354.41,329a2.51,2.51,0,0,0-.61-.19,2.05,2.05,0,0,0-.18-.41,2,2,0,0,0-2.74-.71l-22.14,15.93c-7.14,5.13-14.22,10.37-21.68,15-14.61,9.11-30.92,15.09-47.43,19.75s-33.76,7.54-51,6.11c-15.46-1.28-30.9-6.13-43.38-15.52-11.11-8.36-19.7-20.49-22.85-34.11-.61-2.64-.38-6.65-2.93-8.32a2.15,2.15,0,0,0-3-2.4l-1.14.56c-6.42,3.22-11.4,7.95-17.17,12.08a111.51,111.51,0,0,0-14.77,12.73c-9.63,9.83-17.93,20.88-25.64,32.25a246.42,246.42,0,0,0-24.23,45.33,240.87,240.87,0,0,0-9.31,27.45,1.83,1.83,0,0,0,.79,2.11,1.8,1.8,0,0,0,.73.65c15.58,8.16,31.14,16.38,46.76,24.48,3.66,1.9,7.58,4,11.57,5l.15,0a92.42,92.42,0,0,0-2.32,12,1.59,1.59,0,0,0,.39,1.19h3.17a2.66,2.66,0,0,0,.44-1.19c.19-1.5.54-3.66.89-5.42s.81-3.75,1.3-5.6c4.13,1,6.12-1,7.38-4.64,1.65-4.77,3-9.61,4.36-14.49,2.56-9.54,4.73-19.19,7.53-28.67.87-2.94,1.76-5.87,2.69-8.79,1.06-3.36,2.77-7.13,3.1-10.65.15-1.59-1.59-1.77-2.68-1.11s-1.37,1.8-1.74,2.88c-.48,1.46-1,2.91-1.43,4.37q-2.73,8.38-5.14,16.88t-4.52,17.06c-.7,2.81-1.36,5.64-2,8.47-.41,1.83-.73,3.69-1.06,5.55l-24.74-11a231.38,231.38,0,0,1-24.56-12.14q-6.47-3.86-12.55-8.32a1.57,1.57,0,0,0-.78-.28,239.26,239.26,0,0,1,14.54-34.44c8.69-16.77,19.62-31.8,31.09-46.73.93-1.2,1.85-2.41,2.84-3.56,1.85-2.16,4.33-3.68,6.17-5.81,5.37-6.18,12.45-11.59,19-16.62a2,2,0,0,0,0,.6A82.14,82.14,0,0,0,139,376.65a2.15,2.15,0,0,0,1,2.1,1.87,1.87,0,0,0,.62.23,79.5,79.5,0,0,0,5.57,7,81.3,81.3,0,0,0,46.05,25.56c10.4,1.82,21,1.72,31.5.82a242.8,242.8,0,0,0,29.17-4.21c19-4,37.26-11.06,53-22.59,5-3.67,9.85-7.59,14.64-11.57a1.54,1.54,0,0,0,.46-.19,2,2,0,0,0,.74-.81c2.84-2.36,5.66-4.74,8.5-7.09l25.3-21q3.08-2.53,6.13-5.09a1.61,1.61,0,0,0,.47-2.09A140.35,140.35,0,0,1,426,423.78c2.29,9,4.05,18.17,5.73,27.32.22,1.22.45,2.45.67,3.68-10.58,3.6-21.63,5.73-32.5,8.19l-34.35,7.76-19.2,4.34c-.33-1.94-.66-3.89-1-5.83l-5-29.79q-1.41-8.31-2.81-16.63a2,2,0,0,0-2.46-1.39,2,2,0,0,0-1.4,2.46q2.58,15.21,5.14,30.41l2.58,15.27,1.29,7.63c.41,2.41.68,4.9,1.3,7.27.42,1.61,1.47,3.91,3.15,4.51a4.67,4.67,0,0,0,2,.12.33.33,0,0,1,0,.1,79.89,79.89,0,0,1,.27,10.72s0,.05,0,.08h4a.22.22,0,0,0,0-.08A79.89,79.89,0,0,0,353.11,489.2ZM107.77,476l6,2.68h0c-.16.68-.32,1.37-.52,2.05a4.29,4.29,0,0,1-1.2,2.26c-1.62,1.34-3.93.41-5.52.08l-1.17-.28ZM95,478.42c.94-2.3,1.87-4.61,2.81-6.91l1.25.55,5.1,2.27-2.52,7.21a64.24,64.24,0,0,1-6.22-2.83l-.45-.23ZM87.2,466.86l6.92,3.05-2.74,6.73-7-3.68C85.25,470.9,86.2,468.87,87.2,466.86Zm-9.45-4.29c1.93.91,3.87,1.79,5.81,2.67-1,1.93-1.87,3.88-2.72,5.87l-5.79-3ZM68,457.64c1.73.95,3.47,1.88,5.24,2.77l.9.43c-.86,1.75-1.72,3.49-2.57,5.24,0,.05,0,.1-.07.15L65.4,463C66.2,461.19,67.08,459.4,68,457.64ZM58.53,452c2,1.27,4,2.49,6,3.67-1,1.8-1.86,3.63-2.67,5.51l-.87-.46-5.34-2.79Q57.15,455,58.53,452Zm-3.36-2.23c-1,2.12-2,4.22-3,6.3l-3.61-1.88c.7-2.53,1.46-5,2.25-7.52Q52.94,448.26,55.17,449.77Zm74.41-113.42a2,2,0,0,0-2.19-1.92,66,66,0,0,1,9.72-6.14c.26,2,1.09,6.64,1.3,6.67a1.73,1.73,0,0,0-1.24.25l-7.29,4.86Q129.69,338.21,129.58,336.35Zm.86,7.8a1.67,1.67,0,0,0,.93-.27l7.82-5.22.14-.11a60.58,60.58,0,0,0,2.33,6.59,43.33,43.33,0,0,0-9.59,6.5C131.41,349.17,130.86,346.67,130.44,344.15Zm2.9,11.76,0,0c.79-.77,1.6-1.51,2.44-2.22l.66-.53.29-.24.07-.05c.44-.34.88-.66,1.34-1a40.67,40.67,0,0,1,5.15-3.07q1.32,2.63,2.87,5.13l0,0q-5.11,4.6-9.84,9.6A79.31,79.31,0,0,1,133.34,355.91Zm4.84,11.49q4.92-5.28,10.27-10.13c1.05,1.49,2.19,2.92,3.36,4.31a116.85,116.85,0,0,0-10.36,11.54Q139.7,370.33,138.18,367.4Zm5.61,9.19a111.82,111.82,0,0,1,10.69-12c1,1.09,2.09,2.16,3.19,3.18.38.35.77.68,1.16,1l-.08.07a107.46,107.46,0,0,0-10.15,13.85A76.25,76.25,0,0,1,143.79,376.59Zm10.41,11.86c-1-.88-1.89-1.79-2.79-2.71a102,102,0,0,1,10.17-14.08,2.16,2.16,0,0,0,.27-.38,67.45,67.45,0,0,0,5.57,3.94,1.77,1.77,0,0,0-.12.17l-8.61,16.86Q156.38,390.45,154.2,388.45Zm7.72,6.22a1.53,1.53,0,0,0,.11-.16l8.73-17.1.05-.12a79.88,79.88,0,0,0,8.09,4c-.07.13-.14.26-.2.39q-3.78,9.31-6.88,18.88A78,78,0,0,1,161.92,394.67Zm27.45,12.15a79.36,79.36,0,0,1-13.9-4.57q3.17-9.88,7.08-19.5a90.22,90.22,0,0,0,9.92,3.06Q190.91,396.33,189.37,406.82Zm15.73,2.07c-1,0-2.06-.09-3.09-.16a81.85,81.85,0,0,1-8.74-1.11q1.53-10.46,3.08-20.92c1.34.28,2.69.54,4.05.75q2.94.46,5.88.76a173.65,173.65,0,0,0-1.2,20.51A.88.88,0,0,0,205.1,408.89Zm4,.1a2.23,2.23,0,0,0,0-.27,174.53,174.53,0,0,1,1.16-20.18,117,117,0,0,0,12,.15q.87,9.82,1.75,19.65C219,408.77,214,409,209.05,409Zm23.45-1.55c-1.51.18-3,.35-4.55.51l-1.74-19.46c3.78-.26,7.54-.68,11.29-1.23a2.23,2.23,0,0,0,.09.48q2.7,9.11,5.39,18.21Q237.76,406.8,232.5,407.44ZM260,402.38q-6.45,1.67-13,2.87-2.76-9.28-5.51-18.58a.08.08,0,0,0,0,0q5.4-.94,10.71-2.21c.85-.2,1.68-.43,2.52-.64l0,.14q3.45,9,6.11,18.23Zm4.7-1.3q-2.67-9.24-6.11-18.22l0-.06c3.71-1,7.39-2.11,11.05-3.28,0,.11.08.22.13.33a133.09,133.09,0,0,1,6.81,17.24C272.61,398.59,268.65,399.92,264.65,401.08Zm21.57-8.23q-3,1.45-6,2.73a139.86,139.86,0,0,0-6.86-17.3c1.57-.53,3.14-1.08,4.7-1.63q3.07-1.09,6.12-2.29a2.23,2.23,0,0,0,.16.43q3.75,7.53,7.51,15.07Q289.08,391.44,286.22,392.85Zm9.07-5q-3.74-7.47-7.45-14.94c3.55-1.47,7.05-3.05,10.48-4.78a1.36,1.36,0,0,0,.09.48,34.68,34.68,0,0,0,7.7,11.82C302.61,383,299,385.53,295.29,387.82Zm15-10.65-1,.77c-.61-.59-1.21-1.2-1.77-1.83-.4-.45-.78-.91-1.15-1.38l-.05-.07-.3-.4c-.18-.24-.35-.48-.52-.73a31,31,0,0,1-1.82-3c-.29-.52-.56-1.06-.81-1.6-.13-.27-.25-.54-.37-.81a1,1,0,0,0,0-.1l-.21-.53a2.72,2.72,0,0,0-.79-1.07l.71-.37c3.13-1.71,6.18-3.56,9.18-5.5a.49.49,0,0,1,0,.11q3,5.37,5.93,10.75Q313.83,374.34,310.29,377.17Zm10.19-8.32-5.61-10.18a1.31,1.31,0,0,0-.19-.27c3.21-2.16,6.37-4.4,9.51-6.65a1.73,1.73,0,0,0,.56,1.48l7.18,6.08ZM335,356.72l-7.46-6.32a2.43,2.43,0,0,0-.87-.46l8.94-6.44a2.19,2.19,0,0,0,.94,1.41c.31.21.62.43.92.66l0,0a2,2,0,0,0,.23.18c.15.12.3.24.44.37.61.5,1.18,1,1.74,1.59a22.49,22.49,0,0,1,1.54,1.7l.36.43,0,0c.05.08.11.15.17.23s.29.41.44.62Zm10.39-8.63a28.49,28.49,0,0,0-6.82-6.64l-.07,0q2.29-1.64,4.57-3.29l7.58,5.6ZM358.83,337l-5.11,4.23a2.63,2.63,0,0,0-.61-.64l-6.61-4.88.76-.54,4.49-3.23a2.21,2.21,0,0,0,.64.49c2.59,1.27,5.13,2.64,7.63,4.08A2,2,0,0,0,358.83,337ZM433.2,458.73c.43,1.56,1.24,4.16.77,5-.62,1.13-2.23,1.74-3.88,2.17a31.48,31.48,0,0,0-1.54-5.73Q430.89,459.49,433.2,458.73Zm-8.5,2.53a30.86,30.86,0,0,1,1.5,5.58c-1.29.39-2.62.7-3.95,1a.06.06,0,0,1,0,0q-1-2.67-1.87-5.39C421.82,462,423.26,461.65,424.7,461.26Zm-9,2.24.8-.19q.84,2.67,1.82,5.28c-.72.14-1.44.29-2.15.45-1.51.34-3,.71-4.54,1.08L410,464.8ZM406,465.69l1.68,5.39c-2,.5-4,1-5.92,1.56-.68-1.84-1.31-3.68-1.88-5.55ZM396,468a.9.9,0,0,0,0,.16c.57,1.89,1.21,3.76,1.9,5.61l-2.16.62c-1.44.44-2.9.86-4.35,1.28-.67-2.06-1.33-4.12-2-6.17Zm-10.49,2.38,2.07,6.4q-3.3.93-6.6,1.83c-.78-2.22-1.45-4.47-2.05-6.75ZM375,472.71c.61,2.33,1.3,4.63,2.09,6.9-2.48.65-5,1.29-7.47,1.9a2.38,2.38,0,0,0,0-.59,46.54,46.54,0,0,0-1.7-6.25,1.83,1.83,0,0,0-.14-.32ZM364,475.2a1.38,1.38,0,0,0,.09.53,46.5,46.5,0,0,1,1.69,6.25,1.33,1.33,0,0,0,.17.43c-2.18.52-4.36,1-6.55,1.53a2,2,0,0,0-.05-.76,47.94,47.94,0,0,1-1.35-6.49v-.07s0,0,0-.06Zm-14.18,11a1.68,1.68,0,0,1-.48-.22,3.69,3.69,0,0,1-1.36-2.14,33.29,33.29,0,0,1-1-4.81l.14,0,6.95-1.56a49.5,49.5,0,0,0,1.38,6.81,1.89,1.89,0,0,0,.23.5c-1.7.37-3.4.75-5.11,1.1A2.12,2.12,0,0,0,349.8,486.18Z"/></g></svg>