<svg id="Brows" xmlns="http://www.w3.org/2000/svg" viewBox="0 0 500 500"><defs><style>.cls-1{fill:#333;}</style></defs><path class="cls-1" d="M188.11,136.64a49.45,49.45,0,0,1-1.85,5,1.38,1.38,0,0,0-.65-.42,1.54,1.54,0,0,0-1.87,1c-.12.28-.24.56-.37.84l0,0,0,.06-.08.17a1.5,1.5,0,0,0-1-1.68,1.52,1.52,0,0,0-1.87,1q-.1.36-.24.72l-.13.33a1.48,1.48,0,0,0-.8-.6,1.46,1.46,0,0,0-1.14.11,1.53,1.53,0,0,0-.65.73h0l0,0s0,0,0,0a1.41,1.41,0,0,0-.37-.18,1.55,1.55,0,0,0-1.14.11l-.32.23a1.52,1.52,0,0,0-.31.44,10,10,0,0,1-.57,1s0-.06,0-.09a1.5,1.5,0,0,0-1.8-1.12,1.52,1.52,0,0,0-.92.66c-.08.13-.18.25-.27.38l-.09-.12a1.5,1.5,0,0,0-1.06-.48,1.46,1.46,0,0,0-1.06.4,10.31,10.31,0,0,1-1.54,1.41c-.2.13-.42.23-.63.36a1.34,1.34,0,0,0,.07-.4,1.49,1.49,0,0,0-2.51-1.14,6.75,6.75,0,0,1-.65.55h0a1.34,1.34,0,0,0-.32-.57,1.48,1.48,0,0,0-1.06-.48l-.39,0a1.36,1.36,0,0,0-.5.24,5,5,0,0,1-.91.48,5.49,5.49,0,0,1-.78.18,5.14,5.14,0,0,1-1,0h0a1.58,1.58,0,0,0-1.15.11,1.55,1.55,0,0,0-.73.88,1.58,1.58,0,0,0,.11,1.15,1.5,1.5,0,0,0,.89.73,6.52,6.52,0,0,0,2.85,0,2.42,2.42,0,0,0,.36-.1,1.49,1.49,0,0,0,.59.74,1.59,1.59,0,0,0,1.15.19,6,6,0,0,0,.83-.24,7.52,7.52,0,0,0,1.09-.48c.18-.1.34-.22.52-.33a1.43,1.43,0,0,0,.16.89,1.45,1.45,0,0,0,.88.73,1.66,1.66,0,0,0,1.14-.11,10.47,10.47,0,0,0,1.27-.7,1.52,1.52,0,0,0,1.88.45,8.25,8.25,0,0,0,1.39-.9,1.39,1.39,0,0,0,.34.66,1.42,1.42,0,0,0,1.9.21.56.56,0,0,0,.05.08,1.52,1.52,0,0,0,2.12.08c.22-.23.42-.47.62-.7a1.54,1.54,0,0,0,2.11.07c.21-.2.42-.4.63-.62a4.72,4.72,0,0,0,4.52,2.12A52.08,52.08,0,0,0,191,137.51,1.5,1.5,0,0,0,188.11,136.64Z"/><path class="cls-1" d="M258.18,149.17a49.77,49.77,0,0,0,.47,5.33,1.43,1.43,0,0,1,.74-.23,1.54,1.54,0,0,1,1.54,1.45c0,.31.09.61.13.91v.12l0,.18a1.5,1.5,0,0,1,1.43-1.35A1.53,1.53,0,0,1,264.1,157c0,.26,0,.51,0,.76s0,.23,0,.35a1.44,1.44,0,0,1,.93-.37,1.49,1.49,0,0,1,1.07.4,1.64,1.64,0,0,1,.44.88h0V159s0,0,0,.05a1.14,1.14,0,0,1,.4-.08,1.54,1.54,0,0,1,1.08.41l.24.3a1.49,1.49,0,0,1,.19.51,8.77,8.77,0,0,0,.29,1.12l0-.08a1.5,1.5,0,0,1,2-.61,1.53,1.53,0,0,1,.72.88c0,.15.11.29.16.44l.12-.09a1.5,1.5,0,0,1,1.15-.19,1.48,1.48,0,0,1,.92.66,9.56,9.56,0,0,0,1.11,1.77c.16.18.35.33.52.51a1.33,1.33,0,0,1,0-.4,1.5,1.5,0,0,1,1.81-1.11,1.55,1.55,0,0,1,.92.66,5.53,5.53,0,0,0,.48.71l0,0a1.3,1.3,0,0,1,.46-.47,1.5,1.5,0,0,1,1.15-.19l.36.14a1.5,1.5,0,0,1,.43.36,4.58,4.58,0,0,0,.75.71,6,6,0,0,0,.71.38,4.84,4.84,0,0,0,.93.22h0a1.61,1.61,0,0,1,1.07.4,1.58,1.58,0,0,1,.48,1.05,1.51,1.51,0,0,1-.41,1.07,1.49,1.49,0,0,1-1,.48,6.62,6.62,0,0,1-2.76-.72c-.11,0-.22-.13-.33-.19a1.43,1.43,0,0,1-.76.56,1.61,1.61,0,0,1-1.16-.12,5.51,5.51,0,0,1-.73-.45,6.78,6.78,0,0,1-.93-.75,5.74,5.74,0,0,1-.41-.45,1.49,1.49,0,0,1-1.44,1.29,1.64,1.64,0,0,1-1.07-.41,9.89,9.89,0,0,1-1-1,1.5,1.5,0,0,1-1.93-.06,7.61,7.61,0,0,1-1.1-1.23,1.43,1.43,0,0,1-.51.55,1.5,1.5,0,0,1-1.15.19,1.7,1.7,0,0,1-.74-.48s0,0-.06.05a1.51,1.51,0,0,1-2.07-.47c-.15-.28-.28-.56-.42-.84a1.53,1.53,0,0,1-2.05-.48c-.16-.25-.31-.51-.45-.77a1.51,1.51,0,0,1-1,1.21,1.6,1.6,0,0,1-1.11-.11,1.54,1.54,0,0,1-2.78-.24,52.43,52.43,0,0,1-2.53-14.43A1.5,1.5,0,0,1,258.18,149.17Z"/></svg>