<svg id="Brows" xmlns="http://www.w3.org/2000/svg" viewBox="0 0 500 500"><defs><style>.cls-1{fill:none;}.cls-2{fill:#333;}</style></defs><rect class="cls-1" width="500" height="500"/><path class="cls-2" d="M281.92,164.47a1.42,1.42,0,0,0-.68-.92l-2.33-1.07a1.26,1.26,0,0,0-.47-.17,1.07,1.07,0,0,0,.22-.37,1.09,1.09,0,0,0,.13-.57l0-.38a1.58,1.58,0,0,0-.37-.67l-.32-.25a1.42,1.42,0,0,0-.75-.21h-.13l-.11,0a1.19,1.19,0,0,1-.15-.09,1.18,1.18,0,0,0-.39-.23,1.15,1.15,0,0,0-.57-.14,1.18,1.18,0,0,0-.56.12l-.15.07,0-.32a1.43,1.43,0,0,0-.37-.67l-.31-.25a1.59,1.59,0,0,0-.76-.22l-1.09.13a1.39,1.39,0,0,0,.06-.13,1.15,1.15,0,0,0,.14-.57,1.56,1.56,0,0,0-.42-1.05l-.31-.25a1.48,1.48,0,0,0-.76-.21l-1.63-.13a1.37,1.37,0,0,0,.35-.6,1.58,1.58,0,0,0-.13-1.13,1.44,1.44,0,0,0-.92-.72,13.59,13.59,0,0,0-1.68-.14,1.38,1.38,0,0,0,.16-.64,1.47,1.47,0,0,0-.42-1.05,1.49,1.49,0,0,0-1.07-.47l-3.75.21a1.34,1.34,0,0,0,.35-.93,1.63,1.63,0,0,0-.84-1.36,1.37,1.37,0,0,0,.79-1.26,1.52,1.52,0,0,0-1.49-1.51,30.74,30.74,0,0,0-11.7,3.37,1.52,1.52,0,0,0-.59,2,1.55,1.55,0,0,0,2,.59c.83-.44,1.68-.82,2.54-1.18l.07,0h0l.33-.13.1,0a1.28,1.28,0,0,0,0,.7,1.52,1.52,0,0,0,1.82,1.08,28.05,28.05,0,0,1,3.29-.62c.45-.05.91-.08,1.37-.11a1.5,1.5,0,0,0-.33.91,1.52,1.52,0,0,0,.42,1,1.46,1.46,0,0,0,1.07.46l2.11-.11a1.46,1.46,0,0,0-.15,1.1,1.53,1.53,0,0,0,1.82,1.09c.22,0,.45-.08.67-.11a11.11,11.11,0,0,1,1.73,0,1.64,1.64,0,0,0-.39,1,1.51,1.51,0,0,0,.41,1l.32.25a1.42,1.42,0,0,0,.75.21l2.23.17a1.08,1.08,0,0,0-.08.19,1.1,1.1,0,0,0-.14.57l0,.38a1.48,1.48,0,0,0,.37.67l.31.25a1.48,1.48,0,0,0,.76.21l1.4-.16a1.17,1.17,0,0,0,.56-.11l.15-.07,0,.32a1.52,1.52,0,0,0,.37.67,4.94,4.94,0,0,0,.44.36l.16.11a.7.7,0,0,0,.17.09,5,5,0,0,0,.53.23,1.61,1.61,0,0,0,.36.1l.45.06-.11.15a1.51,1.51,0,0,0-.17,1.14,1.46,1.46,0,0,0,.69.92l2.32,1.06a1,1,0,0,0,.56.19,1.15,1.15,0,0,0,.58,0,1.58,1.58,0,0,0,.92-.68A1.52,1.52,0,0,0,281.92,164.47Z"/><path class="cls-2" d="M151,145.74a1.42,1.42,0,0,1,1-.58l2.55-.07a1.2,1.2,0,0,1,.5,0,1.21,1.21,0,0,1-.05-.42,1.07,1.07,0,0,1,.1-.58l.19-.33a1.45,1.45,0,0,1,.6-.47l.39-.11a1.48,1.48,0,0,1,.78.1l.11,0,.13,0,.16,0a1.2,1.2,0,0,1,.46-.07,1.11,1.11,0,0,1,.57.1,1.06,1.06,0,0,1,.47.33.6.6,0,0,1,.11.12l.17-.28a1.45,1.45,0,0,1,.6-.47l.39-.11a1.55,1.55,0,0,1,.77.1l1,.54c0-.05,0-.09,0-.14a1.17,1.17,0,0,1,.1-.58,1.53,1.53,0,0,1,.8-.8l.39-.11a1.57,1.57,0,0,1,.77.1l1.55.53a1.38,1.38,0,0,1-.08-.69,1.53,1.53,0,0,1,.56-1,1.48,1.48,0,0,1,1.13-.3,15.77,15.77,0,0,1,1.6.53,1.28,1.28,0,0,1,.1-.65,1.49,1.49,0,0,1,2-.81l3.37,1.65a1.33,1.33,0,0,1,.05-1,1.64,1.64,0,0,1,1.3-.93,1.37,1.37,0,0,1-.23-1.47,1.53,1.53,0,0,1,2-.81,31.12,31.12,0,0,1,9.45,7.69,1.5,1.5,0,1,1-2.37,1.85c-.59-.72-1.22-1.41-1.87-2.08l-.06-.05,0,0-.25-.25-.08-.07a1.23,1.23,0,0,1-.28.64,1.52,1.52,0,0,1-2.1.29,25.76,25.76,0,0,0-2.77-1.86c-.4-.23-.82-.43-1.22-.64a1.49,1.49,0,0,1-.06,1,1.51,1.51,0,0,1-2,.82l-1.9-.94a1.49,1.49,0,0,1-.29,1.07,1.53,1.53,0,0,1-2.1.29l-.58-.37a10.68,10.68,0,0,0-1.58-.7,1.18,1.18,0,0,1,.08.49,1.29,1.29,0,0,1-.1.58,1.56,1.56,0,0,1-.8.8l-.39.11a1.55,1.55,0,0,1-.77-.1l-2.12-.72c0,.07,0,.13,0,.2a1.18,1.18,0,0,1-.11.58l-.19.33a1.45,1.45,0,0,1-.6.47l-.39.11a1.59,1.59,0,0,1-.78-.1l-1.23-.7a1.07,1.07,0,0,1-.46-.32l-.12-.12-.16.28a1.54,1.54,0,0,1-.6.47l-.54.16-.2,0-.19,0H157a2.2,2.2,0,0,1-.37-.06,3.17,3.17,0,0,1-.44-.12.58.58,0,0,1,0,.19,1.5,1.5,0,0,1-1.28,1.69l-2.56.07a1.31,1.31,0,0,1-.59,0,1.2,1.2,0,0,1-.52-.25,1.56,1.56,0,0,1-.58-1A1.53,1.53,0,0,1,151,145.74Z"/></svg>