<svg id="Brows" xmlns="http://www.w3.org/2000/svg" viewBox="0 0 500 500"><defs><style>.cls-1{fill:none;}.cls-2{fill:#333;}</style></defs><path class="cls-1" d="M0,0V500H49.11c-2.39-16.5,2.46-32.53,7.86-48.33,3-23.3,7.3-46.27,21.31-64.87,3-10.76,10.73-18.95,17.34-27.7,3.47-4.61,7-9.18,10.7-13.5a1.63,1.63,0,0,1,.09-.19,34.8,34.8,0,0,1,13.11-12.55,3.14,3.14,0,0,1,3.72.12l.24-.12c3.42-1.76,7.27,2.7,4.24,5.49-7.16,6.61-14.23,13.27-20.33,20.9a2.77,2.77,0,0,1-3.74.78l-2.91,3.81c-4.3,5.6-9.15,11-12.54,17.22a3.44,3.44,0,0,1,0,4.73c-1.23,1.33-2.38,2.7-3.48,4.1,0,.19-.1.37-.14.56a3,3,0,0,1-2,2.33c-.32.45-.64.9-.94,1.36a2.75,2.75,0,0,1,1.21,3.66c-.38.94-.76,1.88-1.13,2.82a3.58,3.58,0,0,1-1.66,1.87c-4,7.12-6.23,15.33-7.86,23.63a3.37,3.37,0,0,1-.08,1c-.13.51-.27,1-.41,1.52-1,5.63-1.89,11.25-3,16.55a2.94,2.94,0,0,1-3.2,2.5c-.48,1.37-1,2.74-1.46,4.11C61.94,467.93,60.58,484.17,57,500H427v-.28c-1.12-12.34-5.38-25.12-2.33-37.25-2.53-8.4-5.37-16.7-6.76-25.39-.35-2.12-.63-4.32-.92-6.55a53.61,53.61,0,0,1-8.33-20.08c-6.43-13.55-13.88-26.6-21.59-39.49a3.16,3.16,0,0,1-.46-1.76,61.45,61.45,0,0,0-4.64-6.57,3.59,3.59,0,0,1-.48-3.82c-2.26-2.79-4.85-5.43-7.19-8.19a3,3,0,0,1-2.48-1.68c-.1-.2-.2-.4-.31-.6a3.47,3.47,0,0,1-2.39-.41,20,20,0,0,1-5.61-4.49l-1.43-.95a6.85,6.85,0,0,0-1.36-.29c-4.44-.45-4.47-7.46,0-7a16.8,16.8,0,0,1,3.17.65l.39,0a3.26,3.26,0,0,1,2.22.41,20.87,20.87,0,0,1,4.26,1.5,3.1,3.1,0,0,1,4.28,1.4c1.77,3.93,4.59,7.32,7.52,10.65,1.34-1.87,4.71-2.36,6,.08,2.61,4.81,5,9.73,7.28,14.67,4.57,7.45,9.78,14.57,13.1,22.69,2.15,5.27,4,10.65,5.86,16,4.51,5.67,6.5,12.28,7.8,19.17q1.25,2.44,2.67,4.83a3.23,3.23,0,0,1-1.16,4.58c0,.12,0,.24.05.35,1.3,8.51,3.8,16.64,6.23,24.8a3,3,0,0,1,2,4c-.16.44-.31.87-.45,1.31l.36,1.29a3.62,3.62,0,0,1,2.35,2.32c3.91,10.47-.73,21.07-.94,31.67.1.79.18,1.58.26,2.37h66V0ZM110.93,303.76c-1.09-1.48-2.13-3-3.13-4.54-.83-1.13-1.67-2.24-2.52-3.36a3,3,0,0,1-.67-1.85,112.79,112.79,0,0,1-10.48-24.83c-.15,1.28-.32,2.55-.52,3.82-.58,3.54-5.9,3.11-6.75,0a70.42,70.42,0,0,1-2.27-18.73,3.71,3.71,0,0,1-2.93-.24,4.68,4.68,0,0,1-.83-.05l-.49-.07a3.35,3.35,0,0,1-2.45-2.44l-.07-.5a4.16,4.16,0,0,1,1.33-3.84c2.65-10.35.27-22.09,6.67-31.23-.06-.85-.13-1.71-.22-2.56-.44-4.22,5.73-4.43,6.85-.75.51-2.15,1.09-4.29,1.75-6.4a3.52,3.52,0,0,1,.48-1l-.15-.14a3.57,3.57,0,0,1,0-5l.21-.18a3.43,3.43,0,0,1,2.83-1.41l.16,0,.41,0a4.29,4.29,0,0,1,3.64,2,4.48,4.48,0,0,1,1,2.63,3,3,0,0,1,0,.6,3.17,3.17,0,0,1,0,.53.9.9,0,0,1,0,.16,3.17,3.17,0,0,1-.12.44l-.06.16v0a2.73,2.73,0,0,1-.23.45,4,4,0,0,1-.49.67,2.87,2.87,0,0,1-.64.51,3.59,3.59,0,0,1-.15,1.34c-9,29.07-3.66,62.21,12.91,87.65,1.08,1.47,2.13,3,3.11,4.52C119.42,304.12,113.53,307.32,110.93,303.76Z"/><path class="cls-2" d="M282.16,165.35a1.49,1.49,0,0,0-1.06-.44l-2.55.28a1.05,1.05,0,0,0-.49.1,1.24,1.24,0,0,0,0-.43,1.12,1.12,0,0,0-.18-.56l-.23-.3a1.47,1.47,0,0,0-.67-.39l-.4-.05a1.5,1.5,0,0,0-.75.2l-.11.06-.12,0a1,1,0,0,1-.17,0,1.14,1.14,0,0,0-.45,0,1.12,1.12,0,0,0-.56.18,1,1,0,0,0-.42.39.64.64,0,0,0-.1.13l-.19-.26a1.54,1.54,0,0,0-.67-.38l-.4,0a1.41,1.41,0,0,0-.75.2l-.87.66s0-.09,0-.14a1.18,1.18,0,0,0-.17-.55,1.48,1.48,0,0,0-.9-.69l-.4-.06a1.48,1.48,0,0,0-.76.21l-1.46.73a1.38,1.38,0,0,0,0-.7,1.55,1.55,0,0,0-.69-.9,1.48,1.48,0,0,0-1.16-.15,16.23,16.23,0,0,0-1.51.74,1.45,1.45,0,0,0-.19-.63,1.55,1.55,0,0,0-.9-.69,1.52,1.52,0,0,0-1.16.15l-3.11,2.1a1.34,1.34,0,0,0-.18-1,1.62,1.62,0,0,0-1.41-.74,1.38,1.38,0,0,0,0-1.49,1.51,1.51,0,0,0-2-.53,30.67,30.67,0,0,0-8.32,8.89,1.5,1.5,0,0,0,2.59,1.52c.49-.8,1-1.57,1.58-2.32l.05-.06,0,0,.21-.27.07-.08a1.38,1.38,0,0,0,.36.6,1.54,1.54,0,0,0,2.12,0,27.67,27.67,0,0,1,2.5-2.23c.37-.27.75-.53,1.13-.79a1.47,1.47,0,0,0,.18,1,1.55,1.55,0,0,0,.9.69,1.49,1.49,0,0,0,1.15-.16l1.76-1.17a1.5,1.5,0,0,0,.43,1,1.54,1.54,0,0,0,2.12,0c.17-.16.35-.3.52-.44a11.2,11.2,0,0,1,1.47-.91,1.16,1.16,0,0,0,0,.49,1.26,1.26,0,0,0,.17.56,1.55,1.55,0,0,0,.9.69l.4,0a1.48,1.48,0,0,0,.76-.21l2-1a.71.71,0,0,0,0,.2,1.16,1.16,0,0,0,.18.56l.23.3a1.59,1.59,0,0,0,.66.39l.4.05a1.48,1.48,0,0,0,.76-.21l1.12-.85a1,1,0,0,0,.42-.39.64.64,0,0,0,.1-.13l.19.25a1.47,1.47,0,0,0,.67.39,5,5,0,0,0,.56.08l.19,0h.19a5.21,5.21,0,0,0,.57-.08,1.36,1.36,0,0,0,.36-.1l.42-.18a1.23,1.23,0,0,0,0,.19,1.54,1.54,0,0,0,.44,1.06,1.49,1.49,0,0,0,1.06.44l2.55-.28a1,1,0,0,0,.57-.13,1.11,1.11,0,0,0,.49-.31,1.54,1.54,0,0,0,.44-1.06A1.56,1.56,0,0,0,282.16,165.35Z"/><path class="cls-2" d="M157.63,145.77a1.43,1.43,0,0,1,1.14-.15l2.38.93a1.18,1.18,0,0,1,.45.22,1.19,1.19,0,0,1,.11-.41,1.08,1.08,0,0,1,.32-.49l.31-.24a1.57,1.57,0,0,1,.74-.2l.4.06a1.47,1.47,0,0,1,.67.39l.09.09.11.06.16,0a1.31,1.31,0,0,1,.44.12,1.08,1.08,0,0,1,.49.32,1.14,1.14,0,0,1,.31.48.76.76,0,0,1,.06.16l.25-.2a1.49,1.49,0,0,1,.74-.2l.4.05a1.62,1.62,0,0,1,.68.4l.67.87a.29.29,0,0,1,0-.13,1.09,1.09,0,0,1,.31-.5A1.59,1.59,0,0,1,170,147l.4.05a1.58,1.58,0,0,1,.67.4l1.23,1.08a1.38,1.38,0,0,1,.19-.67,1.58,1.58,0,0,1,.9-.68,1.43,1.43,0,0,1,1.16.16,13.17,13.17,0,0,1,1.26,1.11,1.45,1.45,0,0,1,.35-.56,1.52,1.52,0,0,1,2.13,0l2.46,2.84a1.36,1.36,0,0,1,.42-.89,1.62,1.62,0,0,1,1.56-.34,1.37,1.37,0,0,1,.36-1.44,1.51,1.51,0,0,1,2.12,0,30.68,30.68,0,0,1,5.71,10.76,1.5,1.5,0,0,1-2.9.78c-.26-.89-.57-1.77-.91-2.64l0-.08v0l-.14-.32a.93.93,0,0,0,0-.1,1.28,1.28,0,0,1-.5.48,1.53,1.53,0,0,1-2.05-.55,28.63,28.63,0,0,0-1.83-2.8c-.28-.36-.58-.71-.88-1.06a1.49,1.49,0,0,1-1.47,1.3,1.56,1.56,0,0,1-1.08-.45l-1.38-1.59a1.57,1.57,0,0,1-.69.87,1.53,1.53,0,0,1-2-.56l-.39-.56a10.89,10.89,0,0,0-1.19-1.26,1,1,0,0,1-.12.48,1.11,1.11,0,0,1-.31.49,1.55,1.55,0,0,1-1,.43l-.4-.05a1.52,1.52,0,0,1-.68-.4l-1.67-1.48a1.46,1.46,0,0,1-.07.19,1,1,0,0,1-.32.49l-.3.23a1.49,1.49,0,0,1-.74.2l-.4-.05a1.52,1.52,0,0,1-.68-.4l-.86-1.12a1.11,1.11,0,0,1-.31-.48s0-.1-.05-.15l-.26.19a1.47,1.47,0,0,1-.74.2,5.35,5.35,0,0,1-.56-.07,1.08,1.08,0,0,1-.19,0l-.18-.06c-.18-.06-.36-.14-.54-.22a2.14,2.14,0,0,1-.32-.2c-.12-.09-.24-.18-.35-.28a1.29,1.29,0,0,1,0,.19,1.48,1.48,0,0,1-.7.91,1.45,1.45,0,0,1-1.13.15l-2.39-.93a1.15,1.15,0,0,1-.52-.28,1.24,1.24,0,0,1-.39-.43,1.51,1.51,0,0,1,.56-2Z"/></svg>